<?xml version="1.0" encoding="us-ascii" standalone="no"?><svg xmlns="http://www.w3.org/2000/svg" xmlns:xlink="http://www.w3.org/1999/xlink" contentStyleType="text/css" height="1050px" preserveAspectRatio="none" style="width:540px;height:1050px;background:#FFFFFF;" version="1.1" viewBox="0 0 540 1050" width="540px" zoomAndPan="magnify"><defs/><g><ellipse cx="256.25" cy="15" fill="#003366" rx="10" ry="10" style="stroke:#003366;stroke-width:1.0;"/><rect fill="#F2F4F7" height="46.3441" rx="2.5" ry="2.5" style="stroke:#003366;stroke-width:1.0;" width="255" x="128.75" y="45"/><text fill="#000000" font-family="sans-serif" font-size="12" lengthAdjust="spacing" textLength="225" x="143.75" y="72.8281">Administrateur d&#233;finit la Session globale</text><rect fill="#F2F4F7" height="46.3441" rx="2.5" ry="2.5" style="stroke:#003366;stroke-width:1.0;" width="259" x="126.75" y="111.3441"/><text fill="#000000" font-family="sans-serif" font-size="12" lengthAdjust="spacing" textLength="229" x="141.75" y="139.1722">Coordinateur acc&#232;de &#224; la session globale</text><rect fill="#F2F4F7" height="62.6882" rx="2.5" ry="2.5" style="stroke:#003366;stroke-width:1.0;" width="266" x="123.25" y="221.6882"/><text fill="#000000" font-family="sans-serif" font-size="12" lengthAdjust="spacing" textLength="236" x="138.25" y="249.5163">Planification d'une soutenance individuelle</text><text fill="#000000" font-family="sans-serif" font-size="12" lengthAdjust="spacing" textLength="174" x="138.25" y="265.8604">(&#201;tudiant, Salle, Date, Cr&#233;neau)</text><rect fill="#F2F4F7" height="46.3441" rx="2.5" ry="2.5" style="stroke:#003366;stroke-width:1.0;" width="340" x="86.25" y="304.3765"/><text fill="#000000" font-family="sans-serif" font-size="12" lengthAdjust="spacing" textLength="310" x="101.25" y="332.2045">Validation automatique des contraintes (RG1, RG2, RG3)</text><polygon fill="#003366" points="200.75,370.9087,311.75,370.9087,323.75,384.0807,311.75,397.2528,200.75,397.2528,188.75,384.0807,200.75,370.9087" style="stroke:#003366;stroke-width:1.0;"/><text fill="#FFFFFF" font-family="sans-serif" font-size="12" lengthAdjust="spacing" textLength="101" x="205.75" y="388.7367">Conflits d&#233;tect&#233;s ?</text><text fill="#003366" font-family="sans-serif" font-size="12" lengthAdjust="spacing" textLength="19" x="164.75" y="375.5647">Oui</text><text fill="#003366" font-family="sans-serif" font-size="12" lengthAdjust="spacing" textLength="23" x="328.75" y="375.5647">Non</text><rect fill="#F2F4F7" height="46.3441" rx="2.5" ry="2.5" style="stroke:#003366;stroke-width:1.0;" width="170" x="44.5" y="407.2528"/><text fill="#000000" font-family="sans-serif" font-size="12" lengthAdjust="spacing" textLength="140" x="59.5" y="435.0809">Afficher alertes de conflit</text><rect fill="#F2F4F7" height="46.3441" rx="2.5" ry="2.5" style="stroke:#003366;stroke-width:1.0;" width="224" x="17.5" y="473.5969"/><text fill="#000000" font-family="sans-serif" font-size="12" lengthAdjust="spacing" textLength="194" x="32.5" y="501.425">Ajuster les param&#232;tres du cr&#233;neau</text><rect fill="#F2F4F7" height="46.3441" rx="2.5" ry="2.5" style="stroke:#003366;stroke-width:1.0;" width="243" x="261.5" y="407.2528"/><text fill="#000000" font-family="sans-serif" font-size="12" lengthAdjust="spacing" textLength="213" x="276.5" y="435.0809">Enregistrer la planification individuelle</text><rect fill="#F2F4F7" height="46.3441" rx="2.5" ry="2.5" style="stroke:#003366;stroke-width:1.0;" width="138" x="314" y="473.5969"/><text fill="#000000" font-family="sans-serif" font-size="12" lengthAdjust="spacing" textLength="108" x="329" y="501.425">Statut -&gt; PLANIFIEE</text><polygon fill="#003366" points="256.25,529.941,268.25,541.941,256.25,553.941,244.25,541.941,256.25,529.941" style="stroke:#003366;stroke-width:1.0;"/><polygon fill="#003366" points="256.25,177.6882,268.25,189.6882,256.25,201.6882,244.25,189.6882,256.25,177.6882" style="stroke:#003366;stroke-width:1.0;"/><polygon fill="#003366" points="156.75,574.1291,355.75,574.1291,367.75,587.3011,355.75,600.4732,156.75,600.4732,144.75,587.3011,156.75,574.1291" style="stroke:#003366;stroke-width:1.0;"/><text fill="#FFFFFF" font-family="sans-serif" font-size="12" lengthAdjust="spacing" textLength="189" x="161.75" y="591.9572">D'autres soutenances &#224; planifier ?</text><text fill="#003366" font-family="sans-serif" font-size="12" lengthAdjust="spacing" textLength="19" x="372.75" y="578.7851">Oui</text><rect fill="#F2F4F7" height="46.3441" rx="2.5" ry="2.5" style="stroke:#003366;stroke-width:1.0;" width="166" x="173.25" y="620.4732"/><text fill="#000000" font-family="sans-serif" font-size="12" lengthAdjust="spacing" textLength="136" x="188.25" y="648.3013">Affectation des jurys par</text><rect fill="#F2F4F7" height="46.3441" rx="2.5" ry="2.5" style="stroke:#003366;stroke-width:1.0;" width="159" x="176.75" y="686.8173"/><text fill="#000000" font-family="sans-serif" font-size="12" lengthAdjust="spacing" textLength="129" x="191.75" y="714.6454">V&#233;rification RG4 et RG5</text><polygon fill="#003366" points="198.25,753.3495,314.25,753.3495,326.25,766.5216,314.25,779.6936,198.25,779.6936,186.25,766.5216,198.25,753.3495" style="stroke:#003366;stroke-width:1.0;"/><text fill="#FFFFFF" font-family="sans-serif" font-size="12" lengthAdjust="spacing" textLength="106" x="203.25" y="771.1776">Planning Complet ?</text><text fill="#003366" font-family="sans-serif" font-size="12" lengthAdjust="spacing" textLength="19" x="162.25" y="758.0055">Oui</text><text fill="#003366" font-family="sans-serif" font-size="12" lengthAdjust="spacing" textLength="23" x="331.25" y="758.0055">Non</text><rect fill="#F2F4F7" height="46.3441" rx="2.5" ry="2.5" style="stroke:#003366;stroke-width:1.0;" width="203" x="25" y="789.6936"/><text fill="#000000" font-family="sans-serif" font-size="12" lengthAdjust="spacing" textLength="173" x="40" y="817.5217">Validation finale et verrouillage</text><rect fill="#F2F4F7" height="46.3441" rx="2.5" ry="2.5" style="stroke:#003366;stroke-width:1.0;" width="241" x="6" y="856.0377"/><text fill="#000000" font-family="sans-serif" font-size="12" lengthAdjust="spacing" textLength="211" x="21" y="883.8658">G&#233;n&#233;ration massive des convocations</text><rect fill="#F2F4F7" height="46.3441" rx="2.5" ry="2.5" style="stroke:#003366;stroke-width:1.0;" width="154" x="49.5" y="922.3818"/><text fill="#000000" font-family="sans-serif" font-size="12" lengthAdjust="spacing" textLength="124" x="64.5" y="950.2099">Statut -&gt; CONVOQUEE</text><rect fill="#F2F4F7" height="46.3441" rx="2.5" ry="2.5" style="stroke:#003366;stroke-width:1.0;" width="238" x="267" y="789.6936"/><text fill="#000000" font-family="sans-serif" font-size="12" lengthAdjust="spacing" textLength="208" x="282" y="817.5217">Finaliser les affectations manquantes</text><polygon fill="#003366" points="256.25,978.726,268.25,990.726,256.25,1002.726,244.25,990.726,256.25,978.726" style="stroke:#003366;stroke-width:1.0;"/><ellipse cx="256.25" cy="1033.726" fill="none" rx="11" ry="11" style="stroke:#003366;stroke-width:1.0;"/><ellipse cx="256.25" cy="1033.726" fill="#003366" rx="6" ry="6" style="stroke:#003366;stroke-width:1.0;"/><line style="stroke:#003366;stroke-width:1.0;" x1="256.25" x2="256.25" y1="25" y2="45"/><polygon fill="#003366" points="252.25,35,256.25,45,260.25,35,256.25,39" style="stroke:#003366;stroke-width:1.0;"/><line style="stroke:#003366;stroke-width:1.0;" x1="256.25" x2="256.25" y1="91.3441" y2="111.3441"/><polygon fill="#003366" points="252.25,101.3441,256.25,111.3441,260.25,101.3441,256.25,105.3441" style="stroke:#003366;stroke-width:1.0;"/><line style="stroke:#003366;stroke-width:1.0;" x1="256.25" x2="256.25" y1="284.3765" y2="304.3765"/><polygon fill="#003366" points="252.25,294.3765,256.25,304.3765,260.25,294.3765,256.25,298.3765" style="stroke:#003366;stroke-width:1.0;"/><line style="stroke:#003366;stroke-width:1.0;" x1="129.5" x2="129.5" y1="453.5969" y2="473.5969"/><polygon fill="#003366" points="125.5,463.5969,129.5,473.5969,133.5,463.5969,129.5,467.5969" style="stroke:#003366;stroke-width:1.0;"/><line style="stroke:#003366;stroke-width:1.0;" x1="383" x2="383" y1="453.5969" y2="473.5969"/><polygon fill="#003366" points="379,463.5969,383,473.5969,387,463.5969,383,467.5969" style="stroke:#003366;stroke-width:1.0;"/><line style="stroke:#003366;stroke-width:1.0;" x1="188.75" x2="129.5" y1="384.0807" y2="384.0807"/><line style="stroke:#003366;stroke-width:1.0;" x1="129.5" x2="129.5" y1="384.0807" y2="407.2528"/><polygon fill="#003366" points="125.5,397.2528,129.5,407.2528,133.5,397.2528,129.5,401.2528" style="stroke:#003366;stroke-width:1.0;"/><line style="stroke:#003366;stroke-width:1.0;" x1="323.75" x2="383" y1="384.0807" y2="384.0807"/><line style="stroke:#003366;stroke-width:1.0;" x1="383" x2="383" y1="384.0807" y2="407.2528"/><polygon fill="#003366" points="379,397.2528,383,407.2528,387,397.2528,383,401.2528" style="stroke:#003366;stroke-width:1.0;"/><line style="stroke:#003366;stroke-width:1.0;" x1="129.5" x2="129.5" y1="519.941" y2="541.941"/><line style="stroke:#003366;stroke-width:1.0;" x1="129.5" x2="244.25" y1="541.941" y2="541.941"/><polygon fill="#003366" points="234.25,537.941,244.25,541.941,234.25,545.941,238.25,541.941" style="stroke:#003366;stroke-width:1.0;"/><line style="stroke:#003366;stroke-width:1.0;" x1="383" x2="383" y1="519.941" y2="541.941"/><line style="stroke:#003366;stroke-width:1.0;" x1="383" x2="268.25" y1="541.941" y2="541.941"/><polygon fill="#003366" points="278.25,537.941,268.25,541.941,278.25,545.941,274.25,541.941" style="stroke:#003366;stroke-width:1.0;"/><line style="stroke:#003366;stroke-width:1.0;" x1="256.25" x2="256.25" y1="350.7206" y2="370.9087"/><polygon fill="#003366" points="252.25,360.9087,256.25,370.9087,260.25,360.9087,256.25,364.9087" style="stroke:#003366;stroke-width:1.0;"/><line style="stroke:#003366;stroke-width:1.0;" x1="256.25" x2="256.25" y1="201.6882" y2="221.6882"/><polygon fill="#003366" points="252.25,211.6882,256.25,221.6882,260.25,211.6882,256.25,215.6882" style="stroke:#003366;stroke-width:1.0;"/><line style="stroke:#003366;stroke-width:1.0;" x1="367.75" x2="519" y1="587.3011" y2="587.3011"/><polygon fill="#003366" points="515,393.9947,519,383.9947,523,393.9947,519,389.9947" style="stroke:#003366;stroke-width:1.0;"/><line style="stroke:#003366;stroke-width:1.0;" x1="519" x2="519" y1="189.6882" y2="587.3011"/><line style="stroke:#003366;stroke-width:1.0;" x1="519" x2="268.25" y1="189.6882" y2="189.6882"/><polygon fill="#003366" points="278.25,185.6882,268.25,189.6882,278.25,193.6882,274.25,189.6882" style="stroke:#003366;stroke-width:1.0;"/><line style="stroke:#003366;stroke-width:1.0;" x1="256.25" x2="256.25" y1="553.941" y2="574.1291"/><polygon fill="#003366" points="252.25,564.1291,256.25,574.1291,260.25,564.1291,256.25,568.1291" style="stroke:#003366;stroke-width:1.0;"/><line style="stroke:#003366;stroke-width:1.0;" x1="256.25" x2="256.25" y1="157.6882" y2="177.6882"/><polygon fill="#003366" points="252.25,167.6882,256.25,177.6882,260.25,167.6882,256.25,171.6882" style="stroke:#003366;stroke-width:1.0;"/><line style="stroke:#003366;stroke-width:1.0;" x1="256.25" x2="256.25" y1="600.4732" y2="620.4732"/><polygon fill="#003366" points="252.25,610.4732,256.25,620.4732,260.25,610.4732,256.25,614.4732" style="stroke:#003366;stroke-width:1.0;"/><line style="stroke:#003366;stroke-width:1.0;" x1="256.25" x2="256.25" y1="666.8173" y2="686.8173"/><polygon fill="#003366" points="252.25,676.8173,256.25,686.8173,260.25,676.8173,256.25,680.8173" style="stroke:#003366;stroke-width:1.0;"/><line style="stroke:#003366;stroke-width:1.0;" x1="126.5" x2="126.5" y1="836.0377" y2="856.0377"/><polygon fill="#003366" points="122.5,846.0377,126.5,856.0377,130.5,846.0377,126.5,850.0377" style="stroke:#003366;stroke-width:1.0;"/><line style="stroke:#003366;stroke-width:1.0;" x1="126.5" x2="126.5" y1="902.3818" y2="922.3818"/><polygon fill="#003366" points="122.5,912.3818,126.5,922.3818,130.5,912.3818,126.5,916.3818" style="stroke:#003366;stroke-width:1.0;"/><line style="stroke:#003366;stroke-width:1.0;" x1="186.25" x2="126.5" y1="766.5216" y2="766.5216"/><line style="stroke:#003366;stroke-width:1.0;" x1="126.5" x2="126.5" y1="766.5216" y2="789.6936"/><polygon fill="#003366" points="122.5,779.6936,126.5,789.6936,130.5,779.6936,126.5,783.6936" style="stroke:#003366;stroke-width:1.0;"/><line style="stroke:#003366;stroke-width:1.0;" x1="326.25" x2="386" y1="766.5216" y2="766.5216"/><line style="stroke:#003366;stroke-width:1.0;" x1="386" x2="386" y1="766.5216" y2="789.6936"/><polygon fill="#003366" points="382,779.6936,386,789.6936,390,779.6936,386,783.6936" style="stroke:#003366;stroke-width:1.0;"/><line style="stroke:#003366;stroke-width:1.0;" x1="126.5" x2="126.5" y1="968.726" y2="990.726"/><line style="stroke:#003366;stroke-width:1.0;" x1="126.5" x2="244.25" y1="990.726" y2="990.726"/><polygon fill="#003366" points="234.25,986.726,244.25,990.726,234.25,994.726,238.25,990.726" style="stroke:#003366;stroke-width:1.0;"/><line style="stroke:#003366;stroke-width:1.0;" x1="386" x2="386" y1="836.0377" y2="990.726"/><line style="stroke:#003366;stroke-width:1.0;" x1="386" x2="268.25" y1="990.726" y2="990.726"/><polygon fill="#003366" points="278.25,986.726,268.25,990.726,278.25,994.726,274.25,990.726" style="stroke:#003366;stroke-width:1.0;"/><line style="stroke:#003366;stroke-width:1.0;" x1="256.25" x2="256.25" y1="733.1614" y2="753.3495"/><polygon fill="#003366" points="252.25,743.3495,256.25,753.3495,260.25,743.3495,256.25,747.3495" style="stroke:#003366;stroke-width:1.0;"/><line style="stroke:#003366;stroke-width:1.0;" x1="256.25" x2="256.25" y1="1002.726" y2="1022.726"/><polygon fill="#003366" points="252.25,1012.726,256.25,1022.726,260.25,1012.726,256.25,1016.726" style="stroke:#003366;stroke-width:1.0;"/><!--SRC=[PLFBRjim4BphAxQdo81ReA-B3BGm5CS8KDYfZVhKorPSsGmeKY6NBle9_OiUu-_GZsLf2RMIw21Hqd1dPsRvXW_K4BGrGUrT0- -oB31wpegvQhJLWJqoHG-gEzNopc0GjXI2TXRsnlr2GxEiA9tpIjiUYbNLFIg2xby2XvVWp5DBo1d8LTmPjBhM5NB2gAje2OABJ1PjHQ2jqaUj8Xb3FstU_UMeD5gUmXRbqnIkXN8AfUzEbZ1EPdtL7Hgj-f8OsJMoV8W4YW9KpeeaRLdM-MRvVWgRvOTq-pXirZNafRErqHoIQgQAkrE0hnCGhopawwWdP-IPQbvBzmSIrOPyAYh2gtxxR8IwZu45P0JGeiUcUsIVm16geVSUJIOGv2jdHnGBwscVaaW54DfdbeqT6X5k6JaolFq2Tz_cgzkRsyLY811yFKG0lm_Q2DtrbRYKshau7r9w0vFGYdWT1kbPqYoc3949z3xwFsTTCWcxxkGltMsMdu1O7fybz-HiojjgkuVIDQsHNwzj7QSd8oU-fX97yjv5RGpk1vt5KemJjXxPe8pPyN_6HzTt40RinOzolTgjl_z8VhmmkxX9R3eCEU55PP3ozY5YcXhPThPGpebhdm00]--></g></svg>