<?xml version="1.0" encoding="us-ascii" standalone="no"?><svg xmlns="http://www.w3.org/2000/svg" xmlns:xlink="http://www.w3.org/1999/xlink" contentStyleType="text/css" height="562px" preserveAspectRatio="none" style="width:872px;height:562px;background:#FFFFFF;" version="1.1" viewBox="0 0 872 562" width="872px" zoomAndPan="magnify"><defs/><g><ellipse cx="440" cy="15" fill="#003366" rx="10" ry="10" style="stroke:#003366;stroke-width:1.0;"/><rect fill="#F2F4F7" height="46.3441" rx="2.5" ry="2.5" style="stroke:#003366;stroke-width:1.0;" width="229" x="325.5" y="45"/><text fill="#000000" font-family="sans-serif" font-size="12" lengthAdjust="spacing" textLength="199" x="340.5" y="72.8281">R&#233;ception demande de planification</text><rect fill="#555555" height="6" rx="2.5" ry="2.5" style="stroke:#555555;stroke-width:1.0;" width="860" x="6" y="111.3441"/><rect fill="#F2F4F7" height="46.3441" rx="2.5" ry="2.5" style="stroke:#003366;stroke-width:1.0;" width="170" x="63" y="137.3441"/><text fill="#000000" font-family="sans-serif" font-size="12" lengthAdjust="spacing" textLength="140" x="78" y="165.1722">V&#233;rifier RG1 (Enseignant)</text><rect fill="#F2F4F7" height="46.3441" rx="2.5" ry="2.5" style="stroke:#003366;stroke-width:1.0;" width="230" x="33" y="261.2044"/><text fill="#000000" font-family="sans-serif" font-size="12" lengthAdjust="spacing" textLength="200" x="48" y="289.0325">Ajouter "Erreur : Conflit Enseignant"</text><polygon fill="#003366" points="30,203.6882,266,203.6882,278,216.8603,266,230.0323,30,230.0323,18,216.8603,30,203.6882" style="stroke:#003366;stroke-width:1.0;"/><text fill="#003366" font-family="sans-serif" font-size="12" lengthAdjust="spacing" textLength="19" x="157" y="247.8604">Oui</text><text fill="#FFFFFF" font-family="sans-serif" font-size="12" lengthAdjust="spacing" textLength="226" x="35" y="221.5163">Enseignant d&#233;j&#224; occup&#233; sur ce cr&#233;neau ?</text><polygon fill="#003366" points="148,327.5485,160,339.5485,148,351.5485,136,339.5485,148,327.5485" style="stroke:#003366;stroke-width:1.0;"/><rect fill="#F2F4F7" height="46.3441" rx="2.5" ry="2.5" style="stroke:#003366;stroke-width:1.0;" width="135" x="366.5" y="137.3441"/><text fill="#000000" font-family="sans-serif" font-size="12" lengthAdjust="spacing" textLength="105" x="381.5" y="165.1722">V&#233;rifier RG2 (Salle)</text><rect fill="#F2F4F7" height="46.3441" rx="2.5" ry="2.5" style="stroke:#003366;stroke-width:1.0;" width="195" x="336.5" y="261.2044"/><text fill="#000000" font-family="sans-serif" font-size="12" lengthAdjust="spacing" textLength="165" x="351.5" y="289.0325">Ajouter "Erreur : Conflit Salle"</text><polygon fill="#003366" points="330,203.6882,538,203.6882,550,216.8603,538,230.0323,330,230.0323,318,216.8603,330,203.6882" style="stroke:#003366;stroke-width:1.0;"/><text fill="#003366" font-family="sans-serif" font-size="12" lengthAdjust="spacing" textLength="19" x="443" y="247.8604">Oui</text><text fill="#FFFFFF" font-family="sans-serif" font-size="12" lengthAdjust="spacing" textLength="198" x="335" y="221.5163">Salle d&#233;j&#224; occup&#233;e sur ce cr&#233;neau ?</text><polygon fill="#003366" points="434,327.5485,446,339.5485,434,351.5485,422,339.5485,434,327.5485" style="stroke:#003366;stroke-width:1.0;"/><rect fill="#F2F4F7" height="46.3441" rx="2.5" ry="2.5" style="stroke:#003366;stroke-width:1.0;" width="154" x="643" y="137.3441"/><text fill="#000000" font-family="sans-serif" font-size="12" lengthAdjust="spacing" textLength="124" x="658" y="165.1722">V&#233;rifier RG3 (&#201;tudiant)</text><rect fill="#F2F4F7" height="46.3441" rx="2.5" ry="2.5" style="stroke:#003366;stroke-width:1.0;" width="240" x="600" y="261.2044"/><text fill="#000000" font-family="sans-serif" font-size="12" lengthAdjust="spacing" textLength="210" x="615" y="289.0325">Ajouter "Erreur : Double Planification"</text><polygon fill="#003366" points="630.5,203.6882,809.5,203.6882,821.5,216.8603,809.5,230.0323,630.5,230.0323,618.5,216.8603,630.5,203.6882" style="stroke:#003366;stroke-width:1.0;"/><text fill="#003366" font-family="sans-serif" font-size="12" lengthAdjust="spacing" textLength="19" x="729" y="247.8604">Oui</text><text fill="#FFFFFF" font-family="sans-serif" font-size="12" lengthAdjust="spacing" textLength="169" x="635.5" y="221.5163">&#201;tudiant d&#233;j&#224; planifi&#233; ailleurs ?</text><polygon fill="#003366" points="720,327.5485,732,339.5485,720,351.5485,708,339.5485,720,327.5485" style="stroke:#003366;stroke-width:1.0;"/><rect fill="#555555" height="6" rx="2.5" ry="2.5" style="stroke:#555555;stroke-width:1.0;" width="860" x="6" y="371.5485"/><polygon fill="#003366" points="377.5,397.7366,502.5,397.7366,514.5,410.9087,502.5,424.0807,377.5,424.0807,365.5,410.9087,377.5,397.7366" style="stroke:#003366;stroke-width:1.0;"/><text fill="#FFFFFF" font-family="sans-serif" font-size="12" lengthAdjust="spacing" textLength="115" x="382.5" y="415.5647">Liste d'erreurs vide ?</text><text fill="#003366" font-family="sans-serif" font-size="12" lengthAdjust="spacing" textLength="19" x="341.5" y="402.3926">Oui</text><text fill="#003366" font-family="sans-serif" font-size="12" lengthAdjust="spacing" textLength="23" x="519.5" y="402.3926">Non</text><rect fill="#F2F4F7" height="46.3441" rx="2.5" ry="2.5" style="stroke:#003366;stroke-width:1.0;" width="140" x="264.25" y="434.0807"/><text fill="#000000" font-family="sans-serif" font-size="12" lengthAdjust="spacing" textLength="110" x="279.25" y="461.9088">Retourner "VALID&#201;"</text><rect fill="#F2F4F7" height="46.3441" rx="2.5" ry="2.5" style="stroke:#003366;stroke-width:1.0;" width="243" x="424.25" y="434.0807"/><text fill="#000000" font-family="sans-serif" font-size="12" lengthAdjust="spacing" textLength="213" x="439.25" y="461.9088">Retourner "&#201;CHEC" + Liste des conflits</text><polygon fill="#003366" points="440,490.4248,452,502.4248,440,514.4248,428,502.4248,440,490.4248" style="stroke:#003366;stroke-width:1.0;"/><ellipse cx="440" cy="545.4248" fill="none" rx="11" ry="11" style="stroke:#003366;stroke-width:1.0;"/><ellipse cx="440" cy="545.4248" fill="#003366" rx="6" ry="6" style="stroke:#003366;stroke-width:1.0;"/><line style="stroke:#003366;stroke-width:1.0;" x1="440" x2="440" y1="25" y2="45"/><polygon fill="#003366" points="436,35,440,45,444,35,440,39" style="stroke:#003366;stroke-width:1.0;"/><line style="stroke:#003366;stroke-width:1.0;" x1="148" x2="148" y1="230.0323" y2="261.2044"/><polygon fill="#003366" points="144,251.2044,148,261.2044,152,251.2044,148,255.2044" style="stroke:#003366;stroke-width:1.0;"/><line style="stroke:#003366;stroke-width:1.0;" x1="278" x2="290" y1="216.8603" y2="216.8603"/><polygon fill="#003366" points="286,278.7904,290,288.7904,294,278.7904,290,282.7904" style="stroke:#003366;stroke-width:1.0;"/><line style="stroke:#003366;stroke-width:1.0;" x1="290" x2="290" y1="216.8603" y2="339.5485"/><line style="stroke:#003366;stroke-width:1.0;" x1="290" x2="160" y1="339.5485" y2="339.5485"/><polygon fill="#003366" points="170,335.5485,160,339.5485,170,343.5485,166,339.5485" style="stroke:#003366;stroke-width:1.0;"/><line style="stroke:#003366;stroke-width:1.0;" x1="148" x2="148" y1="307.5485" y2="327.5485"/><polygon fill="#003366" points="144,317.5485,148,327.5485,152,317.5485,148,321.5485" style="stroke:#003366;stroke-width:1.0;"/><line style="stroke:#003366;stroke-width:1.0;" x1="148" x2="148" y1="183.6882" y2="203.6882"/><polygon fill="#003366" points="144,193.6882,148,203.6882,152,193.6882,148,197.6882" style="stroke:#003366;stroke-width:1.0;"/><line style="stroke:#003366;stroke-width:1.0;" x1="434" x2="434" y1="230.0323" y2="261.2044"/><polygon fill="#003366" points="430,251.2044,434,261.2044,438,251.2044,434,255.2044" style="stroke:#003366;stroke-width:1.0;"/><line style="stroke:#003366;stroke-width:1.0;" x1="550" x2="562" y1="216.8603" y2="216.8603"/><polygon fill="#003366" points="558,278.7904,562,288.7904,566,278.7904,562,282.7904" style="stroke:#003366;stroke-width:1.0;"/><line style="stroke:#003366;stroke-width:1.0;" x1="562" x2="562" y1="216.8603" y2="339.5485"/><line style="stroke:#003366;stroke-width:1.0;" x1="562" x2="446" y1="339.5485" y2="339.5485"/><polygon fill="#003366" points="456,335.5485,446,339.5485,456,343.5485,452,339.5485" style="stroke:#003366;stroke-width:1.0;"/><line style="stroke:#003366;stroke-width:1.0;" x1="434" x2="434" y1="307.5485" y2="327.5485"/><polygon fill="#003366" points="430,317.5485,434,327.5485,438,317.5485,434,321.5485" style="stroke:#003366;stroke-width:1.0;"/><line style="stroke:#003366;stroke-width:1.0;" x1="434" x2="434" y1="183.6882" y2="203.6882"/><polygon fill="#003366" points="430,193.6882,434,203.6882,438,193.6882,434,197.6882" style="stroke:#003366;stroke-width:1.0;"/><line style="stroke:#003366;stroke-width:1.0;" x1="720" x2="720" y1="230.0323" y2="261.2044"/><polygon fill="#003366" points="716,251.2044,720,261.2044,724,251.2044,720,255.2044" style="stroke:#003366;stroke-width:1.0;"/><line style="stroke:#003366;stroke-width:1.0;" x1="821.5" x2="850" y1="216.8603" y2="216.8603"/><polygon fill="#003366" points="846,278.7904,850,288.7904,854,278.7904,850,282.7904" style="stroke:#003366;stroke-width:1.0;"/><line style="stroke:#003366;stroke-width:1.0;" x1="850" x2="850" y1="216.8603" y2="339.5485"/><line style="stroke:#003366;stroke-width:1.0;" x1="850" x2="732" y1="339.5485" y2="339.5485"/><polygon fill="#003366" points="742,335.5485,732,339.5485,742,343.5485,738,339.5485" style="stroke:#003366;stroke-width:1.0;"/><line style="stroke:#003366;stroke-width:1.0;" x1="720" x2="720" y1="307.5485" y2="327.5485"/><polygon fill="#003366" points="716,317.5485,720,327.5485,724,317.5485,720,321.5485" style="stroke:#003366;stroke-width:1.0;"/><line style="stroke:#003366;stroke-width:1.0;" x1="720" x2="720" y1="183.6882" y2="203.6882"/><polygon fill="#003366" points="716,193.6882,720,203.6882,724,193.6882,720,197.6882" style="stroke:#003366;stroke-width:1.0;"/><line style="stroke:#003366;stroke-width:1.0;" x1="148" x2="148" y1="117.3441" y2="137.3441"/><polygon fill="#003366" points="144,127.3441,148,137.3441,152,127.3441,148,131.3441" style="stroke:#003366;stroke-width:1.0;"/><line style="stroke:#003366;stroke-width:1.0;" x1="434" x2="434" y1="117.3441" y2="137.3441"/><polygon fill="#003366" points="430,127.3441,434,137.3441,438,127.3441,434,131.3441" style="stroke:#003366;stroke-width:1.0;"/><line style="stroke:#003366;stroke-width:1.0;" x1="720" x2="720" y1="117.3441" y2="137.3441"/><polygon fill="#003366" points="716,127.3441,720,137.3441,724,127.3441,720,131.3441" style="stroke:#003366;stroke-width:1.0;"/><line style="stroke:#003366;stroke-width:1.0;" x1="148" x2="148" y1="351.5485" y2="371.5485"/><polygon fill="#003366" points="144,361.5485,148,371.5485,152,361.5485,148,365.5485" style="stroke:#003366;stroke-width:1.0;"/><line style="stroke:#003366;stroke-width:1.0;" x1="434" x2="434" y1="351.5485" y2="371.5485"/><polygon fill="#003366" points="430,361.5485,434,371.5485,438,361.5485,434,365.5485" style="stroke:#003366;stroke-width:1.0;"/><line style="stroke:#003366;stroke-width:1.0;" x1="720" x2="720" y1="351.5485" y2="371.5485"/><polygon fill="#003366" points="716,361.5485,720,371.5485,724,361.5485,720,365.5485" style="stroke:#003366;stroke-width:1.0;"/><line style="stroke:#003366;stroke-width:1.0;" x1="440" x2="440" y1="91.3441" y2="111.3441"/><polygon fill="#003366" points="436,101.3441,440,111.3441,444,101.3441,440,105.3441" style="stroke:#003366;stroke-width:1.0;"/><line style="stroke:#003366;stroke-width:1.0;" x1="365.5" x2="334.25" y1="410.9087" y2="410.9087"/><line style="stroke:#003366;stroke-width:1.0;" x1="334.25" x2="334.25" y1="410.9087" y2="434.0807"/><polygon fill="#003366" points="330.25,424.0807,334.25,434.0807,338.25,424.0807,334.25,428.0807" style="stroke:#003366;stroke-width:1.0;"/><line style="stroke:#003366;stroke-width:1.0;" x1="514.5" x2="545.75" y1="410.9087" y2="410.9087"/><line style="stroke:#003366;stroke-width:1.0;" x1="545.75" x2="545.75" y1="410.9087" y2="434.0807"/><polygon fill="#003366" points="541.75,424.0807,545.75,434.0807,549.75,424.0807,545.75,428.0807" style="stroke:#003366;stroke-width:1.0;"/><line style="stroke:#003366;stroke-width:1.0;" x1="334.25" x2="334.25" y1="480.4248" y2="502.4248"/><line style="stroke:#003366;stroke-width:1.0;" x1="334.25" x2="428" y1="502.4248" y2="502.4248"/><polygon fill="#003366" points="418,498.4248,428,502.4248,418,506.4248,422,502.4248" style="stroke:#003366;stroke-width:1.0;"/><line style="stroke:#003366;stroke-width:1.0;" x1="545.75" x2="545.75" y1="480.4248" y2="502.4248"/><line style="stroke:#003366;stroke-width:1.0;" x1="545.75" x2="452" y1="502.4248" y2="502.4248"/><polygon fill="#003366" points="462,498.4248,452,502.4248,462,506.4248,458,502.4248" style="stroke:#003366;stroke-width:1.0;"/><line style="stroke:#003366;stroke-width:1.0;" x1="440" x2="440" y1="377.5485" y2="397.7366"/><polygon fill="#003366" points="436,387.7366,440,397.7366,444,387.7366,440,391.7366" style="stroke:#003366;stroke-width:1.0;"/><line style="stroke:#003366;stroke-width:1.0;" x1="440" x2="440" y1="514.4248" y2="534.4248"/><polygon fill="#003366" points="436,524.4248,440,534.4248,444,524.4248,440,528.4248" style="stroke:#003366;stroke-width:1.0;"/><!--SRC=[fP9DJiCm48NtESMZ6r8X8G6xT86gjWAa2b2HkZVEkBYaTkGVxj1RiCqvV34cQIbHLfNOsFBC-CtdDxu87xGZr8gWdDtXEijy42vanIerakgWhK59Es5AuXrr9OnMMeesCScKTPyPKAnJupXC3gk76-GBuqblZ31XFE6qLlqGojHiqpUibB5E3Nnqa0JfKcD8HDoFmL06-KlKOxxDyjEjZO75HmldYCiBpAnHbGxuansrdSYKMdLK41kXpP3j5lcRg2ewONMd0H7z3wcJF8lc3ddQXrZglb6do2_LqN9sIcXMZiwVnpEtyPtVzjgVM0-BLtJZozgkI-q3-t19tMsFByt37hOfLXHiTAPjivukd-Pfpu9KUKB-RCsm9ErdZulP25SugfE7F9Za9zc1Wd-RhNy0]--></g></svg>