<?xml version="1.0" encoding="us-ascii" standalone="no"?><svg xmlns="http://www.w3.org/2000/svg" xmlns:xlink="http://www.w3.org/1999/xlink" contentStyleType="text/css" height="356px" preserveAspectRatio="none" style="width:199px;height:356px;background:#FFFFFF;" version="1.1" viewBox="0 0 199 356" width="199px" zoomAndPan="magnify"><defs/><g><!--entity front--><g id="elem_front"><polygon fill="#F2F4F7" points="23.5,21,33.5,11,169.5,11,169.5,70.9641,159.5,80.9641,23.5,80.9641,23.5,21" style="stroke:#003366;stroke-width:1.0;"/><line style="stroke:#003366;stroke-width:1.0;" x1="159.5" x2="169.5" y1="21" y2="11"/><line style="stroke:#003366;stroke-width:1.0;" x1="23.5" x2="159.5" y1="21" y2="21"/><line style="stroke:#003366;stroke-width:1.0;" x1="159.5" x2="159.5" y1="21" y2="80.9641"/><text fill="#000000" font-family="sans-serif" font-size="12" lengthAdjust="spacing" textLength="95" x="43.5" y="48.8281">Couche Frontend</text><text fill="#000000" font-family="sans-serif" font-size="10" lengthAdjust="spacing" textLength="96" x="43.5" y="63.0341">Interface utilisateur</text></g><!--entity back--><g id="elem_back"><polygon fill="#F2F4F7" points="25,151,35,141,168,141,168,200.9641,158,210.9641,25,210.9641,25,151" style="stroke:#003366;stroke-width:1.0;"/><line style="stroke:#003366;stroke-width:1.0;" x1="158" x2="168" y1="151" y2="141"/><line style="stroke:#003366;stroke-width:1.0;" x1="25" x2="158" y1="151" y2="151"/><line style="stroke:#003366;stroke-width:1.0;" x1="158" x2="158" y1="151" y2="210.9641"/><text fill="#000000" font-family="sans-serif" font-size="12" lengthAdjust="spacing" textLength="93" x="45" y="178.8281">Couche Backend</text><text fill="#000000" font-family="sans-serif" font-size="10" lengthAdjust="spacing" textLength="73" x="45" y="193.0341">Logique m&#233;tier</text></g><!--entity db--><g id="elem_db"><path d="M11,281 C11,271 96.5,271 96.5,271 C96.5,271 182,271 182,281 L182,329.9641 C182,339.9641 96.5,339.9641 96.5,339.9641 C96.5,339.9641 11,339.9641 11,329.9641 L11,281 " fill="#F2F4F7" style="stroke:#003366;stroke-width:1.0;"/><path d="M11,281 C11,291 96.5,291 96.5,291 C96.5,291 182,291 182,281 " fill="none" style="stroke:#003366;stroke-width:1.0;"/><text fill="#000000" font-family="sans-serif" font-size="12" lengthAdjust="spacing" textLength="141" x="26" y="312.8281">Couche Base de donn&#233;es</text><text fill="#000000" font-family="sans-serif" font-size="10" lengthAdjust="spacing" textLength="56" x="26" y="327.0341">Persistance</text></g><!--link front to back--><g id="link_front_back"><path d="M96.5,87.3 C96.5,105.67 96.5,116.22 96.5,134.6 " fill="none" id="front-back" style="stroke:#003366;stroke-width:1.0;"/><polygon fill="#003366" points="96.5,81.3,92.5,90.3,96.5,86.3,100.5,90.3,96.5,81.3" style="stroke:#003366;stroke-width:1.0;"/><polygon fill="#003366" points="96.5,140.6,100.5,131.6,96.5,135.6,92.5,131.6,96.5,140.6" style="stroke:#003366;stroke-width:1.0;"/></g><!--link back to db--><g id="link_back_db"><path d="M96.5,217.17 C96.5,235.61 96.5,246.29 96.5,264.68 " fill="none" id="back-db" style="stroke:#003366;stroke-width:1.0;"/><polygon fill="#003366" points="96.5,211.17,92.5,220.17,96.5,216.17,100.5,220.17,96.5,211.17" style="stroke:#003366;stroke-width:1.0;"/><polygon fill="#003366" points="96.5,270.68,100.5,261.68,96.5,265.68,92.5,261.68,96.5,270.68" style="stroke:#003366;stroke-width:1.0;"/></g><!--SRC=[LSux3i8m30RWFQS8tSjZHLK7a92G63W0YvEu494w42S3tAZdwCL8wD8kbdu_FdbbIRjaK7ByE5o_Kk-489yRrT4d_K1v2fuYahbHm_QB-zssFUT6w42ZJD4won0nXMPJncqbWMLNRfRC0VHpgLpytRuJoduSeiN5lShBma041JmdSiYayKJZW3ophXZOSWJIE7UC4kB_YspgkftOKgPer0y0]--></g></svg>