<?xml version="1.0" encoding="us-ascii" standalone="no"?><svg xmlns="http://www.w3.org/2000/svg" xmlns:xlink="http://www.w3.org/1999/xlink" contentStyleType="text/css" height="931px" preserveAspectRatio="none" style="width:820px;height:931px;background:#FFFFFF;" version="1.1" viewBox="0 0 820 931" width="820px" zoomAndPan="magnify"><defs/><g><!--class SoutenanceStatus--><g id="elem_SoutenanceStatus"><rect codeLine="3" fill="#F2F4F7" height="289.4411" id="SoutenanceStatus" rx="2.5" ry="2.5" style="stroke:#003366;stroke-width:1.0;" width="141" x="12" y="12"/><ellipse cx="26" cy="30.1721" fill="#EB937F" rx="10" ry="10" style="stroke:#003366;stroke-width:1.0;"/><path d="M28.4375,34.6721 L22.9844,34.6721 L22.9844,25.9221 L28.4375,25.9221 L28.4375,27.4533 L24.7188,27.4533 L24.7188,29.3283 L28.0781,29.3283 L28.0781,30.8596 L24.7188,30.8596 L24.7188,33.1408 L28.4375,33.1408 L28.4375,34.6721 Z " fill="#000000"/><text fill="#000000" font-family="sans-serif" font-size="12" lengthAdjust="spacing" textLength="101" x="44" y="34.8281">SoutenanceStatus</text><line style="stroke:#003366;stroke-width:1.0;" x1="13" x2="152" y1="48.3441" y2="48.3441"/><text fill="#000000" font-family="sans-serif" font-size="12" lengthAdjust="spacing" textLength="36" x="23" y="70.1722">CREEE</text><text fill="#000000" font-family="sans-serif" font-size="12" lengthAdjust="spacing" textLength="58" x="23" y="96.5163">PLANIFIEE</text><text fill="#000000" font-family="sans-serif" font-size="12" lengthAdjust="spacing" textLength="80" x="23" y="122.8604">JURY_AFFECTE</text><text fill="#000000" font-family="sans-serif" font-size="12" lengthAdjust="spacing" textLength="74" x="23" y="149.2045">CONVOQUEE</text><text fill="#000000" font-family="sans-serif" font-size="12" lengthAdjust="spacing" textLength="61" x="23" y="175.5487">EN_COURS</text><text fill="#000000" font-family="sans-serif" font-size="12" lengthAdjust="spacing" textLength="59" x="23" y="201.8928">TERMINEE</text><text fill="#000000" font-family="sans-serif" font-size="12" lengthAdjust="spacing" textLength="51" x="23" y="228.2369">EVALUEE</text><text fill="#000000" font-family="sans-serif" font-size="12" lengthAdjust="spacing" textLength="60" x="23" y="254.581">CLOTUREE</text><text fill="#000000" font-family="sans-serif" font-size="12" lengthAdjust="spacing" textLength="55" x="23" y="280.9251">ANNULEE</text><line style="stroke:#003366;stroke-width:1.0;" x1="13" x2="152" y1="293.4411" y2="293.4411"/></g><!--class DecisionEnum--><g id="elem_DecisionEnum"><rect codeLine="15" fill="#F2F4F7" height="131.3765" id="DecisionEnum" rx="2.5" ry="2.5" style="stroke:#003366;stroke-width:1.0;" width="183" x="188" y="91"/><ellipse cx="230.5" cy="109.1721" fill="#EB937F" rx="10" ry="10" style="stroke:#003366;stroke-width:1.0;"/><path d="M232.9375,113.6721 L227.4844,113.6721 L227.4844,104.9221 L232.9375,104.9221 L232.9375,106.4533 L229.2188,106.4533 L229.2188,108.3283 L232.5781,108.3283 L232.5781,109.8596 L229.2188,109.8596 L229.2188,112.1408 L232.9375,112.1408 L232.9375,113.6721 Z " fill="#000000"/><text fill="#000000" font-family="sans-serif" font-size="12" lengthAdjust="spacing" textLength="80" x="254.5" y="113.8281">DecisionEnum</text><line style="stroke:#003366;stroke-width:1.0;" x1="189" x2="370" y1="127.3441" y2="127.3441"/><text fill="#000000" font-family="sans-serif" font-size="12" lengthAdjust="spacing" textLength="39" x="199" y="149.1722">ADMIS</text><text fill="#000000" font-family="sans-serif" font-size="12" lengthAdjust="spacing" textLength="161" x="199" y="175.5163">ADMIS_AVEC_CORRECTIONS</text><text fill="#000000" font-family="sans-serif" font-size="12" lengthAdjust="spacing" textLength="52" x="199" y="201.8604">AJOURNE</text><line style="stroke:#003366;stroke-width:1.0;" x1="189" x2="370" y1="214.3765" y2="214.3765"/></g><!--class Soutenance--><g id="elem_Soutenance"><rect codeLine="21" fill="#F2F4F7" height="236.7529" id="Soutenance" rx="2.5" ry="2.5" style="stroke:#003366;stroke-width:1.0;" width="165" x="406" y="389"/><ellipse cx="446.55" cy="407.1721" fill="#ADD1B2" rx="10" ry="10" style="stroke:#003366;stroke-width:1.0;"/><path d="M448.3781,411.4221 Q447.9719,411.6252 447.5188,411.7346 Q447.0656,411.8439 446.5813,411.8439 Q444.8,411.8439 443.8625,410.6877 Q442.9406,409.5158 442.9406,407.3127 Q442.9406,405.0939 443.8625,403.9377 Q444.8,402.7658 446.5813,402.7658 Q447.0656,402.7658 447.5188,402.8752 Q447.9875,402.9689 448.3781,403.1877 L448.3781,405.1096 Q447.9406,404.7033 447.5188,404.5158 Q447.0969,404.3127 446.6594,404.3127 Q445.7063,404.3127 445.2219,405.0783 Q444.7375,405.8283 444.7375,407.3127 Q444.7375,408.7814 445.2219,409.5314 Q445.7063,410.2814 446.6594,410.2814 Q447.0969,410.2814 447.5188,410.0939 Q447.9406,409.9064 448.3781,409.5002 L448.3781,411.4221 Z " fill="#000000"/><text fill="#000000" font-family="sans-serif" font-size="12" lengthAdjust="spacing" textLength="66" x="470.45" y="411.8281">Soutenance</text><line style="stroke:#003366;stroke-width:1.0;" x1="407" x2="570" y1="425.3441" y2="425.3441"/><text fill="#000000" font-family="sans-serif" font-size="12" lengthAdjust="spacing" textLength="34" x="417" y="447.1722">+int id</text><text fill="#000000" font-family="sans-serif" font-size="12" lengthAdjust="spacing" textLength="107" x="417" y="473.5163">+date datePassage</text><text fill="#000000" font-family="sans-serif" font-size="12" lengthAdjust="spacing" textLength="102" x="417" y="499.8604">+time heureDebut</text><text fill="#000000" font-family="sans-serif" font-size="12" lengthAdjust="spacing" textLength="102" x="417" y="526.2045">+int dureeMinutes</text><text fill="#000000" font-family="sans-serif" font-size="12" lengthAdjust="spacing" textLength="143" x="417" y="552.5487">+SoutenanceStatus statut</text><line style="stroke:#003366;stroke-width:1.0;" x1="407" x2="570" y1="565.0647" y2="565.0647"/><text fill="#000000" font-family="sans-serif" font-size="12" lengthAdjust="spacing" textLength="61" x="417" y="586.8928">+planifier()</text><text fill="#000000" font-family="sans-serif" font-size="12" lengthAdjust="spacing" textLength="58" x="417" y="613.2369">+annuler()</text></g><!--class Salle--><g id="elem_Salle"><rect codeLine="31" fill="#F2F4F7" height="210.4088" id="Salle" rx="2.5" ry="2.5" style="stroke:#003366;stroke-width:1.0;" width="146" x="160.5" y="714"/><ellipse cx="211" cy="732.1721" fill="#ADD1B2" rx="10" ry="10" style="stroke:#003366;stroke-width:1.0;"/><path d="M212.8281,736.4221 Q212.4219,736.6252 211.9688,736.7346 Q211.5156,736.8439 211.0313,736.8439 Q209.25,736.8439 208.3125,735.6877 Q207.3906,734.5158 207.3906,732.3127 Q207.3906,730.0939 208.3125,728.9377 Q209.25,727.7658 211.0313,727.7658 Q211.5156,727.7658 211.9688,727.8752 Q212.4375,727.9689 212.8281,728.1877 L212.8281,730.1096 Q212.3906,729.7033 211.9688,729.5158 Q211.5469,729.3127 211.1094,729.3127 Q210.1563,729.3127 209.6719,730.0783 Q209.1875,730.8283 209.1875,732.3127 Q209.1875,733.7814 209.6719,734.5314 Q210.1563,735.2814 211.1094,735.2814 Q211.5469,735.2814 211.9688,735.0939 Q212.3906,734.9064 212.8281,734.5002 L212.8281,736.4221 Z " fill="#000000"/><text fill="#000000" font-family="sans-serif" font-size="12" lengthAdjust="spacing" textLength="27" x="235" y="736.8281">Salle</text><line style="stroke:#003366;stroke-width:1.0;" x1="161.5" x2="305.5" y1="750.3441" y2="750.3441"/><text fill="#000000" font-family="sans-serif" font-size="12" lengthAdjust="spacing" textLength="34" x="171.5" y="772.1722">+int id</text><text fill="#000000" font-family="sans-serif" font-size="12" lengthAdjust="spacing" textLength="67" x="171.5" y="798.5163">+string nom</text><text fill="#000000" font-family="sans-serif" font-size="12" lengthAdjust="spacing" textLength="92" x="171.5" y="824.8604">+string batiment</text><text fill="#000000" font-family="sans-serif" font-size="12" lengthAdjust="spacing" textLength="71" x="171.5" y="851.2045">+int capacite</text><text fill="#000000" font-family="sans-serif" font-size="12" lengthAdjust="spacing" textLength="112" x="171.5" y="877.5487">+boolean disponible</text><line style="stroke:#003366;stroke-width:1.0;" x1="161.5" x2="305.5" y1="890.0647" y2="890.0647"/><text fill="#000000" font-family="sans-serif" font-size="12" lengthAdjust="spacing" textLength="124" x="171.5" y="911.8928">+verifierDisponibilite()</text></g><!--class MembreJury--><g id="elem_MembreJury"><rect codeLine="40" fill="#F2F4F7" height="105.0323" id="MembreJury" rx="2.5" ry="2.5" style="stroke:#003366;stroke-width:1.0;" width="120" x="341.5" y="766.5"/><ellipse cx="360.45" cy="784.6721" fill="#ADD1B2" rx="10" ry="10" style="stroke:#003366;stroke-width:1.0;"/><path d="M362.2781,788.9221 Q361.8719,789.1252 361.4188,789.2346 Q360.9656,789.3439 360.4813,789.3439 Q358.7,789.3439 357.7625,788.1877 Q356.8406,787.0158 356.8406,784.8127 Q356.8406,782.5939 357.7625,781.4377 Q358.7,780.2658 360.4813,780.2658 Q360.9656,780.2658 361.4188,780.3752 Q361.8875,780.4689 362.2781,780.6877 L362.2781,782.6096 Q361.8406,782.2033 361.4188,782.0158 Q360.9969,781.8127 360.5594,781.8127 Q359.6063,781.8127 359.1219,782.5783 Q358.6375,783.3283 358.6375,784.8127 Q358.6375,786.2814 359.1219,787.0314 Q359.6063,787.7814 360.5594,787.7814 Q360.9969,787.7814 361.4188,787.5939 Q361.8406,787.4064 362.2781,787.0002 L362.2781,788.9221 Z " fill="#000000"/><text fill="#000000" font-family="sans-serif" font-size="12" lengthAdjust="spacing" textLength="69" x="379.55" y="789.3281">MembreJury</text><line style="stroke:#003366;stroke-width:1.0;" x1="342.5" x2="460.5" y1="802.8441" y2="802.8441"/><text fill="#000000" font-family="sans-serif" font-size="12" lengthAdjust="spacing" textLength="98" x="352.5" y="824.6722">+JuryRole roleJury</text><text fill="#000000" font-family="sans-serif" font-size="12" lengthAdjust="spacing" textLength="98" x="352.5" y="851.0163">+boolean present</text><line style="stroke:#003366;stroke-width:1.0;" x1="342.5" x2="460.5" y1="863.5323" y2="863.5323"/></g><!--class Evaluation--><g id="elem_Evaluation"><rect codeLine="45" fill="#F2F4F7" height="184.0647" id="Evaluation" rx="2.5" ry="2.5" style="stroke:#003366;stroke-width:1.0;" width="158" x="496.5" y="727"/><ellipse cx="537.5" cy="745.1721" fill="#ADD1B2" rx="10" ry="10" style="stroke:#003366;stroke-width:1.0;"/><path d="M539.3281,749.4221 Q538.9219,749.6252 538.4688,749.7346 Q538.0156,749.8439 537.5313,749.8439 Q535.75,749.8439 534.8125,748.6877 Q533.8906,747.5158 533.8906,745.3127 Q533.8906,743.0939 534.8125,741.9377 Q535.75,740.7658 537.5313,740.7658 Q538.0156,740.7658 538.4688,740.8752 Q538.9375,740.9689 539.3281,741.1877 L539.3281,743.1096 Q538.8906,742.7033 538.4688,742.5158 Q538.0469,742.3127 537.6094,742.3127 Q536.6563,742.3127 536.1719,743.0783 Q535.6875,743.8283 535.6875,745.3127 Q535.6875,746.7814 536.1719,747.5314 Q536.6563,748.2814 537.6094,748.2814 Q538.0469,748.2814 538.4688,748.0939 Q538.8906,747.9064 539.3281,747.5002 L539.3281,749.4221 Z " fill="#000000"/><text fill="#000000" font-family="sans-serif" font-size="12" lengthAdjust="spacing" textLength="58" x="561.5" y="749.8281">Evaluation</text><line style="stroke:#003366;stroke-width:1.0;" x1="497.5" x2="653.5" y1="763.3441" y2="763.3441"/><text fill="#000000" font-family="sans-serif" font-size="12" lengthAdjust="spacing" textLength="34" x="507.5" y="785.1722">+int id</text><text fill="#000000" font-family="sans-serif" font-size="12" lengthAdjust="spacing" textLength="60" x="507.5" y="811.5163">+float note</text><text fill="#000000" font-family="sans-serif" font-size="12" lengthAdjust="spacing" textLength="114" x="507.5" y="837.8604">+string observations</text><text fill="#000000" font-family="sans-serif" font-size="12" lengthAdjust="spacing" textLength="136" x="507.5" y="864.2045">+DecisionEnum decision</text><text fill="#000000" font-family="sans-serif" font-size="12" lengthAdjust="spacing" textLength="95" x="507.5" y="890.5487">+boolean validee</text><line style="stroke:#003366;stroke-width:1.0;" x1="497.5" x2="653.5" y1="903.0647" y2="903.0647"/></g><!--class PlanningSession--><g id="elem_PlanningSession"><rect codeLine="53" fill="#F2F4F7" height="184.0647" id="PlanningSession" rx="2.5" ry="2.5" style="stroke:#003366;stroke-width:1.0;" width="165" x="406" y="64.5"/><ellipse cx="435.3" cy="82.6721" fill="#ADD1B2" rx="10" ry="10" style="stroke:#003366;stroke-width:1.0;"/><path d="M437.1281,86.9221 Q436.7219,87.1252 436.2688,87.2346 Q435.8156,87.3439 435.3313,87.3439 Q433.55,87.3439 432.6125,86.1877 Q431.6906,85.0158 431.6906,82.8127 Q431.6906,80.5939 432.6125,79.4377 Q433.55,78.2658 435.3313,78.2658 Q435.8156,78.2658 436.2688,78.3752 Q436.7375,78.4689 437.1281,78.6877 L437.1281,80.6096 Q436.6906,80.2033 436.2688,80.0158 Q435.8469,79.8127 435.4094,79.8127 Q434.4563,79.8127 433.9719,80.5783 Q433.4875,81.3283 433.4875,82.8127 Q433.4875,84.2814 433.9719,85.0314 Q434.4563,85.7814 435.4094,85.7814 Q435.8469,85.7814 436.2688,85.5939 Q436.6906,85.4064 437.1281,85.0002 L437.1281,86.9221 Z " fill="#000000"/><text fill="#000000" font-family="sans-serif" font-size="12" lengthAdjust="spacing" textLength="91" x="456.7" y="87.3281">PlanningSession</text><line style="stroke:#003366;stroke-width:1.0;" x1="407" x2="570" y1="100.8441" y2="100.8441"/><text fill="#000000" font-family="sans-serif" font-size="12" lengthAdjust="spacing" textLength="34" x="417" y="122.6722">+int id</text><text fill="#000000" font-family="sans-serif" font-size="12" lengthAdjust="spacing" textLength="75" x="417" y="149.0163">+string libelle</text><text fill="#000000" font-family="sans-serif" font-size="12" lengthAdjust="spacing" textLength="94" x="417" y="175.3604">+date dateDebut</text><text fill="#000000" font-family="sans-serif" font-size="12" lengthAdjust="spacing" textLength="76" x="417" y="201.7045">+date dateFin</text><text fill="#000000" font-family="sans-serif" font-size="12" lengthAdjust="spacing" textLength="143" x="417" y="228.0487">+SoutenanceStatus statut</text><line style="stroke:#003366;stroke-width:1.0;" x1="407" x2="570" y1="240.5647" y2="240.5647"/></g><!--class Convocation--><g id="elem_Convocation"><rect codeLine="61" fill="#F2F4F7" height="157.7206" id="Convocation" rx="2.5" ry="2.5" style="stroke:#003366;stroke-width:1.0;" width="124" x="689.5" y="740"/><ellipse cx="710.25" cy="758.1721" fill="#ADD1B2" rx="10" ry="10" style="stroke:#003366;stroke-width:1.0;"/><path d="M712.0781,762.4221 Q711.6719,762.6252 711.2188,762.7346 Q710.7656,762.8439 710.2813,762.8439 Q708.5,762.8439 707.5625,761.6877 Q706.6406,760.5158 706.6406,758.3127 Q706.6406,756.0939 707.5625,754.9377 Q708.5,753.7658 710.2813,753.7658 Q710.7656,753.7658 711.2188,753.8752 Q711.6875,753.9689 712.0781,754.1877 L712.0781,756.1096 Q711.6406,755.7033 711.2188,755.5158 Q710.7969,755.3127 710.3594,755.3127 Q709.4063,755.3127 708.9219,756.0783 Q708.4375,756.8283 708.4375,758.3127 Q708.4375,759.7814 708.9219,760.5314 Q709.4063,761.2814 710.3594,761.2814 Q710.7969,761.2814 711.2188,761.0939 Q711.6406,760.9064 712.0781,760.5002 L712.0781,762.4221 Z " fill="#000000"/><text fill="#000000" font-family="sans-serif" font-size="12" lengthAdjust="spacing" textLength="69" x="729.75" y="762.8281">Convocation</text><line style="stroke:#003366;stroke-width:1.0;" x1="690.5" x2="812.5" y1="776.3441" y2="776.3441"/><text fill="#000000" font-family="sans-serif" font-size="12" lengthAdjust="spacing" textLength="34" x="700.5" y="798.1722">+int id</text><text fill="#000000" font-family="sans-serif" font-size="12" lengthAdjust="spacing" textLength="66" x="700.5" y="824.5163">+string type</text><text fill="#000000" font-family="sans-serif" font-size="12" lengthAdjust="spacing" textLength="102" x="700.5" y="850.8604">+boolean envoyee</text><line style="stroke:#003366;stroke-width:1.0;" x1="690.5" x2="812.5" y1="863.3765" y2="863.3765"/><text fill="#000000" font-family="sans-serif" font-size="12" lengthAdjust="spacing" textLength="60" x="700.5" y="885.2045">+generer()</text></g><!--reverse link PlanningSession to Soutenance--><g id="link_PlanningSession_Soutenance"><path codeLine="68" d="M488.5,260.74 C488.5,303.56 488.5,343.11 488.5,388.82 " fill="none" id="PlanningSession-backto-Soutenance" style="stroke:#003366;stroke-width:1.0;"/><polygon fill="#003366" points="488.5,248.74,484.5,254.74,488.5,260.74,492.5,254.74,488.5,248.74" style="stroke:#003366;stroke-width:1.0;"/><text fill="#003366" font-family="sans-serif" font-size="12" lengthAdjust="spacing" textLength="45" x="494.5" y="349.8281">contient</text><text fill="#003366" font-family="sans-serif" font-size="12" lengthAdjust="spacing" textLength="7" x="475.8758" y="274.3069">1</text><text fill="#003366" font-family="sans-serif" font-size="12" lengthAdjust="spacing" textLength="7" x="475.982" y="372.6419">*</text></g><!--link Soutenance to Salle--><g id="link_Soutenance_Salle"><path codeLine="69" d="M405.79,576.23 C379.44,599.95 351.25,627.76 328.5,656 C314.18,673.77 300.59,693.94 288.4,713.86 " fill="none" id="Soutenance-Salle" style="stroke:#003366;stroke-width:1.0;"/><text fill="#003366" font-family="sans-serif" font-size="12" lengthAdjust="spacing" textLength="89" x="334.5" y="674.8281">se d&#233;roule dans</text><text fill="#003366" font-family="sans-serif" font-size="12" lengthAdjust="spacing" textLength="7" x="385.9516" y="572.8728">*</text><text fill="#003366" font-family="sans-serif" font-size="12" lengthAdjust="spacing" textLength="7" x="279.6625" y="697.3791">1</text></g><!--link Soutenance to MembreJury--><g id="link_Soutenance_MembreJury"><path codeLine="70" d="M453.92,626.39 C451.05,636.4 448.21,646.37 445.5,656 C435.11,692.89 423.79,734.63 415.23,766.5 " fill="none" id="Soutenance-MembreJury" style="stroke:#003366;stroke-width:1.0;"/><text fill="#003366" font-family="sans-serif" font-size="12" lengthAdjust="spacing" textLength="75" x="451.5" y="674.8281">compos&#233;e de</text><text fill="#003366" font-family="sans-serif" font-size="12" lengthAdjust="spacing" textLength="7" x="439.5641" y="651.447">1</text><text fill="#003366" font-family="sans-serif" font-size="12" lengthAdjust="spacing" textLength="20" x="390.0673" y="749.9559">3..*</text></g><!--link Soutenance to Evaluation--><g id="link_Soutenance_Evaluation"><path codeLine="71" d="M527.71,626.19 C530.78,636.25 533.75,646.28 536.5,656 C542.95,678.83 549.27,703.65 554.88,726.85 " fill="none" id="Soutenance-Evaluation" style="stroke:#003366;stroke-width:1.0;"/><text fill="#003366" font-family="sans-serif" font-size="12" lengthAdjust="spacing" textLength="47" x="549.5" y="674.8281">poss&#232;de</text><text fill="#003366" font-family="sans-serif" font-size="12" lengthAdjust="spacing" textLength="7" x="517.4854" y="651.6485">1</text><text fill="#003366" font-family="sans-serif" font-size="12" lengthAdjust="spacing" textLength="7" x="540.6505" y="710.6382">1</text></g><!--link Soutenance to Convocation--><g id="link_Soutenance_Convocation"><path codeLine="72" d="M571.17,597.66 C603.44,633.28 640.34,675.03 672.5,714 C679.36,722.31 686.39,731.11 693.29,739.94 " fill="none" id="Soutenance-Convocation" style="stroke:#003366;stroke-width:1.0;"/><text fill="#003366" font-family="sans-serif" font-size="12" lengthAdjust="spacing" textLength="40" x="648.5" y="674.8281">g&#233;n&#232;re</text><text fill="#003366" font-family="sans-serif" font-size="12" lengthAdjust="spacing" textLength="7" x="584.0049" y="596.1444">1</text><text fill="#003366" font-family="sans-serif" font-size="12" lengthAdjust="spacing" textLength="20" x="661.7697" y="723.5968">1..*</text></g><!--SRC=[XLBDZjem4Bxp52wdTgj5MlN6BGf12e90mu_K4tAIMMh96KUsWuIgli_o7BnO9y49NhgqEJZ-lldxPZoV1EQoBe0PUv8mgkfI3WQ0TSdMghQ077DOMsvhmtuD67rX6aLHUrlDWoIUnWxDjkcFVJ2THk7cIeJBPBVyldNcADc7osswRi4cIXTnqbbsmRpp2kVBpJPr84YIxPpklvsW2UJ228LH0wvYWiaYNjzk-s0NXLGdJKb5l4oSQKQ5apPFBhanNcSkpLScq39HE51m2-sn8cz-04TRKGBx2RM62MIrzI8Buc0XaD8QH_yrFTFykg1ASXIl0lJdBuxXYBLiyKqcb_A1GcErm0D3LRudCjw8H5zRpYkU2ziraIabWIChXAaKYansXYFeLj746OIa85_E0ifCmwpMfrvJ0rBAnpGT3RWhKcamZPe-HtJaiYQD2Z_kwrKgRgcjNgxhIsK6zB4Dx0RyRXiA1-xgKpLH0DpghsZkI0dNOCn34Qwc51d8VZpzJlXltvDJWVzvzrv2gF2eyd_Cm9Mtf-h-pO0YJz2n1q3GtSRSDpPy6RAdvsSsV1hwwpvckK8hcZVnsCQfyQMOwywDcQ6-BcUjQ2UfGHgwx_voTVys6b6WjnPDzh9IvdAc8FWeX7xU2emPEPlBsmFVDhq_hZ4xNCvuUTCm-0C0]--></g></svg>