<?xml version="1.0" encoding="us-ascii" standalone="no"?><svg xmlns="http://www.w3.org/2000/svg" xmlns:xlink="http://www.w3.org/1999/xlink" contentStyleType="text/css" height="601px" preserveAspectRatio="none" style="width:384px;height:601px;background:#FFFFFF;" version="1.1" viewBox="0 0 384 601" width="384px" zoomAndPan="magnify"><defs/><g><!--class ProjetType--><g id="elem_ProjetType"><rect codeLine="21" fill="#F2F4F7" height="105.2038" id="ProjetType" rx="2.5" ry="2.5" style="stroke:#003366;stroke-width:1.0;" width="103" x="7" y="7"/><ellipse cx="22" cy="23" fill="#EB937F" rx="11" ry="11" style="stroke:#003366;stroke-width:1.0;"/><path d="M26.1094,29 L18.3906,29 L18.3906,16.6094 L26.1094,16.6094 L26.1094,18.7656 L20.8438,18.7656 L20.8438,21.4375 L25.6094,21.4375 L25.6094,23.5938 L20.8438,23.5938 L20.8438,26.8438 L26.1094,26.8438 L26.1094,29 Z " fill="#000000"/><text fill="#000000" font-family="sans-serif" font-size="14" lengthAdjust="spacing" textLength="71" x="36" y="28.432">ProjetType</text><line style="stroke:#003366;stroke-width:1.0;" x1="8" x2="109" y1="39" y2="39"/><text fill="#000000" font-family="sans-serif" font-size="14" lengthAdjust="spacing" textLength="31" x="13" y="57.9659">+PFE</text><text fill="#000000" font-family="sans-serif" font-size="14" lengthAdjust="spacing" textLength="75" x="13" y="77.0339">+MEMOIRE</text><text fill="#000000" font-family="sans-serif" font-size="14" lengthAdjust="spacing" textLength="51" x="13" y="96.1018">+STAGE</text><line style="stroke:#003366;stroke-width:1.0;" x1="8" x2="109" y1="104.2038" y2="104.2038"/></g><!--class Projet--><g id="elem_Projet"><rect codeLine="27" fill="#F2F4F7" height="143.3396" id="Projet" rx="2.5" ry="2.5" style="stroke:#003366;stroke-width:1.0;" width="140" x="186.5" y="191"/><ellipse cx="232.75" cy="207" fill="#ADD1B2" rx="11" ry="11" style="stroke:#003366;stroke-width:1.0;"/><path d="M235.7188,212.6406 Q235.1406,212.9375 234.5,213.0781 Q233.8594,213.2344 233.1563,213.2344 Q230.6563,213.2344 229.3281,211.5938 Q228.0156,209.9375 228.0156,206.8125 Q228.0156,203.6875 229.3281,202.0313 Q230.6563,200.375 233.1563,200.375 Q233.8594,200.375 234.5,200.5313 Q235.1563,200.6875 235.7188,200.9844 L235.7188,203.7031 Q235.0938,203.125 234.5,202.8594 Q233.9063,202.5781 233.2813,202.5781 Q231.9375,202.5781 231.25,203.6563 Q230.5625,204.7188 230.5625,206.8125 Q230.5625,208.9063 231.25,209.9844 Q231.9375,211.0469 233.2813,211.0469 Q233.9063,211.0469 234.5,210.7813 Q235.0938,210.5 235.7188,209.9219 L235.7188,212.6406 Z " fill="#000000"/><text fill="#000000" font-family="sans-serif" font-size="14" lengthAdjust="spacing" textLength="39" x="253.25" y="212.432">Projet</text><line style="stroke:#003366;stroke-width:1.0;" x1="187.5" x2="325.5" y1="223" y2="223"/><text fill="#000000" font-family="sans-serif" font-size="14" lengthAdjust="spacing" textLength="43" x="192.5" y="241.9659">+int id</text><text fill="#000000" font-family="sans-serif" font-size="14" lengthAdjust="spacing" textLength="80" x="192.5" y="261.0339">+string titre</text><text fill="#000000" font-family="sans-serif" font-size="14" lengthAdjust="spacing" textLength="128" x="192.5" y="280.1018">+string description</text><text fill="#000000" font-family="sans-serif" font-size="14" lengthAdjust="spacing" textLength="112" x="192.5" y="299.1697">+ProjetType type</text><text fill="#000000" font-family="sans-serif" font-size="14" lengthAdjust="spacing" textLength="91" x="192.5" y="318.2376">+string statut</text><line style="stroke:#003366;stroke-width:1.0;" x1="187.5" x2="325.5" y1="326.3396" y2="326.3396"/></g><!--class Etudiant--><g id="elem_Etudiant"><rect codeLine="35" fill="#F2F4F7" height="48" id="Etudiant" rx="2.5" ry="2.5" style="stroke:#003366;stroke-width:1.0;" width="89" x="145" y="35.5"/><ellipse cx="160" cy="51.5" fill="#ADD1B2" rx="11" ry="11" style="stroke:#003366;stroke-width:1.0;"/><path d="M162.9688,57.1406 Q162.3906,57.4375 161.75,57.5781 Q161.1094,57.7344 160.4063,57.7344 Q157.9063,57.7344 156.5781,56.0938 Q155.2656,54.4375 155.2656,51.3125 Q155.2656,48.1875 156.5781,46.5313 Q157.9063,44.875 160.4063,44.875 Q161.1094,44.875 161.75,45.0313 Q162.4063,45.1875 162.9688,45.4844 L162.9688,48.2031 Q162.3438,47.625 161.75,47.3594 Q161.1563,47.0781 160.5313,47.0781 Q159.1875,47.0781 158.5,48.1563 Q157.8125,49.2188 157.8125,51.3125 Q157.8125,53.4063 158.5,54.4844 Q159.1875,55.5469 160.5313,55.5469 Q161.1563,55.5469 161.75,55.2813 Q162.3438,55 162.9688,54.4219 L162.9688,57.1406 Z " fill="#000000"/><text fill="#000000" font-family="sans-serif" font-size="14" lengthAdjust="spacing" textLength="57" x="174" y="56.932">Etudiant</text><line style="stroke:#003366;stroke-width:1.0;" x1="146" x2="233" y1="67.5" y2="67.5"/><line style="stroke:#003366;stroke-width:1.0;" x1="146" x2="233" y1="75.5" y2="75.5"/></g><!--class Enseignant--><g id="elem_Enseignant"><rect codeLine="39" fill="#F2F4F7" height="48" id="Enseignant" rx="2.5" ry="2.5" style="stroke:#003366;stroke-width:1.0;" width="108" x="269.5" y="35.5"/><ellipse cx="284.5" cy="51.5" fill="#ADD1B2" rx="11" ry="11" style="stroke:#003366;stroke-width:1.0;"/><path d="M287.4688,57.1406 Q286.8906,57.4375 286.25,57.5781 Q285.6094,57.7344 284.9063,57.7344 Q282.4063,57.7344 281.0781,56.0938 Q279.7656,54.4375 279.7656,51.3125 Q279.7656,48.1875 281.0781,46.5313 Q282.4063,44.875 284.9063,44.875 Q285.6094,44.875 286.25,45.0313 Q286.9063,45.1875 287.4688,45.4844 L287.4688,48.2031 Q286.8438,47.625 286.25,47.3594 Q285.6563,47.0781 285.0313,47.0781 Q283.6875,47.0781 283,48.1563 Q282.3125,49.2188 282.3125,51.3125 Q282.3125,53.4063 283,54.4844 Q283.6875,55.5469 285.0313,55.5469 Q285.6563,55.5469 286.25,55.2813 Q286.8438,55 287.4688,54.4219 L287.4688,57.1406 Z " fill="#000000"/><text fill="#000000" font-family="sans-serif" font-size="14" lengthAdjust="spacing" textLength="76" x="298.5" y="56.932">Enseignant</text><line style="stroke:#003366;stroke-width:1.0;" x1="270.5" x2="376.5" y1="67.5" y2="67.5"/><line style="stroke:#003366;stroke-width:1.0;" x1="270.5" x2="376.5" y1="75.5" y2="75.5"/></g><!--class Soutenance--><g id="elem_Soutenance"><rect codeLine="43" fill="#F2F4F7" height="181.4754" id="Soutenance" rx="2.5" ry="2.5" style="stroke:#003366;stroke-width:1.0;" width="184" x="164.5" y="413"/><ellipse cx="212.75" cy="429" fill="#ADD1B2" rx="11" ry="11" style="stroke:#003366;stroke-width:1.0;"/><path d="M215.7188,434.6406 Q215.1406,434.9375 214.5,435.0781 Q213.8594,435.2344 213.1563,435.2344 Q210.6563,435.2344 209.3281,433.5938 Q208.0156,431.9375 208.0156,428.8125 Q208.0156,425.6875 209.3281,424.0313 Q210.6563,422.375 213.1563,422.375 Q213.8594,422.375 214.5,422.5313 Q215.1563,422.6875 215.7188,422.9844 L215.7188,425.7031 Q215.0938,425.125 214.5,424.8594 Q213.9063,424.5781 213.2813,424.5781 Q211.9375,424.5781 211.25,425.6563 Q210.5625,426.7188 210.5625,428.8125 Q210.5625,430.9063 211.25,431.9844 Q211.9375,433.0469 213.2813,433.0469 Q213.9063,433.0469 214.5,432.7813 Q215.0938,432.5 215.7188,431.9219 L215.7188,434.6406 Z " fill="#000000"/><text fill="#000000" font-family="sans-serif" font-size="14" lengthAdjust="spacing" textLength="79" x="233.25" y="434.432">Soutenance</text><line style="stroke:#003366;stroke-width:1.0;" x1="165.5" x2="347.5" y1="445" y2="445"/><text fill="#000000" font-family="sans-serif" font-size="14" lengthAdjust="spacing" textLength="43" x="170.5" y="463.9659">+int id</text><text fill="#000000" font-family="sans-serif" font-size="14" lengthAdjust="spacing" textLength="127" x="170.5" y="483.0339">+date datePassage</text><text fill="#000000" font-family="sans-serif" font-size="14" lengthAdjust="spacing" textLength="123" x="170.5" y="502.1018">+time heureDebut</text><text fill="#000000" font-family="sans-serif" font-size="14" lengthAdjust="spacing" textLength="125" x="170.5" y="521.1697">+int dureeMinutes</text><text fill="#000000" font-family="sans-serif" font-size="14" lengthAdjust="spacing" textLength="172" x="170.5" y="540.2376">+SoutenanceStatus statut</text><line style="stroke:#003366;stroke-width:1.0;" x1="165.5" x2="347.5" y1="548.3396" y2="548.3396"/><text fill="#000000" font-family="sans-serif" font-size="14" lengthAdjust="spacing" textLength="73" x="170.5" y="567.3055">+planifier()</text><text fill="#000000" font-family="sans-serif" font-size="14" lengthAdjust="spacing" textLength="69" x="170.5" y="586.3734">+annuler()</text></g><!--link Etudiant to Projet--><g id="link_Etudiant_Projet"><path codeLine="53" d="M197.19,83.56 C205.88,109.65 218.5726,147.7079 231.1026,185.2979 " fill="none" id="Etudiant-to-Projet" style="stroke:#003366;stroke-width:1.0;"/><polygon fill="#003366" points="233,190.99,233.9487,181.1869,231.4189,186.2466,226.3592,183.7168,233,190.99" style="stroke:#003366;stroke-width:1.0;"/><text fill="#000000" font-family="sans-serif" font-size="13" lengthAdjust="spacing" textLength="50" x="224.5" y="156.897">poss&#232;de</text></g><!--link Enseignant to Projet--><g id="link_Enseignant_Projet"><path codeLine="54" d="M315.81,83.56 C307.12,109.65 294.4274,147.7079 281.8974,185.2979 " fill="none" id="Enseignant-to-Projet" style="stroke:#003366;stroke-width:1.0;"/><polygon fill="#003366" points="280,190.99,286.6408,183.7168,281.5811,186.2466,279.0513,181.1869,280,190.99" style="stroke:#003366;stroke-width:1.0;"/><text fill="#000000" font-family="sans-serif" font-size="13" lengthAdjust="spacing" textLength="48" x="296.5" y="156.897">encadre</text></g><!--link Projet to Soutenance--><g id="link_Projet_Soutenance"><path codeLine="55" d="M256.5,334.24 C256.5,358.88 256.5,380.85 256.5,406.82 " fill="none" id="Projet-to-Soutenance" style="stroke:#003366;stroke-width:1.0;"/><polygon fill="#003366" points="256.5,412.82,260.5,403.82,256.5,407.82,252.5,403.82,256.5,412.82" style="stroke:#003366;stroke-width:1.0;"/><text fill="#000000" font-family="sans-serif" font-size="13" lengthAdjust="spacing" textLength="77" x="257.5" y="378.897">fait l'objet de</text></g><!--SRC=[RL9jIiD04FsVKopuGqMAdrGGAVZHQC5YiBt0cfssOzFPi3j1glG-tiEBEKasCTKkPDbvRsRUco7NdjSP32AbdBMiFkMXL6o9xsncdTexgKw5FY51YvwVz_ijEbrWkYJmNfqAjf4lpRH4TRTRdIxdpXPaGdLy5b_4bnNt2Dg0-vVHwR_RIrtNuUBgL5oYZK6Qgtxmefspxy7BhXasqVLns89V8kNQwPNo2stiUzbcfZCF7QOQxORPuMl1C4ejJV03r4aK0HKhbJZx1ZnTvn0aZrGI3yDhF1m_ZrwQQ3AzUHX6coYgjrLNjbL8hD24m8kSU65a1zkG0Pywp1ajDNA_3bYkxNJFcWl-5HroOL1JATi1oGFEwIyyiJAme2diDcaqGtKbagtdZJBZ2jG22WVt82lhL1h1O8maRNsparPZKZhrZU6QpJDDE4Dm1uS1qKH5LiLYinscrniqwxnIkVN- -yj0r1bhAm4erKRs6e2Iwunw9Ny0iihsxMl9IfyV]--></g></svg>