<?xml version="1.0" encoding="us-ascii" standalone="no"?><svg xmlns="http://www.w3.org/2000/svg" xmlns:xlink="http://www.w3.org/1999/xlink" contentStyleType="text/css" height="746px" preserveAspectRatio="none" style="width:377px;height:746px;background:#FFFFFF;" version="1.1" viewBox="0 0 377 746" width="377px" zoomAndPan="magnify"><defs/><g><!--class ProjetType--><g id="elem_ProjetType"><rect codeLine="3" fill="#F2F4F7" height="131.3765" id="ProjetType" rx="2.5" ry="2.5" style="stroke:#003366;stroke-width:1.0;" width="100" x="12" y="12"/><ellipse cx="26" cy="30.1721" fill="#EB937F" rx="10" ry="10" style="stroke:#003366;stroke-width:1.0;"/><path d="M28.4375,34.6721 L22.9844,34.6721 L22.9844,25.9221 L28.4375,25.9221 L28.4375,27.4533 L24.7188,27.4533 L24.7188,29.3283 L28.0781,29.3283 L28.0781,30.8596 L24.7188,30.8596 L24.7188,33.1408 L28.4375,33.1408 L28.4375,34.6721 Z " fill="#000000"/><text fill="#000000" font-family="sans-serif" font-size="12" lengthAdjust="spacing" textLength="60" x="44" y="34.8281">ProjetType</text><line style="stroke:#003366;stroke-width:1.0;" x1="13" x2="111" y1="48.3441" y2="48.3441"/><text fill="#000000" font-family="sans-serif" font-size="12" lengthAdjust="spacing" textLength="20" x="23" y="70.1722">PFE</text><text fill="#000000" font-family="sans-serif" font-size="12" lengthAdjust="spacing" textLength="56" x="23" y="96.5163">MEMOIRE</text><text fill="#000000" font-family="sans-serif" font-size="12" lengthAdjust="spacing" textLength="38" x="23" y="122.8604">STAGE</text><line style="stroke:#003366;stroke-width:1.0;" x1="13" x2="111" y1="135.3765" y2="135.3765"/></g><!--class Projet--><g id="elem_Projet"><rect codeLine="9" fill="#F2F4F7" height="184.0647" id="Projet" rx="2.5" ry="2.5" style="stroke:#003366;stroke-width:1.0;" width="126" x="191" y="231"/><ellipse cx="228.85" cy="249.1721" fill="#ADD1B2" rx="10" ry="10" style="stroke:#003366;stroke-width:1.0;"/><path d="M230.6781,253.4221 Q230.2719,253.6252 229.8188,253.7346 Q229.3656,253.8439 228.8813,253.8439 Q227.1,253.8439 226.1625,252.6877 Q225.2406,251.5158 225.2406,249.3127 Q225.2406,247.0939 226.1625,245.9377 Q227.1,244.7658 228.8813,244.7658 Q229.3656,244.7658 229.8188,244.8752 Q230.2875,244.9689 230.6781,245.1877 L230.6781,247.1096 Q230.2406,246.7033 229.8188,246.5158 Q229.3969,246.3127 228.9594,246.3127 Q228.0063,246.3127 227.5219,247.0783 Q227.0375,247.8283 227.0375,249.3127 Q227.0375,250.7814 227.5219,251.5314 Q228.0063,252.2814 228.9594,252.2814 Q229.3969,252.2814 229.8188,252.0939 Q230.2406,251.9064 230.6781,251.5002 L230.6781,253.4221 Z " fill="#000000"/><text fill="#000000" font-family="sans-serif" font-size="12" lengthAdjust="spacing" textLength="33" x="252.15" y="253.8281">Projet</text><line style="stroke:#003366;stroke-width:1.0;" x1="192" x2="316" y1="267.3441" y2="267.3441"/><text fill="#000000" font-family="sans-serif" font-size="12" lengthAdjust="spacing" textLength="34" x="202" y="289.1722">+int id</text><text fill="#000000" font-family="sans-serif" font-size="12" lengthAdjust="spacing" textLength="65" x="202" y="315.5163">+string titre</text><text fill="#000000" font-family="sans-serif" font-size="12" lengthAdjust="spacing" textLength="104" x="202" y="341.8604">+string description</text><text fill="#000000" font-family="sans-serif" font-size="12" lengthAdjust="spacing" textLength="94" x="202" y="368.2045">+ProjetType type</text><text fill="#000000" font-family="sans-serif" font-size="12" lengthAdjust="spacing" textLength="74" x="202" y="394.5487">+string statut</text><line style="stroke:#003366;stroke-width:1.0;" x1="192" x2="316" y1="407.0647" y2="407.0647"/></g><!--class Etudiant--><g id="elem_Etudiant"><rect codeLine="17" fill="#F2F4F7" height="52.3441" id="Etudiant" rx="2.5" ry="2.5" style="stroke:#003366;stroke-width:1.0;" width="86" x="147" y="51.5"/><ellipse cx="161" cy="69.6721" fill="#ADD1B2" rx="10" ry="10" style="stroke:#003366;stroke-width:1.0;"/><path d="M162.8281,73.9221 Q162.4219,74.1252 161.9688,74.2346 Q161.5156,74.3439 161.0313,74.3439 Q159.25,74.3439 158.3125,73.1877 Q157.3906,72.0158 157.3906,69.8127 Q157.3906,67.5939 158.3125,66.4377 Q159.25,65.2658 161.0313,65.2658 Q161.5156,65.2658 161.9688,65.3752 Q162.4375,65.4689 162.8281,65.6877 L162.8281,67.6096 Q162.3906,67.2033 161.9688,67.0158 Q161.5469,66.8127 161.1094,66.8127 Q160.1563,66.8127 159.6719,67.5783 Q159.1875,68.3283 159.1875,69.8127 Q159.1875,71.2814 159.6719,72.0314 Q160.1563,72.7814 161.1094,72.7814 Q161.5469,72.7814 161.9688,72.5939 Q162.3906,72.4064 162.8281,72.0002 L162.8281,73.9221 Z " fill="#000000"/><text fill="#000000" font-family="sans-serif" font-size="12" lengthAdjust="spacing" textLength="46" x="179" y="74.3281">Etudiant</text><line style="stroke:#003366;stroke-width:1.0;" x1="148" x2="232" y1="87.8441" y2="87.8441"/><line style="stroke:#003366;stroke-width:1.0;" x1="148" x2="232" y1="95.8441" y2="95.8441"/></g><!--class Enseignant--><g id="elem_Enseignant"><rect codeLine="21" fill="#F2F4F7" height="52.3441" id="Enseignant" rx="2.5" ry="2.5" style="stroke:#003366;stroke-width:1.0;" width="102" x="268" y="51.5"/><ellipse cx="282" cy="69.6721" fill="#ADD1B2" rx="10" ry="10" style="stroke:#003366;stroke-width:1.0;"/><path d="M283.8281,73.9221 Q283.4219,74.1252 282.9688,74.2346 Q282.5156,74.3439 282.0313,74.3439 Q280.25,74.3439 279.3125,73.1877 Q278.3906,72.0158 278.3906,69.8127 Q278.3906,67.5939 279.3125,66.4377 Q280.25,65.2658 282.0313,65.2658 Q282.5156,65.2658 282.9688,65.3752 Q283.4375,65.4689 283.8281,65.6877 L283.8281,67.6096 Q283.3906,67.2033 282.9688,67.0158 Q282.5469,66.8127 282.1094,66.8127 Q281.1563,66.8127 280.6719,67.5783 Q280.1875,68.3283 280.1875,69.8127 Q280.1875,71.2814 280.6719,72.0314 Q281.1563,72.7814 282.1094,72.7814 Q282.5469,72.7814 282.9688,72.5939 Q283.3906,72.4064 283.8281,72.0002 L283.8281,73.9221 Z " fill="#000000"/><text fill="#000000" font-family="sans-serif" font-size="12" lengthAdjust="spacing" textLength="62" x="300" y="74.3281">Enseignant</text><line style="stroke:#003366;stroke-width:1.0;" x1="269" x2="369" y1="87.8441" y2="87.8441"/><line style="stroke:#003366;stroke-width:1.0;" x1="269" x2="369" y1="95.8441" y2="95.8441"/></g><!--class Soutenance--><g id="elem_Soutenance"><rect codeLine="25" fill="#F2F4F7" height="236.7529" id="Soutenance" rx="2.5" ry="2.5" style="stroke:#003366;stroke-width:1.0;" width="165" x="171.5" y="503"/><ellipse cx="212.05" cy="521.1721" fill="#ADD1B2" rx="10" ry="10" style="stroke:#003366;stroke-width:1.0;"/><path d="M213.8781,525.4221 Q213.4719,525.6252 213.0188,525.7346 Q212.5656,525.8439 212.0813,525.8439 Q210.3,525.8439 209.3625,524.6877 Q208.4406,523.5158 208.4406,521.3127 Q208.4406,519.0939 209.3625,517.9377 Q210.3,516.7658 212.0813,516.7658 Q212.5656,516.7658 213.0188,516.8752 Q213.4875,516.9689 213.8781,517.1877 L213.8781,519.1096 Q213.4406,518.7033 213.0188,518.5158 Q212.5969,518.3127 212.1594,518.3127 Q211.2063,518.3127 210.7219,519.0783 Q210.2375,519.8283 210.2375,521.3127 Q210.2375,522.7814 210.7219,523.5314 Q211.2063,524.2814 212.1594,524.2814 Q212.5969,524.2814 213.0188,524.0939 Q213.4406,523.9064 213.8781,523.5002 L213.8781,525.4221 Z " fill="#000000"/><text fill="#000000" font-family="sans-serif" font-size="12" lengthAdjust="spacing" textLength="66" x="235.95" y="525.8281">Soutenance</text><line style="stroke:#003366;stroke-width:1.0;" x1="172.5" x2="335.5" y1="539.3441" y2="539.3441"/><text fill="#000000" font-family="sans-serif" font-size="12" lengthAdjust="spacing" textLength="34" x="182.5" y="561.1722">+int id</text><text fill="#000000" font-family="sans-serif" font-size="12" lengthAdjust="spacing" textLength="107" x="182.5" y="587.5163">+date datePassage</text><text fill="#000000" font-family="sans-serif" font-size="12" lengthAdjust="spacing" textLength="102" x="182.5" y="613.8604">+time heureDebut</text><text fill="#000000" font-family="sans-serif" font-size="12" lengthAdjust="spacing" textLength="102" x="182.5" y="640.2045">+int dureeMinutes</text><text fill="#000000" font-family="sans-serif" font-size="12" lengthAdjust="spacing" textLength="143" x="182.5" y="666.5487">+SoutenanceStatus statut</text><line style="stroke:#003366;stroke-width:1.0;" x1="172.5" x2="335.5" y1="679.0647" y2="679.0647"/><text fill="#000000" font-family="sans-serif" font-size="12" lengthAdjust="spacing" textLength="61" x="182.5" y="700.8928">+planifier()</text><text fill="#000000" font-family="sans-serif" font-size="12" lengthAdjust="spacing" textLength="58" x="182.5" y="727.2369">+annuler()</text></g><!--link Etudiant to Projet--><g id="link_Etudiant_Projet"><path codeLine="35" d="M194.9,103.51 C199.92,128.36 208.2,167.51 217,201 C219.54,210.67 220.6689,214.9574 223.5689,224.9574 " fill="none" id="Etudiant-to-Projet" style="stroke:#003366;stroke-width:1.0;"/><polygon fill="#003366" points="225.24,230.72,226.575,220.962,223.8474,225.9179,218.8916,223.1902,225.24,230.72" style="stroke:#003366;stroke-width:1.0;"/><text fill="#003366" font-family="sans-serif" font-size="12" lengthAdjust="spacing" textLength="47" x="223" y="191.8281">poss&#232;de</text></g><!--link Enseignant to Projet--><g id="link_Enseignant_Projet"><path codeLine="36" d="M312.29,103.64 C304.29,133.59 292.0375,179.523 279.8675,225.113 " fill="none" id="Enseignant-to-Projet" style="stroke:#003366;stroke-width:1.0;"/><polygon fill="#003366" points="278.32,230.91,284.5059,223.2461,279.6096,226.0792,276.7765,221.1828,278.32,230.91" style="stroke:#003366;stroke-width:1.0;"/><text fill="#003366" font-family="sans-serif" font-size="12" lengthAdjust="spacing" textLength="46" x="298" y="191.8281">encadre</text></g><!--link Projet to Soutenance--><g id="link_Projet_Soutenance"><path codeLine="37" d="M254,415.38 C254,443.03 254,467.79 254,496.9 " fill="none" id="Projet-to-Soutenance" style="stroke:#003366;stroke-width:1.0;"/><polygon fill="#003366" points="254,502.9,258,493.9,254,497.9,250,493.9,254,502.9" style="stroke:#003366;stroke-width:1.0;"/><text fill="#003366" font-family="sans-serif" font-size="12" lengthAdjust="spacing" textLength="72" x="260" y="463.8281">fait l'objet de</text></g><!--SRC=[RL11JiGm3Bpd5UO422qFs0CI4WLngAZeVY3RU1UZrArYvx12_8T_y37IRafRH0vEF1vxnhaWRdnq2A8dZxTzRBqnoB65AdJlgBjJZ_1X89tgiHZliYXVdb_Fxtft_rIOJsCQRqLoJ-RV0B42kPo81k8ZA6d0DUHGca2zKiUviD3M5DPqKQjHPz52eoFBW-m2P44wyb-uxg9YGXlytwIpYcEe4jiU9sMb5k4DOy07t2VjkTCb34lYD5OoF6lKWrEP39-hlRTC1y9mTPqHonpzc2URlyjiDdVJTswXxqI-lnoQnLeh0d9ZNVhN30ornQfRE5XIy9VTVgYcEJy0]--></g></svg>