<?xml version="1.0" encoding="us-ascii" standalone="no"?><svg xmlns="http://www.w3.org/2000/svg" xmlns:xlink="http://www.w3.org/1999/xlink" contentStyleType="text/css" height="744px" preserveAspectRatio="none" style="width:734px;height:744px;background:#FFFFFF;" version="1.1" viewBox="0 0 734 744" width="734px" zoomAndPan="magnify"><defs/><g><!--class RoleEnum--><g id="elem_RoleEnum"><rect codeLine="3" fill="#F2F4F7" height="157.7206" id="RoleEnum" rx="2.5" ry="2.5" style="stroke:#003366;stroke-width:1.0;" width="126" x="12" y="91"/><ellipse cx="39.5" cy="109.1721" fill="#EB937F" rx="10" ry="10" style="stroke:#003366;stroke-width:1.0;"/><path d="M41.9375,113.6721 L36.4844,113.6721 L36.4844,104.9221 L41.9375,104.9221 L41.9375,106.4533 L38.2188,106.4533 L38.2188,108.3283 L41.5781,108.3283 L41.5781,109.8596 L38.2188,109.8596 L38.2188,112.1408 L41.9375,112.1408 L41.9375,113.6721 Z " fill="#000000"/><text fill="#000000" font-family="sans-serif" font-size="12" lengthAdjust="spacing" textLength="56" x="60.5" y="113.8281">RoleEnum</text><line style="stroke:#003366;stroke-width:1.0;" x1="13" x2="137" y1="127.3441" y2="127.3441"/><text fill="#000000" font-family="sans-serif" font-size="12" lengthAdjust="spacing" textLength="104" x="23" y="149.1722">ADMINISTRATEUR</text><text fill="#000000" font-family="sans-serif" font-size="12" lengthAdjust="spacing" textLength="93" x="23" y="175.5163">COORDINATEUR</text><text fill="#000000" font-family="sans-serif" font-size="12" lengthAdjust="spacing" textLength="76" x="23" y="201.8604">ENSEIGNANT</text><text fill="#000000" font-family="sans-serif" font-size="12" lengthAdjust="spacing" textLength="60" x="23" y="228.2045">ETUDIANT</text><line style="stroke:#003366;stroke-width:1.0;" x1="13" x2="137" y1="240.7206" y2="240.7206"/></g><!--class JuryRole--><g id="elem_JuryRole"><rect codeLine="10" fill="#F2F4F7" height="157.7206" id="JuryRole" rx="2.5" ry="2.5" style="stroke:#003366;stroke-width:1.0;" width="106" x="173" y="91"/><ellipse cx="196.45" cy="109.1721" fill="#EB937F" rx="10" ry="10" style="stroke:#003366;stroke-width:1.0;"/><path d="M198.8875,113.6721 L193.4344,113.6721 L193.4344,104.9221 L198.8875,104.9221 L198.8875,106.4533 L195.1688,106.4533 L195.1688,108.3283 L198.5281,108.3283 L198.5281,109.8596 L195.1688,109.8596 L195.1688,112.1408 L198.8875,112.1408 L198.8875,113.6721 Z " fill="#000000"/><text fill="#000000" font-family="sans-serif" font-size="12" lengthAdjust="spacing" textLength="45" x="216.55" y="113.8281">JuryRole</text><line style="stroke:#003366;stroke-width:1.0;" x1="174" x2="278" y1="127.3441" y2="127.3441"/><text fill="#000000" font-family="sans-serif" font-size="12" lengthAdjust="spacing" textLength="64" x="184" y="149.1722">PRESIDENT</text><text fill="#000000" font-family="sans-serif" font-size="12" lengthAdjust="spacing" textLength="75" x="184" y="175.5163">RAPPORTEUR</text><text fill="#000000" font-family="sans-serif" font-size="12" lengthAdjust="spacing" textLength="84" x="184" y="201.8604">EXAMINATEUR</text><text fill="#000000" font-family="sans-serif" font-size="12" lengthAdjust="spacing" textLength="72" x="184" y="228.2045">ENCADRANT</text><line style="stroke:#003366;stroke-width:1.0;" x1="174" x2="278" y1="240.7206" y2="240.7206"/></g><!--class Utilisateur--><g id="elem_Utilisateur"><rect codeLine="17" fill="#F2F4F7" height="315.7853" id="Utilisateur" rx="2.5" ry="2.5" style="stroke:#003366;stroke-width:1.0;" width="199" x="314.5" y="12"/><ellipse cx="377.5" cy="30.1721" fill="#A9DCDF" rx="10" ry="10" style="stroke:#003366;stroke-width:1.0;"/><path d="M377.1094,27.2502 L376.2969,30.8283 L377.9375,30.8283 L377.1094,27.2502 Z M376.0625,25.6721 L378.1719,25.6721 L380.5313,34.4221 L378.7969,34.4221 L378.2656,32.2658 L375.9531,32.2658 L375.4219,34.4221 L373.6875,34.4221 L376.0625,25.6721 Z " fill="#000000"/><text fill="#000000" font-family="sans-serif" font-size="12" font-style="italic" lengthAdjust="spacing" textLength="55" x="401.5" y="34.8281">Utilisateur</text><line style="stroke:#003366;stroke-width:1.0;" x1="315.5" x2="512.5" y1="48.3441" y2="48.3441"/><text fill="#000000" font-family="sans-serif" font-size="12" lengthAdjust="spacing" textLength="34" x="325.5" y="70.1722">+int id</text><text fill="#000000" font-family="sans-serif" font-size="12" lengthAdjust="spacing" textLength="67" x="325.5" y="96.5163">+string nom</text><text fill="#000000" font-family="sans-serif" font-size="12" lengthAdjust="spacing" textLength="86" x="325.5" y="122.8604">+string prenom</text><text fill="#000000" font-family="sans-serif" font-size="12" lengthAdjust="spacing" textLength="73" x="325.5" y="149.2045">+string email</text><text fill="#000000" font-family="sans-serif" font-size="12" lengthAdjust="spacing" textLength="113" x="325.5" y="175.5487">+string motDePasse</text><text fill="#000000" font-family="sans-serif" font-size="12" lengthAdjust="spacing" textLength="88" x="325.5" y="201.8928">+RoleEnum role</text><text fill="#000000" font-family="sans-serif" font-size="12" lengthAdjust="spacing" textLength="79" x="325.5" y="228.2369">+boolean actif</text><line style="stroke:#003366;stroke-width:1.0;" x1="315.5" x2="512.5" y1="240.7529" y2="240.7529"/><text fill="#000000" font-family="sans-serif" font-size="12" lengthAdjust="spacing" textLength="177" x="325.5" y="262.581">+seConnecter(email, password)</text><text fill="#000000" font-family="sans-serif" font-size="12" lengthAdjust="spacing" textLength="100" x="325.5" y="288.9251">+seDeconnecter()</text><text fill="#000000" font-family="sans-serif" font-size="12" lengthAdjust="spacing" textLength="91" x="325.5" y="315.2692">+modifierProfil()</text></g><!--class Administrateur--><g id="elem_Administrateur"><rect codeLine="30" fill="#F2F4F7" height="131.3765" id="Administrateur" rx="2.5" ry="2.5" style="stroke:#003366;stroke-width:1.0;" width="128" x="83" y="414.5"/><ellipse cx="98.8" cy="432.6721" fill="#ADD1B2" rx="10" ry="10" style="stroke:#003366;stroke-width:1.0;"/><path d="M100.6281,436.9221 Q100.2219,437.1252 99.7688,437.2346 Q99.3156,437.3439 98.8313,437.3439 Q97.05,437.3439 96.1125,436.1877 Q95.1906,435.0158 95.1906,432.8127 Q95.1906,430.5939 96.1125,429.4377 Q97.05,428.2658 98.8313,428.2658 Q99.3156,428.2658 99.7688,428.3752 Q100.2375,428.4689 100.6281,428.6877 L100.6281,430.6096 Q100.1906,430.2033 99.7688,430.0158 Q99.3469,429.8127 98.9094,429.8127 Q97.9563,429.8127 97.4719,430.5783 Q96.9875,431.3283 96.9875,432.8127 Q96.9875,434.2814 97.4719,435.0314 Q97.9563,435.7814 98.9094,435.7814 Q99.3469,435.7814 99.7688,435.5939 Q100.1906,435.4064 100.6281,435.0002 L100.6281,436.9221 Z " fill="#000000"/><text fill="#000000" font-family="sans-serif" font-size="12" lengthAdjust="spacing" textLength="84" x="117.2" y="437.3281">Administrateur</text><line style="stroke:#003366;stroke-width:1.0;" x1="84" x2="210" y1="450.8441" y2="450.8441"/><line style="stroke:#003366;stroke-width:1.0;" x1="84" x2="210" y1="458.8441" y2="458.8441"/><text fill="#000000" font-family="sans-serif" font-size="12" lengthAdjust="spacing" textLength="96" x="94" y="480.6722">+gererComptes()</text><text fill="#000000" font-family="sans-serif" font-size="12" lengthAdjust="spacing" textLength="106" x="94" y="507.0163">+configurerSalles()</text><text fill="#000000" font-family="sans-serif" font-size="12" lengthAdjust="spacing" textLength="100" x="94" y="533.3604">+definirPeriodes()</text></g><!--class Coordinateur--><g id="elem_Coordinateur"><rect codeLine="36" fill="#F2F4F7" height="131.3765" id="Coordinateur" rx="2.5" ry="2.5" style="stroke:#003366;stroke-width:1.0;" width="146" x="246" y="414.5"/><ellipse cx="274.4" cy="432.6721" fill="#ADD1B2" rx="10" ry="10" style="stroke:#003366;stroke-width:1.0;"/><path d="M276.2281,436.9221 Q275.8219,437.1252 275.3688,437.2346 Q274.9156,437.3439 274.4313,437.3439 Q272.65,437.3439 271.7125,436.1877 Q270.7906,435.0158 270.7906,432.8127 Q270.7906,430.5939 271.7125,429.4377 Q272.65,428.2658 274.4313,428.2658 Q274.9156,428.2658 275.3688,428.3752 Q275.8375,428.4689 276.2281,428.6877 L276.2281,430.6096 Q275.7906,430.2033 275.3688,430.0158 Q274.9469,429.8127 274.5094,429.8127 Q273.5563,429.8127 273.0719,430.5783 Q272.5875,431.3283 272.5875,432.8127 Q272.5875,434.2814 273.0719,435.0314 Q273.5563,435.7814 274.5094,435.7814 Q274.9469,435.7814 275.3688,435.5939 Q275.7906,435.4064 276.2281,435.0002 L276.2281,436.9221 Z " fill="#000000"/><text fill="#000000" font-family="sans-serif" font-size="12" lengthAdjust="spacing" textLength="74" x="295.6" y="437.3281">Coordinateur</text><line style="stroke:#003366;stroke-width:1.0;" x1="247" x2="391" y1="450.8441" y2="450.8441"/><line style="stroke:#003366;stroke-width:1.0;" x1="247" x2="391" y1="458.8441" y2="458.8441"/><text fill="#000000" font-family="sans-serif" font-size="12" lengthAdjust="spacing" textLength="88" x="257" y="480.6722">+creerSession()</text><text fill="#000000" font-family="sans-serif" font-size="12" lengthAdjust="spacing" textLength="101" x="257" y="507.0163">+validerPlanning()</text><text fill="#000000" font-family="sans-serif" font-size="12" lengthAdjust="spacing" textLength="124" x="257" y="533.3604">+genererDocuments()</text></g><!--class Enseignant--><g id="elem_Enseignant"><rect codeLine="42" fill="#F2F4F7" height="184.0647" id="Enseignant" rx="2.5" ry="2.5" style="stroke:#003366;stroke-width:1.0;" width="164" x="427" y="388"/><ellipse cx="469" cy="406.1721" fill="#ADD1B2" rx="10" ry="10" style="stroke:#003366;stroke-width:1.0;"/><path d="M470.8281,410.4221 Q470.4219,410.6252 469.9688,410.7346 Q469.5156,410.8439 469.0313,410.8439 Q467.25,410.8439 466.3125,409.6877 Q465.3906,408.5158 465.3906,406.3127 Q465.3906,404.0939 466.3125,402.9377 Q467.25,401.7658 469.0313,401.7658 Q469.5156,401.7658 469.9688,401.8752 Q470.4375,401.9689 470.8281,402.1877 L470.8281,404.1096 Q470.3906,403.7033 469.9688,403.5158 Q469.5469,403.3127 469.1094,403.3127 Q468.1563,403.3127 467.6719,404.0783 Q467.1875,404.8283 467.1875,406.3127 Q467.1875,407.7814 467.6719,408.5314 Q468.1563,409.2814 469.1094,409.2814 Q469.5469,409.2814 469.9688,409.0939 Q470.3906,408.9064 470.8281,408.5002 L470.8281,410.4221 Z " fill="#000000"/><text fill="#000000" font-family="sans-serif" font-size="12" lengthAdjust="spacing" textLength="62" x="493" y="410.8281">Enseignant</text><line style="stroke:#003366;stroke-width:1.0;" x1="428" x2="590" y1="424.3441" y2="424.3441"/><text fill="#000000" font-family="sans-serif" font-size="12" lengthAdjust="spacing" textLength="75" x="438" y="446.1722">+string grade</text><text fill="#000000" font-family="sans-serif" font-size="12" lengthAdjust="spacing" textLength="95" x="438" y="472.5163">+string specialite</text><text fill="#000000" font-family="sans-serif" font-size="12" lengthAdjust="spacing" textLength="115" x="438" y="498.8604">+string departement</text><line style="stroke:#003366;stroke-width:1.0;" x1="428" x2="590" y1="511.3765" y2="511.3765"/><text fill="#000000" font-family="sans-serif" font-size="12" lengthAdjust="spacing" textLength="142" x="438" y="533.2045">+consulterConvocations()</text><text fill="#000000" font-family="sans-serif" font-size="12" lengthAdjust="spacing" textLength="108" x="438" y="559.5487">+getDisponibilites()</text></g><!--class Etudiant--><g id="elem_Etudiant"><rect codeLine="50" fill="#F2F4F7" height="131.3765" id="Etudiant" rx="2.5" ry="2.5" style="stroke:#003366;stroke-width:1.0;" width="101" x="626.5" y="414.5"/><ellipse cx="647.25" cy="432.6721" fill="#ADD1B2" rx="10" ry="10" style="stroke:#003366;stroke-width:1.0;"/><path d="M649.0781,436.9221 Q648.6719,437.1252 648.2188,437.2346 Q647.7656,437.3439 647.2813,437.3439 Q645.5,437.3439 644.5625,436.1877 Q643.6406,435.0158 643.6406,432.8127 Q643.6406,430.5939 644.5625,429.4377 Q645.5,428.2658 647.2813,428.2658 Q647.7656,428.2658 648.2188,428.3752 Q648.6875,428.4689 649.0781,428.6877 L649.0781,430.6096 Q648.6406,430.2033 648.2188,430.0158 Q647.7969,429.8127 647.3594,429.8127 Q646.4063,429.8127 645.9219,430.5783 Q645.4375,431.3283 645.4375,432.8127 Q645.4375,434.2814 645.9219,435.0314 Q646.4063,435.7814 647.3594,435.7814 Q647.7969,435.7814 648.2188,435.5939 Q648.6406,435.4064 649.0781,435.0002 L649.0781,436.9221 Z " fill="#000000"/><text fill="#000000" font-family="sans-serif" font-size="12" lengthAdjust="spacing" textLength="46" x="666.75" y="437.3281">Etudiant</text><line style="stroke:#003366;stroke-width:1.0;" x1="627.5" x2="726.5" y1="450.8441" y2="450.8441"/><text fill="#000000" font-family="sans-serif" font-size="12" lengthAdjust="spacing" textLength="62" x="637.5" y="472.6722">+string cne</text><text fill="#000000" font-family="sans-serif" font-size="12" lengthAdjust="spacing" textLength="74" x="637.5" y="499.0163">+string filiere</text><text fill="#000000" font-family="sans-serif" font-size="12" lengthAdjust="spacing" textLength="79" x="637.5" y="525.3604">+string niveau</text><line style="stroke:#003366;stroke-width:1.0;" x1="627.5" x2="726.5" y1="537.8765" y2="537.8765"/></g><!--class MembreJury--><g id="elem_MembreJury"><rect codeLine="56" fill="#F2F4F7" height="105.0323" id="MembreJury" rx="2.5" ry="2.5" style="stroke:#003366;stroke-width:1.0;" width="120" x="449" y="632"/><ellipse cx="467.95" cy="650.1721" fill="#ADD1B2" rx="10" ry="10" style="stroke:#003366;stroke-width:1.0;"/><path d="M469.7781,654.4221 Q469.3719,654.6252 468.9188,654.7346 Q468.4656,654.8439 467.9813,654.8439 Q466.2,654.8439 465.2625,653.6877 Q464.3406,652.5158 464.3406,650.3127 Q464.3406,648.0939 465.2625,646.9377 Q466.2,645.7658 467.9813,645.7658 Q468.4656,645.7658 468.9188,645.8752 Q469.3875,645.9689 469.7781,646.1877 L469.7781,648.1096 Q469.3406,647.7033 468.9188,647.5158 Q468.4969,647.3127 468.0594,647.3127 Q467.1063,647.3127 466.6219,648.0783 Q466.1375,648.8283 466.1375,650.3127 Q466.1375,651.7814 466.6219,652.5314 Q467.1063,653.2814 468.0594,653.2814 Q468.4969,653.2814 468.9188,653.0939 Q469.3406,652.9064 469.7781,652.5002 L469.7781,654.4221 Z " fill="#000000"/><text fill="#000000" font-family="sans-serif" font-size="12" lengthAdjust="spacing" textLength="69" x="487.05" y="654.8281">MembreJury</text><line style="stroke:#003366;stroke-width:1.0;" x1="450" x2="568" y1="668.3441" y2="668.3441"/><text fill="#000000" font-family="sans-serif" font-size="12" lengthAdjust="spacing" textLength="98" x="460" y="690.1722">+JuryRole roleJury</text><text fill="#000000" font-family="sans-serif" font-size="12" lengthAdjust="spacing" textLength="98" x="460" y="716.5163">+boolean present</text><line style="stroke:#003366;stroke-width:1.0;" x1="450" x2="568" y1="729.0323" y2="729.0323"/></g><!--reverse link Utilisateur to Administrateur--><g id="link_Utilisateur_Administrateur"><path codeLine="61" d="M302.5282,322.2414 C296.8382,328.9314 302.76,321.75 297,328 C269.7,357.65 257.65,359.65 229,388 C220.54,396.38 211.85,405.44 203.45,414.5 " fill="none" id="Utilisateur-backto-Administrateur" style="stroke:#003366;stroke-width:1.0;"/><polygon fill="none" points="314.19,308.53,297.9577,318.3541,307.0986,326.1286,314.19,308.53" style="stroke:#003366;stroke-width:1.0;"/></g><!--reverse link Utilisateur to Coordinateur--><g id="link_Utilisateur_Coordinateur"><path codeLine="62" d="M360.2229,345.3599 C350.8429,375.7599 346.82,388.8 339.01,414.13 " fill="none" id="Utilisateur-backto-Coordinateur" style="stroke:#003366;stroke-width:1.0;"/><polygon fill="none" points="365.53,328.16,354.4897,343.5908,365.9562,347.1289,365.53,328.16" style="stroke:#003366;stroke-width:1.0;"/></g><!--reverse link Utilisateur to Enseignant--><g id="link_Utilisateur_Enseignant"><path codeLine="63" d="M467.7824,345.3582 C474.1024,365.8182 475.08,369.02 480.9,387.89 " fill="none" id="Utilisateur-backto-Enseignant" style="stroke:#003366;stroke-width:1.0;"/><polygon fill="none" points="462.47,328.16,462.0497,347.129,473.5152,343.5874,462.47,328.16" style="stroke:#003366;stroke-width:1.0;"/></g><!--reverse link Utilisateur to Etudiant--><g id="link_Utilisateur_Etudiant"><path codeLine="64" d="M525.7276,291.3956 C556.9276,325.9256 578.97,351.38 609,388 C615.88,396.39 622.94,405.37 629.79,414.31 " fill="none" id="Utilisateur-backto-Etudiant" style="stroke:#003366;stroke-width:1.0;"/><polygon fill="none" points="513.66,278.04,521.2758,295.4182,530.1795,287.3731,513.66,278.04" style="stroke:#003366;stroke-width:1.0;"/></g><!--reverse link Enseignant to MembreJury--><g id="link_Enseignant_MembreJury"><path codeLine="65" d="M509,590.18 C509,610.65 509,613.68 509,631.86 " fill="none" id="Enseignant-backto-MembreJury" style="stroke:#003366;stroke-width:1.0;"/><polygon fill="none" points="509,572.18,503,590.18,515,590.18,509,572.18" style="stroke:#003366;stroke-width:1.0;"/></g><!--SRC=[RPBRZfim48RlUGhthbMxVOBU840LbK8GIQJUEdX08zbZP9jKgstVlUE4vPJbolvd-FpFuHDIgqS5meTN3T-7qUWa0HgDQAo68XxU4i5VcX_AgZoTc_HSN9gxb1sFJLvMYr1KfwByMQNL-N4zN_8oNlvDo5-ZUutO2LatnQdCYocxIUlws4IMUFpzEpriuLcQDnDENdrmiWsYrT9xSGceqSi0evlONmLI4AYc2sSZzOAisGg3WoSDZ4IzbOmDETJy4apwt1p7XqcxMZvB4cmBk_V_8RD4q0Pmd-_SRs9Wp1_hr9Sv9OTsJdfNZLNO8RZQsGurorpqezPK6IICvM_AxS61owmP0lYPmjmE-v4Z9wdrAg2WOuYhmQ5LTttcPvRD8MtfhGDcWFTeQORSf4R55hKauYxDUWyKpUIs7GrGsD0Bye0zIHxEsxR7lPCAjf8Ve4L-9Enq1ODq0I9yATIFEiGEqCssCh1Flp8KSlI39RnYf6qTXL7X1tvQshtAS-21x4J26yXneHt0N1t4HPzvyzR7NOcNtRxm3lfO2JFMU_pZxylBRjZFyVMmdgDBip-8JMKdgudS0qi5oNy0]--></g></svg>