<?xml version="1.0" encoding="us-ascii" standalone="no"?><svg xmlns="http://www.w3.org/2000/svg" xmlns:xlink="http://www.w3.org/1999/xlink" contentStyleType="text/css" height="735px" preserveAspectRatio="none" style="width:886px;height:735px;background:#FFFFFF;" version="1.1" viewBox="0 0 886 735" width="886px" zoomAndPan="magnify"><defs/><g><!--class SoutenanceStatus--><g id="elem_SoutenanceStatus"><rect codeLine="21" fill="#F2F4F7" height="219.6113" id="SoutenanceStatus" rx="2.5" ry="2.5" style="stroke:#003366;stroke-width:1.0;" width="153" x="7" y="7"/><ellipse cx="22" cy="23" fill="#EB937F" rx="11" ry="11" style="stroke:#003366;stroke-width:1.0;"/><path d="M26.1094,29 L18.3906,29 L18.3906,16.6094 L26.1094,16.6094 L26.1094,18.7656 L20.8438,18.7656 L20.8438,21.4375 L25.6094,21.4375 L25.6094,23.5938 L20.8438,23.5938 L20.8438,26.8438 L26.1094,26.8438 L26.1094,29 Z " fill="#000000"/><text fill="#000000" font-family="sans-serif" font-size="14" lengthAdjust="spacing" textLength="121" x="36" y="28.432">SoutenanceStatus</text><line style="stroke:#003366;stroke-width:1.0;" x1="8" x2="159" y1="39" y2="39"/><text fill="#000000" font-family="sans-serif" font-size="14" lengthAdjust="spacing" textLength="50" x="13" y="57.9659">+CREEE</text><text fill="#000000" font-family="sans-serif" font-size="14" lengthAdjust="spacing" textLength="76" x="13" y="77.0339">+PLANIFIEE</text><text fill="#000000" font-family="sans-serif" font-size="14" lengthAdjust="spacing" textLength="101" x="13" y="96.1018">+JURY_AFFECTE</text><text fill="#000000" font-family="sans-serif" font-size="14" lengthAdjust="spacing" textLength="95" x="13" y="115.1697">+CONVOQUEE</text><text fill="#000000" font-family="sans-serif" font-size="14" lengthAdjust="spacing" textLength="80" x="13" y="134.2376">+EN_COURS</text><text fill="#000000" font-family="sans-serif" font-size="14" lengthAdjust="spacing" textLength="78" x="13" y="153.3055">+TERMINEE</text><text fill="#000000" font-family="sans-serif" font-size="14" lengthAdjust="spacing" textLength="66" x="13" y="172.3734">+EVALUEE</text><text fill="#000000" font-family="sans-serif" font-size="14" lengthAdjust="spacing" textLength="78" x="13" y="191.4414">+CLOTUREE</text><text fill="#000000" font-family="sans-serif" font-size="14" lengthAdjust="spacing" textLength="72" x="13" y="210.5093">+ANNULEE</text><line style="stroke:#003366;stroke-width:1.0;" x1="8" x2="159" y1="218.6113" y2="218.6113"/></g><!--class DecisionEnum--><g id="elem_DecisionEnum"><rect codeLine="33" fill="#F2F4F7" height="105.2038" id="DecisionEnum" rx="2.5" ry="2.5" style="stroke:#003366;stroke-width:1.0;" width="209" x="195" y="64.5"/><ellipse cx="247.25" cy="80.5" fill="#EB937F" rx="11" ry="11" style="stroke:#003366;stroke-width:1.0;"/><path d="M251.3594,86.5 L243.6406,86.5 L243.6406,74.1094 L251.3594,74.1094 L251.3594,76.2656 L246.0938,76.2656 L246.0938,78.9375 L250.8594,78.9375 L250.8594,81.0938 L246.0938,81.0938 L246.0938,84.3438 L251.3594,84.3438 L251.3594,86.5 Z " fill="#000000"/><text fill="#000000" font-family="sans-serif" font-size="14" lengthAdjust="spacing" textLength="96" x="267.75" y="85.932">DecisionEnum</text><line style="stroke:#003366;stroke-width:1.0;" x1="196" x2="403" y1="96.5" y2="96.5"/><text fill="#000000" font-family="sans-serif" font-size="14" lengthAdjust="spacing" textLength="53" x="201" y="115.4659">+ADMIS</text><text fill="#000000" font-family="sans-serif" font-size="14" lengthAdjust="spacing" textLength="197" x="201" y="134.5339">+ADMIS_AVEC_CORRECTIONS</text><text fill="#000000" font-family="sans-serif" font-size="14" lengthAdjust="spacing" textLength="70" x="201" y="153.6018">+AJOURNE</text><line style="stroke:#003366;stroke-width:1.0;" x1="196" x2="403" y1="161.7038" y2="161.7038"/></g><!--class Soutenance--><g id="elem_Soutenance"><rect codeLine="39" fill="#F2F4F7" height="181.4754" id="Soutenance" rx="2.5" ry="2.5" style="stroke:#003366;stroke-width:1.0;" width="184" x="439.5" y="306"/><ellipse cx="487.75" cy="322" fill="#ADD1B2" rx="11" ry="11" style="stroke:#003366;stroke-width:1.0;"/><path d="M490.7188,327.6406 Q490.1406,327.9375 489.5,328.0781 Q488.8594,328.2344 488.1563,328.2344 Q485.6563,328.2344 484.3281,326.5938 Q483.0156,324.9375 483.0156,321.8125 Q483.0156,318.6875 484.3281,317.0313 Q485.6563,315.375 488.1563,315.375 Q488.8594,315.375 489.5,315.5313 Q490.1563,315.6875 490.7188,315.9844 L490.7188,318.7031 Q490.0938,318.125 489.5,317.8594 Q488.9063,317.5781 488.2813,317.5781 Q486.9375,317.5781 486.25,318.6563 Q485.5625,319.7188 485.5625,321.8125 Q485.5625,323.9063 486.25,324.9844 Q486.9375,326.0469 488.2813,326.0469 Q488.9063,326.0469 489.5,325.7813 Q490.0938,325.5 490.7188,324.9219 L490.7188,327.6406 Z " fill="#000000"/><text fill="#000000" font-family="sans-serif" font-size="14" lengthAdjust="spacing" textLength="79" x="508.25" y="327.432">Soutenance</text><line style="stroke:#003366;stroke-width:1.0;" x1="440.5" x2="622.5" y1="338" y2="338"/><text fill="#000000" font-family="sans-serif" font-size="14" lengthAdjust="spacing" textLength="43" x="445.5" y="356.9659">+int id</text><text fill="#000000" font-family="sans-serif" font-size="14" lengthAdjust="spacing" textLength="127" x="445.5" y="376.0339">+date datePassage</text><text fill="#000000" font-family="sans-serif" font-size="14" lengthAdjust="spacing" textLength="123" x="445.5" y="395.1018">+time heureDebut</text><text fill="#000000" font-family="sans-serif" font-size="14" lengthAdjust="spacing" textLength="125" x="445.5" y="414.1697">+int dureeMinutes</text><text fill="#000000" font-family="sans-serif" font-size="14" lengthAdjust="spacing" textLength="172" x="445.5" y="433.2376">+SoutenanceStatus statut</text><line style="stroke:#003366;stroke-width:1.0;" x1="440.5" x2="622.5" y1="441.3396" y2="441.3396"/><text fill="#000000" font-family="sans-serif" font-size="14" lengthAdjust="spacing" textLength="73" x="445.5" y="460.3055">+planifier()</text><text fill="#000000" font-family="sans-serif" font-size="14" lengthAdjust="spacing" textLength="69" x="445.5" y="479.3734">+annuler()</text></g><!--class Salle--><g id="elem_Salle"><rect codeLine="49" fill="#F2F4F7" height="162.4075" id="Salle" rx="2.5" ry="2.5" style="stroke:#003366;stroke-width:1.0;" width="161" x="188" y="566"/><ellipse cx="248.25" cy="582" fill="#ADD1B2" rx="11" ry="11" style="stroke:#003366;stroke-width:1.0;"/><path d="M251.2188,587.6406 Q250.6406,587.9375 250,588.0781 Q249.3594,588.2344 248.6563,588.2344 Q246.1563,588.2344 244.8281,586.5938 Q243.5156,584.9375 243.5156,581.8125 Q243.5156,578.6875 244.8281,577.0313 Q246.1563,575.375 248.6563,575.375 Q249.3594,575.375 250,575.5313 Q250.6563,575.6875 251.2188,575.9844 L251.2188,578.7031 Q250.5938,578.125 250,577.8594 Q249.4063,577.5781 248.7813,577.5781 Q247.4375,577.5781 246.75,578.6563 Q246.0625,579.7188 246.0625,581.8125 Q246.0625,583.9063 246.75,584.9844 Q247.4375,586.0469 248.7813,586.0469 Q249.4063,586.0469 250,585.7813 Q250.5938,585.5 251.2188,584.9219 L251.2188,587.6406 Z " fill="#000000"/><text fill="#000000" font-family="sans-serif" font-size="14" lengthAdjust="spacing" textLength="32" x="268.75" y="587.432">Salle</text><line style="stroke:#003366;stroke-width:1.0;" x1="189" x2="348" y1="598" y2="598"/><text fill="#000000" font-family="sans-serif" font-size="14" lengthAdjust="spacing" textLength="43" x="194" y="616.9659">+int id</text><text fill="#000000" font-family="sans-serif" font-size="14" lengthAdjust="spacing" textLength="82" x="194" y="636.0339">+string nom</text><text fill="#000000" font-family="sans-serif" font-size="14" lengthAdjust="spacing" textLength="113" x="194" y="655.1018">+string batiment</text><text fill="#000000" font-family="sans-serif" font-size="14" lengthAdjust="spacing" textLength="86" x="194" y="674.1697">+int capacite</text><text fill="#000000" font-family="sans-serif" font-size="14" lengthAdjust="spacing" textLength="137" x="194" y="693.2376">+boolean disponible</text><line style="stroke:#003366;stroke-width:1.0;" x1="189" x2="348" y1="701.3396" y2="701.3396"/><text fill="#000000" font-family="sans-serif" font-size="14" lengthAdjust="spacing" textLength="149" x="194" y="720.3055">+verifierDisponibilite()</text></g><!--class MembreJury--><g id="elem_MembreJury"><rect codeLine="58" fill="#F2F4F7" height="48" id="MembreJury" rx="2.5" ry="2.5" style="stroke:#003366;stroke-width:1.0;" width="115" x="384" y="623"/><ellipse cx="399" cy="639" fill="#ADD1B2" rx="11" ry="11" style="stroke:#003366;stroke-width:1.0;"/><path d="M401.9688,644.6406 Q401.3906,644.9375 400.75,645.0781 Q400.1094,645.2344 399.4063,645.2344 Q396.9063,645.2344 395.5781,643.5938 Q394.2656,641.9375 394.2656,638.8125 Q394.2656,635.6875 395.5781,634.0313 Q396.9063,632.375 399.4063,632.375 Q400.1094,632.375 400.75,632.5313 Q401.4063,632.6875 401.9688,632.9844 L401.9688,635.7031 Q401.3438,635.125 400.75,634.8594 Q400.1563,634.5781 399.5313,634.5781 Q398.1875,634.5781 397.5,635.6563 Q396.8125,636.7188 396.8125,638.8125 Q396.8125,640.9063 397.5,641.9844 Q398.1875,643.0469 399.5313,643.0469 Q400.1563,643.0469 400.75,642.7813 Q401.3438,642.5 401.9688,641.9219 L401.9688,644.6406 Z " fill="#000000"/><text fill="#000000" font-family="sans-serif" font-size="14" lengthAdjust="spacing" textLength="83" x="413" y="644.432">MembreJury</text><line style="stroke:#003366;stroke-width:1.0;" x1="385" x2="498" y1="655" y2="655"/><line style="stroke:#003366;stroke-width:1.0;" x1="385" x2="498" y1="663" y2="663"/></g><!--class Evaluation--><g id="elem_Evaluation"><rect codeLine="62" fill="#F2F4F7" height="143.3396" id="Evaluation" rx="2.5" ry="2.5" style="stroke:#003366;stroke-width:1.0;" width="176" x="534.5" y="575.5"/><ellipse cx="583.25" cy="591.5" fill="#ADD1B2" rx="11" ry="11" style="stroke:#003366;stroke-width:1.0;"/><path d="M586.2188,597.1406 Q585.6406,597.4375 585,597.5781 Q584.3594,597.7344 583.6563,597.7344 Q581.1563,597.7344 579.8281,596.0938 Q578.5156,594.4375 578.5156,591.3125 Q578.5156,588.1875 579.8281,586.5313 Q581.1563,584.875 583.6563,584.875 Q584.3594,584.875 585,585.0313 Q585.6563,585.1875 586.2188,585.4844 L586.2188,588.2031 Q585.5938,587.625 585,587.3594 Q584.4063,587.0781 583.7813,587.0781 Q582.4375,587.0781 581.75,588.1563 Q581.0625,589.2188 581.0625,591.3125 Q581.0625,593.4063 581.75,594.4844 Q582.4375,595.5469 583.7813,595.5469 Q584.4063,595.5469 585,595.2813 Q585.5938,595 586.2188,594.4219 L586.2188,597.1406 Z " fill="#000000"/><text fill="#000000" font-family="sans-serif" font-size="14" lengthAdjust="spacing" textLength="70" x="603.75" y="596.932">Evaluation</text><line style="stroke:#003366;stroke-width:1.0;" x1="535.5" x2="709.5" y1="607.5" y2="607.5"/><text fill="#000000" font-family="sans-serif" font-size="14" lengthAdjust="spacing" textLength="43" x="540.5" y="626.4659">+int id</text><text fill="#000000" font-family="sans-serif" font-size="14" lengthAdjust="spacing" textLength="72" x="540.5" y="645.5339">+float note</text><text fill="#000000" font-family="sans-serif" font-size="14" lengthAdjust="spacing" textLength="138" x="540.5" y="664.6018">+string observations</text><text fill="#000000" font-family="sans-serif" font-size="14" lengthAdjust="spacing" textLength="164" x="540.5" y="683.6697">+DecisionEnum decision</text><text fill="#000000" font-family="sans-serif" font-size="14" lengthAdjust="spacing" textLength="114" x="540.5" y="702.7376">+boolean validee</text><line style="stroke:#003366;stroke-width:1.0;" x1="535.5" x2="709.5" y1="710.8396" y2="710.8396"/></g><!--class PlanningSession--><g id="elem_PlanningSession"><rect codeLine="70" fill="#F2F4F7" height="143.3396" id="PlanningSession" rx="2.5" ry="2.5" style="stroke:#003366;stroke-width:1.0;" width="184" x="439.5" y="45.5"/><ellipse cx="472.95" cy="61.5" fill="#ADD1B2" rx="11" ry="11" style="stroke:#003366;stroke-width:1.0;"/><path d="M475.9188,67.1406 Q475.3406,67.4375 474.7,67.5781 Q474.0594,67.7344 473.3563,67.7344 Q470.8563,67.7344 469.5281,66.0938 Q468.2156,64.4375 468.2156,61.3125 Q468.2156,58.1875 469.5281,56.5313 Q470.8563,54.875 473.3563,54.875 Q474.0594,54.875 474.7,55.0313 Q475.3563,55.1875 475.9188,55.4844 L475.9188,58.2031 Q475.2938,57.625 474.7,57.3594 Q474.1063,57.0781 473.4813,57.0781 Q472.1375,57.0781 471.45,58.1563 Q470.7625,59.2188 470.7625,61.3125 Q470.7625,63.4063 471.45,64.4844 Q472.1375,65.5469 473.4813,65.5469 Q474.1063,65.5469 474.7,65.2813 Q475.2938,65 475.9188,64.4219 L475.9188,67.1406 Z " fill="#000000"/><text fill="#000000" font-family="sans-serif" font-size="14" lengthAdjust="spacing" textLength="111" x="491.05" y="66.932">PlanningSession</text><line style="stroke:#003366;stroke-width:1.0;" x1="440.5" x2="622.5" y1="77.5" y2="77.5"/><text fill="#000000" font-family="sans-serif" font-size="14" lengthAdjust="spacing" textLength="43" x="445.5" y="96.4659">+int id</text><text fill="#000000" font-family="sans-serif" font-size="14" lengthAdjust="spacing" textLength="93" x="445.5" y="115.5339">+string libelle</text><text fill="#000000" font-family="sans-serif" font-size="14" lengthAdjust="spacing" textLength="113" x="445.5" y="134.6018">+date dateDebut</text><text fill="#000000" font-family="sans-serif" font-size="14" lengthAdjust="spacing" textLength="92" x="445.5" y="153.6697">+date dateFin</text><text fill="#000000" font-family="sans-serif" font-size="14" lengthAdjust="spacing" textLength="172" x="445.5" y="172.7376">+SoutenanceStatus statut</text><line style="stroke:#003366;stroke-width:1.0;" x1="440.5" x2="622.5" y1="180.8396" y2="180.8396"/></g><!--class Convocation--><g id="elem_Convocation"><rect codeLine="78" fill="#F2F4F7" height="124.2717" id="Convocation" rx="2.5" ry="2.5" style="stroke:#003366;stroke-width:1.0;" width="133" x="746" y="585"/><ellipse cx="769.55" cy="601" fill="#ADD1B2" rx="11" ry="11" style="stroke:#003366;stroke-width:1.0;"/><path d="M772.5188,606.6406 Q771.9406,606.9375 771.3,607.0781 Q770.6594,607.2344 769.9563,607.2344 Q767.4563,607.2344 766.1281,605.5938 Q764.8156,603.9375 764.8156,600.8125 Q764.8156,597.6875 766.1281,596.0313 Q767.4563,594.375 769.9563,594.375 Q770.6594,594.375 771.3,594.5313 Q771.9563,594.6875 772.5188,594.9844 L772.5188,597.7031 Q771.8938,597.125 771.3,596.8594 Q770.7063,596.5781 770.0813,596.5781 Q768.7375,596.5781 768.05,597.6563 Q767.3625,598.7188 767.3625,600.8125 Q767.3625,602.9063 768.05,603.9844 Q768.7375,605.0469 770.0813,605.0469 Q770.7063,605.0469 771.3,604.7813 Q771.8938,604.5 772.5188,603.9219 L772.5188,606.6406 Z " fill="#000000"/><text fill="#000000" font-family="sans-serif" font-size="14" lengthAdjust="spacing" textLength="82" x="785.45" y="606.432">Convocation</text><line style="stroke:#003366;stroke-width:1.0;" x1="747" x2="878" y1="617" y2="617"/><text fill="#000000" font-family="sans-serif" font-size="14" lengthAdjust="spacing" textLength="43" x="752" y="635.9659">+int id</text><text fill="#000000" font-family="sans-serif" font-size="14" lengthAdjust="spacing" textLength="81" x="752" y="655.0339">+string type</text><text fill="#000000" font-family="sans-serif" font-size="14" lengthAdjust="spacing" textLength="121" x="752" y="674.1018">+boolean envoyee</text><line style="stroke:#003366;stroke-width:1.0;" x1="747" x2="878" y1="682.2038" y2="682.2038"/><text fill="#000000" font-family="sans-serif" font-size="14" lengthAdjust="spacing" textLength="70" x="752" y="701.1697">+generer()</text></g><!--link PlanningSession to Soutenance--><g id="link_PlanningSession_Soutenance"><path codeLine="85" d="M531.5,188.74 C531.5,224.39 531.5,262 531.5,299.96 " fill="none" id="PlanningSession-to-Soutenance" style="stroke:#003366;stroke-width:1.0;"/><polygon fill="#003366" points="531.5,305.96,535.5,296.96,531.5,300.96,527.5,296.96,531.5,305.96" style="stroke:#003366;stroke-width:1.0;"/><text fill="#000000" font-family="sans-serif" font-size="13" lengthAdjust="spacing" textLength="50" x="532.5" y="271.897">contient</text></g><!--link Soutenance to Salle--><g id="link_Soutenance_Salle"><path codeLine="86" d="M439.37,465.94 C419.37,482.02 398.75,499.56 380.5,517 C364.74,532.06 352.7756,544.6162 338.0456,561.2662 " fill="none" id="Soutenance-to-Salle" style="stroke:#003366;stroke-width:1.0;"/><polygon fill="#003366" points="334.07,565.76,343.0293,561.6697,337.383,562.0151,337.0375,556.3689,334.07,565.76" style="stroke:#003366;stroke-width:1.0;"/><text fill="#000000" font-family="sans-serif" font-size="13" lengthAdjust="spacing" textLength="94" x="381.5" y="531.897">se d&#233;roule dans</text></g><!--link Soutenance to MembreJury--><g id="link_Soutenance_MembreJury"><path codeLine="87" d="M499.01,487.21 C481.39,535.87 463.0225,586.5684 451.8825,617.3384 " fill="none" id="Soutenance-to-MembreJury" style="stroke:#003366;stroke-width:1.0;"/><polygon fill="#003366" points="449.84,622.98,456.6649,615.8792,451.5421,618.2786,449.1427,613.1559,449.84,622.98" style="stroke:#003366;stroke-width:1.0;"/><text fill="#000000" font-family="sans-serif" font-size="13" lengthAdjust="spacing" textLength="80" x="487.5" y="531.897">compos&#233;e de</text></g><!--link Soutenance to Evaluation--><g id="link_Soutenance_Evaluation"><path codeLine="88" d="M565.46,487.16 C569.21,497.22 572.95,507.32 576.5,517 C583.41,535.86 588.7641,550.6788 595.5241,569.6288 " fill="none" id="Soutenance-to-Evaluation" style="stroke:#003366;stroke-width:1.0;"/><polygon fill="#003366" points="597.54,575.28,598.2836,565.4592,595.86,570.5707,590.7486,568.1472,597.54,575.28" style="stroke:#003366;stroke-width:1.0;"/><text fill="#000000" font-family="sans-serif" font-size="13" lengthAdjust="spacing" textLength="50" x="584.5" y="531.897">poss&#232;de</text></g><!--link Soutenance to Convocation--><g id="link_Soutenance_Convocation"><path codeLine="89" d="M623.98,475.52 C656.93,503.71 694.14,535.99 727.5,566 C734.28,572.1 736.8963,574.4548 743.8663,580.9048 " fill="none" id="Soutenance-to-Convocation" style="stroke:#003366;stroke-width:1.0;"/><polygon fill="#003366" points="748.27,584.98,744.3812,575.9314,744.6002,581.584,738.9476,581.803,748.27,584.98" style="stroke:#003366;stroke-width:1.0;"/><text fill="#000000" font-family="sans-serif" font-size="13" lengthAdjust="spacing" textLength="42" x="692.5" y="531.897">g&#233;n&#232;re</text></g><!--SRC=[XLJjQjim5FsVfn3ipyOewzRHGIW5px5PIk9aJbBOhoBRjwceSXKaEIKRVP_sEV9YkrPbHqtRpP14zzolS- -HSsRiLi9vZp6jb6L_wC1Ogj36IYhDtXsxnw4ZWT2X9oUdfnqwln7bBO8nx3DXz_Gf9IVhgTftNjukjQgnyjdfb_Hh-itvVW2lGB-82Eg_pkKfB_2bxd6-AQygWKjswhbmhTMTv_BQ3FUziqz-2-PMu9fhlcBcXbVghYbppQM1mED6YwpLegWj34k5C_4Rs76l1rYls4mHYXnBc5bkwtO97rcS9qdYpzDHb0tJOMTVBF9VLr6Q9l6yXU99TZdvkUX2akmgdYpocJVdIJuUPdllPJJQnyQZoNoHTsQKPOiHMVUUuW1AOOJ2f35QUj5WF9o5vwleCecfPvuJg-4awvmNH2DprPvKta_S5HDecQYyKN4BxcjAqNm97hPY1Um6QWq3e4q6cHLXC1P8POs7NspLD3zjqbfo5DS2zFiF7k68jNJsdYQNyWs6XiGafL6jdWC5RqXYoAtaQruAsmvHA2M18wk4MIiKXMmT6z2EqS0xXAIaaCuOLeM6YrflYTCUJZPSrjHMuUjKhwNYbfXs33nLLHZG6vVOxkoPp9Kt3dXJDr41xFjFQPL81MVqDhz9mlUKeW3PJTp97ChPWQd0_qZPKOWLRbJvZntuzdQxFfG1A7CBBRe41DrUWiF1ZexEmvlRP_GYMz687Q0koDsRFZCqoEwH_gLaCn5j-I0k4BGfjbehitkaK3WC32JkCueokuUNGU4I-covUyJTWuRUNm00]--></g></svg>