<?xml version="1.0" encoding="us-ascii" standalone="no"?><svg xmlns="http://www.w3.org/2000/svg" xmlns:xlink="http://www.w3.org/1999/xlink" contentStyleType="text/css" height="799px" preserveAspectRatio="none" style="width:455px;height:799px;background:#FFFFFF;" version="1.1" viewBox="0 0 455 799" width="455px" zoomAndPan="magnify"><defs/><g><!--class ProjetType--><g id="elem_ProjetType"><rect codeLine="3" fill="#F2F4F7" height="131.3765" id="ProjetType" rx="2.5" ry="2.5" style="stroke:#003366;stroke-width:1.0;" width="100" x="12" y="38.5"/><ellipse cx="26" cy="56.6721" fill="#EB937F" rx="10" ry="10" style="stroke:#003366;stroke-width:1.0;"/><path d="M28.4375,61.1721 L22.9844,61.1721 L22.9844,52.4221 L28.4375,52.4221 L28.4375,53.9533 L24.7188,53.9533 L24.7188,55.8283 L28.0781,55.8283 L28.0781,57.3596 L24.7188,57.3596 L24.7188,59.6408 L28.4375,59.6408 L28.4375,61.1721 Z " fill="#000000"/><text fill="#000000" font-family="sans-serif" font-size="12" lengthAdjust="spacing" textLength="60" x="44" y="61.3281">ProjetType</text><line style="stroke:#003366;stroke-width:1.0;" x1="13" x2="111" y1="74.8441" y2="74.8441"/><text fill="#000000" font-family="sans-serif" font-size="12" lengthAdjust="spacing" textLength="20" x="23" y="96.6722">PFE</text><text fill="#000000" font-family="sans-serif" font-size="12" lengthAdjust="spacing" textLength="56" x="23" y="123.0163">MEMOIRE</text><text fill="#000000" font-family="sans-serif" font-size="12" lengthAdjust="spacing" textLength="38" x="23" y="149.3604">STAGE</text><line style="stroke:#003366;stroke-width:1.0;" x1="13" x2="111" y1="161.8765" y2="161.8765"/></g><!--class Projet--><g id="elem_Projet"><rect codeLine="9" fill="#F2F4F7" height="184.0647" id="Projet" rx="2.5" ry="2.5" style="stroke:#003366;stroke-width:1.0;" width="126" x="219" y="284"/><ellipse cx="256.85" cy="302.1721" fill="#ADD1B2" rx="10" ry="10" style="stroke:#003366;stroke-width:1.0;"/><path d="M258.6781,306.4221 Q258.2719,306.6252 257.8188,306.7346 Q257.3656,306.8439 256.8813,306.8439 Q255.1,306.8439 254.1625,305.6877 Q253.2406,304.5158 253.2406,302.3127 Q253.2406,300.0939 254.1625,298.9377 Q255.1,297.7658 256.8813,297.7658 Q257.3656,297.7658 257.8188,297.8752 Q258.2875,297.9689 258.6781,298.1877 L258.6781,300.1096 Q258.2406,299.7033 257.8188,299.5158 Q257.3969,299.3127 256.9594,299.3127 Q256.0063,299.3127 255.5219,300.0783 Q255.0375,300.8283 255.0375,302.3127 Q255.0375,303.7814 255.5219,304.5314 Q256.0063,305.2814 256.9594,305.2814 Q257.3969,305.2814 257.8188,305.0939 Q258.2406,304.9064 258.6781,304.5002 L258.6781,306.4221 Z " fill="#000000"/><text fill="#000000" font-family="sans-serif" font-size="12" lengthAdjust="spacing" textLength="33" x="280.15" y="306.8281">Projet</text><line style="stroke:#003366;stroke-width:1.0;" x1="220" x2="344" y1="320.3441" y2="320.3441"/><text fill="#000000" font-family="sans-serif" font-size="12" lengthAdjust="spacing" textLength="34" x="230" y="342.1722">+int id</text><text fill="#000000" font-family="sans-serif" font-size="12" lengthAdjust="spacing" textLength="65" x="230" y="368.5163">+string titre</text><text fill="#000000" font-family="sans-serif" font-size="12" lengthAdjust="spacing" textLength="104" x="230" y="394.8604">+string description</text><text fill="#000000" font-family="sans-serif" font-size="12" lengthAdjust="spacing" textLength="94" x="230" y="421.2045">+ProjetType type</text><text fill="#000000" font-family="sans-serif" font-size="12" lengthAdjust="spacing" textLength="74" x="230" y="447.5487">+string statut</text><line style="stroke:#003366;stroke-width:1.0;" x1="220" x2="344" y1="460.0647" y2="460.0647"/></g><!--class Etudiant--><g id="elem_Etudiant"><rect codeLine="17" fill="#F2F4F7" height="131.3765" id="Etudiant" rx="2.5" ry="2.5" style="stroke:#003366;stroke-width:1.0;" width="101" x="147.5" y="38.5"/><ellipse cx="168.25" cy="56.6721" fill="#ADD1B2" rx="10" ry="10" style="stroke:#003366;stroke-width:1.0;"/><path d="M170.0781,60.9221 Q169.6719,61.1252 169.2188,61.2346 Q168.7656,61.3439 168.2813,61.3439 Q166.5,61.3439 165.5625,60.1877 Q164.6406,59.0158 164.6406,56.8127 Q164.6406,54.5939 165.5625,53.4377 Q166.5,52.2658 168.2813,52.2658 Q168.7656,52.2658 169.2188,52.3752 Q169.6875,52.4689 170.0781,52.6877 L170.0781,54.6096 Q169.6406,54.2033 169.2188,54.0158 Q168.7969,53.8127 168.3594,53.8127 Q167.4063,53.8127 166.9219,54.5783 Q166.4375,55.3283 166.4375,56.8127 Q166.4375,58.2814 166.9219,59.0314 Q167.4063,59.7814 168.3594,59.7814 Q168.7969,59.7814 169.2188,59.5939 Q169.6406,59.4064 170.0781,59.0002 L170.0781,60.9221 Z " fill="#000000"/><text fill="#000000" font-family="sans-serif" font-size="12" lengthAdjust="spacing" textLength="46" x="187.75" y="61.3281">Etudiant</text><line style="stroke:#003366;stroke-width:1.0;" x1="148.5" x2="247.5" y1="74.8441" y2="74.8441"/><text fill="#000000" font-family="sans-serif" font-size="12" lengthAdjust="spacing" textLength="62" x="158.5" y="96.6722">+string cne</text><text fill="#000000" font-family="sans-serif" font-size="12" lengthAdjust="spacing" textLength="74" x="158.5" y="123.0163">+string filiere</text><text fill="#000000" font-family="sans-serif" font-size="12" lengthAdjust="spacing" textLength="79" x="158.5" y="149.3604">+string niveau</text><line style="stroke:#003366;stroke-width:1.0;" x1="148.5" x2="247.5" y1="161.8765" y2="161.8765"/></g><!--class Enseignant--><g id="elem_Enseignant"><rect codeLine="23" fill="#F2F4F7" height="184.0647" id="Enseignant" rx="2.5" ry="2.5" style="stroke:#003366;stroke-width:1.0;" width="164" x="284" y="12"/><ellipse cx="326" cy="30.1721" fill="#ADD1B2" rx="10" ry="10" style="stroke:#003366;stroke-width:1.0;"/><path d="M327.8281,34.4221 Q327.4219,34.6252 326.9688,34.7346 Q326.5156,34.8439 326.0313,34.8439 Q324.25,34.8439 323.3125,33.6877 Q322.3906,32.5158 322.3906,30.3127 Q322.3906,28.0939 323.3125,26.9377 Q324.25,25.7658 326.0313,25.7658 Q326.5156,25.7658 326.9688,25.8752 Q327.4375,25.9689 327.8281,26.1877 L327.8281,28.1096 Q327.3906,27.7033 326.9688,27.5158 Q326.5469,27.3127 326.1094,27.3127 Q325.1563,27.3127 324.6719,28.0783 Q324.1875,28.8283 324.1875,30.3127 Q324.1875,31.7814 324.6719,32.5314 Q325.1563,33.2814 326.1094,33.2814 Q326.5469,33.2814 326.9688,33.0939 Q327.3906,32.9064 327.8281,32.5002 L327.8281,34.4221 Z " fill="#000000"/><text fill="#000000" font-family="sans-serif" font-size="12" lengthAdjust="spacing" textLength="62" x="350" y="34.8281">Enseignant</text><line style="stroke:#003366;stroke-width:1.0;" x1="285" x2="447" y1="48.3441" y2="48.3441"/><text fill="#000000" font-family="sans-serif" font-size="12" lengthAdjust="spacing" textLength="75" x="295" y="70.1722">+string grade</text><text fill="#000000" font-family="sans-serif" font-size="12" lengthAdjust="spacing" textLength="95" x="295" y="96.5163">+string specialite</text><text fill="#000000" font-family="sans-serif" font-size="12" lengthAdjust="spacing" textLength="115" x="295" y="122.8604">+string departement</text><line style="stroke:#003366;stroke-width:1.0;" x1="285" x2="447" y1="135.3765" y2="135.3765"/><text fill="#000000" font-family="sans-serif" font-size="12" lengthAdjust="spacing" textLength="142" x="295" y="157.2045">+consulterConvocations()</text><text fill="#000000" font-family="sans-serif" font-size="12" lengthAdjust="spacing" textLength="108" x="295" y="183.5487">+getDisponibilites()</text></g><!--class Soutenance--><g id="elem_Soutenance"><rect codeLine="31" fill="#F2F4F7" height="236.7529" id="Soutenance" rx="2.5" ry="2.5" style="stroke:#003366;stroke-width:1.0;" width="165" x="199.5" y="556"/><ellipse cx="240.05" cy="574.1721" fill="#ADD1B2" rx="10" ry="10" style="stroke:#003366;stroke-width:1.0;"/><path d="M241.8781,578.4221 Q241.4719,578.6252 241.0188,578.7346 Q240.5656,578.8439 240.0813,578.8439 Q238.3,578.8439 237.3625,577.6877 Q236.4406,576.5158 236.4406,574.3127 Q236.4406,572.0939 237.3625,570.9377 Q238.3,569.7658 240.0813,569.7658 Q240.5656,569.7658 241.0188,569.8752 Q241.4875,569.9689 241.8781,570.1877 L241.8781,572.1096 Q241.4406,571.7033 241.0188,571.5158 Q240.5969,571.3127 240.1594,571.3127 Q239.2063,571.3127 238.7219,572.0783 Q238.2375,572.8283 238.2375,574.3127 Q238.2375,575.7814 238.7219,576.5314 Q239.2063,577.2814 240.1594,577.2814 Q240.5969,577.2814 241.0188,577.0939 Q241.4406,576.9064 241.8781,576.5002 L241.8781,578.4221 Z " fill="#000000"/><text fill="#000000" font-family="sans-serif" font-size="12" lengthAdjust="spacing" textLength="66" x="263.95" y="578.8281">Soutenance</text><line style="stroke:#003366;stroke-width:1.0;" x1="200.5" x2="363.5" y1="592.3441" y2="592.3441"/><text fill="#000000" font-family="sans-serif" font-size="12" lengthAdjust="spacing" textLength="34" x="210.5" y="614.1722">+int id</text><text fill="#000000" font-family="sans-serif" font-size="12" lengthAdjust="spacing" textLength="107" x="210.5" y="640.5163">+date datePassage</text><text fill="#000000" font-family="sans-serif" font-size="12" lengthAdjust="spacing" textLength="102" x="210.5" y="666.8604">+time heureDebut</text><text fill="#000000" font-family="sans-serif" font-size="12" lengthAdjust="spacing" textLength="102" x="210.5" y="693.2045">+int dureeMinutes</text><text fill="#000000" font-family="sans-serif" font-size="12" lengthAdjust="spacing" textLength="143" x="210.5" y="719.5487">+SoutenanceStatus statut</text><line style="stroke:#003366;stroke-width:1.0;" x1="200.5" x2="363.5" y1="732.0647" y2="732.0647"/><text fill="#000000" font-family="sans-serif" font-size="12" lengthAdjust="spacing" textLength="61" x="210.5" y="753.8928">+planifier()</text><text fill="#000000" font-family="sans-serif" font-size="12" lengthAdjust="spacing" textLength="58" x="210.5" y="780.2369">+annuler()</text></g><!--link Etudiant to Projet--><g id="link_Etudiant_Projet"><path codeLine="41" d="M218.12,169.67 C228.75,203.84 241.97,246.34 253.63,283.8 " fill="none" id="Etudiant-Projet" style="stroke:#003366;stroke-width:1.0;"/><text fill="#003366" font-family="sans-serif" font-size="12" lengthAdjust="spacing" textLength="47" x="249" y="244.8281">poss&#232;de</text><text fill="#003366" font-family="sans-serif" font-size="12" lengthAdjust="spacing" textLength="20" x="193.648" y="195.6093">1..*</text><text fill="#003366" font-family="sans-serif" font-size="12" lengthAdjust="spacing" textLength="7" x="238.8071" y="267.5844">1</text></g><!--link Enseignant to Projet--><g id="link_Enseignant_Projet"><path codeLine="42" d="M337.68,196.03 C328.87,224.36 319.15,255.58 310.34,283.9 " fill="none" id="Enseignant-Projet" style="stroke:#003366;stroke-width:1.0;"/><text fill="#003366" font-family="sans-serif" font-size="12" lengthAdjust="spacing" textLength="46" x="332" y="244.8281">encadre</text><text fill="#003366" font-family="sans-serif" font-size="12" lengthAdjust="spacing" textLength="20" x="309.3633" y="221.9101">1..*</text><text fill="#003366" font-family="sans-serif" font-size="12" lengthAdjust="spacing" textLength="7" x="299.921" y="267.3641">*</text></g><!--link Projet to Soutenance--><g id="link_Projet_Soutenance"><path codeLine="43" d="M282,468.38 C282,496.03 282,526.79 282,555.9 " fill="none" id="Projet-Soutenance" style="stroke:#003366;stroke-width:1.0;"/><text fill="#003366" font-family="sans-serif" font-size="12" lengthAdjust="spacing" textLength="72" x="288" y="516.8281">fait l'objet de</text><text fill="#003366" font-family="sans-serif" font-size="12" lengthAdjust="spacing" textLength="7" x="269.3758" y="493.9572">1</text><text fill="#003366" font-family="sans-serif" font-size="12" lengthAdjust="spacing" textLength="7" x="269.4555" y="539.3164">1</text></g><!--SRC=[RLBDJW8n4BxlKrGkAWOIhzoChCO3aGWlCBJ3EgOxRTef2J6-Z-_XYzc50YlIGtzclldcwzTU4MkR3AeeMujZdrfRLSYfLVFWFb2MMu_gir9vp9_gtJghPwylR_lzOldmN5TVLQKjn5Xg2lvE4OiYKmvH0d6ZX2JWtv31g0Dv8SSbqUijUVeBZmAIvDIqbcG8-DIsu3IV5Qx94futPzeWf1uRHwI6B_0r0Sov58-Qm9Bykv678DWYIqbenp5PmV3eUECqT9UDDxSbsw1CANh7jAAEhSiS5IrS4io2D5usre3WRffdD3G7AK8jgdTC0QUuIjAhD3c6C-9C6qlur6FHkHiF9k-ptWBJEdjt50pCoUxEMURn0GRtu_5me4QZl1iSFiD4UHVZptVshkTj3phiGP4rcFn49T3H5BQU2nEr1X9bhzsg0sNYNm00]--></g></svg>