<?xml version="1.0" encoding="us-ascii" standalone="no"?><svg xmlns="http://www.w3.org/2000/svg" xmlns:xlink="http://www.w3.org/1999/xlink" contentStyleType="text/css" height="931px" preserveAspectRatio="none" style="width:809px;height:931px;background:#FFFFFF;" version="1.1" viewBox="0 0 809 931" width="809px" zoomAndPan="magnify"><defs/><g><!--class SoutenanceStatus--><g id="elem_SoutenanceStatus"><rect codeLine="3" fill="#F2F4F7" height="289.4411" id="SoutenanceStatus" rx="2.5" ry="2.5" style="stroke:#003366;stroke-width:1.0;" width="141" x="12" y="12"/><ellipse cx="26" cy="30.1721" fill="#EB937F" rx="10" ry="10" style="stroke:#003366;stroke-width:1.0;"/><path d="M28.4375,34.6721 L22.9844,34.6721 L22.9844,25.9221 L28.4375,25.9221 L28.4375,27.4533 L24.7188,27.4533 L24.7188,29.3283 L28.0781,29.3283 L28.0781,30.8596 L24.7188,30.8596 L24.7188,33.1408 L28.4375,33.1408 L28.4375,34.6721 Z " fill="#000000"/><text fill="#000000" font-family="sans-serif" font-size="12" lengthAdjust="spacing" textLength="101" x="44" y="34.8281">SoutenanceStatus</text><line style="stroke:#003366;stroke-width:1.0;" x1="13" x2="152" y1="48.3441" y2="48.3441"/><text fill="#000000" font-family="sans-serif" font-size="12" lengthAdjust="spacing" textLength="36" x="23" y="70.1722">CREEE</text><text fill="#000000" font-family="sans-serif" font-size="12" lengthAdjust="spacing" textLength="58" x="23" y="96.5163">PLANIFIEE</text><text fill="#000000" font-family="sans-serif" font-size="12" lengthAdjust="spacing" textLength="80" x="23" y="122.8604">JURY_AFFECTE</text><text fill="#000000" font-family="sans-serif" font-size="12" lengthAdjust="spacing" textLength="74" x="23" y="149.2045">CONVOQUEE</text><text fill="#000000" font-family="sans-serif" font-size="12" lengthAdjust="spacing" textLength="61" x="23" y="175.5487">EN_COURS</text><text fill="#000000" font-family="sans-serif" font-size="12" lengthAdjust="spacing" textLength="59" x="23" y="201.8928">TERMINEE</text><text fill="#000000" font-family="sans-serif" font-size="12" lengthAdjust="spacing" textLength="51" x="23" y="228.2369">EVALUEE</text><text fill="#000000" font-family="sans-serif" font-size="12" lengthAdjust="spacing" textLength="60" x="23" y="254.581">CLOTUREE</text><text fill="#000000" font-family="sans-serif" font-size="12" lengthAdjust="spacing" textLength="55" x="23" y="280.9251">ANNULEE</text><line style="stroke:#003366;stroke-width:1.0;" x1="13" x2="152" y1="293.4411" y2="293.4411"/></g><!--class DecisionEnum--><g id="elem_DecisionEnum"><rect codeLine="15" fill="#F2F4F7" height="131.3765" id="DecisionEnum" rx="2.5" ry="2.5" style="stroke:#003366;stroke-width:1.0;" width="183" x="188" y="91"/><ellipse cx="230.5" cy="109.1721" fill="#EB937F" rx="10" ry="10" style="stroke:#003366;stroke-width:1.0;"/><path d="M232.9375,113.6721 L227.4844,113.6721 L227.4844,104.9221 L232.9375,104.9221 L232.9375,106.4533 L229.2188,106.4533 L229.2188,108.3283 L232.5781,108.3283 L232.5781,109.8596 L229.2188,109.8596 L229.2188,112.1408 L232.9375,112.1408 L232.9375,113.6721 Z " fill="#000000"/><text fill="#000000" font-family="sans-serif" font-size="12" lengthAdjust="spacing" textLength="80" x="254.5" y="113.8281">DecisionEnum</text><line style="stroke:#003366;stroke-width:1.0;" x1="189" x2="370" y1="127.3441" y2="127.3441"/><text fill="#000000" font-family="sans-serif" font-size="12" lengthAdjust="spacing" textLength="39" x="199" y="149.1722">ADMIS</text><text fill="#000000" font-family="sans-serif" font-size="12" lengthAdjust="spacing" textLength="161" x="199" y="175.5163">ADMIS_AVEC_CORRECTIONS</text><text fill="#000000" font-family="sans-serif" font-size="12" lengthAdjust="spacing" textLength="52" x="199" y="201.8604">AJOURNE</text><line style="stroke:#003366;stroke-width:1.0;" x1="189" x2="370" y1="214.3765" y2="214.3765"/></g><!--class Soutenance--><g id="elem_Soutenance"><rect codeLine="21" fill="#F2F4F7" height="236.7529" id="Soutenance" rx="2.5" ry="2.5" style="stroke:#003366;stroke-width:1.0;" width="165" x="395" y="389"/><ellipse cx="435.55" cy="407.1721" fill="#ADD1B2" rx="10" ry="10" style="stroke:#003366;stroke-width:1.0;"/><path d="M437.3781,411.4221 Q436.9719,411.6252 436.5188,411.7346 Q436.0656,411.8439 435.5813,411.8439 Q433.8,411.8439 432.8625,410.6877 Q431.9406,409.5158 431.9406,407.3127 Q431.9406,405.0939 432.8625,403.9377 Q433.8,402.7658 435.5813,402.7658 Q436.0656,402.7658 436.5188,402.8752 Q436.9875,402.9689 437.3781,403.1877 L437.3781,405.1096 Q436.9406,404.7033 436.5188,404.5158 Q436.0969,404.3127 435.6594,404.3127 Q434.7063,404.3127 434.2219,405.0783 Q433.7375,405.8283 433.7375,407.3127 Q433.7375,408.7814 434.2219,409.5314 Q434.7063,410.2814 435.6594,410.2814 Q436.0969,410.2814 436.5188,410.0939 Q436.9406,409.9064 437.3781,409.5002 L437.3781,411.4221 Z " fill="#000000"/><text fill="#000000" font-family="sans-serif" font-size="12" lengthAdjust="spacing" textLength="66" x="459.45" y="411.8281">Soutenance</text><line style="stroke:#003366;stroke-width:1.0;" x1="396" x2="559" y1="425.3441" y2="425.3441"/><text fill="#000000" font-family="sans-serif" font-size="12" lengthAdjust="spacing" textLength="34" x="406" y="447.1722">+int id</text><text fill="#000000" font-family="sans-serif" font-size="12" lengthAdjust="spacing" textLength="107" x="406" y="473.5163">+date datePassage</text><text fill="#000000" font-family="sans-serif" font-size="12" lengthAdjust="spacing" textLength="102" x="406" y="499.8604">+time heureDebut</text><text fill="#000000" font-family="sans-serif" font-size="12" lengthAdjust="spacing" textLength="102" x="406" y="526.2045">+int dureeMinutes</text><text fill="#000000" font-family="sans-serif" font-size="12" lengthAdjust="spacing" textLength="143" x="406" y="552.5487">+SoutenanceStatus statut</text><line style="stroke:#003366;stroke-width:1.0;" x1="396" x2="559" y1="565.0647" y2="565.0647"/><text fill="#000000" font-family="sans-serif" font-size="12" lengthAdjust="spacing" textLength="61" x="406" y="586.8928">+planifier()</text><text fill="#000000" font-family="sans-serif" font-size="12" lengthAdjust="spacing" textLength="58" x="406" y="613.2369">+annuler()</text></g><!--class Salle--><g id="elem_Salle"><rect codeLine="31" fill="#F2F4F7" height="210.4088" id="Salle" rx="2.5" ry="2.5" style="stroke:#003366;stroke-width:1.0;" width="146" x="149.5" y="714"/><ellipse cx="200" cy="732.1721" fill="#ADD1B2" rx="10" ry="10" style="stroke:#003366;stroke-width:1.0;"/><path d="M201.8281,736.4221 Q201.4219,736.6252 200.9688,736.7346 Q200.5156,736.8439 200.0313,736.8439 Q198.25,736.8439 197.3125,735.6877 Q196.3906,734.5158 196.3906,732.3127 Q196.3906,730.0939 197.3125,728.9377 Q198.25,727.7658 200.0313,727.7658 Q200.5156,727.7658 200.9688,727.8752 Q201.4375,727.9689 201.8281,728.1877 L201.8281,730.1096 Q201.3906,729.7033 200.9688,729.5158 Q200.5469,729.3127 200.1094,729.3127 Q199.1563,729.3127 198.6719,730.0783 Q198.1875,730.8283 198.1875,732.3127 Q198.1875,733.7814 198.6719,734.5314 Q199.1563,735.2814 200.1094,735.2814 Q200.5469,735.2814 200.9688,735.0939 Q201.3906,734.9064 201.8281,734.5002 L201.8281,736.4221 Z " fill="#000000"/><text fill="#000000" font-family="sans-serif" font-size="12" lengthAdjust="spacing" textLength="27" x="224" y="736.8281">Salle</text><line style="stroke:#003366;stroke-width:1.0;" x1="150.5" x2="294.5" y1="750.3441" y2="750.3441"/><text fill="#000000" font-family="sans-serif" font-size="12" lengthAdjust="spacing" textLength="34" x="160.5" y="772.1722">+int id</text><text fill="#000000" font-family="sans-serif" font-size="12" lengthAdjust="spacing" textLength="67" x="160.5" y="798.5163">+string nom</text><text fill="#000000" font-family="sans-serif" font-size="12" lengthAdjust="spacing" textLength="92" x="160.5" y="824.8604">+string batiment</text><text fill="#000000" font-family="sans-serif" font-size="12" lengthAdjust="spacing" textLength="71" x="160.5" y="851.2045">+int capacite</text><text fill="#000000" font-family="sans-serif" font-size="12" lengthAdjust="spacing" textLength="112" x="160.5" y="877.5487">+boolean disponible</text><line style="stroke:#003366;stroke-width:1.0;" x1="150.5" x2="294.5" y1="890.0647" y2="890.0647"/><text fill="#000000" font-family="sans-serif" font-size="12" lengthAdjust="spacing" textLength="124" x="160.5" y="911.8928">+verifierDisponibilite()</text></g><!--class MembreJury--><g id="elem_MembreJury"><rect codeLine="40" fill="#F2F4F7" height="105.0323" id="MembreJury" rx="2.5" ry="2.5" style="stroke:#003366;stroke-width:1.0;" width="120" x="330.5" y="766.5"/><ellipse cx="349.45" cy="784.6721" fill="#ADD1B2" rx="10" ry="10" style="stroke:#003366;stroke-width:1.0;"/><path d="M351.2781,788.9221 Q350.8719,789.1252 350.4188,789.2346 Q349.9656,789.3439 349.4813,789.3439 Q347.7,789.3439 346.7625,788.1877 Q345.8406,787.0158 345.8406,784.8127 Q345.8406,782.5939 346.7625,781.4377 Q347.7,780.2658 349.4813,780.2658 Q349.9656,780.2658 350.4188,780.3752 Q350.8875,780.4689 351.2781,780.6877 L351.2781,782.6096 Q350.8406,782.2033 350.4188,782.0158 Q349.9969,781.8127 349.5594,781.8127 Q348.6063,781.8127 348.1219,782.5783 Q347.6375,783.3283 347.6375,784.8127 Q347.6375,786.2814 348.1219,787.0314 Q348.6063,787.7814 349.5594,787.7814 Q349.9969,787.7814 350.4188,787.5939 Q350.8406,787.4064 351.2781,787.0002 L351.2781,788.9221 Z " fill="#000000"/><text fill="#000000" font-family="sans-serif" font-size="12" lengthAdjust="spacing" textLength="69" x="368.55" y="789.3281">MembreJury</text><line style="stroke:#003366;stroke-width:1.0;" x1="331.5" x2="449.5" y1="802.8441" y2="802.8441"/><text fill="#000000" font-family="sans-serif" font-size="12" lengthAdjust="spacing" textLength="98" x="341.5" y="824.6722">+JuryRole roleJury</text><text fill="#000000" font-family="sans-serif" font-size="12" lengthAdjust="spacing" textLength="98" x="341.5" y="851.0163">+boolean present</text><line style="stroke:#003366;stroke-width:1.0;" x1="331.5" x2="449.5" y1="863.5323" y2="863.5323"/></g><!--class Evaluation--><g id="elem_Evaluation"><rect codeLine="45" fill="#F2F4F7" height="184.0647" id="Evaluation" rx="2.5" ry="2.5" style="stroke:#003366;stroke-width:1.0;" width="158" x="485.5" y="727"/><ellipse cx="526.5" cy="745.1721" fill="#ADD1B2" rx="10" ry="10" style="stroke:#003366;stroke-width:1.0;"/><path d="M528.3281,749.4221 Q527.9219,749.6252 527.4688,749.7346 Q527.0156,749.8439 526.5313,749.8439 Q524.75,749.8439 523.8125,748.6877 Q522.8906,747.5158 522.8906,745.3127 Q522.8906,743.0939 523.8125,741.9377 Q524.75,740.7658 526.5313,740.7658 Q527.0156,740.7658 527.4688,740.8752 Q527.9375,740.9689 528.3281,741.1877 L528.3281,743.1096 Q527.8906,742.7033 527.4688,742.5158 Q527.0469,742.3127 526.6094,742.3127 Q525.6563,742.3127 525.1719,743.0783 Q524.6875,743.8283 524.6875,745.3127 Q524.6875,746.7814 525.1719,747.5314 Q525.6563,748.2814 526.6094,748.2814 Q527.0469,748.2814 527.4688,748.0939 Q527.8906,747.9064 528.3281,747.5002 L528.3281,749.4221 Z " fill="#000000"/><text fill="#000000" font-family="sans-serif" font-size="12" lengthAdjust="spacing" textLength="58" x="550.5" y="749.8281">Evaluation</text><line style="stroke:#003366;stroke-width:1.0;" x1="486.5" x2="642.5" y1="763.3441" y2="763.3441"/><text fill="#000000" font-family="sans-serif" font-size="12" lengthAdjust="spacing" textLength="34" x="496.5" y="785.1722">+int id</text><text fill="#000000" font-family="sans-serif" font-size="12" lengthAdjust="spacing" textLength="60" x="496.5" y="811.5163">+float note</text><text fill="#000000" font-family="sans-serif" font-size="12" lengthAdjust="spacing" textLength="114" x="496.5" y="837.8604">+string observations</text><text fill="#000000" font-family="sans-serif" font-size="12" lengthAdjust="spacing" textLength="136" x="496.5" y="864.2045">+DecisionEnum decision</text><text fill="#000000" font-family="sans-serif" font-size="12" lengthAdjust="spacing" textLength="95" x="496.5" y="890.5487">+boolean validee</text><line style="stroke:#003366;stroke-width:1.0;" x1="486.5" x2="642.5" y1="903.0647" y2="903.0647"/></g><!--class SessionGlobale--><g id="elem_SessionGlobale"><rect codeLine="53" fill="#F2F4F7" height="184.0647" id="SessionGlobale" rx="2.5" ry="2.5" style="stroke:#003366;stroke-width:1.0;" width="142" x="406.5" y="64.5"/><ellipse cx="427.7" cy="82.6721" fill="#ADD1B2" rx="10" ry="10" style="stroke:#003366;stroke-width:1.0;"/><path d="M429.5281,86.9221 Q429.1219,87.1252 428.6688,87.2346 Q428.2156,87.3439 427.7313,87.3439 Q425.95,87.3439 425.0125,86.1877 Q424.0906,85.0158 424.0906,82.8127 Q424.0906,80.5939 425.0125,79.4377 Q425.95,78.2658 427.7313,78.2658 Q428.2156,78.2658 428.6688,78.3752 Q429.1375,78.4689 429.5281,78.6877 L429.5281,80.6096 Q429.0906,80.2033 428.6688,80.0158 Q428.2469,79.8127 427.8094,79.8127 Q426.8563,79.8127 426.3719,80.5783 Q425.8875,81.3283 425.8875,82.8127 Q425.8875,84.2814 426.3719,85.0314 Q426.8563,85.7814 427.8094,85.7814 Q428.2469,85.7814 428.6688,85.5939 Q429.0906,85.4064 429.5281,85.0002 L429.5281,86.9221 Z " fill="#000000"/><text fill="#000000" font-family="sans-serif" font-size="12" lengthAdjust="spacing" textLength="86" x="447.3" y="87.3281">SessionGlobale</text><line style="stroke:#003366;stroke-width:1.0;" x1="407.5" x2="547.5" y1="100.8441" y2="100.8441"/><text fill="#000000" font-family="sans-serif" font-size="12" lengthAdjust="spacing" textLength="34" x="417.5" y="122.6722">+int id</text><text fill="#000000" font-family="sans-serif" font-size="12" lengthAdjust="spacing" textLength="75" x="417.5" y="149.0163">+string libelle</text><text fill="#000000" font-family="sans-serif" font-size="12" lengthAdjust="spacing" textLength="94" x="417.5" y="175.3604">+date dateDebut</text><text fill="#000000" font-family="sans-serif" font-size="12" lengthAdjust="spacing" textLength="76" x="417.5" y="201.7045">+date dateFin</text><text fill="#000000" font-family="sans-serif" font-size="12" lengthAdjust="spacing" textLength="120" x="417.5" y="228.0487">+SessionStatus statut</text><line style="stroke:#003366;stroke-width:1.0;" x1="407.5" x2="547.5" y1="240.5647" y2="240.5647"/></g><!--class Convocation--><g id="elem_Convocation"><rect codeLine="61" fill="#F2F4F7" height="157.7206" id="Convocation" rx="2.5" ry="2.5" style="stroke:#003366;stroke-width:1.0;" width="124" x="678.5" y="740"/><ellipse cx="699.25" cy="758.1721" fill="#ADD1B2" rx="10" ry="10" style="stroke:#003366;stroke-width:1.0;"/><path d="M701.0781,762.4221 Q700.6719,762.6252 700.2188,762.7346 Q699.7656,762.8439 699.2813,762.8439 Q697.5,762.8439 696.5625,761.6877 Q695.6406,760.5158 695.6406,758.3127 Q695.6406,756.0939 696.5625,754.9377 Q697.5,753.7658 699.2813,753.7658 Q699.7656,753.7658 700.2188,753.8752 Q700.6875,753.9689 701.0781,754.1877 L701.0781,756.1096 Q700.6406,755.7033 700.2188,755.5158 Q699.7969,755.3127 699.3594,755.3127 Q698.4063,755.3127 697.9219,756.0783 Q697.4375,756.8283 697.4375,758.3127 Q697.4375,759.7814 697.9219,760.5314 Q698.4063,761.2814 699.3594,761.2814 Q699.7969,761.2814 700.2188,761.0939 Q700.6406,760.9064 701.0781,760.5002 L701.0781,762.4221 Z " fill="#000000"/><text fill="#000000" font-family="sans-serif" font-size="12" lengthAdjust="spacing" textLength="69" x="718.75" y="762.8281">Convocation</text><line style="stroke:#003366;stroke-width:1.0;" x1="679.5" x2="801.5" y1="776.3441" y2="776.3441"/><text fill="#000000" font-family="sans-serif" font-size="12" lengthAdjust="spacing" textLength="34" x="689.5" y="798.1722">+int id</text><text fill="#000000" font-family="sans-serif" font-size="12" lengthAdjust="spacing" textLength="66" x="689.5" y="824.5163">+string type</text><text fill="#000000" font-family="sans-serif" font-size="12" lengthAdjust="spacing" textLength="102" x="689.5" y="850.8604">+boolean envoyee</text><line style="stroke:#003366;stroke-width:1.0;" x1="679.5" x2="801.5" y1="863.3765" y2="863.3765"/><text fill="#000000" font-family="sans-serif" font-size="12" lengthAdjust="spacing" textLength="60" x="689.5" y="885.2045">+generer()</text></g><!--reverse link SessionGlobale to Soutenance--><g id="link_SessionGlobale_Soutenance"><path codeLine="68" d="M477.5,260.74 C477.5,303.56 477.5,343.11 477.5,388.82 " fill="none" id="SessionGlobale-backto-Soutenance" style="stroke:#003366;stroke-width:1.0;"/><polygon fill="#003366" points="477.5,248.74,473.5,254.74,477.5,260.74,481.5,254.74,477.5,248.74" style="stroke:#003366;stroke-width:1.0;"/><text fill="#003366" font-family="sans-serif" font-size="12" lengthAdjust="spacing" textLength="45" x="483.5" y="349.8281">contient</text><text fill="#003366" font-family="sans-serif" font-size="12" lengthAdjust="spacing" textLength="7" x="464.8758" y="274.3069">1</text><text fill="#003366" font-family="sans-serif" font-size="12" lengthAdjust="spacing" textLength="7" x="464.982" y="372.6419">*</text></g><!--link Soutenance to Salle--><g id="link_Soutenance_Salle"><path codeLine="69" d="M395,576.74 C368.94,600.38 341.08,628.02 318.5,656 C304.13,673.81 290.44,693.99 278.13,713.92 " fill="none" id="Soutenance-Salle" style="stroke:#003366;stroke-width:1.0;"/><text fill="#003366" font-family="sans-serif" font-size="12" lengthAdjust="spacing" textLength="89" x="324.5" y="674.8281">se d&#233;roule dans</text><text fill="#003366" font-family="sans-serif" font-size="12" lengthAdjust="spacing" textLength="7" x="374.8953" y="573.6033">*</text><text fill="#003366" font-family="sans-serif" font-size="12" lengthAdjust="spacing" textLength="7" x="269.4438" y="697.4433">1</text></g><!--link Soutenance to MembreJury--><g id="link_Soutenance_MembreJury"><path codeLine="70" d="M442.92,626.39 C440.05,636.4 437.21,646.37 434.5,656 C424.11,692.89 412.79,734.63 404.23,766.5 " fill="none" id="Soutenance-MembreJury" style="stroke:#003366;stroke-width:1.0;"/><text fill="#003366" font-family="sans-serif" font-size="12" lengthAdjust="spacing" textLength="75" x="440.5" y="674.8281">compos&#233;e de</text><text fill="#003366" font-family="sans-serif" font-size="12" lengthAdjust="spacing" textLength="7" x="428.5641" y="651.447">1</text><text fill="#003366" font-family="sans-serif" font-size="12" lengthAdjust="spacing" textLength="20" x="379.0673" y="749.9559">3..*</text></g><!--link Soutenance to Evaluation--><g id="link_Soutenance_Evaluation"><path codeLine="71" d="M516.71,626.19 C519.78,636.25 522.75,646.28 525.5,656 C531.95,678.83 538.27,703.65 543.88,726.85 " fill="none" id="Soutenance-Evaluation" style="stroke:#003366;stroke-width:1.0;"/><text fill="#003366" font-family="sans-serif" font-size="12" lengthAdjust="spacing" textLength="47" x="539.5" y="674.8281">poss&#232;de</text><text fill="#003366" font-family="sans-serif" font-size="12" lengthAdjust="spacing" textLength="7" x="506.4854" y="651.6485">1</text><text fill="#003366" font-family="sans-serif" font-size="12" lengthAdjust="spacing" textLength="7" x="529.6505" y="710.6382">1</text></g><!--link Soutenance to Convocation--><g id="link_Soutenance_Convocation"><path codeLine="72" d="M560,598.32 C591.97,633.85 628.51,675.37 660.5,714 C667.4,722.33 674.5,731.16 681.47,740 " fill="none" id="Soutenance-Convocation" style="stroke:#003366;stroke-width:1.0;"/><text fill="#003366" font-family="sans-serif" font-size="12" lengthAdjust="spacing" textLength="40" x="637.5" y="674.8281">g&#233;n&#232;re</text><text fill="#003366" font-family="sans-serif" font-size="12" lengthAdjust="spacing" textLength="7" x="573.1047" y="597.1053">1</text><text fill="#003366" font-family="sans-serif" font-size="12" lengthAdjust="spacing" textLength="20" x="650.0502" y="723.5058">1..*</text></g><!--SRC=[XLBDRjim3BxdARISjWuDKEoMc-4uWuF4xfmVOAT0jfbKW2mPaXmW6FO-pNFunKOvigjaxUQ3B58al-yZ-ScyG0MaFW0vA5cHoMW4egd8MZO611K5h0qrZIQ_HWI_C8kYgBizBuCadiVEMcopd_jWFe_2pTKHfiak_R5rpr6o3zDjjkwCJPIjugH_sGNBFYfSffjjvemWIRPBlFzsX6PGCCsaYAnn9HFCLl7wxROFTb68E5c6BE8qSKyB14wwEWMdMdlAN9clX0b3MEcCaXheZcUCfaTmRiEmJI_GA9X1tXWliqGVh9Z0ijgv_-gUjhy-gUPKi0C3zVcByr0X6jxPRpGfvnymr4OnSIH2LhUEd5gImkTMq9eMpFGYSYavK45AfcifMCxxXnEeZj7CFJ2EIJwT5LIvWaMZpWCdQsHOZoWyh747KYlGbirG8pfHtY17ATxNTU2I6fGrq7MwPAv1dRh4li4tsr0wumuVqLW9uBKKj0txpcLE_zDRpdBWGtU6bV17FpZdh4Ts0BSp7-13AKwo-8T-XstEzVsy03FFq7kF843rst8dQlmq9W-FZsJyCFOtVKeAAGopu_2yDiZ6OivrtQP4ewRseYIk8uh3VllXJzVmRvC99deROQjNjTJj1PFWlHJyUTEV4WpMxUi7iLrvlrjJScmledrLCFe3]--></g></svg>