<?xml version="1.0" encoding="us-ascii" standalone="no"?><svg xmlns="http://www.w3.org/2000/svg" xmlns:xlink="http://www.w3.org/1999/xlink" contentStyleType="text/css" height="931px" preserveAspectRatio="none" style="width:818px;height:931px;background:#FFFFFF;" version="1.1" viewBox="0 0 818 931" width="818px" zoomAndPan="magnify"><defs/><g><!--class SoutenanceStatus--><g id="elem_SoutenanceStatus"><rect codeLine="3" fill="#F2F4F7" height="289.4411" id="SoutenanceStatus" rx="2.5" ry="2.5" style="stroke:#003366;stroke-width:1.0;" width="141" x="12" y="12"/><ellipse cx="26" cy="30.1721" fill="#EB937F" rx="10" ry="10" style="stroke:#003366;stroke-width:1.0;"/><path d="M28.4375,34.6721 L22.9844,34.6721 L22.9844,25.9221 L28.4375,25.9221 L28.4375,27.4533 L24.7188,27.4533 L24.7188,29.3283 L28.0781,29.3283 L28.0781,30.8596 L24.7188,30.8596 L24.7188,33.1408 L28.4375,33.1408 L28.4375,34.6721 Z " fill="#000000"/><text fill="#000000" font-family="sans-serif" font-size="12" lengthAdjust="spacing" textLength="101" x="44" y="34.8281">SoutenanceStatus</text><line style="stroke:#003366;stroke-width:1.0;" x1="13" x2="152" y1="48.3441" y2="48.3441"/><text fill="#000000" font-family="sans-serif" font-size="12" lengthAdjust="spacing" textLength="36" x="23" y="70.1722">CREEE</text><text fill="#000000" font-family="sans-serif" font-size="12" lengthAdjust="spacing" textLength="58" x="23" y="96.5163">PLANIFIEE</text><text fill="#000000" font-family="sans-serif" font-size="12" lengthAdjust="spacing" textLength="80" x="23" y="122.8604">JURY_AFFECTE</text><text fill="#000000" font-family="sans-serif" font-size="12" lengthAdjust="spacing" textLength="74" x="23" y="149.2045">CONVOQUEE</text><text fill="#000000" font-family="sans-serif" font-size="12" lengthAdjust="spacing" textLength="61" x="23" y="175.5487">EN_COURS</text><text fill="#000000" font-family="sans-serif" font-size="12" lengthAdjust="spacing" textLength="59" x="23" y="201.8928">TERMINEE</text><text fill="#000000" font-family="sans-serif" font-size="12" lengthAdjust="spacing" textLength="51" x="23" y="228.2369">EVALUEE</text><text fill="#000000" font-family="sans-serif" font-size="12" lengthAdjust="spacing" textLength="60" x="23" y="254.581">CLOTUREE</text><text fill="#000000" font-family="sans-serif" font-size="12" lengthAdjust="spacing" textLength="55" x="23" y="280.9251">ANNULEE</text><line style="stroke:#003366;stroke-width:1.0;" x1="13" x2="152" y1="293.4411" y2="293.4411"/></g><!--class DecisionEnum--><g id="elem_DecisionEnum"><rect codeLine="15" fill="#F2F4F7" height="131.3765" id="DecisionEnum" rx="2.5" ry="2.5" style="stroke:#003366;stroke-width:1.0;" width="183" x="188" y="91"/><ellipse cx="230.5" cy="109.1721" fill="#EB937F" rx="10" ry="10" style="stroke:#003366;stroke-width:1.0;"/><path d="M232.9375,113.6721 L227.4844,113.6721 L227.4844,104.9221 L232.9375,104.9221 L232.9375,106.4533 L229.2188,106.4533 L229.2188,108.3283 L232.5781,108.3283 L232.5781,109.8596 L229.2188,109.8596 L229.2188,112.1408 L232.9375,112.1408 L232.9375,113.6721 Z " fill="#000000"/><text fill="#000000" font-family="sans-serif" font-size="12" lengthAdjust="spacing" textLength="80" x="254.5" y="113.8281">DecisionEnum</text><line style="stroke:#003366;stroke-width:1.0;" x1="189" x2="370" y1="127.3441" y2="127.3441"/><text fill="#000000" font-family="sans-serif" font-size="12" lengthAdjust="spacing" textLength="39" x="199" y="149.1722">ADMIS</text><text fill="#000000" font-family="sans-serif" font-size="12" lengthAdjust="spacing" textLength="161" x="199" y="175.5163">ADMIS_AVEC_CORRECTIONS</text><text fill="#000000" font-family="sans-serif" font-size="12" lengthAdjust="spacing" textLength="52" x="199" y="201.8604">AJOURNE</text><line style="stroke:#003366;stroke-width:1.0;" x1="189" x2="370" y1="214.3765" y2="214.3765"/></g><!--class Soutenance--><g id="elem_Soutenance"><rect codeLine="21" fill="#F2F4F7" height="236.7529" id="Soutenance" rx="2.5" ry="2.5" style="stroke:#003366;stroke-width:1.0;" width="165" x="406" y="389"/><ellipse cx="446.55" cy="407.1721" fill="#ADD1B2" rx="10" ry="10" style="stroke:#003366;stroke-width:1.0;"/><path d="M448.3781,411.4221 Q447.9719,411.6252 447.5188,411.7346 Q447.0656,411.8439 446.5813,411.8439 Q444.8,411.8439 443.8625,410.6877 Q442.9406,409.5158 442.9406,407.3127 Q442.9406,405.0939 443.8625,403.9377 Q444.8,402.7658 446.5813,402.7658 Q447.0656,402.7658 447.5188,402.8752 Q447.9875,402.9689 448.3781,403.1877 L448.3781,405.1096 Q447.9406,404.7033 447.5188,404.5158 Q447.0969,404.3127 446.6594,404.3127 Q445.7063,404.3127 445.2219,405.0783 Q444.7375,405.8283 444.7375,407.3127 Q444.7375,408.7814 445.2219,409.5314 Q445.7063,410.2814 446.6594,410.2814 Q447.0969,410.2814 447.5188,410.0939 Q447.9406,409.9064 448.3781,409.5002 L448.3781,411.4221 Z " fill="#000000"/><text fill="#000000" font-family="sans-serif" font-size="12" lengthAdjust="spacing" textLength="66" x="470.45" y="411.8281">Soutenance</text><line style="stroke:#003366;stroke-width:1.0;" x1="407" x2="570" y1="425.3441" y2="425.3441"/><text fill="#000000" font-family="sans-serif" font-size="12" lengthAdjust="spacing" textLength="34" x="417" y="447.1722">+int id</text><text fill="#000000" font-family="sans-serif" font-size="12" lengthAdjust="spacing" textLength="107" x="417" y="473.5163">+date datePassage</text><text fill="#000000" font-family="sans-serif" font-size="12" lengthAdjust="spacing" textLength="102" x="417" y="499.8604">+time heureDebut</text><text fill="#000000" font-family="sans-serif" font-size="12" lengthAdjust="spacing" textLength="102" x="417" y="526.2045">+int dureeMinutes</text><text fill="#000000" font-family="sans-serif" font-size="12" lengthAdjust="spacing" textLength="143" x="417" y="552.5487">+SoutenanceStatus statut</text><line style="stroke:#003366;stroke-width:1.0;" x1="407" x2="570" y1="565.0647" y2="565.0647"/><text fill="#000000" font-family="sans-serif" font-size="12" lengthAdjust="spacing" textLength="61" x="417" y="586.8928">+planifier()</text><text fill="#000000" font-family="sans-serif" font-size="12" lengthAdjust="spacing" textLength="58" x="417" y="613.2369">+annuler()</text></g><!--class Salle--><g id="elem_Salle"><rect codeLine="31" fill="#F2F4F7" height="210.4088" id="Salle" rx="2.5" ry="2.5" style="stroke:#003366;stroke-width:1.0;" width="146" x="168.5" y="714"/><ellipse cx="219" cy="732.1721" fill="#ADD1B2" rx="10" ry="10" style="stroke:#003366;stroke-width:1.0;"/><path d="M220.8281,736.4221 Q220.4219,736.6252 219.9688,736.7346 Q219.5156,736.8439 219.0313,736.8439 Q217.25,736.8439 216.3125,735.6877 Q215.3906,734.5158 215.3906,732.3127 Q215.3906,730.0939 216.3125,728.9377 Q217.25,727.7658 219.0313,727.7658 Q219.5156,727.7658 219.9688,727.8752 Q220.4375,727.9689 220.8281,728.1877 L220.8281,730.1096 Q220.3906,729.7033 219.9688,729.5158 Q219.5469,729.3127 219.1094,729.3127 Q218.1563,729.3127 217.6719,730.0783 Q217.1875,730.8283 217.1875,732.3127 Q217.1875,733.7814 217.6719,734.5314 Q218.1563,735.2814 219.1094,735.2814 Q219.5469,735.2814 219.9688,735.0939 Q220.3906,734.9064 220.8281,734.5002 L220.8281,736.4221 Z " fill="#000000"/><text fill="#000000" font-family="sans-serif" font-size="12" lengthAdjust="spacing" textLength="27" x="243" y="736.8281">Salle</text><line style="stroke:#003366;stroke-width:1.0;" x1="169.5" x2="313.5" y1="750.3441" y2="750.3441"/><text fill="#000000" font-family="sans-serif" font-size="12" lengthAdjust="spacing" textLength="34" x="179.5" y="772.1722">+int id</text><text fill="#000000" font-family="sans-serif" font-size="12" lengthAdjust="spacing" textLength="67" x="179.5" y="798.5163">+string nom</text><text fill="#000000" font-family="sans-serif" font-size="12" lengthAdjust="spacing" textLength="92" x="179.5" y="824.8604">+string batiment</text><text fill="#000000" font-family="sans-serif" font-size="12" lengthAdjust="spacing" textLength="71" x="179.5" y="851.2045">+int capacite</text><text fill="#000000" font-family="sans-serif" font-size="12" lengthAdjust="spacing" textLength="112" x="179.5" y="877.5487">+boolean disponible</text><line style="stroke:#003366;stroke-width:1.0;" x1="169.5" x2="313.5" y1="890.0647" y2="890.0647"/><text fill="#000000" font-family="sans-serif" font-size="12" lengthAdjust="spacing" textLength="124" x="179.5" y="911.8928">+verifierDisponibilite()</text></g><!--class MembreJury--><g id="elem_MembreJury"><rect codeLine="40" fill="#F2F4F7" height="52.3441" id="MembreJury" rx="2.5" ry="2.5" style="stroke:#003366;stroke-width:1.0;" width="109" x="350" y="793"/><ellipse cx="364" cy="811.1721" fill="#ADD1B2" rx="10" ry="10" style="stroke:#003366;stroke-width:1.0;"/><path d="M365.8281,815.4221 Q365.4219,815.6252 364.9688,815.7346 Q364.5156,815.8439 364.0313,815.8439 Q362.25,815.8439 361.3125,814.6877 Q360.3906,813.5158 360.3906,811.3127 Q360.3906,809.0939 361.3125,807.9377 Q362.25,806.7658 364.0313,806.7658 Q364.5156,806.7658 364.9688,806.8752 Q365.4375,806.9689 365.8281,807.1877 L365.8281,809.1096 Q365.3906,808.7033 364.9688,808.5158 Q364.5469,808.3127 364.1094,808.3127 Q363.1563,808.3127 362.6719,809.0783 Q362.1875,809.8283 362.1875,811.3127 Q362.1875,812.7814 362.6719,813.5314 Q363.1563,814.2814 364.1094,814.2814 Q364.5469,814.2814 364.9688,814.0939 Q365.3906,813.9064 365.8281,813.5002 L365.8281,815.4221 Z " fill="#000000"/><text fill="#000000" font-family="sans-serif" font-size="12" lengthAdjust="spacing" textLength="69" x="382" y="815.8281">MembreJury</text><line style="stroke:#003366;stroke-width:1.0;" x1="351" x2="458" y1="829.3441" y2="829.3441"/><line style="stroke:#003366;stroke-width:1.0;" x1="351" x2="458" y1="837.3441" y2="837.3441"/></g><!--class Evaluation--><g id="elem_Evaluation"><rect codeLine="44" fill="#F2F4F7" height="184.0647" id="Evaluation" rx="2.5" ry="2.5" style="stroke:#003366;stroke-width:1.0;" width="158" x="494.5" y="727"/><ellipse cx="535.5" cy="745.1721" fill="#ADD1B2" rx="10" ry="10" style="stroke:#003366;stroke-width:1.0;"/><path d="M537.3281,749.4221 Q536.9219,749.6252 536.4688,749.7346 Q536.0156,749.8439 535.5313,749.8439 Q533.75,749.8439 532.8125,748.6877 Q531.8906,747.5158 531.8906,745.3127 Q531.8906,743.0939 532.8125,741.9377 Q533.75,740.7658 535.5313,740.7658 Q536.0156,740.7658 536.4688,740.8752 Q536.9375,740.9689 537.3281,741.1877 L537.3281,743.1096 Q536.8906,742.7033 536.4688,742.5158 Q536.0469,742.3127 535.6094,742.3127 Q534.6563,742.3127 534.1719,743.0783 Q533.6875,743.8283 533.6875,745.3127 Q533.6875,746.7814 534.1719,747.5314 Q534.6563,748.2814 535.6094,748.2814 Q536.0469,748.2814 536.4688,748.0939 Q536.8906,747.9064 537.3281,747.5002 L537.3281,749.4221 Z " fill="#000000"/><text fill="#000000" font-family="sans-serif" font-size="12" lengthAdjust="spacing" textLength="58" x="559.5" y="749.8281">Evaluation</text><line style="stroke:#003366;stroke-width:1.0;" x1="495.5" x2="651.5" y1="763.3441" y2="763.3441"/><text fill="#000000" font-family="sans-serif" font-size="12" lengthAdjust="spacing" textLength="34" x="505.5" y="785.1722">+int id</text><text fill="#000000" font-family="sans-serif" font-size="12" lengthAdjust="spacing" textLength="60" x="505.5" y="811.5163">+float note</text><text fill="#000000" font-family="sans-serif" font-size="12" lengthAdjust="spacing" textLength="114" x="505.5" y="837.8604">+string observations</text><text fill="#000000" font-family="sans-serif" font-size="12" lengthAdjust="spacing" textLength="136" x="505.5" y="864.2045">+DecisionEnum decision</text><text fill="#000000" font-family="sans-serif" font-size="12" lengthAdjust="spacing" textLength="95" x="505.5" y="890.5487">+boolean validee</text><line style="stroke:#003366;stroke-width:1.0;" x1="495.5" x2="651.5" y1="903.0647" y2="903.0647"/></g><!--class PlanningSession--><g id="elem_PlanningSession"><rect codeLine="52" fill="#F2F4F7" height="184.0647" id="PlanningSession" rx="2.5" ry="2.5" style="stroke:#003366;stroke-width:1.0;" width="165" x="406" y="64.5"/><ellipse cx="435.3" cy="82.6721" fill="#ADD1B2" rx="10" ry="10" style="stroke:#003366;stroke-width:1.0;"/><path d="M437.1281,86.9221 Q436.7219,87.1252 436.2688,87.2346 Q435.8156,87.3439 435.3313,87.3439 Q433.55,87.3439 432.6125,86.1877 Q431.6906,85.0158 431.6906,82.8127 Q431.6906,80.5939 432.6125,79.4377 Q433.55,78.2658 435.3313,78.2658 Q435.8156,78.2658 436.2688,78.3752 Q436.7375,78.4689 437.1281,78.6877 L437.1281,80.6096 Q436.6906,80.2033 436.2688,80.0158 Q435.8469,79.8127 435.4094,79.8127 Q434.4563,79.8127 433.9719,80.5783 Q433.4875,81.3283 433.4875,82.8127 Q433.4875,84.2814 433.9719,85.0314 Q434.4563,85.7814 435.4094,85.7814 Q435.8469,85.7814 436.2688,85.5939 Q436.6906,85.4064 437.1281,85.0002 L437.1281,86.9221 Z " fill="#000000"/><text fill="#000000" font-family="sans-serif" font-size="12" lengthAdjust="spacing" textLength="91" x="456.7" y="87.3281">PlanningSession</text><line style="stroke:#003366;stroke-width:1.0;" x1="407" x2="570" y1="100.8441" y2="100.8441"/><text fill="#000000" font-family="sans-serif" font-size="12" lengthAdjust="spacing" textLength="34" x="417" y="122.6722">+int id</text><text fill="#000000" font-family="sans-serif" font-size="12" lengthAdjust="spacing" textLength="75" x="417" y="149.0163">+string libelle</text><text fill="#000000" font-family="sans-serif" font-size="12" lengthAdjust="spacing" textLength="94" x="417" y="175.3604">+date dateDebut</text><text fill="#000000" font-family="sans-serif" font-size="12" lengthAdjust="spacing" textLength="76" x="417" y="201.7045">+date dateFin</text><text fill="#000000" font-family="sans-serif" font-size="12" lengthAdjust="spacing" textLength="143" x="417" y="228.0487">+SoutenanceStatus statut</text><line style="stroke:#003366;stroke-width:1.0;" x1="407" x2="570" y1="240.5647" y2="240.5647"/></g><!--class Convocation--><g id="elem_Convocation"><rect codeLine="60" fill="#F2F4F7" height="157.7206" id="Convocation" rx="2.5" ry="2.5" style="stroke:#003366;stroke-width:1.0;" width="124" x="687.5" y="740"/><ellipse cx="708.25" cy="758.1721" fill="#ADD1B2" rx="10" ry="10" style="stroke:#003366;stroke-width:1.0;"/><path d="M710.0781,762.4221 Q709.6719,762.6252 709.2188,762.7346 Q708.7656,762.8439 708.2813,762.8439 Q706.5,762.8439 705.5625,761.6877 Q704.6406,760.5158 704.6406,758.3127 Q704.6406,756.0939 705.5625,754.9377 Q706.5,753.7658 708.2813,753.7658 Q708.7656,753.7658 709.2188,753.8752 Q709.6875,753.9689 710.0781,754.1877 L710.0781,756.1096 Q709.6406,755.7033 709.2188,755.5158 Q708.7969,755.3127 708.3594,755.3127 Q707.4063,755.3127 706.9219,756.0783 Q706.4375,756.8283 706.4375,758.3127 Q706.4375,759.7814 706.9219,760.5314 Q707.4063,761.2814 708.3594,761.2814 Q708.7969,761.2814 709.2188,761.0939 Q709.6406,760.9064 710.0781,760.5002 L710.0781,762.4221 Z " fill="#000000"/><text fill="#000000" font-family="sans-serif" font-size="12" lengthAdjust="spacing" textLength="69" x="727.75" y="762.8281">Convocation</text><line style="stroke:#003366;stroke-width:1.0;" x1="688.5" x2="810.5" y1="776.3441" y2="776.3441"/><text fill="#000000" font-family="sans-serif" font-size="12" lengthAdjust="spacing" textLength="34" x="698.5" y="798.1722">+int id</text><text fill="#000000" font-family="sans-serif" font-size="12" lengthAdjust="spacing" textLength="66" x="698.5" y="824.5163">+string type</text><text fill="#000000" font-family="sans-serif" font-size="12" lengthAdjust="spacing" textLength="102" x="698.5" y="850.8604">+boolean envoyee</text><line style="stroke:#003366;stroke-width:1.0;" x1="688.5" x2="810.5" y1="863.3765" y2="863.3765"/><text fill="#000000" font-family="sans-serif" font-size="12" lengthAdjust="spacing" textLength="60" x="698.5" y="885.2045">+generer()</text></g><!--link PlanningSession to Soutenance--><g id="link_PlanningSession_Soutenance"><path codeLine="67" d="M488.5,248.74 C488.5,291.56 488.5,337.11 488.5,382.82 " fill="none" id="PlanningSession-to-Soutenance" style="stroke:#003366;stroke-width:1.0;"/><polygon fill="#003366" points="488.5,388.82,492.5,379.82,488.5,383.82,484.5,379.82,488.5,388.82" style="stroke:#003366;stroke-width:1.0;"/><text fill="#003366" font-family="sans-serif" font-size="12" lengthAdjust="spacing" textLength="45" x="494.5" y="349.8281">contient</text></g><!--link Soutenance to Salle--><g id="link_Soutenance_Salle"><path codeLine="68" d="M405.99,575 C379.36,598.85 350.95,627.04 328.5,656 C314.81,673.66 305.0508,688.5557 293.8108,708.4557 " fill="none" id="Soutenance-to-Salle" style="stroke:#003366;stroke-width:1.0;"/><polygon fill="#003366" points="290.86,713.68,298.769,707.8108,293.319,709.3265,291.8033,703.8764,290.86,713.68" style="stroke:#003366;stroke-width:1.0;"/><text fill="#003366" font-family="sans-serif" font-size="12" lengthAdjust="spacing" textLength="89" x="334.5" y="674.8281">se d&#233;roule dans</text></g><!--link Soutenance to MembreJury--><g id="link_Soutenance_MembreJury"><path codeLine="69" d="M451.89,626.26 C448.97,636.3 446.14,646.31 443.5,656 C430.37,704.14 418.5459,755.1061 411.3659,787.0461 " fill="none" id="Soutenance-to-MembreJury" style="stroke:#003366;stroke-width:1.0;"/><polygon fill="#003366" points="410.05,792.9,415.9265,784.9964,411.1466,788.0217,408.1213,783.2418,410.05,792.9" style="stroke:#003366;stroke-width:1.0;"/><text fill="#003366" font-family="sans-serif" font-size="12" lengthAdjust="spacing" textLength="75" x="449.5" y="674.8281">compos&#233;e de</text></g><!--link Soutenance to Evaluation--><g id="link_Soutenance_Evaluation"><path codeLine="70" d="M525.98,626.24 C528.94,636.28 531.82,646.3 534.5,656 C540.81,678.87 545.6698,697.8781 551.2798,721.0781 " fill="none" id="Soutenance-to-Evaluation" style="stroke:#003366;stroke-width:1.0;"/><polygon fill="#003366" points="552.69,726.91,554.4626,717.222,551.5148,722.0501,546.6867,719.1023,552.69,726.91" style="stroke:#003366;stroke-width:1.0;"/><text fill="#003366" font-family="sans-serif" font-size="12" lengthAdjust="spacing" textLength="47" x="548.5" y="674.8281">poss&#232;de</text></g><!--link Soutenance to Convocation--><g id="link_Soutenance_Convocation"><path codeLine="71" d="M571.14,599.7 C602.48,634.96 638.14,675.92 669.5,714 C676.31,722.26 679.5974,726.2866 686.4974,735.0466 " fill="none" id="Soutenance-to-Convocation" style="stroke:#003366;stroke-width:1.0;"/><polygon fill="#003366" points="690.21,739.76,687.7833,730.2148,687.1161,735.8321,681.4988,735.1649,690.21,739.76" style="stroke:#003366;stroke-width:1.0;"/><text fill="#003366" font-family="sans-serif" font-size="12" lengthAdjust="spacing" textLength="40" x="647.5" y="674.8281">g&#233;n&#232;re</text></g><!--SRC=[XLBDZfim4BxdATpRLjNs0N9O2H4Y4IMGGeZKKsHWDhLanWZRaQAgxxDv3bwi0si8o-wsEH3FDt_Vp3TV11RIbi2qkKhuNjjABXQ0jcAfiWQGOm6fuSPgzdl1wESdGH3qh_tMYy9rwAnDblmyUUjru1zU0J-EZl6FpBc3wEJ7MPBsnY58Tc4qU8xUTeZoj_4XIvpXHL6sfVSVHsW5XT12OT0PhsIyrIvCxw-JTmnywfCan2AC8-VQKEEehrD8hlLaCbVc6nDec2YTKN83_MTFqVmC3ZQY0lOBR0ChoAsPP9Q4mKuWbTKEVhSztVqDIRNaA9u5D0zV7S8HhUpjEqqkvISCjMa4dXcgwYsGyuuaJhaLlEQ5CCCGkL8IEB9Iw5gXoENWk43JCrevXv2KDAMpWoflO6ERAt6wmy65Iqjj5NvCzLagReZfoC1HLRc6vj8d3Zjx8t3fZ1blwYPAW7l_FQqIgM0AMdzAmlMK8WSvJZpAF9Lp1DS2_oFbIC5NU575FtRWsfjhFPS1AFCA0te6X6OuWlbWZuzFqyjTiaAX4PtO4xGFwkzcoJGDqjuQHNT54z6MPt4JGRjYLQrqUwDGc0TE95uoYjBjo_kWwHAMxDpUi7rfOF4N]--></g></svg>