<?xml version="1.0" encoding="us-ascii" standalone="no"?><svg xmlns="http://www.w3.org/2000/svg" xmlns:xlink="http://www.w3.org/1999/xlink" contentStyleType="text/css" height="602px" preserveAspectRatio="none" style="width:791px;height:602px;background:#FFFFFF;" version="1.1" viewBox="0 0 791 602" width="791px" zoomAndPan="magnify"><defs/><g><!--class RoleEnum--><g id="elem_RoleEnum"><rect codeLine="21" fill="#F2F4F7" height="124.2717" id="RoleEnum" rx="2.5" ry="2.5" style="stroke:#003366;stroke-width:1.0;" width="142" x="7" y="64.5"/><ellipse cx="40.9" cy="80.5" fill="#EB937F" rx="11" ry="11" style="stroke:#003366;stroke-width:1.0;"/><path d="M45.0094,86.5 L37.2906,86.5 L37.2906,74.1094 L45.0094,74.1094 L45.0094,76.2656 L39.7438,76.2656 L39.7438,78.9375 L44.5094,78.9375 L44.5094,81.0938 L39.7438,81.0938 L39.7438,84.3438 L45.0094,84.3438 L45.0094,86.5 Z " fill="#000000"/><text fill="#000000" font-family="sans-serif" font-size="14" lengthAdjust="spacing" textLength="68" x="59.1" y="85.932">RoleEnum</text><line style="stroke:#003366;stroke-width:1.0;" x1="8" x2="148" y1="96.5" y2="96.5"/><text fill="#000000" font-family="sans-serif" font-size="14" lengthAdjust="spacing" textLength="130" x="13" y="115.4659">+ADMINISTRATEUR</text><text fill="#000000" font-family="sans-serif" font-size="14" lengthAdjust="spacing" textLength="118" x="13" y="134.5339">+COORDINATEUR</text><text fill="#000000" font-family="sans-serif" font-size="14" lengthAdjust="spacing" textLength="97" x="13" y="153.6018">+ENSEIGNANT</text><text fill="#000000" font-family="sans-serif" font-size="14" lengthAdjust="spacing" textLength="77" x="13" y="172.6697">+ETUDIANT</text><line style="stroke:#003366;stroke-width:1.0;" x1="8" x2="148" y1="180.7717" y2="180.7717"/></g><!--class JuryRole--><g id="elem_JuryRole"><rect codeLine="28" fill="#F2F4F7" height="124.2717" id="JuryRole" rx="2.5" ry="2.5" style="stroke:#003366;stroke-width:1.0;" width="118" x="184" y="64.5"/><ellipse cx="212.95" cy="80.5" fill="#EB937F" rx="11" ry="11" style="stroke:#003366;stroke-width:1.0;"/><path d="M217.0594,86.5 L209.3406,86.5 L209.3406,74.1094 L217.0594,74.1094 L217.0594,76.2656 L211.7938,76.2656 L211.7938,78.9375 L216.5594,78.9375 L216.5594,81.0938 L211.7938,81.0938 L211.7938,84.3438 L217.0594,84.3438 L217.0594,86.5 Z " fill="#000000"/><text fill="#000000" font-family="sans-serif" font-size="14" lengthAdjust="spacing" textLength="55" x="230.05" y="85.932">JuryRole</text><line style="stroke:#003366;stroke-width:1.0;" x1="185" x2="301" y1="96.5" y2="96.5"/><text fill="#000000" font-family="sans-serif" font-size="14" lengthAdjust="spacing" textLength="83" x="190" y="115.4659">+PRESIDENT</text><text fill="#000000" font-family="sans-serif" font-size="14" lengthAdjust="spacing" textLength="97" x="190" y="134.5339">+RAPPORTEUR</text><text fill="#000000" font-family="sans-serif" font-size="14" lengthAdjust="spacing" textLength="106" x="190" y="153.6018">+EXAMINATEUR</text><text fill="#000000" font-family="sans-serif" font-size="14" lengthAdjust="spacing" textLength="92" x="190" y="172.6697">+ENCADRANT</text><line style="stroke:#003366;stroke-width:1.0;" x1="185" x2="301" y1="180.7717" y2="180.7717"/></g><!--class Utilisateur--><g id="elem_Utilisateur"><rect codeLine="35" fill="#F2F4F7" height="238.6792" id="Utilisateur" rx="2.5" ry="2.5" style="stroke:#003366;stroke-width:1.0;" width="222" x="337" y="7"/><ellipse cx="410.75" cy="23" fill="#A9DCDF" rx="11" ry="11" style="stroke:#003366;stroke-width:1.0;"/><path d="M410.8594,18.3438 L409.7031,23.4219 L412.0313,23.4219 L410.8594,18.3438 Z M409.375,16.1094 L412.3594,16.1094 L415.7188,28.5 L413.2656,28.5 L412.5,25.4375 L409.2188,25.4375 L408.4688,28.5 L406.0313,28.5 L409.375,16.1094 Z " fill="#000000"/><text fill="#000000" font-family="sans-serif" font-size="14" font-style="italic" lengthAdjust="spacing" textLength="66" x="431.25" y="28.432">Utilisateur</text><line style="stroke:#003366;stroke-width:1.0;" x1="338" x2="558" y1="39" y2="39"/><text fill="#000000" font-family="sans-serif" font-size="14" lengthAdjust="spacing" textLength="43" x="343" y="57.9659">+int id</text><text fill="#000000" font-family="sans-serif" font-size="14" lengthAdjust="spacing" textLength="82" x="343" y="77.0339">+string nom</text><text fill="#000000" font-family="sans-serif" font-size="14" lengthAdjust="spacing" textLength="105" x="343" y="96.1018">+string prenom</text><text fill="#000000" font-family="sans-serif" font-size="14" lengthAdjust="spacing" textLength="89" x="343" y="115.1697">+string email</text><text fill="#000000" font-family="sans-serif" font-size="14" lengthAdjust="spacing" textLength="134" x="343" y="134.2376">+string motDePasse</text><text fill="#000000" font-family="sans-serif" font-size="14" lengthAdjust="spacing" textLength="106" x="343" y="153.3055">+RoleEnum role</text><text fill="#000000" font-family="sans-serif" font-size="14" lengthAdjust="spacing" textLength="95" x="343" y="172.3734">+boolean actif</text><line style="stroke:#003366;stroke-width:1.0;" x1="338" x2="558" y1="180.4754" y2="180.4754"/><text fill="#000000" font-family="sans-serif" font-size="14" lengthAdjust="spacing" textLength="210" x="343" y="199.4414">+seConnecter(email, password)</text><text fill="#000000" font-family="sans-serif" font-size="14" lengthAdjust="spacing" textLength="116" x="343" y="218.5093">+seDeconnecter()</text><text fill="#000000" font-family="sans-serif" font-size="14" lengthAdjust="spacing" textLength="108" x="343" y="237.5772">+modifierProfil()</text></g><!--class Administrateur--><g id="elem_Administrateur"><rect codeLine="48" fill="#F2F4F7" height="105.2038" id="Administrateur" rx="2.5" ry="2.5" style="stroke:#003366;stroke-width:1.0;" width="138" x="94" y="325"/><ellipse cx="110.8" cy="341" fill="#ADD1B2" rx="11" ry="11" style="stroke:#003366;stroke-width:1.0;"/><path d="M113.7688,346.6406 Q113.1906,346.9375 112.55,347.0781 Q111.9094,347.2344 111.2063,347.2344 Q108.7063,347.2344 107.3781,345.5938 Q106.0656,343.9375 106.0656,340.8125 Q106.0656,337.6875 107.3781,336.0313 Q108.7063,334.375 111.2063,334.375 Q111.9094,334.375 112.55,334.5313 Q113.2063,334.6875 113.7688,334.9844 L113.7688,337.7031 Q113.1438,337.125 112.55,336.8594 Q111.9563,336.5781 111.3313,336.5781 Q109.9875,336.5781 109.3,337.6563 Q108.6125,338.7188 108.6125,340.8125 Q108.6125,342.9063 109.3,343.9844 Q109.9875,345.0469 111.3313,345.0469 Q111.9563,345.0469 112.55,344.7813 Q113.1438,344.5 113.7688,343.9219 L113.7688,346.6406 Z " fill="#000000"/><text fill="#000000" font-family="sans-serif" font-size="14" lengthAdjust="spacing" textLength="102" x="125.2" y="346.432">Administrateur</text><line style="stroke:#003366;stroke-width:1.0;" x1="95" x2="231" y1="357" y2="357"/><line style="stroke:#003366;stroke-width:1.0;" x1="95" x2="231" y1="365" y2="365"/><text fill="#000000" font-family="sans-serif" font-size="14" lengthAdjust="spacing" textLength="112" x="100" y="383.9659">+gererComptes()</text><text fill="#000000" font-family="sans-serif" font-size="14" lengthAdjust="spacing" textLength="126" x="100" y="403.0339">+configurerSalles()</text><text fill="#000000" font-family="sans-serif" font-size="14" lengthAdjust="spacing" textLength="119" x="100" y="422.1018">+definirPeriodes()</text></g><!--class Coordinateur--><g id="elem_Coordinateur"><rect codeLine="54" fill="#F2F4F7" height="105.2038" id="Coordinateur" rx="2.5" ry="2.5" style="stroke:#003366;stroke-width:1.0;" width="158" x="267" y="325"/><ellipse cx="298.65" cy="341" fill="#ADD1B2" rx="11" ry="11" style="stroke:#003366;stroke-width:1.0;"/><path d="M301.6188,346.6406 Q301.0406,346.9375 300.4,347.0781 Q299.7594,347.2344 299.0563,347.2344 Q296.5563,347.2344 295.2281,345.5938 Q293.9156,343.9375 293.9156,340.8125 Q293.9156,337.6875 295.2281,336.0313 Q296.5563,334.375 299.0563,334.375 Q299.7594,334.375 300.4,334.5313 Q301.0563,334.6875 301.6188,334.9844 L301.6188,337.7031 Q300.9938,337.125 300.4,336.8594 Q299.8063,336.5781 299.1813,336.5781 Q297.8375,336.5781 297.15,337.6563 Q296.4625,338.7188 296.4625,340.8125 Q296.4625,342.9063 297.15,343.9844 Q297.8375,345.0469 299.1813,345.0469 Q299.8063,345.0469 300.4,344.7813 Q300.9938,344.5 301.6188,343.9219 L301.6188,346.6406 Z " fill="#000000"/><text fill="#000000" font-family="sans-serif" font-size="14" lengthAdjust="spacing" textLength="89" x="316.35" y="346.432">Coordinateur</text><line style="stroke:#003366;stroke-width:1.0;" x1="268" x2="424" y1="357" y2="357"/><line style="stroke:#003366;stroke-width:1.0;" x1="268" x2="424" y1="365" y2="365"/><text fill="#000000" font-family="sans-serif" font-size="14" lengthAdjust="spacing" textLength="102" x="273" y="383.9659">+creerSession()</text><text fill="#000000" font-family="sans-serif" font-size="14" lengthAdjust="spacing" textLength="122" x="273" y="403.0339">+validerPlanning()</text><text fill="#000000" font-family="sans-serif" font-size="14" lengthAdjust="spacing" textLength="146" x="273" y="422.1018">+genererDocuments()</text></g><!--class Enseignant--><g id="elem_Enseignant"><rect codeLine="60" fill="#F2F4F7" height="143.3396" id="Enseignant" rx="2.5" ry="2.5" style="stroke:#003366;stroke-width:1.0;" width="180" x="460" y="306"/><ellipse cx="507.75" cy="322" fill="#ADD1B2" rx="11" ry="11" style="stroke:#003366;stroke-width:1.0;"/><path d="M510.7188,327.6406 Q510.1406,327.9375 509.5,328.0781 Q508.8594,328.2344 508.1563,328.2344 Q505.6563,328.2344 504.3281,326.5938 Q503.0156,324.9375 503.0156,321.8125 Q503.0156,318.6875 504.3281,317.0313 Q505.6563,315.375 508.1563,315.375 Q508.8594,315.375 509.5,315.5313 Q510.1563,315.6875 510.7188,315.9844 L510.7188,318.7031 Q510.0938,318.125 509.5,317.8594 Q508.9063,317.5781 508.2813,317.5781 Q506.9375,317.5781 506.25,318.6563 Q505.5625,319.7188 505.5625,321.8125 Q505.5625,323.9063 506.25,324.9844 Q506.9375,326.0469 508.2813,326.0469 Q508.9063,326.0469 509.5,325.7813 Q510.0938,325.5 510.7188,324.9219 L510.7188,327.6406 Z " fill="#000000"/><text fill="#000000" font-family="sans-serif" font-size="14" lengthAdjust="spacing" textLength="76" x="528.25" y="327.432">Enseignant</text><line style="stroke:#003366;stroke-width:1.0;" x1="461" x2="639" y1="338" y2="338"/><text fill="#000000" font-family="sans-serif" font-size="14" lengthAdjust="spacing" textLength="92" x="466" y="356.9659">+string grade</text><text fill="#000000" font-family="sans-serif" font-size="14" lengthAdjust="spacing" textLength="116" x="466" y="376.0339">+string specialite</text><text fill="#000000" font-family="sans-serif" font-size="14" lengthAdjust="spacing" textLength="140" x="466" y="395.1018">+string departement</text><line style="stroke:#003366;stroke-width:1.0;" x1="461" x2="639" y1="403.2038" y2="403.2038"/><text fill="#000000" font-family="sans-serif" font-size="14" lengthAdjust="spacing" textLength="168" x="466" y="422.1697">+consulterConvocations()</text><text fill="#000000" font-family="sans-serif" font-size="14" lengthAdjust="spacing" textLength="130" x="466" y="441.2376">+getDisponibilites()</text></g><!--class Etudiant--><g id="elem_Etudiant"><rect codeLine="68" fill="#F2F4F7" height="105.2038" id="Etudiant" rx="2.5" ry="2.5" style="stroke:#003366;stroke-width:1.0;" width="109" x="675.5" y="325"/><ellipse cx="699.5" cy="341" fill="#ADD1B2" rx="11" ry="11" style="stroke:#003366;stroke-width:1.0;"/><path d="M702.4688,346.6406 Q701.8906,346.9375 701.25,347.0781 Q700.6094,347.2344 699.9063,347.2344 Q697.4063,347.2344 696.0781,345.5938 Q694.7656,343.9375 694.7656,340.8125 Q694.7656,337.6875 696.0781,336.0313 Q697.4063,334.375 699.9063,334.375 Q700.6094,334.375 701.25,334.5313 Q701.9063,334.6875 702.4688,334.9844 L702.4688,337.7031 Q701.8438,337.125 701.25,336.8594 Q700.6563,336.5781 700.0313,336.5781 Q698.6875,336.5781 698,337.6563 Q697.3125,338.7188 697.3125,340.8125 Q697.3125,342.9063 698,343.9844 Q698.6875,345.0469 700.0313,345.0469 Q700.6563,345.0469 701.25,344.7813 Q701.8438,344.5 702.4688,343.9219 L702.4688,346.6406 Z " fill="#000000"/><text fill="#000000" font-family="sans-serif" font-size="14" lengthAdjust="spacing" textLength="57" x="715.5" y="346.432">Etudiant</text><line style="stroke:#003366;stroke-width:1.0;" x1="676.5" x2="783.5" y1="357" y2="357"/><text fill="#000000" font-family="sans-serif" font-size="14" lengthAdjust="spacing" textLength="76" x="681.5" y="375.9659">+string cne</text><text fill="#000000" font-family="sans-serif" font-size="14" lengthAdjust="spacing" textLength="91" x="681.5" y="395.0339">+string filiere</text><text fill="#000000" font-family="sans-serif" font-size="14" lengthAdjust="spacing" textLength="97" x="681.5" y="414.1018">+string niveau</text><line style="stroke:#003366;stroke-width:1.0;" x1="676.5" x2="783.5" y1="422.2038" y2="422.2038"/></g><!--class MembreJury--><g id="elem_MembreJury"><rect codeLine="74" fill="#F2F4F7" height="86.1358" id="MembreJury" rx="2.5" ry="2.5" style="stroke:#003366;stroke-width:1.0;" width="131" x="484.5" y="509"/><ellipse cx="506.7" cy="525" fill="#ADD1B2" rx="11" ry="11" style="stroke:#003366;stroke-width:1.0;"/><path d="M509.6688,530.6406 Q509.0906,530.9375 508.45,531.0781 Q507.8094,531.2344 507.1063,531.2344 Q504.6063,531.2344 503.2781,529.5938 Q501.9656,527.9375 501.9656,524.8125 Q501.9656,521.6875 503.2781,520.0313 Q504.6063,518.375 507.1063,518.375 Q507.8094,518.375 508.45,518.5313 Q509.1063,518.6875 509.6688,518.9844 L509.6688,521.7031 Q509.0438,521.125 508.45,520.8594 Q507.8563,520.5781 507.2313,520.5781 Q505.8875,520.5781 505.2,521.6563 Q504.5125,522.7188 504.5125,524.8125 Q504.5125,526.9063 505.2,527.9844 Q505.8875,529.0469 507.2313,529.0469 Q507.8563,529.0469 508.45,528.7813 Q509.0438,528.5 509.6688,527.9219 L509.6688,530.6406 Z " fill="#000000"/><text fill="#000000" font-family="sans-serif" font-size="14" lengthAdjust="spacing" textLength="83" x="522.3" y="530.432">MembreJury</text><line style="stroke:#003366;stroke-width:1.0;" x1="485.5" x2="614.5" y1="541" y2="541"/><text fill="#000000" font-family="sans-serif" font-size="14" lengthAdjust="spacing" textLength="119" x="490.5" y="559.9659">+JuryRole roleJury</text><text fill="#000000" font-family="sans-serif" font-size="14" lengthAdjust="spacing" textLength="118" x="490.5" y="579.0339">+boolean present</text><line style="stroke:#003366;stroke-width:1.0;" x1="485.5" x2="614.5" y1="587.1358" y2="587.1358"/></g><!--reverse link Utilisateur to Administrateur--><g id="link_Utilisateur_Administrateur"><path codeLine="79" d="M323.5569,242.9537 C317.8469,248.0637 325.58,241.11 320,246 C289.76,272.53 255.47,301.19 226.67,324.87 " fill="none" id="Utilisateur-backto-Administrateur" style="stroke:#003366;stroke-width:1.0;"/><polygon fill="none" points="336.97,230.95,319.5557,238.4826,327.5581,247.4247,336.97,230.95" style="stroke:#003366;stroke-width:1.0;"/></g><!--reverse link Utilisateur to Coordinateur--><g id="link_Utilisateur_Coordinateur"><path codeLine="80" d="M392.5662,262.8264 C381.2262,290.5064 376.55,301.92 367.15,324.88 " fill="none" id="Utilisateur-backto-Coordinateur" style="stroke:#003366;stroke-width:1.0;"/><polygon fill="none" points="399.39,246.17,387.014,260.5518,398.1183,265.101,399.39,246.17" style="stroke:#003366;stroke-width:1.0;"/></g><!--reverse link Utilisateur to Enseignant--><g id="link_Utilisateur_Enseignant"><path codeLine="81" d="M503.4327,262.8269 C511.7927,283.2369 513.42,287.21 521.06,305.84 " fill="none" id="Utilisateur-backto-Enseignant" style="stroke:#003366;stroke-width:1.0;"/><polygon fill="none" points="496.61,246.17,497.8804,265.1011,508.985,260.5526,496.61,246.17" style="stroke:#003366;stroke-width:1.0;"/></g><!--reverse link Utilisateur to Etudiant--><g id="link_Utilisateur_Etudiant"><path codeLine="82" d="M572.7982,231.042 C605.1082,258.442 626.45,277.21 658,306 C664.59,312.01 671.41,318.43 678.11,324.85 " fill="none" id="Utilisateur-backto-Etudiant" style="stroke:#003366;stroke-width:1.0;"/><polygon fill="none" points="559.07,219.4,568.9175,235.6181,576.6789,226.4659,559.07,219.4" style="stroke:#003366;stroke-width:1.0;"/></g><!--reverse link Enseignant to MembreJury--><g id="link_Enseignant_MembreJury"><path codeLine="83" d="M550,467.16 C550,487.44 550,490.92 550,508.89 " fill="none" id="Enseignant-backto-MembreJury" style="stroke:#003366;stroke-width:1.0;"/><polygon fill="none" points="550,449.16,544,467.16,556,467.16,550,449.16" style="stroke:#003366;stroke-width:1.0;"/></g><!--SRC=[RPFVRzCm4CVV-rTOuWK44uEXyJ8XXIQ58DP5QIVnwiRNx3JdNDdEfW7zttTEKpTf6ocI_JtxSpzzu_oBXcyJ8QmnNlpZXH0pGtvgjB7YpMNtTUfl98ZgrTNrTLIN3rWz4ZWdFh6svR_IadSxsdTPFTRMjAJwsxFFio-phvtj9qW5zkJ4W7y-bjszWMtMVPsja4eXrUAwZqLQQvxxMCxbi9tSVEohu1wHDjBAHhW7gSnpmAobTZ2mTAabtbjSjHxooj02_uAud4o0saQKHaCM5Zk7xqMItkRpVB4iasLsN_RYzEwkJFFvKChcYop_CK_coxsml4_piDtsw5-jVGduY2xAR96dMRnH9aLnLmQcs3F-9BV7RgP9MlPOkNBUoiht_RhtgD593wsDFf2yGDLl-7Ge2PbcB6mid6ZGIDHZgJ4-XO8zmJxWVR4iBtfjPNWjIN1OkDxVvwOHGUN1lksu7yI6CS_6gdVnI0fLFBHN6wDmZM0BQzQeMUQaTxacga72aFuetHeisAbfDXvSf31tZNNBbeNKUc1Gi6Q8BS2YKPqU-LF3mI6DwPK5Pl13GKCHyYGryZ0NMX9nbQ9U0uLWKbEr3P0VqJDoW3L9yf7TrxYs_3B6ajj0XUp47-aAUA8z1FWXKTTg7of0JwQIdkDqWu1yYcvZ25SOQEE8VAlmJ3mL7NdbFd13ZaJ29v3jWNOBpSf26FZ8YzCVPYLiZkQ5Pz25J9WndEER_nSNHyq-jG-RTMez5FkChKzxCkX8PpXaC7a5]--></g></svg>