<?xml version="1.0" encoding="us-ascii" standalone="no"?><svg xmlns="http://www.w3.org/2000/svg" xmlns:xlink="http://www.w3.org/1999/xlink" contentStyleType="text/css" height="1076px" preserveAspectRatio="none" style="width:1489px;height:1076px;background:#FFFFFF;" version="1.1" viewBox="0 0 1489 1076" width="1489px" zoomAndPan="magnify"><defs/><g><!--cluster Frontend--><g id="cluster_Frontend"><rect fill="none" height="229" rx="2.5" ry="2.5" style="stroke:#003366;stroke-width:1.0;" width="700" x="7" y="7"/><text fill="#000000" font-family="sans-serif" font-size="14" font-weight="bold" lengthAdjust="spacing" textLength="171" x="271.5" y="23.9659">Couche Frontend (React)</text></g><!--cluster Backend--><g id="cluster_Backend"><rect fill="none" height="458" rx="2.5" ry="2.5" style="stroke:#003366;stroke-width:1.0;" width="726" x="110" y="371"/><text fill="#000000" font-family="sans-serif" font-size="14" font-weight="bold" lengthAdjust="spacing" textLength="253" x="346.5" y="387.9659">Couche Backend (Spring Boot / Java)</text></g><!--cluster Services--><g id="cluster_Services"><rect fill="none" height="284" rx="2.5" ry="2.5" style="stroke:#003366;stroke-width:1.0;" width="662" x="142" y="513"/><text fill="#000000" font-family="sans-serif" font-size="14" font-weight="bold" lengthAdjust="spacing" textLength="105" x="420.5" y="529.9659">Services M&#233;tier</text></g><!--cluster DB--><g id="cluster_DB"><path d="M868,673 C868,663 1170,663 1170,663 C1170,663 1472,663 1472,673 L1472,1049 C1472,1059 1170,1059 1170,1059 C1170,1059 868,1059 868,1049 L868,673 " fill="#F2F4F7" style="stroke:#003366;stroke-width:1.0;"/><path d="M868,673 C868,683 1170,683 1170,683 C1170,683 1472,683 1472,673 " fill="none" style="stroke:#003366;stroke-width:1.0;"/><text fill="#000000" font-family="sans-serif" font-size="14" font-weight="bold" lengthAdjust="spacing" textLength="178" x="1081" y="699.9659">Base de donn&#233;es (MySQL)</text></g><!--entity F1--><g id="elem_F1"><rect fill="#F2F4F7" height="49.0679" rx="2.5" ry="2.5" style="stroke:#003366;stroke-width:1.0;" width="177" x="30.5" y="53"/><rect fill="#F2F4F7" height="10" style="stroke:#003366;stroke-width:1.0;" width="15" x="187.5" y="58"/><rect fill="#F2F4F7" height="2" style="stroke:#003366;stroke-width:1.0;" width="4" x="185.5" y="60"/><rect fill="#F2F4F7" height="2" style="stroke:#003366;stroke-width:1.0;" width="4" x="185.5" y="64"/><text fill="#000000" font-family="sans-serif" font-size="14" lengthAdjust="spacing" textLength="137" x="45.5" y="87.9659">Module Auth / Login</text></g><!--entity F2--><g id="elem_F2"><rect fill="#F2F4F7" height="49.0679" rx="2.5" ry="2.5" style="stroke:#003366;stroke-width:1.0;" width="151" x="242.5" y="53"/><rect fill="#F2F4F7" height="10" style="stroke:#003366;stroke-width:1.0;" width="15" x="373.5" y="58"/><rect fill="#F2F4F7" height="2" style="stroke:#003366;stroke-width:1.0;" width="4" x="371.5" y="60"/><rect fill="#F2F4F7" height="2" style="stroke:#003366;stroke-width:1.0;" width="4" x="371.5" y="64"/><text fill="#000000" font-family="sans-serif" font-size="14" lengthAdjust="spacing" textLength="111" x="257.5" y="87.9659">Tableau de bord</text></g><!--entity F3--><g id="elem_F3"><rect fill="#F2F4F7" height="49.0679" rx="2.5" ry="2.5" style="stroke:#003366;stroke-width:1.0;" width="223" x="428.5" y="53"/><rect fill="#F2F4F7" height="10" style="stroke:#003366;stroke-width:1.0;" width="15" x="631.5" y="58"/><rect fill="#F2F4F7" height="2" style="stroke:#003366;stroke-width:1.0;" width="4" x="629.5" y="60"/><rect fill="#F2F4F7" height="2" style="stroke:#003366;stroke-width:1.0;" width="4" x="629.5" y="64"/><text fill="#000000" font-family="sans-serif" font-size="14" lengthAdjust="spacing" textLength="183" x="443.5" y="87.9659">Gestion &#201;tudiants &amp; Projets</text></g><!--entity F4--><g id="elem_F4"><rect fill="#F2F4F7" height="49.0679" rx="2.5" ry="2.5" style="stroke:#003366;stroke-width:1.0;" width="174" x="31" y="163"/><rect fill="#F2F4F7" height="10" style="stroke:#003366;stroke-width:1.0;" width="15" x="185" y="168"/><rect fill="#F2F4F7" height="2" style="stroke:#003366;stroke-width:1.0;" width="4" x="183" y="170"/><rect fill="#F2F4F7" height="2" style="stroke:#003366;stroke-width:1.0;" width="4" x="183" y="174"/><text fill="#000000" font-family="sans-serif" font-size="14" lengthAdjust="spacing" textLength="134" x="46" y="197.9659">Planification &amp; Jurys</text></g><!--entity F5--><g id="elem_F5"><rect fill="#F2F4F7" height="49.0679" rx="2.5" ry="2.5" style="stroke:#003366;stroke-width:1.0;" width="165" x="240.5" y="163"/><rect fill="#F2F4F7" height="10" style="stroke:#003366;stroke-width:1.0;" width="15" x="385.5" y="168"/><rect fill="#F2F4F7" height="2" style="stroke:#003366;stroke-width:1.0;" width="4" x="383.5" y="170"/><rect fill="#F2F4F7" height="2" style="stroke:#003366;stroke-width:1.0;" width="4" x="383.5" y="174"/><text fill="#000000" font-family="sans-serif" font-size="14" lengthAdjust="spacing" textLength="125" x="255.5" y="197.9659">Module &#201;valuation</text></g><!--entity F6--><g id="elem_F6"><rect fill="#F2F4F7" height="49.0679" rx="2.5" ry="2.5" style="stroke:#003366;stroke-width:1.0;" width="234" x="441" y="163"/><rect fill="#F2F4F7" height="10" style="stroke:#003366;stroke-width:1.0;" width="15" x="655" y="168"/><rect fill="#F2F4F7" height="2" style="stroke:#003366;stroke-width:1.0;" width="4" x="653" y="170"/><rect fill="#F2F4F7" height="2" style="stroke:#003366;stroke-width:1.0;" width="4" x="653" y="174"/><text fill="#000000" font-family="sans-serif" font-size="14" lengthAdjust="spacing" textLength="194" x="456" y="197.9659">Module Documents / Exports</text></g><!--entity B1--><g id="elem_B1"><rect fill="#F2F4F7" height="49.0679" rx="2.5" ry="2.5" style="stroke:#003366;stroke-width:1.0;" width="185" x="635.5" y="409"/><rect fill="#F2F4F7" height="10" style="stroke:#003366;stroke-width:1.0;" width="15" x="800.5" y="414"/><rect fill="#F2F4F7" height="2" style="stroke:#003366;stroke-width:1.0;" width="4" x="798.5" y="416"/><rect fill="#F2F4F7" height="2" style="stroke:#003366;stroke-width:1.0;" width="4" x="798.5" y="420"/><text fill="#000000" font-family="sans-serif" font-size="14" lengthAdjust="spacing" textLength="145" x="650.5" y="443.9659">API REST (Controllers)</text></g><!--entity S1--><g id="elem_S1"><rect fill="#F2F4F7" height="49.0679" rx="2.5" ry="2.5" style="stroke:#003366;stroke-width:1.0;" width="146" x="181" y="559"/><rect fill="#F2F4F7" height="10" style="stroke:#003366;stroke-width:1.0;" width="15" x="307" y="564"/><rect fill="#F2F4F7" height="2" style="stroke:#003366;stroke-width:1.0;" width="4" x="305" y="566"/><rect fill="#F2F4F7" height="2" style="stroke:#003366;stroke-width:1.0;" width="4" x="305" y="570"/><text fill="#000000" font-family="sans-serif" font-size="14" lengthAdjust="spacing" textLength="106" x="196" y="593.9659">Security Service</text></g><!--entity S2--><g id="elem_S2"><rect fill="#F2F4F7" height="49.0679" rx="2.5" ry="2.5" style="stroke:#003366;stroke-width:1.0;" width="152" x="362" y="559"/><rect fill="#F2F4F7" height="10" style="stroke:#003366;stroke-width:1.0;" width="15" x="494" y="564"/><rect fill="#F2F4F7" height="2" style="stroke:#003366;stroke-width:1.0;" width="4" x="492" y="566"/><rect fill="#F2F4F7" height="2" style="stroke:#003366;stroke-width:1.0;" width="4" x="492" y="570"/><text fill="#000000" font-family="sans-serif" font-size="14" lengthAdjust="spacing" textLength="112" x="377" y="593.9659">Planning Service</text></g><!--entity S3--><g id="elem_S3"><rect fill="#F2F4F7" height="49.0679" rx="2.5" ry="2.5" style="stroke:#003366;stroke-width:1.0;" width="211" x="549.5" y="559"/><rect fill="#F2F4F7" height="10" style="stroke:#003366;stroke-width:1.0;" width="15" x="740.5" y="564"/><rect fill="#F2F4F7" height="2" style="stroke:#003366;stroke-width:1.0;" width="4" x="738.5" y="566"/><rect fill="#F2F4F7" height="2" style="stroke:#003366;stroke-width:1.0;" width="4" x="738.5" y="570"/><text fill="#000000" font-family="sans-serif" font-size="14" lengthAdjust="spacing" textLength="171" x="564.5" y="593.9659">Conflict Detection Service</text></g><!--entity S4--><g id="elem_S4"><rect fill="#F2F4F7" height="49.0679" rx="2.5" ry="2.5" style="stroke:#003366;stroke-width:1.0;" width="212" x="166" y="724"/><rect fill="#F2F4F7" height="10" style="stroke:#003366;stroke-width:1.0;" width="15" x="358" y="729"/><rect fill="#F2F4F7" height="2" style="stroke:#003366;stroke-width:1.0;" width="4" x="356" y="731"/><rect fill="#F2F4F7" height="2" style="stroke:#003366;stroke-width:1.0;" width="4" x="356" y="735"/><text fill="#000000" font-family="sans-serif" font-size="14" lengthAdjust="spacing" textLength="172" x="181" y="758.9659">Jury Management Service</text></g><!--entity S5--><g id="elem_S5"><rect fill="#F2F4F7" height="49.0679" rx="2.5" ry="2.5" style="stroke:#003366;stroke-width:1.0;" width="162" x="413" y="724"/><rect fill="#F2F4F7" height="10" style="stroke:#003366;stroke-width:1.0;" width="15" x="555" y="729"/><rect fill="#F2F4F7" height="2" style="stroke:#003366;stroke-width:1.0;" width="4" x="553" y="731"/><rect fill="#F2F4F7" height="2" style="stroke:#003366;stroke-width:1.0;" width="4" x="553" y="735"/><text fill="#000000" font-family="sans-serif" font-size="14" lengthAdjust="spacing" textLength="122" x="428" y="758.9659">Evaluation Service</text></g><!--entity S6--><g id="elem_S6"><rect fill="#F2F4F7" height="49.0679" rx="2.5" ry="2.5" style="stroke:#003366;stroke-width:1.0;" width="161" x="610.5" y="724"/><rect fill="#F2F4F7" height="10" style="stroke:#003366;stroke-width:1.0;" width="15" x="751.5" y="729"/><rect fill="#F2F4F7" height="2" style="stroke:#003366;stroke-width:1.0;" width="4" x="749.5" y="731"/><rect fill="#F2F4F7" height="2" style="stroke:#003366;stroke-width:1.0;" width="4" x="749.5" y="735"/><text fill="#000000" font-family="sans-serif" font-size="14" lengthAdjust="spacing" textLength="121" x="625.5" y="758.9659">Document Service</text></g><!--entity T1--><g id="elem_T1"><rect fill="#F2F4F7" height="49.0679" rx="2.5" ry="2.5" style="stroke:#003366;stroke-width:1.0;" width="157" x="911.5" y="724"/><rect fill="#F2F4F7" height="10" style="stroke:#003366;stroke-width:1.0;" width="15" x="1048.5" y="729"/><rect fill="#F2F4F7" height="2" style="stroke:#003366;stroke-width:1.0;" width="4" x="1046.5" y="731"/><rect fill="#F2F4F7" height="2" style="stroke:#003366;stroke-width:1.0;" width="4" x="1046.5" y="735"/><text fill="#000000" font-family="sans-serif" font-size="14" lengthAdjust="spacing" textLength="117" x="926.5" y="758.9659">Table utilisateurs</text></g><!--entity T2--><g id="elem_T2"><rect fill="#F2F4F7" height="49.0679" rx="2.5" ry="2.5" style="stroke:#003366;stroke-width:1.0;" width="145" x="1103.5" y="724"/><rect fill="#F2F4F7" height="10" style="stroke:#003366;stroke-width:1.0;" width="15" x="1228.5" y="729"/><rect fill="#F2F4F7" height="2" style="stroke:#003366;stroke-width:1.0;" width="4" x="1226.5" y="731"/><rect fill="#F2F4F7" height="2" style="stroke:#003366;stroke-width:1.0;" width="4" x="1226.5" y="735"/><text fill="#000000" font-family="sans-serif" font-size="14" lengthAdjust="spacing" textLength="105" x="1118.5" y="758.9659">Table &#233;tudiants</text></g><!--entity T3--><g id="elem_T3"><rect fill="#F2F4F7" height="49.0679" rx="2.5" ry="2.5" style="stroke:#003366;stroke-width:1.0;" width="164" x="1284" y="724"/><rect fill="#F2F4F7" height="10" style="stroke:#003366;stroke-width:1.0;" width="15" x="1428" y="729"/><rect fill="#F2F4F7" height="2" style="stroke:#003366;stroke-width:1.0;" width="4" x="1426" y="731"/><rect fill="#F2F4F7" height="2" style="stroke:#003366;stroke-width:1.0;" width="4" x="1426" y="735"/><text fill="#000000" font-family="sans-serif" font-size="14" lengthAdjust="spacing" textLength="124" x="1299" y="758.9659">Table enseignants</text></g><!--entity T4--><g id="elem_T4"><rect fill="#F2F4F7" height="49.0679" rx="2.5" ry="2.5" style="stroke:#003366;stroke-width:1.0;" width="128" x="926" y="876"/><rect fill="#F2F4F7" height="10" style="stroke:#003366;stroke-width:1.0;" width="15" x="1034" y="881"/><rect fill="#F2F4F7" height="2" style="stroke:#003366;stroke-width:1.0;" width="4" x="1032" y="883"/><rect fill="#F2F4F7" height="2" style="stroke:#003366;stroke-width:1.0;" width="4" x="1032" y="887"/><text fill="#000000" font-family="sans-serif" font-size="14" lengthAdjust="spacing" textLength="88" x="941" y="910.9659">Table projets</text></g><!--entity T5--><g id="elem_T5"><rect fill="#F2F4F7" height="49.0679" rx="2.5" ry="2.5" style="stroke:#003366;stroke-width:1.0;" width="119" x="1089.5" y="876"/><rect fill="#F2F4F7" height="10" style="stroke:#003366;stroke-width:1.0;" width="15" x="1188.5" y="881"/><rect fill="#F2F4F7" height="2" style="stroke:#003366;stroke-width:1.0;" width="4" x="1186.5" y="883"/><rect fill="#F2F4F7" height="2" style="stroke:#003366;stroke-width:1.0;" width="4" x="1186.5" y="887"/><text fill="#000000" font-family="sans-serif" font-size="14" lengthAdjust="spacing" textLength="79" x="1104.5" y="910.9659">Table salles</text></g><!--entity T6--><g id="elem_T6"><rect fill="#F2F4F7" height="49.0679" rx="2.5" ry="2.5" style="stroke:#003366;stroke-width:1.0;" width="166" x="1244" y="876"/><rect fill="#F2F4F7" height="10" style="stroke:#003366;stroke-width:1.0;" width="15" x="1390" y="881"/><rect fill="#F2F4F7" height="2" style="stroke:#003366;stroke-width:1.0;" width="4" x="1388" y="883"/><rect fill="#F2F4F7" height="2" style="stroke:#003366;stroke-width:1.0;" width="4" x="1388" y="887"/><text fill="#000000" font-family="sans-serif" font-size="14" lengthAdjust="spacing" textLength="126" x="1259" y="910.9659">Table soutenances</text></g><!--entity T7--><g id="elem_T7"><rect fill="#F2F4F7" height="49.0679" rx="2.5" ry="2.5" style="stroke:#003366;stroke-width:1.0;" width="158" x="911" y="986"/><rect fill="#F2F4F7" height="10" style="stroke:#003366;stroke-width:1.0;" width="15" x="1049" y="991"/><rect fill="#F2F4F7" height="2" style="stroke:#003366;stroke-width:1.0;" width="4" x="1047" y="993"/><rect fill="#F2F4F7" height="2" style="stroke:#003366;stroke-width:1.0;" width="4" x="1047" y="997"/><text fill="#000000" font-family="sans-serif" font-size="14" lengthAdjust="spacing" textLength="118" x="926" y="1020.9659">Table &#233;valuations</text></g><!--entity T8--><g id="elem_T8"><rect fill="#F2F4F7" height="49.0679" rx="2.5" ry="2.5" style="stroke:#003366;stroke-width:1.0;" width="168" x="1104" y="986"/><rect fill="#F2F4F7" height="10" style="stroke:#003366;stroke-width:1.0;" width="15" x="1252" y="991"/><rect fill="#F2F4F7" height="2" style="stroke:#003366;stroke-width:1.0;" width="4" x="1250" y="993"/><rect fill="#F2F4F7" height="2" style="stroke:#003366;stroke-width:1.0;" width="4" x="1250" y="997"/><text fill="#000000" font-family="sans-serif" font-size="14" lengthAdjust="spacing" textLength="128" x="1119" y="1020.9659">Table convocations</text></g><!--link Frontend to B1--><g id="link_Frontend_B1"><path d="M707.0414,176.6602 C707.3839,180.8412 707.7323,185.0959 708.0858,189.4118 C708.7928,198.0435 709.5198,206.9202 710.2588,215.9413 C716.17,288.11 722.84,369.525 726.06,408.8 " fill="none" id="Frontend-B1" style="stroke:#003366;stroke-width:1.0;"/><text fill="#000000" font-family="sans-serif" font-size="13" lengthAdjust="spacing" textLength="66" x="725" y="281.897">HTTP/REST</text><path d="M725.6387,317.0809 A10,10 0 0 0 711.5437 318.2357" fill="none" style="stroke:#003366;stroke-width:1.5;"/><ellipse cx="719.1686" cy="324.7058" fill="#FFFFFF" rx="6" ry="6" style="stroke:#003366;stroke-width:1.5;"/></g><!--link B1 to Services--><g id="link_B1_Services"><path d="M758.2,458.2 C769.51,468.8 781.24,482.23 788,497 C789.9225,501.2025 791.4967,505.6409 792.7788,510.1965 C792.9391,510.766 793.0948,511.3373 793.246,511.9102 C793.3216,512.1966 791.9104,506.6703 791.9838,506.9575 " fill="none" id="B1-to-Services" style="stroke:#003366;stroke-width:1.0;"/><polygon fill="#003366" points="793.4695,512.7706,795.1163,503.0604,792.2314,507.9264,787.3655,505.0415,793.4695,512.7706" style="stroke:#003366;stroke-width:1.0;"/></g><!--link Services to DB--><g id="link_Services_DB"><path d="M804.115,601.0355 C805.6496,604.1624 807.3619,607.6512 809.2163,611.4295 C816.6338,626.5428 826.325,646.2881 836.015,666.0313 C845.705,685.7744 855.3938,705.5153 862.8063,720.6198 C864.6594,724.396 863.7271,722.4959 865.2601,725.6201 " fill="none" id="Services-to-DB" style="stroke:#003366;stroke-width:1.0;"/><polygon fill="#003366" points="867.9033,731.0065,867.5295,721.1647,865.7007,726.5178,860.3476,724.6889,867.9033,731.0065" style="stroke:#003366;stroke-width:1.0;"/></g><!--SRC=[fLFRRjf047ttLuoe5D47HBYcgg98uTOs0ea6tge-JDO3REFiehsGeeeFoAVaE_YnxdgDiGbvQP6Cx3ddZCTdpbvhiqte9W9GKXhuusu0HbAOlaoaWW-NwI-jZhcWlDfgTRjvTRxYx56Grj1mjPsxX8mfQzP3zhXKqeeu4u-Qe_RewjsMNixaqreA4kOVUm1CCOwvMCAXOum67r3_pr2eb7pEzESvr_NCJVt8nHeLFe5UOIoV_IGBJ3GLaBKR0PSqymfGn0oAPK9HbDMXqfUMhGX6ocs3H0pLUq9cFbO0zR4OnZdwLPd8sBg6jzQie0vZkUGYA1gdp3a-98GMtAOUf8e3gtdA-aBQS2bW_s9ip54O3HSmLV8N6HqahLF9D4715vnXAho0Ewks6RVzphZxbmqcDXK4OkSTua0o-qH-YZeCVw-bEapHZNPllVDhJgsRhPNVGSzdl0vtkC7Wuu7mniRRwJUu7yxcKEqxfvLC4b8wqmGdytVDI6qu8msJ_QlXf59INWoTJxhFY5d5pVP02vB6EQetK_ZPIzJcEQgRT95mPc10nkN9cryIjSw9_79WWi9zYlUrh6YVKmppLPN9dNFamxxAr716Ttvb-S6izFo_2sCiXTY_Ekkga-ti-pYOFkXbJlv8OmlMy8HhD6IL_ka9yqOHTfl8qXh0PX4aeOalnH5j5T5ro7P0saL4eqj11dHAWBJkCA9W1xHRdYKtB8ElYZ2JOYDP4VxaVSbFUArMlQpLNEhWCtoTpwTr7yl8FTPgDtdCeZnllZheHNy1]--></g></svg>