<?xml version="1.0" encoding="us-ascii" standalone="no"?><svg xmlns="http://www.w3.org/2000/svg" xmlns:xlink="http://www.w3.org/1999/xlink" contentStyleType="text/css" height="704px" preserveAspectRatio="none" style="width:474px;height:704px;background:#FFFFFF;" version="1.1" viewBox="0 0 474 704" width="474px" zoomAndPan="magnify"><defs/><g><!--cluster client--><g id="cluster_client"><polygon fill="#F2F4F7" points="115,21,125,11,311,11,311,133,301,143,115,143,115,21" style="stroke:#003366;stroke-width:1.0;"/><line style="stroke:#003366;stroke-width:1.0;" x1="301" x2="311" y1="21" y2="11"/><line style="stroke:#003366;stroke-width:1.0;" x1="115" x2="301" y1="21" y2="21"/><line style="stroke:#003366;stroke-width:1.0;" x1="301" x2="301" y1="21" y2="143"/><text fill="#000000" font-family="sans-serif" font-size="12" font-weight="bold" lengthAdjust="spacing" textLength="100" x="159" y="41.8281">Poste Utilisateur</text></g><!--cluster server--><g id="cluster_server"><polygon fill="#F2F4F7" points="117,213,127,203,454,203,454,479,444,489,117,489,117,213" style="stroke:#003366;stroke-width:1.0;"/><line style="stroke:#003366;stroke-width:1.0;" x1="444" x2="454" y1="213" y2="203"/><line style="stroke:#003366;stroke-width:1.0;" x1="117" x2="444" y1="213" y2="213"/><line style="stroke:#003366;stroke-width:1.0;" x1="444" x2="444" y1="213" y2="489"/><text fill="#000000" font-family="sans-serif" font-size="12" font-weight="bold" lengthAdjust="spacing" textLength="251" x="156" y="233.8281">Serveur d'Application (Cloud/On-premise)</text></g><!--cluster db_server--><g id="cluster_db_server"><polygon fill="#F2F4F7" points="203,559,213,549,457,549,457,677,447,687,203,687,203,559" style="stroke:#003366;stroke-width:1.0;"/><line style="stroke:#003366;stroke-width:1.0;" x1="447" x2="457" y1="559" y2="549"/><line style="stroke:#003366;stroke-width:1.0;" x1="203" x2="447" y1="559" y2="559"/><line style="stroke:#003366;stroke-width:1.0;" x1="447" x2="447" y1="559" y2="687"/><text fill="#000000" font-family="sans-serif" font-size="12" font-weight="bold" lengthAdjust="spacing" textLength="168" x="242" y="579.8281">Serveur de Base de Donn&#233;es</text></g><!--entity browser--><g id="elem_browser"><rect fill="#F1F1F1" height="65.6882" rx="2.5" ry="2.5" style="stroke:#003366;stroke-width:1.0;" width="163" x="131.5" y="61"/><polygon fill="#F1F1F1" points="277.5,66,277.5,80,289.5,80,289.5,72,283.5,66,277.5,66" style="stroke:#003366;stroke-width:1.0;"/><line style="stroke:#003366;stroke-width:1.0;" x1="283.5" x2="283.5" y1="66" y2="72"/><line style="stroke:#003366;stroke-width:1.0;" x1="289.5" x2="283.5" y1="72" y2="72"/><text fill="#000000" font-family="sans-serif" font-size="12" lengthAdjust="spacing" textLength="90" x="146.5" y="91.8281">Navigateur Web</text><text fill="#000000" font-family="sans-serif" font-size="12" lengthAdjust="spacing" textLength="123" x="146.5" y="108.1722">(Chrome, Firefox, etc.)</text></g><!--entity front--><g id="elem_front"><rect fill="#F1F1F1" height="65.6882" rx="2.5" ry="2.5" style="stroke:#003366;stroke-width:1.0;" width="155" x="135.5" y="253"/><polygon fill="#F1F1F1" points="273.5,258,273.5,272,285.5,272,285.5,264,279.5,258,273.5,258" style="stroke:#003366;stroke-width:1.0;"/><line style="stroke:#003366;stroke-width:1.0;" x1="279.5" x2="279.5" y1="258" y2="264"/><line style="stroke:#003366;stroke-width:1.0;" x1="285.5" x2="279.5" y1="264" y2="264"/><text fill="#000000" font-family="sans-serif" font-size="12" lengthAdjust="spacing" textLength="115" x="150.5" y="283.8281">Application Frontend</text><text fill="#000000" font-family="sans-serif" font-size="12" lengthAdjust="spacing" textLength="82" x="150.5" y="300.1722">(Build React.js)</text></g><!--entity back--><g id="elem_back"><rect fill="#F1F1F1" height="65.6882" rx="2.5" ry="2.5" style="stroke:#003366;stroke-width:1.0;" width="153" x="136.5" y="407"/><polygon fill="#F1F1F1" points="272.5,412,272.5,426,284.5,426,284.5,418,278.5,412,272.5,412" style="stroke:#003366;stroke-width:1.0;"/><line style="stroke:#003366;stroke-width:1.0;" x1="278.5" x2="278.5" y1="412" y2="418"/><line style="stroke:#003366;stroke-width:1.0;" x1="284.5" x2="278.5" y1="418" y2="418"/><text fill="#000000" font-family="sans-serif" font-size="12" lengthAdjust="spacing" textLength="113" x="151.5" y="437.8281">Application Backend</text><text fill="#000000" font-family="sans-serif" font-size="12" lengthAdjust="spacing" textLength="94" x="151.5" y="454.1722">(JAR Spring Boot)</text></g><!--entity mysql--><g id="elem_mysql"><path d="M220,609 C220,599 309,599 309,599 C309,599 398,599 398,609 L398,660.6882 C398,670.6882 309,670.6882 309,670.6882 C309,670.6882 220,670.6882 220,660.6882 L220,609 " fill="#F2F4F7" style="stroke:#003366;stroke-width:1.0;"/><path d="M220,609 C220,619 309,619 309,619 C309,619 398,619 398,609 " fill="none" style="stroke:#003366;stroke-width:1.0;"/><text fill="#000000" font-family="sans-serif" font-size="12" lengthAdjust="spacing" textLength="128" x="235" y="640.8281">Syst&#232;me de Gestion de</text><text fill="#000000" font-family="sans-serif" font-size="12" lengthAdjust="spacing" textLength="148" x="235" y="657.1722">Base de Donn&#233;es (MySQL)</text></g><!--entity smtp--><g id="elem_smtp"><polygon fill="#F2F4F7" points="21,617,31,607,185,607,185,653.3441,175,663.3441,21,663.3441,21,617" style="stroke:#003366;stroke-width:1.0;"/><line style="stroke:#003366;stroke-width:1.0;" x1="175" x2="185" y1="617" y2="607"/><line style="stroke:#003366;stroke-width:1.0;" x1="21" x2="175" y1="617" y2="617"/><line style="stroke:#003366;stroke-width:1.0;" x1="175" x2="175" y1="617" y2="663.3441"/><text fill="#000000" font-family="sans-serif" font-size="12" lengthAdjust="spacing" textLength="114" x="41" y="644.8281">Serveur Mail (SMTP)</text></g><!--link browser to front--><g id="link_browser_front"><path d="M213,127.23 C213,162.28 213,217.95 213,252.93 " fill="none" id="browser-front" style="stroke:#003366;stroke-width:1.0;"/><text fill="#003366" font-family="sans-serif" font-size="12" lengthAdjust="spacing" textLength="71" x="219" y="177.8281">HTTP/HTTPS</text></g><!--link front to back--><g id="link_front_back"><path d="M213,319.24 C213,345.03 213,381.03 213,406.81 " fill="none" id="front-back" style="stroke:#003366;stroke-width:1.0;"/><text fill="#003366" font-family="sans-serif" font-size="12" lengthAdjust="spacing" textLength="50" x="219" y="367.8281">REST API</text></g><!--link back to mysql--><g id="link_back_mysql"><path d="M229.07,473.3 C246.36,508.07 273.78,563.19 291.58,598.98 " fill="none" id="back-mysql" style="stroke:#003366;stroke-width:1.0;"/><text fill="#003366" font-family="sans-serif" font-size="12" lengthAdjust="spacing" textLength="54" x="265" y="523.8281">JDBC/SQL</text></g><!--link back to smtp--><g id="link_back_smtp"><path d="M144.85,473.08 C132.74,481.78 121.59,492.37 114,505 C95.31,536.12 95.82,579.31 98.75,606.96 " fill="none" id="back-smtp" style="stroke:#003366;stroke-width:1.0;"/><text fill="#003366" font-family="sans-serif" font-size="12" lengthAdjust="spacing" textLength="113" x="120" y="523.8281">SMTP (Notifications)</text></g><!--SRC=[VL3BJiCm4BpdAvPSIAK-xhqrBGKgMa8TnAKISk9DQqZiOBk52l4_y1tzCMmd85x21rlUcTcPtIEpmGgXBX0A9Ile1u6G325Cf3O8ruQNN5E3MnK2rP2N78M1vm3ieShmWkO6mWNTyRLdmGrcAn6DDxOPTc7A5HRogGjeydx7jyYKVDIeWfSF9u9gvvJiU5JN9S-fuL90D2xbbWqkHQzMM76DZLexileLuAjoggGmA9YD4MzvoM29bjE_qqs7mi7_o6EQtpVgsMW9f5PSh26MqhJnBVn7ThGwZUwTI24ERwWzcsMttn8pQcZcY27PQtDuhRpa5BMtPhWIFzj0DD-Jgul6lDhhX_At-vpo4Y8oJvDsIPMfhQ7bjSk6Ng-P6uPmbgR9m5qaQ4eMSqDPQ7b2KXWbvu7_sxhtiy1i4ey7DiKdu1s6u2mXMaYxntPzkXEy0m00]--></g></svg>