<?xml version="1.0" encoding="us-ascii" standalone="no"?><svg xmlns="http://www.w3.org/2000/svg" xmlns:xlink="http://www.w3.org/1999/xlink" contentStyleType="text/css" height="1285px" preserveAspectRatio="none" style="width:706px;height:1285px;background:#FFFFFF;" version="1.1" viewBox="0 0 706 1285" width="706px" zoomAndPan="magnify"><defs/><g><!--class user--><g id="elem_user"><rect codeLine="6" fill="#F2F4F7" height="236.7529" id="user" rx="2.5" ry="2.5" style="stroke:#003366;stroke-width:1.0;" width="139" x="327" y="12"/><ellipse cx="357.65" cy="30.1721" fill="#C2CCD7" rx="10" ry="10" style="stroke:#003366;stroke-width:1.0;"/><path d="M358.1344,34.9221 L356.4,34.9221 L356.4,27.6877 L354.1813,27.6877 L354.1813,26.1721 L360.3531,26.1721 L360.3531,27.6877 L358.1344,27.6877 L358.1344,34.9221 Z " fill="#000000"/><text fill="#000000" font-family="sans-serif" font-size="12" lengthAdjust="spacing" textLength="62" x="379.35" y="34.8281">utilisateurs</text><line style="stroke:#003366;stroke-width:1.0;" x1="328" x2="465" y1="48.3441" y2="48.3441"/><text fill="#000000" font-family="sans-serif" font-size="12" lengthAdjust="spacing" textLength="71" x="338" y="70.1722">*id : INT (PK)</text><line style="stroke:#003366;stroke-width:1.0;" x1="328" x2="465" y1="82.6882" y2="82.6882"/><text fill="#000000" font-family="sans-serif" font-size="12" lengthAdjust="spacing" textLength="88" x="338" y="104.5163">nom : VARCHAR</text><text fill="#000000" font-family="sans-serif" font-size="12" lengthAdjust="spacing" textLength="107" x="338" y="130.8604">prenom : VARCHAR</text><text fill="#000000" font-family="sans-serif" font-size="12" lengthAdjust="spacing" textLength="114" x="338" y="157.2045">email : VARCHAR (U)</text><text fill="#000000" font-family="sans-serif" font-size="12" lengthAdjust="spacing" textLength="117" x="338" y="183.5487">password : VARCHAR</text><text fill="#000000" font-family="sans-serif" font-size="12" lengthAdjust="spacing" textLength="67" x="338" y="209.8928">role : ENUM</text><text fill="#000000" font-family="sans-serif" font-size="12" lengthAdjust="spacing" textLength="89" x="338" y="236.2369">actif : BOOLEAN</text></g><!--class student--><g id="elem_student"><rect codeLine="17" fill="#F2F4F7" height="157.7206" id="student" rx="2.5" ry="2.5" style="stroke:#003366;stroke-width:1.0;" width="137" x="71" y="309"/><ellipse cx="105.25" cy="327.1721" fill="#C2CCD7" rx="10" ry="10" style="stroke:#003366;stroke-width:1.0;"/><path d="M105.7344,331.9221 L104,331.9221 L104,324.6877 L101.7813,324.6877 L101.7813,323.1721 L107.9531,323.1721 L107.9531,324.6877 L105.7344,324.6877 L105.7344,331.9221 Z " fill="#000000"/><text fill="#000000" font-family="sans-serif" font-size="12" lengthAdjust="spacing" textLength="52" x="127.75" y="331.8281">etudiants</text><line style="stroke:#003366;stroke-width:1.0;" x1="72" x2="207" y1="345.3441" y2="345.3441"/><text fill="#000000" font-family="sans-serif" font-size="12" lengthAdjust="spacing" textLength="115" x="82" y="367.1722">*cne : VARCHAR (PK)</text><line style="stroke:#003366;stroke-width:1.0;" x1="72" x2="207" y1="379.6882" y2="379.6882"/><text fill="#000000" font-family="sans-serif" font-size="12" lengthAdjust="spacing" textLength="95" x="82" y="401.5163">filiere : VARCHAR</text><text fill="#000000" font-family="sans-serif" font-size="12" lengthAdjust="spacing" textLength="100" x="82" y="427.8604">niveau : VARCHAR</text><text fill="#000000" font-family="sans-serif" font-size="12" lengthAdjust="spacing" textLength="93" x="82" y="454.2045">user_id : INT (FK)</text></g><!--class prof--><g id="elem_prof"><rect codeLine="25" fill="#F2F4F7" height="157.7206" id="prof" rx="2.5" ry="2.5" style="stroke:#003366;stroke-width:1.0;" width="138" x="243.5" y="309"/><ellipse cx="271" cy="327.1721" fill="#C2CCD7" rx="10" ry="10" style="stroke:#003366;stroke-width:1.0;"/><path d="M271.4844,331.9221 L269.75,331.9221 L269.75,324.6877 L267.5313,324.6877 L267.5313,323.1721 L273.7031,323.1721 L273.7031,324.6877 L271.4844,324.6877 L271.4844,331.9221 Z " fill="#000000"/><text fill="#000000" font-family="sans-serif" font-size="12" lengthAdjust="spacing" textLength="68" x="292" y="331.8281">enseignants</text><line style="stroke:#003366;stroke-width:1.0;" x1="244.5" x2="380.5" y1="345.3441" y2="345.3441"/><text fill="#000000" font-family="sans-serif" font-size="12" lengthAdjust="spacing" textLength="71" x="254.5" y="367.1722">*id : INT (PK)</text><line style="stroke:#003366;stroke-width:1.0;" x1="244.5" x2="380.5" y1="379.6882" y2="379.6882"/><text fill="#000000" font-family="sans-serif" font-size="12" lengthAdjust="spacing" textLength="96" x="254.5" y="401.5163">grade : VARCHAR</text><text fill="#000000" font-family="sans-serif" font-size="12" lengthAdjust="spacing" textLength="116" x="254.5" y="427.8604">specialite : VARCHAR</text><text fill="#000000" font-family="sans-serif" font-size="12" lengthAdjust="spacing" textLength="93" x="254.5" y="454.2045">user_id : INT (FK)</text></g><!--class admin--><g id="elem_admin"><rect codeLine="33" fill="#F2F4F7" height="105.0323" id="admin" rx="2.5" ry="2.5" style="stroke:#003366;stroke-width:1.0;" width="129" x="417" y="335.5"/><ellipse cx="431" cy="353.6721" fill="#C2CCD7" rx="10" ry="10" style="stroke:#003366;stroke-width:1.0;"/><path d="M431.4844,358.4221 L429.75,358.4221 L429.75,351.1877 L427.5313,351.1877 L427.5313,349.6721 L433.7031,349.6721 L433.7031,351.1877 L431.4844,351.1877 L431.4844,358.4221 Z " fill="#000000"/><text fill="#000000" font-family="sans-serif" font-size="12" lengthAdjust="spacing" textLength="89" x="449" y="358.3281">administrateurs</text><line style="stroke:#003366;stroke-width:1.0;" x1="418" x2="545" y1="371.8441" y2="371.8441"/><text fill="#000000" font-family="sans-serif" font-size="12" lengthAdjust="spacing" textLength="71" x="428" y="393.6722">*id : INT (PK)</text><line style="stroke:#003366;stroke-width:1.0;" x1="418" x2="545" y1="406.1882" y2="406.1882"/><text fill="#000000" font-family="sans-serif" font-size="12" lengthAdjust="spacing" textLength="93" x="428" y="428.0163">user_id : INT (FK)</text></g><!--class coord--><g id="elem_coord"><rect codeLine="39" fill="#F2F4F7" height="105.0323" id="coord" rx="2.5" ry="2.5" style="stroke:#003366;stroke-width:1.0;" width="118" x="581.5" y="335.5"/><ellipse cx="595.5" cy="353.6721" fill="#C2CCD7" rx="10" ry="10" style="stroke:#003366;stroke-width:1.0;"/><path d="M595.9844,358.4221 L594.25,358.4221 L594.25,351.1877 L592.0313,351.1877 L592.0313,349.6721 L598.2031,349.6721 L598.2031,351.1877 L595.9844,351.1877 L595.9844,358.4221 Z " fill="#000000"/><text fill="#000000" font-family="sans-serif" font-size="12" lengthAdjust="spacing" textLength="78" x="613.5" y="358.3281">coordinateurs</text><line style="stroke:#003366;stroke-width:1.0;" x1="582.5" x2="698.5" y1="371.8441" y2="371.8441"/><text fill="#000000" font-family="sans-serif" font-size="12" lengthAdjust="spacing" textLength="71" x="592.5" y="393.6722">*id : INT (PK)</text><line style="stroke:#003366;stroke-width:1.0;" x1="582.5" x2="698.5" y1="406.1882" y2="406.1882"/><text fill="#000000" font-family="sans-serif" font-size="12" lengthAdjust="spacing" textLength="93" x="592.5" y="428.0163">user_id : INT (FK)</text></g><!--class session--><g id="elem_session"><rect codeLine="45" fill="#F2F4F7" height="184.0647" id="session" rx="2.5" ry="2.5" style="stroke:#003366;stroke-width:1.0;" width="140" x="270.5" y="527"/><ellipse cx="284.5" cy="545.1721" fill="#C2CCD7" rx="10" ry="10" style="stroke:#003366;stroke-width:1.0;"/><path d="M284.9844,549.9221 L283.25,549.9221 L283.25,542.6877 L281.0313,542.6877 L281.0313,541.1721 L287.2031,541.1721 L287.2031,542.6877 L284.9844,542.6877 L284.9844,549.9221 Z " fill="#000000"/><text fill="#000000" font-family="sans-serif" font-size="12" lengthAdjust="spacing" textLength="100" x="302.5" y="549.8281">sessions_globales</text><line style="stroke:#003366;stroke-width:1.0;" x1="271.5" x2="409.5" y1="563.3441" y2="563.3441"/><text fill="#000000" font-family="sans-serif" font-size="12" lengthAdjust="spacing" textLength="71" x="281.5" y="585.1722">*id : INT (PK)</text><line style="stroke:#003366;stroke-width:1.0;" x1="271.5" x2="409.5" y1="597.6882" y2="597.6882"/><text fill="#000000" font-family="sans-serif" font-size="12" lengthAdjust="spacing" textLength="96" x="281.5" y="619.5163">libelle : VARCHAR</text><text fill="#000000" font-family="sans-serif" font-size="12" lengthAdjust="spacing" textLength="102" x="281.5" y="645.8604">date_debut : DATE</text><text fill="#000000" font-family="sans-serif" font-size="12" lengthAdjust="spacing" textLength="84" x="281.5" y="672.2045">date_fin : DATE</text><text fill="#000000" font-family="sans-serif" font-size="12" lengthAdjust="spacing" textLength="77" x="281.5" y="698.5487">statut : ENUM</text></g><!--class project--><g id="elem_project"><rect codeLine="54" fill="#F2F4F7" height="184.0647" id="project" rx="2.5" ry="2.5" style="stroke:#003366;stroke-width:1.0;" width="147" x="88" y="527"/><ellipse cx="133" cy="545.1721" fill="#C2CCD7" rx="10" ry="10" style="stroke:#003366;stroke-width:1.0;"/><path d="M133.4844,549.9221 L131.75,549.9221 L131.75,542.6877 L129.5313,542.6877 L129.5313,541.1721 L135.7031,541.1721 L135.7031,542.6877 L133.4844,542.6877 L133.4844,549.9221 Z " fill="#000000"/><text fill="#000000" font-family="sans-serif" font-size="12" lengthAdjust="spacing" textLength="39" x="157" y="549.8281">projets</text><line style="stroke:#003366;stroke-width:1.0;" x1="89" x2="234" y1="563.3441" y2="563.3441"/><text fill="#000000" font-family="sans-serif" font-size="12" lengthAdjust="spacing" textLength="71" x="99" y="585.1722">*id : INT (PK)</text><line style="stroke:#003366;stroke-width:1.0;" x1="89" x2="234" y1="597.6882" y2="597.6882"/><text fill="#000000" font-family="sans-serif" font-size="12" lengthAdjust="spacing" textLength="86" x="99" y="619.5163">titre : VARCHAR</text><text fill="#000000" font-family="sans-serif" font-size="12" lengthAdjust="spacing" textLength="99" x="99" y="645.8604">description : TEXT</text><text fill="#000000" font-family="sans-serif" font-size="12" lengthAdjust="spacing" textLength="69" x="99" y="672.2045">type : ENUM</text><text fill="#000000" font-family="sans-serif" font-size="12" lengthAdjust="spacing" textLength="125" x="99" y="698.5487">encadrant_id : INT (FK)</text></g><!--class room--><g id="elem_room"><rect codeLine="63" fill="#F2F4F7" height="157.7206" id="room" rx="2.5" ry="2.5" style="stroke:#003366;stroke-width:1.0;" width="135" x="12" y="1107"/><ellipse cx="54.5" cy="1125.1721" fill="#C2CCD7" rx="10" ry="10" style="stroke:#003366;stroke-width:1.0;"/><path d="M54.9844,1129.9221 L53.25,1129.9221 L53.25,1122.6877 L51.0313,1122.6877 L51.0313,1121.1721 L57.2031,1121.1721 L57.2031,1122.6877 L54.9844,1122.6877 L54.9844,1129.9221 Z " fill="#000000"/><text fill="#000000" font-family="sans-serif" font-size="12" lengthAdjust="spacing" textLength="32" x="78.5" y="1129.8281">salles</text><line style="stroke:#003366;stroke-width:1.0;" x1="13" x2="146" y1="1143.3441" y2="1143.3441"/><text fill="#000000" font-family="sans-serif" font-size="12" lengthAdjust="spacing" textLength="71" x="23" y="1165.1722">*id : INT (PK)</text><line style="stroke:#003366;stroke-width:1.0;" x1="13" x2="146" y1="1177.6882" y2="1177.6882"/><text fill="#000000" font-family="sans-serif" font-size="12" lengthAdjust="spacing" textLength="88" x="23" y="1199.5163">nom : VARCHAR</text><text fill="#000000" font-family="sans-serif" font-size="12" lengthAdjust="spacing" textLength="113" x="23" y="1225.8604">batiment : VARCHAR</text><text fill="#000000" font-family="sans-serif" font-size="12" lengthAdjust="spacing" textLength="76" x="23" y="1252.2045">capacite : INT</text></g><!--class soutenance--><g id="elem_soutenance"><rect codeLine="71" fill="#F2F4F7" height="263.097" id="soutenance" rx="2.5" ry="2.5" style="stroke:#003366;stroke-width:1.0;" width="139" x="190" y="771"/><ellipse cx="216.6" cy="789.1721" fill="#C2CCD7" rx="10" ry="10" style="stroke:#003366;stroke-width:1.0;"/><path d="M217.0844,793.9221 L215.35,793.9221 L215.35,786.6877 L213.1313,786.6877 L213.1313,785.1721 L219.3031,785.1721 L219.3031,786.6877 L217.0844,786.6877 L217.0844,793.9221 Z " fill="#000000"/><text fill="#000000" font-family="sans-serif" font-size="12" lengthAdjust="spacing" textLength="71" x="237.4" y="793.8281">soutenances</text><line style="stroke:#003366;stroke-width:1.0;" x1="191" x2="328" y1="807.3441" y2="807.3441"/><text fill="#000000" font-family="sans-serif" font-size="12" lengthAdjust="spacing" textLength="71" x="201" y="829.1722">*id : INT (PK)</text><line style="stroke:#003366;stroke-width:1.0;" x1="191" x2="328" y1="841.6882" y2="841.6882"/><text fill="#000000" font-family="sans-serif" font-size="12" lengthAdjust="spacing" textLength="117" x="201" y="863.5163">date_passage : DATE</text><text fill="#000000" font-family="sans-serif" font-size="12" lengthAdjust="spacing" textLength="108" x="201" y="889.8604">heure_debut : TIME</text><text fill="#000000" font-family="sans-serif" font-size="12" lengthAdjust="spacing" textLength="62" x="201" y="916.2045">duree : INT</text><text fill="#000000" font-family="sans-serif" font-size="12" lengthAdjust="spacing" textLength="77" x="201" y="942.5487">statut : ENUM</text><text fill="#000000" font-family="sans-serif" font-size="12" lengthAdjust="spacing" textLength="94" x="201" y="968.8928">salle_id : INT (FK)</text><text fill="#000000" font-family="sans-serif" font-size="12" lengthAdjust="spacing" textLength="101" x="201" y="995.2369">projet_id : INT (FK)</text><text fill="#000000" font-family="sans-serif" font-size="12" lengthAdjust="spacing" textLength="110" x="201" y="1021.581">session_id : INT (FK)</text></g><!--class jury--><g id="elem_jury"><rect codeLine="83" fill="#F2F4F7" height="157.7206" id="jury" rx="2.5" ry="2.5" style="stroke:#003366;stroke-width:1.0;" width="182" x="372.5" y="1107"/><ellipse cx="417.5" cy="1125.1721" fill="#C2CCD7" rx="10" ry="10" style="stroke:#003366;stroke-width:1.0;"/><path d="M417.9844,1129.9221 L416.25,1129.9221 L416.25,1122.6877 L414.0313,1122.6877 L414.0313,1121.1721 L420.2031,1121.1721 L420.2031,1122.6877 L417.9844,1122.6877 L417.9844,1129.9221 Z " fill="#000000"/><text fill="#000000" font-family="sans-serif" font-size="12" lengthAdjust="spacing" textLength="74" x="441.5" y="1129.8281">membre_jury</text><line style="stroke:#003366;stroke-width:1.0;" x1="373.5" x2="553.5" y1="1143.3441" y2="1143.3441"/><text fill="#000000" font-family="sans-serif" font-size="12" lengthAdjust="spacing" textLength="160" x="383.5" y="1165.1722">*soutenance_id : INT (PK, FK)</text><text fill="#000000" font-family="sans-serif" font-size="12" lengthAdjust="spacing" textLength="157" x="383.5" y="1191.5163">*enseignant_id : INT (PK, FK)</text><line style="stroke:#003366;stroke-width:1.0;" x1="373.5" x2="553.5" y1="1204.0323" y2="1204.0323"/><text fill="#000000" font-family="sans-serif" font-size="12" lengthAdjust="spacing" textLength="93" x="383.5" y="1225.8604">role_jury : ENUM</text><text fill="#000000" font-family="sans-serif" font-size="12" lengthAdjust="spacing" textLength="108" x="383.5" y="1252.2045">present : BOOLEAN</text></g><!--class eval--><g id="elem_eval"><rect codeLine="91" fill="#F2F4F7" height="184.0647" id="eval" rx="2.5" ry="2.5" style="stroke:#003366;stroke-width:1.0;" width="155" x="182" y="1094"/><ellipse cx="218.95" cy="1112.1721" fill="#C2CCD7" rx="10" ry="10" style="stroke:#003366;stroke-width:1.0;"/><path d="M219.4344,1116.9221 L217.7,1116.9221 L217.7,1109.6877 L215.4813,1109.6877 L215.4813,1108.1721 L221.6531,1108.1721 L221.6531,1109.6877 L219.4344,1109.6877 L219.4344,1116.9221 Z " fill="#000000"/><text fill="#000000" font-family="sans-serif" font-size="12" lengthAdjust="spacing" textLength="64" x="242.05" y="1116.8281">evaluations</text><line style="stroke:#003366;stroke-width:1.0;" x1="183" x2="336" y1="1130.3441" y2="1130.3441"/><text fill="#000000" font-family="sans-serif" font-size="12" lengthAdjust="spacing" textLength="71" x="193" y="1152.1722">*id : INT (PK)</text><line style="stroke:#003366;stroke-width:1.0;" x1="183" x2="336" y1="1164.6882" y2="1164.6882"/><text fill="#000000" font-family="sans-serif" font-size="12" lengthAdjust="spacing" textLength="70" x="193" y="1186.5163">note : FLOAT</text><text fill="#000000" font-family="sans-serif" font-size="12" lengthAdjust="spacing" textLength="109" x="193" y="1212.8604">observations : TEXT</text><text fill="#000000" font-family="sans-serif" font-size="12" lengthAdjust="spacing" textLength="91" x="193" y="1239.2045">decision : ENUM</text><text fill="#000000" font-family="sans-serif" font-size="12" lengthAdjust="spacing" textLength="133" x="193" y="1265.5487">soutenance_id : INT (FK)</text></g><!--link user to student--><g id="link_user_student"><path codeLine="100" d="M318.95,131 C242.84,131 139.5,131 139.5,131 C139.5,131 139.5,218.28 139.5,293.79 " fill="none" id="user-student" style="stroke:#003366;stroke-width:1.0;"/><line style="stroke:#003366;stroke-width:1.0;" x1="322.95" x2="322.95" y1="127" y2="135"/><line style="stroke:#003366;stroke-width:1.0;" x1="319.95" x2="319.95" y1="127" y2="135"/><line style="stroke:#003366;stroke-width:1.0;" x1="318.95" x2="326.95" y1="131" y2="131"/><line style="stroke:#003366;stroke-width:1.0;" x1="139.5" x2="139.5" y1="297.79" y2="308.79"/><ellipse cx="139.5" cy="297.79" fill="none" rx="4" ry="4" style="stroke:#003366;stroke-width:1.0;"/><line style="stroke:#003366;stroke-width:1.0;" x1="143.5" x2="135.5" y1="304.79" y2="304.79"/></g><!--link user to prof--><g id="link_user_prof"><path codeLine="101" d="M354.25,257.08 C354.25,277.27 354.25,274.8 354.25,293.66 " fill="none" id="user-prof" style="stroke:#003366;stroke-width:1.0;"/><line style="stroke:#003366;stroke-width:1.0;" x1="350.25" x2="358.25" y1="253.08" y2="253.08"/><line style="stroke:#003366;stroke-width:1.0;" x1="350.25" x2="358.25" y1="256.08" y2="256.08"/><line style="stroke:#003366;stroke-width:1.0;" x1="354.25" x2="354.25" y1="257.08" y2="249.08"/><line style="stroke:#003366;stroke-width:1.0;" x1="354.25" x2="354.25" y1="297.66" y2="308.66"/><ellipse cx="354.25" cy="297.66" fill="none" rx="4" ry="4" style="stroke:#003366;stroke-width:1.0;"/><line style="stroke:#003366;stroke-width:1.0;" x1="358.25" x2="350.25" y1="304.66" y2="304.66"/></g><!--link user to admin--><g id="link_user_admin"><path codeLine="102" d="M441.5,257.08 C441.5,287.3 441.5,295.28 441.5,320.29 " fill="none" id="user-admin" style="stroke:#003366;stroke-width:1.0;"/><line style="stroke:#003366;stroke-width:1.0;" x1="437.5" x2="445.5" y1="253.08" y2="253.08"/><line style="stroke:#003366;stroke-width:1.0;" x1="437.5" x2="445.5" y1="256.08" y2="256.08"/><line style="stroke:#003366;stroke-width:1.0;" x1="441.5" x2="441.5" y1="257.08" y2="249.08"/><line style="stroke:#003366;stroke-width:1.0;" x1="441.5" x2="441.5" y1="324.29" y2="335.29"/><ellipse cx="441.5" cy="324.29" fill="none" rx="4" ry="4" style="stroke:#003366;stroke-width:1.0;"/><line style="stroke:#003366;stroke-width:1.0;" x1="445.5" x2="437.5" y1="331.29" y2="331.29"/></g><!--link user to coord--><g id="link_user_coord"><path codeLine="103" d="M474.09,131 C546.21,131 640.5,131 640.5,131 C640.5,131 640.5,245.18 640.5,320.37 " fill="none" id="user-coord" style="stroke:#003366;stroke-width:1.0;"/><line style="stroke:#003366;stroke-width:1.0;" x1="470.09" x2="470.09" y1="135" y2="127"/><line style="stroke:#003366;stroke-width:1.0;" x1="473.09" x2="473.09" y1="135" y2="127"/><line style="stroke:#003366;stroke-width:1.0;" x1="474.09" x2="466.09" y1="131" y2="131"/><line style="stroke:#003366;stroke-width:1.0;" x1="640.5" x2="640.5" y1="324.37" y2="335.37"/><ellipse cx="640.5" cy="324.37" fill="none" rx="4" ry="4" style="stroke:#003366;stroke-width:1.0;"/><line style="stroke:#003366;stroke-width:1.0;" x1="644.5" x2="636.5" y1="331.37" y2="331.37"/></g><!--link prof to project--><g id="link_prof_project"><path codeLine="105" d="M235.07,388 C222.61,388 221.5,388 221.5,388 C221.5,388 221.5,444.36 221.5,508.71 " fill="none" id="prof-project" style="stroke:#003366;stroke-width:1.0;"/><line style="stroke:#003366;stroke-width:1.0;" x1="239.07" x2="239.07" y1="384" y2="392"/><line style="stroke:#003366;stroke-width:1.0;" x1="236.07" x2="236.07" y1="384" y2="392"/><line style="stroke:#003366;stroke-width:1.0;" x1="235.07" x2="243.07" y1="388" y2="388"/><line style="stroke:#003366;stroke-width:1.0;" x1="221.5" x2="227.5" y1="518.71" y2="526.71"/><line style="stroke:#003366;stroke-width:1.0;" x1="221.5" x2="215.5" y1="518.71" y2="526.71"/><line style="stroke:#003366;stroke-width:1.0;" x1="221.5" x2="221.5" y1="518.71" y2="526.71"/><ellipse cx="221.5" cy="512.71" fill="none" rx="4" ry="4" style="stroke:#003366;stroke-width:1.0;"/></g><!--link project to soutenance--><g id="link_project_soutenance"><path codeLine="106" d="M212.5,719.04 C212.5,738.12 212.5,742.58 212.5,762.76 " fill="none" id="project-soutenance" style="stroke:#003366;stroke-width:1.0;"/><line style="stroke:#003366;stroke-width:1.0;" x1="208.5" x2="216.5" y1="715.04" y2="715.04"/><line style="stroke:#003366;stroke-width:1.0;" x1="208.5" x2="216.5" y1="718.04" y2="718.04"/><line style="stroke:#003366;stroke-width:1.0;" x1="212.5" x2="212.5" y1="719.04" y2="711.04"/><line style="stroke:#003366;stroke-width:1.0;" x1="216.5" x2="208.5" y1="766.76" y2="766.76"/><line style="stroke:#003366;stroke-width:1.0;" x1="216.5" x2="208.5" y1="763.76" y2="763.76"/><line style="stroke:#003366;stroke-width:1.0;" x1="212.5" x2="212.5" y1="762.76" y2="770.76"/></g><!--link session to soutenance--><g id="link_session_soutenance"><path codeLine="107" d="M299.75,719.04 C299.75,738.12 299.75,742.58 299.75,762.76 " fill="none" id="session-soutenance" style="stroke:#003366;stroke-width:1.0;"/><line style="stroke:#003366;stroke-width:1.0;" x1="295.75" x2="303.75" y1="715.04" y2="715.04"/><line style="stroke:#003366;stroke-width:1.0;" x1="295.75" x2="303.75" y1="718.04" y2="718.04"/><line style="stroke:#003366;stroke-width:1.0;" x1="299.75" x2="299.75" y1="719.04" y2="711.04"/><line style="stroke:#003366;stroke-width:1.0;" x1="299.75" x2="305.75" y1="762.76" y2="770.76"/><line style="stroke:#003366;stroke-width:1.0;" x1="299.75" x2="293.75" y1="762.76" y2="770.76"/><line style="stroke:#003366;stroke-width:1.0;" x1="299.75" x2="299.75" y1="762.76" y2="770.76"/><line style="stroke:#003366;stroke-width:1.0;" x1="303.75" x2="295.75" y1="760.76" y2="760.76"/></g><!--link soutenance to room--><g id="link_soutenance_room"><path codeLine="108" d="M171.75,903 C135.84,903 117.5,903 117.5,903 C117.5,903 117.5,1015.07 117.5,1098.79 " fill="none" id="soutenance-room" style="stroke:#003366;stroke-width:1.0;"/><line style="stroke:#003366;stroke-width:1.0;" x1="181.75" x2="189.75" y1="903" y2="897"/><line style="stroke:#003366;stroke-width:1.0;" x1="181.75" x2="189.75" y1="903" y2="909"/><line style="stroke:#003366;stroke-width:1.0;" x1="181.75" x2="189.75" y1="903" y2="903"/><ellipse cx="175.75" cy="903" fill="none" rx="4" ry="4" style="stroke:#003366;stroke-width:1.0;"/><line style="stroke:#003366;stroke-width:1.0;" x1="121.5" x2="113.5" y1="1102.79" y2="1102.79"/><line style="stroke:#003366;stroke-width:1.0;" x1="121.5" x2="113.5" y1="1099.79" y2="1099.79"/><line style="stroke:#003366;stroke-width:1.0;" x1="117.5" x2="117.5" y1="1098.79" y2="1106.79"/></g><!--link soutenance to eval--><g id="link_soutenance_eval"><path codeLine="109" d="M259.5,1042.29 C259.5,1062.39 259.5,1059.76 259.5,1078.77 " fill="none" id="soutenance-eval" style="stroke:#003366;stroke-width:1.0;"/><line style="stroke:#003366;stroke-width:1.0;" x1="255.5" x2="263.5" y1="1038.29" y2="1038.29"/><line style="stroke:#003366;stroke-width:1.0;" x1="255.5" x2="263.5" y1="1041.29" y2="1041.29"/><line style="stroke:#003366;stroke-width:1.0;" x1="259.5" x2="259.5" y1="1042.29" y2="1034.29"/><line style="stroke:#003366;stroke-width:1.0;" x1="259.5" x2="259.5" y1="1082.77" y2="1093.77"/><ellipse cx="259.5" cy="1082.77" fill="none" rx="4" ry="4" style="stroke:#003366;stroke-width:1.0;"/><line style="stroke:#003366;stroke-width:1.0;" x1="263.5" x2="255.5" y1="1089.77" y2="1089.77"/></g><!--link soutenance to jury--><g id="link_soutenance_jury"><path codeLine="110" d="M337.37,903 C369.03,903 391.5,903 391.5,903 C391.5,903 391.5,1015.07 391.5,1098.79 " fill="none" id="soutenance-jury" style="stroke:#003366;stroke-width:1.0;"/><line style="stroke:#003366;stroke-width:1.0;" x1="333.37" x2="333.37" y1="907" y2="899"/><line style="stroke:#003366;stroke-width:1.0;" x1="336.37" x2="336.37" y1="907" y2="899"/><line style="stroke:#003366;stroke-width:1.0;" x1="337.37" x2="329.37" y1="903" y2="903"/><line style="stroke:#003366;stroke-width:1.0;" x1="391.5" x2="397.5" y1="1098.79" y2="1106.79"/><line style="stroke:#003366;stroke-width:1.0;" x1="391.5" x2="385.5" y1="1098.79" y2="1106.79"/><line style="stroke:#003366;stroke-width:1.0;" x1="391.5" x2="391.5" y1="1098.79" y2="1106.79"/><line style="stroke:#003366;stroke-width:1.0;" x1="395.5" x2="387.5" y1="1096.79" y2="1096.79"/></g><!--link prof to jury--><g id="link_prof_jury"><path codeLine="111" d="M389.73,454 C436.4,454 481.5,454 481.5,454 C481.5,454 481.5,909.69 481.5,1098.97 " fill="none" id="prof-jury" style="stroke:#003366;stroke-width:1.0;"/><line style="stroke:#003366;stroke-width:1.0;" x1="385.73" x2="385.73" y1="458" y2="450"/><line style="stroke:#003366;stroke-width:1.0;" x1="388.73" x2="388.73" y1="458" y2="450"/><line style="stroke:#003366;stroke-width:1.0;" x1="389.73" x2="381.73" y1="454" y2="454"/><line style="stroke:#003366;stroke-width:1.0;" x1="481.5" x2="487.5" y1="1098.97" y2="1106.97"/><line style="stroke:#003366;stroke-width:1.0;" x1="481.5" x2="475.5" y1="1098.97" y2="1106.97"/><line style="stroke:#003366;stroke-width:1.0;" x1="481.5" x2="481.5" y1="1098.97" y2="1106.97"/><line style="stroke:#003366;stroke-width:1.0;" x1="485.5" x2="477.5" y1="1096.97" y2="1096.97"/></g><!--SRC=[hLLHRzem47xFhxXr3skhieUzJ49L9TPIhHg52QNJtf1nBc2Ms97jC27eVz_P8JXXK2dQNgBSPyVt-VlkBk_i4dE48aL8jShXOnHzW7ibKx4eDRD2IIXKgI53C7P3p-7q8JA_X2oOPZcCX4IxAH2KjaiLHIYji1kuAAt8X64MIsqkW1ae3MgulONB-0RUyq-S9v-luEuEjX70DOW4-l0qZk7o-xShGdezUaYYquSVW-dzry6KuaBZCOGv4rb0uFB5VLqmOtuhdRIsQaNa-p0SlpnJnBWLAOLV9fFHS32ENWDrj6KYcBGLRqCHhPodpYKs2JJufoG1Qcona6ADh6n1JfbP4E2H3cYoaGR5GXxu55gb7NLSQ9QqMPW2kM2PiDY12Kjo8OMnkk6gnphIUJiBLsISa8qS7lclEGmQGuLjPejCpLc6UwShj6EcJCmnozew9iH-bk2yj0G_3E9XZQKarW4nbbc_mvTaWnvPlC9WzmgvxKYApZcgkmGDrwBm_To7UFWpTjjSunvQ0YLdYQP2UqCubjLgQKMj-6_zFAVnahlUQeAS5OnNXKdVjvAhqY8r0g_zEiGTUNWht8nW2mnsBAdWWclnqxDtZR2Qoh5Z53ivZjI2oZBx5xmlh_FYvfZFYS6gr1j_F_To_cRXzhFc9M-WodODON2StE2LS3FH9mnteY5hAazEZSOroqh_KwWiS77d8l3UFeuc0oUfcbEdhgiZGs4cD9vCLQgrrAUkknVG_rfskrvFxUfntSBSo6m1Vcgr43zZeiWFLmzjwywBwWvqy6xN81BL0yElR5iheJHVbV_CjKiJtkTr0Xx3T9Ip992fWJy0]--></g></svg>