<?xml version="1.0" encoding="us-ascii" standalone="no"?><svg xmlns="http://www.w3.org/2000/svg" xmlns:xlink="http://www.w3.org/1999/xlink" contentStyleType="text/css" height="863px" preserveAspectRatio="none" style="width:1517px;height:863px;background:#FFFFFF;" version="1.1" viewBox="0 0 1517 863" width="1517px" zoomAndPan="magnify"><defs/><g><!--cluster com.fsbm.pfe--><g id="cluster_com.fsbm.pfe"><rect fill="none" height="845" rx="2.5" ry="2.5" style="stroke:#003366;stroke-width:1.0;" width="1499" x="12" y="12"/><text fill="#000000" font-family="sans-serif" font-size="12" font-weight="bold" lengthAdjust="spacing" textLength="82" x="720.5" y="31.8281">com.fsbm.pfe</text></g><!--cluster controller--><g id="cluster_controller"><rect fill="none" height="290" rx="2.5" ry="2.5" style="stroke:#003366;stroke-width:1.0;" width="388" x="505" y="73"/><text fill="#000000" font-family="sans-serif" font-size="12" font-weight="bold" lengthAdjust="spacing" textLength="58" x="670" y="92.8281">controller</text></g><!--cluster service--><g id="cluster_service"><rect fill="none" height="306" rx="2.5" ry="2.5" style="stroke:#003366;stroke-width:1.0;" width="546" x="933" y="230"/><text fill="#000000" font-family="sans-serif" font-size="12" font-weight="bold" lengthAdjust="spacing" textLength="42" x="1185" y="249.8281">service</text></g><!--cluster repository--><g id="cluster_repository"><rect fill="none" height="306" rx="2.5" ry="2.5" style="stroke:#003366;stroke-width:1.0;" width="414" x="44" y="403"/><text fill="#000000" font-family="sans-serif" font-size="12" font-weight="bold" lengthAdjust="spacing" textLength="61" x="220.5" y="422.8281">repository</text></g><!--cluster entity--><g id="cluster_entity"><rect fill="none" height="249" rx="2.5" ry="2.5" style="stroke:#003366;stroke-width:1.0;" width="326" x="498" y="576"/><text fill="#000000" font-family="sans-serif" font-size="12" font-weight="bold" lengthAdjust="spacing" textLength="36" x="643" y="595.8281">entity</text></g><!--cluster dto--><g id="cluster_dto"><rect fill="none" height="133" rx="2.5" ry="2.5" style="stroke:#003366;stroke-width:1.0;" width="395" x="498" y="403"/><text fill="#000000" font-family="sans-serif" font-size="12" font-weight="bold" lengthAdjust="spacing" textLength="20" x="685.5" y="422.8281">dto</text></g><!--cluster security--><g id="cluster_security"><rect fill="none" height="117" rx="2.5" ry="2.5" style="stroke:#003366;stroke-width:1.0;" width="363" x="73" y="81"/><text fill="#000000" font-family="sans-serif" font-size="12" font-weight="bold" lengthAdjust="spacing" textLength="48" x="230.5" y="100.8281">security</text></g><!--entity AuthController--><g id="elem_AuthController"><rect fill="#F2F4F7" height="56.3441" rx="2.5" ry="2.5" style="stroke:#003366;stroke-width:1.0;" width="132" x="529" y="126"/><rect fill="#F2F4F7" height="10" style="stroke:#003366;stroke-width:1.0;" width="15" x="641" y="131"/><rect fill="#F2F4F7" height="2" style="stroke:#003366;stroke-width:1.0;" width="4" x="639" y="133"/><rect fill="#F2F4F7" height="2" style="stroke:#003366;stroke-width:1.0;" width="4" x="639" y="137"/><text fill="#000000" font-family="sans-serif" font-size="12" lengthAdjust="spacing" textLength="82" x="549" y="163.8281">AuthController</text></g><!--entity PlanningController--><g id="elem_PlanningController"><rect fill="#F2F4F7" height="56.3441" rx="2.5" ry="2.5" style="stroke:#003366;stroke-width:1.0;" width="154" x="696" y="126"/><rect fill="#F2F4F7" height="10" style="stroke:#003366;stroke-width:1.0;" width="15" x="830" y="131"/><rect fill="#F2F4F7" height="2" style="stroke:#003366;stroke-width:1.0;" width="4" x="828" y="133"/><rect fill="#F2F4F7" height="2" style="stroke:#003366;stroke-width:1.0;" width="4" x="828" y="137"/><text fill="#000000" font-family="sans-serif" font-size="12" lengthAdjust="spacing" textLength="104" x="716" y="163.8281">PlanningController</text></g><!--entity JuryController--><g id="elem_JuryController"><rect fill="#F2F4F7" height="56.3441" rx="2.5" ry="2.5" style="stroke:#003366;stroke-width:1.0;" width="127" x="529.5" y="283"/><rect fill="#F2F4F7" height="10" style="stroke:#003366;stroke-width:1.0;" width="15" x="636.5" y="288"/><rect fill="#F2F4F7" height="2" style="stroke:#003366;stroke-width:1.0;" width="4" x="634.5" y="290"/><rect fill="#F2F4F7" height="2" style="stroke:#003366;stroke-width:1.0;" width="4" x="634.5" y="294"/><text fill="#000000" font-family="sans-serif" font-size="12" lengthAdjust="spacing" textLength="77" x="549.5" y="320.8281">JuryController</text></g><!--entity DocumentController--><g id="elem_DocumentController"><rect fill="#F2F4F7" height="56.3441" rx="2.5" ry="2.5" style="stroke:#003366;stroke-width:1.0;" width="164" x="692" y="283"/><rect fill="#F2F4F7" height="10" style="stroke:#003366;stroke-width:1.0;" width="15" x="836" y="288"/><rect fill="#F2F4F7" height="2" style="stroke:#003366;stroke-width:1.0;" width="4" x="834" y="290"/><rect fill="#F2F4F7" height="2" style="stroke:#003366;stroke-width:1.0;" width="4" x="834" y="294"/><text fill="#000000" font-family="sans-serif" font-size="12" lengthAdjust="spacing" textLength="114" x="712" y="320.8281">DocumentController</text></g><!--entity SecurityService--><g id="elem_SecurityService"><rect fill="#F2F4F7" height="56.3441" rx="2.5" ry="2.5" style="stroke:#003366;stroke-width:1.0;" width="136" x="976" y="283"/><rect fill="#F2F4F7" height="10" style="stroke:#003366;stroke-width:1.0;" width="15" x="1092" y="288"/><rect fill="#F2F4F7" height="2" style="stroke:#003366;stroke-width:1.0;" width="4" x="1090" y="290"/><rect fill="#F2F4F7" height="2" style="stroke:#003366;stroke-width:1.0;" width="4" x="1090" y="294"/><text fill="#000000" font-family="sans-serif" font-size="12" lengthAdjust="spacing" textLength="86" x="996" y="320.8281">SecurityService</text></g><!--entity PlanningService--><g id="elem_PlanningService"><rect fill="#F2F4F7" height="56.3441" rx="2.5" ry="2.5" style="stroke:#003366;stroke-width:1.0;" width="139" x="1147.5" y="283"/><rect fill="#F2F4F7" height="10" style="stroke:#003366;stroke-width:1.0;" width="15" x="1266.5" y="288"/><rect fill="#F2F4F7" height="2" style="stroke:#003366;stroke-width:1.0;" width="4" x="1264.5" y="290"/><rect fill="#F2F4F7" height="2" style="stroke:#003366;stroke-width:1.0;" width="4" x="1264.5" y="294"/><text fill="#000000" font-family="sans-serif" font-size="12" lengthAdjust="spacing" textLength="89" x="1167.5" y="320.8281">PlanningService</text></g><!--entity ConflictService--><g id="elem_ConflictService"><rect fill="#F2F4F7" height="56.3441" rx="2.5" ry="2.5" style="stroke:#003366;stroke-width:1.0;" width="133" x="1321.5" y="283"/><rect fill="#F2F4F7" height="10" style="stroke:#003366;stroke-width:1.0;" width="15" x="1434.5" y="288"/><rect fill="#F2F4F7" height="2" style="stroke:#003366;stroke-width:1.0;" width="4" x="1432.5" y="290"/><rect fill="#F2F4F7" height="2" style="stroke:#003366;stroke-width:1.0;" width="4" x="1432.5" y="294"/><text fill="#000000" font-family="sans-serif" font-size="12" lengthAdjust="spacing" textLength="83" x="1341.5" y="320.8281">ConflictService</text></g><!--entity NotificationService--><g id="elem_NotificationService"><rect fill="#F2F4F7" height="56.3441" rx="2.5" ry="2.5" style="stroke:#003366;stroke-width:1.0;" width="155" x="976.5" y="456"/><rect fill="#F2F4F7" height="10" style="stroke:#003366;stroke-width:1.0;" width="15" x="1111.5" y="461"/><rect fill="#F2F4F7" height="2" style="stroke:#003366;stroke-width:1.0;" width="4" x="1109.5" y="463"/><rect fill="#F2F4F7" height="2" style="stroke:#003366;stroke-width:1.0;" width="4" x="1109.5" y="467"/><text fill="#000000" font-family="sans-serif" font-size="12" lengthAdjust="spacing" textLength="105" x="996.5" y="493.8281">NotificationService</text></g><!--entity DocumentService--><g id="elem_DocumentService"><rect fill="#F2F4F7" height="56.3441" rx="2.5" ry="2.5" style="stroke:#003366;stroke-width:1.0;" width="149" x="1166.5" y="456"/><rect fill="#F2F4F7" height="10" style="stroke:#003366;stroke-width:1.0;" width="15" x="1295.5" y="461"/><rect fill="#F2F4F7" height="2" style="stroke:#003366;stroke-width:1.0;" width="4" x="1293.5" y="463"/><rect fill="#F2F4F7" height="2" style="stroke:#003366;stroke-width:1.0;" width="4" x="1293.5" y="467"/><text fill="#000000" font-family="sans-serif" font-size="12" lengthAdjust="spacing" textLength="99" x="1186.5" y="493.8281">DocumentService</text></g><!--entity UserRepository--><g id="elem_UserRepository"><rect fill="#F2F4F7" height="56.3441" rx="2.5" ry="2.5" style="stroke:#003366;stroke-width:1.0;" width="136" x="68" y="456"/><rect fill="#F2F4F7" height="10" style="stroke:#003366;stroke-width:1.0;" width="15" x="184" y="461"/><rect fill="#F2F4F7" height="2" style="stroke:#003366;stroke-width:1.0;" width="4" x="182" y="463"/><rect fill="#F2F4F7" height="2" style="stroke:#003366;stroke-width:1.0;" width="4" x="182" y="467"/><text fill="#000000" font-family="sans-serif" font-size="12" lengthAdjust="spacing" textLength="86" x="88" y="493.8281">UserRepository</text></g><!--entity SoutenanceRepository--><g id="elem_SoutenanceRepository"><rect fill="#F2F4F7" height="56.3441" rx="2.5" ry="2.5" style="stroke:#003366;stroke-width:1.0;" width="175" x="239.5" y="456"/><rect fill="#F2F4F7" height="10" style="stroke:#003366;stroke-width:1.0;" width="15" x="394.5" y="461"/><rect fill="#F2F4F7" height="2" style="stroke:#003366;stroke-width:1.0;" width="4" x="392.5" y="463"/><rect fill="#F2F4F7" height="2" style="stroke:#003366;stroke-width:1.0;" width="4" x="392.5" y="467"/><text fill="#000000" font-family="sans-serif" font-size="12" lengthAdjust="spacing" textLength="125" x="259.5" y="493.8281">SoutenanceRepository</text></g><!--entity ProjetRepository--><g id="elem_ProjetRepository"><rect fill="#F2F4F7" height="56.3441" rx="2.5" ry="2.5" style="stroke:#003366;stroke-width:1.0;" width="142" x="68" y="629"/><rect fill="#F2F4F7" height="10" style="stroke:#003366;stroke-width:1.0;" width="15" x="190" y="634"/><rect fill="#F2F4F7" height="2" style="stroke:#003366;stroke-width:1.0;" width="4" x="188" y="636"/><rect fill="#F2F4F7" height="2" style="stroke:#003366;stroke-width:1.0;" width="4" x="188" y="640"/><text fill="#000000" font-family="sans-serif" font-size="12" lengthAdjust="spacing" textLength="92" x="88" y="666.8281">ProjetRepository</text></g><!--entity SalleRepository--><g id="elem_SalleRepository"><rect fill="#F2F4F7" height="56.3441" rx="2.5" ry="2.5" style="stroke:#003366;stroke-width:1.0;" width="136" x="245" y="629"/><rect fill="#F2F4F7" height="10" style="stroke:#003366;stroke-width:1.0;" width="15" x="361" y="634"/><rect fill="#F2F4F7" height="2" style="stroke:#003366;stroke-width:1.0;" width="4" x="359" y="636"/><rect fill="#F2F4F7" height="2" style="stroke:#003366;stroke-width:1.0;" width="4" x="359" y="640"/><text fill="#000000" font-family="sans-serif" font-size="12" lengthAdjust="spacing" textLength="86" x="265" y="666.8281">SalleRepository</text></g><!--entity Utilisateur--><g id="elem_Utilisateur"><rect fill="#F2F4F7" height="56.3441" rx="2.5" ry="2.5" style="stroke:#003366;stroke-width:1.0;" width="108" x="522" y="629"/><rect fill="#F2F4F7" height="10" style="stroke:#003366;stroke-width:1.0;" width="15" x="610" y="634"/><rect fill="#F2F4F7" height="2" style="stroke:#003366;stroke-width:1.0;" width="4" x="608" y="636"/><rect fill="#F2F4F7" height="2" style="stroke:#003366;stroke-width:1.0;" width="4" x="608" y="640"/><text fill="#000000" font-family="sans-serif" font-size="12" lengthAdjust="spacing" textLength="58" x="542" y="666.8281">Utilisateur</text></g><!--entity Soutenance--><g id="elem_Soutenance"><rect fill="#F2F4F7" height="56.3441" rx="2.5" ry="2.5" style="stroke:#003366;stroke-width:1.0;" width="116" x="665" y="629"/><rect fill="#F2F4F7" height="10" style="stroke:#003366;stroke-width:1.0;" width="15" x="761" y="634"/><rect fill="#F2F4F7" height="2" style="stroke:#003366;stroke-width:1.0;" width="4" x="759" y="636"/><rect fill="#F2F4F7" height="2" style="stroke:#003366;stroke-width:1.0;" width="4" x="759" y="640"/><text fill="#000000" font-family="sans-serif" font-size="12" lengthAdjust="spacing" textLength="66" x="685" y="666.8281">Soutenance</text></g><!--entity Projet--><g id="elem_Projet"><rect fill="#F2F4F7" height="56.3441" rx="2.5" ry="2.5" style="stroke:#003366;stroke-width:1.0;" width="83" x="534.5" y="745"/><rect fill="#F2F4F7" height="10" style="stroke:#003366;stroke-width:1.0;" width="15" x="597.5" y="750"/><rect fill="#F2F4F7" height="2" style="stroke:#003366;stroke-width:1.0;" width="4" x="595.5" y="752"/><rect fill="#F2F4F7" height="2" style="stroke:#003366;stroke-width:1.0;" width="4" x="595.5" y="756"/><text fill="#000000" font-family="sans-serif" font-size="12" lengthAdjust="spacing" textLength="33" x="554.5" y="782.8281">Projet</text></g><!--entity Evaluation--><g id="elem_Evaluation"><rect fill="#F2F4F7" height="56.3441" rx="2.5" ry="2.5" style="stroke:#003366;stroke-width:1.0;" width="108" x="653" y="745"/><rect fill="#F2F4F7" height="10" style="stroke:#003366;stroke-width:1.0;" width="15" x="741" y="750"/><rect fill="#F2F4F7" height="2" style="stroke:#003366;stroke-width:1.0;" width="4" x="739" y="752"/><rect fill="#F2F4F7" height="2" style="stroke:#003366;stroke-width:1.0;" width="4" x="739" y="756"/><text fill="#000000" font-family="sans-serif" font-size="12" lengthAdjust="spacing" textLength="58" x="673" y="782.8281">Evaluation</text></g><!--entity SoutenanceRequest--><g id="elem_SoutenanceRequest"><rect fill="#F2F4F7" height="56.3441" rx="2.5" ry="2.5" style="stroke:#003366;stroke-width:1.0;" width="161" x="707.5" y="456"/><rect fill="#F2F4F7" height="10" style="stroke:#003366;stroke-width:1.0;" width="15" x="848.5" y="461"/><rect fill="#F2F4F7" height="2" style="stroke:#003366;stroke-width:1.0;" width="4" x="846.5" y="463"/><rect fill="#F2F4F7" height="2" style="stroke:#003366;stroke-width:1.0;" width="4" x="846.5" y="467"/><text fill="#000000" font-family="sans-serif" font-size="12" lengthAdjust="spacing" textLength="111" x="727.5" y="493.8281">SoutenanceRequest</text></g><!--entity UserResponse--><g id="elem_UserResponse"><rect fill="#F2F4F7" height="56.3441" rx="2.5" ry="2.5" style="stroke:#003366;stroke-width:1.0;" width="131" x="541.5" y="456"/><rect fill="#F2F4F7" height="10" style="stroke:#003366;stroke-width:1.0;" width="15" x="652.5" y="461"/><rect fill="#F2F4F7" height="2" style="stroke:#003366;stroke-width:1.0;" width="4" x="650.5" y="463"/><rect fill="#F2F4F7" height="2" style="stroke:#003366;stroke-width:1.0;" width="4" x="650.5" y="467"/><text fill="#000000" font-family="sans-serif" font-size="12" lengthAdjust="spacing" textLength="81" x="561.5" y="493.8281">UserResponse</text></g><!--entity JwtProvider--><g id="elem_JwtProvider"><rect fill="#F2F4F7" height="56.3441" rx="2.5" ry="2.5" style="stroke:#003366;stroke-width:1.0;" width="113" x="306.5" y="126"/><rect fill="#F2F4F7" height="10" style="stroke:#003366;stroke-width:1.0;" width="15" x="399.5" y="131"/><rect fill="#F2F4F7" height="2" style="stroke:#003366;stroke-width:1.0;" width="4" x="397.5" y="133"/><rect fill="#F2F4F7" height="2" style="stroke:#003366;stroke-width:1.0;" width="4" x="397.5" y="137"/><text fill="#000000" font-family="sans-serif" font-size="12" lengthAdjust="spacing" textLength="63" x="326.5" y="163.8281">JwtProvider</text></g><!--entity UserDetailsServiceImpl--><g id="elem_UserDetailsServiceImpl"><rect fill="#F2F4F7" height="56.3441" rx="2.5" ry="2.5" style="stroke:#003366;stroke-width:1.0;" width="182" x="89" y="126"/><rect fill="#F2F4F7" height="10" style="stroke:#003366;stroke-width:1.0;" width="15" x="251" y="131"/><rect fill="#F2F4F7" height="2" style="stroke:#003366;stroke-width:1.0;" width="4" x="249" y="133"/><rect fill="#F2F4F7" height="2" style="stroke:#003366;stroke-width:1.0;" width="4" x="249" y="137"/><text fill="#000000" font-family="sans-serif" font-size="12" lengthAdjust="spacing" textLength="132" x="109" y="163.8281">UserDetailsServiceImpl</text></g><!--link controller to service--><g id="link_controller_service"><path d="M893.0643,177.318 C893.1414,177.5314 893.2189,177.7459 893.2968,177.9616 C893.6085,178.8243 893.9269,179.7054 894.2514,180.6036 C899.4441,194.9753 906.2281,213.7519 913.0113,232.5263 C919.7944,251.3006 926.5766,270.0728 931.7655,284.4358 C932.0898,285.3335 932.4079,286.2139 932.7193,287.0761 C932.7972,287.2916 930.836,281.863 930.913,282.0762 " fill="none" id="controller-to-service" style="stroke:#003366;stroke-width:1.0;"/><polygon fill="#003366" points="932.9517,287.7193,933.6558,277.8956,931.2528,283.0167,926.1317,280.6138,932.9517,287.7193" style="stroke:#003366;stroke-width:1.0;"/></g><!--link service to repository--><g id="link_service_repository"><path d="M932.9987,324.1338 C932.8739,324.3098 932.7477,324.4872 932.6202,324.6659 C932.3652,325.0234 932.1049,325.3862 931.8392,325.7542 C930.7768,327.2261 929.6301,328.7796 928.4035,330.3961 C925.9503,333.6291 923.1775,337.1138 920.12,340.7 C907.89,355.045 891.105,371.015 872,379 C852.41,387.18 507.54,375.04 490,387 C480.6025,393.4075 473.4081,402.475 467.9016,412.5053 C465.1483,417.5205 462.817,422.7763 460.8432,428.0607 C459.8563,430.7029 460.7371,427.6219 459.9209,430.2519 " fill="none" id="service-to-repository" style="stroke:#003366;stroke-width:1.0;"/><polygon fill="#003366" points="458.1426,435.9823,464.6304,428.5722,459.6245,431.2069,456.9899,426.2011,458.1426,435.9823" style="stroke:#003366;stroke-width:1.0;"/></g><!--link repository to entity--><g id="link_repository_entity"><path d="M458.0979,510.3326 C458.1432,510.4415 458.1887,510.5505 458.2344,510.6597 C458.6001,511.5331 458.9794,512.4156 459.3725,513.305 C465.6625,527.535 475.5,543.52 490,552 C504.73,560.61 783.96,549 797,560 C801.0913,563.4513 804.4633,567.5067 807.2312,571.9654 C807.9231,573.0801 808.5773,574.22 809.1956,575.382 C809.2729,575.5272 806.5735,570.3537 806.6496,570.4996 " fill="none" id="repository-to-entity" style="stroke:#003366;stroke-width:1.0;"/><polygon fill="#003366" points="809.4257,575.8187,808.8077,565.9893,807.1123,571.3861,801.7155,569.6907,809.4257,575.8187" style="stroke:#003366;stroke-width:1.0;"/></g><!--link service to dto--><g id="link_service_dto"><path d="M932.9951,324.1267 C932.8703,324.3026 932.744,324.4799 932.6165,324.6585 C932.3614,325.0157 932.1009,325.3784 931.8352,325.7461 C930.7724,327.2172 929.6253,328.7699 928.3982,330.3855 C925.9442,333.6169 923.1706,337.1 920.1125,340.685 C907.88,355.025 891.095,370.995 872,379 C854.22,386.45 539.76,374.59 525,387 C520.9038,390.445 517.528,394.4956 514.7574,398.9507 C514.0647,400.0644 513.4099,401.2035 512.7911,402.3647 C512.7137,402.5098 515.4164,397.3379 515.3402,397.4838 " fill="none" id="service-to-dto" style="stroke:#003366;stroke-width:1.0;stroke-dasharray:7.0,7.0;"/><polygon fill="#003366" points="512.5607,402.8011,520.2748,396.678,514.8769,398.37,513.185,392.9721,512.5607,402.8011" style="stroke:#003366;stroke-width:1.0;"/></g><!--SRC=[VP9BJiCm443tFeNflZb29KHPq0Mg6h52B8mxQGsE9zZZe0ZrxhZvkp5uaKH-yVZDvuxEK0Al2k25nP9dZ5L2VeeJy9N4CYlSUva5kk8_Z8SrWuOiQWrsGDVrUk_f_32YjmdijJ16cLCIxhnjac2BqfTWw1PUscTivC3MIaAaauFqLb6JTopXioJXha8hIKloZAGA9GKfD4iwk4Oa9MgXGgS8RHEvleG43YEQ1SxH4nXX92Jntk87KFga22Mx9Icbe1sg5EkGqie90c-JBWk3sSPZBRHlo_JtbKV2k5MpBByyk7cyhZIkGkFWlm7ecXs5tNrJqAlLCPghQy0ja53QzUrwAYizXBumDeqtNwytl9yjrh_RlQcDRFfiILVDyUSis_2GxIy0]--></g></svg>