<?xml version="1.0" encoding="us-ascii" standalone="no"?><svg xmlns="http://www.w3.org/2000/svg" xmlns:xlink="http://www.w3.org/1999/xlink" contentStyleType="text/css" height="801px" preserveAspectRatio="none" style="width:360px;height:801px;background:#FFFFFF;" version="1.1" viewBox="0 0 360 801" width="360px" zoomAndPan="magnify"><defs/><g><ellipse cx="106.5" cy="15" fill="#003366" rx="10" ry="10" style="stroke:#003366;stroke-width:1.0;"/><rect fill="#F2F4F7" height="46.3441" rx="2.5" ry="2.5" style="stroke:#003366;stroke-width:1.0;" width="144" x="34.5" y="45"/><text fill="#000000" font-family="sans-serif" font-size="12" lengthAdjust="spacing" textLength="114" x="49.5" y="72.8281">Affectation des jurys</text><rect fill="#F2F4F7" height="46.3441" rx="2.5" ry="2.5" style="stroke:#003366;stroke-width:1.0;" width="159" x="27" y="155.3441"/><text fill="#000000" font-family="sans-serif" font-size="12" lengthAdjust="spacing" textLength="129" x="42" y="183.1722">V&#233;rification des conflits</text><rect fill="#F2F4F7" height="46.3441" rx="2.5" ry="2.5" style="stroke:#003366;stroke-width:1.0;" width="160" x="26.5" y="236.6882"/><text fill="#000000" font-family="sans-serif" font-size="12" lengthAdjust="spacing" textLength="130" x="41.5" y="264.5163">Mise &#224; jour du planning</text><polygon fill="#003366" points="106.5,111.3441,118.5,123.3441,106.5,135.3441,94.5,123.3441,106.5,111.3441" style="stroke:#003366;stroke-width:1.0;"/><polygon fill="#003366" points="51,303.2204,162,303.2204,174,316.3925,162,329.5645,51,329.5645,39,316.3925,51,303.2204" style="stroke:#003366;stroke-width:1.0;"/><text fill="#FFFFFF" font-family="sans-serif" font-size="12" lengthAdjust="spacing" textLength="101" x="56" y="321.0485">Conflits d&#233;tect&#233;s ?</text><text fill="#003366" font-family="sans-serif" font-size="12" lengthAdjust="spacing" textLength="19" x="179" y="307.8765">Oui</text><rect fill="#F2F4F7" height="46.3441" rx="2.5" ry="2.5" style="stroke:#003366;stroke-width:1.0;" width="144" x="210.5" y="197.1882"/><text fill="#000000" font-family="sans-serif" font-size="12" lengthAdjust="spacing" textLength="114" x="225.5" y="225.0163">Correction manuelle</text><rect fill="#F2F4F7" height="46.3441" rx="2.5" ry="2.5" style="stroke:#003366;stroke-width:1.0;" width="180" x="16.5" y="375.9087"/><text fill="#000000" font-family="sans-serif" font-size="12" lengthAdjust="spacing" textLength="150" x="31.5" y="403.7367">Validation du planning final</text><rect fill="#F2F4F7" height="46.3441" rx="2.5" ry="2.5" style="stroke:#003366;stroke-width:1.0;" width="158" x="27.5" y="442.2528"/><text fill="#000000" font-family="sans-serif" font-size="12" lengthAdjust="spacing" textLength="128" x="42.5" y="470.0809">Impression et diffusion</text><rect fill="#F2F4F7" height="46.3441" rx="2.5" ry="2.5" style="stroke:#003366;stroke-width:1.0;" width="201" x="6" y="508.5969"/><text fill="#000000" font-family="sans-serif" font-size="12" lengthAdjust="spacing" textLength="171" x="21" y="536.425">D&#233;roulement des soutenances</text><rect fill="#F2F4F7" height="46.3441" rx="2.5" ry="2.5" style="stroke:#003366;stroke-width:1.0;" width="166" x="23.5" y="574.941"/><text fill="#000000" font-family="sans-serif" font-size="12" lengthAdjust="spacing" textLength="136" x="38.5" y="602.7691">&#201;valuation des &#233;tudiants</text><rect fill="#F2F4F7" height="46.3441" rx="2.5" ry="2.5" style="stroke:#003366;stroke-width:1.0;" width="132" x="40.5" y="641.2851"/><text fill="#000000" font-family="sans-serif" font-size="12" lengthAdjust="spacing" textLength="102" x="55.5" y="669.1132">Collecte des notes</text><rect fill="#F2F4F7" height="46.3441" rx="2.5" ry="2.5" style="stroke:#003366;stroke-width:1.0;" width="131" x="41" y="707.6292"/><text fill="#000000" font-family="sans-serif" font-size="12" lengthAdjust="spacing" textLength="101" x="56" y="735.4573">Archivage manuel</text><ellipse cx="106.5" cy="784.9733" fill="none" rx="11" ry="11" style="stroke:#003366;stroke-width:1.0;"/><ellipse cx="106.5" cy="784.9733" fill="#003366" rx="6" ry="6" style="stroke:#003366;stroke-width:1.0;"/><line style="stroke:#003366;stroke-width:1.0;" x1="106.5" x2="106.5" y1="25" y2="45"/><polygon fill="#003366" points="102.5,35,106.5,45,110.5,35,106.5,39" style="stroke:#003366;stroke-width:1.0;"/><line style="stroke:#003366;stroke-width:1.0;" x1="106.5" x2="106.5" y1="201.6882" y2="236.6882"/><polygon fill="#003366" points="102.5,226.6882,106.5,236.6882,110.5,226.6882,106.5,230.6882" style="stroke:#003366;stroke-width:1.0;"/><line style="stroke:#003366;stroke-width:1.0;" x1="106.5" x2="106.5" y1="135.3441" y2="155.3441"/><polygon fill="#003366" points="102.5,145.3441,106.5,155.3441,110.5,145.3441,106.5,149.3441" style="stroke:#003366;stroke-width:1.0;"/><line style="stroke:#003366;stroke-width:1.0;" x1="174" x2="282.5" y1="316.3925" y2="316.3925"/><line style="stroke:#003366;stroke-width:1.0;" x1="282.5" x2="282.5" y1="243.5323" y2="316.3925"/><polygon fill="#003366" points="278.5,253.5323,282.5,243.5323,286.5,253.5323,282.5,249.5323" style="stroke:#003366;stroke-width:1.0;"/><line style="stroke:#003366;stroke-width:1.0;" x1="282.5" x2="282.5" y1="123.3441" y2="197.1882"/><line style="stroke:#003366;stroke-width:1.0;" x1="282.5" x2="118.5" y1="123.3441" y2="123.3441"/><polygon fill="#003366" points="128.5,119.3441,118.5,123.3441,128.5,127.3441,124.5,123.3441" style="stroke:#003366;stroke-width:1.0;"/><line style="stroke:#003366;stroke-width:1.0;" x1="106.5" x2="106.5" y1="283.0323" y2="303.2204"/><polygon fill="#003366" points="102.5,293.2204,106.5,303.2204,110.5,293.2204,106.5,297.2204" style="stroke:#003366;stroke-width:1.0;"/><line style="stroke:#003366;stroke-width:1.0;" x1="106.5" x2="106.5" y1="91.3441" y2="111.3441"/><polygon fill="#003366" points="102.5,101.3441,106.5,111.3441,110.5,101.3441,106.5,105.3441" style="stroke:#003366;stroke-width:1.0;"/><line style="stroke:#003366;stroke-width:1.0;" x1="106.5" x2="106.5" y1="329.5645" y2="375.9087"/><polygon fill="#003366" points="102.5,365.9087,106.5,375.9087,110.5,365.9087,106.5,369.9087" style="stroke:#003366;stroke-width:1.0;"/><text fill="#003366" font-family="sans-serif" font-size="12" lengthAdjust="spacing" textLength="23" x="115.5" y="354.4087">Non</text><line style="stroke:#003366;stroke-width:1.0;" x1="106.5" x2="106.5" y1="422.2528" y2="442.2528"/><polygon fill="#003366" points="102.5,432.2528,106.5,442.2528,110.5,432.2528,106.5,436.2528" style="stroke:#003366;stroke-width:1.0;"/><line style="stroke:#003366;stroke-width:1.0;" x1="106.5" x2="106.5" y1="488.5969" y2="508.5969"/><polygon fill="#003366" points="102.5,498.5969,106.5,508.5969,110.5,498.5969,106.5,502.5969" style="stroke:#003366;stroke-width:1.0;"/><line style="stroke:#003366;stroke-width:1.0;" x1="106.5" x2="106.5" y1="554.941" y2="574.941"/><polygon fill="#003366" points="102.5,564.941,106.5,574.941,110.5,564.941,106.5,568.941" style="stroke:#003366;stroke-width:1.0;"/><line style="stroke:#003366;stroke-width:1.0;" x1="106.5" x2="106.5" y1="621.2851" y2="641.2851"/><polygon fill="#003366" points="102.5,631.2851,106.5,641.2851,110.5,631.2851,106.5,635.2851" style="stroke:#003366;stroke-width:1.0;"/><line style="stroke:#003366;stroke-width:1.0;" x1="106.5" x2="106.5" y1="687.6292" y2="707.6292"/><polygon fill="#003366" points="102.5,697.6292,106.5,707.6292,110.5,697.6292,106.5,701.6292" style="stroke:#003366;stroke-width:1.0;"/><line style="stroke:#003366;stroke-width:1.0;" x1="106.5" x2="106.5" y1="753.9733" y2="773.9733"/><polygon fill="#003366" points="102.5,763.9733,106.5,773.9733,110.5,763.9733,106.5,767.9733" style="stroke:#003366;stroke-width:1.0;"/><!--SRC=[HP0nRiCm34LtdOBTag4zW0Eq2DAbGzijEojH2LEQCYGgGOxGMtJDENonoeQBZCJ_VE3Z0wkN6WYANOMUXjgBSyKmc-ksCP8tD4uAWGgSQhwMZSiq49e3wFRZBNDaVw_uf57OMkiB_VS5S-XsAUU6cHezQYKHshZkdGl1-0kdL3E42eEWAklX7m-N8ml1QhS08OmtQvZnLk1b3LnWzLbvxHwVuIDf0-vHE2o7t74GML5Q_DOFcKgPOZ8876ETXfQyDebKXNfIcnrAgaQAwgbfTEFF6QNU3TiPDJ3gvDZSceqtcXDDDcziip_o6G-q-6xQFzFm1m00]--></g></svg>