<?xml version="1.0" encoding="us-ascii" standalone="no"?><svg xmlns="http://www.w3.org/2000/svg" xmlns:xlink="http://www.w3.org/1999/xlink" contentStyleType="text/css" height="708px" preserveAspectRatio="none" style="width:355px;height:708px;background:#FFFFFF;" version="1.1" viewBox="0 0 355 708" width="355px" zoomAndPan="magnify"><defs/><g><ellipse cx="132.5" cy="15" fill="#003366" rx="10" ry="10" style="stroke:#003366;stroke-width:1.0;"/><rect fill="#F2F4F7" height="46.3441" rx="2.5" ry="2.5" style="stroke:#003366;stroke-width:1.0;" width="149" x="58" y="45"/><text fill="#000000" font-family="sans-serif" font-size="12" lengthAdjust="spacing" textLength="119" x="73" y="72.8281">Collecte des donn&#233;es</text><rect fill="#F2F4F7" height="46.3441" rx="2.5" ry="2.5" style="stroke:#003366;stroke-width:1.0;" width="179" x="43" y="111.3441"/><text fill="#000000" font-family="sans-serif" font-size="12" lengthAdjust="spacing" textLength="149" x="58" y="139.1722">Cr&#233;ation du planning initial</text><rect fill="#F2F4F7" height="46.3441" rx="2.5" ry="2.5" style="stroke:#003366;stroke-width:1.0;" width="253" x="6" y="221.6882"/><text fill="#000000" font-family="sans-serif" font-size="12" lengthAdjust="spacing" textLength="223" x="21" y="249.5163">Envoi des disponibilit&#233;s aux enseignants</text><rect fill="#F2F4F7" height="46.3441" rx="2.5" ry="2.5" style="stroke:#003366;stroke-width:1.0;" width="163" x="51" y="288.0323"/><text fill="#000000" font-family="sans-serif" font-size="12" lengthAdjust="spacing" textLength="133" x="66" y="315.8604">R&#233;ception des r&#233;ponses</text><polygon fill="#003366" points="50.5,354.5645,214.5,354.5645,226.5,367.7366,214.5,380.9087,50.5,380.9087,38.5,367.7366,50.5,354.5645" style="stroke:#003366;stroke-width:1.0;"/><text fill="#FFFFFF" font-family="sans-serif" font-size="12" lengthAdjust="spacing" textLength="154" x="55.5" y="372.3926">Disponibilit&#233;s compatibles ?</text><text fill="#003366" font-family="sans-serif" font-size="12" lengthAdjust="spacing" textLength="19" x="14.5" y="359.2206">Oui</text><text fill="#003366" font-family="sans-serif" font-size="12" lengthAdjust="spacing" textLength="23" x="231.5" y="359.2206">Non</text><rect fill="#F2F4F7" height="46.3441" rx="2.5" ry="2.5" style="stroke:#003366;stroke-width:1.0;" width="167" x="153" y="390.9087"/><text fill="#000000" font-family="sans-serif" font-size="12" lengthAdjust="spacing" textLength="137" x="168" y="418.7367">Modification du planning</text><rect fill="#F2F4F7" height="46.3441" rx="2.5" ry="2.5" style="stroke:#003366;stroke-width:1.0;" width="156" x="158.5" y="457.2528"/><text fill="#000000" font-family="sans-serif" font-size="12" lengthAdjust="spacing" textLength="126" x="173.5" y="485.0809">Nouvel envoi d'e-mails</text><polygon fill="#003366" points="132.5,177.6882,144.5,189.6882,132.5,201.6882,120.5,189.6882,132.5,177.6882" style="stroke:#003366;stroke-width:1.0;"/><polygon fill="#003366" points="53.5,523.5969,211.5,523.5969,223.5,536.7689,211.5,549.941,53.5,549.941,41.5,536.7689,53.5,523.5969" style="stroke:#003366;stroke-width:1.0;"/><text fill="#FFFFFF" font-family="sans-serif" font-size="12" lengthAdjust="spacing" textLength="148" x="58.5" y="541.425">En attente de confirmation</text><polygon fill="#003366" points="132.5,569.941,144.5,581.941,132.5,593.941,120.5,581.941,132.5,569.941" style="stroke:#003366;stroke-width:1.0;"/><rect fill="#F2F4F7" height="46.3441" rx="2.5" ry="2.5" style="stroke:#003366;stroke-width:1.0;" width="144" x="60.5" y="613.941"/><text fill="#000000" font-family="sans-serif" font-size="12" lengthAdjust="spacing" textLength="114" x="75.5" y="641.7691">Affectation des jurys</text><ellipse cx="132.5" cy="691.2851" fill="none" rx="11" ry="11" style="stroke:#003366;stroke-width:1.0;"/><ellipse cx="132.5" cy="691.2851" fill="#003366" rx="6" ry="6" style="stroke:#003366;stroke-width:1.0;"/><line style="stroke:#003366;stroke-width:1.0;" x1="132.5" x2="132.5" y1="25" y2="45"/><polygon fill="#003366" points="128.5,35,132.5,45,136.5,35,132.5,39" style="stroke:#003366;stroke-width:1.0;"/><line style="stroke:#003366;stroke-width:1.0;" x1="132.5" x2="132.5" y1="91.3441" y2="111.3441"/><polygon fill="#003366" points="128.5,101.3441,132.5,111.3441,136.5,101.3441,132.5,105.3441" style="stroke:#003366;stroke-width:1.0;"/><line style="stroke:#003366;stroke-width:1.0;" x1="132.5" x2="132.5" y1="268.0323" y2="288.0323"/><polygon fill="#003366" points="128.5,278.0323,132.5,288.0323,136.5,278.0323,132.5,282.0323" style="stroke:#003366;stroke-width:1.0;"/><line style="stroke:#003366;stroke-width:1.0;" x1="236.5" x2="236.5" y1="437.2528" y2="457.2528"/><polygon fill="#003366" points="232.5,447.2528,236.5,457.2528,240.5,447.2528,236.5,451.2528" style="stroke:#003366;stroke-width:1.0;"/><line style="stroke:#003366;stroke-width:1.0;" x1="38.5" x2="28.5" y1="367.7366" y2="367.7366"/><line style="stroke:#003366;stroke-width:1.0;" x1="28.5" x2="28.5" y1="367.7366" y2="581.941"/><line style="stroke:#003366;stroke-width:1.0;" x1="28.5" x2="120.5" y1="581.941" y2="581.941"/><polygon fill="#003366" points="110.5,577.941,120.5,581.941,110.5,585.941,114.5,581.941" style="stroke:#003366;stroke-width:1.0;"/><line style="stroke:#003366;stroke-width:1.0;" x1="226.5" x2="236.5" y1="367.7366" y2="367.7366"/><line style="stroke:#003366;stroke-width:1.0;" x1="236.5" x2="236.5" y1="367.7366" y2="390.9087"/><polygon fill="#003366" points="232.5,380.9087,236.5,390.9087,240.5,380.9087,236.5,384.9087" style="stroke:#003366;stroke-width:1.0;"/><line style="stroke:#003366;stroke-width:1.0;" x1="236.5" x2="236.5" y1="503.5969" y2="508.5969"/><line style="stroke:#003366;stroke-width:1.0;" x1="236.5" x2="132.5" y1="508.5969" y2="508.5969"/><line style="stroke:#003366;stroke-width:1.0;" x1="132.5" x2="132.5" y1="334.3765" y2="354.5645"/><polygon fill="#003366" points="128.5,344.5645,132.5,354.5645,136.5,344.5645,132.5,348.5645" style="stroke:#003366;stroke-width:1.0;"/><line style="stroke:#003366;stroke-width:1.0;" x1="132.5" x2="132.5" y1="201.6882" y2="221.6882"/><polygon fill="#003366" points="128.5,211.6882,132.5,221.6882,136.5,211.6882,132.5,215.6882" style="stroke:#003366;stroke-width:1.0;"/><line style="stroke:#003366;stroke-width:1.0;" x1="223.5" x2="334" y1="536.7689" y2="536.7689"/><polygon fill="#003366" points="330,368.8226,334,358.8226,338,368.8226,334,364.8226" style="stroke:#003366;stroke-width:1.0;"/><line style="stroke:#003366;stroke-width:1.0;" x1="334" x2="334" y1="189.6882" y2="536.7689"/><line style="stroke:#003366;stroke-width:1.0;" x1="334" x2="144.5" y1="189.6882" y2="189.6882"/><polygon fill="#003366" points="154.5,185.6882,144.5,189.6882,154.5,193.6882,150.5,189.6882" style="stroke:#003366;stroke-width:1.0;"/><line style="stroke:#003366;stroke-width:1.0;" x1="132.5" x2="132.5" y1="508.5969" y2="523.5969"/><polygon fill="#003366" points="128.5,513.5969,132.5,523.5969,136.5,513.5969,132.5,517.5969" style="stroke:#003366;stroke-width:1.0;"/><line style="stroke:#003366;stroke-width:1.0;" x1="132.5" x2="132.5" y1="549.941" y2="569.941"/><polygon fill="#003366" points="128.5,559.941,132.5,569.941,136.5,559.941,132.5,563.941" style="stroke:#003366;stroke-width:1.0;"/><line style="stroke:#003366;stroke-width:1.0;" x1="132.5" x2="132.5" y1="157.6882" y2="177.6882"/><polygon fill="#003366" points="128.5,167.6882,132.5,177.6882,136.5,167.6882,132.5,171.6882" style="stroke:#003366;stroke-width:1.0;"/><line style="stroke:#003366;stroke-width:1.0;" x1="132.5" x2="132.5" y1="593.941" y2="613.941"/><polygon fill="#003366" points="128.5,603.941,132.5,613.941,136.5,603.941,132.5,607.941" style="stroke:#003366;stroke-width:1.0;"/><line style="stroke:#003366;stroke-width:1.0;" x1="132.5" x2="132.5" y1="660.2851" y2="680.2851"/><polygon fill="#003366" points="128.5,670.2851,132.5,680.2851,136.5,670.2851,132.5,674.2851" style="stroke:#003366;stroke-width:1.0;"/><!--SRC=[PP0nKiD034NxFOMeS0euW5Cm3AGap703sPOJWQpTsTK6SYIVmnT3SHWAQ3Nwxp_fXhMNEX0KEmlTfpf92CKmMsYVeWZrHZ1GWI6gBZELhS_pCgDnL1Wg945LrWEmiZ7ADcHAX1O0sfsU8b_JN59KxbZObha0rYyWBSG7HJM7-lRRClUKhboFU8b7ogMHHsYU_n3wE2MNwCHN7pPWHr9eNYjl7DLbmez0KWYQVTJBg7s90u_S__DUg_UndaZSQFMzfRi9MRoOr4C_1y7daSM1EmKq8rt_uXewSfvMx2QqZ-Fe7yFV8zvhFZkdM4pV]--></g></svg>