<?xml version="1.0" encoding="us-ascii" standalone="no"?><svg xmlns="http://www.w3.org/2000/svg" xmlns:xlink="http://www.w3.org/1999/xlink" contentStyleType="text/css" height="796px" preserveAspectRatio="none" style="width:1291px;height:796px;background:#FFFFFF;" version="1.1" viewBox="0 0 1291 796" width="1291px" zoomAndPan="magnify"><defs/><g><rect fill="#F2F4F7" height="497.1294" style="stroke:#003366;stroke-width:1.0;" width="10" x="596" y="176.3765"/><rect fill="#F2F4F7" height="376.097" style="stroke:#003366;stroke-width:1.0;" width="10" x="734" y="216.7206"/><rect fill="#F2F4F7" height="134.0323" style="stroke:#003366;stroke-width:1.0;" width="10" x="1001" y="418.4411"/><rect fill="#F2F4F7" height="40.3441" style="stroke:#003366;stroke-width:1.0;" width="10" x="1234" y="257.0647"/><line style="stroke:#003366;stroke-width:1.0;stroke-dasharray:5.0,5.0;" x1="55" x2="55" y1="93.6882" y2="691.5058"/><line style="stroke:#003366;stroke-width:1.0;stroke-dasharray:5.0,5.0;" x1="302.5" x2="302.5" y1="93.6882" y2="691.5058"/><line style="stroke:#003366;stroke-width:1.0;stroke-dasharray:5.0,5.0;" x1="601" x2="601" y1="93.6882" y2="691.5058"/><line style="stroke:#003366;stroke-width:1.0;stroke-dasharray:5.0,5.0;" x1="739" x2="739" y1="93.6882" y2="691.5058"/><line style="stroke:#003366;stroke-width:1.0;stroke-dasharray:5.0,5.0;" x1="1006" x2="1006" y1="93.6882" y2="691.5058"/><line style="stroke:#003366;stroke-width:1.0;stroke-dasharray:5.0,5.0;" x1="1239" x2="1239" y1="93.6882" y2="691.5058"/><text fill="#000000" font-family="sans-serif" font-size="12" lengthAdjust="spacing" textLength="74" x="15" y="85.1722">Coordinateur</text><ellipse cx="55" cy="15.3441" fill="#F2F4F7" rx="8" ry="8" style="stroke:#003366;stroke-width:1.0;"/><path d="M55,23.3441 L55,50.3441 M42,31.3441 L68,31.3441 M55,50.3441 L42,65.3441 M55,50.3441 L68,65.3441 " fill="none" style="stroke:#003366;stroke-width:1.0;"/><text fill="#000000" font-family="sans-serif" font-size="12" lengthAdjust="spacing" textLength="74" x="15" y="708.3339">Coordinateur</text><ellipse cx="55" cy="725.8499" fill="#F2F4F7" rx="8" ry="8" style="stroke:#003366;stroke-width:1.0;"/><path d="M55,733.8499 L55,760.8499 M42,741.8499 L68,741.8499 M55,760.8499 L42,775.8499 M55,760.8499 L68,775.8499 " fill="none" style="stroke:#003366;stroke-width:1.0;"/><text fill="#000000" font-family="sans-serif" font-size="12" lengthAdjust="spacing" textLength="91" x="254.5" y="68.8281">Tableau de bord</text><text fill="#000000" font-family="sans-serif" font-size="12" lengthAdjust="spacing" textLength="29" x="285.5" y="85.1722">(Vue)</text><path d="M282.5,23 L282.5,47 M282.5,35 L299.5,35 " fill="none" style="stroke:#003366;stroke-width:1.0;"/><ellipse cx="311.5" cy="35" fill="#F2F4F7" rx="12" ry="12" style="stroke:#003366;stroke-width:1.0;"/><text fill="#000000" font-family="sans-serif" font-size="12" lengthAdjust="spacing" textLength="91" x="254.5" y="708.3339">Tableau de bord</text><text fill="#000000" font-family="sans-serif" font-size="12" lengthAdjust="spacing" textLength="29" x="285.5" y="724.678">(Vue)</text><path d="M282.5,737.1941 L282.5,761.1941 M282.5,749.1941 L299.5,749.1941 " fill="none" style="stroke:#003366;stroke-width:1.0;"/><ellipse cx="311.5" cy="749.1941" fill="#F2F4F7" rx="12" ry="12" style="stroke:#003366;stroke-width:1.0;"/><text fill="#000000" font-family="sans-serif" font-size="12" lengthAdjust="spacing" textLength="56" x="570" y="85.1722">Controller</text><ellipse cx="601" cy="51.3441" fill="#F2F4F7" rx="12" ry="12" style="stroke:#003366;stroke-width:1.0;"/><polygon fill="#003366" points="597,39.3441,603,34.3441,601,39.3441,603,44.3441,597,39.3441" style="stroke:#003366;stroke-width:1.0;"/><text fill="#000000" font-family="sans-serif" font-size="12" lengthAdjust="spacing" textLength="56" x="570" y="708.3339">Controller</text><ellipse cx="601" cy="732.8499" fill="#F2F4F7" rx="12" ry="12" style="stroke:#003366;stroke-width:1.0;"/><polygon fill="#003366" points="597,720.8499,603,715.8499,601,720.8499,603,725.8499,597,720.8499" style="stroke:#003366;stroke-width:1.0;"/><text fill="#000000" font-family="sans-serif" font-size="12" lengthAdjust="spacing" textLength="92" x="690" y="85.1722">Planning Service</text><ellipse cx="739" cy="51.3441" fill="#F2F4F7" rx="12" ry="12" style="stroke:#003366;stroke-width:1.0;"/><line style="stroke:#003366;stroke-width:1.0;" x1="727" x2="751" y1="65.3441" y2="65.3441"/><text fill="#000000" font-family="sans-serif" font-size="12" lengthAdjust="spacing" textLength="92" x="690" y="708.3339">Planning Service</text><ellipse cx="739" cy="732.8499" fill="#F2F4F7" rx="12" ry="12" style="stroke:#003366;stroke-width:1.0;"/><line style="stroke:#003366;stroke-width:1.0;" x1="727" x2="751" y1="746.8499" y2="746.8499"/><text fill="#000000" font-family="sans-serif" font-size="12" lengthAdjust="spacing" textLength="108" x="949" y="85.1722">Notification Service</text><ellipse cx="1006" cy="51.3441" fill="#F2F4F7" rx="12" ry="12" style="stroke:#003366;stroke-width:1.0;"/><line style="stroke:#003366;stroke-width:1.0;" x1="994" x2="1018" y1="65.3441" y2="65.3441"/><text fill="#000000" font-family="sans-serif" font-size="12" lengthAdjust="spacing" textLength="108" x="949" y="708.3339">Notification Service</text><ellipse cx="1006" cy="732.8499" fill="#F2F4F7" rx="12" ry="12" style="stroke:#003366;stroke-width:1.0;"/><line style="stroke:#003366;stroke-width:1.0;" x1="994" x2="1018" y1="746.8499" y2="746.8499"/><text fill="#000000" font-family="sans-serif" font-size="12" lengthAdjust="spacing" textLength="96" x="1188" y="68.8281">Base de donn&#233;es</text><text fill="#000000" font-family="sans-serif" font-size="12" lengthAdjust="spacing" textLength="43" x="1214.5" y="85.1722">(Model)</text><path d="M1221,15 C1221,5 1239,5 1239,5 C1239,5 1257,5 1257,15 L1257,41 C1257,51 1239,51 1239,51 C1239,51 1221,51 1221,41 L1221,15 " fill="#F2F4F7" style="stroke:#003366;stroke-width:1.5;"/><path d="M1221,15 C1221,25 1239,25 1239,25 C1239,25 1257,25 1257,15 " fill="none" style="stroke:#003366;stroke-width:1.5;"/><text fill="#000000" font-family="sans-serif" font-size="12" lengthAdjust="spacing" textLength="96" x="1188" y="708.3339">Base de donn&#233;es</text><text fill="#000000" font-family="sans-serif" font-size="12" lengthAdjust="spacing" textLength="43" x="1214.5" y="724.678">(Model)</text><path d="M1221,743.1941 C1221,733.1941 1239,733.1941 1239,733.1941 C1239,733.1941 1257,733.1941 1257,743.1941 L1257,769.1941 C1257,779.1941 1239,779.1941 1239,779.1941 C1239,779.1941 1221,779.1941 1221,769.1941 L1221,743.1941 " fill="#F2F4F7" style="stroke:#003366;stroke-width:1.5;"/><path d="M1221,743.1941 C1221,753.1941 1239,753.1941 1239,753.1941 C1239,753.1941 1257,753.1941 1257,743.1941 " fill="none" style="stroke:#003366;stroke-width:1.5;"/><rect fill="#F2F4F7" height="497.1294" style="stroke:#003366;stroke-width:1.0;" width="10" x="596" y="176.3765"/><rect fill="#F2F4F7" height="376.097" style="stroke:#003366;stroke-width:1.0;" width="10" x="734" y="216.7206"/><rect fill="#F2F4F7" height="134.0323" style="stroke:#003366;stroke-width:1.0;" width="10" x="1001" y="418.4411"/><rect fill="#F2F4F7" height="40.3441" style="stroke:#003366;stroke-width:1.0;" width="10" x="1234" y="257.0647"/><polygon fill="#003366" points="291,132.0323,301,136.0323,291,140.0323,295,136.0323" style="stroke:#003366;stroke-width:1.0;"/><line style="stroke:#003366;stroke-width:1.0;" x1="55" x2="297" y1="136.0323" y2="136.0323"/><text fill="#003366" font-family="sans-serif" font-size="12" lengthAdjust="spacing" textLength="154" x="67" y="125.5163">Clique sur "Valider Session"</text><polygon fill="#003366" points="584,172.3765,594,176.3765,584,180.3765,588,176.3765" style="stroke:#003366;stroke-width:1.0;"/><line style="stroke:#003366;stroke-width:1.0;" x1="303" x2="590" y1="176.3765" y2="176.3765"/><text fill="#003366" font-family="sans-serif" font-size="12" lengthAdjust="spacing" textLength="264" x="315" y="165.8604">POST /api/planning/validate-session (sessionId)</text><polygon fill="#003366" points="722,212.7206,732,216.7206,722,220.7206,726,216.7206" style="stroke:#003366;stroke-width:1.0;"/><line style="stroke:#003366;stroke-width:1.0;" x1="606" x2="728" y1="216.7206" y2="216.7206"/><text fill="#003366" font-family="sans-serif" font-size="12" lengthAdjust="spacing" textLength="99" x="618" y="206.2045">validerSession(id)</text><polygon fill="#003366" points="1222,253.0647,1232,257.0647,1222,261.0647,1226,257.0647" style="stroke:#003366;stroke-width:1.0;"/><line style="stroke:#003366;stroke-width:1.0;" x1="744" x2="1228" y1="257.0647" y2="257.0647"/><text fill="#003366" font-family="sans-serif" font-size="12" lengthAdjust="spacing" textLength="150" x="756" y="246.5487">V&#233;rifier conformit&#233; session</text><polygon fill="#003366" points="755,293.4088,745,297.4088,755,301.4088,751,297.4088" style="stroke:#003366;stroke-width:1.0;"/><line style="stroke:#003366;stroke-width:1.0;stroke-dasharray:2.0,2.0;" x1="749" x2="1238" y1="297.4088" y2="297.4088"/><text fill="#003366" font-family="sans-serif" font-size="12" lengthAdjust="spacing" textLength="16" x="766" y="286.8928">OK</text><polygon fill="#003366" points="1227,333.7529,1237,337.7529,1227,341.7529,1231,337.7529" style="stroke:#003366;stroke-width:1.0;"/><line style="stroke:#003366;stroke-width:1.0;" x1="744" x2="1233" y1="337.7529" y2="337.7529"/><text fill="#003366" font-family="sans-serif" font-size="12" lengthAdjust="spacing" textLength="263" x="756" y="327.2369">Mise &#224; jour statuts (PLANIFIEE -&gt; CONVOQUEE)</text><polygon fill="#003366" points="1227,374.097,1237,378.097,1227,382.097,1231,378.097" style="stroke:#003366;stroke-width:1.0;"/><line style="stroke:#003366;stroke-width:1.0;" x1="744" x2="1233" y1="378.097" y2="378.097"/><text fill="#003366" font-family="sans-serif" font-size="12" lengthAdjust="spacing" textLength="124" x="756" y="367.581">Cl&#244;turer modifications</text><polygon fill="#003366" points="989,414.4411,999,418.4411,989,422.4411,993,418.4411" style="stroke:#003366;stroke-width:1.0;"/><line style="stroke:#003366;stroke-width:1.0;" x1="744" x2="995" y1="418.4411" y2="418.4411"/><text fill="#003366" font-family="sans-serif" font-size="12" lengthAdjust="spacing" textLength="228" x="756" y="407.9251">envoyerNotificationsMassives(sessionId)</text><polygon fill="#003366" points="1227,454.7853,1237,458.7853,1227,462.7853,1231,458.7853" style="stroke:#003366;stroke-width:1.0;"/><line style="stroke:#003366;stroke-width:1.0;" x1="1011" x2="1233" y1="458.7853" y2="458.7853"/><text fill="#003366" font-family="sans-serif" font-size="12" lengthAdjust="spacing" textLength="194" x="1023" y="448.2692">R&#233;cup&#233;rer emails (&#201;tudiants, Jurys)</text><line style="stroke:#003366;stroke-width:1.0;" x1="1011" x2="1053" y1="499.1294" y2="499.1294"/><line style="stroke:#003366;stroke-width:1.0;" x1="1053" x2="1053" y1="499.1294" y2="512.1294"/><line style="stroke:#003366;stroke-width:1.0;" x1="1012" x2="1053" y1="512.1294" y2="512.1294"/><polygon fill="#003366" points="1022,508.1294,1012,512.1294,1022,516.1294,1018,512.1294" style="stroke:#003366;stroke-width:1.0;"/><text fill="#003366" font-family="sans-serif" font-size="12" lengthAdjust="spacing" textLength="117" x="1023" y="488.6133">Envoi e-mails (SMTP)</text><polygon fill="#003366" points="755,548.4735,745,552.4735,755,556.4735,751,552.4735" style="stroke:#003366;stroke-width:1.0;"/><line style="stroke:#003366;stroke-width:1.0;stroke-dasharray:2.0,2.0;" x1="749" x2="1005" y1="552.4735" y2="552.4735"/><text fill="#003366" font-family="sans-serif" font-size="12" lengthAdjust="spacing" textLength="126" x="766" y="541.9575">Notifications envoy&#233;es</text><polygon fill="#003366" points="617,588.8176,607,592.8176,617,596.8176,613,592.8176" style="stroke:#003366;stroke-width:1.0;"/><line style="stroke:#003366;stroke-width:1.0;stroke-dasharray:2.0,2.0;" x1="611" x2="738" y1="592.8176" y2="592.8176"/><text fill="#003366" font-family="sans-serif" font-size="12" lengthAdjust="spacing" textLength="87" x="628" y="582.3016">Session Valid&#233;e</text><polygon fill="#003366" points="314,629.1617,304,633.1617,314,637.1617,310,633.1617" style="stroke:#003366;stroke-width:1.0;"/><line style="stroke:#003366;stroke-width:1.0;stroke-dasharray:2.0,2.0;" x1="308" x2="595" y1="633.1617" y2="633.1617"/><text fill="#003366" font-family="sans-serif" font-size="12" lengthAdjust="spacing" textLength="40" x="325" y="622.6457">200 OK</text><polygon fill="#003366" points="66,669.5058,56,673.5058,66,677.5058,62,673.5058" style="stroke:#003366;stroke-width:1.0;"/><line style="stroke:#003366;stroke-width:1.0;stroke-dasharray:2.0,2.0;" x1="60" x2="302" y1="673.5058" y2="673.5058"/><text fill="#003366" font-family="sans-serif" font-size="12" lengthAdjust="spacing" textLength="214" x="77" y="662.9898">Afficher succ&#232;s et verrouillage session</text><!--SRC=[RL9BRjim5Dpp5AzUsK0T1rrcKI1s5C1j_MdjUjKDBJub32ZIvKU0Zz1RT5dlUmDTB4yIBTDDDm9jpimRpfjt_XbBX4E1K5XJmWrZFFV6mc1cZ1LISu_13e0xQFzWUnEquFO8WotVA-G11CAURdxeuIxWg8K-MgCzo-bZZMgaseF2iz3v9qFjfIUjjU9QI_q46xILpB75nNCFMXel2vbpBus-0hONHoQuvtlk40RJvak-XD6wFg4ZRmiZK7Nk7gQCjO-1ySVEAjp1JCcV0S45UlgEAodGqWpdQDQ0TI12NwmJPRtQR6723t9oYFOdLSEaoCQkey8m7kPYr0GhAxfC0s298kd7Lv5urNc85eOovP-3OMSuCH-cHDhL9qiHaHPbNnXRIb-V85guy2a0We-lvgq-Cu4fuetuGbAezMzuCPIHyzm7xs2u_dA_d3_EiwoDPxNShRv-pxBH6_PCrNzzi6IjDA9VexiQq-sHmAWhSqIRBjmjEBsYGlVVH6C3ei1vvhVwb8S3PK9JiUHIaT_wbmz2SktTU_WKxD6D4bPl82C34d0SIPl5Tdt1NULsvR4ptZGk3JEQkxpqtoB59KFREsAdv7xNQL6ItdwulMrs5nlQAZVDleFxWcmz4zg5FA__a3SF5LfhWbIAFs5VYsHOKinN]--></g></svg>