<?xml version="1.0" encoding="us-ascii" standalone="no"?><svg xmlns="http://www.w3.org/2000/svg" xmlns:xlink="http://www.w3.org/1999/xlink" contentStyleType="text/css" height="607px" preserveAspectRatio="none" style="width:1042px;height:607px;background:#FFFFFF;" version="1.1" viewBox="0 0 1042 607" width="1042px" zoomAndPan="magnify"><defs/><g><rect fill="#F2F4F7" height="322.7529" style="stroke:#003366;stroke-width:1.0;" width="10" x="434" y="175.0323"/><rect fill="#F2F4F7" height="201.7206" style="stroke:#003366;stroke-width:1.0;" width="10" x="707" y="215.3765"/><rect fill="#F2F4F7" height="40.3441" style="stroke:#003366;stroke-width:1.0;" width="10" x="985" y="255.7206"/><rect fill="#F2F4F7" height="40.3441" style="stroke:#003366;stroke-width:1.0;" width="10" x="985" y="336.4088"/><line style="stroke:#003366;stroke-width:1.0;stroke-dasharray:5.0,5.0;" x1="49" x2="49" y1="92.3441" y2="515.7853"/><line style="stroke:#003366;stroke-width:1.0;stroke-dasharray:5.0,5.0;" x1="237.5" x2="237.5" y1="92.3441" y2="515.7853"/><line style="stroke:#003366;stroke-width:1.0;stroke-dasharray:5.0,5.0;" x1="439" x2="439" y1="92.3441" y2="515.7853"/><line style="stroke:#003366;stroke-width:1.0;stroke-dasharray:5.0,5.0;" x1="712" x2="712" y1="92.3441" y2="515.7853"/><line style="stroke:#003366;stroke-width:1.0;stroke-dasharray:5.0,5.0;" x1="990" x2="990" y1="92.3441" y2="515.7853"/><text fill="#000000" font-family="sans-serif" font-size="12" lengthAdjust="spacing" textLength="62" x="15" y="83.8281">Enseignant</text><ellipse cx="49" cy="14" fill="#F2F4F7" rx="8" ry="8" style="stroke:#003366;stroke-width:1.0;"/><path d="M49,22 L49,49 M36,30 L62,30 M49,49 L36,64 M49,49 L62,64 " fill="none" style="stroke:#003366;stroke-width:1.0;"/><text fill="#000000" font-family="sans-serif" font-size="12" lengthAdjust="spacing" textLength="62" x="15" y="532.6133">Enseignant</text><ellipse cx="49" cy="550.1294" fill="#F2F4F7" rx="8" ry="8" style="stroke:#003366;stroke-width:1.0;"/><path d="M49,558.1294 L49,585.1294 M36,566.1294 L62,566.1294 M49,585.1294 L36,600.1294 M49,585.1294 L62,600.1294 " fill="none" style="stroke:#003366;stroke-width:1.0;"/><text fill="#000000" font-family="sans-serif" font-size="12" lengthAdjust="spacing" textLength="59" x="205.5" y="83.8281">Calendrier</text><path d="M217.5,38 L217.5,62 M217.5,50 L234.5,50 " fill="none" style="stroke:#003366;stroke-width:1.0;"/><ellipse cx="246.5" cy="50" fill="#F2F4F7" rx="12" ry="12" style="stroke:#003366;stroke-width:1.0;"/><text fill="#000000" font-family="sans-serif" font-size="12" lengthAdjust="spacing" textLength="59" x="205.5" y="532.6133">Calendrier</text><path d="M217.5,545.1294 L217.5,569.1294 M217.5,557.1294 L234.5,557.1294 " fill="none" style="stroke:#003366;stroke-width:1.0;"/><ellipse cx="246.5" cy="557.1294" fill="#F2F4F7" rx="12" ry="12" style="stroke:#003366;stroke-width:1.0;"/><text fill="#000000" font-family="sans-serif" font-size="12" lengthAdjust="spacing" textLength="56" x="408" y="83.8281">Controller</text><ellipse cx="439" cy="50" fill="#F2F4F7" rx="12" ry="12" style="stroke:#003366;stroke-width:1.0;"/><polygon fill="#003366" points="435,38,441,33,439,38,441,43,435,38" style="stroke:#003366;stroke-width:1.0;"/><text fill="#000000" font-family="sans-serif" font-size="12" lengthAdjust="spacing" textLength="56" x="408" y="532.6133">Controller</text><ellipse cx="439" cy="557.1294" fill="#F2F4F7" rx="12" ry="12" style="stroke:#003366;stroke-width:1.0;"/><polygon fill="#003366" points="435,545.1294,441,540.1294,439,545.1294,441,550.1294,435,545.1294" style="stroke:#003366;stroke-width:1.0;"/><text fill="#000000" font-family="sans-serif" font-size="12" lengthAdjust="spacing" textLength="104" x="657" y="83.8281">Availability Service</text><ellipse cx="712" cy="50" fill="#F2F4F7" rx="12" ry="12" style="stroke:#003366;stroke-width:1.0;"/><line style="stroke:#003366;stroke-width:1.0;" x1="700" x2="724" y1="64" y2="64"/><text fill="#000000" font-family="sans-serif" font-size="12" lengthAdjust="spacing" textLength="104" x="657" y="532.6133">Availability Service</text><ellipse cx="712" cy="557.1294" fill="#F2F4F7" rx="12" ry="12" style="stroke:#003366;stroke-width:1.0;"/><line style="stroke:#003366;stroke-width:1.0;" x1="700" x2="724" y1="571.1294" y2="571.1294"/><text fill="#000000" font-family="sans-serif" font-size="12" lengthAdjust="spacing" textLength="96" x="939" y="83.8281">Base de donn&#233;es</text><path d="M972,30 C972,20 990,20 990,20 C990,20 1008,20 1008,30 L1008,56 C1008,66 990,66 990,66 C990,66 972,66 972,56 L972,30 " fill="#F2F4F7" style="stroke:#003366;stroke-width:1.5;"/><path d="M972,30 C972,40 990,40 990,40 C990,40 1008,40 1008,30 " fill="none" style="stroke:#003366;stroke-width:1.5;"/><text fill="#000000" font-family="sans-serif" font-size="12" lengthAdjust="spacing" textLength="96" x="939" y="532.6133">Base de donn&#233;es</text><path d="M972,551.1294 C972,541.1294 990,541.1294 990,541.1294 C990,541.1294 1008,541.1294 1008,551.1294 L1008,577.1294 C1008,587.1294 990,587.1294 990,587.1294 C990,587.1294 972,587.1294 972,577.1294 L972,551.1294 " fill="#F2F4F7" style="stroke:#003366;stroke-width:1.5;"/><path d="M972,551.1294 C972,561.1294 990,561.1294 990,561.1294 C990,561.1294 1008,561.1294 1008,551.1294 " fill="none" style="stroke:#003366;stroke-width:1.5;"/><rect fill="#F2F4F7" height="322.7529" style="stroke:#003366;stroke-width:1.0;" width="10" x="434" y="175.0323"/><rect fill="#F2F4F7" height="201.7206" style="stroke:#003366;stroke-width:1.0;" width="10" x="707" y="215.3765"/><rect fill="#F2F4F7" height="40.3441" style="stroke:#003366;stroke-width:1.0;" width="10" x="985" y="255.7206"/><rect fill="#F2F4F7" height="40.3441" style="stroke:#003366;stroke-width:1.0;" width="10" x="985" y="336.4088"/><polygon fill="#003366" points="226,130.6882,236,134.6882,226,138.6882,230,134.6882" style="stroke:#003366;stroke-width:1.0;"/><line style="stroke:#003366;stroke-width:1.0;" x1="49" x2="232" y1="134.6882" y2="134.6882"/><text fill="#003366" font-family="sans-serif" font-size="12" lengthAdjust="spacing" textLength="155" x="61" y="124.1722">S&#233;lectionne plages horaires</text><polygon fill="#003366" points="422,171.0323,432,175.0323,422,179.0323,426,175.0323" style="stroke:#003366;stroke-width:1.0;"/><line style="stroke:#003366;stroke-width:1.0;" x1="238" x2="428" y1="175.0323" y2="175.0323"/><text fill="#003366" font-family="sans-serif" font-size="12" lengthAdjust="spacing" textLength="167" x="250" y="164.5163">POST /api/availability (ranges)</text><polygon fill="#003366" points="695,211.3765,705,215.3765,695,219.3765,699,215.3765" style="stroke:#003366;stroke-width:1.0;"/><line style="stroke:#003366;stroke-width:1.0;" x1="444" x2="701" y1="215.3765" y2="215.3765"/><text fill="#003366" font-family="sans-serif" font-size="12" lengthAdjust="spacing" textLength="234" x="456" y="204.8604">enregistrerIndisponibilites(profId, ranges)</text><polygon fill="#003366" points="973,251.7206,983,255.7206,973,259.7206,977,255.7206" style="stroke:#003366;stroke-width:1.0;"/><line style="stroke:#003366;stroke-width:1.0;" x1="717" x2="979" y1="255.7206" y2="255.7206"/><text fill="#003366" font-family="sans-serif" font-size="12" lengthAdjust="spacing" textLength="239" x="729" y="245.2045">Supprimer anciennes plages (si existantes)</text><polygon fill="#003366" points="728,292.0647,718,296.0647,728,300.0647,724,296.0647" style="stroke:#003366;stroke-width:1.0;"/><line style="stroke:#003366;stroke-width:1.0;stroke-dasharray:2.0,2.0;" x1="722" x2="989" y1="296.0647" y2="296.0647"/><text fill="#003366" font-family="sans-serif" font-size="12" lengthAdjust="spacing" textLength="16" x="739" y="285.5487">OK</text><polygon fill="#003366" points="973,332.4088,983,336.4088,973,340.4088,977,336.4088" style="stroke:#003366;stroke-width:1.0;"/><line style="stroke:#003366;stroke-width:1.0;" x1="717" x2="979" y1="336.4088" y2="336.4088"/><text fill="#003366" font-family="sans-serif" font-size="12" lengthAdjust="spacing" textLength="183" x="729" y="325.8928">Ins&#233;rer nouvelles indisponibilit&#233;s</text><polygon fill="#003366" points="728,372.7529,718,376.7529,728,380.7529,724,376.7529" style="stroke:#003366;stroke-width:1.0;"/><line style="stroke:#003366;stroke-width:1.0;stroke-dasharray:2.0,2.0;" x1="722" x2="989" y1="376.7529" y2="376.7529"/><text fill="#003366" font-family="sans-serif" font-size="12" lengthAdjust="spacing" textLength="16" x="739" y="366.2369">OK</text><polygon fill="#003366" points="455,413.097,445,417.097,455,421.097,451,417.097" style="stroke:#003366;stroke-width:1.0;"/><line style="stroke:#003366;stroke-width:1.0;stroke-dasharray:2.0,2.0;" x1="449" x2="711" y1="417.097" y2="417.097"/><text fill="#003366" font-family="sans-serif" font-size="12" lengthAdjust="spacing" textLength="55" x="466" y="406.581">Mis &#224; jour</text><polygon fill="#003366" points="249,453.4411,239,457.4411,249,461.4411,245,457.4411" style="stroke:#003366;stroke-width:1.0;"/><line style="stroke:#003366;stroke-width:1.0;stroke-dasharray:2.0,2.0;" x1="243" x2="433" y1="457.4411" y2="457.4411"/><text fill="#003366" font-family="sans-serif" font-size="12" lengthAdjust="spacing" textLength="40" x="260" y="446.9251">200 OK</text><polygon fill="#003366" points="60,493.7853,50,497.7853,60,501.7853,56,497.7853" style="stroke:#003366;stroke-width:1.0;"/><line style="stroke:#003366;stroke-width:1.0;stroke-dasharray:2.0,2.0;" x1="54" x2="237" y1="497.7853" y2="497.7853"/><text fill="#003366" font-family="sans-serif" font-size="12" lengthAdjust="spacing" textLength="118" x="71" y="487.2692">Afficher confirmation</text><!--SRC=[dLBDQi904BxlKqnpib2hzEYXeBK5AKN1li2OJ7HAt0spcz2-JQzvZhnO9r7hMc-5iEmottm_Cxa9EzeJb3b1BcuFzyPW6fn0ycmzyTQY3GcWXvMut6nSPJEKBqYUi22R2PFqrHTnDfXK3t65LW-NubWzFmtPm47xfpLoWHikkjUQfEQKUkpnRZ8Ck45FaCowCzFFMTisv7lOV6PCPmc6ZmTncC2wRGfA0ojE4nMu9Gyx9yX2tXn0YZwRqPRLSlqE8onvXB6XWQ3Lxjjk5bnZe3Y2YHYKxsXOoSWARTa78LdOZ7tfBFU4v0UbUbraTt15VCfhJZnAEPzrQQgo5Dwh2DgKIJFvKwY1Pw1FLTBbN93fLBHtUE5g-MeoYX5NIWlhsqPDWtLLJPhB0r_uRnl_Rus_4tzZ3-qtVBXAufxVCSJ3ZNRxC1vtAiSjQg5V_WIcUSxfJi7wx-KiU-pM7nD7Y_i1]--></g></svg>