<?xml version="1.0" encoding="us-ascii" standalone="no"?><svg xmlns="http://www.w3.org/2000/svg" xmlns:xlink="http://www.w3.org/1999/xlink" contentStyleType="text/css" height="1228px" preserveAspectRatio="none" style="width:1236px;height:1228px;background:#FFFFFF;" version="1.1" viewBox="0 0 1236 1228" width="1236px" zoomAndPan="magnify"><defs/><g><rect fill="#F2F4F7" height="881.9146" style="stroke:#003366;stroke-width:1.0;" width="10" x="497" y="176.3765"/><rect fill="#F2F4F7" height="801.2264" style="stroke:#003366;stroke-width:1.0;" width="10" x="667" y="216.7206"/><rect fill="#F2F4F7" height="121.0323" style="stroke:#003366;stroke-width:1.0;" width="10" x="946" y="257.0647"/><rect fill="#F2F4F7" height="121.0323" style="stroke:#003366;stroke-width:1.0;" width="10" x="946" y="418.4411"/><rect fill="none" height="552.1617" rx="2.5" ry="2.5" style="stroke:#003366;stroke-width:1.0;" width="1214" x="15" y="554.4735"/><line style="stroke:#003366;stroke-width:1.0;stroke-dasharray:5.0,5.0;" x1="70" x2="70" y1="93.6882" y2="1123.6352"/><line style="stroke:#003366;stroke-width:1.0;stroke-dasharray:5.0,5.0;" x1="313" x2="313" y1="93.6882" y2="1123.6352"/><line style="stroke:#003366;stroke-width:1.0;stroke-dasharray:5.0,5.0;" x1="502" x2="502" y1="93.6882" y2="1123.6352"/><line style="stroke:#003366;stroke-width:1.0;stroke-dasharray:5.0,5.0;" x1="672" x2="672" y1="93.6882" y2="1123.6352"/><line style="stroke:#003366;stroke-width:1.0;stroke-dasharray:5.0,5.0;" x1="951" x2="951" y1="93.6882" y2="1123.6352"/><line style="stroke:#003366;stroke-width:1.0;stroke-dasharray:5.0,5.0;" x1="1163" x2="1163" y1="93.6882" y2="1123.6352"/><text fill="#000000" font-family="sans-serif" font-size="12" lengthAdjust="spacing" textLength="74" x="30" y="85.1722">Coordinateur</text><ellipse cx="70" cy="15.3441" fill="#F2F4F7" rx="8" ry="8" style="stroke:#003366;stroke-width:1.0;"/><path d="M70,23.3441 L70,50.3441 M57,31.3441 L83,31.3441 M70,50.3441 L57,65.3441 M70,50.3441 L83,65.3441 " fill="none" style="stroke:#003366;stroke-width:1.0;"/><text fill="#000000" font-family="sans-serif" font-size="12" lengthAdjust="spacing" textLength="74" x="30" y="1140.4633">Coordinateur</text><ellipse cx="70" cy="1157.9793" fill="#F2F4F7" rx="8" ry="8" style="stroke:#003366;stroke-width:1.0;"/><path d="M70,1165.9793 L70,1192.9793 M57,1173.9793 L83,1173.9793 M70,1192.9793 L57,1207.9793 M70,1192.9793 L83,1207.9793 " fill="none" style="stroke:#003366;stroke-width:1.0;"/><text fill="#000000" font-family="sans-serif" font-size="12" lengthAdjust="spacing" textLength="102" x="259" y="68.8281">Interface Planning</text><text fill="#000000" font-family="sans-serif" font-size="12" lengthAdjust="spacing" textLength="29" x="295.5" y="85.1722">(Vue)</text><path d="M292.5,23 L292.5,47 M292.5,35 L309.5,35 " fill="none" style="stroke:#003366;stroke-width:1.0;"/><ellipse cx="321.5" cy="35" fill="#F2F4F7" rx="12" ry="12" style="stroke:#003366;stroke-width:1.0;"/><text fill="#000000" font-family="sans-serif" font-size="12" lengthAdjust="spacing" textLength="102" x="259" y="1140.4633">Interface Planning</text><text fill="#000000" font-family="sans-serif" font-size="12" lengthAdjust="spacing" textLength="29" x="295.5" y="1156.8074">(Vue)</text><path d="M292.5,1169.3234 L292.5,1193.3234 M292.5,1181.3234 L309.5,1181.3234 " fill="none" style="stroke:#003366;stroke-width:1.0;"/><ellipse cx="321.5" cy="1181.3234" fill="#F2F4F7" rx="12" ry="12" style="stroke:#003366;stroke-width:1.0;"/><text fill="#000000" font-family="sans-serif" font-size="12" lengthAdjust="spacing" textLength="56" x="471" y="85.1722">Controller</text><ellipse cx="502" cy="51.3441" fill="#F2F4F7" rx="12" ry="12" style="stroke:#003366;stroke-width:1.0;"/><polygon fill="#003366" points="498,39.3441,504,34.3441,502,39.3441,504,44.3441,498,39.3441" style="stroke:#003366;stroke-width:1.0;"/><text fill="#000000" font-family="sans-serif" font-size="12" lengthAdjust="spacing" textLength="56" x="471" y="1140.4633">Controller</text><ellipse cx="502" cy="1164.9793" fill="#F2F4F7" rx="12" ry="12" style="stroke:#003366;stroke-width:1.0;"/><polygon fill="#003366" points="498,1152.9793,504,1147.9793,502,1152.9793,504,1157.9793,498,1152.9793" style="stroke:#003366;stroke-width:1.0;"/><text fill="#000000" font-family="sans-serif" font-size="12" lengthAdjust="spacing" textLength="92" x="623" y="85.1722">Planning Service</text><ellipse cx="672" cy="51.3441" fill="#F2F4F7" rx="12" ry="12" style="stroke:#003366;stroke-width:1.0;"/><line style="stroke:#003366;stroke-width:1.0;" x1="660" x2="684" y1="65.3441" y2="65.3441"/><text fill="#000000" font-family="sans-serif" font-size="12" lengthAdjust="spacing" textLength="92" x="623" y="1140.4633">Planning Service</text><ellipse cx="672" cy="1164.9793" fill="#F2F4F7" rx="12" ry="12" style="stroke:#003366;stroke-width:1.0;"/><line style="stroke:#003366;stroke-width:1.0;" x1="660" x2="684" y1="1178.9793" y2="1178.9793"/><text fill="#000000" font-family="sans-serif" font-size="12" lengthAdjust="spacing" textLength="86" x="905" y="85.1722">Conflict Service</text><ellipse cx="951" cy="51.3441" fill="#F2F4F7" rx="12" ry="12" style="stroke:#003366;stroke-width:1.0;"/><line style="stroke:#003366;stroke-width:1.0;" x1="939" x2="963" y1="65.3441" y2="65.3441"/><text fill="#000000" font-family="sans-serif" font-size="12" lengthAdjust="spacing" textLength="86" x="905" y="1140.4633">Conflict Service</text><ellipse cx="951" cy="1164.9793" fill="#F2F4F7" rx="12" ry="12" style="stroke:#003366;stroke-width:1.0;"/><line style="stroke:#003366;stroke-width:1.0;" x1="939" x2="963" y1="1178.9793" y2="1178.9793"/><text fill="#000000" font-family="sans-serif" font-size="12" lengthAdjust="spacing" textLength="96" x="1112" y="68.8281">Base de donn&#233;es</text><text fill="#000000" font-family="sans-serif" font-size="12" lengthAdjust="spacing" textLength="43" x="1138.5" y="85.1722">(Model)</text><path d="M1145,15 C1145,5 1163,5 1163,5 C1163,5 1181,5 1181,15 L1181,41 C1181,51 1163,51 1163,51 C1163,51 1145,51 1145,41 L1145,15 " fill="#F2F4F7" style="stroke:#003366;stroke-width:1.5;"/><path d="M1145,15 C1145,25 1163,25 1163,25 C1163,25 1181,25 1181,15 " fill="none" style="stroke:#003366;stroke-width:1.5;"/><text fill="#000000" font-family="sans-serif" font-size="12" lengthAdjust="spacing" textLength="96" x="1112" y="1140.4633">Base de donn&#233;es</text><text fill="#000000" font-family="sans-serif" font-size="12" lengthAdjust="spacing" textLength="43" x="1138.5" y="1156.8074">(Model)</text><path d="M1145,1175.3234 C1145,1165.3234 1163,1165.3234 1163,1165.3234 C1163,1165.3234 1181,1165.3234 1181,1175.3234 L1181,1201.3234 C1181,1211.3234 1163,1211.3234 1163,1211.3234 C1163,1211.3234 1145,1211.3234 1145,1201.3234 L1145,1175.3234 " fill="#F2F4F7" style="stroke:#003366;stroke-width:1.5;"/><path d="M1145,1175.3234 C1145,1185.3234 1163,1185.3234 1163,1185.3234 C1163,1185.3234 1181,1185.3234 1181,1175.3234 " fill="none" style="stroke:#003366;stroke-width:1.5;"/><rect fill="#F2F4F7" height="881.9146" style="stroke:#003366;stroke-width:1.0;" width="10" x="497" y="176.3765"/><rect fill="#F2F4F7" height="801.2264" style="stroke:#003366;stroke-width:1.0;" width="10" x="667" y="216.7206"/><rect fill="#F2F4F7" height="121.0323" style="stroke:#003366;stroke-width:1.0;" width="10" x="946" y="257.0647"/><rect fill="#F2F4F7" height="121.0323" style="stroke:#003366;stroke-width:1.0;" width="10" x="946" y="418.4411"/><polygon fill="#003366" points="301,132.0323,311,136.0323,301,140.0323,305,136.0323" style="stroke:#003366;stroke-width:1.0;"/><line style="stroke:#003366;stroke-width:1.0;" x1="70" x2="307" y1="136.0323" y2="136.0323"/><text fill="#003366" font-family="sans-serif" font-size="12" lengthAdjust="spacing" textLength="209" x="82" y="125.5163">D&#233;finit (&#201;tudiant, Date, Salle, Horaire)</text><polygon fill="#003366" points="485,172.3765,495,176.3765,485,180.3765,489,176.3765" style="stroke:#003366;stroke-width:1.0;"/><line style="stroke:#003366;stroke-width:1.0;" x1="313" x2="491" y1="176.3765" y2="176.3765"/><text fill="#003366" font-family="sans-serif" font-size="12" lengthAdjust="spacing" textLength="154" x="325" y="165.8604">POST /api/planning/validate</text><polygon fill="#003366" points="655,212.7206,665,216.7206,655,220.7206,659,216.7206" style="stroke:#003366;stroke-width:1.0;"/><line style="stroke:#003366;stroke-width:1.0;" x1="507" x2="661" y1="216.7206" y2="216.7206"/><text fill="#003366" font-family="sans-serif" font-size="12" lengthAdjust="spacing" textLength="131" x="519" y="206.2045">validerPlanning(details)</text><polygon fill="#003366" points="934,253.0647,944,257.0647,934,261.0647,938,257.0647" style="stroke:#003366;stroke-width:1.0;"/><line style="stroke:#003366;stroke-width:1.0;" x1="677" x2="940" y1="257.0647" y2="257.0647"/><text fill="#003366" font-family="sans-serif" font-size="12" lengthAdjust="spacing" textLength="240" x="689" y="246.5487">v&#233;rifierDisponibilit&#233;Salle(salle, date, heure)</text><polygon fill="#003366" points="1151,293.4088,1161,297.4088,1151,301.4088,1155,297.4088" style="stroke:#003366;stroke-width:1.0;"/><line style="stroke:#003366;stroke-width:1.0;" x1="956" x2="1157" y1="297.4088" y2="297.4088"/><text fill="#003366" font-family="sans-serif" font-size="12" lengthAdjust="spacing" textLength="163" x="968" y="286.8928">Rechercher occupations salle</text><polygon fill="#003366" points="967,333.7529,957,337.7529,967,341.7529,963,337.7529" style="stroke:#003366;stroke-width:1.0;"/><line style="stroke:#003366;stroke-width:1.0;stroke-dasharray:2.0,2.0;" x1="961" x2="1162" y1="337.7529" y2="337.7529"/><text fill="#003366" font-family="sans-serif" font-size="12" lengthAdjust="spacing" textLength="51" x="978" y="327.2369">R&#233;sultats</text><polygon fill="#003366" points="688,374.097,678,378.097,688,382.097,684,378.097" style="stroke:#003366;stroke-width:1.0;"/><line style="stroke:#003366;stroke-width:1.0;stroke-dasharray:2.0,2.0;" x1="682" x2="950" y1="378.097" y2="378.097"/><text fill="#003366" font-family="sans-serif" font-size="12" lengthAdjust="spacing" textLength="112" x="699" y="367.581">Status Salle (OK/KO)</text><polygon fill="#003366" points="934,414.4411,944,418.4411,934,422.4411,938,418.4411" style="stroke:#003366;stroke-width:1.0;"/><line style="stroke:#003366;stroke-width:1.0;" x1="677" x2="940" y1="418.4411" y2="418.4411"/><text fill="#003366" font-family="sans-serif" font-size="12" lengthAdjust="spacing" textLength="202" x="689" y="407.9251">v&#233;rifierDoublePlanification(&#233;tudiant)</text><polygon fill="#003366" points="1151,454.7853,1161,458.7853,1151,462.7853,1155,458.7853" style="stroke:#003366;stroke-width:1.0;"/><line style="stroke:#003366;stroke-width:1.0;" x1="956" x2="1157" y1="458.7853" y2="458.7853"/><text fill="#003366" font-family="sans-serif" font-size="12" lengthAdjust="spacing" textLength="173" x="968" y="448.2692">V&#233;rifier si &#233;tudiant d&#233;j&#224; planifi&#233;</text><polygon fill="#003366" points="967,495.1294,957,499.1294,967,503.1294,963,499.1294" style="stroke:#003366;stroke-width:1.0;"/><line style="stroke:#003366;stroke-width:1.0;stroke-dasharray:2.0,2.0;" x1="961" x2="1162" y1="499.1294" y2="499.1294"/><text fill="#003366" font-family="sans-serif" font-size="12" lengthAdjust="spacing" textLength="51" x="978" y="488.6133">R&#233;sultats</text><polygon fill="#003366" points="688,535.4735,678,539.4735,688,543.4735,684,539.4735" style="stroke:#003366;stroke-width:1.0;"/><line style="stroke:#003366;stroke-width:1.0;stroke-dasharray:2.0,2.0;" x1="682" x2="950" y1="539.4735" y2="539.4735"/><text fill="#003366" font-family="sans-serif" font-size="12" lengthAdjust="spacing" textLength="131" x="699" y="528.9575">Status &#201;tudiant (OK/KO)</text><path d="M17.5,554.4735 L86,554.4735 L86,572.8176 L76,582.8176 L15,582.8176 L15,556.9735 A2.5,2.5 0 0 1 17.5,554.4735 " fill="#F2F4F7" style="stroke:#003366;stroke-width:1.0;"/><rect fill="none" height="552.1617" rx="2.5" ry="2.5" style="stroke:#003366;stroke-width:1.0;" width="1214" x="15" y="554.4735"/><text fill="#000000" font-family="sans-serif" font-size="12" font-weight="bold" lengthAdjust="spacing" textLength="16" x="35" y="573.3016">alt</text><text fill="#003366" font-family="sans-serif" font-size="12" font-weight="bold" lengthAdjust="spacing" textLength="136" x="106" y="574.3016">[Aucun conflit d&#233;tect&#233;]</text><polygon fill="#003366" points="518,622.5058,508,626.5058,518,630.5058,514,626.5058" style="stroke:#003366;stroke-width:1.0;"/><line style="stroke:#003366;stroke-width:1.0;stroke-dasharray:2.0,2.0;" x1="512" x2="666" y1="626.5058" y2="626.5058"/><text fill="#003366" font-family="sans-serif" font-size="12" lengthAdjust="spacing" textLength="34" x="529" y="615.9898">Valid&#233;</text><polygon fill="#003366" points="324,662.8499,314,666.8499,324,670.8499,320,666.8499" style="stroke:#003366;stroke-width:1.0;"/><line style="stroke:#003366;stroke-width:1.0;stroke-dasharray:2.0,2.0;" x1="318" x2="496" y1="666.8499" y2="666.8499"/><text fill="#003366" font-family="sans-serif" font-size="12" lengthAdjust="spacing" textLength="150" x="335" y="656.3339">200 OK (Pr&#234;t &#224; enregistrer)</text><polygon fill="#003366" points="301,703.1941,311,707.1941,301,711.1941,305,707.1941" style="stroke:#003366;stroke-width:1.0;"/><line style="stroke:#003366;stroke-width:1.0;" x1="70" x2="307" y1="707.1941" y2="707.1941"/><text fill="#003366" font-family="sans-serif" font-size="12" lengthAdjust="spacing" textLength="148" x="82" y="696.678">Confirme l'enregistrement</text><polygon fill="#003366" points="485,743.5382,495,747.5382,485,751.5382,489,747.5382" style="stroke:#003366;stroke-width:1.0;"/><line style="stroke:#003366;stroke-width:1.0;" x1="313" x2="491" y1="747.5382" y2="747.5382"/><text fill="#003366" font-family="sans-serif" font-size="12" lengthAdjust="spacing" textLength="136" x="325" y="737.0221">POST /api/planning/save</text><polygon fill="#003366" points="655,783.8823,665,787.8823,655,791.8823,659,787.8823" style="stroke:#003366;stroke-width:1.0;"/><line style="stroke:#003366;stroke-width:1.0;" x1="507" x2="661" y1="787.8823" y2="787.8823"/><text fill="#003366" font-family="sans-serif" font-size="12" lengthAdjust="spacing" textLength="108" x="519" y="777.3663">enregistrer(details)</text><polygon fill="#003366" points="1151,824.2264,1161,828.2264,1151,832.2264,1155,828.2264" style="stroke:#003366;stroke-width:1.0;"/><line style="stroke:#003366;stroke-width:1.0;" x1="677" x2="1157" y1="828.2264" y2="828.2264"/><text fill="#003366" font-family="sans-serif" font-size="12" lengthAdjust="spacing" textLength="132" x="689" y="817.7104">Enregistrer Soutenance</text><polygon fill="#003366" points="518,864.5705,508,868.5705,518,872.5705,514,868.5705" style="stroke:#003366;stroke-width:1.0;"/><line style="stroke:#003366;stroke-width:1.0;stroke-dasharray:2.0,2.0;" x1="512" x2="666" y1="868.5705" y2="868.5705"/><text fill="#003366" font-family="sans-serif" font-size="12" lengthAdjust="spacing" textLength="52" x="529" y="858.0545">Confirm&#233;</text><polygon fill="#003366" points="324,904.9146,314,908.9146,324,912.9146,320,908.9146" style="stroke:#003366;stroke-width:1.0;"/><line style="stroke:#003366;stroke-width:1.0;stroke-dasharray:2.0,2.0;" x1="318" x2="496" y1="908.9146" y2="908.9146"/><text fill="#003366" font-family="sans-serif" font-size="12" lengthAdjust="spacing" textLength="69" x="335" y="898.3986">201 Created</text><polygon fill="#003366" points="81,945.2587,71,949.2587,81,953.2587,77,949.2587" style="stroke:#003366;stroke-width:1.0;"/><line style="stroke:#003366;stroke-width:1.0;stroke-dasharray:2.0,2.0;" x1="75" x2="312" y1="949.2587" y2="949.2587"/><text fill="#003366" font-family="sans-serif" font-size="12" lengthAdjust="spacing" textLength="118" x="92" y="938.7427">Afficher confirmation</text><line style="stroke:#003366;stroke-width:1.0;stroke-dasharray:2.0,2.0;" x1="15" x2="1229" y1="958.2587" y2="958.2587"/><text fill="#003366" font-family="sans-serif" font-size="12" font-weight="bold" lengthAdjust="spacing" textLength="109" x="25" y="976.0868">[Conflits d&#233;tect&#233;s]</text><polygon fill="#003366" points="518,1013.947,508,1017.947,518,1021.947,514,1017.947" style="stroke:#003366;stroke-width:1.0;"/><line style="stroke:#003366;stroke-width:1.0;stroke-dasharray:2.0,2.0;" x1="512" x2="671" y1="1017.947" y2="1017.947"/><text fill="#003366" font-family="sans-serif" font-size="12" lengthAdjust="spacing" textLength="79" x="529" y="1007.4309">Erreur conflits</text><polygon fill="#003366" points="324,1054.2911,314,1058.2911,324,1062.2911,320,1058.2911" style="stroke:#003366;stroke-width:1.0;"/><line style="stroke:#003366;stroke-width:1.0;stroke-dasharray:2.0,2.0;" x1="318" x2="501" y1="1058.2911" y2="1058.2911"/><text fill="#003366" font-family="sans-serif" font-size="12" lengthAdjust="spacing" textLength="116" x="335" y="1047.7751">409 Conflict (D&#233;tails)</text><polygon fill="#003366" points="81,1094.6352,71,1098.6352,81,1102.6352,77,1098.6352" style="stroke:#003366;stroke-width:1.0;"/><line style="stroke:#003366;stroke-width:1.0;stroke-dasharray:2.0,2.0;" x1="75" x2="312" y1="1098.6352" y2="1098.6352"/><text fill="#003366" font-family="sans-serif" font-size="12" lengthAdjust="spacing" textLength="86" x="92" y="1088.1192">Afficher alertes</text><!--SRC=[fLH1Rjim4Bpp5LjVAW5ExHQzD8S2SPoYXL4uY0EVUg79LSo29WMICj0dz1Uzgj_GnxgY94jA03j03LkWwDt1pEoGRy8U3mXvXf0vUu1tZ74Hh8F9hRLEAiC35cu2t4FSO3jR6CdTBvXyCm5TnWN2lUR6AFFqmoJR0jDO_SLP4vYWXxEwHeiBZHrMzyhG11K8hWE13RgZ4XZhslMfYFeohKGO5NMRJFB0TzmZJ1RrKzBN6bELw8dPTojHDzoM2yQY6hZwt125QrXMPQQC2f1KlqCX5JTX2akIFuKD9wPJ-6eTLmvJrhHGRo-30ExNcqUOyLpDybRAxCYr8b9OUwgEj1WAPuDkmceL4L3iGjSPaaWCN6cVzYYTBQnhQhWqrX10LJgLANHBvNDhr4vf5QeooaXy8qP6PNiQBgOZUesL9pH2NYu8ym757btz0oj4aVEWhF4GqHXLN8qfF5IbBtJWmG-WHYetz6VX6syXMQzcgtNA9BwaSb6aBNOQQxVeLKHUILMs8toLjcq71Lx1gHLaLVwi_a3U85Vb_yWyPUgyLAu3t1IYC23YNYGHKD3q6D3dPCNpy6thpBH5mrmD0lvXFeVr2f9xL_qDGCBGE7nIFZXqQTlux4pKn9IZ-q6_xOiFT1XZ-QkFWUT7VC5iQDA0IP_saTvsKdTz8Mni4T1m8_2yDQs8I-QyXrk7D0qvr1QnQbEkuIQZTDNn5mrU31f3xRlv1TyFov-dTESS7Rnknatn80_TyJx3z-FyKv_3XEwkWMdZP7NNpGLLd6e2Uhff9Vi7]--></g></svg>