<?xml version="1.0" encoding="us-ascii" standalone="no"?><svg xmlns="http://www.w3.org/2000/svg" xmlns:xlink="http://www.w3.org/1999/xlink" contentStyleType="text/css" height="607px" preserveAspectRatio="none" style="width:1042px;height:607px;background:#FFFFFF;" version="1.1" viewBox="0 0 1042 607" width="1042px" zoomAndPan="magnify"><defs/><g><rect fill="#F2F4F7" height="282.4088" style="stroke:#003366;stroke-width:1.0;" width="10" x="501" y="175.0323"/><rect fill="#F2F4F7" height="201.7206" style="stroke:#003366;stroke-width:1.0;" width="10" x="684" y="215.3765"/><rect fill="#F2F4F7" height="40.3441" style="stroke:#003366;stroke-width:1.0;" width="10" x="870" y="336.4088"/><rect fill="#F2F4F7" height="40.3441" style="stroke:#003366;stroke-width:1.0;" width="10" x="985.5" y="255.7206"/><line style="stroke:#003366;stroke-width:1.0;stroke-dasharray:5.0,5.0;" x1="55" x2="55" y1="92.3441" y2="515.7853"/><line style="stroke:#003366;stroke-width:1.0;stroke-dasharray:5.0,5.0;" x1="255" x2="255" y1="92.3441" y2="515.7853"/><line style="stroke:#003366;stroke-width:1.0;stroke-dasharray:5.0,5.0;" x1="506" x2="506" y1="92.3441" y2="515.7853"/><line style="stroke:#003366;stroke-width:1.0;stroke-dasharray:5.0,5.0;" x1="689" x2="689" y1="92.3441" y2="515.7853"/><line style="stroke:#003366;stroke-width:1.0;stroke-dasharray:5.0,5.0;" x1="874.5" x2="874.5" y1="92.3441" y2="515.7853"/><line style="stroke:#003366;stroke-width:1.0;stroke-dasharray:5.0,5.0;" x1="990.5" x2="990.5" y1="92.3441" y2="515.7853"/><text fill="#000000" font-family="sans-serif" font-size="12" lengthAdjust="spacing" textLength="74" x="15" y="83.8281">Coordinateur</text><ellipse cx="55" cy="14" fill="#F2F4F7" rx="8" ry="8" style="stroke:#003366;stroke-width:1.0;"/><path d="M55,22 L55,49 M42,30 L68,30 M55,49 L42,64 M55,49 L68,64 " fill="none" style="stroke:#003366;stroke-width:1.0;"/><text fill="#000000" font-family="sans-serif" font-size="12" lengthAdjust="spacing" textLength="74" x="15" y="532.6133">Coordinateur</text><ellipse cx="55" cy="550.1294" fill="#F2F4F7" rx="8" ry="8" style="stroke:#003366;stroke-width:1.0;"/><path d="M55,558.1294 L55,585.1294 M42,566.1294 L68,566.1294 M55,585.1294 L42,600.1294 M55,585.1294 L68,600.1294 " fill="none" style="stroke:#003366;stroke-width:1.0;"/><text fill="#000000" font-family="sans-serif" font-size="12" lengthAdjust="spacing" textLength="118" x="193" y="83.8281">Interface Documents</text><path d="M234.5,38 L234.5,62 M234.5,50 L251.5,50 " fill="none" style="stroke:#003366;stroke-width:1.0;"/><ellipse cx="263.5" cy="50" fill="#F2F4F7" rx="12" ry="12" style="stroke:#003366;stroke-width:1.0;"/><text fill="#000000" font-family="sans-serif" font-size="12" lengthAdjust="spacing" textLength="118" x="193" y="532.6133">Interface Documents</text><path d="M234.5,545.1294 L234.5,569.1294 M234.5,557.1294 L251.5,557.1294 " fill="none" style="stroke:#003366;stroke-width:1.0;"/><ellipse cx="263.5" cy="557.1294" fill="#F2F4F7" rx="12" ry="12" style="stroke:#003366;stroke-width:1.0;"/><text fill="#000000" font-family="sans-serif" font-size="12" lengthAdjust="spacing" textLength="56" x="475" y="83.8281">Controller</text><ellipse cx="506" cy="50" fill="#F2F4F7" rx="12" ry="12" style="stroke:#003366;stroke-width:1.0;"/><polygon fill="#003366" points="502,38,508,33,506,38,508,43,502,38" style="stroke:#003366;stroke-width:1.0;"/><text fill="#000000" font-family="sans-serif" font-size="12" lengthAdjust="spacing" textLength="56" x="475" y="532.6133">Controller</text><ellipse cx="506" cy="557.1294" fill="#F2F4F7" rx="12" ry="12" style="stroke:#003366;stroke-width:1.0;"/><polygon fill="#003366" points="502,545.1294,508,540.1294,506,545.1294,508,550.1294,502,545.1294" style="stroke:#003366;stroke-width:1.0;"/><text fill="#000000" font-family="sans-serif" font-size="12" lengthAdjust="spacing" textLength="102" x="635" y="83.8281">Document Service</text><ellipse cx="689" cy="50" fill="#F2F4F7" rx="12" ry="12" style="stroke:#003366;stroke-width:1.0;"/><line style="stroke:#003366;stroke-width:1.0;" x1="677" x2="701" y1="64" y2="64"/><text fill="#000000" font-family="sans-serif" font-size="12" lengthAdjust="spacing" textLength="102" x="635" y="532.6133">Document Service</text><ellipse cx="689" cy="557.1294" fill="#F2F4F7" rx="12" ry="12" style="stroke:#003366;stroke-width:1.0;"/><line style="stroke:#003366;stroke-width:1.0;" x1="677" x2="701" y1="571.1294" y2="571.1294"/><text fill="#000000" font-family="sans-serif" font-size="12" lengthAdjust="spacing" textLength="83" x="830.5" y="83.8281">PDF Generator</text><ellipse cx="875" cy="50" fill="#F2F4F7" rx="12" ry="12" style="stroke:#003366;stroke-width:1.0;"/><line style="stroke:#003366;stroke-width:1.0;" x1="863" x2="887" y1="64" y2="64"/><text fill="#000000" font-family="sans-serif" font-size="12" lengthAdjust="spacing" textLength="83" x="830.5" y="532.6133">PDF Generator</text><ellipse cx="875" cy="557.1294" fill="#F2F4F7" rx="12" ry="12" style="stroke:#003366;stroke-width:1.0;"/><line style="stroke:#003366;stroke-width:1.0;" x1="863" x2="887" y1="571.1294" y2="571.1294"/><text fill="#000000" font-family="sans-serif" font-size="12" lengthAdjust="spacing" textLength="96" x="939.5" y="83.8281">Base de donn&#233;es</text><path d="M972.5,30 C972.5,20 990.5,20 990.5,20 C990.5,20 1008.5,20 1008.5,30 L1008.5,56 C1008.5,66 990.5,66 990.5,66 C990.5,66 972.5,66 972.5,56 L972.5,30 " fill="#F2F4F7" style="stroke:#003366;stroke-width:1.5;"/><path d="M972.5,30 C972.5,40 990.5,40 990.5,40 C990.5,40 1008.5,40 1008.5,30 " fill="none" style="stroke:#003366;stroke-width:1.5;"/><text fill="#000000" font-family="sans-serif" font-size="12" lengthAdjust="spacing" textLength="96" x="939.5" y="532.6133">Base de donn&#233;es</text><path d="M972.5,551.1294 C972.5,541.1294 990.5,541.1294 990.5,541.1294 C990.5,541.1294 1008.5,541.1294 1008.5,551.1294 L1008.5,577.1294 C1008.5,587.1294 990.5,587.1294 990.5,587.1294 C990.5,587.1294 972.5,587.1294 972.5,577.1294 L972.5,551.1294 " fill="#F2F4F7" style="stroke:#003366;stroke-width:1.5;"/><path d="M972.5,551.1294 C972.5,561.1294 990.5,561.1294 990.5,561.1294 C990.5,561.1294 1008.5,561.1294 1008.5,551.1294 " fill="none" style="stroke:#003366;stroke-width:1.5;"/><rect fill="#F2F4F7" height="282.4088" style="stroke:#003366;stroke-width:1.0;" width="10" x="501" y="175.0323"/><rect fill="#F2F4F7" height="201.7206" style="stroke:#003366;stroke-width:1.0;" width="10" x="684" y="215.3765"/><rect fill="#F2F4F7" height="40.3441" style="stroke:#003366;stroke-width:1.0;" width="10" x="870" y="336.4088"/><rect fill="#F2F4F7" height="40.3441" style="stroke:#003366;stroke-width:1.0;" width="10" x="985.5" y="255.7206"/><polygon fill="#003366" points="243,130.6882,253,134.6882,243,138.6882,247,134.6882" style="stroke:#003366;stroke-width:1.0;"/><line style="stroke:#003366;stroke-width:1.0;" x1="55" x2="249" y1="134.6882" y2="134.6882"/><text fill="#003366" font-family="sans-serif" font-size="12" lengthAdjust="spacing" textLength="139" x="67" y="124.1722">S&#233;lectionne soutenances</text><polygon fill="#003366" points="489,171.0323,499,175.0323,489,179.0323,493,175.0323" style="stroke:#003366;stroke-width:1.0;"/><line style="stroke:#003366;stroke-width:1.0;" x1="255" x2="495" y1="175.0323" y2="175.0323"/><text fill="#003366" font-family="sans-serif" font-size="12" lengthAdjust="spacing" textLength="217" x="267" y="164.5163">GET /api/documents/convocations (ids)</text><polygon fill="#003366" points="672,211.3765,682,215.3765,672,219.3765,676,215.3765" style="stroke:#003366;stroke-width:1.0;"/><line style="stroke:#003366;stroke-width:1.0;" x1="511" x2="678" y1="215.3765" y2="215.3765"/><text fill="#003366" font-family="sans-serif" font-size="12" lengthAdjust="spacing" textLength="144" x="523" y="204.8604">genererConvocations(ids)</text><polygon fill="#003366" points="973.5,251.7206,983.5,255.7206,973.5,259.7206,977.5,255.7206" style="stroke:#003366;stroke-width:1.0;"/><line style="stroke:#003366;stroke-width:1.0;" x1="694" x2="979.5" y1="255.7206" y2="255.7206"/><text fill="#003366" font-family="sans-serif" font-size="12" lengthAdjust="spacing" textLength="238" x="706" y="245.2045">R&#233;cup&#233;rer infos (&#201;tudiant, Jury, Salle, Date)</text><polygon fill="#003366" points="705,292.0647,695,296.0647,705,300.0647,701,296.0647" style="stroke:#003366;stroke-width:1.0;"/><line style="stroke:#003366;stroke-width:1.0;stroke-dasharray:2.0,2.0;" x1="699" x2="989.5" y1="296.0647" y2="296.0647"/><text fill="#003366" font-family="sans-serif" font-size="12" lengthAdjust="spacing" textLength="111" x="716" y="285.5487">Donn&#233;es compl&#232;tes</text><polygon fill="#003366" points="858,332.4088,868,336.4088,858,340.4088,862,336.4088" style="stroke:#003366;stroke-width:1.0;"/><line style="stroke:#003366;stroke-width:1.0;" x1="694" x2="864" y1="336.4088" y2="336.4088"/><text fill="#003366" font-family="sans-serif" font-size="12" lengthAdjust="spacing" textLength="147" x="706" y="325.8928">createPDF(template, data)</text><polygon fill="#003366" points="705,372.7529,695,376.7529,705,380.7529,701,376.7529" style="stroke:#003366;stroke-width:1.0;"/><line style="stroke:#003366;stroke-width:1.0;stroke-dasharray:2.0,2.0;" x1="699" x2="874" y1="376.7529" y2="376.7529"/><text fill="#003366" font-family="sans-serif" font-size="12" lengthAdjust="spacing" textLength="107" x="716" y="366.2369">Flux binaire (byte[])</text><polygon fill="#003366" points="522,413.097,512,417.097,522,421.097,518,417.097" style="stroke:#003366;stroke-width:1.0;"/><line style="stroke:#003366;stroke-width:1.0;stroke-dasharray:2.0,2.0;" x1="516" x2="688" y1="417.097" y2="417.097"/><text fill="#003366" font-family="sans-serif" font-size="12" lengthAdjust="spacing" textLength="84" x="533" y="406.581">Document pr&#234;t</text><polygon fill="#003366" points="266,453.4411,256,457.4411,266,461.4411,262,457.4411" style="stroke:#003366;stroke-width:1.0;"/><line style="stroke:#003366;stroke-width:1.0;stroke-dasharray:2.0,2.0;" x1="260" x2="505" y1="457.4411" y2="457.4411"/><text fill="#003366" font-family="sans-serif" font-size="12" lengthAdjust="spacing" textLength="135" x="277" y="446.9251">200 OK (Application/pdf)</text><polygon fill="#003366" points="66,493.7853,56,497.7853,66,501.7853,62,497.7853" style="stroke:#003366;stroke-width:1.0;"/><line style="stroke:#003366;stroke-width:1.0;stroke-dasharray:2.0,2.0;" x1="60" x2="254" y1="497.7853" y2="497.7853"/><text fill="#003366" font-family="sans-serif" font-size="12" lengthAdjust="spacing" textLength="166" x="77" y="487.2692">T&#233;l&#233;chargement automatique</text><!--SRC=[NL91JiCm4Bpx5KjFhLGeujW34YKK0GSGxGrnSErDQocnWxEkw1Fu2UKR-HZhj6dTIf7b93EpixDxGIii4QeS8VUkX2iXf2BdeNVldDV6IiBWUo1hQ3-8XGjMIx-1tfCbzBbK29bJeKHBTOkRUcT9A3wyAw9EUocmK-bU1JCCiL17XndwjL7OulRt0-Wjcy8ZMlIItRK8_YAq9BcGDK9l4a_DZxEssUBEIZOHehKDbxSxNp26MRCjK95X84Bj0g6LLc4jTW167Zqo_F5X3YDPcP7kkXnnRskdP9IeeMzqFOYXcJLdbVOd4XrMtNV4ailO1_hxHEPCfUjUT2JcPnEclZTR5QfcotGmDdTSl_cXe8sqD8Jdu3T3c4akEOICXH99pe8LBa-CPFkmGBcoAffVuXGqffJKG1p169H7_iVtFY6J-3w4E8QaL9nC19yMcnRX6nQyKSOZz1SRme_FGLekqexrpkTms9BADt-KyWvXfNad0x-vleRN5-ZVLLLXTdcFAfsVr4x7jj-3ra3SdJ7CUMKu-9NqIsmzo42kPAMlWE8V]--></g></svg>