<?xml version="1.0" encoding="us-ascii" standalone="no"?><svg xmlns="http://www.w3.org/2000/svg" xmlns:xlink="http://www.w3.org/1999/xlink" contentStyleType="text/css" height="1253px" preserveAspectRatio="none" style="width:1236px;height:1253px;background:#FFFFFF;" version="1.1" viewBox="0 0 1236 1253" width="1236px" zoomAndPan="magnify"><defs/><g><rect fill="#F2F4F7" height="922.2587" style="stroke:#003366;stroke-width:1.0;" width="10" x="497" y="175.0323"/><rect fill="#F2F4F7" height="841.5705" style="stroke:#003366;stroke-width:1.0;" width="10" x="667" y="215.3765"/><rect fill="#F2F4F7" height="121.0323" style="stroke:#003366;stroke-width:1.0;" width="10" x="672" y="786.5382"/><rect fill="#F2F4F7" height="121.0323" style="stroke:#003366;stroke-width:1.0;" width="10" x="946" y="255.7206"/><rect fill="#F2F4F7" height="121.0323" style="stroke:#003366;stroke-width:1.0;" width="10" x="946" y="417.097"/><rect fill="#F2F4F7" height="40.3441" style="stroke:#003366;stroke-width:1.0;" width="10" x="1158" y="296.0647"/><rect fill="#F2F4F7" height="40.3441" style="stroke:#003366;stroke-width:1.0;" width="10" x="1158" y="457.4411"/><rect fill="#F2F4F7" height="40.3441" style="stroke:#003366;stroke-width:1.0;" width="10" x="1158" y="826.8823"/><rect fill="none" height="592.5058" rx="2.5" ry="2.5" style="stroke:#003366;stroke-width:1.0;" width="1214" x="15" y="553.1294"/><line style="stroke:#003366;stroke-width:1.0;stroke-dasharray:5.0,5.0;" x1="70" x2="70" y1="92.3441" y2="1162.6352"/><line style="stroke:#003366;stroke-width:1.0;stroke-dasharray:5.0,5.0;" x1="313" x2="313" y1="92.3441" y2="1162.6352"/><line style="stroke:#003366;stroke-width:1.0;stroke-dasharray:5.0,5.0;" x1="502" x2="502" y1="92.3441" y2="1162.6352"/><line style="stroke:#003366;stroke-width:1.0;stroke-dasharray:5.0,5.0;" x1="672" x2="672" y1="92.3441" y2="1162.6352"/><line style="stroke:#003366;stroke-width:1.0;stroke-dasharray:5.0,5.0;" x1="951" x2="951" y1="92.3441" y2="1162.6352"/><line style="stroke:#003366;stroke-width:1.0;stroke-dasharray:5.0,5.0;" x1="1163" x2="1163" y1="92.3441" y2="1162.6352"/><text fill="#000000" font-family="sans-serif" font-size="12" lengthAdjust="spacing" textLength="74" x="30" y="83.8281">Coordinateur</text><ellipse cx="70" cy="14" fill="#F2F4F7" rx="8" ry="8" style="stroke:#003366;stroke-width:1.0;"/><path d="M70,22 L70,49 M57,30 L83,30 M70,49 L57,64 M70,49 L83,64 " fill="none" style="stroke:#003366;stroke-width:1.0;"/><text fill="#000000" font-family="sans-serif" font-size="12" lengthAdjust="spacing" textLength="74" x="30" y="1179.4633">Coordinateur</text><ellipse cx="70" cy="1196.9793" fill="#F2F4F7" rx="8" ry="8" style="stroke:#003366;stroke-width:1.0;"/><path d="M70,1204.9793 L70,1231.9793 M57,1212.9793 L83,1212.9793 M70,1231.9793 L57,1246.9793 M70,1231.9793 L83,1246.9793 " fill="none" style="stroke:#003366;stroke-width:1.0;"/><text fill="#000000" font-family="sans-serif" font-size="12" lengthAdjust="spacing" textLength="102" x="259" y="83.8281">Interface Planning</text><path d="M292.5,38 L292.5,62 M292.5,50 L309.5,50 " fill="none" style="stroke:#003366;stroke-width:1.0;"/><ellipse cx="321.5" cy="50" fill="#F2F4F7" rx="12" ry="12" style="stroke:#003366;stroke-width:1.0;"/><text fill="#000000" font-family="sans-serif" font-size="12" lengthAdjust="spacing" textLength="102" x="259" y="1179.4633">Interface Planning</text><path d="M292.5,1191.9793 L292.5,1215.9793 M292.5,1203.9793 L309.5,1203.9793 " fill="none" style="stroke:#003366;stroke-width:1.0;"/><ellipse cx="321.5" cy="1203.9793" fill="#F2F4F7" rx="12" ry="12" style="stroke:#003366;stroke-width:1.0;"/><text fill="#000000" font-family="sans-serif" font-size="12" lengthAdjust="spacing" textLength="56" x="471" y="83.8281">Controller</text><ellipse cx="502" cy="50" fill="#F2F4F7" rx="12" ry="12" style="stroke:#003366;stroke-width:1.0;"/><polygon fill="#003366" points="498,38,504,33,502,38,504,43,498,38" style="stroke:#003366;stroke-width:1.0;"/><text fill="#000000" font-family="sans-serif" font-size="12" lengthAdjust="spacing" textLength="56" x="471" y="1179.4633">Controller</text><ellipse cx="502" cy="1203.9793" fill="#F2F4F7" rx="12" ry="12" style="stroke:#003366;stroke-width:1.0;"/><polygon fill="#003366" points="498,1191.9793,504,1186.9793,502,1191.9793,504,1196.9793,498,1191.9793" style="stroke:#003366;stroke-width:1.0;"/><text fill="#000000" font-family="sans-serif" font-size="12" lengthAdjust="spacing" textLength="92" x="623" y="83.8281">Planning Service</text><ellipse cx="672" cy="50" fill="#F2F4F7" rx="12" ry="12" style="stroke:#003366;stroke-width:1.0;"/><line style="stroke:#003366;stroke-width:1.0;" x1="660" x2="684" y1="64" y2="64"/><text fill="#000000" font-family="sans-serif" font-size="12" lengthAdjust="spacing" textLength="92" x="623" y="1179.4633">Planning Service</text><ellipse cx="672" cy="1203.9793" fill="#F2F4F7" rx="12" ry="12" style="stroke:#003366;stroke-width:1.0;"/><line style="stroke:#003366;stroke-width:1.0;" x1="660" x2="684" y1="1217.9793" y2="1217.9793"/><text fill="#000000" font-family="sans-serif" font-size="12" lengthAdjust="spacing" textLength="86" x="905" y="83.8281">Conflict Service</text><ellipse cx="951" cy="50" fill="#F2F4F7" rx="12" ry="12" style="stroke:#003366;stroke-width:1.0;"/><line style="stroke:#003366;stroke-width:1.0;" x1="939" x2="963" y1="64" y2="64"/><text fill="#000000" font-family="sans-serif" font-size="12" lengthAdjust="spacing" textLength="86" x="905" y="1179.4633">Conflict Service</text><ellipse cx="951" cy="1203.9793" fill="#F2F4F7" rx="12" ry="12" style="stroke:#003366;stroke-width:1.0;"/><line style="stroke:#003366;stroke-width:1.0;" x1="939" x2="963" y1="1217.9793" y2="1217.9793"/><text fill="#000000" font-family="sans-serif" font-size="12" lengthAdjust="spacing" textLength="96" x="1112" y="83.8281">Base de donn&#233;es</text><path d="M1145,30 C1145,20 1163,20 1163,20 C1163,20 1181,20 1181,30 L1181,56 C1181,66 1163,66 1163,66 C1163,66 1145,66 1145,56 L1145,30 " fill="#F2F4F7" style="stroke:#003366;stroke-width:1.5;"/><path d="M1145,30 C1145,40 1163,40 1163,40 C1163,40 1181,40 1181,30 " fill="none" style="stroke:#003366;stroke-width:1.5;"/><text fill="#000000" font-family="sans-serif" font-size="12" lengthAdjust="spacing" textLength="96" x="1112" y="1179.4633">Base de donn&#233;es</text><path d="M1145,1197.9793 C1145,1187.9793 1163,1187.9793 1163,1187.9793 C1163,1187.9793 1181,1187.9793 1181,1197.9793 L1181,1223.9793 C1181,1233.9793 1163,1233.9793 1163,1233.9793 C1163,1233.9793 1145,1233.9793 1145,1223.9793 L1145,1197.9793 " fill="#F2F4F7" style="stroke:#003366;stroke-width:1.5;"/><path d="M1145,1197.9793 C1145,1207.9793 1163,1207.9793 1163,1207.9793 C1163,1207.9793 1181,1207.9793 1181,1197.9793 " fill="none" style="stroke:#003366;stroke-width:1.5;"/><rect fill="#F2F4F7" height="922.2587" style="stroke:#003366;stroke-width:1.0;" width="10" x="497" y="175.0323"/><rect fill="#F2F4F7" height="841.5705" style="stroke:#003366;stroke-width:1.0;" width="10" x="667" y="215.3765"/><rect fill="#F2F4F7" height="121.0323" style="stroke:#003366;stroke-width:1.0;" width="10" x="672" y="786.5382"/><rect fill="#F2F4F7" height="121.0323" style="stroke:#003366;stroke-width:1.0;" width="10" x="946" y="255.7206"/><rect fill="#F2F4F7" height="121.0323" style="stroke:#003366;stroke-width:1.0;" width="10" x="946" y="417.097"/><rect fill="#F2F4F7" height="40.3441" style="stroke:#003366;stroke-width:1.0;" width="10" x="1158" y="296.0647"/><rect fill="#F2F4F7" height="40.3441" style="stroke:#003366;stroke-width:1.0;" width="10" x="1158" y="457.4411"/><rect fill="#F2F4F7" height="40.3441" style="stroke:#003366;stroke-width:1.0;" width="10" x="1158" y="826.8823"/><polygon fill="#003366" points="301,130.6882,311,134.6882,301,138.6882,305,134.6882" style="stroke:#003366;stroke-width:1.0;"/><line style="stroke:#003366;stroke-width:1.0;" x1="70" x2="307" y1="134.6882" y2="134.6882"/><text fill="#003366" font-family="sans-serif" font-size="12" lengthAdjust="spacing" textLength="209" x="82" y="124.1722">D&#233;finit (&#201;tudiant, Date, Salle, Horaire)</text><polygon fill="#003366" points="485,171.0323,495,175.0323,485,179.0323,489,175.0323" style="stroke:#003366;stroke-width:1.0;"/><line style="stroke:#003366;stroke-width:1.0;" x1="313" x2="491" y1="175.0323" y2="175.0323"/><text fill="#003366" font-family="sans-serif" font-size="12" lengthAdjust="spacing" textLength="154" x="325" y="164.5163">POST /api/planning/validate</text><polygon fill="#003366" points="655,211.3765,665,215.3765,655,219.3765,659,215.3765" style="stroke:#003366;stroke-width:1.0;"/><line style="stroke:#003366;stroke-width:1.0;" x1="507" x2="661" y1="215.3765" y2="215.3765"/><text fill="#003366" font-family="sans-serif" font-size="12" lengthAdjust="spacing" textLength="131" x="519" y="204.8604">validerPlanning(details)</text><polygon fill="#003366" points="934,251.7206,944,255.7206,934,259.7206,938,255.7206" style="stroke:#003366;stroke-width:1.0;"/><line style="stroke:#003366;stroke-width:1.0;" x1="677" x2="940" y1="255.7206" y2="255.7206"/><text fill="#003366" font-family="sans-serif" font-size="12" lengthAdjust="spacing" textLength="240" x="689" y="245.2045">v&#233;rifierDisponibilit&#233;Salle(salle, date, heure)</text><polygon fill="#003366" points="1146,292.0647,1156,296.0647,1146,300.0647,1150,296.0647" style="stroke:#003366;stroke-width:1.0;"/><line style="stroke:#003366;stroke-width:1.0;" x1="956" x2="1152" y1="296.0647" y2="296.0647"/><text fill="#003366" font-family="sans-serif" font-size="12" lengthAdjust="spacing" textLength="163" x="968" y="285.5487">Rechercher occupations salle</text><polygon fill="#003366" points="967,332.4088,957,336.4088,967,340.4088,963,336.4088" style="stroke:#003366;stroke-width:1.0;"/><line style="stroke:#003366;stroke-width:1.0;stroke-dasharray:2.0,2.0;" x1="961" x2="1162" y1="336.4088" y2="336.4088"/><text fill="#003366" font-family="sans-serif" font-size="12" lengthAdjust="spacing" textLength="51" x="978" y="325.8928">R&#233;sultats</text><polygon fill="#003366" points="688,372.7529,678,376.7529,688,380.7529,684,376.7529" style="stroke:#003366;stroke-width:1.0;"/><line style="stroke:#003366;stroke-width:1.0;stroke-dasharray:2.0,2.0;" x1="682" x2="950" y1="376.7529" y2="376.7529"/><text fill="#003366" font-family="sans-serif" font-size="12" lengthAdjust="spacing" textLength="112" x="699" y="366.2369">Status Salle (OK/KO)</text><polygon fill="#003366" points="934,413.097,944,417.097,934,421.097,938,417.097" style="stroke:#003366;stroke-width:1.0;"/><line style="stroke:#003366;stroke-width:1.0;" x1="677" x2="940" y1="417.097" y2="417.097"/><text fill="#003366" font-family="sans-serif" font-size="12" lengthAdjust="spacing" textLength="202" x="689" y="406.581">v&#233;rifierDoublePlanification(&#233;tudiant)</text><polygon fill="#003366" points="1146,453.4411,1156,457.4411,1146,461.4411,1150,457.4411" style="stroke:#003366;stroke-width:1.0;"/><line style="stroke:#003366;stroke-width:1.0;" x1="956" x2="1152" y1="457.4411" y2="457.4411"/><text fill="#003366" font-family="sans-serif" font-size="12" lengthAdjust="spacing" textLength="173" x="968" y="446.9251">V&#233;rifier si &#233;tudiant d&#233;j&#224; planifi&#233;</text><polygon fill="#003366" points="967,493.7853,957,497.7853,967,501.7853,963,497.7853" style="stroke:#003366;stroke-width:1.0;"/><line style="stroke:#003366;stroke-width:1.0;stroke-dasharray:2.0,2.0;" x1="961" x2="1162" y1="497.7853" y2="497.7853"/><text fill="#003366" font-family="sans-serif" font-size="12" lengthAdjust="spacing" textLength="51" x="978" y="487.2692">R&#233;sultats</text><polygon fill="#003366" points="688,534.1294,678,538.1294,688,542.1294,684,538.1294" style="stroke:#003366;stroke-width:1.0;"/><line style="stroke:#003366;stroke-width:1.0;stroke-dasharray:2.0,2.0;" x1="682" x2="950" y1="538.1294" y2="538.1294"/><text fill="#003366" font-family="sans-serif" font-size="12" lengthAdjust="spacing" textLength="131" x="699" y="527.6133">Status &#201;tudiant (OK/KO)</text><path d="M17.5,553.1294 L86,553.1294 L86,571.4735 L76,581.4735 L15,581.4735 L15,555.6294 A2.5,2.5 0 0 1 17.5,553.1294 " fill="#F2F4F7" style="stroke:#003366;stroke-width:1.0;"/><rect fill="none" height="592.5058" rx="2.5" ry="2.5" style="stroke:#003366;stroke-width:1.0;" width="1214" x="15" y="553.1294"/><text fill="#000000" font-family="sans-serif" font-size="12" font-weight="bold" lengthAdjust="spacing" textLength="16" x="35" y="571.9575">alt</text><text fill="#003366" font-family="sans-serif" font-size="12" font-weight="bold" lengthAdjust="spacing" textLength="136" x="106" y="572.9575">[Aucun conflit d&#233;tect&#233;]</text><polygon fill="#003366" points="518,621.1617,508,625.1617,518,629.1617,514,625.1617" style="stroke:#003366;stroke-width:1.0;"/><line style="stroke:#003366;stroke-width:1.0;stroke-dasharray:2.0,2.0;" x1="512" x2="666" y1="625.1617" y2="625.1617"/><text fill="#003366" font-family="sans-serif" font-size="12" lengthAdjust="spacing" textLength="34" x="529" y="614.6457">Valid&#233;</text><polygon fill="#003366" points="324,661.5058,314,665.5058,324,669.5058,320,665.5058" style="stroke:#003366;stroke-width:1.0;"/><line style="stroke:#003366;stroke-width:1.0;stroke-dasharray:2.0,2.0;" x1="318" x2="496" y1="665.5058" y2="665.5058"/><text fill="#003366" font-family="sans-serif" font-size="12" lengthAdjust="spacing" textLength="150" x="335" y="654.9898">200 OK (Pr&#234;t &#224; enregistrer)</text><polygon fill="#003366" points="301,701.8499,311,705.8499,301,709.8499,305,705.8499" style="stroke:#003366;stroke-width:1.0;"/><line style="stroke:#003366;stroke-width:1.0;" x1="70" x2="307" y1="705.8499" y2="705.8499"/><text fill="#003366" font-family="sans-serif" font-size="12" lengthAdjust="spacing" textLength="148" x="82" y="695.3339">Confirme l'enregistrement</text><polygon fill="#003366" points="485,742.1941,495,746.1941,485,750.1941,489,746.1941" style="stroke:#003366;stroke-width:1.0;"/><line style="stroke:#003366;stroke-width:1.0;" x1="313" x2="491" y1="746.1941" y2="746.1941"/><text fill="#003366" font-family="sans-serif" font-size="12" lengthAdjust="spacing" textLength="136" x="325" y="735.678">POST /api/planning/save</text><polygon fill="#003366" points="660,782.5382,670,786.5382,660,790.5382,664,786.5382" style="stroke:#003366;stroke-width:1.0;"/><line style="stroke:#003366;stroke-width:1.0;" x1="507" x2="666" y1="786.5382" y2="786.5382"/><text fill="#003366" font-family="sans-serif" font-size="12" lengthAdjust="spacing" textLength="108" x="519" y="776.0221">enregistrer(details)</text><polygon fill="#003366" points="1146,822.8823,1156,826.8823,1146,830.8823,1150,826.8823" style="stroke:#003366;stroke-width:1.0;"/><line style="stroke:#003366;stroke-width:1.0;" x1="682" x2="1152" y1="826.8823" y2="826.8823"/><text fill="#003366" font-family="sans-serif" font-size="12" lengthAdjust="spacing" textLength="132" x="694" y="816.3663">Enregistrer Soutenance</text><polygon fill="#003366" points="693,863.2264,683,867.2264,693,871.2264,689,867.2264" style="stroke:#003366;stroke-width:1.0;"/><line style="stroke:#003366;stroke-width:1.0;stroke-dasharray:2.0,2.0;" x1="687" x2="1162" y1="867.2264" y2="867.2264"/><text fill="#003366" font-family="sans-serif" font-size="12" lengthAdjust="spacing" textLength="16" x="704" y="856.7104">OK</text><polygon fill="#003366" points="518,903.5705,508,907.5705,518,911.5705,514,907.5705" style="stroke:#003366;stroke-width:1.0;"/><line style="stroke:#003366;stroke-width:1.0;stroke-dasharray:2.0,2.0;" x1="512" x2="666" y1="907.5705" y2="907.5705"/><text fill="#003366" font-family="sans-serif" font-size="12" lengthAdjust="spacing" textLength="52" x="529" y="897.0545">Confirm&#233;</text><polygon fill="#003366" points="324,943.9146,314,947.9146,324,951.9146,320,947.9146" style="stroke:#003366;stroke-width:1.0;"/><line style="stroke:#003366;stroke-width:1.0;stroke-dasharray:2.0,2.0;" x1="318" x2="496" y1="947.9146" y2="947.9146"/><text fill="#003366" font-family="sans-serif" font-size="12" lengthAdjust="spacing" textLength="69" x="335" y="937.3986">201 Created</text><polygon fill="#003366" points="81,984.2587,71,988.2587,81,992.2587,77,988.2587" style="stroke:#003366;stroke-width:1.0;"/><line style="stroke:#003366;stroke-width:1.0;stroke-dasharray:2.0,2.0;" x1="75" x2="312" y1="988.2587" y2="988.2587"/><text fill="#003366" font-family="sans-serif" font-size="12" lengthAdjust="spacing" textLength="118" x="92" y="977.7427">Afficher confirmation</text><line style="stroke:#003366;stroke-width:1.0;stroke-dasharray:2.0,2.0;" x1="15" x2="1229" y1="997.2587" y2="997.2587"/><text fill="#003366" font-family="sans-serif" font-size="12" font-weight="bold" lengthAdjust="spacing" textLength="109" x="25" y="1015.0868">[Conflits d&#233;tect&#233;s]</text><polygon fill="#003366" points="518,1052.947,508,1056.947,518,1060.947,514,1056.947" style="stroke:#003366;stroke-width:1.0;"/><line style="stroke:#003366;stroke-width:1.0;stroke-dasharray:2.0,2.0;" x1="512" x2="671" y1="1056.947" y2="1056.947"/><text fill="#003366" font-family="sans-serif" font-size="12" lengthAdjust="spacing" textLength="79" x="529" y="1046.4309">Erreur conflits</text><polygon fill="#003366" points="324,1093.2911,314,1097.2911,324,1101.2911,320,1097.2911" style="stroke:#003366;stroke-width:1.0;"/><line style="stroke:#003366;stroke-width:1.0;stroke-dasharray:2.0,2.0;" x1="318" x2="501" y1="1097.2911" y2="1097.2911"/><text fill="#003366" font-family="sans-serif" font-size="12" lengthAdjust="spacing" textLength="116" x="335" y="1086.7751">409 Conflict (D&#233;tails)</text><polygon fill="#003366" points="81,1133.6352,71,1137.6352,81,1141.6352,77,1137.6352" style="stroke:#003366;stroke-width:1.0;"/><line style="stroke:#003366;stroke-width:1.0;stroke-dasharray:2.0,2.0;" x1="75" x2="312" y1="1137.6352" y2="1137.6352"/><text fill="#003366" font-family="sans-serif" font-size="12" lengthAdjust="spacing" textLength="86" x="92" y="1127.1192">Afficher alertes</text><!--SRC=[jLH1Rjim4Bpp5LjVAWDExHQzD8S2SPoYXGysuY9tcbh5B6XI82a3VK9_qQlw3NsiAqgqg0HrSgbW2nInCvoTtUKRVy0ZGbaW5DOSuHrZN7XZON9hZCsbvXuhEm7k86omlQbqpkrFc7pJ7ct11S9MSQsbVWnXNwpHdWbwMQDQch1G64dY9qFjfIUUY8OTsfCK6EBwzJc8S8MIme-2uYRBkUTxxX0co_QTqyzetTJeGjngoLXG3rUVEtrm3QkcBgIM7hBcbwzooRMVmOhIdS6Eay0PV3MMIujJra48EwWdWkrczntcl9JpiizWVk9AaXPiFPGdMgJviWHDN7qYH1HGQACFMOwUI-Mc0qjqWqLGfwLpX0YQsif2ebr9Lnejzr99tzGXZSnroUGXimCL4wSZUPs3PpPYNYs9ynx50Mtx1oD4LN8lZNOGs0OyEKlHLsCvzqtjAkMvTop7D7GuP9J_Za8hrxaEsMOzNs-cAV8iyiNqJRLNsFf8do8epfgwB-whidw8LE0adA6GD_MFvZUK7NDJ_ny3pdrusGIkFDnKej8WmbwGvr5GnHdGSpRfQSC-j7tM1wMzc0p5XyK2Dcl8jhRvuu5IHctnKJflqKvxu9CvQeL9ItU8UZi47sbkG_YhHyVn4pvJbfgKA1acf0KycvAH2NrXxmOqx4pbKNFTXwO5Qh_xUWudRzPXVrpAYqxtdlHU9y28eETo6Tx3hKL2vAcBuPZM_ckuAQZ3s-4KtL6XsHag5pl5kw4jt6MrTzRIjH2xoVr3yoMz7nUVXlxFw6PDoZFkuNWPlf0LfnYFZgx_dFq5]--></g></svg>