<?xml version="1.0" encoding="us-ascii" standalone="no"?><svg xmlns="http://www.w3.org/2000/svg" xmlns:xlink="http://www.w3.org/1999/xlink" contentStyleType="text/css" height="902px" preserveAspectRatio="none" style="width:1050px;height:902px;background:#FFFFFF;" version="1.1" viewBox="0 0 1050 902" width="1050px" zoomAndPan="magnify"><defs/><g><rect fill="#F2F4F7" height="618.5058" style="stroke:#003366;stroke-width:1.0;" width="10" x="515" y="175.0323"/><rect fill="#F2F4F7" height="497.4735" style="stroke:#003366;stroke-width:1.0;" width="10" x="746" y="215.3765"/><rect fill="#F2F4F7" height="40.3441" style="stroke:#003366;stroke-width:1.0;" width="10" x="963" y="409.097"/><rect fill="#F2F4F7" height="40.3441" style="stroke:#003366;stroke-width:1.0;" width="10" x="963" y="536.4735"/><rect fill="none" height="336.4411" rx="2.5" ry="2.5" style="stroke:#003366;stroke-width:1.0;" width="362" x="682" y="337.0647"/><rect fill="none" height="202.0647" rx="2.5" ry="2.5" style="stroke:#003366;stroke-width:1.0;" width="342" x="692" y="464.4411"/><line style="stroke:#003366;stroke-width:1.0;stroke-dasharray:5.0,5.0;" x1="55" x2="55" y1="92.3441" y2="811.5382"/><line style="stroke:#003366;stroke-width:1.0;stroke-dasharray:5.0,5.0;" x1="258" x2="258" y1="92.3441" y2="811.5382"/><line style="stroke:#003366;stroke-width:1.0;stroke-dasharray:5.0,5.0;" x1="520" x2="520" y1="92.3441" y2="811.5382"/><line style="stroke:#003366;stroke-width:1.0;stroke-dasharray:5.0,5.0;" x1="751" x2="751" y1="92.3441" y2="811.5382"/><line style="stroke:#003366;stroke-width:1.0;stroke-dasharray:5.0,5.0;" x1="968" x2="968" y1="92.3441" y2="811.5382"/><text fill="#000000" font-family="sans-serif" font-size="12" lengthAdjust="spacing" textLength="74" x="15" y="83.8281">Coordinateur</text><ellipse cx="55" cy="14" fill="#F2F4F7" rx="8" ry="8" style="stroke:#003366;stroke-width:1.0;"/><path d="M55,22 L55,49 M42,30 L68,30 M55,49 L42,64 M55,49 L68,64 " fill="none" style="stroke:#003366;stroke-width:1.0;"/><text fill="#000000" font-family="sans-serif" font-size="12" lengthAdjust="spacing" textLength="74" x="15" y="828.3663">Coordinateur</text><ellipse cx="55" cy="845.8823" fill="#F2F4F7" rx="8" ry="8" style="stroke:#003366;stroke-width:1.0;"/><path d="M55,853.8823 L55,880.8823 M42,861.8823 L68,861.8823 M55,880.8823 L42,895.8823 M55,880.8823 L68,895.8823 " fill="none" style="stroke:#003366;stroke-width:1.0;"/><text fill="#000000" font-family="sans-serif" font-size="12" lengthAdjust="spacing" textLength="92" x="209" y="83.8281">Interface Import</text><path d="M237.5,38 L237.5,62 M237.5,50 L254.5,50 " fill="none" style="stroke:#003366;stroke-width:1.0;"/><ellipse cx="266.5" cy="50" fill="#F2F4F7" rx="12" ry="12" style="stroke:#003366;stroke-width:1.0;"/><text fill="#000000" font-family="sans-serif" font-size="12" lengthAdjust="spacing" textLength="92" x="209" y="828.3663">Interface Import</text><path d="M237.5,840.8823 L237.5,864.8823 M237.5,852.8823 L254.5,852.8823 " fill="none" style="stroke:#003366;stroke-width:1.0;"/><ellipse cx="266.5" cy="852.8823" fill="#F2F4F7" rx="12" ry="12" style="stroke:#003366;stroke-width:1.0;"/><text fill="#000000" font-family="sans-serif" font-size="12" lengthAdjust="spacing" textLength="56" x="489" y="83.8281">Controller</text><ellipse cx="520" cy="50" fill="#F2F4F7" rx="12" ry="12" style="stroke:#003366;stroke-width:1.0;"/><polygon fill="#003366" points="516,38,522,33,520,38,522,43,516,38" style="stroke:#003366;stroke-width:1.0;"/><text fill="#000000" font-family="sans-serif" font-size="12" lengthAdjust="spacing" textLength="56" x="489" y="828.3663">Controller</text><ellipse cx="520" cy="852.8823" fill="#F2F4F7" rx="12" ry="12" style="stroke:#003366;stroke-width:1.0;"/><polygon fill="#003366" points="516,840.8823,522,835.8823,520,840.8823,522,845.8823,516,840.8823" style="stroke:#003366;stroke-width:1.0;"/><text fill="#000000" font-family="sans-serif" font-size="12" lengthAdjust="spacing" textLength="82" x="707" y="83.8281">Import Service</text><ellipse cx="751" cy="50" fill="#F2F4F7" rx="12" ry="12" style="stroke:#003366;stroke-width:1.0;"/><line style="stroke:#003366;stroke-width:1.0;" x1="739" x2="763" y1="64" y2="64"/><text fill="#000000" font-family="sans-serif" font-size="12" lengthAdjust="spacing" textLength="82" x="707" y="828.3663">Import Service</text><ellipse cx="751" cy="852.8823" fill="#F2F4F7" rx="12" ry="12" style="stroke:#003366;stroke-width:1.0;"/><line style="stroke:#003366;stroke-width:1.0;" x1="739" x2="763" y1="866.8823" y2="866.8823"/><text fill="#000000" font-family="sans-serif" font-size="12" lengthAdjust="spacing" textLength="96" x="917" y="83.8281">Base de donn&#233;es</text><path d="M950,30 C950,20 968,20 968,20 C968,20 986,20 986,30 L986,56 C986,66 968,66 968,66 C968,66 950,66 950,56 L950,30 " fill="#F2F4F7" style="stroke:#003366;stroke-width:1.5;"/><path d="M950,30 C950,40 968,40 968,40 C968,40 986,40 986,30 " fill="none" style="stroke:#003366;stroke-width:1.5;"/><text fill="#000000" font-family="sans-serif" font-size="12" lengthAdjust="spacing" textLength="96" x="917" y="828.3663">Base de donn&#233;es</text><path d="M950,846.8823 C950,836.8823 968,836.8823 968,836.8823 C968,836.8823 986,836.8823 986,846.8823 L986,872.8823 C986,882.8823 968,882.8823 968,882.8823 C968,882.8823 950,882.8823 950,872.8823 L950,846.8823 " fill="#F2F4F7" style="stroke:#003366;stroke-width:1.5;"/><path d="M950,846.8823 C950,856.8823 968,856.8823 968,856.8823 C968,856.8823 986,856.8823 986,846.8823 " fill="none" style="stroke:#003366;stroke-width:1.5;"/><rect fill="#F2F4F7" height="618.5058" style="stroke:#003366;stroke-width:1.0;" width="10" x="515" y="175.0323"/><rect fill="#F2F4F7" height="497.4735" style="stroke:#003366;stroke-width:1.0;" width="10" x="746" y="215.3765"/><rect fill="#F2F4F7" height="40.3441" style="stroke:#003366;stroke-width:1.0;" width="10" x="963" y="409.097"/><rect fill="#F2F4F7" height="40.3441" style="stroke:#003366;stroke-width:1.0;" width="10" x="963" y="536.4735"/><polygon fill="#003366" points="246,130.6882,256,134.6882,246,138.6882,250,134.6882" style="stroke:#003366;stroke-width:1.0;"/><line style="stroke:#003366;stroke-width:1.0;" x1="55" x2="252" y1="134.6882" y2="134.6882"/><text fill="#003366" font-family="sans-serif" font-size="12" lengthAdjust="spacing" textLength="169" x="67" y="124.1722">S&#233;lectionne fichier (CSV/Excel)</text><polygon fill="#003366" points="503,171.0323,513,175.0323,503,179.0323,507,175.0323" style="stroke:#003366;stroke-width:1.0;"/><line style="stroke:#003366;stroke-width:1.0;" x1="258" x2="509" y1="175.0323" y2="175.0323"/><text fill="#003366" font-family="sans-serif" font-size="12" lengthAdjust="spacing" textLength="228" x="270" y="164.5163">POST /api/import/students (MultipartFile)</text><polygon fill="#003366" points="734,211.3765,744,215.3765,734,219.3765,738,215.3765" style="stroke:#003366;stroke-width:1.0;"/><line style="stroke:#003366;stroke-width:1.0;" x1="525" x2="740" y1="215.3765" y2="215.3765"/><text fill="#003366" font-family="sans-serif" font-size="12" lengthAdjust="spacing" textLength="126" x="537" y="204.8604">importerEtudiants(file)</text><line style="stroke:#003366;stroke-width:1.0;" x1="756" x2="798" y1="255.7206" y2="255.7206"/><line style="stroke:#003366;stroke-width:1.0;" x1="798" x2="798" y1="255.7206" y2="268.7206"/><line style="stroke:#003366;stroke-width:1.0;" x1="757" x2="798" y1="268.7206" y2="268.7206"/><polygon fill="#003366" points="767,264.7206,757,268.7206,767,272.7206,763,268.7206" style="stroke:#003366;stroke-width:1.0;"/><text fill="#003366" font-family="sans-serif" font-size="12" lengthAdjust="spacing" textLength="88" x="768" y="245.2045">Parser le fichier</text><line style="stroke:#003366;stroke-width:1.0;" x1="756" x2="798" y1="309.0647" y2="309.0647"/><line style="stroke:#003366;stroke-width:1.0;" x1="798" x2="798" y1="309.0647" y2="322.0647"/><line style="stroke:#003366;stroke-width:1.0;" x1="757" x2="798" y1="322.0647" y2="322.0647"/><polygon fill="#003366" points="767,318.0647,757,322.0647,767,326.0647,763,322.0647" style="stroke:#003366;stroke-width:1.0;"/><text fill="#003366" font-family="sans-serif" font-size="12" lengthAdjust="spacing" textLength="183" x="768" y="298.5487">Valider format et donn&#233;es requis</text><path d="M684.5,337.0647 L763,337.0647 L763,355.4088 L753,365.4088 L682,365.4088 L682,339.5647 A2.5,2.5 0 0 1 684.5,337.0647 " fill="#F2F4F7" style="stroke:#003366;stroke-width:1.0;"/><rect fill="none" height="336.4411" rx="2.5" ry="2.5" style="stroke:#003366;stroke-width:1.0;" width="362" x="682" y="337.0647"/><text fill="#000000" font-family="sans-serif" font-size="12" font-weight="bold" lengthAdjust="spacing" textLength="26" x="702" y="355.8928">loop</text><text fill="#003366" font-family="sans-serif" font-size="12" font-weight="bold" lengthAdjust="spacing" textLength="117" x="783" y="356.8928">[pour chaque ligne]</text><polygon fill="#003366" points="951,405.097,961,409.097,951,413.097,955,409.097" style="stroke:#003366;stroke-width:1.0;"/><line style="stroke:#003366;stroke-width:1.0;" x1="756" x2="957" y1="409.097" y2="409.097"/><text fill="#003366" font-family="sans-serif" font-size="12" lengthAdjust="spacing" textLength="178" x="768" y="398.581">V&#233;rifier si CNE/Email existe d&#233;j&#224;</text><polygon fill="#003366" points="767,445.4411,757,449.4411,767,453.4411,763,449.4411" style="stroke:#003366;stroke-width:1.0;"/><line style="stroke:#003366;stroke-width:1.0;stroke-dasharray:2.0,2.0;" x1="761" x2="967" y1="449.4411" y2="449.4411"/><text fill="#003366" font-family="sans-serif" font-size="12" lengthAdjust="spacing" textLength="45" x="778" y="438.9251">R&#233;sultat</text><path d="M694.5,464.4411 L763,464.4411 L763,482.7853 L753,492.7853 L692,492.7853 L692,466.9411 A2.5,2.5 0 0 1 694.5,464.4411 " fill="#F2F4F7" style="stroke:#003366;stroke-width:1.0;"/><rect fill="none" height="202.0647" rx="2.5" ry="2.5" style="stroke:#003366;stroke-width:1.0;" width="342" x="692" y="464.4411"/><text fill="#000000" font-family="sans-serif" font-size="12" font-weight="bold" lengthAdjust="spacing" textLength="16" x="712" y="483.2692">alt</text><text fill="#003366" font-family="sans-serif" font-size="12" font-weight="bold" lengthAdjust="spacing" textLength="94" x="783" y="484.2692">[Donn&#233;e valide]</text><polygon fill="#003366" points="951,532.4735,961,536.4735,951,540.4735,955,536.4735" style="stroke:#003366;stroke-width:1.0;"/><line style="stroke:#003366;stroke-width:1.0;" x1="756" x2="957" y1="536.4735" y2="536.4735"/><text fill="#003366" font-family="sans-serif" font-size="12" lengthAdjust="spacing" textLength="161" x="768" y="525.9575">Sauvegarder nouvel &#201;tudiant</text><polygon fill="#003366" points="767,572.8176,757,576.8176,767,580.8176,763,576.8176" style="stroke:#003366;stroke-width:1.0;"/><line style="stroke:#003366;stroke-width:1.0;stroke-dasharray:2.0,2.0;" x1="761" x2="967" y1="576.8176" y2="576.8176"/><text fill="#003366" font-family="sans-serif" font-size="12" lengthAdjust="spacing" textLength="16" x="778" y="566.3016">OK</text><line style="stroke:#003366;stroke-width:1.0;stroke-dasharray:2.0,2.0;" x1="692" x2="1034" y1="585.8176" y2="585.8176"/><text fill="#003366" font-family="sans-serif" font-size="12" font-weight="bold" lengthAdjust="spacing" textLength="45" x="702" y="603.6457">[Erreur]</text><line style="stroke:#003366;stroke-width:1.0;" x1="756" x2="798" y1="645.5058" y2="645.5058"/><line style="stroke:#003366;stroke-width:1.0;" x1="798" x2="798" y1="645.5058" y2="658.5058"/><line style="stroke:#003366;stroke-width:1.0;" x1="757" x2="798" y1="658.5058" y2="658.5058"/><polygon fill="#003366" points="767,654.5058,757,658.5058,767,662.5058,763,658.5058" style="stroke:#003366;stroke-width:1.0;"/><text fill="#003366" font-family="sans-serif" font-size="12" lengthAdjust="spacing" textLength="125" x="768" y="634.9898">Logger erreur de ligne</text><polygon fill="#003366" points="536,708.8499,526,712.8499,536,716.8499,532,712.8499" style="stroke:#003366;stroke-width:1.0;"/><line style="stroke:#003366;stroke-width:1.0;stroke-dasharray:2.0,2.0;" x1="530" x2="750" y1="712.8499" y2="712.8499"/><text fill="#003366" font-family="sans-serif" font-size="12" lengthAdjust="spacing" textLength="187" x="547" y="702.3339">Rapport d'import (Succ&#232;s/&#201;checs)</text><polygon fill="#003366" points="269,749.1941,259,753.1941,269,757.1941,265,753.1941" style="stroke:#003366;stroke-width:1.0;"/><line style="stroke:#003366;stroke-width:1.0;stroke-dasharray:2.0,2.0;" x1="263" x2="514" y1="753.1941" y2="753.1941"/><text fill="#003366" font-family="sans-serif" font-size="12" lengthAdjust="spacing" textLength="136" x="280" y="742.678">200 OK (Summary JSON)</text><polygon fill="#003366" points="66,789.5382,56,793.5382,66,797.5382,62,793.5382" style="stroke:#003366;stroke-width:1.0;"/><line style="stroke:#003366;stroke-width:1.0;stroke-dasharray:2.0,2.0;" x1="60" x2="257" y1="793.5382" y2="793.5382"/><text fill="#003366" font-family="sans-serif" font-size="12" lengthAdjust="spacing" textLength="137" x="77" y="783.0221">Afficher bilan de l'import</text><!--SRC=[RLDBRjim4Dtp55DlQYzI1LrcKQ3-14ZIna5KP3-cHZOBYbH8oaYFa5jqMPz35-kGicNPiI0Hf3ZlpPlXuwUmeOgWBWbAPolu8WJAO1sCPjQwGXaCrBWHe8VqGwniOmfqVs1qPmAv4YN1NLLR5rBGhRCc2Cc3ipgIf8cc0yLXASW45I9Bma9ERgiafQZzN1GOS8MUO3IDOy6lDQRTaKzXywaGIHDSVUlomWtaxKwJ38e3kI8bDueSZ6VvIxPuawGdeWjan54BmvwM-I_8i5QPIdeo7vg29NeO_snqK3MwSAiqJM9tr9QRCgn53BYOUQ-VQJioSWjcKyXqu_AKv52gE61Eu4_eF5FglfBBOI-eLS5nfNKL1g3GzmaSlJRA2w6jhQ6sZGEvmTU6GAkr8G7y32ZdqyZMxfmgOzkyWjdZ8bjKg3JGc_8ik6Xtlzk_2TWNmGSHruo-Ej7rtEuyDmz3sYxe7D2nw03pJYviKo7fzoLbEJPRMgEBjHhBSmtj-xwpFUWyoKLbouT-xwCiqcosXNFi-qjIZYm_x7hDKYY5HdiUcqgc4F4x7jYvuvwnJiOlFdScWN7UIDd-yrdxBZSa_KGCfFK-6JfjOFklrzTSLEIegdWvx_FbO-_rb3hUanluNaOdCNYbD9gaUPz_c6rWxVy0]--></g></svg>