<?xml version="1.0" encoding="us-ascii" standalone="no"?><svg xmlns="http://www.w3.org/2000/svg" xmlns:xlink="http://www.w3.org/1999/xlink" contentStyleType="text/css" height="877px" preserveAspectRatio="none" style="width:1050px;height:877px;background:#FFFFFF;" version="1.1" viewBox="0 0 1050 877" width="1050px" zoomAndPan="magnify"><defs/><g><rect fill="#F2F4F7" height="578.1617" style="stroke:#003366;stroke-width:1.0;" width="10" x="515" y="176.3765"/><rect fill="#F2F4F7" height="457.1294" style="stroke:#003366;stroke-width:1.0;" width="10" x="746" y="216.7206"/><rect fill="#F2F4F7" height="40.3441" style="stroke:#003366;stroke-width:1.0;" width="10" x="963" y="410.4411"/><rect fill="none" height="296.097" rx="2.5" ry="2.5" style="stroke:#003366;stroke-width:1.0;" width="362" x="682" y="338.4088"/><rect fill="none" height="161.7206" rx="2.5" ry="2.5" style="stroke:#003366;stroke-width:1.0;" width="342" x="692" y="465.7853"/><line style="stroke:#003366;stroke-width:1.0;stroke-dasharray:5.0,5.0;" x1="55" x2="55" y1="93.6882" y2="772.5382"/><line style="stroke:#003366;stroke-width:1.0;stroke-dasharray:5.0,5.0;" x1="258" x2="258" y1="93.6882" y2="772.5382"/><line style="stroke:#003366;stroke-width:1.0;stroke-dasharray:5.0,5.0;" x1="520" x2="520" y1="93.6882" y2="772.5382"/><line style="stroke:#003366;stroke-width:1.0;stroke-dasharray:5.0,5.0;" x1="751" x2="751" y1="93.6882" y2="772.5382"/><line style="stroke:#003366;stroke-width:1.0;stroke-dasharray:5.0,5.0;" x1="968" x2="968" y1="93.6882" y2="772.5382"/><text fill="#000000" font-family="sans-serif" font-size="12" lengthAdjust="spacing" textLength="74" x="15" y="85.1722">Coordinateur</text><ellipse cx="55" cy="15.3441" fill="#F2F4F7" rx="8" ry="8" style="stroke:#003366;stroke-width:1.0;"/><path d="M55,23.3441 L55,50.3441 M42,31.3441 L68,31.3441 M55,50.3441 L42,65.3441 M55,50.3441 L68,65.3441 " fill="none" style="stroke:#003366;stroke-width:1.0;"/><text fill="#000000" font-family="sans-serif" font-size="12" lengthAdjust="spacing" textLength="74" x="15" y="789.3663">Coordinateur</text><ellipse cx="55" cy="806.8823" fill="#F2F4F7" rx="8" ry="8" style="stroke:#003366;stroke-width:1.0;"/><path d="M55,814.8823 L55,841.8823 M42,822.8823 L68,822.8823 M55,841.8823 L42,856.8823 M55,841.8823 L68,856.8823 " fill="none" style="stroke:#003366;stroke-width:1.0;"/><text fill="#000000" font-family="sans-serif" font-size="12" lengthAdjust="spacing" textLength="92" x="209" y="68.8281">Interface Import</text><text fill="#000000" font-family="sans-serif" font-size="12" lengthAdjust="spacing" textLength="29" x="240.5" y="85.1722">(Vue)</text><path d="M237.5,23 L237.5,47 M237.5,35 L254.5,35 " fill="none" style="stroke:#003366;stroke-width:1.0;"/><ellipse cx="266.5" cy="35" fill="#F2F4F7" rx="12" ry="12" style="stroke:#003366;stroke-width:1.0;"/><text fill="#000000" font-family="sans-serif" font-size="12" lengthAdjust="spacing" textLength="92" x="209" y="789.3663">Interface Import</text><text fill="#000000" font-family="sans-serif" font-size="12" lengthAdjust="spacing" textLength="29" x="240.5" y="805.7104">(Vue)</text><path d="M237.5,818.2264 L237.5,842.2264 M237.5,830.2264 L254.5,830.2264 " fill="none" style="stroke:#003366;stroke-width:1.0;"/><ellipse cx="266.5" cy="830.2264" fill="#F2F4F7" rx="12" ry="12" style="stroke:#003366;stroke-width:1.0;"/><text fill="#000000" font-family="sans-serif" font-size="12" lengthAdjust="spacing" textLength="56" x="489" y="85.1722">Controller</text><ellipse cx="520" cy="51.3441" fill="#F2F4F7" rx="12" ry="12" style="stroke:#003366;stroke-width:1.0;"/><polygon fill="#003366" points="516,39.3441,522,34.3441,520,39.3441,522,44.3441,516,39.3441" style="stroke:#003366;stroke-width:1.0;"/><text fill="#000000" font-family="sans-serif" font-size="12" lengthAdjust="spacing" textLength="56" x="489" y="789.3663">Controller</text><ellipse cx="520" cy="813.8823" fill="#F2F4F7" rx="12" ry="12" style="stroke:#003366;stroke-width:1.0;"/><polygon fill="#003366" points="516,801.8823,522,796.8823,520,801.8823,522,806.8823,516,801.8823" style="stroke:#003366;stroke-width:1.0;"/><text fill="#000000" font-family="sans-serif" font-size="12" lengthAdjust="spacing" textLength="82" x="707" y="85.1722">Import Service</text><ellipse cx="751" cy="51.3441" fill="#F2F4F7" rx="12" ry="12" style="stroke:#003366;stroke-width:1.0;"/><line style="stroke:#003366;stroke-width:1.0;" x1="739" x2="763" y1="65.3441" y2="65.3441"/><text fill="#000000" font-family="sans-serif" font-size="12" lengthAdjust="spacing" textLength="82" x="707" y="789.3663">Import Service</text><ellipse cx="751" cy="813.8823" fill="#F2F4F7" rx="12" ry="12" style="stroke:#003366;stroke-width:1.0;"/><line style="stroke:#003366;stroke-width:1.0;" x1="739" x2="763" y1="827.8823" y2="827.8823"/><text fill="#000000" font-family="sans-serif" font-size="12" lengthAdjust="spacing" textLength="96" x="917" y="68.8281">Base de donn&#233;es</text><text fill="#000000" font-family="sans-serif" font-size="12" lengthAdjust="spacing" textLength="43" x="943.5" y="85.1722">(Model)</text><path d="M950,15 C950,5 968,5 968,5 C968,5 986,5 986,15 L986,41 C986,51 968,51 968,51 C968,51 950,51 950,41 L950,15 " fill="#F2F4F7" style="stroke:#003366;stroke-width:1.5;"/><path d="M950,15 C950,25 968,25 968,25 C968,25 986,25 986,15 " fill="none" style="stroke:#003366;stroke-width:1.5;"/><text fill="#000000" font-family="sans-serif" font-size="12" lengthAdjust="spacing" textLength="96" x="917" y="789.3663">Base de donn&#233;es</text><text fill="#000000" font-family="sans-serif" font-size="12" lengthAdjust="spacing" textLength="43" x="943.5" y="805.7104">(Model)</text><path d="M950,824.2264 C950,814.2264 968,814.2264 968,814.2264 C968,814.2264 986,814.2264 986,824.2264 L986,850.2264 C986,860.2264 968,860.2264 968,860.2264 C968,860.2264 950,860.2264 950,850.2264 L950,824.2264 " fill="#F2F4F7" style="stroke:#003366;stroke-width:1.5;"/><path d="M950,824.2264 C950,834.2264 968,834.2264 968,834.2264 C968,834.2264 986,834.2264 986,824.2264 " fill="none" style="stroke:#003366;stroke-width:1.5;"/><rect fill="#F2F4F7" height="578.1617" style="stroke:#003366;stroke-width:1.0;" width="10" x="515" y="176.3765"/><rect fill="#F2F4F7" height="457.1294" style="stroke:#003366;stroke-width:1.0;" width="10" x="746" y="216.7206"/><rect fill="#F2F4F7" height="40.3441" style="stroke:#003366;stroke-width:1.0;" width="10" x="963" y="410.4411"/><polygon fill="#003366" points="246,132.0323,256,136.0323,246,140.0323,250,136.0323" style="stroke:#003366;stroke-width:1.0;"/><line style="stroke:#003366;stroke-width:1.0;" x1="55" x2="252" y1="136.0323" y2="136.0323"/><text fill="#003366" font-family="sans-serif" font-size="12" lengthAdjust="spacing" textLength="169" x="67" y="125.5163">S&#233;lectionne fichier (CSV/Excel)</text><polygon fill="#003366" points="503,172.3765,513,176.3765,503,180.3765,507,176.3765" style="stroke:#003366;stroke-width:1.0;"/><line style="stroke:#003366;stroke-width:1.0;" x1="258" x2="509" y1="176.3765" y2="176.3765"/><text fill="#003366" font-family="sans-serif" font-size="12" lengthAdjust="spacing" textLength="228" x="270" y="165.8604">POST /api/import/students (MultipartFile)</text><polygon fill="#003366" points="734,212.7206,744,216.7206,734,220.7206,738,216.7206" style="stroke:#003366;stroke-width:1.0;"/><line style="stroke:#003366;stroke-width:1.0;" x1="525" x2="740" y1="216.7206" y2="216.7206"/><text fill="#003366" font-family="sans-serif" font-size="12" lengthAdjust="spacing" textLength="126" x="537" y="206.2045">importerEtudiants(file)</text><line style="stroke:#003366;stroke-width:1.0;" x1="756" x2="798" y1="257.0647" y2="257.0647"/><line style="stroke:#003366;stroke-width:1.0;" x1="798" x2="798" y1="257.0647" y2="270.0647"/><line style="stroke:#003366;stroke-width:1.0;" x1="757" x2="798" y1="270.0647" y2="270.0647"/><polygon fill="#003366" points="767,266.0647,757,270.0647,767,274.0647,763,270.0647" style="stroke:#003366;stroke-width:1.0;"/><text fill="#003366" font-family="sans-serif" font-size="12" lengthAdjust="spacing" textLength="88" x="768" y="246.5487">Parser le fichier</text><line style="stroke:#003366;stroke-width:1.0;" x1="756" x2="798" y1="310.4088" y2="310.4088"/><line style="stroke:#003366;stroke-width:1.0;" x1="798" x2="798" y1="310.4088" y2="323.4088"/><line style="stroke:#003366;stroke-width:1.0;" x1="757" x2="798" y1="323.4088" y2="323.4088"/><polygon fill="#003366" points="767,319.4088,757,323.4088,767,327.4088,763,323.4088" style="stroke:#003366;stroke-width:1.0;"/><text fill="#003366" font-family="sans-serif" font-size="12" lengthAdjust="spacing" textLength="183" x="768" y="299.8928">Valider format et donn&#233;es requis</text><path d="M684.5,338.4088 L763,338.4088 L763,356.7529 L753,366.7529 L682,366.7529 L682,340.9088 A2.5,2.5 0 0 1 684.5,338.4088 " fill="#F2F4F7" style="stroke:#003366;stroke-width:1.0;"/><rect fill="none" height="296.097" rx="2.5" ry="2.5" style="stroke:#003366;stroke-width:1.0;" width="362" x="682" y="338.4088"/><text fill="#000000" font-family="sans-serif" font-size="12" font-weight="bold" lengthAdjust="spacing" textLength="26" x="702" y="357.2369">loop</text><text fill="#003366" font-family="sans-serif" font-size="12" font-weight="bold" lengthAdjust="spacing" textLength="117" x="783" y="358.2369">[pour chaque ligne]</text><polygon fill="#003366" points="951,406.4411,961,410.4411,951,414.4411,955,410.4411" style="stroke:#003366;stroke-width:1.0;"/><line style="stroke:#003366;stroke-width:1.0;" x1="756" x2="957" y1="410.4411" y2="410.4411"/><text fill="#003366" font-family="sans-serif" font-size="12" lengthAdjust="spacing" textLength="178" x="768" y="399.9251">V&#233;rifier si CNE/Email existe d&#233;j&#224;</text><polygon fill="#003366" points="767,446.7853,757,450.7853,767,454.7853,763,450.7853" style="stroke:#003366;stroke-width:1.0;"/><line style="stroke:#003366;stroke-width:1.0;stroke-dasharray:2.0,2.0;" x1="761" x2="967" y1="450.7853" y2="450.7853"/><text fill="#003366" font-family="sans-serif" font-size="12" lengthAdjust="spacing" textLength="45" x="778" y="440.2692">R&#233;sultat</text><path d="M694.5,465.7853 L763,465.7853 L763,484.1294 L753,494.1294 L692,494.1294 L692,468.2853 A2.5,2.5 0 0 1 694.5,465.7853 " fill="#F2F4F7" style="stroke:#003366;stroke-width:1.0;"/><rect fill="none" height="161.7206" rx="2.5" ry="2.5" style="stroke:#003366;stroke-width:1.0;" width="342" x="692" y="465.7853"/><text fill="#000000" font-family="sans-serif" font-size="12" font-weight="bold" lengthAdjust="spacing" textLength="16" x="712" y="484.6133">alt</text><text fill="#003366" font-family="sans-serif" font-size="12" font-weight="bold" lengthAdjust="spacing" textLength="94" x="783" y="485.6133">[Donn&#233;e valide]</text><polygon fill="#003366" points="956,533.8176,966,537.8176,956,541.8176,960,537.8176" style="stroke:#003366;stroke-width:1.0;"/><line style="stroke:#003366;stroke-width:1.0;" x1="756" x2="962" y1="537.8176" y2="537.8176"/><text fill="#003366" font-family="sans-serif" font-size="12" lengthAdjust="spacing" textLength="161" x="768" y="527.3016">Sauvegarder nouvel &#201;tudiant</text><line style="stroke:#003366;stroke-width:1.0;stroke-dasharray:2.0,2.0;" x1="692" x2="1034" y1="546.8176" y2="546.8176"/><text fill="#003366" font-family="sans-serif" font-size="12" font-weight="bold" lengthAdjust="spacing" textLength="45" x="702" y="564.6457">[Erreur]</text><line style="stroke:#003366;stroke-width:1.0;" x1="756" x2="798" y1="606.5058" y2="606.5058"/><line style="stroke:#003366;stroke-width:1.0;" x1="798" x2="798" y1="606.5058" y2="619.5058"/><line style="stroke:#003366;stroke-width:1.0;" x1="757" x2="798" y1="619.5058" y2="619.5058"/><polygon fill="#003366" points="767,615.5058,757,619.5058,767,623.5058,763,619.5058" style="stroke:#003366;stroke-width:1.0;"/><text fill="#003366" font-family="sans-serif" font-size="12" lengthAdjust="spacing" textLength="125" x="768" y="595.9898">Logger erreur de ligne</text><polygon fill="#003366" points="536,669.8499,526,673.8499,536,677.8499,532,673.8499" style="stroke:#003366;stroke-width:1.0;"/><line style="stroke:#003366;stroke-width:1.0;stroke-dasharray:2.0,2.0;" x1="530" x2="750" y1="673.8499" y2="673.8499"/><text fill="#003366" font-family="sans-serif" font-size="12" lengthAdjust="spacing" textLength="187" x="547" y="663.3339">Rapport d'import (Succ&#232;s/&#201;checs)</text><polygon fill="#003366" points="269,710.1941,259,714.1941,269,718.1941,265,714.1941" style="stroke:#003366;stroke-width:1.0;"/><line style="stroke:#003366;stroke-width:1.0;stroke-dasharray:2.0,2.0;" x1="263" x2="514" y1="714.1941" y2="714.1941"/><text fill="#003366" font-family="sans-serif" font-size="12" lengthAdjust="spacing" textLength="136" x="280" y="703.678">200 OK (Summary JSON)</text><polygon fill="#003366" points="66,750.5382,56,754.5382,66,758.5382,62,754.5382" style="stroke:#003366;stroke-width:1.0;"/><line style="stroke:#003366;stroke-width:1.0;stroke-dasharray:2.0,2.0;" x1="60" x2="257" y1="754.5382" y2="754.5382"/><text fill="#003366" font-family="sans-serif" font-size="12" lengthAdjust="spacing" textLength="137" x="77" y="744.0221">Afficher bilan de l'import</text><!--SRC=[RLFBRjim4BppAxQ-r3ca2dhCeK3z292sYOEeyAaNcbpPB2XIML96-WdvYnxhxz2FTKdv8GSM986ITcPdbgCFSOCrGbCXLEHh-2I4LD4JZARUapPEHcnf1390VY5MldLQqXyOtRk8L4c5S5ytdk8lDrwsU9LhxyYxA1JVoDl4bHSM3qo7Hu4kcfZ8CWMKI5kZC5VjrqBBA5So88mcwQxvzCvrEmpSyS5hj7tFsKI8h16kl_G2u1RARcTHHSC8TcZKnY31U5ekY_chOgJe2nbn4iMmfqNv4mhPcC9aOKM8hMQj0SOFhOscaHJlZCMhD2spvI4DJOa15pFlZJ1jJuOqPpOZcMvSdPCSF8i3vWp-92amfJqwkLosbDPehgiyrJ82nkF0WF2bDK48wtq3ZMy9r4Q-j0ZMh1qAu6D0EPiajcv7fafZ2mQcZ_DYNajZ0LzDOC6ws_tk_cRWqGHlH7fczFMPhkTk5tXuCkRF6jy3UXOROTRBXMqsabzVKbRATejhISchyxosqBtj9vj1Q3alSo9Ey2MIax8VVhrc4iobAM6dSQ3J8bsdKR_FohDiSdRrntvxOLosIdN_Gj6zgGsgS2K6NeyxFCp88B2VRsvWyJrnr7NwpRwLYyTZIdFhbF1R-5gb331uPQnqMVE-_x3R89J_0G00]--></g></svg>