<?xml version="1.0" encoding="us-ascii" standalone="no"?><svg xmlns="http://www.w3.org/2000/svg" xmlns:xlink="http://www.w3.org/1999/xlink" contentStyleType="text/css" height="1173px" preserveAspectRatio="none" style="width:1312px;height:1173px;background:#FFFFFF;" version="1.1" viewBox="0 0 1312 1173" width="1312px" zoomAndPan="magnify"><defs/><g><rect fill="#F2F4F7" height="827.5705" style="stroke:#003366;stroke-width:1.0;" width="10" x="547" y="176.3765"/><rect fill="#F2F4F7" height="746.8823" style="stroke:#003366;stroke-width:1.0;" width="10" x="714" y="216.7206"/><rect fill="#F2F4F7" height="121.0323" style="stroke:#003366;stroke-width:1.0;" width="10" x="1025" y="357.097"/><rect fill="none" height="201.0647" rx="2.5" ry="2.5" style="stroke:#003366;stroke-width:1.0;" width="636.5" x="668.5" y="285.0647"/><rect fill="none" height="552.1617" rx="2.5" ry="2.5" style="stroke:#003366;stroke-width:1.0;" width="1290" x="15" y="500.1294"/><line style="stroke:#003366;stroke-width:1.0;stroke-dasharray:5.0,5.0;" x1="70" x2="70" y1="93.6882" y2="1069.2911"/><line style="stroke:#003366;stroke-width:1.0;stroke-dasharray:5.0,5.0;" x1="321.5" x2="321.5" y1="93.6882" y2="1069.2911"/><line style="stroke:#003366;stroke-width:1.0;stroke-dasharray:5.0,5.0;" x1="552" x2="552" y1="93.6882" y2="1069.2911"/><line style="stroke:#003366;stroke-width:1.0;stroke-dasharray:5.0,5.0;" x1="718.5" x2="718.5" y1="93.6882" y2="1069.2911"/><line style="stroke:#003366;stroke-width:1.0;stroke-dasharray:5.0,5.0;" x1="1030" x2="1030" y1="93.6882" y2="1069.2911"/><line style="stroke:#003366;stroke-width:1.0;stroke-dasharray:5.0,5.0;" x1="1239" x2="1239" y1="93.6882" y2="1069.2911"/><text fill="#000000" font-family="sans-serif" font-size="12" lengthAdjust="spacing" textLength="74" x="30" y="85.1722">Coordinateur</text><ellipse cx="70" cy="15.3441" fill="#F2F4F7" rx="8" ry="8" style="stroke:#003366;stroke-width:1.0;"/><path d="M70,23.3441 L70,50.3441 M57,31.3441 L83,31.3441 M70,50.3441 L57,65.3441 M70,50.3441 L83,65.3441 " fill="none" style="stroke:#003366;stroke-width:1.0;"/><text fill="#000000" font-family="sans-serif" font-size="12" lengthAdjust="spacing" textLength="74" x="30" y="1086.1192">Coordinateur</text><ellipse cx="70" cy="1103.6352" fill="#F2F4F7" rx="8" ry="8" style="stroke:#003366;stroke-width:1.0;"/><path d="M70,1111.6352 L70,1138.6352 M57,1119.6352 L83,1119.6352 M70,1138.6352 L57,1153.6352 M70,1138.6352 L83,1153.6352 " fill="none" style="stroke:#003366;stroke-width:1.0;"/><text fill="#000000" font-family="sans-serif" font-size="12" lengthAdjust="spacing" textLength="75" x="281.5" y="68.8281">Interface Jury</text><text fill="#000000" font-family="sans-serif" font-size="12" lengthAdjust="spacing" textLength="29" x="304.5" y="85.1722">(Vue)</text><path d="M301.5,23 L301.5,47 M301.5,35 L318.5,35 " fill="none" style="stroke:#003366;stroke-width:1.0;"/><ellipse cx="330.5" cy="35" fill="#F2F4F7" rx="12" ry="12" style="stroke:#003366;stroke-width:1.0;"/><text fill="#000000" font-family="sans-serif" font-size="12" lengthAdjust="spacing" textLength="75" x="281.5" y="1086.1192">Interface Jury</text><text fill="#000000" font-family="sans-serif" font-size="12" lengthAdjust="spacing" textLength="29" x="304.5" y="1102.4633">(Vue)</text><path d="M301.5,1114.9793 L301.5,1138.9793 M301.5,1126.9793 L318.5,1126.9793 " fill="none" style="stroke:#003366;stroke-width:1.0;"/><ellipse cx="330.5" cy="1126.9793" fill="#F2F4F7" rx="12" ry="12" style="stroke:#003366;stroke-width:1.0;"/><text fill="#000000" font-family="sans-serif" font-size="12" lengthAdjust="spacing" textLength="56" x="521" y="85.1722">Controller</text><ellipse cx="552" cy="51.3441" fill="#F2F4F7" rx="12" ry="12" style="stroke:#003366;stroke-width:1.0;"/><polygon fill="#003366" points="548,39.3441,554,34.3441,552,39.3441,554,44.3441,548,39.3441" style="stroke:#003366;stroke-width:1.0;"/><text fill="#000000" font-family="sans-serif" font-size="12" lengthAdjust="spacing" textLength="56" x="521" y="1086.1192">Controller</text><ellipse cx="552" cy="1110.6352" fill="#F2F4F7" rx="12" ry="12" style="stroke:#003366;stroke-width:1.0;"/><polygon fill="#003366" points="548,1098.6352,554,1093.6352,552,1098.6352,554,1103.6352,548,1098.6352" style="stroke:#003366;stroke-width:1.0;"/><text fill="#000000" font-family="sans-serif" font-size="12" lengthAdjust="spacing" textLength="65" x="683.5" y="85.1722">Jury Service</text><ellipse cx="719" cy="51.3441" fill="#F2F4F7" rx="12" ry="12" style="stroke:#003366;stroke-width:1.0;"/><line style="stroke:#003366;stroke-width:1.0;" x1="707" x2="731" y1="65.3441" y2="65.3441"/><text fill="#000000" font-family="sans-serif" font-size="12" lengthAdjust="spacing" textLength="65" x="683.5" y="1086.1192">Jury Service</text><ellipse cx="719" cy="1110.6352" fill="#F2F4F7" rx="12" ry="12" style="stroke:#003366;stroke-width:1.0;"/><line style="stroke:#003366;stroke-width:1.0;" x1="707" x2="731" y1="1124.6352" y2="1124.6352"/><text fill="#000000" font-family="sans-serif" font-size="12" lengthAdjust="spacing" textLength="86" x="984" y="85.1722">Conflict Service</text><ellipse cx="1030" cy="51.3441" fill="#F2F4F7" rx="12" ry="12" style="stroke:#003366;stroke-width:1.0;"/><line style="stroke:#003366;stroke-width:1.0;" x1="1018" x2="1042" y1="65.3441" y2="65.3441"/><text fill="#000000" font-family="sans-serif" font-size="12" lengthAdjust="spacing" textLength="86" x="984" y="1086.1192">Conflict Service</text><ellipse cx="1030" cy="1110.6352" fill="#F2F4F7" rx="12" ry="12" style="stroke:#003366;stroke-width:1.0;"/><line style="stroke:#003366;stroke-width:1.0;" x1="1018" x2="1042" y1="1124.6352" y2="1124.6352"/><text fill="#000000" font-family="sans-serif" font-size="12" lengthAdjust="spacing" textLength="96" x="1188" y="68.8281">Base de donn&#233;es</text><text fill="#000000" font-family="sans-serif" font-size="12" lengthAdjust="spacing" textLength="43" x="1214.5" y="85.1722">(Model)</text><path d="M1221,15 C1221,5 1239,5 1239,5 C1239,5 1257,5 1257,15 L1257,41 C1257,51 1239,51 1239,51 C1239,51 1221,51 1221,41 L1221,15 " fill="#F2F4F7" style="stroke:#003366;stroke-width:1.5;"/><path d="M1221,15 C1221,25 1239,25 1239,25 C1239,25 1257,25 1257,15 " fill="none" style="stroke:#003366;stroke-width:1.5;"/><text fill="#000000" font-family="sans-serif" font-size="12" lengthAdjust="spacing" textLength="96" x="1188" y="1086.1192">Base de donn&#233;es</text><text fill="#000000" font-family="sans-serif" font-size="12" lengthAdjust="spacing" textLength="43" x="1214.5" y="1102.4633">(Model)</text><path d="M1221,1120.9793 C1221,1110.9793 1239,1110.9793 1239,1110.9793 C1239,1110.9793 1257,1110.9793 1257,1120.9793 L1257,1146.9793 C1257,1156.9793 1239,1156.9793 1239,1156.9793 C1239,1156.9793 1221,1156.9793 1221,1146.9793 L1221,1120.9793 " fill="#F2F4F7" style="stroke:#003366;stroke-width:1.5;"/><path d="M1221,1120.9793 C1221,1130.9793 1239,1130.9793 1239,1130.9793 C1239,1130.9793 1257,1130.9793 1257,1120.9793 " fill="none" style="stroke:#003366;stroke-width:1.5;"/><rect fill="#F2F4F7" height="827.5705" style="stroke:#003366;stroke-width:1.0;" width="10" x="547" y="176.3765"/><rect fill="#F2F4F7" height="746.8823" style="stroke:#003366;stroke-width:1.0;" width="10" x="714" y="216.7206"/><rect fill="#F2F4F7" height="121.0323" style="stroke:#003366;stroke-width:1.0;" width="10" x="1025" y="357.097"/><polygon fill="#003366" points="310,132.0323,320,136.0323,310,140.0323,314,136.0323" style="stroke:#003366;stroke-width:1.0;"/><line style="stroke:#003366;stroke-width:1.0;" x1="70" x2="316" y1="136.0323" y2="136.0323"/><text fill="#003366" font-family="sans-serif" font-size="12" lengthAdjust="spacing" textLength="218" x="82" y="125.5163">S&#233;lectionne soutenance et enseignants</text><polygon fill="#003366" points="535,172.3765,545,176.3765,535,180.3765,539,176.3765" style="stroke:#003366;stroke-width:1.0;"/><line style="stroke:#003366;stroke-width:1.0;" x1="322" x2="541" y1="176.3765" y2="176.3765"/><text fill="#003366" font-family="sans-serif" font-size="12" lengthAdjust="spacing" textLength="196" x="334" y="165.8604">POST /api/jury/validate-assignment</text><polygon fill="#003366" points="702,212.7206,712,216.7206,702,220.7206,706,216.7206" style="stroke:#003366;stroke-width:1.0;"/><line style="stroke:#003366;stroke-width:1.0;" x1="557" x2="708" y1="216.7206" y2="216.7206"/><text fill="#003366" font-family="sans-serif" font-size="12" lengthAdjust="spacing" textLength="128" x="569" y="206.2045">validerAffectation(jury)</text><line style="stroke:#003366;stroke-width:1.0;" x1="724" x2="766" y1="257.0647" y2="257.0647"/><line style="stroke:#003366;stroke-width:1.0;" x1="766" x2="766" y1="257.0647" y2="270.0647"/><line style="stroke:#003366;stroke-width:1.0;" x1="725" x2="766" y1="270.0647" y2="270.0647"/><polygon fill="#003366" points="735,266.0647,725,270.0647,735,274.0647,731,270.0647" style="stroke:#003366;stroke-width:1.0;"/><text fill="#003366" font-family="sans-serif" font-size="12" lengthAdjust="spacing" textLength="204" x="736" y="246.5487">V&#233;rifier RG5 (Encadrant != Pr&#233;sident)</text><path d="M671,285.0647 L749.5,285.0647 L749.5,303.4088 L739.5,313.4088 L668.5,313.4088 L668.5,287.5647 A2.5,2.5 0 0 1 671,285.0647 " fill="#F2F4F7" style="stroke:#003366;stroke-width:1.0;"/><rect fill="none" height="201.0647" rx="2.5" ry="2.5" style="stroke:#003366;stroke-width:1.0;" width="636.5" x="668.5" y="285.0647"/><text fill="#000000" font-family="sans-serif" font-size="12" font-weight="bold" lengthAdjust="spacing" textLength="26" x="688.5" y="303.8928">loop</text><text fill="#003366" font-family="sans-serif" font-size="12" font-weight="bold" lengthAdjust="spacing" textLength="226" x="769.5" y="304.8928">[pour chaque enseignant s&#233;lectionn&#233;]</text><polygon fill="#003366" points="1013,353.097,1023,357.097,1013,361.097,1017,357.097" style="stroke:#003366;stroke-width:1.0;"/><line style="stroke:#003366;stroke-width:1.0;" x1="724" x2="1019" y1="357.097" y2="357.097"/><text fill="#003366" font-family="sans-serif" font-size="12" lengthAdjust="spacing" textLength="272" x="736" y="346.581">v&#233;rifierDisponibilit&#233;Enseignant(prof, date, heure)</text><polygon fill="#003366" points="1227,393.4411,1237,397.4411,1227,401.4411,1231,397.4411" style="stroke:#003366;stroke-width:1.0;"/><line style="stroke:#003366;stroke-width:1.0;" x1="1035" x2="1233" y1="397.4411" y2="397.4411"/><text fill="#003366" font-family="sans-serif" font-size="12" lengthAdjust="spacing" textLength="170" x="1047" y="386.9251">Consulter planning enseignant</text><polygon fill="#003366" points="1046,433.7853,1036,437.7853,1046,441.7853,1042,437.7853" style="stroke:#003366;stroke-width:1.0;"/><line style="stroke:#003366;stroke-width:1.0;stroke-dasharray:2.0,2.0;" x1="1040" x2="1238" y1="437.7853" y2="437.7853"/><text fill="#003366" font-family="sans-serif" font-size="12" lengthAdjust="spacing" textLength="51" x="1057" y="427.2692">R&#233;sultats</text><polygon fill="#003366" points="735,474.1294,725,478.1294,735,482.1294,731,478.1294" style="stroke:#003366;stroke-width:1.0;"/><line style="stroke:#003366;stroke-width:1.0;stroke-dasharray:2.0,2.0;" x1="729" x2="1029" y1="478.1294" y2="478.1294"/><text fill="#003366" font-family="sans-serif" font-size="12" lengthAdjust="spacing" textLength="120" x="746" y="467.6133">Status (Libre/Occup&#233;)</text><path d="M17.5,500.1294 L86,500.1294 L86,518.4735 L76,528.4735 L15,528.4735 L15,502.6294 A2.5,2.5 0 0 1 17.5,500.1294 " fill="#F2F4F7" style="stroke:#003366;stroke-width:1.0;"/><rect fill="none" height="552.1617" rx="2.5" ry="2.5" style="stroke:#003366;stroke-width:1.0;" width="1290" x="15" y="500.1294"/><text fill="#000000" font-family="sans-serif" font-size="12" font-weight="bold" lengthAdjust="spacing" textLength="16" x="35" y="518.9575">alt</text><text fill="#003366" font-family="sans-serif" font-size="12" font-weight="bold" lengthAdjust="spacing" textLength="252" x="106" y="519.9575">[Composition valide (RG4: 2 &#224; 5 membres)]</text><polygon fill="#003366" points="568,568.1617,558,572.1617,568,576.1617,564,572.1617" style="stroke:#003366;stroke-width:1.0;"/><line style="stroke:#003366;stroke-width:1.0;stroke-dasharray:2.0,2.0;" x1="562" x2="713" y1="572.1617" y2="572.1617"/><text fill="#003366" font-family="sans-serif" font-size="12" lengthAdjust="spacing" textLength="34" x="579" y="561.6457">Valid&#233;</text><polygon fill="#003366" points="333,608.5058,323,612.5058,333,616.5058,329,612.5058" style="stroke:#003366;stroke-width:1.0;"/><line style="stroke:#003366;stroke-width:1.0;stroke-dasharray:2.0,2.0;" x1="327" x2="546" y1="612.5058" y2="612.5058"/><text fill="#003366" font-family="sans-serif" font-size="12" lengthAdjust="spacing" textLength="74" x="344" y="601.9898">200 OK (Pr&#234;t)</text><polygon fill="#003366" points="310,648.8499,320,652.8499,310,656.8499,314,652.8499" style="stroke:#003366;stroke-width:1.0;"/><line style="stroke:#003366;stroke-width:1.0;" x1="70" x2="316" y1="652.8499" y2="652.8499"/><text fill="#003366" font-family="sans-serif" font-size="12" lengthAdjust="spacing" textLength="108" x="82" y="642.3339">Valider l'affectation</text><polygon fill="#003366" points="535,689.1941,545,693.1941,535,697.1941,539,693.1941" style="stroke:#003366;stroke-width:1.0;"/><line style="stroke:#003366;stroke-width:1.0;" x1="322" x2="541" y1="693.1941" y2="693.1941"/><text fill="#003366" font-family="sans-serif" font-size="12" lengthAdjust="spacing" textLength="119" x="334" y="682.678">POST /api/jury/assign</text><polygon fill="#003366" points="702,729.5382,712,733.5382,702,737.5382,706,733.5382" style="stroke:#003366;stroke-width:1.0;"/><line style="stroke:#003366;stroke-width:1.0;" x1="557" x2="708" y1="733.5382" y2="733.5382"/><text fill="#003366" font-family="sans-serif" font-size="12" lengthAdjust="spacing" textLength="73" x="569" y="723.0221">affecter(jury)</text><polygon fill="#003366" points="1227,769.8823,1237,773.8823,1227,777.8823,1231,773.8823" style="stroke:#003366;stroke-width:1.0;"/><line style="stroke:#003366;stroke-width:1.0;" x1="724" x2="1233" y1="773.8823" y2="773.8823"/><text fill="#003366" font-family="sans-serif" font-size="12" lengthAdjust="spacing" textLength="184" x="736" y="763.3663">Sauvegarder composition du jury</text><polygon fill="#003366" points="568,810.2264,558,814.2264,568,818.2264,564,814.2264" style="stroke:#003366;stroke-width:1.0;"/><line style="stroke:#003366;stroke-width:1.0;stroke-dasharray:2.0,2.0;" x1="562" x2="713" y1="814.2264" y2="814.2264"/><text fill="#003366" font-family="sans-serif" font-size="12" lengthAdjust="spacing" textLength="40" x="579" y="803.7104">200 OK</text><polygon fill="#003366" points="333,850.5705,323,854.5705,333,858.5705,329,854.5705" style="stroke:#003366;stroke-width:1.0;"/><line style="stroke:#003366;stroke-width:1.0;stroke-dasharray:2.0,2.0;" x1="327" x2="546" y1="854.5705" y2="854.5705"/><text fill="#003366" font-family="sans-serif" font-size="12" lengthAdjust="spacing" textLength="40" x="344" y="844.0545">200 OK</text><polygon fill="#003366" points="81,890.9146,71,894.9146,81,898.9146,77,894.9146" style="stroke:#003366;stroke-width:1.0;"/><line style="stroke:#003366;stroke-width:1.0;stroke-dasharray:2.0,2.0;" x1="75" x2="321" y1="894.9146" y2="894.9146"/><text fill="#003366" font-family="sans-serif" font-size="12" lengthAdjust="spacing" textLength="118" x="92" y="884.3986">Afficher confirmation</text><line style="stroke:#003366;stroke-width:1.0;stroke-dasharray:2.0,2.0;" x1="15" x2="1305" y1="903.9146" y2="903.9146"/><text fill="#003366" font-family="sans-serif" font-size="12" font-weight="bold" lengthAdjust="spacing" textLength="206" x="25" y="921.7427">[Conflits ou r&#232;gles non respect&#233;es]</text><polygon fill="#003366" points="568,959.6029,558,963.6029,568,967.6029,564,963.6029" style="stroke:#003366;stroke-width:1.0;"/><line style="stroke:#003366;stroke-width:1.0;stroke-dasharray:2.0,2.0;" x1="562" x2="718" y1="963.6029" y2="963.6029"/><text fill="#003366" font-family="sans-serif" font-size="12" lengthAdjust="spacing" textLength="36" x="579" y="953.0868">Erreur</text><polygon fill="#003366" points="333,999.947,323,1003.947,333,1007.947,329,1003.947" style="stroke:#003366;stroke-width:1.0;"/><line style="stroke:#003366;stroke-width:1.0;stroke-dasharray:2.0,2.0;" x1="327" x2="551" y1="1003.947" y2="1003.947"/><text fill="#003366" font-family="sans-serif" font-size="12" lengthAdjust="spacing" textLength="170" x="344" y="993.4309">400 Bad Request / 409 Conflict</text><polygon fill="#003366" points="81,1040.2911,71,1044.2911,81,1048.2911,77,1044.2911" style="stroke:#003366;stroke-width:1.0;"/><line style="stroke:#003366;stroke-width:1.0;stroke-dasharray:2.0,2.0;" x1="75" x2="321" y1="1044.2911" y2="1044.2911"/><text fill="#003366" font-family="sans-serif" font-size="12" lengthAdjust="spacing" textLength="89" x="92" y="1033.7751">Afficher erreurs</text><!--SRC=[ZLJBZjf04BpFL_HoYP6Mi5hj7eAKI26GLLvY1H6dN0Qx3HEDPvnv8EtVv1ZdD_nZwHbZi5c93KAMtUegLrVN-Chji40eSuJSw09UCyPJfmqCFcXjCg6uGsy6m2t40jjehp9kdc3mIJaqEKyHFdlpz4CbQu_3sFdHQELOIXUZPM2ADn9RdlQHeNB24LKWW1MQlKWnzXpkZms4oQL8NQ-fBRACExxX5c4m3TUC_bgfka9Bghxf36MZQpPbB4u1etUDI9Z0gguafauG0i5gxr1nHKEX0rGMnPOUdMLDE-5EyWdyk5XzXp4lnVWdZJ3USob838wujGGiI7wmK-ofrfsRTKY8yZ0KyKK2DE_pd2Jn82e9nCCJI-iCQq4z_BgkZCW5qIuVxY6PgvHdXlJ3rLjuD7LbYLsv8MDIwn9AxGsaE_xBOsTMi2T7wee1_JhlEcw2nBOlcmbRQYKsGWfNL_CZKr8QdLz3SEGQTfGZ74QwhYND1aFro4nlcKs9dmhMImePb98h9TIsep92g6tKrxIa6Gd3QMDzpfvDAshm5fAlOcDml4XJNzPLeot3v-fGPNGifADAKMehWZM7LK6oVBYRm2tKl-4U2Yo8q0xxffs7PXsG1sUxGUY4ylRc1XPV8A6T_NN3G-TPSDTDLa2-ugUunDR_oceJqMSYkZOrl6WE6JnBGjpHYlizRha9GjAEEvc70BfiH3FbopvqXueSmOa9q2aHwIw-MEN258q1A6sxEcT1Up3rdwr42ufaqN9A6Yby6YvBcnj3UJrFH7luBYY-8yLJdi4IwLHP1sEglEa7lH-nzflmmemO1TcOnNy0]--></g></svg>