<?xml version="1.0" encoding="us-ascii" standalone="no"?><svg xmlns="http://www.w3.org/2000/svg" xmlns:xlink="http://www.w3.org/1999/xlink" contentStyleType="text/css" height="904px" preserveAspectRatio="none" style="width:995px;height:904px;background:#FFFFFF;" version="1.1" viewBox="0 0 995 904" width="995px" zoomAndPan="magnify"><defs/><g><rect fill="#F2F4F7" height="557.8176" style="stroke:#003366;stroke-width:1.0;" width="10" x="488" y="176.3765"/><rect fill="#F2F4F7" height="477.1294" style="stroke:#003366;stroke-width:1.0;" width="10" x="691" y="216.7206"/><rect fill="#F2F4F7" height="40.3441" style="stroke:#003366;stroke-width:1.0;" width="10" x="938" y="257.0647"/><rect fill="none" height="416.7853" rx="2.5" ry="2.5" style="stroke:#003366;stroke-width:1.0;" width="823" x="15" y="365.7529"/><line style="stroke:#003366;stroke-width:1.0;stroke-dasharray:5.0,5.0;" x1="62" x2="62" y1="93.6882" y2="799.5382"/><line style="stroke:#003366;stroke-width:1.0;stroke-dasharray:5.0,5.0;" x1="242.5" x2="242.5" y1="93.6882" y2="799.5382"/><line style="stroke:#003366;stroke-width:1.0;stroke-dasharray:5.0,5.0;" x1="493" x2="493" y1="93.6882" y2="799.5382"/><line style="stroke:#003366;stroke-width:1.0;stroke-dasharray:5.0,5.0;" x1="695.5" x2="695.5" y1="93.6882" y2="799.5382"/><line style="stroke:#003366;stroke-width:1.0;stroke-dasharray:5.0,5.0;" x1="943" x2="943" y1="93.6882" y2="799.5382"/><text fill="#000000" font-family="sans-serif" font-size="12" lengthAdjust="spacing" textLength="58" x="30" y="85.1722">Utilisateur</text><ellipse cx="62" cy="15.3441" fill="#F2F4F7" rx="8" ry="8" style="stroke:#003366;stroke-width:1.0;"/><path d="M62,23.3441 L62,50.3441 M49,31.3441 L75,31.3441 M62,50.3441 L49,65.3441 M62,50.3441 L75,65.3441 " fill="none" style="stroke:#003366;stroke-width:1.0;"/><text fill="#000000" font-family="sans-serif" font-size="12" lengthAdjust="spacing" textLength="58" x="30" y="816.3663">Utilisateur</text><ellipse cx="62" cy="833.8823" fill="#F2F4F7" rx="8" ry="8" style="stroke:#003366;stroke-width:1.0;"/><path d="M62,841.8823 L62,868.8823 M49,849.8823 L75,849.8823 M62,868.8823 L49,883.8823 M62,868.8823 L75,883.8823 " fill="none" style="stroke:#003366;stroke-width:1.0;"/><text fill="#000000" font-family="sans-serif" font-size="12" lengthAdjust="spacing" textLength="85" x="197.5" y="68.8281">Interface React</text><text fill="#000000" font-family="sans-serif" font-size="12" lengthAdjust="spacing" textLength="29" x="225.5" y="85.1722">(Vue)</text><path d="M222.5,23 L222.5,47 M222.5,35 L239.5,35 " fill="none" style="stroke:#003366;stroke-width:1.0;"/><ellipse cx="251.5" cy="35" fill="#F2F4F7" rx="12" ry="12" style="stroke:#003366;stroke-width:1.0;"/><text fill="#000000" font-family="sans-serif" font-size="12" lengthAdjust="spacing" textLength="85" x="197.5" y="816.3663">Interface React</text><text fill="#000000" font-family="sans-serif" font-size="12" lengthAdjust="spacing" textLength="29" x="225.5" y="832.7104">(Vue)</text><path d="M222.5,845.2264 L222.5,869.2264 M222.5,857.2264 L239.5,857.2264 " fill="none" style="stroke:#003366;stroke-width:1.0;"/><ellipse cx="251.5" cy="857.2264" fill="#F2F4F7" rx="12" ry="12" style="stroke:#003366;stroke-width:1.0;"/><text fill="#000000" font-family="sans-serif" font-size="12" lengthAdjust="spacing" textLength="56" x="462" y="85.1722">Controller</text><ellipse cx="493" cy="51.3441" fill="#F2F4F7" rx="12" ry="12" style="stroke:#003366;stroke-width:1.0;"/><polygon fill="#003366" points="489,39.3441,495,34.3441,493,39.3441,495,44.3441,489,39.3441" style="stroke:#003366;stroke-width:1.0;"/><text fill="#000000" font-family="sans-serif" font-size="12" lengthAdjust="spacing" textLength="56" x="462" y="816.3663">Controller</text><ellipse cx="493" cy="840.8823" fill="#F2F4F7" rx="12" ry="12" style="stroke:#003366;stroke-width:1.0;"/><polygon fill="#003366" points="489,828.8823,495,823.8823,493,828.8823,495,833.8823,489,828.8823" style="stroke:#003366;stroke-width:1.0;"/><text fill="#000000" font-family="sans-serif" font-size="12" lengthAdjust="spacing" textLength="89" x="648.5" y="85.1722">Security Service</text><ellipse cx="696" cy="51.3441" fill="#F2F4F7" rx="12" ry="12" style="stroke:#003366;stroke-width:1.0;"/><line style="stroke:#003366;stroke-width:1.0;" x1="684" x2="708" y1="65.3441" y2="65.3441"/><text fill="#000000" font-family="sans-serif" font-size="12" lengthAdjust="spacing" textLength="89" x="648.5" y="816.3663">Security Service</text><ellipse cx="696" cy="840.8823" fill="#F2F4F7" rx="12" ry="12" style="stroke:#003366;stroke-width:1.0;"/><line style="stroke:#003366;stroke-width:1.0;" x1="684" x2="708" y1="854.8823" y2="854.8823"/><text fill="#000000" font-family="sans-serif" font-size="12" lengthAdjust="spacing" textLength="96" x="892" y="68.8281">Base de donn&#233;es</text><text fill="#000000" font-family="sans-serif" font-size="12" lengthAdjust="spacing" textLength="43" x="918.5" y="85.1722">(Model)</text><path d="M925,15 C925,5 943,5 943,5 C943,5 961,5 961,15 L961,41 C961,51 943,51 943,51 C943,51 925,51 925,41 L925,15 " fill="#F2F4F7" style="stroke:#003366;stroke-width:1.5;"/><path d="M925,15 C925,25 943,25 943,25 C943,25 961,25 961,15 " fill="none" style="stroke:#003366;stroke-width:1.5;"/><text fill="#000000" font-family="sans-serif" font-size="12" lengthAdjust="spacing" textLength="96" x="892" y="816.3663">Base de donn&#233;es</text><text fill="#000000" font-family="sans-serif" font-size="12" lengthAdjust="spacing" textLength="43" x="918.5" y="832.7104">(Model)</text><path d="M925,851.2264 C925,841.2264 943,841.2264 943,841.2264 C943,841.2264 961,841.2264 961,851.2264 L961,877.2264 C961,887.2264 943,887.2264 943,887.2264 C943,887.2264 925,887.2264 925,877.2264 L925,851.2264 " fill="#F2F4F7" style="stroke:#003366;stroke-width:1.5;"/><path d="M925,851.2264 C925,861.2264 943,861.2264 943,861.2264 C943,861.2264 961,861.2264 961,851.2264 " fill="none" style="stroke:#003366;stroke-width:1.5;"/><rect fill="#F2F4F7" height="557.8176" style="stroke:#003366;stroke-width:1.0;" width="10" x="488" y="176.3765"/><rect fill="#F2F4F7" height="477.1294" style="stroke:#003366;stroke-width:1.0;" width="10" x="691" y="216.7206"/><rect fill="#F2F4F7" height="40.3441" style="stroke:#003366;stroke-width:1.0;" width="10" x="938" y="257.0647"/><polygon fill="#003366" points="231,132.0323,241,136.0323,231,140.0323,235,136.0323" style="stroke:#003366;stroke-width:1.0;"/><line style="stroke:#003366;stroke-width:1.0;" x1="62" x2="237" y1="136.0323" y2="136.0323"/><text fill="#003366" font-family="sans-serif" font-size="12" lengthAdjust="spacing" textLength="95" x="74" y="125.5163">Saisit identifiants</text><polygon fill="#003366" points="476,172.3765,486,176.3765,476,180.3765,480,176.3765" style="stroke:#003366;stroke-width:1.0;"/><line style="stroke:#003366;stroke-width:1.0;" x1="243" x2="482" y1="176.3765" y2="176.3765"/><text fill="#003366" font-family="sans-serif" font-size="12" lengthAdjust="spacing" textLength="216" x="255" y="165.8604">POST /api/auth/login (email, password)</text><polygon fill="#003366" points="679,212.7206,689,216.7206,679,220.7206,683,216.7206" style="stroke:#003366;stroke-width:1.0;"/><line style="stroke:#003366;stroke-width:1.0;" x1="498" x2="685" y1="216.7206" y2="216.7206"/><text fill="#003366" font-family="sans-serif" font-size="12" lengthAdjust="spacing" textLength="164" x="510" y="206.2045">authentifier(email, password)</text><polygon fill="#003366" points="926,253.0647,936,257.0647,926,261.0647,930,257.0647" style="stroke:#003366;stroke-width:1.0;"/><line style="stroke:#003366;stroke-width:1.0;" x1="701" x2="932" y1="257.0647" y2="257.0647"/><text fill="#003366" font-family="sans-serif" font-size="12" lengthAdjust="spacing" textLength="179" x="713" y="246.5487">Rechercher utilisateur par email</text><polygon fill="#003366" points="712,293.4088,702,297.4088,712,301.4088,708,297.4088" style="stroke:#003366;stroke-width:1.0;"/><line style="stroke:#003366;stroke-width:1.0;stroke-dasharray:2.0,2.0;" x1="706" x2="942" y1="297.4088" y2="297.4088"/><text fill="#003366" font-family="sans-serif" font-size="12" lengthAdjust="spacing" textLength="203" x="723" y="286.8928">Informations utilisateur + Hash MDP</text><line style="stroke:#003366;stroke-width:1.0;" x1="701" x2="743" y1="337.7529" y2="337.7529"/><line style="stroke:#003366;stroke-width:1.0;" x1="743" x2="743" y1="337.7529" y2="350.7529"/><line style="stroke:#003366;stroke-width:1.0;" x1="702" x2="743" y1="350.7529" y2="350.7529"/><polygon fill="#003366" points="712,346.7529,702,350.7529,712,354.7529,708,350.7529" style="stroke:#003366;stroke-width:1.0;"/><text fill="#003366" font-family="sans-serif" font-size="12" lengthAdjust="spacing" textLength="178" x="713" y="327.2369">V&#233;rifier mot de passe (hachage)</text><path d="M17.5,365.7529 L86,365.7529 L86,384.097 L76,394.097 L15,394.097 L15,368.2529 A2.5,2.5 0 0 1 17.5,365.7529 " fill="#F2F4F7" style="stroke:#003366;stroke-width:1.0;"/><rect fill="none" height="416.7853" rx="2.5" ry="2.5" style="stroke:#003366;stroke-width:1.0;" width="823" x="15" y="365.7529"/><text fill="#000000" font-family="sans-serif" font-size="12" font-weight="bold" lengthAdjust="spacing" textLength="16" x="35" y="384.581">alt</text><text fill="#003366" font-family="sans-serif" font-size="12" font-weight="bold" lengthAdjust="spacing" textLength="48" x="106" y="385.581">[Succ&#232;s]</text><line style="stroke:#003366;stroke-width:1.0;" x1="701" x2="743" y1="437.7853" y2="437.7853"/><line style="stroke:#003366;stroke-width:1.0;" x1="743" x2="743" y1="437.7853" y2="450.7853"/><line style="stroke:#003366;stroke-width:1.0;" x1="702" x2="743" y1="450.7853" y2="450.7853"/><polygon fill="#003366" points="712,446.7853,702,450.7853,712,454.7853,708,450.7853" style="stroke:#003366;stroke-width:1.0;"/><text fill="#003366" font-family="sans-serif" font-size="12" lengthAdjust="spacing" textLength="108" x="713" y="427.2692">G&#233;n&#233;rer Token JWT</text><polygon fill="#003366" points="509,487.1294,499,491.1294,509,495.1294,505,491.1294" style="stroke:#003366;stroke-width:1.0;"/><line style="stroke:#003366;stroke-width:1.0;stroke-dasharray:2.0,2.0;" x1="503" x2="690" y1="491.1294" y2="491.1294"/><text fill="#003366" font-family="sans-serif" font-size="12" lengthAdjust="spacing" textLength="99" x="520" y="480.6133">Token JWT + Infos</text><polygon fill="#003366" points="254,527.4735,244,531.4735,254,535.4735,250,531.4735" style="stroke:#003366;stroke-width:1.0;"/><line style="stroke:#003366;stroke-width:1.0;stroke-dasharray:2.0,2.0;" x1="248" x2="487" y1="531.4735" y2="531.4735"/><text fill="#003366" font-family="sans-serif" font-size="12" lengthAdjust="spacing" textLength="136" x="265" y="520.9575">200 OK (JWT, R&#244;le, Infos)</text><line style="stroke:#003366;stroke-width:1.0;" x1="243" x2="285" y1="571.8176" y2="571.8176"/><line style="stroke:#003366;stroke-width:1.0;" x1="285" x2="285" y1="571.8176" y2="584.8176"/><line style="stroke:#003366;stroke-width:1.0;" x1="244" x2="285" y1="584.8176" y2="584.8176"/><polygon fill="#003366" points="254,580.8176,244,584.8176,254,588.8176,250,584.8176" style="stroke:#003366;stroke-width:1.0;"/><text fill="#003366" font-family="sans-serif" font-size="12" lengthAdjust="spacing" textLength="79" x="255" y="561.3016">Stocker Token</text><polygon fill="#003366" points="73,621.1617,63,625.1617,73,629.1617,69,625.1617" style="stroke:#003366;stroke-width:1.0;"/><line style="stroke:#003366;stroke-width:1.0;stroke-dasharray:2.0,2.0;" x1="67" x2="242" y1="625.1617" y2="625.1617"/><text fill="#003366" font-family="sans-serif" font-size="12" lengthAdjust="spacing" textLength="138" x="84" y="614.6457">Afficher Tableau de bord</text><line style="stroke:#003366;stroke-width:1.0;stroke-dasharray:2.0,2.0;" x1="15" x2="838" y1="634.1617" y2="634.1617"/><text fill="#003366" font-family="sans-serif" font-size="12" font-weight="bold" lengthAdjust="spacing" textLength="42" x="25" y="651.9898">[&#201;chec]</text><polygon fill="#003366" points="509,689.8499,499,693.8499,509,697.8499,505,693.8499" style="stroke:#003366;stroke-width:1.0;"/><line style="stroke:#003366;stroke-width:1.0;stroke-dasharray:2.0,2.0;" x1="503" x2="695" y1="693.8499" y2="693.8499"/><text fill="#003366" font-family="sans-serif" font-size="12" lengthAdjust="spacing" textLength="29" x="520" y="683.3339">Error</text><polygon fill="#003366" points="254,730.1941,244,734.1941,254,738.1941,250,734.1941" style="stroke:#003366;stroke-width:1.0;"/><line style="stroke:#003366;stroke-width:1.0;stroke-dasharray:2.0,2.0;" x1="248" x2="492" y1="734.1941" y2="734.1941"/><text fill="#003366" font-family="sans-serif" font-size="12" lengthAdjust="spacing" textLength="100" x="265" y="723.678">401 Unauthorized</text><polygon fill="#003366" points="73,770.5382,63,774.5382,73,778.5382,69,774.5382" style="stroke:#003366;stroke-width:1.0;"/><line style="stroke:#003366;stroke-width:1.0;stroke-dasharray:2.0,2.0;" x1="67" x2="242" y1="774.5382" y2="774.5382"/><text fill="#003366" font-family="sans-serif" font-size="12" lengthAdjust="spacing" textLength="147" x="84" y="764.0221">Afficher message d'erreur</text><!--SRC=[VLDDRzD04BtlhnXo8H4f2OXJ3qY4y55GrIfEoeNBP3skLx5tezbr4Vm3_abpvn_uZp7hRHCte5YsPNlVl7bltlfPAAacs1O41RiQNYg5EZY6mIgOodWCrF00qCFA4wkrQsoE_1C65pOG5wW95YGLt-tmfg5HX_p8pWQbvSQkWi7xz51HufcXtYYomGHXoKWt79youZkZgKF8nuTNbMF0DNg2mIpUSpcTjUsEl3IyT3bLgULyfbGK26TlKtiuXmoDDm5C7fiL1ctmAgq9AAeGpFLLjeG9Riq4cr1EAdThB0ofHbEDOOlU_t2SZ-98p9sC8ebNNR6G78GALIH8dOXFCFJCgLwziCrdmh8WNHB72vf304B4q74UYCIoL9mToxYmXUCQWt7MFw5u0P_Hbt0vlrOvzLcEP3nXksbtt3c2seKu_kY8O5YYBl6Mn5SL86kqRk-z0ZbES7rgTv8S2zVIRSZ2bs_BVqeEoUmn8ZnwIlHfyhsGNq-dSFKLXW8SmwBzKz4umKSTVf_tVbC4fpUF4leGmNGRw1pU5ONf0bZYkY9ieksrXAYe4kljRrdJ9uH_O7RShVV6t4lzlpRUJ5_1oiOjvDZyelouljjtfzNMvBr40lbpOfR0vH_BrLy0]--></g></svg>