<?xml version="1.0" encoding="us-ascii" standalone="no"?><svg xmlns="http://www.w3.org/2000/svg" xmlns:xlink="http://www.w3.org/1999/xlink" contentStyleType="text/css" height="675px" preserveAspectRatio="none" style="width:1105px;height:675px;background:#FFFFFF;" version="1.1" viewBox="0 0 1105 675" width="1105px" zoomAndPan="magnify"><defs/><g><rect fill="#F2F4F7" height="376.097" style="stroke:#003366;stroke-width:1.0;" width="10" x="578" y="176.3765"/><rect fill="#F2F4F7" height="255.0647" style="stroke:#003366;stroke-width:1.0;" width="10" x="771" y="216.7206"/><line style="stroke:#003366;stroke-width:1.0;stroke-dasharray:5.0,5.0;" x1="54" x2="54" y1="93.6882" y2="570.4735"/><line style="stroke:#003366;stroke-width:1.0;stroke-dasharray:5.0,5.0;" x1="257" x2="257" y1="93.6882" y2="570.4735"/><line style="stroke:#003366;stroke-width:1.0;stroke-dasharray:5.0,5.0;" x1="583" x2="583" y1="93.6882" y2="570.4735"/><line style="stroke:#003366;stroke-width:1.0;stroke-dasharray:5.0,5.0;" x1="776" x2="776" y1="93.6882" y2="570.4735"/><line style="stroke:#003366;stroke-width:1.0;stroke-dasharray:5.0,5.0;" x1="1053" x2="1053" y1="93.6882" y2="570.4735"/><text fill="#000000" font-family="sans-serif" font-size="12" lengthAdjust="spacing" textLength="72" x="15" y="85.1722">Membre Jury</text><ellipse cx="54" cy="15.3441" fill="#F2F4F7" rx="8" ry="8" style="stroke:#003366;stroke-width:1.0;"/><path d="M54,23.3441 L54,50.3441 M41,31.3441 L67,31.3441 M54,50.3441 L41,65.3441 M54,50.3441 L67,65.3441 " fill="none" style="stroke:#003366;stroke-width:1.0;"/><text fill="#000000" font-family="sans-serif" font-size="12" lengthAdjust="spacing" textLength="72" x="15" y="587.3016">Membre Jury</text><ellipse cx="54" cy="604.8176" fill="#F2F4F7" rx="8" ry="8" style="stroke:#003366;stroke-width:1.0;"/><path d="M54,612.8176 L54,639.8176 M41,620.8176 L67,620.8176 M54,639.8176 L41,654.8176 M54,639.8176 L67,654.8176 " fill="none" style="stroke:#003366;stroke-width:1.0;"/><text fill="#000000" font-family="sans-serif" font-size="12" lengthAdjust="spacing" textLength="112" x="198" y="68.8281">Interface &#201;valuation</text><text fill="#000000" font-family="sans-serif" font-size="12" lengthAdjust="spacing" textLength="29" x="239.5" y="85.1722">(Vue)</text><path d="M236.5,23 L236.5,47 M236.5,35 L253.5,35 " fill="none" style="stroke:#003366;stroke-width:1.0;"/><ellipse cx="265.5" cy="35" fill="#F2F4F7" rx="12" ry="12" style="stroke:#003366;stroke-width:1.0;"/><text fill="#000000" font-family="sans-serif" font-size="12" lengthAdjust="spacing" textLength="112" x="198" y="587.3016">Interface &#201;valuation</text><text fill="#000000" font-family="sans-serif" font-size="12" lengthAdjust="spacing" textLength="29" x="239.5" y="603.6457">(Vue)</text><path d="M236.5,616.1617 L236.5,640.1617 M236.5,628.1617 L253.5,628.1617 " fill="none" style="stroke:#003366;stroke-width:1.0;"/><ellipse cx="265.5" cy="628.1617" fill="#F2F4F7" rx="12" ry="12" style="stroke:#003366;stroke-width:1.0;"/><text fill="#000000" font-family="sans-serif" font-size="12" lengthAdjust="spacing" textLength="56" x="552" y="85.1722">Controller</text><ellipse cx="583" cy="51.3441" fill="#F2F4F7" rx="12" ry="12" style="stroke:#003366;stroke-width:1.0;"/><polygon fill="#003366" points="579,39.3441,585,34.3441,583,39.3441,585,44.3441,579,39.3441" style="stroke:#003366;stroke-width:1.0;"/><text fill="#000000" font-family="sans-serif" font-size="12" lengthAdjust="spacing" textLength="56" x="552" y="587.3016">Controller</text><ellipse cx="583" cy="611.8176" fill="#F2F4F7" rx="12" ry="12" style="stroke:#003366;stroke-width:1.0;"/><polygon fill="#003366" points="579,599.8176,585,594.8176,583,599.8176,585,604.8176,579,599.8176" style="stroke:#003366;stroke-width:1.0;"/><text fill="#000000" font-family="sans-serif" font-size="12" lengthAdjust="spacing" textLength="102" x="722" y="85.1722">Evaluation Service</text><ellipse cx="776" cy="51.3441" fill="#F2F4F7" rx="12" ry="12" style="stroke:#003366;stroke-width:1.0;"/><line style="stroke:#003366;stroke-width:1.0;" x1="764" x2="788" y1="65.3441" y2="65.3441"/><text fill="#000000" font-family="sans-serif" font-size="12" lengthAdjust="spacing" textLength="102" x="722" y="587.3016">Evaluation Service</text><ellipse cx="776" cy="611.8176" fill="#F2F4F7" rx="12" ry="12" style="stroke:#003366;stroke-width:1.0;"/><line style="stroke:#003366;stroke-width:1.0;" x1="764" x2="788" y1="625.8176" y2="625.8176"/><text fill="#000000" font-family="sans-serif" font-size="12" lengthAdjust="spacing" textLength="96" x="1002" y="68.8281">Base de donn&#233;es</text><text fill="#000000" font-family="sans-serif" font-size="12" lengthAdjust="spacing" textLength="43" x="1028.5" y="85.1722">(Model)</text><path d="M1035,15 C1035,5 1053,5 1053,5 C1053,5 1071,5 1071,15 L1071,41 C1071,51 1053,51 1053,51 C1053,51 1035,51 1035,41 L1035,15 " fill="#F2F4F7" style="stroke:#003366;stroke-width:1.5;"/><path d="M1035,15 C1035,25 1053,25 1053,25 C1053,25 1071,25 1071,15 " fill="none" style="stroke:#003366;stroke-width:1.5;"/><text fill="#000000" font-family="sans-serif" font-size="12" lengthAdjust="spacing" textLength="96" x="1002" y="587.3016">Base de donn&#233;es</text><text fill="#000000" font-family="sans-serif" font-size="12" lengthAdjust="spacing" textLength="43" x="1028.5" y="603.6457">(Model)</text><path d="M1035,622.1617 C1035,612.1617 1053,612.1617 1053,612.1617 C1053,612.1617 1071,612.1617 1071,622.1617 L1071,648.1617 C1071,658.1617 1053,658.1617 1053,658.1617 C1053,658.1617 1035,658.1617 1035,648.1617 L1035,622.1617 " fill="#F2F4F7" style="stroke:#003366;stroke-width:1.5;"/><path d="M1035,622.1617 C1035,632.1617 1053,632.1617 1053,632.1617 C1053,632.1617 1071,632.1617 1071,622.1617 " fill="none" style="stroke:#003366;stroke-width:1.5;"/><rect fill="#F2F4F7" height="376.097" style="stroke:#003366;stroke-width:1.0;" width="10" x="578" y="176.3765"/><rect fill="#F2F4F7" height="255.0647" style="stroke:#003366;stroke-width:1.0;" width="10" x="771" y="216.7206"/><polygon fill="#003366" points="245,132.0323,255,136.0323,245,140.0323,249,136.0323" style="stroke:#003366;stroke-width:1.0;"/><line style="stroke:#003366;stroke-width:1.0;" x1="54" x2="251" y1="136.0323" y2="136.0323"/><text fill="#003366" font-family="sans-serif" font-size="12" lengthAdjust="spacing" textLength="147" x="66" y="125.5163">Saisit note et observations</text><polygon fill="#003366" points="566,172.3765,576,176.3765,566,180.3765,570,176.3765" style="stroke:#003366;stroke-width:1.0;"/><line style="stroke:#003366;stroke-width:1.0;" x1="257" x2="572" y1="176.3765" y2="176.3765"/><text fill="#003366" font-family="sans-serif" font-size="12" lengthAdjust="spacing" textLength="292" x="269" y="165.8604">POST /api/evaluations (note, decision, idSoutenance)</text><polygon fill="#003366" points="759,212.7206,769,216.7206,759,220.7206,763,216.7206" style="stroke:#003366;stroke-width:1.0;"/><line style="stroke:#003366;stroke-width:1.0;" x1="588" x2="765" y1="216.7206" y2="216.7206"/><text fill="#003366" font-family="sans-serif" font-size="12" lengthAdjust="spacing" textLength="154" x="600" y="206.2045">enregistrerEvaluation(data)</text><line style="stroke:#003366;stroke-width:1.0;" x1="781" x2="823" y1="257.0647" y2="257.0647"/><line style="stroke:#003366;stroke-width:1.0;" x1="823" x2="823" y1="257.0647" y2="270.0647"/><line style="stroke:#003366;stroke-width:1.0;" x1="782" x2="823" y1="270.0647" y2="270.0647"/><polygon fill="#003366" points="792,266.0647,782,270.0647,792,274.0647,788,270.0647" style="stroke:#003366;stroke-width:1.0;"/><text fill="#003366" font-family="sans-serif" font-size="12" lengthAdjust="spacing" textLength="135" x="793" y="246.5487">Calculer moyenne (RG6)</text><polygon fill="#003366" points="1041,306.4088,1051,310.4088,1041,314.4088,1045,310.4088" style="stroke:#003366;stroke-width:1.0;"/><line style="stroke:#003366;stroke-width:1.0;" x1="781" x2="1047" y1="310.4088" y2="310.4088"/><text fill="#003366" font-family="sans-serif" font-size="12" lengthAdjust="spacing" textLength="133" x="793" y="299.8928">Sauvegarder &#233;valuation</text><polygon fill="#003366" points="792,346.7529,782,350.7529,792,354.7529,788,350.7529" style="stroke:#003366;stroke-width:1.0;"/><line style="stroke:#003366;stroke-width:1.0;stroke-dasharray:2.0,2.0;" x1="786" x2="1052" y1="350.7529" y2="350.7529"/><text fill="#003366" font-family="sans-serif" font-size="12" lengthAdjust="spacing" textLength="16" x="803" y="340.2369">OK</text><polygon fill="#003366" points="1041,387.097,1051,391.097,1041,395.097,1045,391.097" style="stroke:#003366;stroke-width:1.0;"/><line style="stroke:#003366;stroke-width:1.0;" x1="781" x2="1047" y1="391.097" y2="391.097"/><text fill="#003366" font-family="sans-serif" font-size="12" lengthAdjust="spacing" textLength="238" x="793" y="380.581">Mettre &#224; jour statut soutenance (EVALUEE)</text><polygon fill="#003366" points="792,427.4411,782,431.4411,792,435.4411,788,431.4411" style="stroke:#003366;stroke-width:1.0;"/><line style="stroke:#003366;stroke-width:1.0;stroke-dasharray:2.0,2.0;" x1="786" x2="1052" y1="431.4411" y2="431.4411"/><text fill="#003366" font-family="sans-serif" font-size="12" lengthAdjust="spacing" textLength="16" x="803" y="420.9251">OK</text><polygon fill="#003366" points="599,467.7853,589,471.7853,599,475.7853,595,471.7853" style="stroke:#003366;stroke-width:1.0;"/><line style="stroke:#003366;stroke-width:1.0;stroke-dasharray:2.0,2.0;" x1="593" x2="775" y1="471.7853" y2="471.7853"/><text fill="#003366" font-family="sans-serif" font-size="12" lengthAdjust="spacing" textLength="126" x="610" y="461.2692">&#201;valuation enregistr&#233;e</text><polygon fill="#003366" points="268,508.1294,258,512.1294,268,516.1294,264,512.1294" style="stroke:#003366;stroke-width:1.0;"/><line style="stroke:#003366;stroke-width:1.0;stroke-dasharray:2.0,2.0;" x1="262" x2="577" y1="512.1294" y2="512.1294"/><text fill="#003366" font-family="sans-serif" font-size="12" lengthAdjust="spacing" textLength="69" x="279" y="501.6133">201 Created</text><polygon fill="#003366" points="65,548.4735,55,552.4735,65,556.4735,61,552.4735" style="stroke:#003366;stroke-width:1.0;"/><line style="stroke:#003366;stroke-width:1.0;stroke-dasharray:2.0,2.0;" x1="59" x2="256" y1="552.4735" y2="552.4735"/><text fill="#003366" font-family="sans-serif" font-size="12" lengthAdjust="spacing" textLength="169" x="76" y="541.9575">Afficher r&#233;capitulatif et succ&#232;s</text><!--SRC=[XLBBJiCm4BpxAvQSKebIuC2X1wI-G3mg48MUkBZEfZLAxSfUL-edy1SSwNVanzYaBqCFI97bQ6TdTdPyGZES8onoXDpPEPm98HLP1yaGvnE7S1_SAW7fwukOs60owLQGt1b2bqk5K7ukPH4aQMlUJJeEsAZnDyuQ4eeFPmj8UfjBWQwk7du56jB4Z8Cz3OpGBRN26hczYqoId4YFa7IhC-FF6bEkqRFgq6POR7JxNI6gMQ5vlPa1sZ2Isci2Oma12Up4CsajvSK6m-33IDpn_3HwXPPSw1Rkn_AGLWodhAsOpvfJqDd81a8ZZS96jJdDj1Yx4n4jYspTi08QXrFjoQ4xE4yhbn7HphpOzVsYwCb2XOfuRbTe34BwSdlLYB7zRkq-B74gNSR8ShtN4bni_k9xUX17pKCa7X7AB_YmmO4dIO70xrr3EXXt7jy6WyO_V7yt73sRmouuJf7XiVruYL6kb-SNq7F8q6oN8rVhzDlGoNEjPjp1h8gJf52mMbuz01-KAhzzB1L5zWC0]--></g></svg>