<?xml version="1.0" encoding="us-ascii" standalone="no"?><svg xmlns="http://www.w3.org/2000/svg" xmlns:xlink="http://www.w3.org/1999/xlink" contentStyleType="text/css" height="526px" preserveAspectRatio="none" style="width:1067px;height:526px;background:#FFFFFF;" version="1.1" viewBox="0 0 1067 526" width="1067px" zoomAndPan="magnify"><defs/><g><rect fill="#F2F4F7" height="242.0647" style="stroke:#003366;stroke-width:1.0;" width="10" x="510" y="175.0323"/><rect fill="#F2F4F7" height="121.0323" style="stroke:#003366;stroke-width:1.0;" width="10" x="710" y="215.3765"/><rect fill="#F2F4F7" height="40.3441" style="stroke:#003366;stroke-width:1.0;" width="10" x="1010" y="255.7206"/><line style="stroke:#003366;stroke-width:1.0;stroke-dasharray:5.0,5.0;" x1="47" x2="47" y1="92.3441" y2="435.097"/><line style="stroke:#003366;stroke-width:1.0;stroke-dasharray:5.0,5.0;" x1="285" x2="285" y1="92.3441" y2="435.097"/><line style="stroke:#003366;stroke-width:1.0;stroke-dasharray:5.0,5.0;" x1="515" x2="515" y1="92.3441" y2="435.097"/><line style="stroke:#003366;stroke-width:1.0;stroke-dasharray:5.0,5.0;" x1="715" x2="715" y1="92.3441" y2="435.097"/><line style="stroke:#003366;stroke-width:1.0;stroke-dasharray:5.0,5.0;" x1="1015" x2="1015" y1="92.3441" y2="435.097"/><text fill="#000000" font-family="sans-serif" font-size="12" lengthAdjust="spacing" textLength="58" x="15" y="83.8281">Utilisateur</text><ellipse cx="47" cy="14" fill="#F2F4F7" rx="8" ry="8" style="stroke:#003366;stroke-width:1.0;"/><path d="M47,22 L47,49 M34,30 L60,30 M47,49 L34,64 M47,49 L60,64 " fill="none" style="stroke:#003366;stroke-width:1.0;"/><text fill="#000000" font-family="sans-serif" font-size="12" lengthAdjust="spacing" textLength="58" x="15" y="451.9251">Utilisateur</text><ellipse cx="47" cy="469.4411" fill="#F2F4F7" rx="8" ry="8" style="stroke:#003366;stroke-width:1.0;"/><path d="M47,477.4411 L47,504.4411 M34,485.4411 L60,485.4411 M47,504.4411 L34,519.4411 M47,504.4411 L60,519.4411 " fill="none" style="stroke:#003366;stroke-width:1.0;"/><text fill="#000000" font-family="sans-serif" font-size="12" lengthAdjust="spacing" textLength="102" x="231" y="83.8281">Interface Planning</text><path d="M264.5,38 L264.5,62 M264.5,50 L281.5,50 " fill="none" style="stroke:#003366;stroke-width:1.0;"/><ellipse cx="293.5" cy="50" fill="#F2F4F7" rx="12" ry="12" style="stroke:#003366;stroke-width:1.0;"/><text fill="#000000" font-family="sans-serif" font-size="12" lengthAdjust="spacing" textLength="102" x="231" y="451.9251">Interface Planning</text><path d="M264.5,464.4411 L264.5,488.4411 M264.5,476.4411 L281.5,476.4411 " fill="none" style="stroke:#003366;stroke-width:1.0;"/><ellipse cx="293.5" cy="476.4411" fill="#F2F4F7" rx="12" ry="12" style="stroke:#003366;stroke-width:1.0;"/><text fill="#000000" font-family="sans-serif" font-size="12" lengthAdjust="spacing" textLength="56" x="484" y="83.8281">Controller</text><ellipse cx="515" cy="50" fill="#F2F4F7" rx="12" ry="12" style="stroke:#003366;stroke-width:1.0;"/><polygon fill="#003366" points="511,38,517,33,515,38,517,43,511,38" style="stroke:#003366;stroke-width:1.0;"/><text fill="#000000" font-family="sans-serif" font-size="12" lengthAdjust="spacing" textLength="56" x="484" y="451.9251">Controller</text><ellipse cx="515" cy="476.4411" fill="#F2F4F7" rx="12" ry="12" style="stroke:#003366;stroke-width:1.0;"/><polygon fill="#003366" points="511,464.4411,517,459.4411,515,464.4411,517,469.4411,511,464.4411" style="stroke:#003366;stroke-width:1.0;"/><text fill="#000000" font-family="sans-serif" font-size="12" lengthAdjust="spacing" textLength="92" x="666" y="83.8281">Planning Service</text><ellipse cx="715" cy="50" fill="#F2F4F7" rx="12" ry="12" style="stroke:#003366;stroke-width:1.0;"/><line style="stroke:#003366;stroke-width:1.0;" x1="703" x2="727" y1="64" y2="64"/><text fill="#000000" font-family="sans-serif" font-size="12" lengthAdjust="spacing" textLength="92" x="666" y="451.9251">Planning Service</text><ellipse cx="715" cy="476.4411" fill="#F2F4F7" rx="12" ry="12" style="stroke:#003366;stroke-width:1.0;"/><line style="stroke:#003366;stroke-width:1.0;" x1="703" x2="727" y1="490.4411" y2="490.4411"/><text fill="#000000" font-family="sans-serif" font-size="12" lengthAdjust="spacing" textLength="96" x="964" y="83.8281">Base de donn&#233;es</text><path d="M997,30 C997,20 1015,20 1015,20 C1015,20 1033,20 1033,30 L1033,56 C1033,66 1015,66 1015,66 C1015,66 997,66 997,56 L997,30 " fill="#F2F4F7" style="stroke:#003366;stroke-width:1.5;"/><path d="M997,30 C997,40 1015,40 1015,40 C1015,40 1033,40 1033,30 " fill="none" style="stroke:#003366;stroke-width:1.5;"/><text fill="#000000" font-family="sans-serif" font-size="12" lengthAdjust="spacing" textLength="96" x="964" y="451.9251">Base de donn&#233;es</text><path d="M997,470.4411 C997,460.4411 1015,460.4411 1015,460.4411 C1015,460.4411 1033,460.4411 1033,470.4411 L1033,496.4411 C1033,506.4411 1015,506.4411 1015,506.4411 C1015,506.4411 997,506.4411 997,496.4411 L997,470.4411 " fill="#F2F4F7" style="stroke:#003366;stroke-width:1.5;"/><path d="M997,470.4411 C997,480.4411 1015,480.4411 1015,480.4411 C1015,480.4411 1033,480.4411 1033,470.4411 " fill="none" style="stroke:#003366;stroke-width:1.5;"/><rect fill="#F2F4F7" height="242.0647" style="stroke:#003366;stroke-width:1.0;" width="10" x="510" y="175.0323"/><rect fill="#F2F4F7" height="121.0323" style="stroke:#003366;stroke-width:1.0;" width="10" x="710" y="215.3765"/><rect fill="#F2F4F7" height="40.3441" style="stroke:#003366;stroke-width:1.0;" width="10" x="1010" y="255.7206"/><polygon fill="#003366" points="273,130.6882,283,134.6882,273,138.6882,277,134.6882" style="stroke:#003366;stroke-width:1.0;"/><line style="stroke:#003366;stroke-width:1.0;" x1="47" x2="279" y1="134.6882" y2="134.6882"/><text fill="#003366" font-family="sans-serif" font-size="12" lengthAdjust="spacing" textLength="204" x="59" y="124.1722">Saisit filtres (Date, Salle, Enseignant)</text><polygon fill="#003366" points="498,171.0323,508,175.0323,498,179.0323,502,175.0323" style="stroke:#003366;stroke-width:1.0;"/><line style="stroke:#003366;stroke-width:1.0;" x1="285" x2="504" y1="175.0323" y2="175.0323"/><text fill="#003366" font-family="sans-serif" font-size="12" lengthAdjust="spacing" textLength="196" x="297" y="164.5163">GET /api/planning?date=...&amp;salle=...</text><polygon fill="#003366" points="698,211.3765,708,215.3765,698,219.3765,702,215.3765" style="stroke:#003366;stroke-width:1.0;"/><line style="stroke:#003366;stroke-width:1.0;" x1="520" x2="704" y1="215.3765" y2="215.3765"/><text fill="#003366" font-family="sans-serif" font-size="12" lengthAdjust="spacing" textLength="161" x="532" y="204.8604">rechercherPlanning(criteres)</text><polygon fill="#003366" points="998,251.7206,1008,255.7206,998,259.7206,1002,255.7206" style="stroke:#003366;stroke-width:1.0;"/><line style="stroke:#003366;stroke-width:1.0;" x1="720" x2="1004" y1="255.7206" y2="255.7206"/><text fill="#003366" font-family="sans-serif" font-size="12" lengthAdjust="spacing" textLength="261" x="732" y="245.2045">Requ&#234;te dynamique (Criteria API/Specification)</text><polygon fill="#003366" points="731,292.0647,721,296.0647,731,300.0647,727,296.0647" style="stroke:#003366;stroke-width:1.0;"/><line style="stroke:#003366;stroke-width:1.0;stroke-dasharray:2.0,2.0;" x1="725" x2="1014" y1="296.0647" y2="296.0647"/><text fill="#003366" font-family="sans-serif" font-size="12" lengthAdjust="spacing" textLength="165" x="742" y="285.5487">Liste des soutenances filtr&#233;es</text><polygon fill="#003366" points="531,332.4088,521,336.4088,531,340.4088,527,336.4088" style="stroke:#003366;stroke-width:1.0;"/><line style="stroke:#003366;stroke-width:1.0;stroke-dasharray:2.0,2.0;" x1="525" x2="714" y1="336.4088" y2="336.4088"/><text fill="#003366" font-family="sans-serif" font-size="12" lengthAdjust="spacing" textLength="51" x="542" y="325.8928">R&#233;sultats</text><polygon fill="#003366" points="296,372.7529,286,376.7529,296,380.7529,292,376.7529" style="stroke:#003366;stroke-width:1.0;"/><line style="stroke:#003366;stroke-width:1.0;stroke-dasharray:2.0,2.0;" x1="290" x2="509" y1="376.7529" y2="376.7529"/><text fill="#003366" font-family="sans-serif" font-size="12" lengthAdjust="spacing" textLength="101" x="307" y="366.2369">200 OK (List JSON)</text><polygon fill="#003366" points="58,413.097,48,417.097,58,421.097,54,417.097" style="stroke:#003366;stroke-width:1.0;"/><line style="stroke:#003366;stroke-width:1.0;stroke-dasharray:2.0,2.0;" x1="52" x2="284" y1="417.097" y2="417.097"/><text fill="#003366" font-family="sans-serif" font-size="12" lengthAdjust="spacing" textLength="134" x="69" y="406.581">Mettre &#224; jour l'affichage</text><!--SRC=[NL5RJWCn3FpFASn-G2j1Y_X40aHfGRnHImzWijxMQ9kqYHU9s_0Br-Z5SBQl1MatSYBFU6Qy9rEQ4SmBWYBu6NICGIi-G3OMBZcYK1Kom0ZZIC6y-Shb63uXktL2eK1By5AYS-mcTTTry4wCrIFu4hAhLL7IYcDtDUI4HNasQ1XH-61BTT-wDZaAlc4ao7hfpFNppYs_ATPj_PunIHOSdQy6mocCa2CB55nAe0YjlZeur5STUWW35uad3fsqpGgWo9qeXTyCNg6BS-xErxekL0ETTJgT_PWuKfKIuWzzRlen3HebNJjGna1sIY7z6wij6rZ3ezZUCMqScmrGEVezXGzfKIr_j2F_T3ZZHKNGkghnZ73vSjiTpSbomHQ5lMimQZXASFH7omF7nAIvH5y9QH1Mwpgh5Ah9gGdVQVcVqd3v7QjIKFv0jXwQKJHMSt9y3C_tq4egu6xq_BHTWZRLUpo5HnBT6oo_uDrN0Se3BDJR52VKdDJ8_HS0]--></g></svg>