<?xml version="1.0" encoding="us-ascii" standalone="no"?><svg xmlns="http://www.w3.org/2000/svg" xmlns:xlink="http://www.w3.org/1999/xlink" contentStyleType="text/css" height="541px" preserveAspectRatio="none" style="width:1067px;height:541px;background:#FFFFFF;" version="1.1" viewBox="0 0 1067 541" width="1067px" zoomAndPan="magnify"><defs/><g><rect fill="#F2F4F7" height="242.0647" style="stroke:#003366;stroke-width:1.0;" width="10" x="510" y="176.3765"/><rect fill="#F2F4F7" height="121.0323" style="stroke:#003366;stroke-width:1.0;" width="10" x="710" y="216.7206"/><rect fill="#F2F4F7" height="40.3441" style="stroke:#003366;stroke-width:1.0;" width="10" x="1010" y="257.0647"/><line style="stroke:#003366;stroke-width:1.0;stroke-dasharray:5.0,5.0;" x1="47" x2="47" y1="93.6882" y2="436.4411"/><line style="stroke:#003366;stroke-width:1.0;stroke-dasharray:5.0,5.0;" x1="285" x2="285" y1="93.6882" y2="436.4411"/><line style="stroke:#003366;stroke-width:1.0;stroke-dasharray:5.0,5.0;" x1="515" x2="515" y1="93.6882" y2="436.4411"/><line style="stroke:#003366;stroke-width:1.0;stroke-dasharray:5.0,5.0;" x1="715" x2="715" y1="93.6882" y2="436.4411"/><line style="stroke:#003366;stroke-width:1.0;stroke-dasharray:5.0,5.0;" x1="1015" x2="1015" y1="93.6882" y2="436.4411"/><text fill="#000000" font-family="sans-serif" font-size="12" lengthAdjust="spacing" textLength="58" x="15" y="85.1722">Utilisateur</text><ellipse cx="47" cy="15.3441" fill="#F2F4F7" rx="8" ry="8" style="stroke:#003366;stroke-width:1.0;"/><path d="M47,23.3441 L47,50.3441 M34,31.3441 L60,31.3441 M47,50.3441 L34,65.3441 M47,50.3441 L60,65.3441 " fill="none" style="stroke:#003366;stroke-width:1.0;"/><text fill="#000000" font-family="sans-serif" font-size="12" lengthAdjust="spacing" textLength="58" x="15" y="453.2692">Utilisateur</text><ellipse cx="47" cy="470.7853" fill="#F2F4F7" rx="8" ry="8" style="stroke:#003366;stroke-width:1.0;"/><path d="M47,478.7853 L47,505.7853 M34,486.7853 L60,486.7853 M47,505.7853 L34,520.7853 M47,505.7853 L60,520.7853 " fill="none" style="stroke:#003366;stroke-width:1.0;"/><text fill="#000000" font-family="sans-serif" font-size="12" lengthAdjust="spacing" textLength="102" x="231" y="68.8281">Interface Planning</text><text fill="#000000" font-family="sans-serif" font-size="12" lengthAdjust="spacing" textLength="29" x="267.5" y="85.1722">(Vue)</text><path d="M264.5,23 L264.5,47 M264.5,35 L281.5,35 " fill="none" style="stroke:#003366;stroke-width:1.0;"/><ellipse cx="293.5" cy="35" fill="#F2F4F7" rx="12" ry="12" style="stroke:#003366;stroke-width:1.0;"/><text fill="#000000" font-family="sans-serif" font-size="12" lengthAdjust="spacing" textLength="102" x="231" y="453.2692">Interface Planning</text><text fill="#000000" font-family="sans-serif" font-size="12" lengthAdjust="spacing" textLength="29" x="267.5" y="469.6133">(Vue)</text><path d="M264.5,482.1294 L264.5,506.1294 M264.5,494.1294 L281.5,494.1294 " fill="none" style="stroke:#003366;stroke-width:1.0;"/><ellipse cx="293.5" cy="494.1294" fill="#F2F4F7" rx="12" ry="12" style="stroke:#003366;stroke-width:1.0;"/><text fill="#000000" font-family="sans-serif" font-size="12" lengthAdjust="spacing" textLength="56" x="484" y="85.1722">Controller</text><ellipse cx="515" cy="51.3441" fill="#F2F4F7" rx="12" ry="12" style="stroke:#003366;stroke-width:1.0;"/><polygon fill="#003366" points="511,39.3441,517,34.3441,515,39.3441,517,44.3441,511,39.3441" style="stroke:#003366;stroke-width:1.0;"/><text fill="#000000" font-family="sans-serif" font-size="12" lengthAdjust="spacing" textLength="56" x="484" y="453.2692">Controller</text><ellipse cx="515" cy="477.7853" fill="#F2F4F7" rx="12" ry="12" style="stroke:#003366;stroke-width:1.0;"/><polygon fill="#003366" points="511,465.7853,517,460.7853,515,465.7853,517,470.7853,511,465.7853" style="stroke:#003366;stroke-width:1.0;"/><text fill="#000000" font-family="sans-serif" font-size="12" lengthAdjust="spacing" textLength="92" x="666" y="85.1722">Planning Service</text><ellipse cx="715" cy="51.3441" fill="#F2F4F7" rx="12" ry="12" style="stroke:#003366;stroke-width:1.0;"/><line style="stroke:#003366;stroke-width:1.0;" x1="703" x2="727" y1="65.3441" y2="65.3441"/><text fill="#000000" font-family="sans-serif" font-size="12" lengthAdjust="spacing" textLength="92" x="666" y="453.2692">Planning Service</text><ellipse cx="715" cy="477.7853" fill="#F2F4F7" rx="12" ry="12" style="stroke:#003366;stroke-width:1.0;"/><line style="stroke:#003366;stroke-width:1.0;" x1="703" x2="727" y1="491.7853" y2="491.7853"/><text fill="#000000" font-family="sans-serif" font-size="12" lengthAdjust="spacing" textLength="96" x="964" y="68.8281">Base de donn&#233;es</text><text fill="#000000" font-family="sans-serif" font-size="12" lengthAdjust="spacing" textLength="43" x="990.5" y="85.1722">(Model)</text><path d="M997,15 C997,5 1015,5 1015,5 C1015,5 1033,5 1033,15 L1033,41 C1033,51 1015,51 1015,51 C1015,51 997,51 997,41 L997,15 " fill="#F2F4F7" style="stroke:#003366;stroke-width:1.5;"/><path d="M997,15 C997,25 1015,25 1015,25 C1015,25 1033,25 1033,15 " fill="none" style="stroke:#003366;stroke-width:1.5;"/><text fill="#000000" font-family="sans-serif" font-size="12" lengthAdjust="spacing" textLength="96" x="964" y="453.2692">Base de donn&#233;es</text><text fill="#000000" font-family="sans-serif" font-size="12" lengthAdjust="spacing" textLength="43" x="990.5" y="469.6133">(Model)</text><path d="M997,488.1294 C997,478.1294 1015,478.1294 1015,478.1294 C1015,478.1294 1033,478.1294 1033,488.1294 L1033,514.1294 C1033,524.1294 1015,524.1294 1015,524.1294 C1015,524.1294 997,524.1294 997,514.1294 L997,488.1294 " fill="#F2F4F7" style="stroke:#003366;stroke-width:1.5;"/><path d="M997,488.1294 C997,498.1294 1015,498.1294 1015,498.1294 C1015,498.1294 1033,498.1294 1033,488.1294 " fill="none" style="stroke:#003366;stroke-width:1.5;"/><rect fill="#F2F4F7" height="242.0647" style="stroke:#003366;stroke-width:1.0;" width="10" x="510" y="176.3765"/><rect fill="#F2F4F7" height="121.0323" style="stroke:#003366;stroke-width:1.0;" width="10" x="710" y="216.7206"/><rect fill="#F2F4F7" height="40.3441" style="stroke:#003366;stroke-width:1.0;" width="10" x="1010" y="257.0647"/><polygon fill="#003366" points="273,132.0323,283,136.0323,273,140.0323,277,136.0323" style="stroke:#003366;stroke-width:1.0;"/><line style="stroke:#003366;stroke-width:1.0;" x1="47" x2="279" y1="136.0323" y2="136.0323"/><text fill="#003366" font-family="sans-serif" font-size="12" lengthAdjust="spacing" textLength="204" x="59" y="125.5163">Saisit filtres (Date, Salle, Enseignant)</text><polygon fill="#003366" points="498,172.3765,508,176.3765,498,180.3765,502,176.3765" style="stroke:#003366;stroke-width:1.0;"/><line style="stroke:#003366;stroke-width:1.0;" x1="285" x2="504" y1="176.3765" y2="176.3765"/><text fill="#003366" font-family="sans-serif" font-size="12" lengthAdjust="spacing" textLength="196" x="297" y="165.8604">GET /api/planning?date=...&amp;salle=...</text><polygon fill="#003366" points="698,212.7206,708,216.7206,698,220.7206,702,216.7206" style="stroke:#003366;stroke-width:1.0;"/><line style="stroke:#003366;stroke-width:1.0;" x1="520" x2="704" y1="216.7206" y2="216.7206"/><text fill="#003366" font-family="sans-serif" font-size="12" lengthAdjust="spacing" textLength="161" x="532" y="206.2045">rechercherPlanning(criteres)</text><polygon fill="#003366" points="998,253.0647,1008,257.0647,998,261.0647,1002,257.0647" style="stroke:#003366;stroke-width:1.0;"/><line style="stroke:#003366;stroke-width:1.0;" x1="720" x2="1004" y1="257.0647" y2="257.0647"/><text fill="#003366" font-family="sans-serif" font-size="12" lengthAdjust="spacing" textLength="261" x="732" y="246.5487">Requ&#234;te dynamique (Criteria API/Specification)</text><polygon fill="#003366" points="731,293.4088,721,297.4088,731,301.4088,727,297.4088" style="stroke:#003366;stroke-width:1.0;"/><line style="stroke:#003366;stroke-width:1.0;stroke-dasharray:2.0,2.0;" x1="725" x2="1014" y1="297.4088" y2="297.4088"/><text fill="#003366" font-family="sans-serif" font-size="12" lengthAdjust="spacing" textLength="165" x="742" y="286.8928">Liste des soutenances filtr&#233;es</text><polygon fill="#003366" points="531,333.7529,521,337.7529,531,341.7529,527,337.7529" style="stroke:#003366;stroke-width:1.0;"/><line style="stroke:#003366;stroke-width:1.0;stroke-dasharray:2.0,2.0;" x1="525" x2="714" y1="337.7529" y2="337.7529"/><text fill="#003366" font-family="sans-serif" font-size="12" lengthAdjust="spacing" textLength="51" x="542" y="327.2369">R&#233;sultats</text><polygon fill="#003366" points="296,374.097,286,378.097,296,382.097,292,378.097" style="stroke:#003366;stroke-width:1.0;"/><line style="stroke:#003366;stroke-width:1.0;stroke-dasharray:2.0,2.0;" x1="290" x2="509" y1="378.097" y2="378.097"/><text fill="#003366" font-family="sans-serif" font-size="12" lengthAdjust="spacing" textLength="101" x="307" y="367.581">200 OK (List JSON)</text><polygon fill="#003366" points="58,414.4411,48,418.4411,58,422.4411,54,418.4411" style="stroke:#003366;stroke-width:1.0;"/><line style="stroke:#003366;stroke-width:1.0;stroke-dasharray:2.0,2.0;" x1="52" x2="284" y1="418.4411" y2="418.4411"/><text fill="#003366" font-family="sans-serif" font-size="12" lengthAdjust="spacing" textLength="134" x="69" y="407.9251">Mettre &#224; jour l'affichage</text><!--SRC=[NL71Jjj04BtlLqnze8uK4jGZ4Y120D6M4YM44vTXFKu6ERjXTup4t_HAVoC_rbax8GR9NiskvhrvxyqtMTAAO5qIbC6lO60CMl41ihbmnH65wf01HfX72kR9rwx0y0RPZHCA9Lg2IONEiLiykloXfbxJV1My4sFr2Bw2xA8jAcgfzbT3JbYKRaS2CmglRAdfszQcGC4dZ0JPA9s5VjwvpJj5dNdh2whQgUEHCKac79ws2k0OPiYH1Kgk9524VAoE-lggq_jmwIBnmg6Jdca1YjohK_ZrvJqCSSt3zLRWcOgXay5WS10JHwfIOlogprrZfaEZf5ihoXZ8BYcaV-Svju4rJ8gzFTFEkja1bMCyKlYKNkhDF-qetXok-AKco2yQF2ESJsw6ipLPBjcYi7STHWr72Gu_QVdDCJ5fBj7NGXg4rRh9AgLh2kh2zrg-fZJTlCUw4fHFa0yFtIWwg_bnT0Htlo1FAk3dxExFnnAqgTdZCToIwDvWynUUVHsW-ewbUblYWhgJEhd_1m00]--></g></svg>