<?xml version="1.0" encoding="us-ascii" standalone="no"?><svg xmlns="http://www.w3.org/2000/svg" xmlns:xlink="http://www.w3.org/1999/xlink" contentStyleType="text/css" height="621px" preserveAspectRatio="none" style="width:1042px;height:621px;background:#FFFFFF;" version="1.1" viewBox="0 0 1042 621" width="1042px" zoomAndPan="magnify"><defs/><g><rect fill="#F2F4F7" height="322.7529" style="stroke:#003366;stroke-width:1.0;" width="10" x="501" y="176.3765"/><rect fill="#F2F4F7" height="201.7206" style="stroke:#003366;stroke-width:1.0;" width="10" x="684" y="216.7206"/><rect fill="#F2F4F7" height="40.3441" style="stroke:#003366;stroke-width:1.0;" width="10" x="870" y="337.7529"/><rect fill="#F2F4F7" height="40.3441" style="stroke:#003366;stroke-width:1.0;" width="10" x="985.5" y="257.0647"/><line style="stroke:#003366;stroke-width:1.0;stroke-dasharray:5.0,5.0;" x1="55" x2="55" y1="93.6882" y2="517.1294"/><line style="stroke:#003366;stroke-width:1.0;stroke-dasharray:5.0,5.0;" x1="255" x2="255" y1="93.6882" y2="517.1294"/><line style="stroke:#003366;stroke-width:1.0;stroke-dasharray:5.0,5.0;" x1="506" x2="506" y1="93.6882" y2="517.1294"/><line style="stroke:#003366;stroke-width:1.0;stroke-dasharray:5.0,5.0;" x1="689" x2="689" y1="93.6882" y2="517.1294"/><line style="stroke:#003366;stroke-width:1.0;stroke-dasharray:5.0,5.0;" x1="874.5" x2="874.5" y1="93.6882" y2="517.1294"/><line style="stroke:#003366;stroke-width:1.0;stroke-dasharray:5.0,5.0;" x1="990.5" x2="990.5" y1="93.6882" y2="517.1294"/><text fill="#000000" font-family="sans-serif" font-size="12" lengthAdjust="spacing" textLength="74" x="15" y="85.1722">Coordinateur</text><ellipse cx="55" cy="15.3441" fill="#F2F4F7" rx="8" ry="8" style="stroke:#003366;stroke-width:1.0;"/><path d="M55,23.3441 L55,50.3441 M42,31.3441 L68,31.3441 M55,50.3441 L42,65.3441 M55,50.3441 L68,65.3441 " fill="none" style="stroke:#003366;stroke-width:1.0;"/><text fill="#000000" font-family="sans-serif" font-size="12" lengthAdjust="spacing" textLength="74" x="15" y="533.9575">Coordinateur</text><ellipse cx="55" cy="551.4735" fill="#F2F4F7" rx="8" ry="8" style="stroke:#003366;stroke-width:1.0;"/><path d="M55,559.4735 L55,586.4735 M42,567.4735 L68,567.4735 M55,586.4735 L42,601.4735 M55,586.4735 L68,601.4735 " fill="none" style="stroke:#003366;stroke-width:1.0;"/><text fill="#000000" font-family="sans-serif" font-size="12" lengthAdjust="spacing" textLength="118" x="193" y="68.8281">Interface Documents</text><text fill="#000000" font-family="sans-serif" font-size="12" lengthAdjust="spacing" textLength="29" x="237.5" y="85.1722">(Vue)</text><path d="M234.5,23 L234.5,47 M234.5,35 L251.5,35 " fill="none" style="stroke:#003366;stroke-width:1.0;"/><ellipse cx="263.5" cy="35" fill="#F2F4F7" rx="12" ry="12" style="stroke:#003366;stroke-width:1.0;"/><text fill="#000000" font-family="sans-serif" font-size="12" lengthAdjust="spacing" textLength="118" x="193" y="533.9575">Interface Documents</text><text fill="#000000" font-family="sans-serif" font-size="12" lengthAdjust="spacing" textLength="29" x="237.5" y="550.3016">(Vue)</text><path d="M234.5,562.8176 L234.5,586.8176 M234.5,574.8176 L251.5,574.8176 " fill="none" style="stroke:#003366;stroke-width:1.0;"/><ellipse cx="263.5" cy="574.8176" fill="#F2F4F7" rx="12" ry="12" style="stroke:#003366;stroke-width:1.0;"/><text fill="#000000" font-family="sans-serif" font-size="12" lengthAdjust="spacing" textLength="56" x="475" y="85.1722">Controller</text><ellipse cx="506" cy="51.3441" fill="#F2F4F7" rx="12" ry="12" style="stroke:#003366;stroke-width:1.0;"/><polygon fill="#003366" points="502,39.3441,508,34.3441,506,39.3441,508,44.3441,502,39.3441" style="stroke:#003366;stroke-width:1.0;"/><text fill="#000000" font-family="sans-serif" font-size="12" lengthAdjust="spacing" textLength="56" x="475" y="533.9575">Controller</text><ellipse cx="506" cy="558.4735" fill="#F2F4F7" rx="12" ry="12" style="stroke:#003366;stroke-width:1.0;"/><polygon fill="#003366" points="502,546.4735,508,541.4735,506,546.4735,508,551.4735,502,546.4735" style="stroke:#003366;stroke-width:1.0;"/><text fill="#000000" font-family="sans-serif" font-size="12" lengthAdjust="spacing" textLength="102" x="635" y="85.1722">Document Service</text><ellipse cx="689" cy="51.3441" fill="#F2F4F7" rx="12" ry="12" style="stroke:#003366;stroke-width:1.0;"/><line style="stroke:#003366;stroke-width:1.0;" x1="677" x2="701" y1="65.3441" y2="65.3441"/><text fill="#000000" font-family="sans-serif" font-size="12" lengthAdjust="spacing" textLength="102" x="635" y="533.9575">Document Service</text><ellipse cx="689" cy="558.4735" fill="#F2F4F7" rx="12" ry="12" style="stroke:#003366;stroke-width:1.0;"/><line style="stroke:#003366;stroke-width:1.0;" x1="677" x2="701" y1="572.4735" y2="572.4735"/><text fill="#000000" font-family="sans-serif" font-size="12" lengthAdjust="spacing" textLength="83" x="830.5" y="85.1722">PDF Generator</text><ellipse cx="875" cy="51.3441" fill="#F2F4F7" rx="12" ry="12" style="stroke:#003366;stroke-width:1.0;"/><line style="stroke:#003366;stroke-width:1.0;" x1="863" x2="887" y1="65.3441" y2="65.3441"/><text fill="#000000" font-family="sans-serif" font-size="12" lengthAdjust="spacing" textLength="83" x="830.5" y="533.9575">PDF Generator</text><ellipse cx="875" cy="558.4735" fill="#F2F4F7" rx="12" ry="12" style="stroke:#003366;stroke-width:1.0;"/><line style="stroke:#003366;stroke-width:1.0;" x1="863" x2="887" y1="572.4735" y2="572.4735"/><text fill="#000000" font-family="sans-serif" font-size="12" lengthAdjust="spacing" textLength="96" x="939.5" y="68.8281">Base de donn&#233;es</text><text fill="#000000" font-family="sans-serif" font-size="12" lengthAdjust="spacing" textLength="43" x="966" y="85.1722">(Model)</text><path d="M972.5,15 C972.5,5 990.5,5 990.5,5 C990.5,5 1008.5,5 1008.5,15 L1008.5,41 C1008.5,51 990.5,51 990.5,51 C990.5,51 972.5,51 972.5,41 L972.5,15 " fill="#F2F4F7" style="stroke:#003366;stroke-width:1.5;"/><path d="M972.5,15 C972.5,25 990.5,25 990.5,25 C990.5,25 1008.5,25 1008.5,15 " fill="none" style="stroke:#003366;stroke-width:1.5;"/><text fill="#000000" font-family="sans-serif" font-size="12" lengthAdjust="spacing" textLength="96" x="939.5" y="533.9575">Base de donn&#233;es</text><text fill="#000000" font-family="sans-serif" font-size="12" lengthAdjust="spacing" textLength="43" x="966" y="550.3016">(Model)</text><path d="M972.5,568.8176 C972.5,558.8176 990.5,558.8176 990.5,558.8176 C990.5,558.8176 1008.5,558.8176 1008.5,568.8176 L1008.5,594.8176 C1008.5,604.8176 990.5,604.8176 990.5,604.8176 C990.5,604.8176 972.5,604.8176 972.5,594.8176 L972.5,568.8176 " fill="#F2F4F7" style="stroke:#003366;stroke-width:1.5;"/><path d="M972.5,568.8176 C972.5,578.8176 990.5,578.8176 990.5,578.8176 C990.5,578.8176 1008.5,578.8176 1008.5,568.8176 " fill="none" style="stroke:#003366;stroke-width:1.5;"/><rect fill="#F2F4F7" height="322.7529" style="stroke:#003366;stroke-width:1.0;" width="10" x="501" y="176.3765"/><rect fill="#F2F4F7" height="201.7206" style="stroke:#003366;stroke-width:1.0;" width="10" x="684" y="216.7206"/><rect fill="#F2F4F7" height="40.3441" style="stroke:#003366;stroke-width:1.0;" width="10" x="870" y="337.7529"/><rect fill="#F2F4F7" height="40.3441" style="stroke:#003366;stroke-width:1.0;" width="10" x="985.5" y="257.0647"/><polygon fill="#003366" points="243,132.0323,253,136.0323,243,140.0323,247,136.0323" style="stroke:#003366;stroke-width:1.0;"/><line style="stroke:#003366;stroke-width:1.0;" x1="55" x2="249" y1="136.0323" y2="136.0323"/><text fill="#003366" font-family="sans-serif" font-size="12" lengthAdjust="spacing" textLength="139" x="67" y="125.5163">S&#233;lectionne soutenances</text><polygon fill="#003366" points="489,172.3765,499,176.3765,489,180.3765,493,176.3765" style="stroke:#003366;stroke-width:1.0;"/><line style="stroke:#003366;stroke-width:1.0;" x1="255" x2="495" y1="176.3765" y2="176.3765"/><text fill="#003366" font-family="sans-serif" font-size="12" lengthAdjust="spacing" textLength="217" x="267" y="165.8604">GET /api/documents/convocations (ids)</text><polygon fill="#003366" points="672,212.7206,682,216.7206,672,220.7206,676,216.7206" style="stroke:#003366;stroke-width:1.0;"/><line style="stroke:#003366;stroke-width:1.0;" x1="511" x2="678" y1="216.7206" y2="216.7206"/><text fill="#003366" font-family="sans-serif" font-size="12" lengthAdjust="spacing" textLength="144" x="523" y="206.2045">genererConvocations(ids)</text><polygon fill="#003366" points="973.5,253.0647,983.5,257.0647,973.5,261.0647,977.5,257.0647" style="stroke:#003366;stroke-width:1.0;"/><line style="stroke:#003366;stroke-width:1.0;" x1="694" x2="979.5" y1="257.0647" y2="257.0647"/><text fill="#003366" font-family="sans-serif" font-size="12" lengthAdjust="spacing" textLength="238" x="706" y="246.5487">R&#233;cup&#233;rer infos (&#201;tudiant, Jury, Salle, Date)</text><polygon fill="#003366" points="705,293.4088,695,297.4088,705,301.4088,701,297.4088" style="stroke:#003366;stroke-width:1.0;"/><line style="stroke:#003366;stroke-width:1.0;stroke-dasharray:2.0,2.0;" x1="699" x2="989.5" y1="297.4088" y2="297.4088"/><text fill="#003366" font-family="sans-serif" font-size="12" lengthAdjust="spacing" textLength="111" x="716" y="286.8928">Donn&#233;es compl&#232;tes</text><polygon fill="#003366" points="858,333.7529,868,337.7529,858,341.7529,862,337.7529" style="stroke:#003366;stroke-width:1.0;"/><line style="stroke:#003366;stroke-width:1.0;" x1="694" x2="864" y1="337.7529" y2="337.7529"/><text fill="#003366" font-family="sans-serif" font-size="12" lengthAdjust="spacing" textLength="147" x="706" y="327.2369">createPDF(template, data)</text><polygon fill="#003366" points="705,374.097,695,378.097,705,382.097,701,378.097" style="stroke:#003366;stroke-width:1.0;"/><line style="stroke:#003366;stroke-width:1.0;stroke-dasharray:2.0,2.0;" x1="699" x2="874" y1="378.097" y2="378.097"/><text fill="#003366" font-family="sans-serif" font-size="12" lengthAdjust="spacing" textLength="107" x="716" y="367.581">Flux binaire (byte[])</text><polygon fill="#003366" points="522,414.4411,512,418.4411,522,422.4411,518,418.4411" style="stroke:#003366;stroke-width:1.0;"/><line style="stroke:#003366;stroke-width:1.0;stroke-dasharray:2.0,2.0;" x1="516" x2="688" y1="418.4411" y2="418.4411"/><text fill="#003366" font-family="sans-serif" font-size="12" lengthAdjust="spacing" textLength="84" x="533" y="407.9251">Document pr&#234;t</text><polygon fill="#003366" points="266,454.7853,256,458.7853,266,462.7853,262,458.7853" style="stroke:#003366;stroke-width:1.0;"/><line style="stroke:#003366;stroke-width:1.0;stroke-dasharray:2.0,2.0;" x1="260" x2="500" y1="458.7853" y2="458.7853"/><text fill="#003366" font-family="sans-serif" font-size="12" lengthAdjust="spacing" textLength="135" x="277" y="448.2692">200 OK (Application/pdf)</text><polygon fill="#003366" points="66,495.1294,56,499.1294,66,503.1294,62,499.1294" style="stroke:#003366;stroke-width:1.0;"/><line style="stroke:#003366;stroke-width:1.0;stroke-dasharray:2.0,2.0;" x1="60" x2="254" y1="499.1294" y2="499.1294"/><text fill="#003366" font-family="sans-serif" font-size="12" lengthAdjust="spacing" textLength="166" x="77" y="488.6133">T&#233;l&#233;chargement automatique</text><!--SRC=[NL9BJiCm4Dtx54DNgLGeOja54cqe0eH05B415guz0Kk97PnnHO_0JIZNoCKOfqqnI94rITvdveqFw0qhXBf0ABohu4W8gSXv6CoSyzfOIHZy06G3tGUnTC5gwTSmkBI4lf0A8NSgL6YfURRPOy1X1vzxPqaeFhmhernNbDYBzQ-2YOPOhrU11VgLKTZXTlKUT9VFuG8jUibDTWZ-8hGakPGDmc0QJysFixRTOEpencaijptbKo6wCU3mTDiWJ63HRafKP9Y1qBX0QALLs8WjW96_pJByulm1nh8sOzrFFUOXLqx9AD50PdGpZ26Q5MUN3YeI7LRTZSQIht4WzBD4vfzA7uFeISpFfqozRpSgrEs6wM1iuTY__QIWZRGqWglWroDOIBOSGSv2YIHdmGg7Vnh9Twc1SbLTjb_4AMXCAMa3SHSJK1xv7zSP8PEu7a7SHs8LLnJ1VytcPVY09Tymun6ovPhmwMMOsaNQhz__FUolI-tRRqfv-x3Il9E5dnmVm-qrP6TrNPfjtkDQ5yD-uPrJl2GJUE2xmGc_IV-AdPaCv2gcl0TCBPCj_m00]--></g></svg>