<?xml version="1.0" encoding="us-ascii" standalone="no"?><svg xmlns="http://www.w3.org/2000/svg" xmlns:xlink="http://www.w3.org/1999/xlink" contentStyleType="text/css" height="581px" preserveAspectRatio="none" style="width:1042px;height:581px;background:#FFFFFF;" version="1.1" viewBox="0 0 1042 581" width="1042px" zoomAndPan="magnify"><defs/><g><rect fill="#F2F4F7" height="282.4088" style="stroke:#003366;stroke-width:1.0;" width="10" x="434" y="176.3765"/><rect fill="#F2F4F7" height="161.3765" style="stroke:#003366;stroke-width:1.0;" width="10" x="707" y="216.7206"/><line style="stroke:#003366;stroke-width:1.0;stroke-dasharray:5.0,5.0;" x1="49" x2="49" y1="93.6882" y2="476.7853"/><line style="stroke:#003366;stroke-width:1.0;stroke-dasharray:5.0,5.0;" x1="237.5" x2="237.5" y1="93.6882" y2="476.7853"/><line style="stroke:#003366;stroke-width:1.0;stroke-dasharray:5.0,5.0;" x1="439" x2="439" y1="93.6882" y2="476.7853"/><line style="stroke:#003366;stroke-width:1.0;stroke-dasharray:5.0,5.0;" x1="712" x2="712" y1="93.6882" y2="476.7853"/><line style="stroke:#003366;stroke-width:1.0;stroke-dasharray:5.0,5.0;" x1="990" x2="990" y1="93.6882" y2="476.7853"/><text fill="#000000" font-family="sans-serif" font-size="12" lengthAdjust="spacing" textLength="62" x="15" y="85.1722">Enseignant</text><ellipse cx="49" cy="15.3441" fill="#F2F4F7" rx="8" ry="8" style="stroke:#003366;stroke-width:1.0;"/><path d="M49,23.3441 L49,50.3441 M36,31.3441 L62,31.3441 M49,50.3441 L36,65.3441 M49,50.3441 L62,65.3441 " fill="none" style="stroke:#003366;stroke-width:1.0;"/><text fill="#000000" font-family="sans-serif" font-size="12" lengthAdjust="spacing" textLength="62" x="15" y="493.6133">Enseignant</text><ellipse cx="49" cy="511.1294" fill="#F2F4F7" rx="8" ry="8" style="stroke:#003366;stroke-width:1.0;"/><path d="M49,519.1294 L49,546.1294 M36,527.1294 L62,527.1294 M49,546.1294 L36,561.1294 M49,546.1294 L62,561.1294 " fill="none" style="stroke:#003366;stroke-width:1.0;"/><text fill="#000000" font-family="sans-serif" font-size="12" lengthAdjust="spacing" textLength="59" x="205.5" y="68.8281">Calendrier</text><text fill="#000000" font-family="sans-serif" font-size="12" lengthAdjust="spacing" textLength="29" x="220.5" y="85.1722">(Vue)</text><path d="M217.5,23 L217.5,47 M217.5,35 L234.5,35 " fill="none" style="stroke:#003366;stroke-width:1.0;"/><ellipse cx="246.5" cy="35" fill="#F2F4F7" rx="12" ry="12" style="stroke:#003366;stroke-width:1.0;"/><text fill="#000000" font-family="sans-serif" font-size="12" lengthAdjust="spacing" textLength="59" x="205.5" y="493.6133">Calendrier</text><text fill="#000000" font-family="sans-serif" font-size="12" lengthAdjust="spacing" textLength="29" x="220.5" y="509.9575">(Vue)</text><path d="M217.5,522.4735 L217.5,546.4735 M217.5,534.4735 L234.5,534.4735 " fill="none" style="stroke:#003366;stroke-width:1.0;"/><ellipse cx="246.5" cy="534.4735" fill="#F2F4F7" rx="12" ry="12" style="stroke:#003366;stroke-width:1.0;"/><text fill="#000000" font-family="sans-serif" font-size="12" lengthAdjust="spacing" textLength="56" x="408" y="85.1722">Controller</text><ellipse cx="439" cy="51.3441" fill="#F2F4F7" rx="12" ry="12" style="stroke:#003366;stroke-width:1.0;"/><polygon fill="#003366" points="435,39.3441,441,34.3441,439,39.3441,441,44.3441,435,39.3441" style="stroke:#003366;stroke-width:1.0;"/><text fill="#000000" font-family="sans-serif" font-size="12" lengthAdjust="spacing" textLength="56" x="408" y="493.6133">Controller</text><ellipse cx="439" cy="518.1294" fill="#F2F4F7" rx="12" ry="12" style="stroke:#003366;stroke-width:1.0;"/><polygon fill="#003366" points="435,506.1294,441,501.1294,439,506.1294,441,511.1294,435,506.1294" style="stroke:#003366;stroke-width:1.0;"/><text fill="#000000" font-family="sans-serif" font-size="12" lengthAdjust="spacing" textLength="104" x="657" y="85.1722">Availability Service</text><ellipse cx="712" cy="51.3441" fill="#F2F4F7" rx="12" ry="12" style="stroke:#003366;stroke-width:1.0;"/><line style="stroke:#003366;stroke-width:1.0;" x1="700" x2="724" y1="65.3441" y2="65.3441"/><text fill="#000000" font-family="sans-serif" font-size="12" lengthAdjust="spacing" textLength="104" x="657" y="493.6133">Availability Service</text><ellipse cx="712" cy="518.1294" fill="#F2F4F7" rx="12" ry="12" style="stroke:#003366;stroke-width:1.0;"/><line style="stroke:#003366;stroke-width:1.0;" x1="700" x2="724" y1="532.1294" y2="532.1294"/><text fill="#000000" font-family="sans-serif" font-size="12" lengthAdjust="spacing" textLength="96" x="939" y="68.8281">Base de donn&#233;es</text><text fill="#000000" font-family="sans-serif" font-size="12" lengthAdjust="spacing" textLength="43" x="965.5" y="85.1722">(Model)</text><path d="M972,15 C972,5 990,5 990,5 C990,5 1008,5 1008,15 L1008,41 C1008,51 990,51 990,51 C990,51 972,51 972,41 L972,15 " fill="#F2F4F7" style="stroke:#003366;stroke-width:1.5;"/><path d="M972,15 C972,25 990,25 990,25 C990,25 1008,25 1008,15 " fill="none" style="stroke:#003366;stroke-width:1.5;"/><text fill="#000000" font-family="sans-serif" font-size="12" lengthAdjust="spacing" textLength="96" x="939" y="493.6133">Base de donn&#233;es</text><text fill="#000000" font-family="sans-serif" font-size="12" lengthAdjust="spacing" textLength="43" x="965.5" y="509.9575">(Model)</text><path d="M972,528.4735 C972,518.4735 990,518.4735 990,518.4735 C990,518.4735 1008,518.4735 1008,528.4735 L1008,554.4735 C1008,564.4735 990,564.4735 990,564.4735 C990,564.4735 972,564.4735 972,554.4735 L972,528.4735 " fill="#F2F4F7" style="stroke:#003366;stroke-width:1.5;"/><path d="M972,528.4735 C972,538.4735 990,538.4735 990,538.4735 C990,538.4735 1008,538.4735 1008,528.4735 " fill="none" style="stroke:#003366;stroke-width:1.5;"/><rect fill="#F2F4F7" height="282.4088" style="stroke:#003366;stroke-width:1.0;" width="10" x="434" y="176.3765"/><rect fill="#F2F4F7" height="161.3765" style="stroke:#003366;stroke-width:1.0;" width="10" x="707" y="216.7206"/><polygon fill="#003366" points="226,132.0323,236,136.0323,226,140.0323,230,136.0323" style="stroke:#003366;stroke-width:1.0;"/><line style="stroke:#003366;stroke-width:1.0;" x1="49" x2="232" y1="136.0323" y2="136.0323"/><text fill="#003366" font-family="sans-serif" font-size="12" lengthAdjust="spacing" textLength="155" x="61" y="125.5163">S&#233;lectionne plages horaires</text><polygon fill="#003366" points="422,172.3765,432,176.3765,422,180.3765,426,176.3765" style="stroke:#003366;stroke-width:1.0;"/><line style="stroke:#003366;stroke-width:1.0;" x1="238" x2="428" y1="176.3765" y2="176.3765"/><text fill="#003366" font-family="sans-serif" font-size="12" lengthAdjust="spacing" textLength="167" x="250" y="165.8604">POST /api/availability (ranges)</text><polygon fill="#003366" points="695,212.7206,705,216.7206,695,220.7206,699,216.7206" style="stroke:#003366;stroke-width:1.0;"/><line style="stroke:#003366;stroke-width:1.0;" x1="444" x2="701" y1="216.7206" y2="216.7206"/><text fill="#003366" font-family="sans-serif" font-size="12" lengthAdjust="spacing" textLength="234" x="456" y="206.2045">enregistrerIndisponibilites(profId, ranges)</text><polygon fill="#003366" points="978,253.0647,988,257.0647,978,261.0647,982,257.0647" style="stroke:#003366;stroke-width:1.0;"/><line style="stroke:#003366;stroke-width:1.0;" x1="717" x2="984" y1="257.0647" y2="257.0647"/><text fill="#003366" font-family="sans-serif" font-size="12" lengthAdjust="spacing" textLength="239" x="729" y="246.5487">Supprimer anciennes plages (si existantes)</text><polygon fill="#003366" points="978,293.4088,988,297.4088,978,301.4088,982,297.4088" style="stroke:#003366;stroke-width:1.0;"/><line style="stroke:#003366;stroke-width:1.0;" x1="717" x2="984" y1="297.4088" y2="297.4088"/><text fill="#003366" font-family="sans-serif" font-size="12" lengthAdjust="spacing" textLength="183" x="729" y="286.8928">Ins&#233;rer nouvelles indisponibilit&#233;s</text><polygon fill="#003366" points="728,333.7529,718,337.7529,728,341.7529,724,337.7529" style="stroke:#003366;stroke-width:1.0;"/><line style="stroke:#003366;stroke-width:1.0;stroke-dasharray:2.0,2.0;" x1="722" x2="989" y1="337.7529" y2="337.7529"/><text fill="#003366" font-family="sans-serif" font-size="12" lengthAdjust="spacing" textLength="16" x="739" y="327.2369">OK</text><polygon fill="#003366" points="455,374.097,445,378.097,455,382.097,451,378.097" style="stroke:#003366;stroke-width:1.0;"/><line style="stroke:#003366;stroke-width:1.0;stroke-dasharray:2.0,2.0;" x1="449" x2="711" y1="378.097" y2="378.097"/><text fill="#003366" font-family="sans-serif" font-size="12" lengthAdjust="spacing" textLength="55" x="466" y="367.581">Mis &#224; jour</text><polygon fill="#003366" points="249,414.4411,239,418.4411,249,422.4411,245,418.4411" style="stroke:#003366;stroke-width:1.0;"/><line style="stroke:#003366;stroke-width:1.0;stroke-dasharray:2.0,2.0;" x1="243" x2="433" y1="418.4411" y2="418.4411"/><text fill="#003366" font-family="sans-serif" font-size="12" lengthAdjust="spacing" textLength="40" x="260" y="407.9251">200 OK</text><polygon fill="#003366" points="60,454.7853,50,458.7853,60,462.7853,56,458.7853" style="stroke:#003366;stroke-width:1.0;"/><line style="stroke:#003366;stroke-width:1.0;stroke-dasharray:2.0,2.0;" x1="54" x2="237" y1="458.7853" y2="458.7853"/><text fill="#003366" font-family="sans-serif" font-size="12" lengthAdjust="spacing" textLength="118" x="71" y="448.2692">Afficher confirmation</text><!--SRC=[PPB1QW9138RlynIf9uLQfKSFXLfRa28AbfvwYRjPJLapIsPMshVfrUVO5sjsLLmLXc66-VFdIp9tSKDRWY8ZoDHluS4vJA9NwBnA85uBIkm01bYepzpAbvAY_aBd1NEIL9dqIxgV9VKQqPjwYIwnJNrkeiCX9srUprT74ZcQpVCEESSLv_LjIRhZX1hjyUnIZBZ2GD0PrtjgoujKUmgMT-PJoW-P9sFdQaJeFnqeO0JBQfzJ4ja2hC8SrnHWunLPARY3oDHdAWjPp9SVCC221zWcwogAHVVgtl0E8xLhSIq7ypkIcnc9qff3LDAff1mABzmOKkWMnZfDx-76-5IuE_cOvMHSLrCMXVBMag0aJ5PJE1NL3GpqOvbiMBNPTUXKGhKt2X1VxiX00_05KBKFpfJz2_pvUmlYkb4p3b3zmRSlrQLqIz_kIMiaZyDXxNjilZqqCnl1SvPniZ6n_PsCTOlrrDh6hNx_0m00]--></g></svg>