<?xml version="1.0" encoding="us-ascii" standalone="no"?><svg xmlns="http://www.w3.org/2000/svg" xmlns:xlink="http://www.w3.org/1999/xlink" contentStyleType="text/css" height="768px" preserveAspectRatio="none" style="width:1124px;height:768px;background:#FFFFFF;" version="1.1" viewBox="0 0 1124 768" width="1124px" zoomAndPan="magnify"><defs/><g><rect fill="#F2F4F7" height="469.7853" style="stroke:#003366;stroke-width:1.0;" width="10" x="554" y="176.3765"/><rect fill="#F2F4F7" height="348.7529" style="stroke:#003366;stroke-width:1.0;" width="10" x="742" y="216.7206"/><rect fill="#F2F4F7" height="93.6882" style="stroke:#003366;stroke-width:1.0;" width="10" x="956" y="431.4411"/><line style="stroke:#003366;stroke-width:1.0;stroke-dasharray:5.0,5.0;" x1="47" x2="47" y1="93.6882" y2="664.1617"/><line style="stroke:#003366;stroke-width:1.0;stroke-dasharray:5.0,5.0;" x1="261.5" x2="261.5" y1="93.6882" y2="664.1617"/><line style="stroke:#003366;stroke-width:1.0;stroke-dasharray:5.0,5.0;" x1="559" x2="559" y1="93.6882" y2="664.1617"/><line style="stroke:#003366;stroke-width:1.0;stroke-dasharray:5.0,5.0;" x1="747" x2="747" y1="93.6882" y2="664.1617"/><line style="stroke:#003366;stroke-width:1.0;stroke-dasharray:5.0,5.0;" x1="960.5" x2="960.5" y1="93.6882" y2="664.1617"/><line style="stroke:#003366;stroke-width:1.0;stroke-dasharray:5.0,5.0;" x1="1072.5" x2="1072.5" y1="93.6882" y2="664.1617"/><text fill="#000000" font-family="sans-serif" font-size="12" lengthAdjust="spacing" textLength="58" x="15" y="85.1722">Utilisateur</text><ellipse cx="47" cy="15.3441" fill="#F2F4F7" rx="8" ry="8" style="stroke:#003366;stroke-width:1.0;"/><path d="M47,23.3441 L47,50.3441 M34,31.3441 L60,31.3441 M47,50.3441 L34,65.3441 M47,50.3441 L60,65.3441 " fill="none" style="stroke:#003366;stroke-width:1.0;"/><text fill="#000000" font-family="sans-serif" font-size="12" lengthAdjust="spacing" textLength="58" x="15" y="680.9898">Utilisateur</text><ellipse cx="47" cy="698.5058" fill="#F2F4F7" rx="8" ry="8" style="stroke:#003366;stroke-width:1.0;"/><path d="M47,706.5058 L47,733.5058 M34,714.5058 L60,714.5058 M47,733.5058 L34,748.5058 M47,733.5058 L60,748.5058 " fill="none" style="stroke:#003366;stroke-width:1.0;"/><text fill="#000000" font-family="sans-serif" font-size="12" lengthAdjust="spacing" textLength="61" x="228.5" y="68.8281">Page Login</text><text fill="#000000" font-family="sans-serif" font-size="12" lengthAdjust="spacing" textLength="29" x="244.5" y="85.1722">(Vue)</text><path d="M241.5,23 L241.5,47 M241.5,35 L258.5,35 " fill="none" style="stroke:#003366;stroke-width:1.0;"/><ellipse cx="270.5" cy="35" fill="#F2F4F7" rx="12" ry="12" style="stroke:#003366;stroke-width:1.0;"/><text fill="#000000" font-family="sans-serif" font-size="12" lengthAdjust="spacing" textLength="61" x="228.5" y="680.9898">Page Login</text><text fill="#000000" font-family="sans-serif" font-size="12" lengthAdjust="spacing" textLength="29" x="244.5" y="697.3339">(Vue)</text><path d="M241.5,709.8499 L241.5,733.8499 M241.5,721.8499 L258.5,721.8499 " fill="none" style="stroke:#003366;stroke-width:1.0;"/><ellipse cx="270.5" cy="721.8499" fill="#F2F4F7" rx="12" ry="12" style="stroke:#003366;stroke-width:1.0;"/><text fill="#000000" font-family="sans-serif" font-size="12" lengthAdjust="spacing" textLength="56" x="528" y="85.1722">Controller</text><ellipse cx="559" cy="51.3441" fill="#F2F4F7" rx="12" ry="12" style="stroke:#003366;stroke-width:1.0;"/><polygon fill="#003366" points="555,39.3441,561,34.3441,559,39.3441,561,44.3441,555,39.3441" style="stroke:#003366;stroke-width:1.0;"/><text fill="#000000" font-family="sans-serif" font-size="12" lengthAdjust="spacing" textLength="56" x="528" y="680.9898">Controller</text><ellipse cx="559" cy="705.5058" fill="#F2F4F7" rx="12" ry="12" style="stroke:#003366;stroke-width:1.0;"/><polygon fill="#003366" points="555,693.5058,561,688.5058,559,693.5058,561,698.5058,555,693.5058" style="stroke:#003366;stroke-width:1.0;"/><text fill="#000000" font-family="sans-serif" font-size="12" lengthAdjust="spacing" textLength="70" x="709" y="85.1722">Auth Service</text><ellipse cx="747" cy="51.3441" fill="#F2F4F7" rx="12" ry="12" style="stroke:#003366;stroke-width:1.0;"/><line style="stroke:#003366;stroke-width:1.0;" x1="735" x2="759" y1="65.3441" y2="65.3441"/><text fill="#000000" font-family="sans-serif" font-size="12" lengthAdjust="spacing" textLength="70" x="709" y="680.9898">Auth Service</text><ellipse cx="747" cy="705.5058" fill="#F2F4F7" rx="12" ry="12" style="stroke:#003366;stroke-width:1.0;"/><line style="stroke:#003366;stroke-width:1.0;" x1="735" x2="759" y1="719.5058" y2="719.5058"/><text fill="#000000" font-family="sans-serif" font-size="12" lengthAdjust="spacing" textLength="75" x="920.5" y="85.1722">Email Service</text><ellipse cx="961" cy="51.3441" fill="#F2F4F7" rx="12" ry="12" style="stroke:#003366;stroke-width:1.0;"/><line style="stroke:#003366;stroke-width:1.0;" x1="949" x2="973" y1="65.3441" y2="65.3441"/><text fill="#000000" font-family="sans-serif" font-size="12" lengthAdjust="spacing" textLength="75" x="920.5" y="680.9898">Email Service</text><ellipse cx="961" cy="705.5058" fill="#F2F4F7" rx="12" ry="12" style="stroke:#003366;stroke-width:1.0;"/><line style="stroke:#003366;stroke-width:1.0;" x1="949" x2="973" y1="719.5058" y2="719.5058"/><text fill="#000000" font-family="sans-serif" font-size="12" lengthAdjust="spacing" textLength="96" x="1021.5" y="68.8281">Base de donn&#233;es</text><text fill="#000000" font-family="sans-serif" font-size="12" lengthAdjust="spacing" textLength="43" x="1048" y="85.1722">(Model)</text><path d="M1054.5,15 C1054.5,5 1072.5,5 1072.5,5 C1072.5,5 1090.5,5 1090.5,15 L1090.5,41 C1090.5,51 1072.5,51 1072.5,51 C1072.5,51 1054.5,51 1054.5,41 L1054.5,15 " fill="#F2F4F7" style="stroke:#003366;stroke-width:1.5;"/><path d="M1054.5,15 C1054.5,25 1072.5,25 1072.5,25 C1072.5,25 1090.5,25 1090.5,15 " fill="none" style="stroke:#003366;stroke-width:1.5;"/><text fill="#000000" font-family="sans-serif" font-size="12" lengthAdjust="spacing" textLength="96" x="1021.5" y="680.9898">Base de donn&#233;es</text><text fill="#000000" font-family="sans-serif" font-size="12" lengthAdjust="spacing" textLength="43" x="1048" y="697.3339">(Model)</text><path d="M1054.5,715.8499 C1054.5,705.8499 1072.5,705.8499 1072.5,705.8499 C1072.5,705.8499 1090.5,705.8499 1090.5,715.8499 L1090.5,741.8499 C1090.5,751.8499 1072.5,751.8499 1072.5,751.8499 C1072.5,751.8499 1054.5,751.8499 1054.5,741.8499 L1054.5,715.8499 " fill="#F2F4F7" style="stroke:#003366;stroke-width:1.5;"/><path d="M1054.5,715.8499 C1054.5,725.8499 1072.5,725.8499 1072.5,725.8499 C1072.5,725.8499 1090.5,725.8499 1090.5,715.8499 " fill="none" style="stroke:#003366;stroke-width:1.5;"/><rect fill="#F2F4F7" height="469.7853" style="stroke:#003366;stroke-width:1.0;" width="10" x="554" y="176.3765"/><rect fill="#F2F4F7" height="348.7529" style="stroke:#003366;stroke-width:1.0;" width="10" x="742" y="216.7206"/><rect fill="#F2F4F7" height="93.6882" style="stroke:#003366;stroke-width:1.0;" width="10" x="956" y="431.4411"/><polygon fill="#003366" points="250,132.0323,260,136.0323,250,140.0323,254,136.0323" style="stroke:#003366;stroke-width:1.0;"/><line style="stroke:#003366;stroke-width:1.0;" x1="47" x2="256" y1="136.0323" y2="136.0323"/><text fill="#003366" font-family="sans-serif" font-size="12" lengthAdjust="spacing" textLength="181" x="59" y="125.5163">Clique sur "Mot de passe oubli&#233;"</text><polygon fill="#003366" points="542,172.3765,552,176.3765,542,180.3765,546,176.3765" style="stroke:#003366;stroke-width:1.0;"/><line style="stroke:#003366;stroke-width:1.0;" x1="262" x2="548" y1="176.3765" y2="176.3765"/><text fill="#003366" font-family="sans-serif" font-size="12" lengthAdjust="spacing" textLength="263" x="274" y="165.8604">POST /api/auth/reset-password-request (email)</text><polygon fill="#003366" points="730,212.7206,740,216.7206,730,220.7206,734,216.7206" style="stroke:#003366;stroke-width:1.0;"/><line style="stroke:#003366;stroke-width:1.0;" x1="564" x2="736" y1="216.7206" y2="216.7206"/><text fill="#003366" font-family="sans-serif" font-size="12" lengthAdjust="spacing" textLength="149" x="576" y="206.2045">genererResetToken(email)</text><polygon fill="#003366" points="1060.5,253.0647,1070.5,257.0647,1060.5,261.0647,1064.5,257.0647" style="stroke:#003366;stroke-width:1.0;"/><line style="stroke:#003366;stroke-width:1.0;" x1="752" x2="1066.5" y1="257.0647" y2="257.0647"/><text fill="#003366" font-family="sans-serif" font-size="12" lengthAdjust="spacing" textLength="75" x="764" y="246.5487">V&#233;rifier email</text><polygon fill="#003366" points="763,293.4088,753,297.4088,763,301.4088,759,297.4088" style="stroke:#003366;stroke-width:1.0;"/><line style="stroke:#003366;stroke-width:1.0;stroke-dasharray:2.0,2.0;" x1="757" x2="1071.5" y1="297.4088" y2="297.4088"/><text fill="#003366" font-family="sans-serif" font-size="12" lengthAdjust="spacing" textLength="97" x="774" y="286.8928">Utilisateur trouv&#233;</text><line style="stroke:#003366;stroke-width:1.0;" x1="752" x2="794" y1="337.7529" y2="337.7529"/><line style="stroke:#003366;stroke-width:1.0;" x1="794" x2="794" y1="337.7529" y2="350.7529"/><line style="stroke:#003366;stroke-width:1.0;" x1="753" x2="794" y1="350.7529" y2="350.7529"/><polygon fill="#003366" points="763,346.7529,753,350.7529,763,354.7529,759,350.7529" style="stroke:#003366;stroke-width:1.0;"/><text fill="#003366" font-family="sans-serif" font-size="12" lengthAdjust="spacing" textLength="153" x="764" y="327.2369">Cr&#233;er Token UUID s&#233;curis&#233;</text><polygon fill="#003366" points="1060.5,387.097,1070.5,391.097,1060.5,395.097,1064.5,391.097" style="stroke:#003366;stroke-width:1.0;"/><line style="stroke:#003366;stroke-width:1.0;" x1="752" x2="1066.5" y1="391.097" y2="391.097"/><text fill="#003366" font-family="sans-serif" font-size="12" lengthAdjust="spacing" textLength="191" x="764" y="380.581">Enregistrer Token (Expiration 24h)</text><polygon fill="#003366" points="944,427.4411,954,431.4411,944,435.4411,948,431.4411" style="stroke:#003366;stroke-width:1.0;"/><line style="stroke:#003366;stroke-width:1.0;" x1="752" x2="950" y1="431.4411" y2="431.4411"/><text fill="#003366" font-family="sans-serif" font-size="12" lengthAdjust="spacing" textLength="175" x="764" y="420.9251">envoyerLienReset(email, token)</text><line style="stroke:#003366;stroke-width:1.0;" x1="966" x2="1008" y1="471.7853" y2="471.7853"/><line style="stroke:#003366;stroke-width:1.0;" x1="1008" x2="1008" y1="471.7853" y2="484.7853"/><line style="stroke:#003366;stroke-width:1.0;" x1="967" x2="1008" y1="484.7853" y2="484.7853"/><polygon fill="#003366" points="977,480.7853,967,484.7853,977,488.7853,973,484.7853" style="stroke:#003366;stroke-width:1.0;"/><text fill="#003366" font-family="sans-serif" font-size="12" lengthAdjust="spacing" textLength="65" x="978" y="461.2692">Envoi SMTP</text><polygon fill="#003366" points="763,521.1294,753,525.1294,763,529.1294,759,525.1294" style="stroke:#003366;stroke-width:1.0;"/><line style="stroke:#003366;stroke-width:1.0;stroke-dasharray:2.0,2.0;" x1="757" x2="960" y1="525.1294" y2="525.1294"/><text fill="#003366" font-family="sans-serif" font-size="12" lengthAdjust="spacing" textLength="67" x="774" y="514.6133">Mail envoy&#233;</text><polygon fill="#003366" points="575,561.4735,565,565.4735,575,569.4735,571,565.4735" style="stroke:#003366;stroke-width:1.0;"/><line style="stroke:#003366;stroke-width:1.0;stroke-dasharray:2.0,2.0;" x1="569" x2="746" y1="565.4735" y2="565.4735"/><text fill="#003366" font-family="sans-serif" font-size="12" lengthAdjust="spacing" textLength="95" x="586" y="554.9575">Demande trait&#233;e</text><polygon fill="#003366" points="273,601.8176,263,605.8176,273,609.8176,269,605.8176" style="stroke:#003366;stroke-width:1.0;"/><line style="stroke:#003366;stroke-width:1.0;stroke-dasharray:2.0,2.0;" x1="267" x2="553" y1="605.8176" y2="605.8176"/><text fill="#003366" font-family="sans-serif" font-size="12" lengthAdjust="spacing" textLength="40" x="284" y="595.3016">200 OK</text><polygon fill="#003366" points="58,642.1617,48,646.1617,58,650.1617,54,646.1617" style="stroke:#003366;stroke-width:1.0;"/><line style="stroke:#003366;stroke-width:1.0;stroke-dasharray:2.0,2.0;" x1="52" x2="261" y1="646.1617" y2="646.1617"/><text fill="#003366" font-family="sans-serif" font-size="12" lengthAdjust="spacing" textLength="131" x="69" y="635.6457">"Consultez vos e-mails"</text><!--SRC=[PPBDZjem4CVlVeffJY0rPRNgQG-LoiTALHSjAh2dNWmPOBJ1fcCxxVQDyXoyMCSEaAGhHOxZpF_d_tnyy0Sy8fns23ksH_YabDvwov2jFPNajCV06MW7QuUiDZQOGlCRP0kzHtYoUp8_pU0bu305FR8rNcrbOLj2Dcas9JQ8zbEXyUG5ypNu0ooHAzfYYhdiRm6pewQo5p6N0rLehpVQ8MJZk1RoM6FEDJgnCxS5besXwLYfw1poBuqvU819IRy2WWkIvTpwA3vf9nGRDYMTwqmraI9f7OjkyRnSmKYVQAJ5zOZHeS-ZyhVb8cSKgFCmmEXu6Cj8bPIlcxNgy8H-oKhGUpJ8o3yYScLVqRoZNEkYhYBHJySYVJdNJ3iIOf8eESnxx4uZGIuFrRdkKTh82Ki16P81MA-_JS6TwsrWajUxUsU6SK_EyqqncFqv4MjFri3zvyEmTqlicgZGLFOD-OdGf6IRF3-2ZuHEkgd9ITDgPw8bMCvNYykVdlbqbF1Yji0-gNNoVrEdOi3817ZMv2NzhlHMysxREeDqVtS7pz-lqo8_qgGzfBbteVJu5ohh0FEOeykwwCvG_0C0]--></g></svg>