<?xml version="1.0" encoding="us-ascii" standalone="no"?><svg xmlns="http://www.w3.org/2000/svg" xmlns:xlink="http://www.w3.org/1999/xlink" contentStyleType="text/css" height="794px" preserveAspectRatio="none" style="width:1124px;height:794px;background:#FFFFFF;" version="1.1" viewBox="0 0 1124 794" width="1124px" zoomAndPan="magnify"><defs/><g><rect fill="#F2F4F7" height="469.7853" style="stroke:#003366;stroke-width:1.0;" width="10" x="554" y="175.0323"/><rect fill="#F2F4F7" height="389.097" style="stroke:#003366;stroke-width:1.0;" width="10" x="742" y="215.3765"/><rect fill="#F2F4F7" height="93.6882" style="stroke:#003366;stroke-width:1.0;" width="10" x="956" y="470.4411"/><rect fill="#F2F4F7" height="40.3441" style="stroke:#003366;stroke-width:1.0;" width="10" x="1067.5" y="255.7206"/><rect fill="#F2F4F7" height="40.3441" style="stroke:#003366;stroke-width:1.0;" width="10" x="1067.5" y="389.7529"/><line style="stroke:#003366;stroke-width:1.0;stroke-dasharray:5.0,5.0;" x1="47" x2="47" y1="92.3441" y2="703.1617"/><line style="stroke:#003366;stroke-width:1.0;stroke-dasharray:5.0,5.0;" x1="261.5" x2="261.5" y1="92.3441" y2="703.1617"/><line style="stroke:#003366;stroke-width:1.0;stroke-dasharray:5.0,5.0;" x1="559" x2="559" y1="92.3441" y2="703.1617"/><line style="stroke:#003366;stroke-width:1.0;stroke-dasharray:5.0,5.0;" x1="747" x2="747" y1="92.3441" y2="703.1617"/><line style="stroke:#003366;stroke-width:1.0;stroke-dasharray:5.0,5.0;" x1="960.5" x2="960.5" y1="92.3441" y2="703.1617"/><line style="stroke:#003366;stroke-width:1.0;stroke-dasharray:5.0,5.0;" x1="1072.5" x2="1072.5" y1="92.3441" y2="703.1617"/><text fill="#000000" font-family="sans-serif" font-size="12" lengthAdjust="spacing" textLength="58" x="15" y="83.8281">Utilisateur</text><ellipse cx="47" cy="14" fill="#F2F4F7" rx="8" ry="8" style="stroke:#003366;stroke-width:1.0;"/><path d="M47,22 L47,49 M34,30 L60,30 M47,49 L34,64 M47,49 L60,64 " fill="none" style="stroke:#003366;stroke-width:1.0;"/><text fill="#000000" font-family="sans-serif" font-size="12" lengthAdjust="spacing" textLength="58" x="15" y="719.9898">Utilisateur</text><ellipse cx="47" cy="737.5058" fill="#F2F4F7" rx="8" ry="8" style="stroke:#003366;stroke-width:1.0;"/><path d="M47,745.5058 L47,772.5058 M34,753.5058 L60,753.5058 M47,772.5058 L34,787.5058 M47,772.5058 L60,787.5058 " fill="none" style="stroke:#003366;stroke-width:1.0;"/><text fill="#000000" font-family="sans-serif" font-size="12" lengthAdjust="spacing" textLength="61" x="228.5" y="83.8281">Page Login</text><path d="M241.5,38 L241.5,62 M241.5,50 L258.5,50 " fill="none" style="stroke:#003366;stroke-width:1.0;"/><ellipse cx="270.5" cy="50" fill="#F2F4F7" rx="12" ry="12" style="stroke:#003366;stroke-width:1.0;"/><text fill="#000000" font-family="sans-serif" font-size="12" lengthAdjust="spacing" textLength="61" x="228.5" y="719.9898">Page Login</text><path d="M241.5,732.5058 L241.5,756.5058 M241.5,744.5058 L258.5,744.5058 " fill="none" style="stroke:#003366;stroke-width:1.0;"/><ellipse cx="270.5" cy="744.5058" fill="#F2F4F7" rx="12" ry="12" style="stroke:#003366;stroke-width:1.0;"/><text fill="#000000" font-family="sans-serif" font-size="12" lengthAdjust="spacing" textLength="56" x="528" y="83.8281">Controller</text><ellipse cx="559" cy="50" fill="#F2F4F7" rx="12" ry="12" style="stroke:#003366;stroke-width:1.0;"/><polygon fill="#003366" points="555,38,561,33,559,38,561,43,555,38" style="stroke:#003366;stroke-width:1.0;"/><text fill="#000000" font-family="sans-serif" font-size="12" lengthAdjust="spacing" textLength="56" x="528" y="719.9898">Controller</text><ellipse cx="559" cy="744.5058" fill="#F2F4F7" rx="12" ry="12" style="stroke:#003366;stroke-width:1.0;"/><polygon fill="#003366" points="555,732.5058,561,727.5058,559,732.5058,561,737.5058,555,732.5058" style="stroke:#003366;stroke-width:1.0;"/><text fill="#000000" font-family="sans-serif" font-size="12" lengthAdjust="spacing" textLength="70" x="709" y="83.8281">Auth Service</text><ellipse cx="747" cy="50" fill="#F2F4F7" rx="12" ry="12" style="stroke:#003366;stroke-width:1.0;"/><line style="stroke:#003366;stroke-width:1.0;" x1="735" x2="759" y1="64" y2="64"/><text fill="#000000" font-family="sans-serif" font-size="12" lengthAdjust="spacing" textLength="70" x="709" y="719.9898">Auth Service</text><ellipse cx="747" cy="744.5058" fill="#F2F4F7" rx="12" ry="12" style="stroke:#003366;stroke-width:1.0;"/><line style="stroke:#003366;stroke-width:1.0;" x1="735" x2="759" y1="758.5058" y2="758.5058"/><text fill="#000000" font-family="sans-serif" font-size="12" lengthAdjust="spacing" textLength="75" x="920.5" y="83.8281">Email Service</text><ellipse cx="961" cy="50" fill="#F2F4F7" rx="12" ry="12" style="stroke:#003366;stroke-width:1.0;"/><line style="stroke:#003366;stroke-width:1.0;" x1="949" x2="973" y1="64" y2="64"/><text fill="#000000" font-family="sans-serif" font-size="12" lengthAdjust="spacing" textLength="75" x="920.5" y="719.9898">Email Service</text><ellipse cx="961" cy="744.5058" fill="#F2F4F7" rx="12" ry="12" style="stroke:#003366;stroke-width:1.0;"/><line style="stroke:#003366;stroke-width:1.0;" x1="949" x2="973" y1="758.5058" y2="758.5058"/><text fill="#000000" font-family="sans-serif" font-size="12" lengthAdjust="spacing" textLength="96" x="1021.5" y="83.8281">Base de donn&#233;es</text><path d="M1054.5,30 C1054.5,20 1072.5,20 1072.5,20 C1072.5,20 1090.5,20 1090.5,30 L1090.5,56 C1090.5,66 1072.5,66 1072.5,66 C1072.5,66 1054.5,66 1054.5,56 L1054.5,30 " fill="#F2F4F7" style="stroke:#003366;stroke-width:1.5;"/><path d="M1054.5,30 C1054.5,40 1072.5,40 1072.5,40 C1072.5,40 1090.5,40 1090.5,30 " fill="none" style="stroke:#003366;stroke-width:1.5;"/><text fill="#000000" font-family="sans-serif" font-size="12" lengthAdjust="spacing" textLength="96" x="1021.5" y="719.9898">Base de donn&#233;es</text><path d="M1054.5,738.5058 C1054.5,728.5058 1072.5,728.5058 1072.5,728.5058 C1072.5,728.5058 1090.5,728.5058 1090.5,738.5058 L1090.5,764.5058 C1090.5,774.5058 1072.5,774.5058 1072.5,774.5058 C1072.5,774.5058 1054.5,774.5058 1054.5,764.5058 L1054.5,738.5058 " fill="#F2F4F7" style="stroke:#003366;stroke-width:1.5;"/><path d="M1054.5,738.5058 C1054.5,748.5058 1072.5,748.5058 1072.5,748.5058 C1072.5,748.5058 1090.5,748.5058 1090.5,738.5058 " fill="none" style="stroke:#003366;stroke-width:1.5;"/><rect fill="#F2F4F7" height="469.7853" style="stroke:#003366;stroke-width:1.0;" width="10" x="554" y="175.0323"/><rect fill="#F2F4F7" height="389.097" style="stroke:#003366;stroke-width:1.0;" width="10" x="742" y="215.3765"/><rect fill="#F2F4F7" height="93.6882" style="stroke:#003366;stroke-width:1.0;" width="10" x="956" y="470.4411"/><rect fill="#F2F4F7" height="40.3441" style="stroke:#003366;stroke-width:1.0;" width="10" x="1067.5" y="255.7206"/><rect fill="#F2F4F7" height="40.3441" style="stroke:#003366;stroke-width:1.0;" width="10" x="1067.5" y="389.7529"/><polygon fill="#003366" points="250,130.6882,260,134.6882,250,138.6882,254,134.6882" style="stroke:#003366;stroke-width:1.0;"/><line style="stroke:#003366;stroke-width:1.0;" x1="47" x2="256" y1="134.6882" y2="134.6882"/><text fill="#003366" font-family="sans-serif" font-size="12" lengthAdjust="spacing" textLength="181" x="59" y="124.1722">Clique sur "Mot de passe oubli&#233;"</text><polygon fill="#003366" points="542,171.0323,552,175.0323,542,179.0323,546,175.0323" style="stroke:#003366;stroke-width:1.0;"/><line style="stroke:#003366;stroke-width:1.0;" x1="262" x2="548" y1="175.0323" y2="175.0323"/><text fill="#003366" font-family="sans-serif" font-size="12" lengthAdjust="spacing" textLength="263" x="274" y="164.5163">POST /api/auth/reset-password-request (email)</text><polygon fill="#003366" points="730,211.3765,740,215.3765,730,219.3765,734,215.3765" style="stroke:#003366;stroke-width:1.0;"/><line style="stroke:#003366;stroke-width:1.0;" x1="564" x2="736" y1="215.3765" y2="215.3765"/><text fill="#003366" font-family="sans-serif" font-size="12" lengthAdjust="spacing" textLength="149" x="576" y="204.8604">genererResetToken(email)</text><polygon fill="#003366" points="1055.5,251.7206,1065.5,255.7206,1055.5,259.7206,1059.5,255.7206" style="stroke:#003366;stroke-width:1.0;"/><line style="stroke:#003366;stroke-width:1.0;" x1="752" x2="1061.5" y1="255.7206" y2="255.7206"/><text fill="#003366" font-family="sans-serif" font-size="12" lengthAdjust="spacing" textLength="75" x="764" y="245.2045">V&#233;rifier email</text><polygon fill="#003366" points="763,292.0647,753,296.0647,763,300.0647,759,296.0647" style="stroke:#003366;stroke-width:1.0;"/><line style="stroke:#003366;stroke-width:1.0;stroke-dasharray:2.0,2.0;" x1="757" x2="1071.5" y1="296.0647" y2="296.0647"/><text fill="#003366" font-family="sans-serif" font-size="12" lengthAdjust="spacing" textLength="97" x="774" y="285.5487">Utilisateur trouv&#233;</text><line style="stroke:#003366;stroke-width:1.0;" x1="752" x2="794" y1="336.4088" y2="336.4088"/><line style="stroke:#003366;stroke-width:1.0;" x1="794" x2="794" y1="336.4088" y2="349.4088"/><line style="stroke:#003366;stroke-width:1.0;" x1="753" x2="794" y1="349.4088" y2="349.4088"/><polygon fill="#003366" points="763,345.4088,753,349.4088,763,353.4088,759,349.4088" style="stroke:#003366;stroke-width:1.0;"/><text fill="#003366" font-family="sans-serif" font-size="12" lengthAdjust="spacing" textLength="153" x="764" y="325.8928">Cr&#233;er Token UUID s&#233;curis&#233;</text><polygon fill="#003366" points="1055.5,385.7529,1065.5,389.7529,1055.5,393.7529,1059.5,389.7529" style="stroke:#003366;stroke-width:1.0;"/><line style="stroke:#003366;stroke-width:1.0;" x1="752" x2="1061.5" y1="389.7529" y2="389.7529"/><text fill="#003366" font-family="sans-serif" font-size="12" lengthAdjust="spacing" textLength="191" x="764" y="379.2369">Enregistrer Token (Expiration 24h)</text><polygon fill="#003366" points="763,426.097,753,430.097,763,434.097,759,430.097" style="stroke:#003366;stroke-width:1.0;"/><line style="stroke:#003366;stroke-width:1.0;stroke-dasharray:2.0,2.0;" x1="757" x2="1071.5" y1="430.097" y2="430.097"/><text fill="#003366" font-family="sans-serif" font-size="12" lengthAdjust="spacing" textLength="16" x="774" y="419.581">OK</text><polygon fill="#003366" points="944,466.4411,954,470.4411,944,474.4411,948,470.4411" style="stroke:#003366;stroke-width:1.0;"/><line style="stroke:#003366;stroke-width:1.0;" x1="752" x2="950" y1="470.4411" y2="470.4411"/><text fill="#003366" font-family="sans-serif" font-size="12" lengthAdjust="spacing" textLength="175" x="764" y="459.9251">envoyerLienReset(email, token)</text><line style="stroke:#003366;stroke-width:1.0;" x1="966" x2="1008" y1="510.7853" y2="510.7853"/><line style="stroke:#003366;stroke-width:1.0;" x1="1008" x2="1008" y1="510.7853" y2="523.7853"/><line style="stroke:#003366;stroke-width:1.0;" x1="967" x2="1008" y1="523.7853" y2="523.7853"/><polygon fill="#003366" points="977,519.7853,967,523.7853,977,527.7853,973,523.7853" style="stroke:#003366;stroke-width:1.0;"/><text fill="#003366" font-family="sans-serif" font-size="12" lengthAdjust="spacing" textLength="65" x="978" y="500.2692">Envoi SMTP</text><polygon fill="#003366" points="763,560.1294,753,564.1294,763,568.1294,759,564.1294" style="stroke:#003366;stroke-width:1.0;"/><line style="stroke:#003366;stroke-width:1.0;stroke-dasharray:2.0,2.0;" x1="757" x2="960" y1="564.1294" y2="564.1294"/><text fill="#003366" font-family="sans-serif" font-size="12" lengthAdjust="spacing" textLength="67" x="774" y="553.6133">Mail envoy&#233;</text><polygon fill="#003366" points="575,600.4735,565,604.4735,575,608.4735,571,604.4735" style="stroke:#003366;stroke-width:1.0;"/><line style="stroke:#003366;stroke-width:1.0;stroke-dasharray:2.0,2.0;" x1="569" x2="746" y1="604.4735" y2="604.4735"/><text fill="#003366" font-family="sans-serif" font-size="12" lengthAdjust="spacing" textLength="95" x="586" y="593.9575">Demande trait&#233;e</text><polygon fill="#003366" points="273,640.8176,263,644.8176,273,648.8176,269,644.8176" style="stroke:#003366;stroke-width:1.0;"/><line style="stroke:#003366;stroke-width:1.0;stroke-dasharray:2.0,2.0;" x1="267" x2="558" y1="644.8176" y2="644.8176"/><text fill="#003366" font-family="sans-serif" font-size="12" lengthAdjust="spacing" textLength="40" x="284" y="634.3016">200 OK</text><polygon fill="#003366" points="58,681.1617,48,685.1617,58,689.1617,54,685.1617" style="stroke:#003366;stroke-width:1.0;"/><line style="stroke:#003366;stroke-width:1.0;stroke-dasharray:2.0,2.0;" x1="52" x2="261" y1="685.1617" y2="685.1617"/><text fill="#003366" font-family="sans-serif" font-size="12" lengthAdjust="spacing" textLength="131" x="69" y="674.6457">"Consultez vos e-mails"</text><!--SRC=[VPFFRjim3CRlUWhEfnQObwBOgOS1ovy2HHiqM9BUbPX9Y3fIIidkkZVoS_Z5HibfhBH00KEM9Vu-VQJeRtw7UuJ31c73TWy_bD9hRncofQUIdFPOSGRQmT8XgvMjJA7v3RAPtY8ys2sPk7lBrdYrbe5j2TcecvJOiVsdGkF92_-xyZkO8zUqnXXpd9y29djDvLd4L1PKeRrUQOUG3SDOo6EDQHjqCMOyL2euXVnNvmbkO5JIIuNWAibgQdrW3je9RAjLIMsJgIvIaDweSBF7-G86-a03BMO7Z0vz7iXNoqNEAABEmmK6evUXR5HBkT9aLQ8dwiTaH7gB1XdvJv1Ss6SqdrJUow7U8U77Gq6VsePfGw8OaPwGr2KWFpidkKGG8rNTDgh054drUsx4Kb66Q0sMoxinkBPPLqpo-kHeOXYtv3oVY8l9tmEnzcGDNF_SNNvjyl7-2q_XqYK6JMtVa1y8JInQLw_luCDvYNxiaSZqx4HOWlbqCJlkd9qUbwByUMsYKk_aOtECnO2HJlAioKknKlHqT-dr9mrvVNNr8UcqPuxDAF6naM_Yt-IgqkC_gAq3p4FgBbF_0G00]--></g></svg>