<?xml version="1.0" encoding="us-ascii" standalone="no"?><svg xmlns="http://www.w3.org/2000/svg" xmlns:xlink="http://www.w3.org/1999/xlink" contentStyleType="text/css" height="1128px" preserveAspectRatio="none" style="width:524px;height:1128px;background:#FFFFFF;" version="1.1" viewBox="0 0 524 1128" width="524px" zoomAndPan="magnify"><defs/><g><ellipse cx="386.53" cy="21" fill="#003366" rx="10" ry="10" style="stroke:#003366;stroke-width:1.0;"/><g id="CREEE"><rect fill="#F2F4F7" height="56.3441" rx="2.5" ry="2.5" style="stroke:#003366;stroke-width:1.0;" width="66" x="353.53" y="119"/><line style="stroke:#003366;stroke-width:1.0;" x1="353.53" x2="419.53" y1="155.3441" y2="155.3441"/><text fill="#000000" font-family="sans-serif" font-size="12" lengthAdjust="spacing" textLength="36" x="368.53" y="141.8281">CREEE</text></g><g id="PLANIFIEE"><rect fill="#F2F4F7" height="56.3441" rx="2.5" ry="2.5" style="stroke:#003366;stroke-width:1.0;" width="88" x="342.53" y="263"/><line style="stroke:#003366;stroke-width:1.0;" x1="342.53" x2="430.53" y1="299.3441" y2="299.3441"/><text fill="#000000" font-family="sans-serif" font-size="12" lengthAdjust="spacing" textLength="58" x="357.53" y="285.8281">PLANIFIEE</text></g><g id="JURY_AFFECTE"><rect fill="#F2F4F7" height="56.3441" rx="2.5" ry="2.5" style="stroke:#003366;stroke-width:1.0;" width="110" x="228.53" y="407"/><line style="stroke:#003366;stroke-width:1.0;" x1="228.53" x2="338.53" y1="443.3441" y2="443.3441"/><text fill="#000000" font-family="sans-serif" font-size="12" lengthAdjust="spacing" textLength="80" x="243.53" y="429.8281">JURY_AFFECTE</text></g><g id="CONVOQUEE"><rect fill="#F2F4F7" height="56.3441" rx="2.5" ry="2.5" style="stroke:#003366;stroke-width:1.0;" width="104" x="225.53" y="551"/><line style="stroke:#003366;stroke-width:1.0;" x1="225.53" x2="329.53" y1="587.3441" y2="587.3441"/><text fill="#000000" font-family="sans-serif" font-size="12" lengthAdjust="spacing" textLength="74" x="240.53" y="573.8281">CONVOQUEE</text></g><g id="EN_COURS"><rect fill="#F2F4F7" height="56.3441" rx="2.5" ry="2.5" style="stroke:#003366;stroke-width:1.0;" width="91" x="84.03" y="695"/><line style="stroke:#003366;stroke-width:1.0;" x1="84.03" x2="175.03" y1="731.3441" y2="731.3441"/><text fill="#000000" font-family="sans-serif" font-size="12" lengthAdjust="spacing" textLength="61" x="99.03" y="717.8281">EN_COURS</text></g><g id="EVALUEE"><rect fill="#F2F4F7" height="56.3441" rx="2.5" ry="2.5" style="stroke:#003366;stroke-width:1.0;" width="81" x="71.03" y="839"/><line style="stroke:#003366;stroke-width:1.0;" x1="71.03" x2="152.03" y1="875.3441" y2="875.3441"/><text fill="#000000" font-family="sans-serif" font-size="12" lengthAdjust="spacing" textLength="51" x="86.03" y="861.8281">EVALUEE</text></g><g id="CLOTUREE"><rect fill="#F2F4F7" height="56.3441" rx="2.5" ry="2.5" style="stroke:#003366;stroke-width:1.0;" width="90" x="62.53" y="983"/><line style="stroke:#003366;stroke-width:1.0;" x1="62.53" x2="152.53" y1="1019.3441" y2="1019.3441"/><text fill="#000000" font-family="sans-serif" font-size="12" lengthAdjust="spacing" textLength="60" x="77.53" y="1005.8281">CLOTUREE</text></g><g id="ANNULEE"><rect fill="#F2F4F7" height="56.3441" rx="2.5" ry="2.5" style="stroke:#003366;stroke-width:1.0;" width="85" x="198.03" y="983"/><line style="stroke:#003366;stroke-width:1.0;" x1="198.03" x2="283.03" y1="1019.3441" y2="1019.3441"/><text fill="#000000" font-family="sans-serif" font-size="12" lengthAdjust="spacing" textLength="55" x="213.03" y="1005.8281">ANNULEE</text></g><ellipse cx="168.53" cy="1111" fill="none" rx="11" ry="11" style="stroke:#003366;stroke-width:1.0;"/><ellipse cx="168.53" cy="1111" fill="#003366" rx="6" ry="6" style="stroke:#003366;stroke-width:1.0;"/><!--link *start* to CREEE--><g id="link_*start*_CREEE"><path d="M386.53,31.32 C386.53,49.68 386.53,85.15 386.53,112.86 " fill="none" id="*start*-to-CREEE" style="stroke:#003366;stroke-width:1.0;"/><polygon fill="#003366" points="386.53,118.86,390.53,109.86,386.53,113.86,382.53,109.86,386.53,118.86" style="stroke:#003366;stroke-width:1.0;"/><text fill="#003366" font-family="sans-serif" font-size="12" lengthAdjust="spacing" textLength="101" x="392.53" y="79.8281">Cr&#233;ation du projet</text></g><!--link CREEE to PLANIFIEE--><g id="link_CREEE_PLANIFIEE"><path d="M386.53,175.04 C386.53,200.15 386.53,231.35 386.53,256.57 " fill="none" id="CREEE-to-PLANIFIEE" style="stroke:#003366;stroke-width:1.0;"/><polygon fill="#003366" points="386.53,262.57,390.53,253.57,386.53,257.57,382.53,253.57,386.53,262.57" style="stroke:#003366;stroke-width:1.0;"/><text fill="#003366" font-family="sans-serif" font-size="12" lengthAdjust="spacing" textLength="119" x="392.53" y="223.8281">Affectation date/salle</text></g><!--link PLANIFIEE to JURY_AFFECTE--><g id="link_PLANIFIEE_JURY_AFFECTE"><path d="M342.5,310.11 C325.52,319.29 307.56,332.13 296.53,349 C285.42,365.99 282.5682,382.9212 282.2182,400.6812 " fill="none" id="PLANIFIEE-to-JURY_AFFECTE" style="stroke:#003366;stroke-width:1.0;"/><polygon fill="#003366" points="282.1,406.68,286.2766,397.7606,282.1985,401.681,278.2781,397.6029,282.1,406.68" style="stroke:#003366;stroke-width:1.0;"/><text fill="#003366" font-family="sans-serif" font-size="12" lengthAdjust="spacing" textLength="149" x="302.53" y="367.8281">Composition jury compl&#232;te</text></g><!--link JURY_AFFECTE to CONVOQUEE--><g id="link_JURY_AFFECTE_CONVOQUEE"><path d="M278.36,463.15 C276.8,472.56 275.3,483.21 274.53,493 C273.02,512.28 273.4242,528.1044 274.5842,544.8044 " fill="none" id="JURY_AFFECTE-to-CONVOQUEE" style="stroke:#003366;stroke-width:1.0;"/><polygon fill="#003366" points="275,550.79,278.3667,541.5345,274.6535,545.802,270.386,542.0888,275,550.79" style="stroke:#003366;stroke-width:1.0;"/><text fill="#003366" font-family="sans-serif" font-size="12" lengthAdjust="spacing" textLength="171" x="280.53" y="511.8281">Validation &amp; Envoi notifications</text></g><!--link CONVOQUEE to EN_COURS--><g id="link_CONVOQUEE_EN_COURS"><path d="M225.3,602.9 C208.7,611.88 191.14,623.34 177.53,637 C161.15,653.45 151.0273,671.1753 142.8673,689.1753 " fill="none" id="CONVOQUEE-to-EN_COURS" style="stroke:#003366;stroke-width:1.0;"/><polygon fill="#003366" points="140.39,694.64,147.7491,688.0945,142.4544,690.0861,140.4629,684.7914,140.39,694.64" style="stroke:#003366;stroke-width:1.0;"/><text fill="#003366" font-family="sans-serif" font-size="12" lengthAdjust="spacing" textLength="94" x="183.53" y="655.8281">D&#233;but de s&#233;ance</text></g><!--link EN_COURS to EVALUEE--><g id="link_EN_COURS_EVALUEE"><path d="M117.26,751.28 C113.71,760.53 110.31,771.03 108.53,781 C105.11,800.19 105.4233,816.2197 107.1033,833.0297 " fill="none" id="EN_COURS-to-EVALUEE" style="stroke:#003366;stroke-width:1.0;"/><polygon fill="#003366" points="107.7,839,110.7852,829.6468,107.2028,834.0248,102.8248,830.4424,107.7,839" style="stroke:#003366;stroke-width:1.0;"/><text fill="#003366" font-family="sans-serif" font-size="12" lengthAdjust="spacing" textLength="146" x="114.53" y="799.8281">Validation des notes (RG6)</text></g><!--link EVALUEE to CLOTUREE--><g id="link_EVALUEE_CLOTUREE"><path d="M70.87,883.96 C53.29,893.14 34.49,906.57 24.53,925 C11,950.04 31.0352,969.6927 57.1152,985.3427 " fill="none" id="EVALUEE-to-CLOTUREE" style="stroke:#003366;stroke-width:1.0;"/><polygon fill="#003366" points="62.26,988.43,56.601,980.3692,57.9727,985.8573,52.4846,987.229,62.26,988.43" style="stroke:#003366;stroke-width:1.0;"/><text fill="#003366" font-family="sans-serif" font-size="12" lengthAdjust="spacing" textLength="92" x="30.53" y="943.8281">Session cl&#244;tur&#233;e</text></g><!--link EVALUEE to ANNULEE--><g id="link_EVALUEE_ANNULEE"><path d="M126.79,895.21 C137.29,912.71 152.26,935.38 168.53,953 C178.38,963.66 185.5906,970.2477 196.9006,979.0777 " fill="none" id="EVALUEE-to-ANNULEE" style="stroke:#003366;stroke-width:1.0;"/><polygon fill="#003366" points="201.63,982.77,196.9975,974.0786,197.6889,979.6931,192.0744,980.3844,201.63,982.77" style="stroke:#003366;stroke-width:1.0;"/><text fill="#003366" font-family="sans-serif" font-size="12" lengthAdjust="spacing" textLength="103" x="174.53" y="943.8281">Motif exceptionnel</text></g><!--link CONVOQUEE to ANNULEE--><g id="link_CONVOQUEE_ANNULEE"><path d="M283.28,607.13 C285.01,616.54 286.68,627.19 287.53,637 C293.62,706.96 311.27,886.91 287.53,953 C283.63,963.86 280.5288,969.5439 273.1388,978.3039 " fill="none" id="CONVOQUEE-to-ANNULEE" style="stroke:#003366;stroke-width:1.0;"/><polygon fill="#003366" points="269.27,982.89,278.1306,978.5901,272.494,979.0683,272.0159,973.4317,269.27,982.89" style="stroke:#003366;stroke-width:1.0;"/><text fill="#003366" font-family="sans-serif" font-size="12" lengthAdjust="spacing" textLength="139" x="304.53" y="799.8281">Absence / Force majeure</text></g><!--link PLANIFIEE to ANNULEE--><g id="link_PLANIFIEE_ANNULEE"><path d="M430.74,317.94 C442.21,326.54 453.56,337.02 461.53,349 C483.15,381.49 483.53,394.98 483.53,434 C483.53,434 483.53,434 483.53,868 C483.53,959.74 358.7517,992.3239 289.0617,1003.6939 " fill="none" id="PLANIFIEE-to-ANNULEE" style="stroke:#003366;stroke-width:1.0;"/><polygon fill="#003366" points="283.14,1004.66,292.6666,1007.1586,288.0748,1003.8549,291.3785,999.263,283.14,1004.66" style="stroke:#003366;stroke-width:1.0;"/></g><!--link ANNULEE to *end*--><g id="link_ANNULEE_*end*"><path d="M220.67,1039.04 C205.18,1060.11 188.2329,1083.1851 178.1729,1096.8751 " fill="none" id="ANNULEE-to-*end*" style="stroke:#003366;stroke-width:1.0;"/><polygon fill="#003366" points="174.62,1101.71,183.1727,1096.8262,177.5808,1097.6809,176.7261,1092.089,174.62,1101.71" style="stroke:#003366;stroke-width:1.0;"/></g><!--link CLOTUREE to *end*--><g id="link_CLOTUREE_*end*"><path d="M124.36,1039.04 C137.34,1059.89 151.3096,1082.326 159.9296,1096.176 " fill="none" id="CLOTUREE-to-*end*" style="stroke:#003366;stroke-width:1.0;"/><polygon fill="#003366" points="163.1,1101.27,161.7404,1091.5154,160.458,1097.025,154.9484,1095.7426,163.1,1101.27" style="stroke:#003366;stroke-width:1.0;"/></g><!--SRC=[PP71JeD048RlynJZnQX9xSs31nE2Ywb1K5f8Z34DNOO80PQmYz4tidVVW1TpTrjeMY-xoSptp__lx9dwe9gmpGdpJjHu3V1szOwpsHsw4MCCRz7jXcsg2j5WrcFRYP8KmAvfi6VV2HRUmg9EdXDNUpXLD9TfLH4S42DuZAFNjUDvp5tPyQ9kXIoifkoxR-IwK0q_Yk28j97280bVOkkLf5MHxQpEaJMVei16g28lk2rAdN6YZPO5QpUCewMMtW_RJQym8vJwQGqdc9gMJ1p_dqT6qipNvqNqS7C9C58sbn-kuiXAbYIbuNar_AfUhuwEI2S8Oj-2JoOiqXUdrXWqL9qcFh3EHfAEYNFqHAVlEYsfxquNk-S1Hg4fwj-4ATvO-0C0]--></g></svg>