<?xml version="1.0" encoding="us-ascii" standalone="no"?><svg xmlns="http://www.w3.org/2000/svg" xmlns:xlink="http://www.w3.org/1999/xlink" contentStyleType="text/css" height="352px" preserveAspectRatio="none" style="width:714px;height:352px;background:#FFFFFF;" version="1.1" viewBox="0 0 714 352" width="714px" zoomAndPan="magnify"><defs/><g><!--cluster Module Administration--><g id="cluster_Module Administration"><rect fill="none" height="339" rx="2.5" ry="2.5" style="stroke:#003366;stroke-width:1.0;" width="553" x="155" y="7"/><text fill="#000000" font-family="sans-serif" font-size="14" font-weight="bold" lengthAdjust="spacing" textLength="161" x="351" y="23.9659">Module Administration</text></g><g id="elem_UC1"><ellipse cx="296.6968" cy="69.9394" fill="#F2F4F7" rx="110.1968" ry="24.4394" style="stroke:#003366;stroke-width:1.0;"/><text fill="#000000" font-family="sans-serif" font-size="14" lengthAdjust="spacing" textLength="179" x="204.1968" y="74.6723">G&#233;rer comptes utilisateurs</text></g><g id="elem_UC2"><ellipse cx="296.6897" cy="147.0294" fill="#F2F4F7" rx="70.6897" ry="17.0294" style="stroke:#003366;stroke-width:1.0;"/><text fill="#000000" font-family="sans-serif" font-size="14" lengthAdjust="spacing" textLength="80" x="253.6897" y="151.7623">G&#233;rer salles</text></g><g id="elem_UC4"><ellipse cx="296.6833" cy="227.0367" fill="#F2F4F7" rx="125.6833" ry="27.5367" style="stroke:#003366;stroke-width:1.0;"/><text fill="#000000" font-family="sans-serif" font-size="14" lengthAdjust="spacing" textLength="214" x="188.467" y="231.0453">Configurer param&#232;tres syst&#232;me</text></g><g id="elem_UC5"><ellipse cx="296.5009" cy="310.0002" fill="#F2F4F7" rx="88.0009" ry="20.0002" style="stroke:#003366;stroke-width:1.0;"/><text fill="#000000" font-family="sans-serif" font-size="14" lengthAdjust="spacing" textLength="125" x="231.0009" y="314.7331">G&#233;rer enseignants</text></g><g id="elem_Auth"><ellipse cx="616.7128" cy="188.0426" fill="#F2F4F7" rx="75.7128" ry="17.5426" style="stroke:#003366;stroke-width:1.0;"/><text fill="#000000" font-family="sans-serif" font-size="14" lengthAdjust="spacing" textLength="91" x="568.2128" y="192.7755">S'authentifier</text></g><!--entity Admin--><g id="elem_Admin"><ellipse cx="57" cy="166" fill="#F2F4F7" rx="8" ry="8" style="stroke:#003366;stroke-width:1.0;"/><path d="M57,174 L57,201 M44,182 L70,182 M57,201 L44,216 M57,201 L70,216 " fill="none" style="stroke:#003366;stroke-width:1.0;"/><text fill="#000000" font-family="sans-serif" font-size="14" lengthAdjust="spacing" textLength="102" x="6" y="232.9659">Administrateur</text></g><!--link Admin to UC1--><g id="link_Admin_UC1"><path d="M91.91,156.97 C107.29,140.99 126.59,123.66 147,112 C167.01,100.57 184.5548,93.707 206.7048,87.467 " fill="none" id="Admin-to-UC1" style="stroke:#003366;stroke-width:1.0;"/><polygon fill="#003366" points="212.48,85.84,202.7326,84.4303,207.6673,87.1958,204.9018,92.1306,212.48,85.84" style="stroke:#003366;stroke-width:1.0;"/></g><!--link Admin to UC2--><g id="link_Admin_UC2"><path d="M108.08,186.46 C147.54,178.15 196.5584,167.8248 236.7384,159.3748 " fill="none" id="Admin-to-UC2" style="stroke:#003366;stroke-width:1.0;"/><polygon fill="#003366" points="242.61,158.14,232.9794,156.0778,237.717,159.169,234.6259,163.9066,242.61,158.14" style="stroke:#003366;stroke-width:1.0;"/></g><!--link Admin to UC4--><g id="link_Admin_UC4"><path d="M108.08,203.33 C131.21,206.25 153.6972,209.0889 181.3572,212.5789 " fill="none" id="Admin-to-UC4" style="stroke:#003366;stroke-width:1.0;"/><polygon fill="#003366" points="187.31,213.33,178.8815,208.2348,182.3493,212.7041,177.8801,216.1719,187.31,213.33" style="stroke:#003366;stroke-width:1.0;"/></g><!--link Admin to UC5--><g id="link_Admin_UC5"><path d="M97.74,237.09 C112.22,249.82 129.39,262.94 147,272 C170.78,284.24 192.9219,291.3885 218.1619,297.1785 " fill="none" id="Admin-to-UC5" style="stroke:#003366;stroke-width:1.0;"/><polygon fill="#003366" points="224.01,298.52,216.1322,292.609,219.1366,297.402,214.3435,300.4064,224.01,298.52" style="stroke:#003366;stroke-width:1.0;"/></g><!--link UC1 to Auth--><g id="link_UC1_Auth"><path d="M362.57,89.75 C405.18,103.14 461.87,121.84 511,141 C535.46,150.54 557.0471,160.1937 577.4871,169.7737 " fill="none" id="UC1-to-Auth" style="stroke:#003366;stroke-width:1.0;stroke-dasharray:7.0,7.0;"/><polygon fill="#003366" points="582.92,172.32,576.4682,164.8786,578.3926,170.1981,573.0731,172.1224,582.92,172.32" style="stroke:#003366;stroke-width:1.0;"/><text fill="#000000" font-family="sans-serif" font-size="13" lengthAdjust="spacing" textLength="57" x="453" y="115.897">&#171;include&#187;</text></g><!--link UC2 to Auth--><g id="link_UC2_Auth"><path d="M359.19,154.95 C414.1,162.03 488.2091,171.5937 544.1991,178.8037 " fill="none" id="UC2-to-Auth" style="stroke:#003366;stroke-width:1.0;stroke-dasharray:7.0,7.0;"/><polygon fill="#003366" points="550.15,179.57,541.7346,174.4533,545.1909,178.9314,540.7128,182.3878,550.15,179.57" style="stroke:#003366;stroke-width:1.0;"/><text fill="#000000" font-family="sans-serif" font-size="13" lengthAdjust="spacing" textLength="57" x="453" y="163.897">&#171;include&#187;</text></g><!--link UC4 to Auth--><g id="link_UC4_Auth"><path d="M421.56,224.16 C450.99,222.35 482.2,219.48 511,215 C530.53,211.96 545.9228,208.4238 564.0828,203.4538 " fill="none" id="UC4-to-Auth" style="stroke:#003366;stroke-width:1.0;stroke-dasharray:7.0,7.0;"/><polygon fill="#003366" points="569.87,201.87,560.1333,200.3876,565.0473,203.1899,562.2451,208.1039,569.87,201.87" style="stroke:#003366;stroke-width:1.0;"/><text fill="#000000" font-family="sans-serif" font-size="13" lengthAdjust="spacing" textLength="57" x="453" y="210.897">&#171;include&#187;</text></g><!--link UC5 to Auth--><g id="link_UC5_Auth"><path d="M361.05,296.26 C404.27,285.86 462.25,269.8 511,249 C539.79,236.71 565.4453,221.3491 586.0553,207.8991 " fill="none" id="UC5-to-Auth" style="stroke:#003366;stroke-width:1.0;stroke-dasharray:7.0,7.0;"/><polygon fill="#003366" points="591.08,204.62,581.3569,206.1888,586.8928,207.3526,585.729,212.8884,591.08,204.62" style="stroke:#003366;stroke-width:1.0;"/><text fill="#000000" font-family="sans-serif" font-size="13" lengthAdjust="spacing" textLength="57" x="453" y="244.897">&#171;include&#187;</text></g><!--SRC=[ZOz1QiCm44NtEiNWBhfAsZXE2yKOse2xQLTf3o3iiIqYIq4p9eII-wJdoCMgA4w88O4AZ3H_tdpFJuat6ZC1uAnb-F4FWDmQdbjj7TmzXXFK3sNmh4wdJqzdzQjHnT8W4KoyjlMVBDXpHxStMInhPpjJzjDvd2VvSqzsX8Ka_1ShdRFhdhospLQa3tqUMYgpaawsG8qixLgP6Ygf2ON6Ye4jE5Kt3ALoMB2ovc9YvPUGDIuEJd1eIrDh5E8OAdejMsKKiPECdOj04WH9Y3CBqQSjEtzViFuVKR_xANFqllzrwA2mxOgHe6Eb5GLR2hxVyydL0P9Qumc9XyZScahLtG4BSVOxTjwRDiJxNOlzK7BL5msXgeqqV3AV3Rd5lUouGSEgKjXdzuBO2X6YmcYKXQqlgtXG9ODg9eJ7OJpEWX6yG9egK-Ykn2pphVXsAxdTcjre_G40]--></g></svg>