<?xml version="1.0" encoding="us-ascii" standalone="no"?><svg xmlns="http://www.w3.org/2000/svg" xmlns:xlink="http://www.w3.org/1999/xlink" contentStyleType="text/css" height="352px" preserveAspectRatio="none" style="width:441px;height:352px;background:#FFFFFF;" version="1.1" viewBox="0 0 441 352" width="441px" zoomAndPan="magnify"><defs/><g><!--cluster Module Administration--><g id="cluster_Module Administration"><rect fill="none" height="339" rx="2.5" ry="2.5" style="stroke:#003366;stroke-width:1.0;" width="283" x="152" y="7"/><text fill="#000000" font-family="sans-serif" font-size="14" font-weight="bold" lengthAdjust="spacing" textLength="161" x="213" y="23.9659">Module Administration</text></g><g id="elem_UC1"><ellipse cx="293.6968" cy="69.9394" fill="#F2F4F7" rx="110.1968" ry="24.4394" style="stroke:#003366;stroke-width:1.0;"/><text fill="#000000" font-family="sans-serif" font-size="14" lengthAdjust="spacing" textLength="179" x="201.1968" y="74.6723">G&#233;rer comptes utilisateurs</text></g><g id="elem_UC2"><ellipse cx="293.6897" cy="147.0294" fill="#F2F4F7" rx="70.6897" ry="17.0294" style="stroke:#003366;stroke-width:1.0;"/><text fill="#000000" font-family="sans-serif" font-size="14" lengthAdjust="spacing" textLength="80" x="250.6897" y="151.7623">G&#233;rer salles</text></g><g id="elem_UC4"><ellipse cx="293.6833" cy="227.0367" fill="#F2F4F7" rx="125.6833" ry="27.5367" style="stroke:#003366;stroke-width:1.0;"/><text fill="#000000" font-family="sans-serif" font-size="14" lengthAdjust="spacing" textLength="214" x="185.467" y="231.0453">Configurer param&#232;tres syst&#232;me</text></g><g id="elem_UC5"><ellipse cx="293.3505" cy="309.7701" fill="#F2F4F7" rx="86.8505" ry="19.7701" style="stroke:#003366;stroke-width:1.0;"/><text fill="#000000" font-family="sans-serif" font-size="14" lengthAdjust="spacing" textLength="122" x="229.3505" y="314.5031">G&#233;rer les sessions</text></g><!--entity Admin--><g id="elem_Admin"><ellipse cx="57" cy="156" fill="#F2F4F7" rx="8" ry="8" style="stroke:#003366;stroke-width:1.0;"/><path d="M57,164 L57,191 M44,172 L70,172 M57,191 L44,206 M57,191 L70,206 " fill="none" style="stroke:#003366;stroke-width:1.0;"/><text fill="#000000" font-family="sans-serif" font-size="14" lengthAdjust="spacing" textLength="102" x="6" y="222.9659">Administrateur</text></g><!--link Admin to UC1--><g id="link_Admin_UC1"><path d="M96.76,146.73 C110.66,134.14 127.1,121.15 144,112 C164.5,100.9 182.4318,94.1062 204.8118,87.8462 " fill="none" id="Admin-to-UC1" style="stroke:#003366;stroke-width:1.0;"/><polygon fill="#003366" points="210.59,86.23,200.8452,84.8022,205.7748,87.5769,203.0002,92.5065,210.59,86.23" style="stroke:#003366;stroke-width:1.0;"/></g><!--link Admin to UC2--><g id="link_Admin_UC2"><path d="M108.02,178.47 C145.41,172.09 190.6755,164.3695 229.6355,157.7195 " fill="none" id="Admin-to-UC2" style="stroke:#003366;stroke-width:1.0;"/><polygon fill="#003366" points="235.55,156.71,226.0053,154.2813,230.6213,157.5513,227.3513,162.1673,235.55,156.71" style="stroke:#003366;stroke-width:1.0;"/></g><!--link Admin to UC4--><g id="link_Admin_UC4"><path d="M108.02,195.53 C133.04,199.8 158.3153,204.1119 187.8853,209.1519 " fill="none" id="Admin-to-UC4" style="stroke:#003366;stroke-width:1.0;"/><polygon fill="#003366" points="193.8,210.16,185.6,204.7047,188.8711,209.3199,184.2559,212.591,193.8,210.16" style="stroke:#003366;stroke-width:1.0;"/></g><!--link Admin to UC5--><g id="link_Admin_UC5"><path d="M90.4,227.31 C105.2,243.33 123.9,260.63 144,272 C167.04,285.04 188.7586,292.363 213.8486,298.053 " fill="none" id="Admin-to-UC5" style="stroke:#003366;stroke-width:1.0;"/><polygon fill="#003366" points="219.7,299.38,211.8075,293.4885,214.8238,298.2742,210.0382,301.2904,219.7,299.38" style="stroke:#003366;stroke-width:1.0;"/></g><!--SRC=[ZP5DQiD038NtSmhXhaERtsv2e0suctRLzW23hTX3ngCWoOHGSf_q7BbOnnCd99153SQZvq_Fx-6vwCxZmW0maS9FF03a57H9dXWUdjALr7SNyAAEnxFPHVsgNR4EA0B3gEtZRGkDtCdjrHRhYgaDPR-TZ_99_joJhM1X1V_5McRQzkIzD7ipV-pxoDg5ZMNRWDIsfAqB5Qoi5pGULmfAmAwg5Kh7MAYZSBMnYI5iXP-T4tIlRQWy6dCgbRsKZGjEbArYonbOWIGPSs4X-w2oZSyhDduZwxEVEsTlnrz6XeAQZQ90gyuxIRQIVB-NmxiBOht7CpAwHPOKLgvgEopLEHwKexViH8-71lkboLrVtu7nFyQiP_UfsHkJQi1Wi4Y9hgVHpJIvcQP_]--></g></svg>