<?xml version="1.0" encoding="us-ascii" standalone="no"?><svg xmlns="http://www.w3.org/2000/svg" xmlns:xlink="http://www.w3.org/1999/xlink" contentStyleType="text/css" height="375px" preserveAspectRatio="none" style="width:428px;height:375px;background:#FFFFFF;" version="1.1" viewBox="0 0 428 375" width="428px" zoomAndPan="magnify"><defs/><g><!--cluster Module Administration--><g id="cluster_Module Administration"><rect fill="none" height="357" rx="2.5" ry="2.5" style="stroke:#003366;stroke-width:1.0;" width="278" x="144" y="12"/><text fill="#000000" font-family="sans-serif" font-size="12" font-weight="bold" lengthAdjust="spacing" textLength="139" x="213.5" y="31.8281">Module Administration</text></g><g id="elem_UC1"><ellipse cx="282.9251" cy="82.085" fill="#F2F4F7" rx="110.9251" ry="24.585" style="stroke:#003366;stroke-width:1.0;"/><text fill="#000000" font-family="sans-serif" font-size="12" lengthAdjust="spacing" textLength="149" x="208.4251" y="84.7411">G&#233;rer comptes utilisateurs</text></g><g id="elem_UC2"><ellipse cx="283.1396" cy="163.1281" fill="#F2F4F7" rx="66.6396" ry="21.6281" style="stroke:#003366;stroke-width:1.0;"/><text fill="#000000" font-family="sans-serif" font-size="12" lengthAdjust="spacing" textLength="68" x="249.1396" y="165.7841">G&#233;rer salles</text></g><g id="elem_UC4"><ellipse cx="283.1575" cy="247.0315" fill="#F2F4F7" rx="123.1575" ry="27.0315" style="stroke:#003366;stroke-width:1.0;"/><text fill="#000000" font-family="sans-serif" font-size="12" lengthAdjust="spacing" textLength="179" x="193.6575" y="249.6875">Configurer param&#232;tres syst&#232;me</text></g><g id="elem_UC5"><ellipse cx="282.8883" cy="331.1281" fill="#F2F4F7" rx="91.3883" ry="21.6281" style="stroke:#003366;stroke-width:1.0;"/><text fill="#000000" font-family="sans-serif" font-size="12" lengthAdjust="spacing" textLength="103" x="231.3883" y="333.7841">G&#233;rer les sessions</text></g><!--entity Admin--><g id="elem_Admin"><ellipse cx="53" cy="170.5" fill="#F2F4F7" rx="8" ry="8" style="stroke:#003366;stroke-width:1.0;"/><path d="M53,178.5 L53,205.5 M40,186.5 L66,186.5 M53,205.5 L40,220.5 M53,205.5 L66,220.5 " fill="none" style="stroke:#003366;stroke-width:1.0;"/><text fill="#000000" font-family="sans-serif" font-size="12" lengthAdjust="spacing" textLength="84" x="11" y="240.3281">Administrateur</text></g><!--link Admin to UC1--><g id="link_Admin_UC1"><path d="M90.22,161.42 C103.42,147.81 119.25,133.81 136,124 C155.23,112.74 171.9171,106.01 193.3471,99.8 " fill="none" id="Admin-to-UC1" style="stroke:#003366;stroke-width:1.0;"/><polygon fill="#003366" points="199.11,98.13,189.3523,96.793,194.3076,99.5217,191.579,104.4769,199.11,98.13" style="stroke:#003366;stroke-width:1.0;"/></g><!--link Admin to UC2--><g id="link_Admin_UC2"><path d="M100.14,196.5 C136.05,189.89 180.1895,181.7581 218.6895,174.6581 " fill="none" id="Admin-to-UC2" style="stroke:#003366;stroke-width:1.0;"/><polygon fill="#003366" points="224.59,173.57,215.0138,171.2685,219.6729,174.4768,216.4647,179.1359,224.59,173.57" style="stroke:#003366;stroke-width:1.0;"/></g><!--link Admin to UC4--><g id="link_Admin_UC4"><path d="M100.14,213.5 C125.51,218.17 152.0392,223.0637 182.4592,228.6637 " fill="none" id="Admin-to-UC4" style="stroke:#003366;stroke-width:1.0;"/><polygon fill="#003366" points="188.36,229.75,180.2329,224.1867,183.4426,228.8448,178.7845,232.0545,188.36,229.75" style="stroke:#003366;stroke-width:1.0;"/></g><!--link Admin to UC5--><g id="link_Admin_UC5"><path d="M87.31,248.76 C100.92,264.06 117.76,280.11 136,291 C157.66,303.94 177.7907,311.3285 201.7607,317.3485 " fill="none" id="Admin-to-UC5" style="stroke:#003366;stroke-width:1.0;"/><polygon fill="#003366" points="207.58,318.81,199.8254,312.7382,202.7306,317.5921,197.8767,320.4973,207.58,318.81" style="stroke:#003366;stroke-width:1.0;"/></g><!--SRC=[ROz12i9034NtEKNiNa5fju9quSgb1nZQj0xCT4gIMOXu7pr7B-PqKB3GRC8FBuzaepVoX6D7s77mk0D7dQ86PDlV55lBrAWD0u1fD30MfzRRmOgoKOfSe17C8u2PD4Fl28jBQ6FgVsnI5FW0J1M56YE9Eazl9iOc-559CAfrLh9MilTQxrSNn3X7F-ImHEemTBQFCpOQDdvwAIUtt4MdbwVlKhdgTJD88kdMdxs29q1-0xVROxxeFnqMgLoawWC0]--></g></svg>