<?xml version="1.0" encoding="us-ascii" standalone="no"?><svg xmlns="http://www.w3.org/2000/svg" xmlns:xlink="http://www.w3.org/1999/xlink" contentStyleType="text/css" height="512px" preserveAspectRatio="none" style="width:714px;height:512px;background:#FFFFFF;" version="1.1" viewBox="0 0 714 512" width="714px" zoomAndPan="magnify"><defs/><g><!--cluster Module Administration--><g id="cluster_Module Administration"><rect fill="none" height="499" rx="2.5" ry="2.5" style="stroke:#003366;stroke-width:1.0;" width="553" x="155" y="7"/><text fill="#000000" font-family="sans-serif" font-size="14" font-weight="bold" lengthAdjust="spacing" textLength="161" x="351" y="23.9659">Module Administration</text></g><g id="elem_UC1"><ellipse cx="296.6968" cy="69.9394" fill="#F2F4F7" rx="110.1968" ry="24.4394" style="stroke:#003366;stroke-width:1.0;"/><text fill="#000000" font-family="sans-serif" font-size="14" lengthAdjust="spacing" textLength="179" x="204.1968" y="74.6723">G&#233;rer comptes utilisateurs</text></g><g id="elem_UC2"><ellipse cx="296.6897" cy="147.0294" fill="#F2F4F7" rx="70.6897" ry="17.0294" style="stroke:#003366;stroke-width:1.0;"/><text fill="#000000" font-family="sans-serif" font-size="14" lengthAdjust="spacing" textLength="80" x="253.6897" y="151.7623">G&#233;rer salles</text></g><g id="elem_UC3"><ellipse cx="296.2738" cy="219.1548" fill="#F2F4F7" rx="88.7738" ry="20.1548" style="stroke:#003366;stroke-width:1.0;"/><text fill="#000000" font-family="sans-serif" font-size="14" lengthAdjust="spacing" textLength="127" x="229.7738" y="223.8877">G&#233;rer soutenances</text></g><g id="elem_UC4"><ellipse cx="296.6833" cy="302.0367" fill="#F2F4F7" rx="125.6833" ry="27.5367" style="stroke:#003366;stroke-width:1.0;"/><text fill="#000000" font-family="sans-serif" font-size="14" lengthAdjust="spacing" textLength="214" x="188.467" y="306.0453">Configurer param&#232;tres syst&#232;me</text></g><g id="elem_UC5"><ellipse cx="296.5009" cy="385.0002" fill="#F2F4F7" rx="88.0009" ry="20.0002" style="stroke:#003366;stroke-width:1.0;"/><text fill="#000000" font-family="sans-serif" font-size="14" lengthAdjust="spacing" textLength="125" x="231.0009" y="389.7331">G&#233;rer enseignants</text></g><g id="elem_Dashboard"><ellipse cx="296.3351" cy="464.767" fill="#F2F4F7" rx="109.3351" ry="24.267" style="stroke:#003366;stroke-width:1.0;"/><text fill="#000000" font-family="sans-serif" font-size="14" lengthAdjust="spacing" textLength="177" x="204.8351" y="469.5">Consulter tableau de bord</text></g><g id="elem_Auth"><ellipse cx="616.7128" cy="261.0426" fill="#F2F4F7" rx="75.7128" ry="17.5426" style="stroke:#003366;stroke-width:1.0;"/><text fill="#000000" font-family="sans-serif" font-size="14" lengthAdjust="spacing" textLength="91" x="568.2128" y="265.7755">S'authentifier</text></g><!--entity Admin--><g id="elem_Admin"><ellipse cx="57" cy="241" fill="#F2F4F7" rx="8" ry="8" style="stroke:#003366;stroke-width:1.0;"/><path d="M57,249 L57,276 M44,257 L70,257 M57,276 L44,291 M57,276 L70,291 " fill="none" style="stroke:#003366;stroke-width:1.0;"/><text fill="#000000" font-family="sans-serif" font-size="14" lengthAdjust="spacing" textLength="102" x="6" y="307.9659">Administrateur</text></g><!--link Admin to UC1--><g id="link_Admin_UC1"><path d="M70.33,231.92 C83.57,195.45 108.11,142.77 147,112 C163.6,98.87 178.3498,91.5865 198.7598,85.3765 " fill="none" id="Admin-to-UC1" style="stroke:#003366;stroke-width:1.0;"/><polygon fill="#003366" points="204.5,83.63,194.7254,82.423,199.7165,85.0854,197.0541,90.0766,204.5,83.63" style="stroke:#003366;stroke-width:1.0;"/></g><!--link Admin to UC2--><g id="link_Admin_UC2"><path d="M88.27,231.83 C103.92,213.73 124.45,193.64 147,181 C172.61,166.65 198.0209,159.3905 225.2809,154.5905 " fill="none" id="Admin-to-UC2" style="stroke:#003366;stroke-width:1.0;"/><polygon fill="#003366" points="231.19,153.55,221.6327,151.1713,226.2658,154.4171,223.02,159.0501,231.19,153.55" style="stroke:#003366;stroke-width:1.0;"/></g><!--link Admin to UC3--><g id="link_Admin_UC3"><path d="M108.08,260.82 C144.41,252.72 187.9638,242.9959 226.9338,234.3059 " fill="none" id="Admin-to-UC3" style="stroke:#003366;stroke-width:1.0;"/><polygon fill="#003366" points="232.79,233,223.1352,231.0547,227.9099,234.0882,224.8763,238.8629,232.79,233" style="stroke:#003366;stroke-width:1.0;"/></g><!--link Admin to UC4--><g id="link_Admin_UC4"><path d="M108.08,278.33 C131.21,281.25 153.6972,284.0889 181.3572,287.5789 " fill="none" id="Admin-to-UC4" style="stroke:#003366;stroke-width:1.0;"/><polygon fill="#003366" points="187.31,288.33,178.8815,283.2348,182.3493,287.7041,177.8801,291.1719,187.31,288.33" style="stroke:#003366;stroke-width:1.0;"/></g><!--link Admin to UC5--><g id="link_Admin_UC5"><path d="M97.74,312.09 C112.22,324.82 129.39,337.94 147,347 C170.78,359.24 192.9219,366.3885 218.1619,372.1785 " fill="none" id="Admin-to-UC5" style="stroke:#003366;stroke-width:1.0;"/><polygon fill="#003366" points="224.01,373.52,216.1322,367.609,219.1366,372.402,214.3435,375.4064,224.01,373.52" style="stroke:#003366;stroke-width:1.0;"/></g><!--link Admin to Dashboard--><g id="link_Admin_Dashboard"><path d="M72.11,312.21 C86.05,346.23 110.6,393.83 147,422 C164.3,435.39 179.8959,442.8764 200.9359,449.2264 " fill="none" id="Admin-to-Dashboard" style="stroke:#003366;stroke-width:1.0;"/><polygon fill="#003366" points="206.68,450.96,199.2196,444.5302,201.8933,449.5153,196.9081,452.189,206.68,450.96" style="stroke:#003366;stroke-width:1.0;"/></g><!--link UC1 to Auth--><g id="link_UC1_Auth"><path d="M363.77,89.47 C382.89,95.85 403.56,103.51 422,112 C463.82,131.24 474.07,137.5 511,165 C544.39,189.87 575.0315,219.4635 594.8615,239.6135 " fill="none" id="UC1-to-Auth" style="stroke:#003366;stroke-width:1.0;stroke-dasharray:7.0,7.0;"/><polygon fill="#003366" points="599.07,243.89,595.6082,234.6696,595.5629,240.3263,589.9062,240.281,599.07,243.89" style="stroke:#003366;stroke-width:1.0;"/><text fill="#000000" font-family="sans-serif" font-size="13" lengthAdjust="spacing" textLength="57" x="453" y="122.897">&#171;include&#187;</text></g><!--link UC2 to Auth--><g id="link_UC2_Auth"><path d="M345.65,159.2 C368.85,165.33 397,173.11 422,181 C462.08,193.66 472.09,197.1 511,213 C535.4,222.97 557.001,232.8443 577.451,242.5643 " fill="none" id="UC2-to-Auth" style="stroke:#003366;stroke-width:1.0;stroke-dasharray:7.0,7.0;"/><polygon fill="#003366" points="582.87,245.14,576.4586,237.6638,578.3541,242.9936,573.0243,244.8891,582.87,245.14" style="stroke:#003366;stroke-width:1.0;"/><text fill="#000000" font-family="sans-serif" font-size="13" lengthAdjust="spacing" textLength="57" x="453" y="187.897">&#171;include&#187;</text></g><!--link UC3 to Auth--><g id="link_UC3_Auth"><path d="M373.67,229.06 C427.6,236.18 493.2217,244.8544 544.4817,251.6244 " fill="none" id="UC3-to-Auth" style="stroke:#003366;stroke-width:1.0;stroke-dasharray:7.0,7.0;"/><polygon fill="#003366" points="550.43,252.41,542.0312,247.266,545.473,251.7553,540.9837,255.1972,550.43,252.41" style="stroke:#003366;stroke-width:1.0;"/><text fill="#000000" font-family="sans-serif" font-size="13" lengthAdjust="spacing" textLength="57" x="453" y="235.897">&#171;include&#187;</text></g><!--link UC4 to Auth--><g id="link_UC4_Auth"><path d="M420.13,297.05 C449.98,294.84 481.73,291.63 511,287 C530.02,283.99 544.8442,280.704 562.7142,276.044 " fill="none" id="UC4-to-Auth" style="stroke:#003366;stroke-width:1.0;stroke-dasharray:7.0,7.0;"/><polygon fill="#003366" points="568.52,274.53,558.8019,272.9304,563.6818,275.7917,560.8206,280.6716,568.52,274.53" style="stroke:#003366;stroke-width:1.0;"/><text fill="#000000" font-family="sans-serif" font-size="13" lengthAdjust="spacing" textLength="57" x="453" y="282.897">&#171;include&#187;</text></g><!--link UC5 to Auth--><g id="link_UC5_Auth"><path d="M359.62,370.9 C402.98,360.04 461.68,343.3 511,322 C539.74,309.59 565.3883,294.2283 586.0183,280.8283 " fill="none" id="UC5-to-Auth" style="stroke:#003366;stroke-width:1.0;stroke-dasharray:7.0,7.0;"/><polygon fill="#003366" points="591.05,277.56,581.3236,279.108,586.8569,280.2836,585.6813,285.8169,591.05,277.56" style="stroke:#003366;stroke-width:1.0;"/><text fill="#000000" font-family="sans-serif" font-size="13" lengthAdjust="spacing" textLength="57" x="453" y="317.897">&#171;include&#187;</text></g><!--link Dashboard to Auth--><g id="link_Dashboard_Auth"><path d="M362.06,445.27 C381.61,438.62 402.95,430.66 422,422 C463.51,403.14 475.14,399.16 511,371 C547.25,342.53 578.9839,306.2264 597.8239,283.1664 " fill="none" id="Dashboard-to-Auth" style="stroke:#003366;stroke-width:1.0;stroke-dasharray:7.0,7.0;"/><polygon fill="#003366" points="601.62,278.52,592.8282,282.9589,598.4566,282.392,599.0234,288.0204,601.62,278.52" style="stroke:#003366;stroke-width:1.0;"/><text fill="#000000" font-family="sans-serif" font-size="13" lengthAdjust="spacing" textLength="57" x="453" y="366.897">&#171;include&#187;</text></g><!--SRC=[ZP11Rjim44NtFCL0NMILfB7i50WC0Qq3TzEkaXnWB8ubmZHfS8O8WiBtIS_XYvLcPDL2BQ0216d-lFdympdBcwLA0GJl1Nwb7u2bTxBmrWVuz3a_MVrX7FLgMTxVz-fpQ-gD8sQuIze-lLXBuZxSlc6zQOAFJdVJoyboklpIaP6fHgR_OZ44_zgHbzBirVossuStnkqmu1QuHUrVZMjWZPP9MLeBY8TWcbP0cq2r6E_E9dOf13RqT7I2OnjTOqcfZwMAhtfhd649A1H30SYG9QLw5egVNiVqFMFJ6KMN_RHpyVtmEr20scztGWnHZ3MSRJdxlYpkBWumMaidP78PyL78eQjxhXno2-_Mfeb7DgzzU9UGCl0Ro-5zIztGzA8vEIRJ97SvcS_-CUTe9Q62AqiOGHEiVD0PVqHkLnw37WuzNM6KbfoOjQ7kOfEWzahbUuJhwofVoNar6LJbe9eEgjbPzJU1IePmSrFbe-01vdFZQXirLLLgJSPRvNXhEjwQZRNwH2F07m00]--></g></svg>