<?xml version="1.0" encoding="us-ascii" standalone="no"?><svg xmlns="http://www.w3.org/2000/svg" xmlns:xlink="http://www.w3.org/1999/xlink" contentStyleType="text/css" height="757px" preserveAspectRatio="none" style="width:705px;height:757px;background:#FFFFFF;" version="1.1" viewBox="0 0 705 757" width="705px" zoomAndPan="magnify"><defs/><g><!--cluster Module Coordination--><g id="cluster_Module Coordination"><rect fill="none" height="739" rx="2.5" ry="2.5" style="stroke:#003366;stroke-width:1.0;" width="562" x="137" y="12"/><text fill="#000000" font-family="sans-serif" font-size="12" font-weight="bold" lengthAdjust="spacing" textLength="126" x="355" y="31.8281">Module Coordination</text></g><g id="elem_UC7"><ellipse cx="261.7817" cy="79.1281" fill="#F2F4F7" rx="80.7817" ry="21.6281" style="stroke:#003366;stroke-width:1.0;"/><text fill="#000000" font-family="sans-serif" font-size="12" lengthAdjust="spacing" textLength="88" x="217.7817" y="81.7841">G&#233;rer &#233;tudiants</text></g><g id="elem_UC11"><ellipse cx="262.0244" cy="157.1281" fill="#F2F4F7" rx="85.0244" ry="21.6281" style="stroke:#003366;stroke-width:1.0;"/><text fill="#000000" font-family="sans-serif" font-size="12" lengthAdjust="spacing" textLength="94" x="215.0244" y="159.7841">G&#233;rer les projets</text></g><g id="elem_UC4"><ellipse cx="261.8431" cy="235.8686" fill="#F2F4F7" rx="99.8431" ry="22.3686" style="stroke:#003366;stroke-width:1.0;"/><text fill="#000000" font-family="sans-serif" font-size="12" lengthAdjust="spacing" textLength="120" x="201.8431" y="238.5246">Planifier soutenances</text></g><g id="elem_UC1"><ellipse cx="261.9178" cy="315.1281" fill="#F2F4F7" rx="74.4178" ry="21.6281" style="stroke:#003366;stroke-width:1.0;"/><text fill="#000000" font-family="sans-serif" font-size="12" lengthAdjust="spacing" textLength="79" x="222.4178" y="317.7841">Assigner jurys</text></g><g id="elem_UC3"><ellipse cx="262.196" cy="393.1281" fill="#F2F4F7" rx="82.196" ry="21.6281" style="stroke:#003366;stroke-width:1.0;"/><text fill="#000000" font-family="sans-serif" font-size="12" lengthAdjust="spacing" textLength="90" x="217.196" y="395.7841">Valider planning</text></g><g id="elem_UC9"><ellipse cx="261.8026" cy="471.1281" fill="#F2F4F7" rx="92.8026" ry="21.6281" style="stroke:#003366;stroke-width:1.0;"/><text fill="#000000" font-family="sans-serif" font-size="12" lengthAdjust="spacing" textLength="105" x="209.3026" y="473.7841">Consulter planning</text></g><g id="elem_UC5"><ellipse cx="261.9481" cy="550.0896" fill="#F2F4F7" rx="100.9481" ry="22.5896" style="stroke:#003366;stroke-width:1.0;"/><text fill="#000000" font-family="sans-serif" font-size="12" lengthAdjust="spacing" textLength="123" x="200.4481" y="552.7456">G&#233;n&#233;rer convocations</text></g><g id="elem_UC6"><ellipse cx="261.9555" cy="632.1911" fill="#F2F4F7" rx="108.9555" ry="24.1911" style="stroke:#003366;stroke-width:1.0;"/><text fill="#000000" font-family="sans-serif" font-size="12" lengthAdjust="spacing" textLength="144" x="189.9555" y="634.8471">G&#233;n&#233;rer planning g&#233;n&#233;ral</text></g><g id="elem_UC2"><ellipse cx="261.8026" cy="713.1281" fill="#F2F4F7" rx="92.8026" ry="21.6281" style="stroke:#003366;stroke-width:1.0;"/><text fill="#000000" font-family="sans-serif" font-size="12" lengthAdjust="spacing" textLength="105" x="209.3026" y="715.7841">Consulter rapports</text></g><g id="elem_UC8"><ellipse cx="589.0391" cy="85.1281" fill="#F2F4F7" rx="76.5391" ry="21.6281" style="stroke:#003366;stroke-width:1.0;"/><text fill="#000000" font-family="sans-serif" font-size="12" lengthAdjust="spacing" textLength="82" x="548.0391" y="87.7841">Importer listes</text></g><g id="elem_Check"><ellipse cx="588.9533" cy="356.1281" fill="#F2F4F7" rx="77.9533" ry="21.6281" style="stroke:#003366;stroke-width:1.0;"/><text fill="#000000" font-family="sans-serif" font-size="12" lengthAdjust="spacing" textLength="84" x="546.9533" y="358.7841">V&#233;rifier conflits</text></g><g id="elem_UC10"><ellipse cx="589.2168" cy="471.1281" fill="#F2F4F7" rx="94.2168" ry="21.6281" style="stroke:#003366;stroke-width:1.0;"/><text fill="#000000" font-family="sans-serif" font-size="12" lengthAdjust="spacing" textLength="107" x="535.7168" y="473.7841">Rechercher / Filtrer</text></g><!--entity Coord--><g id="elem_Coord"><ellipse cx="48" cy="358.5" fill="#F2F4F7" rx="8" ry="8" style="stroke:#003366;stroke-width:1.0;"/><path d="M48,366.5 L48,393.5 M35,374.5 L61,374.5 M48,393.5 L35,408.5 M48,393.5 L61,408.5 " fill="none" style="stroke:#003366;stroke-width:1.0;"/><text fill="#000000" font-family="sans-serif" font-size="12" lengthAdjust="spacing" textLength="74" x="11" y="428.3281">Coordinateur</text></g><!--link UC7 to UC8--><g id="link_UC7_UC8"><path d="M342.92,80.48 C394.7,81.43 455.721,82.5591 506.581,83.4991 " fill="none" id="UC7-to-UC8" style="stroke:#003366;stroke-width:1.0;stroke-dasharray:7.0,7.0;"/><polygon fill="#003366" points="512.58,83.61,503.6555,79.4444,507.5809,83.5176,503.5076,87.443,512.58,83.61" style="stroke:#003366;stroke-width:1.0;"/><text fill="#003366" font-family="sans-serif" font-size="12" lengthAdjust="spacing" textLength="50" x="408" y="72.8281">&#171;extend&#187;</text></g><!--link UC1 to Check--><g id="link_UC1_Check"><path d="M330.74,323.55 C385.52,330.46 456.4473,339.3983 511.8773,346.3983 " fill="none" id="UC1-to-Check" style="stroke:#003366;stroke-width:1.0;stroke-dasharray:7.0,7.0;"/><polygon fill="#003366" points="517.83,347.15,509.4021,342.0539,512.8694,346.5235,508.3998,349.9909,517.83,347.15" style="stroke:#003366;stroke-width:1.0;"/><text fill="#003366" font-family="sans-serif" font-size="12" lengthAdjust="spacing" textLength="52" x="407" y="324.8281">&#171;include&#187;</text></g><!--link UC3 to Check--><g id="link_UC3_Check"><path d="M342.52,397.09 C379.88,397.77 424.91,396.8 465,391 C490.27,387.35 511.9367,381.7109 534.4367,374.6309 " fill="none" id="UC3-to-Check" style="stroke:#003366;stroke-width:1.0;stroke-dasharray:7.0,7.0;"/><polygon fill="#003366" points="540.16,372.83,530.3744,371.7159,535.3906,374.3308,532.7756,379.347,540.16,372.83" style="stroke:#003366;stroke-width:1.0;"/><text fill="#003366" font-family="sans-serif" font-size="12" lengthAdjust="spacing" textLength="52" x="407" y="381.8281">&#171;include&#187;</text></g><!--link UC9 to UC10--><g id="link_UC9_UC10"><path d="M355.26,471 C398.99,471 445.12,471 488.94,471 " fill="none" id="UC9-to-UC10" style="stroke:#003366;stroke-width:1.0;stroke-dasharray:7.0,7.0;"/><polygon fill="#003366" points="494.94,471,485.94,467,489.94,471,485.94,475,494.94,471" style="stroke:#003366;stroke-width:1.0;"/><text fill="#003366" font-family="sans-serif" font-size="12" lengthAdjust="spacing" textLength="50" x="408" y="461.8281">&#171;extend&#187;</text></g><!--link Coord to UC7--><g id="link_Coord_UC7"><path d="M49.36,349.43 C52.27,289.17 66.55,180.71 129,118 C144.51,102.42 160.1261,94.5592 181.1961,88.8892 " fill="none" id="Coord-to-UC7" style="stroke:#003366;stroke-width:1.0;"/><polygon fill="#003366" points="186.99,87.33,177.2597,85.8061,182.1618,88.6293,179.3386,93.5313,186.99,87.33" style="stroke:#003366;stroke-width:1.0;"/></g><!--link Coord to UC11--><g id="link_Coord_UC11"><path d="M55.43,349.48 C64.3,304.8 84.55,236.28 129,196 C144.85,181.64 159.9726,174.1692 180.4526,168.4292 " fill="none" id="Coord-to-UC11" style="stroke:#003366;stroke-width:1.0;"/><polygon fill="#003366" points="186.23,166.81,176.4844,165.3873,181.4155,168.1594,178.6434,173.0904,186.23,166.81" style="stroke:#003366;stroke-width:1.0;"/></g><!--link Coord to UC4--><g id="link_Coord_UC4"><path d="M69.47,349.33 C83.13,324.56 103.3,294.84 129,276 C145.03,264.25 158.8086,257.6851 177.8586,251.7851 " fill="none" id="Coord-to-UC4" style="stroke:#003366;stroke-width:1.0;"/><polygon fill="#003366" points="183.59,250.01,173.8095,248.8517,178.8138,251.4892,176.1763,256.4936,183.59,250.01" style="stroke:#003366;stroke-width:1.0;"/></g><!--link Coord to UC1--><g id="link_Coord_UC1"><path d="M90.35,371.22 C102.61,365.21 116.18,358.98 129,354 C153.73,344.4 176.0508,337.4028 199.9508,330.7328 " fill="none" id="Coord-to-UC1" style="stroke:#003366;stroke-width:1.0;"/><polygon fill="#003366" points="205.73,329.12,195.986,327.6865,200.914,330.464,198.1365,335.392,205.73,329.12" style="stroke:#003366;stroke-width:1.0;"/></g><!--link Coord to UC3--><g id="link_Coord_UC3"><path d="M90.13,393 C115.53,393 143.02,393 173.61,393 " fill="none" id="Coord-to-UC3" style="stroke:#003366;stroke-width:1.0;"/><polygon fill="#003366" points="179.61,393,170.61,389,174.61,393,170.61,397,179.61,393" style="stroke:#003366;stroke-width:1.0;"/></g><!--link Coord to UC9--><g id="link_Coord_UC9"><path d="M90.35,414.78 C102.61,420.79 116.18,427.02 129,432 C151.5,440.74 171.0199,447.0051 193.3999,453.3851 " fill="none" id="Coord-to-UC9" style="stroke:#003366;stroke-width:1.0;"/><polygon fill="#003366" points="199.17,455.03,191.6114,448.7159,194.3616,453.6592,189.4182,456.4094,199.17,455.03" style="stroke:#003366;stroke-width:1.0;"/></g><!--link Coord to UC5--><g id="link_Coord_UC5"><path d="M69.47,436.67 C83.13,461.44 103.3,491.16 129,510 C144.93,521.68 158.5706,528.2083 177.5106,534.0983 " fill="none" id="Coord-to-UC5" style="stroke:#003366;stroke-width:1.0;"/><polygon fill="#003366" points="183.24,535.88,175.8338,529.3878,178.4655,534.3952,173.4582,537.027,183.24,535.88" style="stroke:#003366;stroke-width:1.0;"/></g><!--link Coord to UC6--><g id="link_Coord_UC6"><path d="M55.68,436.75 C64.73,481.29 85.1,549.39 129,590 C142.24,602.25 153.4007,608.9086 170.5607,615.0486 " fill="none" id="Coord-to-UC6" style="stroke:#003366;stroke-width:1.0;"/><polygon fill="#003366" points="176.21,617.07,169.0837,610.2718,171.5023,615.3855,166.3885,617.8041,176.21,617.07" style="stroke:#003366;stroke-width:1.0;"/></g><!--link Coord to UC2--><g id="link_Coord_UC2"><path d="M49.14,436.51 C51.74,497.62 65.61,608.59 129,673 C143.03,687.25 156.2099,694.6808 175.3399,700.6208 " fill="none" id="Coord-to-UC2" style="stroke:#003366;stroke-width:1.0;"/><polygon fill="#003366" points="181.07,702.4,173.661,695.9111,176.2949,700.9173,171.2887,703.5512,181.07,702.4" style="stroke:#003366;stroke-width:1.0;"/></g><!--SRC=[XPBVIiCm5CRlynJ7tc-k-wUJKP22ueKWWjw7zBJDp9AIFwA83xJds8kPfbrPdCD2A5- -NxwJdEJ2rhX5Q4g4KgijZ8d0qe9Le7bLMoYuHcQvaeHGPfM695TA5rnIYqudG0s42K9QZifA82IFgd3-Fv1-UG9V1Fpd339gF7E_tsdKiDzPLt0ghGbPB_dLdvX00urM6nouD8t19q4bBxbdZN8M9PKC3-myHc-DuPNqvCRfpo4lPbwfu8L76XyhkQnwQXPJkPB62NlAhKvE8Rk3C2NV5GijELHUd6CFcL1rKrJqAvRdTg5fqoWzz6XAOl1XsxfjExcnGtUkVvtSL-eQwVTQ2jwdvJMojvXyHbQZRWTSmXqNrc_wqCq9wMhx2uNnE6lBm0sir_ZXxwR8ijvCWncoWyqb4wx0mP_zuw_wy7GIftyJ4buVZ4PPU5J7oZ-TOpcFpKZD8hMAr29IoqXDoGy0]--></g></svg>