<?xml version="1.0" encoding="us-ascii" standalone="no"?><svg xmlns="http://www.w3.org/2000/svg" xmlns:xlink="http://www.w3.org/1999/xlink" contentStyleType="text/css" height="758px" preserveAspectRatio="none" style="width:961px;height:758px;background:#FFFFFF;" version="1.1" viewBox="0 0 961 758" width="961px" zoomAndPan="magnify"><defs/><g><!--cluster Module Coordination--><g id="cluster_Module Coordination"><rect fill="none" height="745" rx="2.5" ry="2.5" style="stroke:#003366;stroke-width:1.0;" width="813" x="142" y="7"/><text fill="#000000" font-family="sans-serif" font-size="14" font-weight="bold" lengthAdjust="spacing" textLength="147" x="475" y="23.9659">Module Coordination</text></g><g id="elem_UC1"><ellipse cx="240.9037" cy="115.8807" fill="#F2F4F7" rx="77.4037" ry="17.8807" style="stroke:#003366;stroke-width:1.0;"/><text fill="#000000" font-family="sans-serif" font-size="14" lengthAdjust="spacing" textLength="96" x="189.9037" y="120.6137">Assigner jurys</text></g><g id="elem_UC2"><ellipse cx="555.7738" cy="389.1548" fill="#F2F4F7" rx="88.7738" ry="20.1548" style="stroke:#003366;stroke-width:1.0;"/><text fill="#000000" font-family="sans-serif" font-size="14" lengthAdjust="spacing" textLength="127" x="489.2738" y="393.8877">Consulter rapports</text></g><g id="elem_UC3"><ellipse cx="241.0993" cy="188.0199" fill="#F2F4F7" rx="83.0993" ry="19.0199" style="stroke:#003366;stroke-width:1.0;"/><text fill="#000000" font-family="sans-serif" font-size="14" lengthAdjust="spacing" textLength="112" x="182.0993" y="192.7528">Valider planning</text></g><g id="elem_UC4"><ellipse cx="555.9255" cy="466.0851" fill="#F2F4F7" rx="95.9255" ry="21.5851" style="stroke:#003366;stroke-width:1.0;"/><text fill="#000000" font-family="sans-serif" font-size="14" lengthAdjust="spacing" textLength="145" x="480.4255" y="470.8181">Planifier soutenances</text></g><g id="elem_UC5"><ellipse cx="555.8322" cy="544.1664" fill="#F2F4F7" rx="96.3322" ry="21.6664" style="stroke:#003366;stroke-width:1.0;"/><text fill="#000000" font-family="sans-serif" font-size="14" lengthAdjust="spacing" textLength="146" x="479.8322" y="548.8994">G&#233;n&#233;rer convocations</text></g><g id="elem_UC6"><ellipse cx="555.796" cy="625.9592" fill="#F2F4F7" rx="112.796" ry="24.9592" style="stroke:#003366;stroke-width:1.0;"/><text fill="#000000" font-family="sans-serif" font-size="14" lengthAdjust="spacing" textLength="185" x="460.296" y="630.6922">G&#233;n&#233;rer fiches d'&#233;valuation</text></g><g id="elem_UC7"><ellipse cx="555.916" cy="315.0832" fill="#F2F4F7" rx="80.916" ry="18.5832" style="stroke:#003366;stroke-width:1.0;"/><text fill="#000000" font-family="sans-serif" font-size="14" lengthAdjust="spacing" textLength="106" x="499.916" y="319.8162">G&#233;rer &#233;tudiants</text></g><g id="elem_UC8"><ellipse cx="240.9397" cy="260.0879" fill="#F2F4F7" rx="78.4397" ry="18.0879" style="stroke:#003366;stroke-width:1.0;"/><text fill="#000000" font-family="sans-serif" font-size="14" lengthAdjust="spacing" textLength="99" x="188.4397" y="264.8209">Importer listes</text></g><g id="elem_Dashboard"><ellipse cx="555.8351" cy="710.767" fill="#F2F4F7" rx="109.3351" ry="24.267" style="stroke:#003366;stroke-width:1.0;"/><text fill="#000000" font-family="sans-serif" font-size="14" lengthAdjust="spacing" textLength="177" x="464.3351" y="715.5">Consulter tableau de bord</text></g><g id="elem_Check"><ellipse cx="555.9912" cy="152.7982" fill="#F2F4F7" rx="79.4912" ry="18.2982" style="stroke:#003366;stroke-width:1.0;"/><text fill="#000000" font-family="sans-serif" font-size="14" lengthAdjust="spacing" textLength="102" x="501.9912" y="157.5312">V&#233;rifier conflits</text></g><g id="elem_Auth"><ellipse cx="863.7128" cy="389.0426" fill="#F2F4F7" rx="75.7128" ry="17.5426" style="stroke:#003366;stroke-width:1.0;"/><text fill="#000000" font-family="sans-serif" font-size="14" lengthAdjust="spacing" textLength="91" x="815.2128" y="393.7755">S'authentifier</text></g><!--entity Coord--><g id="elem_Coord"><ellipse cx="50.5" cy="407" fill="#F2F4F7" rx="8" ry="8" style="stroke:#003366;stroke-width:1.0;"/><path d="M50.5,415 L50.5,442 M37.5,423 L63.5,423 M50.5,442 L37.5,457 M50.5,442 L63.5,457 " fill="none" style="stroke:#003366;stroke-width:1.0;"/><text fill="#000000" font-family="sans-serif" font-size="14" lengthAdjust="spacing" textLength="89" x="6" y="473.9659">Coordinateur</text></g><!--link Coord to UC1--><g id="link_Coord_UC1"><path d="M51.76,397.98 C54.34,336.66 68.23,219.38 134,151 C145.42,139.13 155.2454,133.1697 170.8854,127.9797 " fill="none" id="Coord-to-UC1" style="stroke:#003366;stroke-width:1.0;"/><polygon fill="#003366" points="176.58,126.09,166.7782,125.1281,171.8345,127.6648,169.2978,132.721,176.58,126.09" style="stroke:#003366;stroke-width:1.0;"/></g><!--link Coord to UC2--><g id="link_Coord_UC2"><path d="M95.29,428.86 C105.04,427.05 115.35,425.31 125,424 C243.75,407.9 376.0398,398.6028 463.0498,393.6228 " fill="none" id="Coord-to-UC2" style="stroke:#003366;stroke-width:1.0;"/><polygon fill="#003366" points="469.04,393.28,459.8261,389.8008,464.0482,393.5657,460.2833,397.7877,469.04,393.28" style="stroke:#003366;stroke-width:1.0;"/></g><!--link Coord to UC3--><g id="link_Coord_UC3"><path d="M56.65,397.65 C64.81,349.87 85.17,270.88 134,224 C145.57,212.89 155.0277,207.1944 170.2077,201.8744 " fill="none" id="Coord-to-UC3" style="stroke:#003366;stroke-width:1.0;"/><polygon fill="#003366" points="175.87,199.89,166.0535,199.0918,171.1514,201.5437,168.6994,206.6415,175.87,199.89" style="stroke:#003366;stroke-width:1.0;"/></g><!--link Coord to UC4--><g id="link_Coord_UC4"><path d="M95.3,440.44 C176.89,444.97 347.7192,454.477 456.7292,460.537 " fill="none" id="Coord-to-UC4" style="stroke:#003366;stroke-width:1.0;"/><polygon fill="#003366" points="462.72,460.87,453.9559,456.3766,457.7277,460.5925,453.5119,464.3643,462.72,460.87" style="stroke:#003366;stroke-width:1.0;"/></g><!--link Coord to UC5--><g id="link_Coord_UC5"><path d="M95.4,451.57 C107.82,455.19 121.39,458.94 134,462 C253.23,490.89 387.4473,515.54 472.1973,530.16 " fill="none" id="Coord-to-UC5" style="stroke:#003366;stroke-width:1.0;"/><polygon fill="#003366" points="478.11,531.18,469.921,525.7083,473.1828,530.33,468.561,533.5918,478.11,531.18" style="stroke:#003366;stroke-width:1.0;"/></g><!--link Coord to UC6--><g id="link_Coord_UC6"><path d="M91.24,478.36 C104.03,489.58 118.83,500.89 134,509 C238.87,565.05 367.2539,595.2726 455.6139,611.0926 " fill="none" id="Coord-to-UC6" style="stroke:#003366;stroke-width:1.0;"/><polygon fill="#003366" points="461.52,612.15,453.3658,606.6265,456.5983,611.2688,451.9559,614.5012,461.52,612.15" style="stroke:#003366;stroke-width:1.0;"/></g><!--link Coord to UC7--><g id="link_Coord_UC7"><path d="M95.26,406.64 C107.34,399.21 120.77,392 134,387 C248.61,343.66 384.699,326.7467 471.019,319.8667 " fill="none" id="Coord-to-UC7" style="stroke:#003366;stroke-width:1.0;"/><polygon fill="#003366" points="477,319.39,467.7106,316.1177,472.0158,319.7873,468.3463,324.0924,477,319.39" style="stroke:#003366;stroke-width:1.0;"/></g><!--link Coord to Dashboard--><g id="link_Coord_Dashboard"><path d="M63.84,478.16 C76.29,512.15 98.76,559.73 134,588 C225.77,661.62 354.1591,690.4137 446.2591,702.2737 " fill="none" id="Coord-to-Dashboard" style="stroke:#003366;stroke-width:1.0;"/><polygon fill="#003366" points="452.21,703.04,443.7946,697.9233,447.2509,702.4014,442.7728,705.8578,452.21,703.04" style="stroke:#003366;stroke-width:1.0;"/></g><!--link UC8 to UC7--><g id="link_UC8_UC7"><path d="M303.84,270.87 C358.09,280.4 430.7407,293.1608 485.5007,302.7908 " fill="none" id="UC8-to-UC7" style="stroke:#003366;stroke-width:1.0;stroke-dasharray:7.0,7.0;"/><polygon fill="#003366" points="491.41,303.83,483.2388,298.3316,486.4856,302.964,481.8532,306.2107,491.41,303.83" style="stroke:#003366;stroke-width:1.0;"/><text fill="#000000" font-family="sans-serif" font-size="13" lengthAdjust="spacing" textLength="56" x="355.5" y="276.897">&#171;extend&#187;</text></g><!--link UC1 to Check--><g id="link_UC1_Check"><path d="M310.3,124.07 C361.93,130.18 426.6015,137.8258 478.7215,143.9858 " fill="none" id="UC1-to-Check" style="stroke:#003366;stroke-width:1.0;stroke-dasharray:7.0,7.0;"/><polygon fill="#003366" points="484.68,144.69,476.2117,139.6613,479.7146,144.1031,475.2727,147.606,484.68,144.69" style="stroke:#003366;stroke-width:1.0;"/><text fill="#000000" font-family="sans-serif" font-size="13" lengthAdjust="spacing" textLength="57" x="355" y="126.897">&#171;include&#187;</text></g><!--link UC3 to Check--><g id="link_UC3_Check"><path d="M323.98,188.58 C352.27,187.99 384.1,186.45 413,183 C442.65,179.46 469.4258,174.1285 495.9258,167.9685 " fill="none" id="UC3-to-Check" style="stroke:#003366;stroke-width:1.0;stroke-dasharray:7.0,7.0;"/><polygon fill="#003366" points="501.77,166.61,492.0981,164.7516,496.8998,167.7421,493.9094,172.5439,501.77,166.61" style="stroke:#003366;stroke-width:1.0;"/><text fill="#000000" font-family="sans-serif" font-size="13" lengthAdjust="spacing" textLength="57" x="355" y="178.897">&#171;include&#187;</text></g><!--link Check to Auth--><g id="link_Check_Auth"><path d="M625.1,162.27 C666.96,170.79 719.72,186.89 758,217 C811.55,259.13 842.1145,331.2258 854.6145,365.8858 " fill="none" id="Check-to-Auth" style="stroke:#003366;stroke-width:1.0;stroke-dasharray:7.0,7.0;"/><polygon fill="#003366" points="856.65,371.53,857.3595,361.7067,854.9537,366.8265,849.8339,364.4208,856.65,371.53" style="stroke:#003366;stroke-width:1.0;"/><text fill="#000000" font-family="sans-serif" font-size="13" lengthAdjust="spacing" textLength="57" x="700" y="181.897">&#171;include&#187;</text></g><!--link UC1 to Auth--><g id="link_UC1_Auth"><path d="M307.22,106.54 C392.02,96.4 544.07,85.65 669,117 C711.42,127.64 727.3,127.85 758,159 C820.35,222.25 848.1243,323.496 857.5643,365.496 " fill="none" id="UC1-to-Auth" style="stroke:#003366;stroke-width:1.0;stroke-dasharray:7.0,7.0;"/><polygon fill="#003366" points="858.88,371.35,860.809,361.6919,857.7835,366.4717,853.0037,363.4462,858.88,371.35" style="stroke:#003366;stroke-width:1.0;"/><text fill="#000000" font-family="sans-serif" font-size="13" lengthAdjust="spacing" textLength="57" x="527.5" y="92.897">&#171;include&#187;</text></g><!--link UC2 to Auth--><g id="link_UC2_Auth"><path d="M645.36,389 C690.48,389 738.76,389 781.77,389 " fill="none" id="UC2-to-Auth" style="stroke:#003366;stroke-width:1.0;stroke-dasharray:7.0,7.0;"/><polygon fill="#003366" points="787.77,389,778.77,385,782.77,389,778.77,393,787.77,389" style="stroke:#003366;stroke-width:1.0;"/><text fill="#000000" font-family="sans-serif" font-size="13" lengthAdjust="spacing" textLength="57" x="700" y="384.897">&#171;include&#187;</text></g><!--link UC3 to Auth--><g id="link_UC3_Auth"><path d="M312.54,197.71 C398.36,210.74 546.92,237.18 669,279 C710.56,293.24 719.66,300.55 758,322 C786.4,337.89 812.6802,354.9783 833.5402,369.0883 " fill="none" id="UC3-to-Auth" style="stroke:#003366;stroke-width:1.0;stroke-dasharray:7.0,7.0;"/><polygon fill="#003366" points="838.51,372.45,833.2964,364.0943,834.3685,369.6486,828.8141,370.7207,838.51,372.45" style="stroke:#003366;stroke-width:1.0;"/><text fill="#000000" font-family="sans-serif" font-size="13" lengthAdjust="spacing" textLength="57" x="527.5" y="217.897">&#171;include&#187;</text></g><!--link UC4 to Auth--><g id="link_UC4_Auth"><path d="M621.31,450.16 C660.78,440.4 712.34,427.58 758,416 C775.8,411.49 789.4814,407.9734 806.7514,403.5034 " fill="none" id="UC4-to-Auth" style="stroke:#003366;stroke-width:1.0;stroke-dasharray:7.0,7.0;"/><polygon fill="#003366" points="812.56,402,802.8448,400.3828,807.7195,403.2529,804.8494,408.1275,812.56,402" style="stroke:#003366;stroke-width:1.0;"/><text fill="#000000" font-family="sans-serif" font-size="13" lengthAdjust="spacing" textLength="57" x="700" y="411.897">&#171;include&#187;</text></g><!--link UC5 to Auth--><g id="link_UC5_Auth"><path d="M612.65,526.58 C630.85,520.36 651,512.93 669,505 C733.88,476.43 798.824,433.6956 834.184,409.1056 " fill="none" id="UC5-to-Auth" style="stroke:#003366;stroke-width:1.0;stroke-dasharray:7.0,7.0;"/><polygon fill="#003366" points="839.11,405.68,829.4373,407.5344,835.005,408.5347,834.0048,414.1024,839.11,405.68" style="stroke:#003366;stroke-width:1.0;"/><text fill="#000000" font-family="sans-serif" font-size="13" lengthAdjust="spacing" textLength="57" x="700" y="455.897">&#171;include&#187;</text></g><!--link UC6 to Auth--><g id="link_UC6_Auth"><path d="M620.01,605.33 C636.38,599.02 653.7,591.48 669,583 C712.31,559.01 722.24,550.25 758,516 C795.12,480.45 828.1901,436.9763 846.6401,411.3963 " fill="none" id="UC6-to-Auth" style="stroke:#003366;stroke-width:1.0;stroke-dasharray:7.0,7.0;"/><polygon fill="#003366" points="850.15,406.53,841.641,411.4895,847.2251,410.5852,848.1294,416.1693,850.15,406.53" style="stroke:#003366;stroke-width:1.0;"/><text fill="#000000" font-family="sans-serif" font-size="13" lengthAdjust="spacing" textLength="57" x="700" y="511.897">&#171;include&#187;</text></g><!--link UC7 to Auth--><g id="link_UC7_Auth"><path d="M614.27,328.02 C654.53,337.26 709.63,350.1 758,362 C775.92,366.41 789.7124,369.9128 807.0524,374.4128 " fill="none" id="UC7-to-Auth" style="stroke:#003366;stroke-width:1.0;stroke-dasharray:7.0,7.0;"/><polygon fill="#003366" points="812.86,375.92,805.1533,369.7875,808.0203,374.664,803.1438,377.531,812.86,375.92" style="stroke:#003366;stroke-width:1.0;"/><text fill="#000000" font-family="sans-serif" font-size="13" lengthAdjust="spacing" textLength="57" x="700" y="344.897">&#171;include&#187;</text></g><!--link Dashboard to Auth--><g id="link_Dashboard_Auth"><path d="M621.64,691.28 C637.64,685.19 654.39,677.74 669,669 C714.13,641.99 725.57,632.41 758,591 C805.95,529.76 839.842,448.7523 853.902,412.0823 " fill="none" id="Dashboard-to-Auth" style="stroke:#003366;stroke-width:1.0;stroke-dasharray:7.0,7.0;"/><polygon fill="#003366" points="856.05,406.48,849.0931,413.4514,854.26,411.1486,856.5628,416.3155,856.05,406.48" style="stroke:#003366;stroke-width:1.0;"/><text fill="#000000" font-family="sans-serif" font-size="13" lengthAdjust="spacing" textLength="57" x="700" y="586.897">&#171;include&#187;</text></g><!--SRC=[ZP7RYjim48RlzHH3Uh5NkstYn2ab1BOkAOKM2ZtSJoJPLgELWWwxNKeUAC-H5-jOSTnLkuOQZ3tpVpFCFxFouL7BDGDmrWRuHJy06sj2PRLryE9LUbBsep9oo1P5MGxPhwtYEoEzXodb3lGY3yITkxr5lckSZKRqrPlPPhvPzcJqagEN_yMYS_QX9v-Rvi1MBti_VgVC7XtUWMzHs0Tb6gXHUycqh0C42qurRG2XdEH1MSFE8qygQvrG1eECRWBe8IKOwp0qZPOm-MH5fEz0KlMad-hYPdBhlMgCTF0ZkaUV6dshfZbJMUEZ3WGvtE-j2nTkbdFVKIj1r5wZCMIafugS-aoggXLntiOW3HekBmtdEVh-T3IdeoEKMtDlUR9mOHTZRAruAps8gzFn7dNiVQUQyf-Qhk1q354eD8ElPOvzkEjC4wYL3yEihyUM572h9KOG4hQq-OI_GzzkBTA1yetH0ETTaC5Qgtw2gfLybvDVhZ26LfgGy4JTKe8T64ltXUlhTRhSqsYMHKKMpRDeaKLb5YsVH7zyCDe0tDma0Dx0QYL_qZ75UjqfqwGa6qbJXkie98aqngXspdLgP-qlSUZwZ4PEnwLYN9gFIujngHoNbcFIiBSHu3S0]--></g></svg>