<?xml version="1.0" encoding="us-ascii" standalone="no"?><svg xmlns="http://www.w3.org/2000/svg" xmlns:xlink="http://www.w3.org/1999/xlink" contentStyleType="text/css" height="915px" preserveAspectRatio="none" style="width:703px;height:915px;background:#FFFFFF;" version="1.1" viewBox="0 0 703 915" width="703px" zoomAndPan="magnify"><defs/><g><!--cluster Module Coordination--><g id="cluster_Module Coordination"><rect fill="none" height="739" rx="2.5" ry="2.5" style="stroke:#003366;stroke-width:1.0;" width="560" x="137" y="12"/><text fill="#000000" font-family="sans-serif" font-size="12" font-weight="bold" lengthAdjust="spacing" textLength="126" x="354" y="31.8281">Module Coordination</text></g><g id="elem_UC1"><ellipse cx="261.9178" cy="79.1281" fill="#F2F4F7" rx="74.4178" ry="21.6281" style="stroke:#003366;stroke-width:1.0;"/><text fill="#000000" font-family="sans-serif" font-size="12" lengthAdjust="spacing" textLength="79" x="222.4178" y="81.7841">Assigner jurys</text></g><g id="elem_UC2"><ellipse cx="261.8026" cy="157.1281" fill="#F2F4F7" rx="92.8026" ry="21.6281" style="stroke:#003366;stroke-width:1.0;"/><text fill="#000000" font-family="sans-serif" font-size="12" lengthAdjust="spacing" textLength="105" x="209.3026" y="159.7841">Consulter rapports</text></g><g id="elem_UC3"><ellipse cx="262.196" cy="235.1281" fill="#F2F4F7" rx="82.196" ry="21.6281" style="stroke:#003366;stroke-width:1.0;"/><text fill="#000000" font-family="sans-serif" font-size="12" lengthAdjust="spacing" textLength="90" x="217.196" y="237.7841">Valider planning</text></g><g id="elem_UC4"><ellipse cx="261.8431" cy="313.8686" fill="#F2F4F7" rx="99.8431" ry="22.3686" style="stroke:#003366;stroke-width:1.0;"/><text fill="#000000" font-family="sans-serif" font-size="12" lengthAdjust="spacing" textLength="120" x="201.8431" y="316.5246">Planifier soutenances</text></g><g id="elem_UC5"><ellipse cx="261.9481" cy="394.0896" fill="#F2F4F7" rx="100.9481" ry="22.5896" style="stroke:#003366;stroke-width:1.0;"/><text fill="#000000" font-family="sans-serif" font-size="12" lengthAdjust="spacing" textLength="123" x="200.4481" y="396.7456">G&#233;n&#233;rer convocations</text></g><g id="elem_UC6"><ellipse cx="261.9555" cy="476.1911" fill="#F2F4F7" rx="108.9555" ry="24.1911" style="stroke:#003366;stroke-width:1.0;"/><text fill="#000000" font-family="sans-serif" font-size="12" lengthAdjust="spacing" textLength="144" x="189.9555" y="478.8471">G&#233;n&#233;rer planning g&#233;n&#233;ral</text></g><g id="elem_UC7"><ellipse cx="587.7817" cy="586.1281" fill="#F2F4F7" rx="80.7817" ry="21.6281" style="stroke:#003366;stroke-width:1.0;"/><text fill="#000000" font-family="sans-serif" font-size="12" lengthAdjust="spacing" textLength="88" x="543.7817" y="588.7841">G&#233;rer &#233;tudiants</text></g><g id="elem_UC8"><ellipse cx="262.0391" cy="557.1281" fill="#F2F4F7" rx="76.5391" ry="21.6281" style="stroke:#003366;stroke-width:1.0;"/><text fill="#000000" font-family="sans-serif" font-size="12" lengthAdjust="spacing" textLength="82" x="221.0391" y="559.7841">Importer listes</text></g><g id="elem_UC9"><ellipse cx="587.8026" cy="693.1281" fill="#F2F4F7" rx="92.8026" ry="21.6281" style="stroke:#003366;stroke-width:1.0;"/><text fill="#000000" font-family="sans-serif" font-size="12" lengthAdjust="spacing" textLength="105" x="535.3026" y="695.7841">Consulter planning</text></g><g id="elem_UC10"><ellipse cx="262.2168" cy="635.1281" fill="#F2F4F7" rx="94.2168" ry="21.6281" style="stroke:#003366;stroke-width:1.0;"/><text fill="#000000" font-family="sans-serif" font-size="12" lengthAdjust="spacing" textLength="107" x="208.7168" y="637.7841">Rechercher / Filtrer</text></g><g id="elem_UC11"><ellipse cx="262.0244" cy="713.1281" fill="#F2F4F7" rx="85.0244" ry="21.6281" style="stroke:#003366;stroke-width:1.0;"/><text fill="#000000" font-family="sans-serif" font-size="12" lengthAdjust="spacing" textLength="94" x="215.0244" y="715.7841">G&#233;rer les projets</text></g><g id="elem_Check"><ellipse cx="587.9533" cy="161.1281" fill="#F2F4F7" rx="77.9533" ry="21.6281" style="stroke:#003366;stroke-width:1.0;"/><text fill="#000000" font-family="sans-serif" font-size="12" lengthAdjust="spacing" textLength="84" x="545.9533" y="163.7841">V&#233;rifier conflits</text></g><!--entity Coord--><g id="elem_Coord"><ellipse cx="48" cy="359.5" fill="#F2F4F7" rx="8" ry="8" style="stroke:#003366;stroke-width:1.0;"/><path d="M48,367.5 L48,394.5 M35,375.5 L61,375.5 M48,394.5 L35,409.5 M48,394.5 L61,409.5 " fill="none" style="stroke:#003366;stroke-width:1.0;"/><text fill="#000000" font-family="sans-serif" font-size="12" lengthAdjust="spacing" textLength="74" x="11" y="429.3281">Coordinateur</text></g><!--link Coord to UC1--><g id="link_Coord_UC1"><path d="M49.31,350.28 C52.16,289.8 66.37,180.96 129,118 C145.6,101.32 163.1432,93.1314 185.6132,87.6114 " fill="none" id="Coord-to-UC1" style="stroke:#003366;stroke-width:1.0;"/><polygon fill="#003366" points="191.44,86.18,181.7456,84.4426,186.5844,87.3728,183.6541,92.2116,191.44,86.18" style="stroke:#003366;stroke-width:1.0;"/></g><!--link Coord to UC2--><g id="link_Coord_UC2"><path d="M55.37,350.26 C64.18,305.36 84.39,236.49 129,196 C143.69,182.67 156.9798,175.6365 176.0098,169.8465 " fill="none" id="Coord-to-UC2" style="stroke:#003366;stroke-width:1.0;"/><polygon fill="#003366" points="181.75,168.1,171.9754,166.8929,176.9665,169.5554,174.304,174.5465,181.75,168.1" style="stroke:#003366;stroke-width:1.0;"/></g><!--link Coord to UC3--><g id="link_Coord_UC3"><path d="M68.55,350.32 C82.11,324.66 102.49,293.53 129,274 C147.18,260.61 164.1276,253.3548 185.5976,247.5548 " fill="none" id="Coord-to-UC3" style="stroke:#003366;stroke-width:1.0;"/><polygon fill="#003366" points="191.39,245.99,181.6583,244.4756,186.563,247.294,183.7446,252.1987,191.39,245.99" style="stroke:#003366;stroke-width:1.0;"/></g><!--link Coord to UC4--><g id="link_Coord_UC4"><path d="M90.32,371.67 C102.58,365.51 116.16,359.12 129,354 C150.69,345.37 169.2553,339.2081 191.0453,332.7781 " fill="none" id="Coord-to-UC4" style="stroke:#003366;stroke-width:1.0;"/><polygon fill="#003366" points="196.8,331.08,187.0359,329.7908,192.0044,332.4951,189.3001,337.4637,196.8,331.08" style="stroke:#003366;stroke-width:1.0;"/></g><!--link Coord to UC5--><g id="link_Coord_UC5"><path d="M90.13,394 C110.36,394 129.71,394 154.64,394 " fill="none" id="Coord-to-UC5" style="stroke:#003366;stroke-width:1.0;"/><polygon fill="#003366" points="160.64,394,151.64,390,155.64,394,151.64,398,160.64,394" style="stroke:#003366;stroke-width:1.0;"/></g><!--link Coord to UC6--><g id="link_Coord_UC6"><path d="M90.37,416.22 C102.63,422.38 116.2,428.8 129,434 C149.94,442.51 167.5732,448.64 188.7532,455.26 " fill="none" id="Coord-to-UC6" style="stroke:#003366;stroke-width:1.0;"/><polygon fill="#003366" points="194.48,457.05,187.0831,450.5472,189.7077,455.5584,184.6965,458.1829,194.48,457.05" style="stroke:#003366;stroke-width:1.0;"/></g><!--link Coord to UC7--><g id="link_Coord_UC7"><path d="M52.12,437.68 C59.33,524.34 80.36,713.03 129,752 C212.94,819.25 269.25,786.87 371,752 C437.45,729.23 439.75,697.38 495,654 C516.09,637.44 535.6616,622.9609 554.0416,609.6409 " fill="none" id="Coord-to-UC7" style="stroke:#003366;stroke-width:1.0;"/><polygon fill="#003366" points="558.9,606.12,549.2652,608.1624,554.8514,609.054,553.9597,614.6402,558.9,606.12" style="stroke:#003366;stroke-width:1.0;"/></g><!--link Coord to UC9--><g id="link_Coord_UC9"><path d="M50.86,437.59 C55.94,532.79 73.58,754.43 129,800 C260.67,908.26 477.2566,772.3061 554.5266,717.1461 " fill="none" id="Coord-to-UC9" style="stroke:#003366;stroke-width:1.0;"/><polygon fill="#003366" points="559.41,713.66,549.7609,715.6335,555.3405,716.565,554.409,722.1447,559.41,713.66" style="stroke:#003366;stroke-width:1.0;"/></g><!--link Coord to UC11--><g id="link_Coord_UC11"><path d="M49.08,437.57 C51.61,498.75 65.39,609.82 129,674 C143.89,689.02 158.486,696.6886 178.766,702.4186 " fill="none" id="Coord-to-UC11" style="stroke:#003366;stroke-width:1.0;"/><polygon fill="#003366" points="184.54,704.05,176.9667,697.7536,179.7284,702.6905,174.7915,705.4522,184.54,704.05" style="stroke:#003366;stroke-width:1.0;"/></g><!--link UC8 to UC7--><g id="link_UC8_UC7"><path d="M335.31,563.48 C387.53,568.15 451.9339,573.915 504.9939,578.665 " fill="none" id="UC8-to-UC7" style="stroke:#003366;stroke-width:1.0;stroke-dasharray:7.0,7.0;"/><polygon fill="#003366" points="510.97,579.2,502.3625,574.4134,505.9899,578.7542,501.6492,582.3816,510.97,579.2" style="stroke:#003366;stroke-width:1.0;"/><text fill="#003366" font-family="sans-serif" font-size="12" lengthAdjust="spacing" textLength="50" x="408" y="560.8281">&#171;extend&#187;</text></g><!--link UC10 to UC9--><g id="link_UC10_UC9"><path d="M336.52,648.16 C389.64,657.67 455.1538,669.4034 508.1438,678.8834 " fill="none" id="UC10-to-UC9" style="stroke:#003366;stroke-width:1.0;stroke-dasharray:7.0,7.0;"/><polygon fill="#003366" points="514.05,679.94,505.8951,674.4176,509.1281,679.0595,504.4862,682.2925,514.05,679.94" style="stroke:#003366;stroke-width:1.0;"/><text fill="#003366" font-family="sans-serif" font-size="12" lengthAdjust="spacing" textLength="50" x="408" y="651.8281">&#171;extend&#187;</text></g><!--link UC1 to Check--><g id="link_UC1_Check"><path d="M318.7,93.1 C377.68,108.03 464.5135,129.9973 524.0335,145.0673 " fill="none" id="UC1-to-Check" style="stroke:#003366;stroke-width:1.0;stroke-dasharray:7.0,7.0;"/><polygon fill="#003366" points="529.85,146.54,522.1071,140.4533,525.003,145.3128,520.1435,148.2086,529.85,146.54" style="stroke:#003366;stroke-width:1.0;"/><text fill="#003366" font-family="sans-serif" font-size="12" lengthAdjust="spacing" textLength="52" x="407" y="106.8281">&#171;include&#187;</text></g><!--link UC3 to Check--><g id="link_UC3_Check"><path d="M324.32,221 C382.57,207.69 463.7406,189.1559 521.4506,175.9759 " fill="none" id="UC3-to-Check" style="stroke:#003366;stroke-width:1.0;stroke-dasharray:7.0,7.0;"/><polygon fill="#003366" points="527.3,174.64,517.6353,172.7443,522.4255,175.7533,519.4165,180.5434,527.3,174.64" style="stroke:#003366;stroke-width:1.0;"/><text fill="#003366" font-family="sans-serif" font-size="12" lengthAdjust="spacing" textLength="52" x="407" y="180.8281">&#171;include&#187;</text></g><!--SRC=[TPFRIWCn48RlynJZthVQivLIa0N52q44Un-oqsrgcYmvY4Lye3v7NypPT7SnrIw4vS__JJ87SYMrKA50S7wli5-5dM8Arnwy0IlBZOT2MXHU6isuyCP2bXjZ2wcvns0pu0xY1cCrndMf4B9dKmJwToH5P_35WBxWK717pBrpijHeOHlitiM3tl91okH6kw0yGPPNbR6-vOOfj-9A5aHLYcijTTbGevHw8LUk9N7E18-QQu7jWUCKVJmUzF5W2HL6VnWHIsZPoIMslHxAqnPNJSJqJqID7my-59BhhgfPYZtjwf89LDBvBjFRIoqwAtwUSgyeDcZh1TVm89Md3Dgct_oRda87bJLRxF8Rd8rdHU2feTIbjP8Dc6zGlBDlnkByeTTRnid-LiD4ZH8rJjGaKTD4pH8rJ-yRC4RDWdu_ad07YmL-qjIBvPBLDJVEF7LgApgnYEWrBoI6ZIvvFm00]--></g></svg>