<?xml version="1.0" encoding="us-ascii" standalone="no"?><svg xmlns="http://www.w3.org/2000/svg" xmlns:xlink="http://www.w3.org/1999/xlink" contentStyleType="text/css" height="866px" preserveAspectRatio="none" style="width:697px;height:866px;background:#FFFFFF;" version="1.1" viewBox="0 0 697 866" width="697px" zoomAndPan="magnify"><defs/><g><!--cluster Module Coordination--><g id="cluster_Module Coordination"><rect fill="none" height="699" rx="2.5" ry="2.5" style="stroke:#003366;stroke-width:1.0;" width="549" x="142" y="7"/><text fill="#000000" font-family="sans-serif" font-size="14" font-weight="bold" lengthAdjust="spacing" textLength="147" x="343" y="23.9659">Module Coordination</text></g><g id="elem_UC1"><ellipse cx="266.9037" cy="62.8807" fill="#F2F4F7" rx="77.4037" ry="17.8807" style="stroke:#003366;stroke-width:1.0;"/><text fill="#000000" font-family="sans-serif" font-size="14" lengthAdjust="spacing" textLength="96" x="215.9037" y="67.6137">Assigner jurys</text></g><g id="elem_UC2"><ellipse cx="266.7738" cy="136.1548" fill="#F2F4F7" rx="88.7738" ry="20.1548" style="stroke:#003366;stroke-width:1.0;"/><text fill="#000000" font-family="sans-serif" font-size="14" lengthAdjust="spacing" textLength="127" x="200.2738" y="140.8877">Consulter rapports</text></g><g id="elem_UC3"><ellipse cx="267.0993" cy="210.0199" fill="#F2F4F7" rx="83.0993" ry="19.0199" style="stroke:#003366;stroke-width:1.0;"/><text fill="#000000" font-family="sans-serif" font-size="14" lengthAdjust="spacing" textLength="112" x="208.0993" y="214.7528">Valider planning</text></g><g id="elem_UC4"><ellipse cx="266.9255" cy="286.0851" fill="#F2F4F7" rx="95.9255" ry="21.5851" style="stroke:#003366;stroke-width:1.0;"/><text fill="#000000" font-family="sans-serif" font-size="14" lengthAdjust="spacing" textLength="145" x="191.4255" y="290.8181">Planifier soutenances</text></g><g id="elem_UC5"><ellipse cx="266.8322" cy="364.1664" fill="#F2F4F7" rx="96.3322" ry="21.6664" style="stroke:#003366;stroke-width:1.0;"/><text fill="#000000" font-family="sans-serif" font-size="14" lengthAdjust="spacing" textLength="146" x="190.8322" y="368.8994">G&#233;n&#233;rer convocations</text></g><g id="elem_UC6"><ellipse cx="266.9052" cy="445.181" fill="#F2F4F7" rx="108.9052" ry="24.181" style="stroke:#003366;stroke-width:1.0;"/><text fill="#000000" font-family="sans-serif" font-size="14" lengthAdjust="spacing" textLength="176" x="175.9052" y="449.914">G&#233;n&#233;rer planning g&#233;n&#233;ral</text></g><g id="elem_UC7"><ellipse cx="584.916" cy="549.0832" fill="#F2F4F7" rx="80.916" ry="18.5832" style="stroke:#003366;stroke-width:1.0;"/><text fill="#000000" font-family="sans-serif" font-size="14" lengthAdjust="spacing" textLength="106" x="528.916" y="553.8162">G&#233;rer &#233;tudiants</text></g><g id="elem_UC8"><ellipse cx="266.9397" cy="522.0879" fill="#F2F4F7" rx="78.4397" ry="18.0879" style="stroke:#003366;stroke-width:1.0;"/><text fill="#000000" font-family="sans-serif" font-size="14" lengthAdjust="spacing" textLength="99" x="214.4397" y="526.8209">Importer listes</text></g><g id="elem_UC9"><ellipse cx="584.942" cy="649.8884" fill="#F2F4F7" rx="89.942" ry="20.3884" style="stroke:#003366;stroke-width:1.0;"/><text fill="#000000" font-family="sans-serif" font-size="14" lengthAdjust="spacing" textLength="130" x="516.942" y="654.6214">Consulter planning</text></g><g id="elem_UC10"><ellipse cx="266.942" cy="595.8884" fill="#F2F4F7" rx="89.942" ry="20.3884" style="stroke:#003366;stroke-width:1.0;"/><text fill="#000000" font-family="sans-serif" font-size="14" lengthAdjust="spacing" textLength="130" x="198.942" y="600.6214">Rechercher / Filtrer</text></g><g id="elem_UC11"><ellipse cx="267.0993" cy="671.0199" fill="#F2F4F7" rx="83.0993" ry="19.0199" style="stroke:#003366;stroke-width:1.0;"/><text fill="#000000" font-family="sans-serif" font-size="14" lengthAdjust="spacing" textLength="112" x="208.0993" y="675.7528">G&#233;rer les projets</text></g><g id="elem_Check"><ellipse cx="584.9912" cy="136.7982" fill="#F2F4F7" rx="79.4912" ry="18.2982" style="stroke:#003366;stroke-width:1.0;"/><text fill="#000000" font-family="sans-serif" font-size="14" lengthAdjust="spacing" textLength="102" x="530.9912" y="141.5312">V&#233;rifier conflits</text></g><!--entity Coord--><g id="elem_Coord"><ellipse cx="50.5" cy="333" fill="#F2F4F7" rx="8" ry="8" style="stroke:#003366;stroke-width:1.0;"/><path d="M50.5,341 L50.5,368 M37.5,349 L63.5,349 M50.5,368 L37.5,383 M50.5,368 L63.5,383 " fill="none" style="stroke:#003366;stroke-width:1.0;"/><text fill="#000000" font-family="sans-serif" font-size="14" lengthAdjust="spacing" textLength="89" x="6" y="399.9659">Coordinateur</text></g><!--link Coord to UC1--><g id="link_Coord_UC1"><path d="M52.39,323.52 C55.92,265.28 71.19,158.25 134,98 C150,82.66 166.077,75.2137 187.457,70.2237 " fill="none" id="Coord-to-UC1" style="stroke:#003366;stroke-width:1.0;"/><polygon fill="#003366" points="193.3,68.86,183.6264,67.0103,188.4309,69.9964,185.4447,74.8009,193.3,68.86" style="stroke:#003366;stroke-width:1.0;"/></g><!--link Coord to UC2--><g id="link_Coord_UC2"><path d="M58.35,323.62 C67.82,280.23 89.12,212.22 134,173 C149.32,159.61 163.3516,152.6556 182.9516,147.1756 " fill="none" id="Coord-to-UC2" style="stroke:#003366;stroke-width:1.0;"/><polygon fill="#003366" points="188.73,145.56,178.9853,144.1311,183.9147,146.9063,181.1395,151.8357,188.73,145.56" style="stroke:#003366;stroke-width:1.0;"/></g><!--link Coord to UC3--><g id="link_Coord_UC3"><path d="M70.69,323.84 C84.83,298.31 106.39,266.5 134,247 C152.37,234.03 169.3569,227.0758 190.7969,221.5958 " fill="none" id="Coord-to-UC3" style="stroke:#003366;stroke-width:1.0;"/><polygon fill="#003366" points="196.61,220.11,186.8998,218.4633,191.7657,221.3482,188.8809,226.2141,196.61,220.11" style="stroke:#003366;stroke-width:1.0;"/></g><!--link Coord to UC4--><g id="link_Coord_UC4"><path d="M95.05,341.88 C107.47,335.99 121.12,329.92 134,325 C156.44,316.44 175.831,310.2387 198.121,303.8687 " fill="none" id="Coord-to-UC4" style="stroke:#003366;stroke-width:1.0;"/><polygon fill="#003366" points="203.89,302.22,194.1373,300.847,199.0825,303.5939,196.3355,308.539,203.89,302.22" style="stroke:#003366;stroke-width:1.0;"/></g><!--link Coord to UC5--><g id="link_Coord_UC5"><path d="M95.17,364 C116.85,364 137.95,364 164.14,364 " fill="none" id="Coord-to-UC5" style="stroke:#003366;stroke-width:1.0;"/><polygon fill="#003366" points="170.14,364,161.14,360,165.14,364,161.14,368,170.14,364" style="stroke:#003366;stroke-width:1.0;"/></g><!--link Coord to UC6--><g id="link_Coord_UC6"><path d="M95.12,385.95 C107.54,391.84 121.17,397.96 134,403 C155.26,411.37 173.1937,417.5184 194.5437,424.1984 " fill="none" id="Coord-to-UC6" style="stroke:#003366;stroke-width:1.0;"/><polygon fill="#003366" points="200.27,425.99,192.875,419.485,195.4981,424.497,190.4862,427.1201,200.27,425.99" style="stroke:#003366;stroke-width:1.0;"/></g><!--link Coord to UC7--><g id="link_Coord_UC7"><path d="M55.08,404.31 C63.3,486.68 86.62,669.66 134,707 C218.48,773.57 274.24,741.83 376,707 C440.03,685.09 441.75,653.77 495,612 C515.56,595.88 534.8549,582.2133 552.8549,569.9233 " fill="none" id="Coord-to-UC7" style="stroke:#003366;stroke-width:1.0;"/><polygon fill="#003366" points="557.81,566.54,548.1218,568.3115,553.6807,569.3594,552.6328,574.9183,557.81,566.54" style="stroke:#003366;stroke-width:1.0;"/></g><!--link Coord to UC9--><g id="link_Coord_UC9"><path d="M53.81,404.21 C59.92,494.76 79.97,710.21 134,754 C264.34,859.66 477.3671,726.5826 552.6071,673.1826 " fill="none" id="Coord-to-UC9" style="stroke:#003366;stroke-width:1.0;"/><polygon fill="#003366" points="557.5,669.71,547.8455,671.657,553.4226,672.6039,552.4757,678.1809,557.5,669.71" style="stroke:#003366;stroke-width:1.0;"/></g><!--link Coord to UC11--><g id="link_Coord_UC11"><path d="M52.28,404.47 C55.66,463.31 70.72,572.18 134,634 C149.32,648.97 164.3757,656.47 184.9957,661.87 " fill="none" id="Coord-to-UC11" style="stroke:#003366;stroke-width:1.0;"/><polygon fill="#003366" points="190.8,663.39,183.107,657.2404,185.9631,662.1233,181.0802,664.9795,190.8,663.39" style="stroke:#003366;stroke-width:1.0;"/></g><!--link UC8 to UC7--><g id="link_UC8_UC7"><path d="M340.89,528.23 C391.29,532.54 452.1818,537.7385 503.0218,542.0885 " fill="none" id="UC8-to-UC7" style="stroke:#003366;stroke-width:1.0;stroke-dasharray:7.0,7.0;"/><polygon fill="#003366" points="509,542.6,500.3738,537.8473,504.0182,542.1737,499.6918,545.8182,509,542.6" style="stroke:#003366;stroke-width:1.0;"/><text fill="#000000" font-family="sans-serif" font-size="13" lengthAdjust="spacing" textLength="56" x="407.5" y="529.897">&#171;extend&#187;</text></g><!--link UC10 to UC9--><g id="link_UC10_UC9"><path d="M339.71,608.26 C391.42,617.09 455.0158,627.9589 506.6658,636.7889 " fill="none" id="UC10-to-UC9" style="stroke:#003366;stroke-width:1.0;stroke-dasharray:7.0,7.0;"/><polygon fill="#003366" points="512.58,637.8,504.3828,632.3406,507.6515,636.9574,503.0347,640.2262,512.58,637.8" style="stroke:#003366;stroke-width:1.0;"/><text fill="#000000" font-family="sans-serif" font-size="13" lengthAdjust="spacing" textLength="56" x="407.5" y="615.897">&#171;extend&#187;</text></g><!--link UC1 to Check--><g id="link_UC1_Check"><path d="M322.32,75.72 C379.85,89.2 464.368,108.9923 522.418,122.5823 " fill="none" id="UC1-to-Check" style="stroke:#003366;stroke-width:1.0;stroke-dasharray:7.0,7.0;"/><polygon fill="#003366" points="528.26,123.95,520.4087,118.0038,523.3916,122.8103,518.5852,125.7932,528.26,123.95" style="stroke:#003366;stroke-width:1.0;"/><text fill="#000000" font-family="sans-serif" font-size="13" lengthAdjust="spacing" textLength="57" x="407" y="91.897">&#171;include&#187;</text></g><!--link UC3 to Check--><g id="link_UC3_Check"><path d="M325.96,196.61 C383.51,183.32 465.2938,164.42 522.1538,151.29 " fill="none" id="UC3-to-Check" style="stroke:#003366;stroke-width:1.0;stroke-dasharray:7.0,7.0;"/><polygon fill="#003366" points="528,149.94,518.3308,148.0675,523.1282,151.065,520.1308,155.8624,528,149.94" style="stroke:#003366;stroke-width:1.0;"/><text fill="#000000" font-family="sans-serif" font-size="13" lengthAdjust="spacing" textLength="57" x="407" y="160.897">&#171;include&#187;</text></g><!--SRC=[ZP7TYjim48NlzHI3Uxq_YRD9KqAWDRWKMYYbtNiXJsnjj3D6ahjTIXuepv4NgwpOfjfke0PXdvblv3ap6-UV3Mu5W6Nsy3jy09HClc335jxSnYT6Fsl2APhdo-KK_TvejITq3cOXTWX7AX-uysqVfDhNbZkgXkfoNYxArK1s3fLq-5-ij9QV1lArRWvYSpFuSNjDhRJo4LmZAtxILCDE6eV2uCw3Px2wRZnKsgBocacSMyuAPbjfaXuxcu5q40D2z9YasY1aNxZgmdiYGtKsT3MwoTuxfsj22m-TVNRneX_5B6KA9jSP7o0hsvQj7xbvojrBewj0jKOI1IC3bQVKrv3LEnqunvr7agHml72HeXzFHpeTRK0LqqzMqSB8tbrYnzz3VGv9CrGi_wdeyTFHTvMMDBbQfTYdnzvo08rsVkhqxQKHlJ2_Jhblg1gq_O4RABNneODnwBUljcVGGMlv0QV-PY_MSn_0yq33b7P63s3HeDgBWn1n_t1rjOsR_LlD4vKdQf6ekqGj4xLAr3hztqo8C2ouleual8FD1d-5hLVRhUWz3vbrckbJCHDDn9mcPReAOrb-AVS7]--></g></svg>