<?xml version="1.0" encoding="us-ascii" standalone="no"?><svg xmlns="http://www.w3.org/2000/svg" xmlns:xlink="http://www.w3.org/1999/xlink" contentStyleType="text/css" height="820px" preserveAspectRatio="none" style="width:967px;height:820px;background:#FFFFFF;" version="1.1" viewBox="0 0 967 820" width="967px" zoomAndPan="magnify"><defs/><g><!--cluster Module Coordination--><g id="cluster_Module Coordination"><rect fill="none" height="807" rx="2.5" ry="2.5" style="stroke:#003366;stroke-width:1.0;" width="819" x="142" y="7"/><text fill="#000000" font-family="sans-serif" font-size="14" font-weight="bold" lengthAdjust="spacing" textLength="147" x="478" y="23.9659">Module Coordination</text></g><g id="elem_UC1"><ellipse cx="247.9037" cy="69.8807" fill="#F2F4F7" rx="77.4037" ry="17.8807" style="stroke:#003366;stroke-width:1.0;"/><text fill="#000000" font-family="sans-serif" font-size="14" lengthAdjust="spacing" textLength="96" x="196.9037" y="74.6137">Assigner jurys</text></g><g id="elem_UC2"><ellipse cx="565.7738" cy="465.1548" fill="#F2F4F7" rx="88.7738" ry="20.1548" style="stroke:#003366;stroke-width:1.0;"/><text fill="#000000" font-family="sans-serif" font-size="14" lengthAdjust="spacing" textLength="127" x="499.2738" y="469.8877">Consulter rapports</text></g><g id="elem_UC3"><ellipse cx="248.0993" cy="142.0199" fill="#F2F4F7" rx="83.0993" ry="19.0199" style="stroke:#003366;stroke-width:1.0;"/><text fill="#000000" font-family="sans-serif" font-size="14" lengthAdjust="spacing" textLength="112" x="189.0993" y="146.7528">Valider planning</text></g><g id="elem_UC4"><ellipse cx="565.9255" cy="542.0851" fill="#F2F4F7" rx="95.9255" ry="21.5851" style="stroke:#003366;stroke-width:1.0;"/><text fill="#000000" font-family="sans-serif" font-size="14" lengthAdjust="spacing" textLength="145" x="490.4255" y="546.8181">Planifier soutenances</text></g><g id="elem_UC5"><ellipse cx="565.8322" cy="620.1664" fill="#F2F4F7" rx="96.3322" ry="21.6664" style="stroke:#003366;stroke-width:1.0;"/><text fill="#000000" font-family="sans-serif" font-size="14" lengthAdjust="spacing" textLength="146" x="489.8322" y="624.8994">G&#233;n&#233;rer convocations</text></g><g id="elem_UC6"><ellipse cx="565.9052" cy="701.181" fill="#F2F4F7" rx="108.9052" ry="24.181" style="stroke:#003366;stroke-width:1.0;"/><text fill="#000000" font-family="sans-serif" font-size="14" lengthAdjust="spacing" textLength="176" x="474.9052" y="705.914">G&#233;n&#233;rer planning g&#233;n&#233;ral</text></g><g id="elem_UC7"><ellipse cx="565.916" cy="315.0832" fill="#F2F4F7" rx="80.916" ry="18.5832" style="stroke:#003366;stroke-width:1.0;"/><text fill="#000000" font-family="sans-serif" font-size="14" lengthAdjust="spacing" textLength="106" x="509.916" y="319.8162">G&#233;rer &#233;tudiants</text></g><g id="elem_UC8"><ellipse cx="247.9397" cy="214.0879" fill="#F2F4F7" rx="78.4397" ry="18.0879" style="stroke:#003366;stroke-width:1.0;"/><text fill="#000000" font-family="sans-serif" font-size="14" lengthAdjust="spacing" textLength="99" x="195.4397" y="218.8209">Importer listes</text></g><g id="elem_UC9"><ellipse cx="565.942" cy="388.8884" fill="#F2F4F7" rx="89.942" ry="20.3884" style="stroke:#003366;stroke-width:1.0;"/><text fill="#000000" font-family="sans-serif" font-size="14" lengthAdjust="spacing" textLength="130" x="497.942" y="393.6214">Consulter planning</text></g><g id="elem_UC10"><ellipse cx="247.942" cy="287.8884" fill="#F2F4F7" rx="89.942" ry="20.3884" style="stroke:#003366;stroke-width:1.0;"/><text fill="#000000" font-family="sans-serif" font-size="14" lengthAdjust="spacing" textLength="130" x="179.942" y="292.6214">Rechercher / Filtrer</text></g><g id="elem_UC11"><ellipse cx="566.0993" cy="779.0199" fill="#F2F4F7" rx="83.0993" ry="19.0199" style="stroke:#003366;stroke-width:1.0;"/><text fill="#000000" font-family="sans-serif" font-size="14" lengthAdjust="spacing" textLength="112" x="507.0993" y="783.7528">G&#233;rer les projets</text></g><g id="elem_Check"><ellipse cx="565.9912" cy="152.7982" fill="#F2F4F7" rx="79.4912" ry="18.2982" style="stroke:#003366;stroke-width:1.0;"/><text fill="#000000" font-family="sans-serif" font-size="14" lengthAdjust="spacing" textLength="102" x="511.9912" y="157.5312">V&#233;rifier conflits</text></g><g id="elem_Auth"><ellipse cx="869.7128" cy="427.0426" fill="#F2F4F7" rx="75.7128" ry="17.5426" style="stroke:#003366;stroke-width:1.0;"/><text fill="#000000" font-family="sans-serif" font-size="14" lengthAdjust="spacing" textLength="91" x="821.2128" y="431.7755">S'authentifier</text></g><!--entity Coord--><g id="elem_Coord"><ellipse cx="50.5" cy="473" fill="#F2F4F7" rx="8" ry="8" style="stroke:#003366;stroke-width:1.0;"/><path d="M50.5,481 L50.5,508 M37.5,489 L63.5,489 M50.5,508 L37.5,523 M50.5,508 L63.5,523 " fill="none" style="stroke:#003366;stroke-width:1.0;"/><text fill="#000000" font-family="sans-serif" font-size="14" lengthAdjust="spacing" textLength="89" x="6" y="539.9659">Coordinateur</text></g><!--link Coord to UC1--><g id="link_Coord_UC1"><path d="M54.67,463.95 C62.61,373.59 86.21,157.63 134,105 C145.87,91.92 156.784,85.4402 173.664,80.2602 " fill="none" id="Coord-to-UC1" style="stroke:#003366;stroke-width:1.0;"/><polygon fill="#003366" points="179.4,78.5,169.6225,77.3163,174.62,79.9668,171.9695,84.9643,179.4,78.5" style="stroke:#003366;stroke-width:1.0;"/></g><!--link Coord to UC2--><g id="link_Coord_UC2"><path d="M95.28,500.67 C180.77,494.18 365.2072,480.1743 475.5572,471.7943 " fill="none" id="Coord-to-UC2" style="stroke:#003366;stroke-width:1.0;"/><polygon fill="#003366" points="481.54,471.34,472.263,468.033,476.5544,471.7186,472.8687,476.01,481.54,471.34" style="stroke:#003366;stroke-width:1.0;"/></g><!--link Coord to UC3--><g id="link_Coord_UC3"><path d="M56.76,463.75 C67.68,386.05 95.09,219.34 134,178 C145.64,165.63 155.8237,159.3847 171.9937,154.0347 " fill="none" id="Coord-to-UC3" style="stroke:#003366;stroke-width:1.0;"/><polygon fill="#003366" points="177.69,152.15,167.8891,151.1795,172.9431,153.7206,170.402,158.7746,177.69,152.15" style="stroke:#003366;stroke-width:1.0;"/></g><!--link Coord to UC4--><g id="link_Coord_UC4"><path d="M95.19,521.97 C104.86,525.23 115.15,528.17 125,530 C243.71,552.05 377.4951,551.6968 467.1251,548.0068 " fill="none" id="Coord-to-UC4" style="stroke:#003366;stroke-width:1.0;"/><polygon fill="#003366" points="473.12,547.76,463.9631,544.1336,468.1242,547.9657,464.2922,552.1268,473.12,547.76" style="stroke:#003366;stroke-width:1.0;"/></g><!--link Coord to UC5--><g id="link_Coord_UC5"><path d="M95.04,536.84 C107.12,544.56 120.61,551.99 134,557 C244.66,598.41 374.8089,612.4126 464.0989,617.2926 " fill="none" id="Coord-to-UC5" style="stroke:#003366;stroke-width:1.0;"/><polygon fill="#003366" points="470.09,617.62,461.3217,613.1348,465.0975,617.3471,460.8851,621.1229,470.09,617.62" style="stroke:#003366;stroke-width:1.0;"/></g><!--link Coord to UC6--><g id="link_Coord_UC6"><path d="M72.42,544.07 C86.68,567.45 107.73,595.49 134,612 C232.01,673.59 358.9725,693.063 451.1825,699.023 " fill="none" id="Coord-to-UC6" style="stroke:#003366;stroke-width:1.0;"/><polygon fill="#003366" points="457.17,699.41,448.4467,694.8378,452.1804,699.0875,447.9307,702.8212,457.17,699.41" style="stroke:#003366;stroke-width:1.0;"/></g><!--link Coord to UC7--><g id="link_Coord_UC7"><path d="M80.41,463.83 C94.71,446.7 113.33,427.94 134,416 C166.02,397.5 387.7105,350.9064 498.6305,328.3364 " fill="none" id="Coord-to-UC7" style="stroke:#003366;stroke-width:1.0;"/><polygon fill="#003366" points="504.51,327.14,494.8931,325.0149,499.6104,328.137,496.4883,332.8542,504.51,327.14" style="stroke:#003366;stroke-width:1.0;"/></g><!--link Coord to UC9--><g id="link_Coord_UC9"><path d="M95.15,480.71 C107.45,474.89 121.02,469.13 134,465 C252.2,427.39 388.9581,407.5149 476.8581,397.5649 " fill="none" id="Coord-to-UC9" style="stroke:#003366;stroke-width:1.0;"/><polygon fill="#003366" points="482.82,396.89,473.4272,393.9277,477.8517,397.4524,474.327,401.8769,482.82,396.89" style="stroke:#003366;stroke-width:1.0;"/></g><!--link Coord to UC11--><g id="link_Coord_UC11"><path d="M58.08,544.16 C67.32,587.2 88.41,654.26 134,691 C234.79,772.23 385.0603,784.5338 479.1503,783.5338 " fill="none" id="Coord-to-UC11" style="stroke:#003366;stroke-width:1.0;"/><polygon fill="#003366" points="485.15,783.47,476.108,779.5659,480.1503,783.5231,476.193,787.5654,485.15,783.47" style="stroke:#003366;stroke-width:1.0;"/></g><!--link UC8 to UC7--><g id="link_UC8_UC7"><path d="M294.61,228.58 C354.18,247.62 452.2147,278.9537 512.3947,298.1837 " fill="none" id="UC8-to-UC7" style="stroke:#003366;stroke-width:1.0;stroke-dasharray:7.0,7.0;"/><polygon fill="#003366" points="518.11,300.01,510.7546,293.4604,513.3472,298.4881,508.3195,301.0808,518.11,300.01" style="stroke:#003366;stroke-width:1.0;"/><text fill="#000000" font-family="sans-serif" font-size="13" lengthAdjust="spacing" textLength="56" x="369.5" y="248.897">&#171;extend&#187;</text></g><!--link UC10 to UC9--><g id="link_UC10_UC9"><path d="M301.18,304.68 C359.82,323.42 448.7249,351.833 507.2849,370.553 " fill="none" id="UC10-to-UC9" style="stroke:#003366;stroke-width:1.0;stroke-dasharray:7.0,7.0;"/><polygon fill="#003366" points="513,372.38,505.6453,365.8295,508.2374,370.8575,503.2094,373.4496,513,372.38" style="stroke:#003366;stroke-width:1.0;"/><text fill="#000000" font-family="sans-serif" font-size="13" lengthAdjust="spacing" textLength="56" x="369.5" y="322.897">&#171;extend&#187;</text></g><!--link UC1 to Check--><g id="link_UC1_Check"><path d="M300.12,83.43 C358.55,98.77 447.887,122.2352 506.837,137.7252 " fill="none" id="UC1-to-Check" style="stroke:#003366;stroke-width:1.0;stroke-dasharray:7.0,7.0;"/><polygon fill="#003366" points="512.64,139.25,504.952,133.0941,507.8042,137.9793,502.9189,140.8314,512.64,139.25" style="stroke:#003366;stroke-width:1.0;"/><text fill="#000000" font-family="sans-serif" font-size="13" lengthAdjust="spacing" textLength="57" x="369" y="97.897">&#171;include&#187;</text></g><!--link UC3 to Check--><g id="link_UC3_Check"><path d="M323.52,149.95 C338.24,151.22 353.6,152.34 368,153 C406.95,154.8 444.2703,155.0449 480.3503,154.7149 " fill="none" id="UC3-to-Check" style="stroke:#003366;stroke-width:1.0;stroke-dasharray:7.0,7.0;"/><polygon fill="#003366" points="486.35,154.66,477.3138,150.7425,481.3502,154.7057,477.387,158.7421,486.35,154.66" style="stroke:#003366;stroke-width:1.0;"/><text fill="#000000" font-family="sans-serif" font-size="13" lengthAdjust="spacing" textLength="57" x="369" y="148.897">&#171;include&#187;</text></g><!--link Check to Auth--><g id="link_Check_Auth"><path d="M636.05,161.78 C677.19,170.08 728.19,186.12 764,217 C825.99,270.45 853.6576,363.5962 863.2876,403.6562 " fill="none" id="Check-to-Auth" style="stroke:#003366;stroke-width:1.0;stroke-dasharray:7.0,7.0;"/><polygon fill="#003366" points="864.69,409.49,866.4756,399.8044,863.5213,404.6285,858.6972,401.6742,864.69,409.49" style="stroke:#003366;stroke-width:1.0;"/><text fill="#000000" font-family="sans-serif" font-size="13" lengthAdjust="spacing" textLength="57" x="706" y="178.897">&#171;include&#187;</text></g><!--link UC1 to Auth--><g id="link_UC1_Auth"><path d="M310.74,59.32 C419.54,44.4 645.14,31.67 764,156 C836.13,231.45 859.1258,356.1255 865.5958,403.3655 " fill="none" id="UC1-to-Auth" style="stroke:#003366;stroke-width:1.0;stroke-dasharray:7.0,7.0;"/><polygon fill="#003366" points="866.41,409.31,869.1518,399.8505,865.7315,404.3562,861.2258,400.936,866.41,409.31" style="stroke:#003366;stroke-width:1.0;"/><text fill="#000000" font-family="sans-serif" font-size="13" lengthAdjust="spacing" textLength="57" x="537.5" y="46.897">&#171;include&#187;</text></g><!--link UC2 to Auth--><g id="link_UC2_Auth"><path d="M654.77,467.32 C689.04,466.92 728.55,464.86 764,459 C785.9,455.38 803.9259,450.3012 823.2159,443.7812 " fill="none" id="UC2-to-Auth" style="stroke:#003366;stroke-width:1.0;stroke-dasharray:7.0,7.0;"/><polygon fill="#003366" points="828.9,441.86,819.093,440.9524,824.1633,443.461,821.6547,448.5312,828.9,441.86" style="stroke:#003366;stroke-width:1.0;"/><text fill="#000000" font-family="sans-serif" font-size="13" lengthAdjust="spacing" textLength="57" x="706" y="454.897">&#171;include&#187;</text></g><!--link UC3 to Auth--><g id="link_UC3_Auth"><path d="M297.49,157.44 C407.28,192.41 666.08,274.97 675,279 C716.96,297.95 727,304.6 764,332 C797.1,356.52 827.5216,385.5231 847.4416,405.4831 " fill="none" id="UC3-to-Auth" style="stroke:#003366;stroke-width:1.0;stroke-dasharray:7.0,7.0;"/><polygon fill="#003366" points="851.68,409.73,848.1537,400.5341,848.148,406.1909,842.4912,406.1852,851.68,409.73" style="stroke:#003366;stroke-width:1.0;"/><text fill="#000000" font-family="sans-serif" font-size="13" lengthAdjust="spacing" textLength="57" x="537.5" y="204.897">&#171;include&#187;</text></g><!--link UC4 to Auth--><g id="link_UC4_Auth"><path d="M642.73,529.07 C680.15,521.22 725.43,509.47 764,493 C794.39,480.02 821.1833,462.3169 841.5733,447.4369 " fill="none" id="UC4-to-Auth" style="stroke:#003366;stroke-width:1.0;stroke-dasharray:7.0,7.0;"/><polygon fill="#003366" points="846.42,443.9,836.7921,445.9743,842.3811,446.8475,841.508,452.4365,846.42,443.9" style="stroke:#003366;stroke-width:1.0;"/><text fill="#000000" font-family="sans-serif" font-size="13" lengthAdjust="spacing" textLength="57" x="706" y="488.897">&#171;include&#187;</text></g><!--link UC5 to Auth--><g id="link_UC5_Auth"><path d="M628.6,603.47 C669.54,590.54 723.08,569.72 764,540 C802.49,512.05 834.3671,473.1378 852.4271,449.0878 " fill="none" id="UC5-to-Auth" style="stroke:#003366;stroke-width:1.0;stroke-dasharray:7.0,7.0;"/><polygon fill="#003366" points="856.03,444.29,847.4271,449.0849,853.0276,448.2882,853.8243,453.8887,856.03,444.29" style="stroke:#003366;stroke-width:1.0;"/><text fill="#000000" font-family="sans-serif" font-size="13" lengthAdjust="spacing" textLength="57" x="706" y="535.897">&#171;include&#187;</text></g><!--link UC6 to Auth--><g id="link_UC6_Auth"><path d="M628.77,681.18 C671.36,664.86 726.78,638.02 764,599 C810.42,550.33 843.6634,483.074 858.5134,449.984 " fill="none" id="UC6-to-Auth" style="stroke:#003366;stroke-width:1.0;stroke-dasharray:7.0,7.0;"/><polygon fill="#003366" points="860.97,444.51,853.6357,451.0833,858.9228,449.0717,860.9344,454.3588,860.97,444.51" style="stroke:#003366;stroke-width:1.0;"/><text fill="#000000" font-family="sans-serif" font-size="13" lengthAdjust="spacing" textLength="57" x="706" y="594.897">&#171;include&#187;</text></g><!--link UC7 to Auth--><g id="link_UC7_Auth"><path d="M616.07,329.64 C656.24,341.98 714.32,360.69 764,380 C788.48,389.51 810.0581,399.1615 830.4981,408.7515 " fill="none" id="UC7-to-Auth" style="stroke:#003366;stroke-width:1.0;stroke-dasharray:7.0,7.0;"/><polygon fill="#003366" points="835.93,411.3,829.4812,403.856,831.4035,409.1762,826.0832,411.0985,835.93,411.3" style="stroke:#003366;stroke-width:1.0;"/><text fill="#000000" font-family="sans-serif" font-size="13" lengthAdjust="spacing" textLength="57" x="706" y="354.897">&#171;include&#187;</text></g><!--link UC9 to Auth--><g id="link_UC9_Auth"><path d="M645.04,398.84 C693.89,404.99 750.187,412.0906 796.577,417.9306 " fill="none" id="UC9-to-Auth" style="stroke:#003366;stroke-width:1.0;stroke-dasharray:7.0,7.0;"/><polygon fill="#003366" points="802.53,418.68,794.1001,413.5872,797.5692,418.0555,793.1009,421.5245,802.53,418.68" style="stroke:#003366;stroke-width:1.0;"/><text fill="#000000" font-family="sans-serif" font-size="13" lengthAdjust="spacing" textLength="57" x="706" y="402.897">&#171;include&#187;</text></g><!--link UC11 to Auth--><g id="link_UC11_Auth"><path d="M622.19,764.87 C639.65,759.29 658.65,752.03 675,743 C719.79,718.28 733.24,710.88 764,670 C819.91,595.69 851.2,492.6863 862.49,450.4663 " fill="none" id="UC11-to-Auth" style="stroke:#003366;stroke-width:1.0;stroke-dasharray:7.0,7.0;"/><polygon fill="#003366" points="864.04,444.67,857.8508,452.3312,862.7483,449.5003,865.5792,454.3978,864.04,444.67" style="stroke:#003366;stroke-width:1.0;"/><text fill="#000000" font-family="sans-serif" font-size="13" lengthAdjust="spacing" textLength="57" x="706" y="665.897">&#171;include&#187;</text></g><!--SRC=[ZPBRYjim48RlzHH3Uj6hFJXEdAQ4mDRWKcYXTDkz5_B4raOh6KdkTYbve3n7NgooVA3AHh06OS_ytqZpZxKnzaNWbW1efIpyTHy0XP8sLq9fU7Vh7v_zoYLEsJJDiYdxi-PiBz4OI5pku1Pbrd7zRfyesrTQjR8SgejviIXM0zaQPDJWcrYgjNeUo4lT7CZcPl1ZzbmsLDCdC3KjrJEN5UoeC4W4xYnO1PfNjOMIQsIMAqdwbcUvKhhaabfizGoe0PyWfCEeh0J2x9igM_UUI5Sz6xeQtSpkZE6LH0sFhNunVgDVUH8okPAc5TP1cZQDqdRavY7tG0Kl7TK8AgKpCb1fI7rtAjznnndLMfHKCXmtN8JevzDHdexQeKp9tufv2oExZB7ZyL3rAIg6YknLHOUVZhOjEPMJgrM8VNdgB3jGS6EdJZ_4HdHcVXroFv3LgBi5Dr1mOLq7uz1lBxOdq42ZrIDE_ILdl-V1WVr0tPHsWWzWNYFRX-JzUzhQ6gNrkAVkN88S2F6N1Awkjlxt_n_DWoWDeaKGBOCe2w9L4At3yn92t4JX-jgJy14s6_pZhaQvtP9kC8Eo3fLEyeftwZKkcMXBz6LfLEjpdTgvFnEdNIzeRXXnAOrBYxYqZ4jPN5h5fNLSIcB6_W40]--></g></svg>