<?xml version="1.0" encoding="us-ascii" standalone="no"?><svg xmlns="http://www.w3.org/2000/svg" xmlns:xlink="http://www.w3.org/1999/xlink" contentStyleType="text/css" height="434px" preserveAspectRatio="none" style="width:420px;height:434px;background:#FFFFFF;" version="1.1" viewBox="0 0 420 434" width="420px" zoomAndPan="magnify"><defs/><g><!--entity User--><g id="elem_User"><ellipse cx="338.5" cy="187" fill="#F2F4F7" rx="8" ry="8" style="stroke:#003366;stroke-width:1.0;"/><path d="M338.5,195 L338.5,222 M325.5,203 L351.5,203 M338.5,222 L325.5,237 M338.5,222 L351.5,237 " fill="none" style="stroke:#003366;stroke-width:1.0;"/><text fill="#000000" font-family="sans-serif" font-size="14" lengthAdjust="spacing" textLength="70" x="303.5" y="253.9659">Utilisateur</text></g><!--entity Admin--><g id="elem_Admin"><ellipse cx="104.5" cy="14" fill="#F2F4F7" rx="8" ry="8" style="stroke:#003366;stroke-width:1.0;"/><path d="M104.5,22 L104.5,49 M91.5,30 L117.5,30 M104.5,49 L91.5,64 M104.5,49 L117.5,64 " fill="none" style="stroke:#003366;stroke-width:1.0;"/><text fill="#000000" font-family="sans-serif" font-size="14" lengthAdjust="spacing" textLength="102" x="53.5" y="80.9659">Administrateur</text></g><!--entity Coord--><g id="elem_Coord"><ellipse cx="104.5" cy="129" fill="#F2F4F7" rx="8" ry="8" style="stroke:#003366;stroke-width:1.0;"/><path d="M104.5,137 L104.5,164 M91.5,145 L117.5,145 M104.5,164 L91.5,179 M104.5,164 L117.5,179 " fill="none" style="stroke:#003366;stroke-width:1.0;"/><text fill="#000000" font-family="sans-serif" font-size="14" lengthAdjust="spacing" textLength="89" x="60" y="195.9659">Coordinateur</text></g><!--entity Jury--><g id="elem_Jury"><ellipse cx="104.5" cy="244" fill="#F2F4F7" rx="8" ry="8" style="stroke:#003366;stroke-width:1.0;"/><path d="M104.5,252 L104.5,279 M91.5,260 L117.5,260 M104.5,279 L91.5,294 M104.5,279 L117.5,294 " fill="none" style="stroke:#003366;stroke-width:1.0;"/><text fill="#000000" font-family="sans-serif" font-size="14" lengthAdjust="spacing" textLength="197" x="6" y="310.9659">Enseignant / Membre de jury</text></g><!--entity Student--><g id="elem_Student"><ellipse cx="104.5" cy="359" fill="#F2F4F7" rx="8" ry="8" style="stroke:#003366;stroke-width:1.0;"/><path d="M104.5,367 L104.5,394 M91.5,375 L117.5,375 M104.5,394 L91.5,409 M104.5,394 L117.5,409 " fill="none" style="stroke:#003366;stroke-width:1.0;"/><text fill="#000000" font-family="sans-serif" font-size="14" lengthAdjust="spacing" textLength="57" x="76" y="425.9659">&#201;tudiant</text></g><g id="elem_S'authentifier"><ellipse cx="338.7128" cy="311.0426" fill="#F2F4F7" rx="75.7128" ry="17.5426" style="stroke:#003366;stroke-width:1.0;"/><text fill="#000000" font-family="sans-serif" font-size="14" lengthAdjust="spacing" textLength="91" x="290.2128" y="315.7755">S'authentifier</text></g><!--link Admin to User--><g id="link_Admin_User"><path d="M155.7,72.01 C171.24,80.98 188.16,91.4 203,102 C239,127.72 263.6853,148.8491 290.0353,173.1791 " fill="none" id="Admin-to-User" style="stroke:#003366;stroke-width:1.0;"/><polygon fill="none" points="303.26,185.39,294.1056,168.7708,285.965,177.5873,303.26,185.39" style="stroke:#003366;stroke-width:1.0;"/></g><!--link Coord to User--><g id="link_Coord_User"><path d="M149.14,170.91 C193.9,182.1 245.1272,194.9054 286.0172,205.1254 " fill="none" id="Coord-to-User" style="stroke:#003366;stroke-width:1.0;"/><polygon fill="none" points="303.48,209.49,287.4721,199.3044,284.5623,210.9463,303.48,209.49" style="stroke:#003366;stroke-width:1.0;"/></g><!--link Jury to User--><g id="link_Jury_User"><path d="M203.22,250.99 C238.88,242.23 259.4301,237.1856 285.8801,230.6856 " fill="none" id="Jury-to-User" style="stroke:#003366;stroke-width:1.0;"/><polygon fill="none" points="303.36,226.39,284.4482,224.859,287.312,236.5123,303.36,226.39" style="stroke:#003366;stroke-width:1.0;"/></g><!--link Student to User--><g id="link_Student_User"><path d="M133.4,375.49 C153.47,364.57 180.79,348.67 203,332 C232.18,310.11 235.25,299.67 263,276 C275.85,265.04 276.1378,264.4783 288.9678,254.6183 " fill="none" id="Student-to-User" style="stroke:#003366;stroke-width:1.0;"/><polygon fill="none" points="303.24,243.65,285.3117,249.8609,292.6239,259.3757,303.24,243.65" style="stroke:#003366;stroke-width:1.0;"/></g><!--link User to S'authentifier--><g id="link_User_S'authentifier"><path d="M338.5,258.24 C338.5,269.9 338.5,275.55 338.5,287.2 " fill="none" id="User-to-S'authentifier" style="stroke:#003366;stroke-width:1.0;"/><polygon fill="#003366" points="338.5,293.2,342.5,284.2,338.5,288.2,334.5,284.2,338.5,293.2" style="stroke:#003366;stroke-width:1.0;"/></g><!--SRC=[ZOzDJiCm48NtFiMeB815LQ2eRAfAK945WbNf0KmyJOOcDfgPgAgW1-1SN0pNJTeiM639rinxt_nuAhgjS6O0E0I5pnW0PC7hF5I1uUmgdQG-ayUZEXvF9aVrjQHyxL44hgEsYzVc6hb3jmURhmiEZNTjTNQJtMPtBTa8vbRmNwnb3fkM_6kRdPcEsl_8clo7PLk3bDQ53Va2LhOID1Mk53G0Kr4gE6BCbO8tvh3pOAbKaLZ5XWTW1PQ2t7dthYPFedooazJvyn3OaJ-vIUZSHoz8XRTUOGGlMBynWaDuRtYRuASOTEpFjpQE8fgSHKpGgp5f6Wo7NxF3Ngb_Bz-twALjNKyn-nU6CxXOdDj6o-ZIYf0lVm40]--></g></svg>