<?xml version="1.0" encoding="us-ascii" standalone="no"?><svg xmlns="http://www.w3.org/2000/svg" xmlns:xlink="http://www.w3.org/1999/xlink" contentStyleType="text/css" height="542px" preserveAspectRatio="none" style="width:1201px;height:542px;background:#FFFFFF;" version="1.1" viewBox="0 0 1201 542" width="1201px" zoomAndPan="magnify"><defs/><g><!--cluster Module Jury--><g id="cluster_Module Jury"><rect fill="none" height="435" rx="2.5" ry="2.5" style="stroke:#003366;stroke-width:1.0;" width="1188" x="7" y="101"/><text fill="#000000" font-family="sans-serif" font-size="14" font-weight="bold" lengthAdjust="spacing" textLength="84" x="559" y="117.9659">Module Jury</text></g><g id="elem_UC1"><ellipse cx="782.442" cy="159.8884" fill="#F2F4F7" rx="89.942" ry="20.3884" style="stroke:#003366;stroke-width:1.0;"/><text fill="#000000" font-family="sans-serif" font-size="14" lengthAdjust="spacing" textLength="130" x="714.442" y="164.6214">Consulter planning</text></g><g id="elem_UC2"><ellipse cx="782.5577" cy="237.9115" fill="#F2F4F7" rx="97.5577" ry="21.9115" style="stroke:#003366;stroke-width:1.0;"/><text fill="#000000" font-family="sans-serif" font-size="14" lengthAdjust="spacing" textLength="149" x="705.0577" y="242.6445">Consulter convocation</text></g><g id="elem_UC3"><ellipse cx="782.2797" cy="318.1559" fill="#F2F4F7" rx="101.2797" ry="22.6559" style="stroke:#003366;stroke-width:1.0;"/><text fill="#000000" font-family="sans-serif" font-size="14" lengthAdjust="spacing" textLength="158" x="700.2797" y="322.8889">D&#233;clarer indisponibilit&#233;</text></g><g id="elem_UC4"><ellipse cx="782.5951" cy="403.219" fill="#F2F4F7" rx="126.5951" ry="27.719" style="stroke:#003366;stroke-width:1.0;"/><text fill="#000000" font-family="sans-serif" font-size="14" lengthAdjust="spacing" textLength="216" x="673.5494" y="407.1512">Consulter informations &#233;tudiant</text></g><g id="elem_UC5"><ellipse cx="454.7318" cy="402.9464" fill="#F2F4F7" rx="82.7318" ry="18.9464" style="stroke:#003366;stroke-width:1.0;"/><text fill="#000000" font-family="sans-serif" font-size="14" lengthAdjust="spacing" textLength="111" x="396.2318" y="407.6793">Saisir &#233;valuation</text></g><g id="elem_UC6"><ellipse cx="138.4151" cy="402.983" fill="#F2F4F7" rx="115.4151" ry="25.483" style="stroke:#003366;stroke-width:1.0;"/><text fill="#000000" font-family="sans-serif" font-size="14" lengthAdjust="spacing" textLength="191" x="39.9151" y="407.716">Valider / modifier &#233;valuation</text></g><g id="elem_Auth"><ellipse cx="1103.7128" cy="318.0426" fill="#F2F4F7" rx="75.7128" ry="17.5426" style="stroke:#003366;stroke-width:1.0;"/><text fill="#000000" font-family="sans-serif" font-size="14" lengthAdjust="spacing" textLength="91" x="1055.2128" y="322.7755">S'authentifier</text></g><!--entity Jury--><g id="elem_Jury"><ellipse cx="138.5" cy="14" fill="#F2F4F7" rx="8" ry="8" style="stroke:#003366;stroke-width:1.0;"/><path d="M138.5,22 L138.5,49 M125.5,30 L151.5,30 M138.5,49 L125.5,64 M138.5,49 L151.5,64 " fill="none" style="stroke:#003366;stroke-width:1.0;"/><text fill="#000000" font-family="sans-serif" font-size="14" lengthAdjust="spacing" textLength="197" x="40" y="80.9659">Enseignant / Membre de jury</text></g><!--link Jury to UC1--><g id="link_Jury_UC1"><path d="M237.24,48.72 C336.4,54.19 493.71,67.57 626,100 C666.75,109.99 705.743,125.4826 736.643,139.1526 " fill="none" id="Jury-to-UC1" style="stroke:#003366;stroke-width:1.0;"/><polygon fill="#003366" points="742.13,141.58,735.5177,134.2808,737.5575,139.5571,732.2812,141.5969,742.13,141.58" style="stroke:#003366;stroke-width:1.0;"/></g><!--link Jury to UC2--><g id="link_Jury_UC2"><path d="M237.05,66.3 C358.4,93.62 557.91,141.47 626,175 C641.07,182.42 641.11,190.22 656,198 C674.65,207.74 690.3674,213.8788 710.2074,220.0088 " fill="none" id="Jury-to-UC2" style="stroke:#003366;stroke-width:1.0;"/><polygon fill="#003366" points="715.94,221.78,708.5219,215.3014,711.1628,220.304,706.1603,222.9449,715.94,221.78" style="stroke:#003366;stroke-width:1.0;"/></g><!--link Jury to UC3--><g id="link_Jury_UC3"><path d="M226.27,85.03 C269.9,105.05 323.66,129.51 372,151 C484.42,200.96 515.19,207.57 626,261 C639.61,267.56 642.1,271.08 656,277 C676.35,285.67 693.4731,291.8087 714.0331,298.3587 " fill="none" id="Jury-to-UC3" style="stroke:#003366;stroke-width:1.0;"/><polygon fill="#003366" points="719.75,300.18,712.3888,293.6368,714.9859,298.6623,709.9605,301.2593,719.75,300.18" style="stroke:#003366;stroke-width:1.0;"/></g><!--link Jury to UC4--><g id="link_Jury_UC4"><path d="M201.45,85.07 C218.78,96.84 237.41,110.05 254,123 C309.35,166.18 313.21,189.63 372,228 C488.25,303.87 527.44,305.64 656,358 C674.54,365.55 689.2307,371.1187 708.0407,377.8487 " fill="none" id="Jury-to-UC4" style="stroke:#003366;stroke-width:1.0;"/><polygon fill="#003366" points="713.69,379.87,706.5636,373.0719,708.9823,378.1856,703.8686,380.6043,713.69,379.87" style="stroke:#003366;stroke-width:1.0;"/></g><!--link Jury to UC5--><g id="link_Jury_UC5"><path d="M217.27,85.07 C231.44,95.63 244.67,108.27 254,123 C299.75,195.22 234.35,243.4 284,313 C311.77,351.92 355.9839,373.5454 394.4839,386.7354 " fill="none" id="Jury-to-UC5" style="stroke:#003366;stroke-width:1.0;"/><polygon fill="#003366" points="400.16,388.68,392.9422,381.979,395.4299,387.0595,390.3494,389.5471,400.16,388.68" style="stroke:#003366;stroke-width:1.0;"/></g><!--link UC6 to UC5--><g id="link_UC6_UC5"><path d="M254.09,403.94 C282.79,404.07 313.52,404.13 342,404 C351.68,403.96 355.8301,403.9317 365.9001,403.8617 " fill="none" id="UC6-to-UC5" style="stroke:#003366;stroke-width:1.0;stroke-dasharray:7.0,7.0;"/><polygon fill="#003366" points="371.9,403.82,362.8724,399.8827,366.9001,403.8548,362.928,407.8825,371.9,403.82" style="stroke:#003366;stroke-width:1.0;"/><text fill="#000000" font-family="sans-serif" font-size="13" lengthAdjust="spacing" textLength="56" x="285" y="399.897">&#171;extend&#187;</text></g><!--link UC5 to UC4--><g id="link_UC5_UC4"><path d="M537.34,403 C573.18,403 610.04,403 649.78,403 " fill="none" id="UC5-to-UC4" style="stroke:#003366;stroke-width:1.0;stroke-dasharray:7.0,7.0;"/><polygon fill="#003366" points="655.78,403,646.78,399,650.78,403,646.78,407,655.78,403" style="stroke:#003366;stroke-width:1.0;"/><text fill="#000000" font-family="sans-serif" font-size="13" lengthAdjust="spacing" textLength="57" x="568" y="398.897">&#171;include&#187;</text></g><!--link UC1 to Auth--><g id="link_UC1_Auth"><path d="M843.58,175.09 C864.66,181.18 888.24,188.94 909,198 C975.12,226.85 1040.4738,271.9988 1075.3238,297.5888 " fill="none" id="UC1-to-Auth" style="stroke:#003366;stroke-width:1.0;stroke-dasharray:7.0,7.0;"/><polygon fill="#003366" points="1080.16,301.14,1075.2731,292.5891,1076.1298,298.1807,1070.5382,299.0374,1080.16,301.14" style="stroke:#003366;stroke-width:1.0;"/><text fill="#000000" font-family="sans-serif" font-size="13" lengthAdjust="spacing" textLength="57" x="940" y="210.897">&#171;include&#187;</text></g><!--link UC2 to Auth--><g id="link_UC2_Auth"><path d="M849.26,254.06 C891.73,264.47 948.17,278.41 998,291 C1015.8,295.5 1029.4814,299.0066 1046.7514,303.4766 " fill="none" id="UC2-to-Auth" style="stroke:#003366;stroke-width:1.0;stroke-dasharray:7.0,7.0;"/><polygon fill="#003366" points="1052.56,304.98,1044.8494,298.8525,1047.7195,303.7271,1042.8448,306.5972,1052.56,304.98" style="stroke:#003366;stroke-width:1.0;"/><text fill="#000000" font-family="sans-serif" font-size="13" lengthAdjust="spacing" textLength="57" x="940" y="272.897">&#171;include&#187;</text></g><!--link UC3 to Auth--><g id="link_UC3_Auth"><path d="M884.43,318 C930.89,318 979.04,318 1021.76,318 " fill="none" id="UC3-to-Auth" style="stroke:#003366;stroke-width:1.0;stroke-dasharray:7.0,7.0;"/><polygon fill="#003366" points="1027.76,318,1018.76,314,1022.76,318,1018.76,322,1027.76,318" style="stroke:#003366;stroke-width:1.0;"/><text fill="#000000" font-family="sans-serif" font-size="13" lengthAdjust="spacing" textLength="57" x="940" y="313.897">&#171;include&#187;</text></g><!--link UC4 to Auth--><g id="link_UC4_Auth"><path d="M863.17,381.77 C922.78,365.89 996.6322,346.2044 1047.3122,332.7044 " fill="none" id="UC4-to-Auth" style="stroke:#003366;stroke-width:1.0;stroke-dasharray:7.0,7.0;"/><polygon fill="#003366" points="1053.11,331.16,1043.3837,329.6114,1048.2785,332.447,1045.4429,337.3418,1053.11,331.16" style="stroke:#003366;stroke-width:1.0;"/><text fill="#000000" font-family="sans-serif" font-size="13" lengthAdjust="spacing" textLength="57" x="940" y="343.897">&#171;include&#187;</text></g><!--link UC5 to Auth--><g id="link_UC5_Auth"><path d="M493.33,419.8 C572.58,452.53 760.9,517.41 909,467 C986.87,440.49 1053.8361,373.0586 1083.6461,339.7886 " fill="none" id="UC5-to-Auth" style="stroke:#003366;stroke-width:1.0;stroke-dasharray:7.0,7.0;"/><polygon fill="#003366" points="1087.65,335.32,1078.665,339.3537,1084.3134,339.0439,1084.6232,344.6922,1087.65,335.32" style="stroke:#003366;stroke-width:1.0;"/><text fill="#000000" font-family="sans-serif" font-size="13" lengthAdjust="spacing" textLength="57" x="754" y="462.897">&#171;include&#187;</text></g><!--SRC=[ZP3BRjim44Nt_8g1i-WgSMt93X0O1b8tNWJDge_zH1pBKzD3WuyyKFY3_1t-iLAq6iX115G08SxSCvUNdFdmQcYk09or0Vwa3S3IIbXOOnrSVCvVxdvZeRTkKKodRzqVQwusGjx3AFNsQM4L4dTo-uBLfdOsYcwdb-DbkRnkoUYfGa__nQ9pzhabFqgpLxDXUn-_OTcXmotuDMhxp5B32eqdPMWL85XmNAy3Q7PK1RQYr2dpu4uySIqe0ORmGDj7Hw09VaVtEW3qS9ysIZLJABKX63nO7TF_FWEdSFykDLXOyT44Sh0pA99IP8-VYr4VLrbviXKsaLfqV8v-FHugWowXB9hzpWe_ik5mFBHyqMVDih9kcwqz70yXQawtRAVAywdlo9vTefxGn6wQoJdt2mthv3s4hTMyOlfePlhE-nF6i2O9cS_CRMgelLBD8yBbvJo_KASOTukYMvJTOg9KEWskhd81Dp2RqKiWqVEvQXedeSm2IsMYfgGaQPIb9iKxBHtTBnNzKjalJNgalm00]--></g></svg>