<?xml version="1.0" encoding="us-ascii" standalone="no"?><svg xmlns="http://www.w3.org/2000/svg" xmlns:xlink="http://www.w3.org/1999/xlink" contentStyleType="text/css" height="519px" preserveAspectRatio="none" style="width:1174px;height:519px;background:#FFFFFF;" version="1.1" viewBox="0 0 1174 519" width="1174px" zoomAndPan="magnify"><defs/><g><!--cluster Module Jury--><g id="cluster_Module Jury"><rect fill="none" height="428" rx="2.5" ry="2.5" style="stroke:#003366;stroke-width:1.0;" width="918" x="250" y="7"/><text fill="#000000" font-family="sans-serif" font-size="14" font-weight="bold" lengthAdjust="spacing" textLength="84" x="667" y="23.9659">Module Jury</text></g><g id="elem_UC1"><ellipse cx="381.442" cy="65.8884" fill="#F2F4F7" rx="89.942" ry="20.3884" style="stroke:#003366;stroke-width:1.0;"/><text fill="#000000" font-family="sans-serif" font-size="14" lengthAdjust="spacing" textLength="130" x="313.442" y="70.6214">Consulter planning</text></g><g id="elem_UC2"><ellipse cx="381.5577" cy="143.9115" fill="#F2F4F7" rx="97.5577" ry="21.9115" style="stroke:#003366;stroke-width:1.0;"/><text fill="#000000" font-family="sans-serif" font-size="14" lengthAdjust="spacing" textLength="149" x="304.0577" y="148.6445">Consulter convocation</text></g><g id="elem_UC3"><ellipse cx="381.2797" cy="224.1559" fill="#F2F4F7" rx="101.2797" ry="22.6559" style="stroke:#003366;stroke-width:1.0;"/><text fill="#000000" font-family="sans-serif" font-size="14" lengthAdjust="spacing" textLength="158" x="299.2797" y="228.8889">D&#233;clarer indisponibilit&#233;</text></g><g id="elem_UC4"><ellipse cx="697.7318" cy="383.9464" fill="#F2F4F7" rx="82.7318" ry="18.9464" style="stroke:#003366;stroke-width:1.0;"/><text fill="#000000" font-family="sans-serif" font-size="14" lengthAdjust="spacing" textLength="111" x="639.2318" y="388.6793">Saisir &#233;valuation</text></g><g id="elem_UC5"><ellipse cx="381.296" cy="306.9592" fill="#F2F4F7" rx="112.796" ry="24.9592" style="stroke:#003366;stroke-width:1.0;"/><text fill="#000000" font-family="sans-serif" font-size="14" lengthAdjust="spacing" textLength="185" x="285.796" y="311.6922">G&#233;n&#233;rer fiches d'&#233;valuation</text></g><g id="elem_UC6"><ellipse cx="381.4151" cy="392.983" fill="#F2F4F7" rx="115.4151" ry="25.483" style="stroke:#003366;stroke-width:1.0;"/><text fill="#000000" font-family="sans-serif" font-size="14" lengthAdjust="spacing" textLength="191" x="282.9151" y="397.716">Valider / modifier &#233;valuation</text></g><g id="elem_UC7"><ellipse cx="1025.5951" cy="384.219" fill="#F2F4F7" rx="126.5951" ry="27.719" style="stroke:#003366;stroke-width:1.0;"/><text fill="#000000" font-family="sans-serif" font-size="14" lengthAdjust="spacing" textLength="216" x="916.5494" y="388.1512">Consulter informations &#233;tudiant</text></g><!--entity Jury--><g id="elem_Jury"><ellipse cx="104.5" cy="193" fill="#F2F4F7" rx="8" ry="8" style="stroke:#003366;stroke-width:1.0;"/><path d="M104.5,201 L104.5,228 M91.5,209 L117.5,209 M104.5,228 L91.5,243 M104.5,228 L117.5,243 " fill="none" style="stroke:#003366;stroke-width:1.0;"/><text fill="#000000" font-family="sans-serif" font-size="14" lengthAdjust="spacing" textLength="197" x="6" y="259.9659">Enseignant / Membre de jury</text></g><!--link Jury to UC1--><g id="link_Jury_UC1"><path d="M141.62,183.9 C167.27,157.68 203.81,124.59 242,104 C263.07,92.64 281.9968,85.9453 304.6968,80.1453 " fill="none" id="Jury-to-UC1" style="stroke:#003366;stroke-width:1.0;"/><polygon fill="#003366" points="310.51,78.66,300.7999,77.0125,305.6656,79.8978,302.7803,84.7635,310.51,78.66" style="stroke:#003366;stroke-width:1.0;"/></g><!--link Jury to UC2--><g id="link_Jury_UC2"><path d="M203.16,195.33 C216.22,191.51 229.43,187.65 242,184 C267.71,176.52 290.3653,169.9636 314.7253,162.9336 " fill="none" id="Jury-to-UC2" style="stroke:#003366;stroke-width:1.0;"/><polygon fill="#003366" points="320.49,161.27,310.7338,159.9223,315.686,162.6564,312.952,167.6086,320.49,161.27" style="stroke:#003366;stroke-width:1.0;"/></g><!--link Jury to UC3--><g id="link_Jury_UC3"><path d="M203.23,224 C228.08,224 248.84,224 273.84,224 " fill="none" id="Jury-to-UC3" style="stroke:#003366;stroke-width:1.0;"/><polygon fill="#003366" points="279.84,224,270.84,220,274.84,224,270.84,228,279.84,224" style="stroke:#003366;stroke-width:1.0;"/></g><!--link Jury to UC4--><g id="link_Jury_UC4"><path d="M117.96,264.09 C136.1,314.69 175.13,399.52 242,436 C381.62,512.16 575.4413,439.8184 655.6213,403.6284 " fill="none" id="Jury-to-UC4" style="stroke:#003366;stroke-width:1.0;"/><polygon fill="#003366" points="661.09,401.16,651.2413,401.2167,656.5327,403.217,654.5325,408.5084,661.09,401.16" style="stroke:#003366;stroke-width:1.0;"/></g><!--link Jury to UC5--><g id="link_Jury_UC5"><path d="M203.23,253.49 C239.82,264.54 274.776,275.0861 307.936,285.0961 " fill="none" id="Jury-to-UC5" style="stroke:#003366;stroke-width:1.0;"/><polygon fill="#003366" points="313.68,286.83,306.22,280.3998,308.8933,285.3851,303.9081,288.0584,313.68,286.83" style="stroke:#003366;stroke-width:1.0;"/></g><!--link UC6 to UC4--><g id="link_UC6_UC4"><path d="M496.31,389.74 C535.8,388.6 573.2425,387.5319 609.5325,386.4919 " fill="none" id="UC6-to-UC4" style="stroke:#003366;stroke-width:1.0;stroke-dasharray:7.0,7.0;"/><polygon fill="#003366" points="615.53,386.32,606.4191,382.5795,610.5321,386.4632,606.6483,390.5762,615.53,386.32" style="stroke:#003366;stroke-width:1.0;"/><text fill="#000000" font-family="sans-serif" font-size="13" lengthAdjust="spacing" textLength="56" x="528" y="383.897">&#171;extend&#187;</text></g><!--link UC4 to UC7--><g id="link_UC4_UC7"><path d="M780.34,384 C816.18,384 853.04,384 892.78,384 " fill="none" id="UC4-to-UC7" style="stroke:#003366;stroke-width:1.0;stroke-dasharray:7.0,7.0;"/><polygon fill="#003366" points="898.78,384,889.78,380,893.78,384,889.78,388,898.78,384" style="stroke:#003366;stroke-width:1.0;"/><text fill="#000000" font-family="sans-serif" font-size="13" lengthAdjust="spacing" textLength="57" x="811" y="379.897">&#171;include&#187;</text></g><!--SRC=[ZP3FJkCm4CRlVefHEN22GbjQQLNbi8KY8JWjS9_QatIsxhYo7VverGVAS-J5SD8iIhKWRIGhdfdVD_vcvY6-MyeKW7Skmfzq0LWwYGjddOUJY_Phi_Siz9aTZwVJp-pZclL6A0IuJBbzEgXZuWxTVgBU5DwLOZhrShISB6STMGRI6EY_MFJUlNRaLsxsQZxivWaRbXrwt49Oet6lB0NaQ0CfItc4wC1piOvWs9EEx4IfW-V1ZGJYGb0Y3E61jYjFO0X-b_vz01ZWBbsKQbGeXIKOF3XJflzT2npC_Hrgi70IIXl9mywYI7BHzdXQN7x7QISlJcDZgKD7n-XrNMcBFg4iXiFE2Q_OSgohZXyVyx-G0tkegnUqPR_lv9YxhIkfgwPlpdfD0SpflvehTInwHiicIOQmTOPpfgyUcdutAqlk_BP5GzB5qd1QUwUQgRrIpLBXx2nhDzOBHlrWt0yc_I3PJS_3-NbRWHymdzDR935Pffh4eJ1h2opQbeQox0C0]--></g></svg>