<?xml version="1.0" encoding="us-ascii" standalone="no"?><svg xmlns="http://www.w3.org/2000/svg" xmlns:xlink="http://www.w3.org/1999/xlink" contentStyleType="text/css" height="627px" preserveAspectRatio="none" style="width:1201px;height:627px;background:#FFFFFF;" version="1.1" viewBox="0 0 1201 627" width="1201px" zoomAndPan="magnify"><defs/><g><!--cluster Module Jury--><g id="cluster_Module Jury"><rect fill="none" height="520" rx="2.5" ry="2.5" style="stroke:#003366;stroke-width:1.0;" width="1188" x="7" y="101"/><text fill="#000000" font-family="sans-serif" font-size="14" font-weight="bold" lengthAdjust="spacing" textLength="84" x="559" y="117.9659">Module Jury</text></g><g id="elem_UC1"><ellipse cx="782.442" cy="244.8884" fill="#F2F4F7" rx="89.942" ry="20.3884" style="stroke:#003366;stroke-width:1.0;"/><text fill="#000000" font-family="sans-serif" font-size="14" lengthAdjust="spacing" textLength="130" x="714.442" y="249.6214">Consulter planning</text></g><g id="elem_UC2"><ellipse cx="782.5577" cy="322.9115" fill="#F2F4F7" rx="97.5577" ry="21.9115" style="stroke:#003366;stroke-width:1.0;"/><text fill="#000000" font-family="sans-serif" font-size="14" lengthAdjust="spacing" textLength="149" x="705.0577" y="327.6445">Consulter convocation</text></g><g id="elem_UC3"><ellipse cx="782.2797" cy="403.1559" fill="#F2F4F7" rx="101.2797" ry="22.6559" style="stroke:#003366;stroke-width:1.0;"/><text fill="#000000" font-family="sans-serif" font-size="14" lengthAdjust="spacing" textLength="158" x="700.2797" y="407.8889">D&#233;clarer indisponibilit&#233;</text></g><g id="elem_UC4"><ellipse cx="782.5951" cy="488.219" fill="#F2F4F7" rx="126.5951" ry="27.719" style="stroke:#003366;stroke-width:1.0;"/><text fill="#000000" font-family="sans-serif" font-size="14" lengthAdjust="spacing" textLength="216" x="673.5494" y="492.1512">Consulter informations &#233;tudiant</text></g><g id="elem_UC5"><ellipse cx="454.7318" cy="487.9464" fill="#F2F4F7" rx="82.7318" ry="18.9464" style="stroke:#003366;stroke-width:1.0;"/><text fill="#000000" font-family="sans-serif" font-size="14" lengthAdjust="spacing" textLength="111" x="396.2318" y="492.6793">Saisir &#233;valuation</text></g><g id="elem_UC6"><ellipse cx="138.4151" cy="487.983" fill="#F2F4F7" rx="115.4151" ry="25.483" style="stroke:#003366;stroke-width:1.0;"/><text fill="#000000" font-family="sans-serif" font-size="14" lengthAdjust="spacing" textLength="191" x="39.9151" y="492.716">Valider / modifier &#233;valuation</text></g><g id="elem_UC7"><ellipse cx="782.296" cy="163.9592" fill="#F2F4F7" rx="112.796" ry="24.9592" style="stroke:#003366;stroke-width:1.0;"/><text fill="#000000" font-family="sans-serif" font-size="14" lengthAdjust="spacing" textLength="185" x="686.796" y="168.6922">G&#233;n&#233;rer fiches d'&#233;valuation</text></g><g id="elem_Auth"><ellipse cx="1103.7128" cy="364.0426" fill="#F2F4F7" rx="75.7128" ry="17.5426" style="stroke:#003366;stroke-width:1.0;"/><text fill="#000000" font-family="sans-serif" font-size="14" lengthAdjust="spacing" textLength="91" x="1055.2128" y="368.7755">S'authentifier</text></g><!--entity Jury--><g id="elem_Jury"><ellipse cx="138.5" cy="14" fill="#F2F4F7" rx="8" ry="8" style="stroke:#003366;stroke-width:1.0;"/><path d="M138.5,22 L138.5,49 M125.5,30 L151.5,30 M138.5,49 L125.5,64 M138.5,49 L151.5,64 " fill="none" style="stroke:#003366;stroke-width:1.0;"/><text fill="#000000" font-family="sans-serif" font-size="14" lengthAdjust="spacing" textLength="197" x="40" y="80.9659">Enseignant / Membre de jury</text></g><!--link Jury to UC1--><g id="link_Jury_UC1"><path d="M237.15,65.43 C359.13,91.99 559.85,139.41 626,177 C642.12,186.16 640.05,196.55 656,206 C674.45,216.93 690.5146,223.3944 710.7446,229.3544 " fill="none" id="Jury-to-UC1" style="stroke:#003366;stroke-width:1.0;"/><polygon fill="#003366" points="716.5,231.05,708.9973,224.6696,711.7038,229.637,706.7365,232.3435,716.5,231.05" style="stroke:#003366;stroke-width:1.0;"/></g><!--link Jury to UC2--><g id="link_Jury_UC2"><path d="M226.62,85.01 C270.1,104.72 323.63,128.57 372,149 C483.92,196.26 526.13,180.83 626,250 C642.29,261.29 639.32,272.29 656,283 C672.74,293.75 686.8772,300.0073 705.7972,305.9673 " fill="none" id="Jury-to-UC2" style="stroke:#003366;stroke-width:1.0;"/><polygon fill="#003366" points="711.52,307.77,704.1377,301.2507,706.751,306.2677,701.734,308.8811,711.52,307.77" style="stroke:#003366;stroke-width:1.0;"/></g><!--link Jury to UC3--><g id="link_Jury_UC3"><path d="M199.22,85.07 C216.95,97.12 236.34,110.48 254,123 C307.16,160.68 316.59,175.71 372,210 C479.84,276.74 518.8,272.25 626,340 C640.2,348.98 641.11,355.22 656,363 C674.14,372.48 689.2137,378.4185 708.5837,384.4785 " fill="none" id="Jury-to-UC3" style="stroke:#003366;stroke-width:1.0;"/><polygon fill="#003366" points="714.31,386.27,706.9149,379.7652,709.5381,384.7771,704.5262,387.4003,714.31,386.27" style="stroke:#003366;stroke-width:1.0;"/></g><!--link Jury to UC4--><g id="link_Jury_UC4"><path d="M212.44,85.11 C227.62,95.92 242.48,108.65 254,123 C276.48,150.99 265.35,167.32 284,198 C315.1,249.16 324.8,263.16 372,300 C476.07,381.22 615.1731,435.167 701.7931,463.797 " fill="none" id="Jury-to-UC4" style="stroke:#003366;stroke-width:1.0;"/><polygon fill="#003366" points="707.49,465.68,700.2,459.0576,702.7426,464.1109,697.6894,466.6535,707.49,465.68" style="stroke:#003366;stroke-width:1.0;"/></g><!--link Jury to UC5--><g id="link_Jury_UC5"><path d="M218.37,85.19 C232.28,95.68 245.13,108.27 254,123 C316.05,226.06 217.75,291.59 284,392 C311.38,433.49 357.5588,456.9464 396.7288,471.1364 " fill="none" id="Jury-to-UC5" style="stroke:#003366;stroke-width:1.0;"/><polygon fill="#003366" points="402.37,473.18,395.2706,466.3537,397.669,471.477,392.5457,473.8754,402.37,473.18" style="stroke:#003366;stroke-width:1.0;"/></g><!--link Jury to UC7--><g id="link_Jury_UC7"><path d="M237.36,48.51 C336.61,53.86 493.98,67.32 626,101 C663.82,110.65 699.1908,124.9707 729.5208,138.8007 " fill="none" id="Jury-to-UC7" style="stroke:#003366;stroke-width:1.0;"/><polygon fill="#003366" points="734.98,141.29,728.4507,133.9165,730.4306,139.2156,725.1316,141.1955,734.98,141.29" style="stroke:#003366;stroke-width:1.0;"/></g><!--link UC6 to UC5--><g id="link_UC6_UC5"><path d="M253.82,489.88 C282.6,490.15 313.44,490.26 342,490 C351.78,489.91 356.0407,489.8686 366.2007,489.7186 " fill="none" id="UC6-to-UC5" style="stroke:#003366;stroke-width:1.0;stroke-dasharray:7.0,7.0;"/><polygon fill="#003366" points="372.2,489.63,363.1419,485.7633,367.2005,489.7038,363.26,493.7624,372.2,489.63" style="stroke:#003366;stroke-width:1.0;"/><text fill="#000000" font-family="sans-serif" font-size="13" lengthAdjust="spacing" textLength="56" x="285" y="485.897">&#171;extend&#187;</text></g><!--link UC5 to UC4--><g id="link_UC5_UC4"><path d="M537.34,488 C573.18,488 610.04,488 649.78,488 " fill="none" id="UC5-to-UC4" style="stroke:#003366;stroke-width:1.0;stroke-dasharray:7.0,7.0;"/><polygon fill="#003366" points="655.78,488,646.78,484,650.78,488,646.78,492,655.78,488" style="stroke:#003366;stroke-width:1.0;"/><text fill="#000000" font-family="sans-serif" font-size="13" lengthAdjust="spacing" textLength="57" x="568" y="483.897">&#171;include&#187;</text></g><!--link UC1 to Auth--><g id="link_UC1_Auth"><path d="M839.02,261.02 C860.92,267.54 886.24,275.34 909,283 C948.98,296.45 959.03,299.85 998,316 C1022.35,326.09 1043.9484,335.9597 1064.4084,345.6597 " fill="none" id="UC1-to-Auth" style="stroke:#003366;stroke-width:1.0;stroke-dasharray:7.0,7.0;"/><polygon fill="#003366" points="1069.83,348.23,1063.4112,340.7601,1065.312,346.088,1059.9841,347.9889,1069.83,348.23" style="stroke:#003366;stroke-width:1.0;"/><text fill="#000000" font-family="sans-serif" font-size="13" lengthAdjust="spacing" textLength="57" x="940" y="289.897">&#171;include&#187;</text></g><!--link UC2 to Auth--><g id="link_UC2_Auth"><path d="M867.73,333.83 C920.71,340.63 982.1089,348.5256 1031.0789,354.8156 " fill="none" id="UC2-to-Auth" style="stroke:#003366;stroke-width:1.0;stroke-dasharray:7.0,7.0;"/><polygon fill="#003366" points="1037.03,355.58,1028.6129,350.466,1032.0707,354.943,1027.5937,358.4008,1037.03,355.58" style="stroke:#003366;stroke-width:1.0;"/><text fill="#000000" font-family="sans-serif" font-size="13" lengthAdjust="spacing" textLength="57" x="940" y="338.897">&#171;include&#187;</text></g><!--link UC3 to Auth--><g id="link_UC3_Auth"><path d="M883.78,401.48 C919.95,399.85 960.96,396.76 998,391 C1017.53,387.96 1032.9228,384.4238 1051.0828,379.4538 " fill="none" id="UC3-to-Auth" style="stroke:#003366;stroke-width:1.0;stroke-dasharray:7.0,7.0;"/><polygon fill="#003366" points="1056.87,377.87,1047.1333,376.3876,1052.0473,379.1899,1049.2451,384.1039,1056.87,377.87" style="stroke:#003366;stroke-width:1.0;"/><text fill="#000000" font-family="sans-serif" font-size="13" lengthAdjust="spacing" textLength="57" x="940" y="386.897">&#171;include&#187;</text></g><!--link UC4 to Auth--><g id="link_UC4_Auth"><path d="M867.85,467.68 C908.03,456.79 956.31,441.9 998,424 C1026.45,411.78 1051.8672,396.86 1072.5272,383.72 " fill="none" id="UC4-to-Auth" style="stroke:#003366;stroke-width:1.0;stroke-dasharray:7.0,7.0;"/><polygon fill="#003366" points="1077.59,380.5,1067.8492,381.9548,1073.371,383.1833,1072.1425,388.7052,1077.59,380.5" style="stroke:#003366;stroke-width:1.0;"/><text fill="#000000" font-family="sans-serif" font-size="13" lengthAdjust="spacing" textLength="57" x="940" y="419.897">&#171;include&#187;</text></g><!--link UC5 to Auth--><g id="link_UC5_Auth"><path d="M491.43,505.09 C570.16,540 762.57,611.42 909,552 C996.24,516.6 1062.4839,425.9101 1088.3339,386.4201 " fill="none" id="UC5-to-Auth" style="stroke:#003366;stroke-width:1.0;stroke-dasharray:7.0,7.0;"/><polygon fill="#003366" points="1091.62,381.4,1083.3441,386.7394,1088.8816,385.5834,1090.0375,391.1209,1091.62,381.4" style="stroke:#003366;stroke-width:1.0;"/><text fill="#000000" font-family="sans-serif" font-size="13" lengthAdjust="spacing" textLength="57" x="754" y="547.897">&#171;include&#187;</text></g><!--link UC7 to Auth--><g id="link_UC7_Auth"><path d="M851.91,183.81 C870.82,190.25 891.06,198.08 909,207 C983.75,244.19 1051.6256,310.2013 1082.5456,342.5713 " fill="none" id="UC7-to-Auth" style="stroke:#003366;stroke-width:1.0;stroke-dasharray:7.0,7.0;"/><polygon fill="#003366" points="1086.69,346.91,1083.3659,337.639,1083.2364,343.2944,1077.581,343.1648,1086.69,346.91" style="stroke:#003366;stroke-width:1.0;"/><text fill="#000000" font-family="sans-serif" font-size="13" lengthAdjust="spacing" textLength="57" x="940" y="222.897">&#171;include&#187;</text></g><!--SRC=[ZP1DRjim48NtFCN0NMILkBPa6oWC0wrR5mYQLN_s33cIfgQ71aab3GeVIEVGnKhHQY2d4L01WZZplZTwmxKFJmOt0i1P6-1tF03iB8UjDTR1cxVfITqlnFZSpRBbyhdxhIArP_GUPh5tYgzK8NBdQH-asfVErgnxzsw-otUhdgmzAkdnlrZfd7tioTVIdCHwsk_ZzyH7wUG1V2MrVIGkeP36ep1O10WM79LL04qELI3BGfmpJpwnHofPSe0ftE7XtY5eX9-rUvg0z70R3q9qBicbGPZSMLt7xsq2pk7-BZNPMlQr2UZWQ2HpJ95cVD_EnZXb-S4gsKNgqVab-h5jb94keiIQ_D4otPEXq3OzdusD9YwiEwJH7jecr9hYbhqhltHzbUJ9HUf1cdgOPd79_P26T9mzXOFLL12-vbbUUZwt3RTDjq51ga8F-kfVp-f5dYjPXmevf7yavdriY9CGtSN3zVKctUgWc0-BR5Zams8nB5P2nBXmSvCKU0VhDVuAo7gp4LtZBEH985QcrXYLACsIr4LweSKSur8sBkNZqc9SMer8Vm00]--></g></svg>