<?xml version="1.0" encoding="us-ascii" standalone="no"?><svg xmlns="http://www.w3.org/2000/svg" xmlns:xlink="http://www.w3.org/1999/xlink" contentStyleType="text/css" height="534px" preserveAspectRatio="none" style="width:1148px;height:534px;background:#FFFFFF;" version="1.1" viewBox="0 0 1148 534" width="1148px" zoomAndPan="magnify"><defs/><g><!--cluster Module Jury--><g id="cluster_Module Jury"><rect fill="none" height="436" rx="2.5" ry="2.5" style="stroke:#003366;stroke-width:1.0;" width="918" x="224" y="12"/><text fill="#000000" font-family="sans-serif" font-size="12" font-weight="bold" lengthAdjust="spacing" textLength="72" x="647" y="31.8281">Module Jury</text></g><g id="elem_UC1"><ellipse cx="353.8026" cy="79.1281" fill="#F2F4F7" rx="92.8026" ry="21.6281" style="stroke:#003366;stroke-width:1.0;"/><text fill="#000000" font-family="sans-serif" font-size="12" lengthAdjust="spacing" textLength="105" x="301.3026" y="81.7841">Consulter planning</text></g><g id="elem_UC2"><ellipse cx="353.8188" cy="158.1638" fill="#F2F4F7" rx="101.3188" ry="22.6638" style="stroke:#003366;stroke-width:1.0;"/><text fill="#000000" font-family="sans-serif" font-size="12" lengthAdjust="spacing" textLength="124" x="291.8188" y="160.8198">Consulter convocation</text></g><g id="elem_UC3"><ellipse cx="354.189" cy="239.0378" fill="#F2F4F7" rx="103.189" ry="23.0378" style="stroke:#003366;stroke-width:1.0;"/><text fill="#000000" font-family="sans-serif" font-size="12" lengthAdjust="spacing" textLength="129" x="289.689" y="241.6938">D&#233;clarer indisponibilit&#233;</text></g><g id="elem_UC4"><ellipse cx="673.6102" cy="397.1281" fill="#F2F4F7" rx="83.6102" ry="21.6281" style="stroke:#003366;stroke-width:1.0;"/><text fill="#000000" font-family="sans-serif" font-size="12" lengthAdjust="spacing" textLength="92" x="627.6102" y="399.7841">Saisir &#233;valuation</text></g><g id="elem_UC5"><ellipse cx="353.9162" cy="321.9832" fill="#F2F4F7" rx="112.9162" ry="24.9832" style="stroke:#003366;stroke-width:1.0;"/><text fill="#000000" font-family="sans-serif" font-size="12" lengthAdjust="spacing" textLength="154" x="276.9162" y="324.6393">G&#233;n&#233;rer fiches d'&#233;valuation</text></g><g id="elem_UC6"><ellipse cx="354.1208" cy="407.2242" fill="#F2F4F7" rx="114.1208" ry="25.2242" style="stroke:#003366;stroke-width:1.0;"/><text fill="#000000" font-family="sans-serif" font-size="12" lengthAdjust="spacing" textLength="157" x="275.6208" y="409.8802">Valider / modifier &#233;valuation</text></g><g id="elem_UC7"><ellipse cx="1003.3224" cy="396.8645" fill="#F2F4F7" rx="122.3224" ry="26.8645" style="stroke:#003366;stroke-width:1.0;"/><text fill="#000000" font-family="sans-serif" font-size="12" lengthAdjust="spacing" textLength="177" x="914.8224" y="399.5205">Consulter informations &#233;tudiant</text></g><!--entity Jury--><g id="elem_Jury"><ellipse cx="91.5" cy="204.5" fill="#F2F4F7" rx="8" ry="8" style="stroke:#003366;stroke-width:1.0;"/><path d="M91.5,212.5 L91.5,239.5 M78.5,220.5 L104.5,220.5 M91.5,239.5 L78.5,254.5 M91.5,239.5 L104.5,254.5 " fill="none" style="stroke:#003366;stroke-width:1.0;"/><text fill="#000000" font-family="sans-serif" font-size="12" lengthAdjust="spacing" textLength="161" x="11" y="274.3281">Enseignant / Membre de jury</text></g><!--link Jury to UC1--><g id="link_Jury_UC1"><path d="M127.24,195.34 C149.97,169.45 181.74,137.9 216,118 C235.78,106.51 253.3579,99.7957 275.1479,93.9057 " fill="none" id="Jury-to-UC1" style="stroke:#003366;stroke-width:1.0;"/><polygon fill="#003366" points="280.94,92.34,271.208,90.8271,276.1132,93.6447,273.2956,98.5499,280.94,92.34" style="stroke:#003366;stroke-width:1.0;"/></g><!--link Jury to UC2--><g id="link_Jury_UC2"><path d="M177.07,210.47 C190.08,206.21 203.38,201.93 216,198 C240.36,190.4 261.5366,184.1084 285.0266,177.3084 " fill="none" id="Jury-to-UC2" style="stroke:#003366;stroke-width:1.0;"/><polygon fill="#003366" points="290.79,175.64,281.0327,174.3004,285.9872,177.0303,283.2572,181.9849,290.79,175.64" style="stroke:#003366;stroke-width:1.0;"/></g><!--link Jury to UC3--><g id="link_Jury_UC3"><path d="M177.08,239 C200.55,239 220.29,239 244.66,239 " fill="none" id="Jury-to-UC3" style="stroke:#003366;stroke-width:1.0;"/><polygon fill="#003366" points="250.66,239,241.66,235,245.66,239,241.66,243,250.66,239" style="stroke:#003366;stroke-width:1.0;"/></g><!--link Jury to UC4--><g id="link_Jury_UC4"><path d="M103.96,282.53 C119.81,332.88 153.77,413.4 216,449 C352.92,527.32 545.2353,456.0873 628.1553,418.4973 " fill="none" id="Jury-to-UC4" style="stroke:#003366;stroke-width:1.0;"/><polygon fill="#003366" points="633.62,416.02,623.7714,416.0928,629.0661,418.0844,627.0745,423.3791,633.62,416.02" style="stroke:#003366;stroke-width:1.0;"/></g><!--link Jury to UC5--><g id="link_Jury_UC5"><path d="M177.17,266.54 C190.17,270.73 203.44,274.99 216,279 C239.39,286.46 259.3451,292.7442 282.0751,299.8742 " fill="none" id="Jury-to-UC5" style="stroke:#003366;stroke-width:1.0;"/><polygon fill="#003366" points="287.8,301.67,280.4098,295.1596,283.0292,300.1735,278.0154,302.7929,287.8,301.67" style="stroke:#003366;stroke-width:1.0;"/></g><!--link UC6 to UC4--><g id="link_UC6_UC4"><path d="M466.94,403.47 C507.64,402.19 546.863,400.9596 584.503,399.7696 " fill="none" id="UC6-to-UC4" style="stroke:#003366;stroke-width:1.0;stroke-dasharray:7.0,7.0;"/><polygon fill="#003366" points="590.5,399.58,581.3781,395.8664,585.5025,399.738,581.6309,403.8624,590.5,399.58" style="stroke:#003366;stroke-width:1.0;"/><text fill="#003366" font-family="sans-serif" font-size="12" lengthAdjust="spacing" textLength="50" x="504" y="391.8281">&#171;extend&#187;</text></g><!--link UC4 to UC7--><g id="link_UC4_UC7"><path d="M757.27,397 C794.65,397 833.58,397 874.7,397 " fill="none" id="UC4-to-UC7" style="stroke:#003366;stroke-width:1.0;stroke-dasharray:7.0,7.0;"/><polygon fill="#003366" points="880.7,397,871.7,393,875.7,397,871.7,401,880.7,397" style="stroke:#003366;stroke-width:1.0;"/><text fill="#003366" font-family="sans-serif" font-size="12" lengthAdjust="spacing" textLength="52" x="793" y="387.8281">&#171;include&#187;</text></g><!--SRC=[TPBFJiCm3CRlUGhJ2wTjOXjCGbCl0o5DsWd1FKlSpYXrgloPc10FrEVeYv6M7bh1Sac- -FVPZfKROcMYHl3XOd1Unye8WqM0OC5HUGgWoQ4AP5a8gO9ra3spHofPSe057B0wEeIKuIEwImRImpuTXEXSaak3a1siZcdVzy2NWBIYHoLzYkqi-sW2EgYDP2Ok-nnlkxjhdB9yjafsBGteSee-jOqoqYMKM9ElBTEH38Ms6VZLb7-LvCb1svobYUEywodtqZRSDbtUWjG9FUZRlvvxCJMzIqCwMHPGMKq5uN-57gwzbRYmhkfHdtmXQafZ7rmRyIr4DrIOpV9-OYEn78lLMAp78hMRoiDytaVW4RPR_0p8Eiz5T_4RsFI1uQla-Gy0]--></g></svg>