<?xml version="1.0" encoding="us-ascii" standalone="no"?><svg xmlns="http://www.w3.org/2000/svg" xmlns:xlink="http://www.w3.org/1999/xlink" contentStyleType="text/css" height="448px" preserveAspectRatio="none" style="width:857px;height:448px;background:#FFFFFF;" version="1.1" viewBox="0 0 857 448" width="857px" zoomAndPan="magnify"><defs/><g><!--cluster Module Jury--><g id="cluster_Module Jury"><rect fill="none" height="430" rx="2.5" ry="2.5" style="stroke:#003366;stroke-width:1.0;" width="627" x="224" y="12"/><text fill="#000000" font-family="sans-serif" font-size="12" font-weight="bold" lengthAdjust="spacing" textLength="72" x="501.5" y="31.8281">Module Jury</text></g><g id="elem_UC1"><ellipse cx="352.8026" cy="243.1281" fill="#F2F4F7" rx="92.8026" ry="21.6281" style="stroke:#003366;stroke-width:1.0;"/><text fill="#000000" font-family="sans-serif" font-size="12" lengthAdjust="spacing" textLength="105" x="300.3026" y="245.7841">Consulter planning</text></g><g id="elem_UC2"><ellipse cx="352.8188" cy="322.1638" fill="#F2F4F7" rx="101.3188" ry="22.6638" style="stroke:#003366;stroke-width:1.0;"/><text fill="#000000" font-family="sans-serif" font-size="12" lengthAdjust="spacing" textLength="124" x="290.8188" y="324.8198">Consulter convocation</text></g><g id="elem_UC3"><ellipse cx="353.189" cy="403.0378" fill="#F2F4F7" rx="103.189" ry="23.0378" style="stroke:#003366;stroke-width:1.0;"/><text fill="#000000" font-family="sans-serif" font-size="12" lengthAdjust="spacing" textLength="129" x="288.689" y="405.6938">D&#233;clarer indisponibilit&#233;</text></g><g id="elem_UC4"><ellipse cx="353.1102" cy="79.1281" fill="#F2F4F7" rx="83.6102" ry="21.6281" style="stroke:#003366;stroke-width:1.0;"/><text fill="#000000" font-family="sans-serif" font-size="12" lengthAdjust="spacing" textLength="92" x="307.1102" y="81.7841">Saisir &#233;valuation</text></g><g id="elem_UC5"><ellipse cx="352.9162" cy="160.9832" fill="#F2F4F7" rx="112.9162" ry="24.9832" style="stroke:#003366;stroke-width:1.0;"/><text fill="#000000" font-family="sans-serif" font-size="12" lengthAdjust="spacing" textLength="154" x="275.9162" y="163.6393">G&#233;n&#233;rer fiches d'&#233;valuation</text></g><g id="elem_UC7"><ellipse cx="712.3224" cy="84.8645" fill="#F2F4F7" rx="122.3224" ry="26.8645" style="stroke:#003366;stroke-width:1.0;"/><text fill="#000000" font-family="sans-serif" font-size="12" lengthAdjust="spacing" textLength="177" x="623.8224" y="87.5205">Consulter informations &#233;tudiant</text></g><g id="elem_UC6"><ellipse cx="712.6208" cy="172.2242" fill="#F2F4F7" rx="114.1208" ry="25.2242" style="stroke:#003366;stroke-width:1.0;"/><text fill="#000000" font-family="sans-serif" font-size="12" lengthAdjust="spacing" textLength="157" x="634.1208" y="174.8802">Valider / modifier &#233;valuation</text></g><!--entity Jury--><g id="elem_Jury"><ellipse cx="91.5" cy="208.5" fill="#F2F4F7" rx="8" ry="8" style="stroke:#003366;stroke-width:1.0;"/><path d="M91.5,216.5 L91.5,243.5 M78.5,224.5 L104.5,224.5 M91.5,243.5 L78.5,258.5 M91.5,243.5 L104.5,258.5 " fill="none" style="stroke:#003366;stroke-width:1.0;"/><text fill="#000000" font-family="sans-serif" font-size="12" lengthAdjust="spacing" textLength="161" x="11" y="278.3281">Enseignant / Membre de jury</text></g><!--link UC5 to UC6--><!--link UC4 to UC6--><!--link UC6 to UC4--><g id="link_UC6_UC4"><path d="M625.83,188.3 C584.08,191.87 534.68,189.26 496,167 C473.87,154.26 485.88,134.02 466,118 C451.97,106.7 440.1272,100.5014 423.1372,94.6914 " fill="none" id="UC6-to-UC4" style="stroke:#003366;stroke-width:1.0;stroke-dasharray:7.0,7.0;"/><polygon fill="#003366" points="417.46,92.75,424.6816,99.4469,422.191,94.3678,427.2701,91.8773,417.46,92.75" style="stroke:#003366;stroke-width:1.0;"/><text fill="#003366" font-family="sans-serif" font-size="12" lengthAdjust="spacing" textLength="50" x="503" y="157.8281">&#171;extend&#187;</text></g><!--link UC4 to UC7--><g id="link_UC4_UC7"><path d="M436.47,80.38 C482.04,81.15 533.5108,82.0092 584.1208,82.8592 " fill="none" id="UC4-to-UC7" style="stroke:#003366;stroke-width:1.0;stroke-dasharray:7.0,7.0;"/><polygon fill="#003366" points="590.12,82.96,581.1884,78.8094,585.1207,82.876,581.0541,86.8083,590.12,82.96" style="stroke:#003366;stroke-width:1.0;"/><text fill="#003366" font-family="sans-serif" font-size="12" lengthAdjust="spacing" textLength="52" x="502" y="72.8281">&#171;include&#187;</text></g><!--link Jury to UC1--><g id="link_Jury_UC1"><path d="M177.11,243 C203.59,243 226.93,243 253.89,243 " fill="none" id="Jury-to-UC1" style="stroke:#003366;stroke-width:1.0;"/><polygon fill="#003366" points="259.89,243,250.89,239,254.89,243,250.89,247,259.89,243" style="stroke:#003366;stroke-width:1.0;"/></g><!--link Jury to UC2--><g id="link_Jury_UC2"><path d="M177.13,269.97 C190.14,274.04 203.42,278.16 216,282 C240.37,289.43 261.5019,295.7037 284.8919,302.5537 " fill="none" id="Jury-to-UC2" style="stroke:#003366;stroke-width:1.0;"/><polygon fill="#003366" points="290.65,304.24,283.137,297.8717,285.8515,302.8347,280.8886,305.5493,290.65,304.24" style="stroke:#003366;stroke-width:1.0;"/></g><!--link Jury to UC3--><g id="link_Jury_UC3"><path d="M128.27,286.6 C151.03,311.82 182.47,342.36 216,362 C234.73,372.97 250.8967,379.5371 271.6067,385.6671 " fill="none" id="Jury-to-UC3" style="stroke:#003366;stroke-width:1.0;"/><polygon fill="#003366" points="277.36,387.37,269.8654,380.9801,272.5656,385.9509,267.5948,388.6511,277.36,387.37" style="stroke:#003366;stroke-width:1.0;"/></g><!--link Jury to UC5--><g id="link_Jury_UC5"><path d="M177.11,216.26 C212.9,204.95 248.2089,193.798 281.5289,183.268 " fill="none" id="Jury-to-UC5" style="stroke:#003366;stroke-width:1.0;"/><polygon fill="#003366" points="287.25,181.46,277.463,180.358,282.4824,182.9667,279.8737,187.9861,287.25,181.46" style="stroke:#003366;stroke-width:1.0;"/></g><!--link Jury to UC4--><g id="link_Jury_UC4"><path d="M125.7,199.4 C148.41,172.37 180.71,138.93 216,118 C236.7,105.72 255.6848,98.6465 278.3848,92.7165 " fill="none" id="Jury-to-UC4" style="stroke:#003366;stroke-width:1.0;"/><polygon fill="#003366" points="284.19,91.2,274.4712,89.6046,279.3523,92.4638,276.4932,97.3449,284.19,91.2" style="stroke:#003366;stroke-width:1.0;"/></g><!--SRC=[TP5BJiCm48RtFiNG3QkqeWygeIgRWf0gTOLWWrYuyIGPv8mhFoeGua0vHow64oAKgDGRU_n__ypOS-LBh12EEK9kJGLJeJ7tu0rOAaeFYYncdWmB8JDlB4mUs24LBDd33FPO7Io2GdWFzdC2qi4k7eHeNP8BZJ3P6nNYlkk0Bm5n1OUPT57R6dP1UxHmr9APkEXoF6zlBd6PuPF9PDjIZyx7w7rJPrhQY18hSaV3T21DlgbxVZ7cdoGvij3K9wd3CEzop3qsDJTrcpUdh4G7wlhSinAN-YREZQqwriLYFYYANzZRrcFNYzIaecS6bL6K4_xNtkrlgNY0vBKafP3VmZ7fcZWJsg4ctPl-jEaqRI_W3ZOR_F38AarxSTcBwquapdHG6DLl8TefGfAatOW6mNmOB8R1QXWiVm00]--></g></svg>