<?xml version="1.0" encoding="us-ascii" standalone="no"?><svg xmlns="http://www.w3.org/2000/svg" xmlns:xlink="http://www.w3.org/1999/xlink" contentStyleType="text/css" height="190px" preserveAspectRatio="none" style="width:563px;height:190px;background:#FFFFFF;" version="1.1" viewBox="0 0 563 190" width="563px" zoomAndPan="magnify"><defs/><g><!--entity System--><g id="elem_System"><rect fill="#F2F4F7" height="39.0679" rx="2.5" ry="2.5" style="stroke:#003366;stroke-width:1.0;" width="268" x="143" y="145"/><text fill="#000000" font-family="sans-serif" font-size="14" lengthAdjust="spacing" textLength="248" x="153" y="169.9659">Syst&#232;me de gestion des soutenances</text></g><!--entity Admin--><g id="elem_Admin"><ellipse cx="57" cy="14" fill="#F2F4F7" rx="8" ry="8" style="stroke:#003366;stroke-width:1.0;"/><path d="M57,22 L57,49 M44,30 L70,30 M57,49 L44,64 M57,49 L70,64 " fill="none" style="stroke:#003366;stroke-width:1.0;"/><text fill="#000000" font-family="sans-serif" font-size="14" lengthAdjust="spacing" textLength="102" x="6" y="80.9659">Administrateur</text></g><!--entity Coord--><g id="elem_Coord"><ellipse cx="188" cy="14" fill="#F2F4F7" rx="8" ry="8" style="stroke:#003366;stroke-width:1.0;"/><path d="M188,22 L188,49 M175,30 L201,30 M188,49 L175,64 M188,49 L201,64 " fill="none" style="stroke:#003366;stroke-width:1.0;"/><text fill="#000000" font-family="sans-serif" font-size="14" lengthAdjust="spacing" textLength="89" x="143.5" y="80.9659">Coordinateur</text></g><!--entity Jury--><g id="elem_Jury"><ellipse cx="366" cy="14" fill="#F2F4F7" rx="8" ry="8" style="stroke:#003366;stroke-width:1.0;"/><path d="M366,22 L366,49 M353,30 L379,30 M366,49 L353,64 M366,49 L379,64 " fill="none" style="stroke:#003366;stroke-width:1.0;"/><text fill="#000000" font-family="sans-serif" font-size="14" lengthAdjust="spacing" textLength="197" x="267.5" y="80.9659">Enseignant / Membre de jury</text></g><!--entity Student--><g id="elem_Student"><ellipse cx="528" cy="14" fill="#F2F4F7" rx="8" ry="8" style="stroke:#003366;stroke-width:1.0;"/><path d="M528,22 L528,49 M515,30 L541,30 M528,49 L515,64 M528,49 L541,64 " fill="none" style="stroke:#003366;stroke-width:1.0;"/><text fill="#000000" font-family="sans-serif" font-size="14" lengthAdjust="spacing" textLength="57" x="499.5" y="80.9659">&#201;tudiant</text></g><!--link Admin to System--><g id="link_Admin_System"><path d="M113.3708,78.0813 C119.3808,81.4313 120.19,81.85 126,85 C164.83,106.06 204.4573,126.5595 235.1573,142.2495 " fill="none" id="Admin-System" style="stroke:#003366;stroke-width:1.0;"/><polygon fill="#003366" points="108.13,75.16,114.0437,83.0358,112.4974,77.5944,117.9387,76.048,108.13,75.16" style="stroke:#003366;stroke-width:1.0;"/><polygon fill="#003366" points="240.5,144.98,234.3063,137.3224,236.0478,142.7046,230.6656,144.446,240.5,144.98" style="stroke:#003366;stroke-width:1.0;"/></g><!--link Coord to System--><g id="link_Coord_System"><path d="M221.2627,89.9129 C236.5327,110.0729 247.1985,124.1462 259.3185,140.1562 " fill="none" id="Coord-System" style="stroke:#003366;stroke-width:1.0;"/><polygon fill="#003366" points="217.64,85.13,219.8855,94.7195,220.6589,89.1157,226.2627,89.8891,217.64,85.13" style="stroke:#003366;stroke-width:1.0;"/><polygon fill="#003366" points="262.94,144.94,260.697,135.35,259.9221,140.9535,254.3186,140.1786,262.94,144.94" style="stroke:#003366;stroke-width:1.0;"/></g><!--link Jury to System--><g id="link_Jury_System"><path d="M332.7373,89.9129 C317.4673,110.0729 306.8015,124.1462 294.6815,140.1562 " fill="none" id="Jury-System" style="stroke:#003366;stroke-width:1.0;"/><polygon fill="#003366" points="336.36,85.13,327.7373,89.8891,333.3411,89.1157,334.1145,94.7195,336.36,85.13" style="stroke:#003366;stroke-width:1.0;"/><polygon fill="#003366" points="291.06,144.94,299.6814,140.1786,294.0779,140.9535,293.303,135.35,291.06,144.94" style="stroke:#003366;stroke-width:1.0;"/></g><!--link Student to System--><g id="link_Student_System"><path d="M494.7381,76.4923 C489.1981,80.9323 487.95,81.48 482,85 C437.89,111.11 389.2505,129.6087 347.6005,143.0387 " fill="none" id="Student-System" style="stroke:#003366;stroke-width:1.0;"/><polygon fill="#003366" points="499.42,72.74,489.8956,75.2472,495.5184,75.8669,494.8987,81.4897,499.42,72.74" style="stroke:#003366;stroke-width:1.0;"/><polygon fill="#003366" points="341.89,144.88,351.6833,145.925,346.6487,143.3456,349.2281,138.311,341.89,144.88" style="stroke:#003366;stroke-width:1.0;"/></g><!--SRC=[ZP1DJiCm48NtFiKehAi2HMKJLOAAB12ioWM6P4XDad7bcQYgK0_0JRX7BuRh9cs3MDIIfV5xt_nuKj5DJJC3u9rJ-0e1GEPOvwvs7gwkuudgYsKwgfF9T7fKtvOshvX4u2Pest0nry0TgZrYNfNUjLnqsTbjTfVTTsGhbAFGHInwxzOT-TyqUyPJhiXbVKd5TDpzNYhBA_JOW2onS6lB9NnWBNJcn2yjzlofnvcz2dsmfB-0EMmYUIWQorRKerBh4q21AFN-t3bVM3wvKUZT9nQo9IChZE6LcdTFK11yjduJuUSGzEpkMzl21ZGwY_0WLcDEUqaM6z7TJnDBb2Hg7OTGG5oh59ha98VSm54JzhWr9WuBwMWqwsGJ1nme-oa6GjTyeFq2]--></g></svg>