<?xml version="1.0" encoding="us-ascii" standalone="no"?><svg xmlns="http://www.w3.org/2000/svg" xmlns:xlink="http://www.w3.org/1999/xlink" contentStyleType="text/css" height="547px" preserveAspectRatio="none" style="width:529px;height:547px;background:#FFFFFF;" version="1.1" viewBox="0 0 529 547" width="529px" zoomAndPan="magnify"><defs/><g><!--cluster Syst?me de gestion des soutenances--><g id="cluster_Syst&#232;me de gestion des soutenances"><rect fill="#F2F4F7" height="534" rx="2.5" ry="2.5" style="stroke:#003366;stroke-width:1.0;" width="300" x="223" y="7"/><text fill="#000000" font-family="sans-serif" font-size="14" font-weight="bold" lengthAdjust="spacing" textLength="255" x="245.5" y="23.9659">Syst&#232;me de gestion des soutenances</text></g><!--cluster M1--><g id="cluster_M1"><rect fill="#F2F4F7" height="92" rx="2.5" ry="2.5" style="stroke:#003366;stroke-width:1.0;" width="199" x="273.5" y="53"/><text fill="#000000" font-family="sans-serif" font-size="14" font-weight="bold" lengthAdjust="spacing" textLength="161" x="292.5" y="69.9659">Module Administration</text></g><!--cluster M2--><g id="cluster_M2"><rect fill="#F2F4F7" height="98" rx="2.5" ry="2.5" style="stroke:#003366;stroke-width:1.0;" width="228" x="259" y="169"/><text fill="#000000" font-family="sans-serif" font-size="14" font-weight="bold" lengthAdjust="spacing" textLength="147" x="299.5" y="185.9659">Module Coordination</text></g><!--cluster M3--><g id="cluster_M3"><rect fill="#F2F4F7" height="98" rx="2.5" ry="2.5" style="stroke:#003366;stroke-width:1.0;" width="221" x="262.5" y="291"/><text fill="#000000" font-family="sans-serif" font-size="14" font-weight="bold" lengthAdjust="spacing" textLength="84" x="331" y="307.9659">Module Jury</text></g><!--cluster M4--><g id="cluster_M4"><rect fill="#F2F4F7" height="104" rx="2.5" ry="2.5" style="stroke:#003366;stroke-width:1.0;" width="252" x="247" y="413"/><text fill="#000000" font-family="sans-serif" font-size="14" font-weight="bold" lengthAdjust="spacing" textLength="115" x="315.5" y="429.9659">Module &#201;tudiant</text></g><g id="elem_UC_Admin"><ellipse cx="372.9683" cy="110.0937" fill="#F2F4F7" rx="83.4683" ry="19.0937" style="stroke:#003366;stroke-width:1.0;"/><text fill="#000000" font-family="sans-serif" font-size="14" lengthAdjust="spacing" textLength="113" x="313.4683" y="114.8266">G&#233;rer le syst&#232;me</text></g><g id="elem_UC_Coord"><ellipse cx="372.9679" cy="228.9936" fill="#F2F4F7" rx="97.9679" ry="21.9936" style="stroke:#003366;stroke-width:1.0;"/><text fill="#000000" font-family="sans-serif" font-size="14" lengthAdjust="spacing" textLength="150" x="294.9679" y="233.7265">G&#233;rer les soutenances</text></g><g id="elem_UC_Jury"><ellipse cx="372.808" cy="350.7616" fill="#F2F4F7" rx="94.308" ry="21.2616" style="stroke:#003366;stroke-width:1.0;"/><text fill="#000000" font-family="sans-serif" font-size="14" lengthAdjust="spacing" textLength="141" x="299.308" y="355.4946">&#201;valuer les &#233;tudiants</text></g><g id="elem_UC_Student"><ellipse cx="372.7656" cy="475.8531" fill="#F2F4F7" rx="109.7656" ry="24.3531" style="stroke:#003366;stroke-width:1.0;"/><text fill="#000000" font-family="sans-serif" font-size="14" lengthAdjust="spacing" textLength="178" x="280.7656" y="480.5861">Consulter les informations</text></g><!--entity Admin--><g id="elem_Admin"><ellipse cx="104.5" cy="79" fill="#F2F4F7" rx="8" ry="8" style="stroke:#003366;stroke-width:1.0;"/><path d="M104.5,87 L104.5,114 M91.5,95 L117.5,95 M104.5,114 L91.5,129 M104.5,114 L117.5,129 " fill="none" style="stroke:#003366;stroke-width:1.0;"/><text fill="#000000" font-family="sans-serif" font-size="14" lengthAdjust="spacing" textLength="102" x="53.5" y="145.9659">Administrateur</text></g><!--entity Coord--><g id="elem_Coord"><ellipse cx="104.5" cy="198" fill="#F2F4F7" rx="8" ry="8" style="stroke:#003366;stroke-width:1.0;"/><path d="M104.5,206 L104.5,233 M91.5,214 L117.5,214 M104.5,233 L91.5,248 M104.5,233 L117.5,248 " fill="none" style="stroke:#003366;stroke-width:1.0;"/><text fill="#000000" font-family="sans-serif" font-size="14" lengthAdjust="spacing" textLength="89" x="60" y="264.9659">Coordinateur</text></g><!--entity Jury--><g id="elem_Jury"><ellipse cx="104.5" cy="320" fill="#F2F4F7" rx="8" ry="8" style="stroke:#003366;stroke-width:1.0;"/><path d="M104.5,328 L104.5,355 M91.5,336 L117.5,336 M104.5,355 L91.5,370 M104.5,355 L117.5,370 " fill="none" style="stroke:#003366;stroke-width:1.0;"/><text fill="#000000" font-family="sans-serif" font-size="14" lengthAdjust="spacing" textLength="197" x="6" y="386.9659">Enseignant / Membre de jury</text></g><!--entity Student--><g id="elem_Student"><ellipse cx="104.5" cy="445" fill="#F2F4F7" rx="8" ry="8" style="stroke:#003366;stroke-width:1.0;"/><path d="M104.5,453 L104.5,480 M91.5,461 L117.5,461 M104.5,480 L91.5,495 M104.5,480 L117.5,495 " fill="none" style="stroke:#003366;stroke-width:1.0;"/><text fill="#000000" font-family="sans-serif" font-size="14" lengthAdjust="spacing" textLength="57" x="76" y="511.9659">&#201;tudiant</text></g><!--link Admin to UC_Admin--><g id="link_Admin_UC_Admin"><path d="M155.63,110 C193.25,110 239.58,110 283.36,110 " fill="none" id="Admin-to-UC_Admin" style="stroke:#003366;stroke-width:1.0;"/><polygon fill="#003366" points="289.36,110,280.36,106,284.36,110,280.36,114,289.36,110" style="stroke:#003366;stroke-width:1.0;"/></g><!--link Coord to UC_Coord--><g id="link_Coord_UC_Coord"><path d="M149.21,229 C183.25,229 225.79,229 268.88,229 " fill="none" id="Coord-to-UC_Coord" style="stroke:#003366;stroke-width:1.0;"/><polygon fill="#003366" points="274.88,229,265.88,225,269.88,229,265.88,233,274.88,229" style="stroke:#003366;stroke-width:1.0;"/></g><!--link Jury to UC_Jury--><g id="link_Jury_UC_Jury"><path d="M203.22,351 C227.73,351 247.97,351 272.29,351 " fill="none" id="Jury-to-UC_Jury" style="stroke:#003366;stroke-width:1.0;"/><polygon fill="#003366" points="278.29,351,269.29,347,273.29,351,269.29,355,278.29,351" style="stroke:#003366;stroke-width:1.0;"/></g><!--link Student to UC_Student--><g id="link_Student_UC_Student"><path d="M133.02,476 C163.74,476 209.38,476 256.82,476 " fill="none" id="Student-to-UC_Student" style="stroke:#003366;stroke-width:1.0;"/><polygon fill="#003366" points="262.82,476,253.82,472,257.82,476,253.82,480,262.82,476" style="stroke:#003366;stroke-width:1.0;"/></g><!--SRC=[ZL51JiCm4Bpd5QjmhWfjLIu82IgAL95JuOnCiarD4xlosbGLwWFw4_gEV0p7iTE0IaMaACxixCpk-8Rqji3R2419gU7J7W2cKkY9BAI2YqltEFI92spHuN0yRj7d9KzN0edWoc8x-x9KMrwZTi_ILQwa4PdldWwce-crPnh2b17-YykKaXlFF3LDpL6OQYRouZ-ADts_FQsuM3F5Ig0bo-I6YnmMh23iLDnAyvf_zEYKrzQ7vVYRKE12WvQWUBxKaF6wmgM8eYQX-2uhkU2a5TDeL0oCm46XFf5IPLmSgmu8rGT1o7F1X8O-95Y-AOGCuTsehIFFx25mgxqs6RTKLvdR7nGwYevvnVCjwUghT18vKZsdFHAGD1gjIOeK-rGxNOdCZFrs5h5zpYEvykpw2VSSFrO7XGfi2ta_HtwPl3QBr-JT7oPj6gt5uAp5hzaRcoR1SpQpa5yoF2LVxJzOORn1TV2njlekz7FoFsyY6Ptoc4X1fj3UX8k5LALRkxK9DzWuxQB8nGUztkqnIxTgW9gzw-a2uYRrEW4Bijy0]--></g></svg>