<?xml version="1.0" encoding="us-ascii" standalone="no"?><svg xmlns="http://www.w3.org/2000/svg" xmlns:xlink="http://www.w3.org/1999/xlink" contentStyleType="text/css" height="463px" preserveAspectRatio="none" style="width:588px;height:463px;background:#FFFFFF;" version="1.1" viewBox="0 0 588 463" width="588px" zoomAndPan="magnify"><defs/><g><!--entity System--><g id="elem_System"><rect fill="#F2F4F7" height="54.5158" rx="2.5" ry="2.5" style="stroke:#003366;stroke-width:1.0;stroke-dasharray:7.0,7.0;" width="345" x="237" y="209"/><text fill="#000000" font-family="sans-serif" font-size="18" lengthAdjust="spacing" textLength="315" x="252" y="243.2419">Syst&#232;me de gestion des soutenances</text></g><!--entity Admin--><g id="elem_Admin"><ellipse cx="91.5" cy="19" fill="#F2F4F7" rx="8" ry="8" style="stroke:#003366;stroke-width:1.0;"/><path d="M91.5,27 L91.5,54 M78.5,35 L104.5,35 M91.5,54 L78.5,69 M91.5,54 L104.5,69 " fill="none" style="stroke:#003366;stroke-width:1.0;"/><text fill="#000000" font-family="sans-serif" font-size="12" lengthAdjust="spacing" textLength="84" x="49.5" y="88.8281">Administrateur</text></g><!--entity Coord--><g id="elem_Coord"><ellipse cx="91.5" cy="141" fill="#F2F4F7" rx="8" ry="8" style="stroke:#003366;stroke-width:1.0;"/><path d="M91.5,149 L91.5,176 M78.5,157 L104.5,157 M91.5,176 L78.5,191 M91.5,176 L104.5,191 " fill="none" style="stroke:#003366;stroke-width:1.0;"/><text fill="#000000" font-family="sans-serif" font-size="12" lengthAdjust="spacing" textLength="74" x="54.5" y="210.8281">Coordinateur</text></g><!--entity Jury--><g id="elem_Jury"><ellipse cx="91.5" cy="263" fill="#F2F4F7" rx="8" ry="8" style="stroke:#003366;stroke-width:1.0;"/><path d="M91.5,271 L91.5,298 M78.5,279 L104.5,279 M91.5,298 L78.5,313 M91.5,298 L104.5,313 " fill="none" style="stroke:#003366;stroke-width:1.0;"/><text fill="#000000" font-family="sans-serif" font-size="12" lengthAdjust="spacing" textLength="161" x="11" y="332.8281">Enseignant / Membre de jury</text></g><!--entity Student--><g id="elem_Student"><ellipse cx="91.5" cy="385" fill="#F2F4F7" rx="8" ry="8" style="stroke:#003366;stroke-width:1.0;"/><path d="M91.5,393 L91.5,420 M78.5,401 L104.5,401 M91.5,420 L78.5,435 M91.5,420 L104.5,435 " fill="none" style="stroke:#003366;stroke-width:1.0;"/><text fill="#000000" font-family="sans-serif" font-size="12" lengthAdjust="spacing" textLength="46" x="68.5" y="454.8281">&#201;tudiant</text></g><!--link Admin to System--><g id="link_Admin_System"><path d="M138.79,80.31 C198.19,114.71 295.5279,171.073 355.5979,205.863 " fill="none" id="Admin-to-System" style="stroke:#003366;stroke-width:1.0;"/><polygon fill="#003366" points="360.79,208.87,355.0066,200.8981,356.4633,206.3641,350.9972,207.8208,360.79,208.87" style="stroke:#003366;stroke-width:1.0;"/></g><!--link Coord to System--><g id="link_Coord_System"><path d="M133.81,183.47 C167.69,190.01 211.8487,198.5429 259.9787,207.8329 " fill="none" id="Coord-to-System" style="stroke:#003366;stroke-width:1.0;"/><polygon fill="#003366" points="265.87,208.97,257.7912,203.3368,260.9606,208.0224,256.275,211.1918,265.87,208.97" style="stroke:#003366;stroke-width:1.0;"/></g><!--link Jury to System--><g id="link_Jury_System"><path d="M177.18,281.15 C204.51,275.88 229.719,271.0186 260.039,265.1586 " fill="none" id="Jury-to-System" style="stroke:#003366;stroke-width:1.0;"/><polygon fill="#003366" points="265.93,264.02,256.3345,261.8005,261.0208,264.9688,257.8526,269.6552,265.93,264.02" style="stroke:#003366;stroke-width:1.0;"/></g><!--link Student to System--><g id="link_Student_System"><path d="M119.72,403.74 C173.46,372.61 288.628,305.9271 355.758,267.0471 " fill="none" id="Student-to-System" style="stroke:#003366;stroke-width:1.0;"/><polygon fill="#003366" points="360.95,264.04,351.1572,265.0893,356.6233,266.5459,355.1667,272.012,360.95,264.04" style="stroke:#003366;stroke-width:1.0;"/></g><!--SRC=[JL11JiCm4BplAvPoBXIA2YSagCW1YLDUOE9DQXhRrNfp2AWFu2VyenzZuoPgVDgT6S-Czafsv0aFDM7DqUCDGDgxS31iF39LOaBJ4lu0wYjYaD9z4zuzvVtLLFk6OnViDhQHyRguBnwAnpCNsHAF-6grNcysCxoKNbsjIJkoS0HegHQKYEoQdQ1rGxAB0S1KeWQB5-jTS4dO27MyG9CmGnE_ZMhhmeNDmCI-XKIk2IO8tk87-K_MRCAlZliiVjTXqfv-fRDEfPafTQ4W09TJBCe-oUdFPuk6qj1JnuGfTa8QKb4w_rKTUJtT4H1oMrmkdqSOSi4vC9IOxsFq7Fe7]--></g></svg>