<?xml version="1.0" encoding="us-ascii" standalone="no"?><svg xmlns="http://www.w3.org/2000/svg" xmlns:xlink="http://www.w3.org/1999/xlink" contentStyleType="text/css" height="188px" preserveAspectRatio="none" style="width:718px;height:188px;background:#FFFFFF;" version="1.1" viewBox="0 0 718 188" width="718px" zoomAndPan="magnify"><defs/><g><!--cluster Module ?tudiant--><g id="cluster_Module &#201;tudiant"><rect fill="none" height="175" rx="2.5" ry="2.5" style="stroke:#003366;stroke-width:1.0;" width="602" x="110" y="7"/><text fill="#000000" font-family="sans-serif" font-size="14" font-weight="bold" lengthAdjust="spacing" textLength="115" x="353.5" y="23.9659">Module &#201;tudiant</text></g><g id="elem_UC1"><ellipse cx="230.2183" cy="68.2437" fill="#F2F4F7" rx="104.2183" ry="23.2437" style="stroke:#003366;stroke-width:1.0;"/><text fill="#000000" font-family="sans-serif" font-size="14" lengthAdjust="spacing" textLength="165" x="144.7183" y="72.9766">T&#233;l&#233;charger convocation</text></g><g id="elem_UC2"><ellipse cx="574.6161" cy="72.2232" fill="#F2F4F7" rx="121.6161" ry="26.7232" style="stroke:#003366;stroke-width:1.0;"/><text fill="#000000" font-family="sans-serif" font-size="14" lengthAdjust="spacing" textLength="205" x="470.0997" y="76.5731">Consulter infos de soutenance</text></g><g id="elem_UC3"><ellipse cx="230.1621" cy="146.2324" fill="#F2F4F7" rx="89.1621" ry="20.2324" style="stroke:#003366;stroke-width:1.0;"/><text fill="#000000" font-family="sans-serif" font-size="14" lengthAdjust="spacing" textLength="128" x="163.1621" y="150.9654">Consulter r&#233;sultats</text></g><!--entity Student--><g id="elem_Student"><ellipse cx="34.5" cy="77" fill="#F2F4F7" rx="8" ry="8" style="stroke:#003366;stroke-width:1.0;"/><path d="M34.5,85 L34.5,112 M21.5,93 L47.5,93 M34.5,112 L21.5,127 M34.5,112 L47.5,127 " fill="none" style="stroke:#003366;stroke-width:1.0;"/><text fill="#000000" font-family="sans-serif" font-size="14" lengthAdjust="spacing" textLength="57" x="6" y="143.9659">&#201;tudiant</text></g><!--link Student to UC1--><g id="link_Student_UC1"><path d="M63.22,102.27 C86.74,97.41 115.7242,91.4145 147.4142,84.8645 " fill="none" id="Student-to-UC1" style="stroke:#003366;stroke-width:1.0;"/><polygon fill="#003366" points="153.29,83.65,143.6666,81.5545,148.3935,84.6621,145.2859,89.3889,153.29,83.65" style="stroke:#003366;stroke-width:1.0;"/></g><!--link Student to UC3--><g id="link_Student_UC3"><path d="M63.22,113.44 C89.04,118.51 122.6324,125.114 156.6024,131.784 " fill="none" id="Student-to-UC3" style="stroke:#003366;stroke-width:1.0;"/><polygon fill="#003366" points="162.49,132.94,154.4293,127.2809,157.5837,131.9766,152.8879,135.131,162.49,132.94" style="stroke:#003366;stroke-width:1.0;"/></g><!--link UC1 to UC2--><g id="link_UC1_UC2"><path d="M334.23,69.21 C371.65,69.64 408.2504,70.0704 447.0304,70.5204 " fill="none" id="UC1-to-UC2" style="stroke:#003366;stroke-width:1.0;stroke-dasharray:7.0,7.0;"/><polygon fill="#003366" points="453.03,70.59,444.077,66.4858,448.0303,70.532,443.9842,74.4853,453.03,70.59" style="stroke:#003366;stroke-width:1.0;"/><text fill="#000000" font-family="sans-serif" font-size="13" lengthAdjust="spacing" textLength="57" x="365" y="65.897">&#171;include&#187;</text></g><!--SRC=[ZOzHIWD138RVvnHXVMwrNQaWopvOs2TziXuWpAQxGyT4Ph8MaHx0e_GSUp5djsjHK70WJFBp9VbJH7tpL1g08ABmdXA0IbZNuYN0nTNuHlNUCPtLF5-jpkgcTNR752CiadP8WLOJTvfsXtRN1EcudhghPNLTtKna5ybYf7-n68Bi9_8tDmTJN4xtn9tZ5mpu3B75MlQE6zYYZsGyRHLK8BYcLQXT8AjEs9YJvwp_qAvso9e1HdXC1R4QCs38ZIV87gJkqlyDF5dwEYNRz4VV7ssBeQ40LlXLB0vBnf5FwyLFV2qSEwy9TRoL23L1b4w9aIrDBSk_Ma9_73BKE96vEHWpsORPh1pt_QnpOv88y_bGBE4MYiAnzGafoqy0]--></g></svg>