<?xml version="1.0" encoding="us-ascii" standalone="no"?><svg xmlns="http://www.w3.org/2000/svg" xmlns:xlink="http://www.w3.org/1999/xlink" contentStyleType="text/css" height="205px" preserveAspectRatio="none" style="width:722px;height:205px;background:#FFFFFF;" version="1.1" viewBox="0 0 722 205" width="722px" zoomAndPan="magnify"><defs/><g><!--cluster Module ?tudiant--><g id="cluster_Module &#201;tudiant"><rect fill="none" height="187" rx="2.5" ry="2.5" style="stroke:#003366;stroke-width:1.0;" width="607" x="109" y="12"/><text fill="#000000" font-family="sans-serif" font-size="12" font-weight="bold" lengthAdjust="spacing" textLength="100" x="362.5" y="31.8281">Module &#201;tudiant</text></g><g id="elem_UC1"><ellipse cx="231.6223" cy="81.2245" fill="#F2F4F7" rx="106.6223" ry="23.7245" style="stroke:#003366;stroke-width:1.0;"/><text fill="#000000" font-family="sans-serif" font-size="12" lengthAdjust="spacing" textLength="138" x="162.6223" y="83.8805">T&#233;l&#233;charger convocation</text></g><g id="elem_UC2"><ellipse cx="581.0079" cy="85.2016" fill="#F2F4F7" rx="119.0079" ry="26.2016" style="stroke:#003366;stroke-width:1.0;"/><text fill="#000000" font-family="sans-serif" font-size="12" lengthAdjust="spacing" textLength="169" x="496.5079" y="87.8576">Consulter infos de soutenance</text></g><g id="elem_UC3"><ellipse cx="231.5097" cy="161.1281" fill="#F2F4F7" rx="93.5097" ry="21.6281" style="stroke:#003366;stroke-width:1.0;"/><text fill="#000000" font-family="sans-serif" font-size="12" lengthAdjust="spacing" textLength="106" x="178.5097" y="163.7841">Consulter r&#233;sultats</text></g><!--entity Student--><g id="elem_Student"><ellipse cx="34" cy="87.5" fill="#F2F4F7" rx="8" ry="8" style="stroke:#003366;stroke-width:1.0;"/><path d="M34,95.5 L34,122.5 M21,103.5 L47,103.5 M34,122.5 L21,137.5 M34,122.5 L47,137.5 " fill="none" style="stroke:#003366;stroke-width:1.0;"/><text fill="#000000" font-family="sans-serif" font-size="12" lengthAdjust="spacing" textLength="46" x="11" y="157.3281">&#201;tudiant</text></g><!--link Student to UC1--><g id="link_Student_UC1"><path d="M62.18,116.3 C85.89,111.33 115.598,105.1029 147.938,98.3129 " fill="none" id="Student-to-UC1" style="stroke:#003366;stroke-width:1.0;"/><polygon fill="#003366" points="153.81,97.08,144.1801,95.0146,148.9167,98.1074,145.8239,102.8439,153.81,97.08" style="stroke:#003366;stroke-width:1.0;"/></g><!--link Student to UC3--><g id="link_Student_UC3"><path d="M62.18,127.42 C87.47,132.47 120.3561,139.0253 154.3161,145.8053 " fill="none" id="Student-to-UC3" style="stroke:#003366;stroke-width:1.0;"/><polygon fill="#003366" points="160.2,146.98,152.1573,141.2954,155.2968,146.0011,150.591,149.1405,160.2,146.98" style="stroke:#003366;stroke-width:1.0;"/></g><!--link UC1 to UC2--><g id="link_UC1_UC2"><path d="M338.18,82.22 C377.31,82.67 415.9304,83.1113 456.0804,83.5713 " fill="none" id="UC1-to-UC2" style="stroke:#003366;stroke-width:1.0;stroke-dasharray:7.0,7.0;"/><polygon fill="#003366" points="462.08,83.64,453.1264,79.5372,457.0803,83.5827,453.0348,87.5366,462.08,83.64" style="stroke:#003366;stroke-width:1.0;"/><text fill="#003366" font-family="sans-serif" font-size="12" lengthAdjust="spacing" textLength="52" x="374" y="73.8281">&#171;include&#187;</text></g><!--SRC=[TOunRiCm34LtdkBNUmmqsOh0I-PEIGuWoBGjG243YSfIz00zYi_XYrKEF3H3kP2VU9-VRpRnZN4V64FI6rgAF1XCaS8u6VgGs5jG8NBUDA5PVgpqmOarS1ddAbYCQCMSZ97HV6fVQly3VX5gbSpUvGfSbZakivzS6Zd1gppKkpNaUV9wUd_5JogvHAjea44pUaRMOYnEF6-M_N-MjCphv2nlv86-YRQtiTjrpxnNVI2gIxJjAlRumF4OnCUATDql]--></g></svg>