<?xml version="1.0" encoding="us-ascii" standalone="no"?><svg xmlns="http://www.w3.org/2000/svg" xmlns:xlink="http://www.w3.org/1999/xlink" contentStyleType="text/css" height="207px" preserveAspectRatio="none" style="width:988px;height:207px;background:#FFFFFF;" version="1.1" viewBox="0 0 988 207" width="988px" zoomAndPan="magnify"><defs/><g><!--cluster Module ?tudiant--><g id="cluster_Module &#201;tudiant"><rect fill="none" height="183" rx="2.5" ry="2.5" style="stroke:#003366;stroke-width:1.0;" width="872" x="110" y="7"/><text fill="#000000" font-family="sans-serif" font-size="14" font-weight="bold" lengthAdjust="spacing" textLength="115" x="488.5" y="23.9659">Module &#201;tudiant</text></g><g id="elem_UC1"><ellipse cx="230.2183" cy="68.2437" fill="#F2F4F7" rx="104.2183" ry="23.2437" style="stroke:#003366;stroke-width:1.0;"/><text fill="#000000" font-family="sans-serif" font-size="14" lengthAdjust="spacing" textLength="165" x="144.7183" y="72.9766">T&#233;l&#233;charger convocation</text></g><g id="elem_UC2"><ellipse cx="574.6161" cy="72.2232" fill="#F2F4F7" rx="121.6161" ry="26.7232" style="stroke:#003366;stroke-width:1.0;"/><text fill="#000000" font-family="sans-serif" font-size="14" lengthAdjust="spacing" textLength="205" x="470.0997" y="76.5731">Consulter infos de soutenance</text></g><g id="elem_UC3"><ellipse cx="574.6621" cy="154.2324" fill="#F2F4F7" rx="89.1621" ry="20.2324" style="stroke:#003366;stroke-width:1.0;"/><text fill="#000000" font-family="sans-serif" font-size="14" lengthAdjust="spacing" textLength="128" x="507.6621" y="158.9654">Consulter r&#233;sultats</text></g><g id="elem_Auth"><ellipse cx="890.7128" cy="105.0426" fill="#F2F4F7" rx="75.7128" ry="17.5426" style="stroke:#003366;stroke-width:1.0;"/><text fill="#000000" font-family="sans-serif" font-size="14" lengthAdjust="spacing" textLength="91" x="842.2128" y="109.7755">S'authentifier</text></g><!--entity Student--><g id="elem_Student"><ellipse cx="34.5" cy="113" fill="#F2F4F7" rx="8" ry="8" style="stroke:#003366;stroke-width:1.0;"/><path d="M34.5,121 L34.5,148 M21.5,129 L47.5,129 M34.5,148 L21.5,163 M34.5,148 L47.5,163 " fill="none" style="stroke:#003366;stroke-width:1.0;"/><text fill="#000000" font-family="sans-serif" font-size="14" lengthAdjust="spacing" textLength="57" x="6" y="179.9659">&#201;tudiant</text></g><!--link Student to UC1--><g id="link_Student_UC1"><path d="M63.11,131.03 C72.53,126.73 83.16,122.03 93,118 C119.19,107.28 142.9849,98.3629 167.7549,89.4429 " fill="none" id="Student-to-UC1" style="stroke:#003366;stroke-width:1.0;"/><polygon fill="#003366" points="173.4,87.41,163.5771,86.6959,168.6957,89.1041,166.2876,94.2227,173.4,87.41" style="stroke:#003366;stroke-width:1.0;"/></g><!--link Student to UC2--><g id="link_Student_UC2"><path d="M63.11,140.94 C115.82,135.05 234.43,121.49 334,108 C380.56,101.69 426.1791,94.9379 469.4891,88.3079 " fill="none" id="Student-to-UC2" style="stroke:#003366;stroke-width:1.0;"/><polygon fill="#003366" points="475.42,87.4,465.9184,84.8079,470.4776,88.1566,467.1289,92.7158,475.42,87.4" style="stroke:#003366;stroke-width:1.0;"/></g><!--link Student to UC3--><g id="link_Student_UC3"><path d="M63.05,159.31 C72.28,163.66 82.83,167.81 93,170 C236.37,200.91 276.54,177.76 423,170 C447.01,168.73 467.1153,166.9695 490.7153,164.3995 " fill="none" id="Student-to-UC3" style="stroke:#003366;stroke-width:1.0;"/><polygon fill="#003366" points="496.68,163.75,487.2999,160.7478,491.7094,164.2913,488.1659,168.7008,496.68,163.75" style="stroke:#003366;stroke-width:1.0;"/></g><!--link UC1 to UC2--><g id="link_UC1_UC2"><path d="M334.23,69.21 C371.65,69.64 408.2504,70.0704 447.0304,70.5204 " fill="none" id="UC1-to-UC2" style="stroke:#003366;stroke-width:1.0;stroke-dasharray:7.0,7.0;"/><polygon fill="#003366" points="453.03,70.59,444.077,66.4858,448.0303,70.532,443.9842,74.4853,453.03,70.59" style="stroke:#003366;stroke-width:1.0;"/><text fill="#000000" font-family="sans-serif" font-size="13" lengthAdjust="spacing" textLength="57" x="365" y="65.897">&#171;include&#187;</text></g><!--link UC2 to Auth--><g id="link_UC2_Auth"><path d="M684.44,83.45 C729.96,88.23 775.483,93.012 815.483,97.222 " fill="none" id="UC2-to-Auth" style="stroke:#003366;stroke-width:1.0;stroke-dasharray:7.0,7.0;"/><polygon fill="#003366" points="821.45,97.85,812.9181,92.9299,816.4775,97.3266,812.0808,100.886,821.45,97.85" style="stroke:#003366;stroke-width:1.0;"/><text fill="#000000" font-family="sans-serif" font-size="13" lengthAdjust="spacing" textLength="57" x="727" y="84.897">&#171;include&#187;</text></g><!--link UC3 to Auth--><g id="link_UC3_Auth"><path d="M647.93,142.7 C702.27,134.22 769.9316,123.6542 821.5716,115.6042 " fill="none" id="UC3-to-Auth" style="stroke:#003366;stroke-width:1.0;stroke-dasharray:7.0,7.0;"/><polygon fill="#003366" points="827.5,114.68,817.9913,112.114,822.5597,115.4501,819.2235,120.0185,827.5,114.68" style="stroke:#003366;stroke-width:1.0;"/><text fill="#000000" font-family="sans-serif" font-size="13" lengthAdjust="spacing" textLength="57" x="727" y="118.897">&#171;include&#187;</text></g><!--SRC=[ZOzHJiCm38RVSmghFF0qO2iQ4gegmQG-mTF60QmqRQC56oKk4q8x04VPENenqgvC39X4f2Zsxy_Exop8cpEv0l3C0kyn02YOPC6EFPnT3MTG7ooPWvgcy_b1NJLMhyc40DEeRUD5BP7RJxj7lQuzjrIEtSMik2vkHh8DHcCm_sBHUzwCv5zkjYgx7FS9QqilwF4PGeCbRopLKA4BHZbJ2GY3jtKZK5flj5WcfVQUa-v3sj8YIG8OO1aJGw9KZo7Lpa3oo6KRts_WtjBNAicgsxbkfnlqjV6WcLvPO__9CF9fCJt65qoXTH9HInK7A0q4RiKGaZPZo-nKY-zsVOGIHZ8z9fVds4eJLx2LDNvWxgAWjagDky5aaW-cZlFPZpnLAa9mSJ4KuHQop99s4SbprIjzfH_zgvIUA7q2]--></g></svg>