<?xml version="1.0" encoding="us-ascii" standalone="no"?><svg xmlns="http://www.w3.org/2000/svg" xmlns:xlink="http://www.w3.org/1999/xlink" contentStyleType="text/css" height="1026px" preserveAspectRatio="none" style="width:529px;height:1026px;background:#FFFFFF;" version="1.1" viewBox="0 0 529 1026" width="529px" zoomAndPan="magnify"><defs/><g><ellipse cx="204.5" cy="15" fill="#003366" rx="10" ry="10" style="stroke:#003366;stroke-width:1.0;"/><rect fill="#F2F4F7" height="46.3441" rx="2.5" ry="2.5" style="stroke:#003366;stroke-width:1.0;" width="193" x="108" y="45"/><text fill="#000000" font-family="sans-serif" font-size="12" lengthAdjust="spacing" textLength="163" x="123" y="72.8281">D&#233;marrage de la soutenance</text><rect fill="#F2F4F7" height="46.3441" rx="2.5" ry="2.5" style="stroke:#003366;stroke-width:1.0;" width="141" x="134" y="111.3441"/><text fill="#000000" font-family="sans-serif" font-size="12" lengthAdjust="spacing" textLength="111" x="149" y="139.1722">Statut -&gt; EN_COURS</text><rect fill="#F2F4F7" height="46.3441" rx="2.5" ry="2.5" style="stroke:#003366;stroke-width:1.0;" width="236" x="86.5" y="221.6882"/><text fill="#000000" font-family="sans-serif" font-size="12" lengthAdjust="spacing" textLength="206" x="101.5" y="249.5163">Membres du jury saisissent les notes</text><rect fill="#F2F4F7" height="46.3441" rx="2.5" ry="2.5" style="stroke:#003366;stroke-width:1.0;" width="240" x="84.5" y="303.0323"/><text fill="#000000" font-family="sans-serif" font-size="12" lengthAdjust="spacing" textLength="210" x="99.5" y="330.8604">Saisie des observations et remarques</text><polygon fill="#003366" points="204.5,177.6882,216.5,189.6882,204.5,201.6882,192.5,189.6882,204.5,177.6882" style="stroke:#003366;stroke-width:1.0;"/><polygon fill="#003366" points="124,369.5645,285,369.5645,297,382.7366,285,395.9087,124,395.9087,112,382.7366,124,369.5645" style="stroke:#003366;stroke-width:1.0;"/><text fill="#FFFFFF" font-family="sans-serif" font-size="12" lengthAdjust="spacing" textLength="151" x="129" y="387.3926">Saisie termin&#233;e pour tous ?</text><text fill="#003366" font-family="sans-serif" font-size="12" lengthAdjust="spacing" textLength="23" x="302" y="374.2206">Non</text><rect fill="#F2F4F7" height="46.3441" rx="2.5" ry="2.5" style="stroke:#003366;stroke-width:1.0;" width="175" x="348.5" y="263.5323"/><text fill="#000000" font-family="sans-serif" font-size="12" lengthAdjust="spacing" textLength="145" x="363.5" y="291.3604">Modification si n&#233;cessaire</text><rect fill="#F2F4F7" height="46.3441" rx="2.5" ry="2.5" style="stroke:#003366;stroke-width:1.0;" width="169" x="120" y="415.9087"/><text fill="#000000" font-family="sans-serif" font-size="12" lengthAdjust="spacing" textLength="139" x="135" y="443.7367">Validation de l'&#233;valuation</text><rect fill="#F2F4F7" height="46.3441" rx="2.5" ry="2.5" style="stroke:#003366;stroke-width:1.0;" width="257" x="76" y="482.2528"/><text fill="#000000" font-family="sans-serif" font-size="12" lengthAdjust="spacing" textLength="227" x="91" y="510.0809">Calcul automatique de la moyenne (RG6)</text><rect fill="#F2F4F7" height="62.6882" rx="2.5" ry="2.5" style="stroke:#003366;stroke-width:1.0;" width="259" x="75" y="548.5969"/><text fill="#000000" font-family="sans-serif" font-size="12" lengthAdjust="spacing" textLength="194" x="90" y="576.425">D&#233;termination de la d&#233;cision finale</text><text fill="#000000" font-family="sans-serif" font-size="12" lengthAdjust="spacing" textLength="229" x="90" y="592.7691">(Admis, Admis avec corrections, Ajourn&#233;)</text><rect fill="#F2F4F7" height="46.3441" rx="2.5" ry="2.5" style="stroke:#003366;stroke-width:1.0;" width="131" x="139" y="631.2851"/><text fill="#000000" font-family="sans-serif" font-size="12" lengthAdjust="spacing" textLength="101" x="154" y="659.1132">Statut -&gt; EVALUEE</text><rect fill="#F2F4F7" height="46.3441" rx="2.5" ry="2.5" style="stroke:#003366;stroke-width:1.0;" width="216" x="96.5" y="755.1454"/><text fill="#000000" font-family="sans-serif" font-size="12" lengthAdjust="spacing" textLength="186" x="111.5" y="782.9735">G&#233;n&#233;ration du Proc&#232;s-Verbal (PV)</text><rect fill="#F2F4F7" height="46.3441" rx="2.5" ry="2.5" style="stroke:#003366;stroke-width:1.0;" width="240" x="84.5" y="821.4895"/><text fill="#000000" font-family="sans-serif" font-size="12" lengthAdjust="spacing" textLength="210" x="99.5" y="849.3176">Cl&#244;ture officielle de la session globale</text><rect fill="#F2F4F7" height="46.3441" rx="2.5" ry="2.5" style="stroke:#003366;stroke-width:1.0;" width="140" x="134.5" y="887.8336"/><text fill="#000000" font-family="sans-serif" font-size="12" lengthAdjust="spacing" textLength="110" x="149.5" y="915.6617">Statut -&gt; CLOTUREE</text><polygon fill="#003366" points="27,697.6292,382,697.6292,394,710.8013,382,723.9733,27,723.9733,15,710.8013,27,697.6292" style="stroke:#003366;stroke-width:1.0;"/><text fill="#003366" font-family="sans-serif" font-size="12" lengthAdjust="spacing" textLength="19" x="213.5" y="741.8014">Oui</text><text fill="#FFFFFF" font-family="sans-serif" font-size="12" lengthAdjust="spacing" textLength="345" x="32" y="715.4573">Toutes les soutenances de la session globale sont termin&#233;es ?</text><polygon fill="#003366" points="204.5,954.1777,216.5,966.1777,204.5,978.1777,192.5,966.1777,204.5,954.1777" style="stroke:#003366;stroke-width:1.0;"/><ellipse cx="204.5" cy="1009.1777" fill="none" rx="11" ry="11" style="stroke:#003366;stroke-width:1.0;"/><ellipse cx="204.5" cy="1009.1777" fill="#003366" rx="6" ry="6" style="stroke:#003366;stroke-width:1.0;"/><line style="stroke:#003366;stroke-width:1.0;" x1="204.5" x2="204.5" y1="25" y2="45"/><polygon fill="#003366" points="200.5,35,204.5,45,208.5,35,204.5,39" style="stroke:#003366;stroke-width:1.0;"/><line style="stroke:#003366;stroke-width:1.0;" x1="204.5" x2="204.5" y1="91.3441" y2="111.3441"/><polygon fill="#003366" points="200.5,101.3441,204.5,111.3441,208.5,101.3441,204.5,105.3441" style="stroke:#003366;stroke-width:1.0;"/><line style="stroke:#003366;stroke-width:1.0;" x1="204.5" x2="204.5" y1="268.0323" y2="303.0323"/><polygon fill="#003366" points="200.5,293.0323,204.5,303.0323,208.5,293.0323,204.5,297.0323" style="stroke:#003366;stroke-width:1.0;"/><line style="stroke:#003366;stroke-width:1.0;" x1="204.5" x2="204.5" y1="201.6882" y2="221.6882"/><polygon fill="#003366" points="200.5,211.6882,204.5,221.6882,208.5,211.6882,204.5,215.6882" style="stroke:#003366;stroke-width:1.0;"/><line style="stroke:#003366;stroke-width:1.0;" x1="297" x2="436" y1="382.7366" y2="382.7366"/><line style="stroke:#003366;stroke-width:1.0;" x1="436" x2="436" y1="309.8765" y2="382.7366"/><polygon fill="#003366" points="432,319.8765,436,309.8765,440,319.8765,436,315.8765" style="stroke:#003366;stroke-width:1.0;"/><line style="stroke:#003366;stroke-width:1.0;" x1="436" x2="436" y1="189.6882" y2="263.5323"/><line style="stroke:#003366;stroke-width:1.0;" x1="436" x2="216.5" y1="189.6882" y2="189.6882"/><polygon fill="#003366" points="226.5,185.6882,216.5,189.6882,226.5,193.6882,222.5,189.6882" style="stroke:#003366;stroke-width:1.0;"/><line style="stroke:#003366;stroke-width:1.0;" x1="204.5" x2="204.5" y1="349.3765" y2="369.5645"/><polygon fill="#003366" points="200.5,359.5645,204.5,369.5645,208.5,359.5645,204.5,363.5645" style="stroke:#003366;stroke-width:1.0;"/><line style="stroke:#003366;stroke-width:1.0;" x1="204.5" x2="204.5" y1="157.6882" y2="177.6882"/><polygon fill="#003366" points="200.5,167.6882,204.5,177.6882,208.5,167.6882,204.5,171.6882" style="stroke:#003366;stroke-width:1.0;"/><line style="stroke:#003366;stroke-width:1.0;" x1="204.5" x2="204.5" y1="395.9087" y2="415.9087"/><polygon fill="#003366" points="200.5,405.9087,204.5,415.9087,208.5,405.9087,204.5,409.9087" style="stroke:#003366;stroke-width:1.0;"/><line style="stroke:#003366;stroke-width:1.0;" x1="204.5" x2="204.5" y1="462.2528" y2="482.2528"/><polygon fill="#003366" points="200.5,472.2528,204.5,482.2528,208.5,472.2528,204.5,476.2528" style="stroke:#003366;stroke-width:1.0;"/><line style="stroke:#003366;stroke-width:1.0;" x1="204.5" x2="204.5" y1="528.5969" y2="548.5969"/><polygon fill="#003366" points="200.5,538.5969,204.5,548.5969,208.5,538.5969,204.5,542.5969" style="stroke:#003366;stroke-width:1.0;"/><line style="stroke:#003366;stroke-width:1.0;" x1="204.5" x2="204.5" y1="611.2851" y2="631.2851"/><polygon fill="#003366" points="200.5,621.2851,204.5,631.2851,208.5,621.2851,204.5,625.2851" style="stroke:#003366;stroke-width:1.0;"/><line style="stroke:#003366;stroke-width:1.0;" x1="204.5" x2="204.5" y1="801.4895" y2="821.4895"/><polygon fill="#003366" points="200.5,811.4895,204.5,821.4895,208.5,811.4895,204.5,815.4895" style="stroke:#003366;stroke-width:1.0;"/><line style="stroke:#003366;stroke-width:1.0;" x1="204.5" x2="204.5" y1="867.8336" y2="887.8336"/><polygon fill="#003366" points="200.5,877.8336,204.5,887.8336,208.5,877.8336,204.5,881.8336" style="stroke:#003366;stroke-width:1.0;"/><line style="stroke:#003366;stroke-width:1.0;" x1="204.5" x2="204.5" y1="723.9733" y2="755.1454"/><polygon fill="#003366" points="200.5,745.1454,204.5,755.1454,208.5,745.1454,204.5,749.1454" style="stroke:#003366;stroke-width:1.0;"/><line style="stroke:#003366;stroke-width:1.0;" x1="394" x2="406" y1="710.8013" y2="710.8013"/><polygon fill="#003366" points="402,839.0755,406,849.0755,410,839.0755,406,843.0755" style="stroke:#003366;stroke-width:1.0;"/><line style="stroke:#003366;stroke-width:1.0;" x1="406" x2="406" y1="710.8013" y2="966.1777"/><line style="stroke:#003366;stroke-width:1.0;" x1="406" x2="216.5" y1="966.1777" y2="966.1777"/><polygon fill="#003366" points="226.5,962.1777,216.5,966.1777,226.5,970.1777,222.5,966.1777" style="stroke:#003366;stroke-width:1.0;"/><line style="stroke:#003366;stroke-width:1.0;" x1="204.5" x2="204.5" y1="934.1777" y2="954.1777"/><polygon fill="#003366" points="200.5,944.1777,204.5,954.1777,208.5,944.1777,204.5,948.1777" style="stroke:#003366;stroke-width:1.0;"/><line style="stroke:#003366;stroke-width:1.0;" x1="204.5" x2="204.5" y1="677.6292" y2="697.6292"/><polygon fill="#003366" points="200.5,687.6292,204.5,697.6292,208.5,687.6292,204.5,691.6292" style="stroke:#003366;stroke-width:1.0;"/><line style="stroke:#003366;stroke-width:1.0;" x1="204.5" x2="204.5" y1="978.1777" y2="998.1777"/><polygon fill="#003366" points="200.5,988.1777,204.5,998.1777,208.5,988.1777,204.5,992.1777" style="stroke:#003366;stroke-width:1.0;"/><!--SRC=[RLBDRjim3BxhARXJRM3jSGSRs51aGIzjKoHDJWC6HgPRTRAKaLAAlj5otnlunKOvwO81EnaYF_3xyuVqJ0F1hYVeEGvmPOmav6IQh-DXG6Py8kW8F8B4d2XWiDIQPfKmvGINds5-_tssM2zNhJ5CEy9a09ex6hPC0bs6bynl8EZ4YL18u7KSOY9f2t1L5eL186w5U8_9nI102PYK_sSkm2tQ7w_8NNCNEzSxEu5078JnO4dqEgke8psyFZjFK9qk9-B1AKmznioGOXRuKeCJgEvZg8rfDkXTTxnOZ5wCXptwF0tKw0ozpHumfpZeJFMSuXZY6uMWHCkRJtKxvNNaEfz2w5IVoj1thmjFtq9rtGrEFiBq0ToJ1HkPoKw-TVwYCbMldlmdvStrxNe-rw7heNeiLSWKvRaLUUz90ocCJpvkbL8HclhV62RtMdg0Qf5ThHre2pVZGNTyKfxXWQCTVydbXbXFGFMmgTiZSkR7toapGUor1qVUq_zfJ_YpWzdjud6zB1OeQ8dbFukxFm00]--></g></svg>