<?xml version="1.0" encoding="us-ascii" standalone="no"?><svg xmlns="http://www.w3.org/2000/svg" xmlns:xlink="http://www.w3.org/1999/xlink" contentStyleType="text/css" height="1026px" preserveAspectRatio="none" style="width:456px;height:1026px;background:#FFFFFF;" version="1.1" viewBox="0 0 456 1026" width="456px" zoomAndPan="magnify"><defs/><g><ellipse cx="135.5" cy="15" fill="#003366" rx="10" ry="10" style="stroke:#003366;stroke-width:1.0;"/><rect fill="#F2F4F7" height="46.3441" rx="2.5" ry="2.5" style="stroke:#003366;stroke-width:1.0;" width="193" x="39" y="45"/><text fill="#000000" font-family="sans-serif" font-size="12" lengthAdjust="spacing" textLength="163" x="54" y="72.8281">D&#233;marrage de la soutenance</text><rect fill="#F2F4F7" height="46.3441" rx="2.5" ry="2.5" style="stroke:#003366;stroke-width:1.0;" width="141" x="65" y="111.3441"/><text fill="#000000" font-family="sans-serif" font-size="12" lengthAdjust="spacing" textLength="111" x="80" y="139.1722">Statut -&gt; EN_COURS</text><rect fill="#F2F4F7" height="46.3441" rx="2.5" ry="2.5" style="stroke:#003366;stroke-width:1.0;" width="236" x="17.5" y="221.6882"/><text fill="#000000" font-family="sans-serif" font-size="12" lengthAdjust="spacing" textLength="206" x="32.5" y="249.5163">Membres du jury saisissent les notes</text><rect fill="#F2F4F7" height="46.3441" rx="2.5" ry="2.5" style="stroke:#003366;stroke-width:1.0;" width="240" x="15.5" y="303.0323"/><text fill="#000000" font-family="sans-serif" font-size="12" lengthAdjust="spacing" textLength="210" x="30.5" y="330.8604">Saisie des observations et remarques</text><polygon fill="#003366" points="135.5,177.6882,147.5,189.6882,135.5,201.6882,123.5,189.6882,135.5,177.6882" style="stroke:#003366;stroke-width:1.0;"/><polygon fill="#003366" points="55,369.5645,216,369.5645,228,382.7366,216,395.9087,55,395.9087,43,382.7366,55,369.5645" style="stroke:#003366;stroke-width:1.0;"/><text fill="#FFFFFF" font-family="sans-serif" font-size="12" lengthAdjust="spacing" textLength="151" x="60" y="387.3926">Saisie termin&#233;e pour tous ?</text><text fill="#003366" font-family="sans-serif" font-size="12" lengthAdjust="spacing" textLength="23" x="233" y="374.2206">Non</text><rect fill="#F2F4F7" height="46.3441" rx="2.5" ry="2.5" style="stroke:#003366;stroke-width:1.0;" width="175" x="275" y="263.5323"/><text fill="#000000" font-family="sans-serif" font-size="12" lengthAdjust="spacing" textLength="145" x="290" y="291.3604">Modification si n&#233;cessaire</text><rect fill="#F2F4F7" height="46.3441" rx="2.5" ry="2.5" style="stroke:#003366;stroke-width:1.0;" width="169" x="51" y="415.9087"/><text fill="#000000" font-family="sans-serif" font-size="12" lengthAdjust="spacing" textLength="139" x="66" y="443.7367">Validation de l'&#233;valuation</text><rect fill="#F2F4F7" height="46.3441" rx="2.5" ry="2.5" style="stroke:#003366;stroke-width:1.0;" width="257" x="7" y="482.2528"/><text fill="#000000" font-family="sans-serif" font-size="12" lengthAdjust="spacing" textLength="227" x="22" y="510.0809">Calcul automatique de la moyenne (RG6)</text><rect fill="#F2F4F7" height="62.6882" rx="2.5" ry="2.5" style="stroke:#003366;stroke-width:1.0;" width="259" x="6" y="548.5969"/><text fill="#000000" font-family="sans-serif" font-size="12" lengthAdjust="spacing" textLength="194" x="21" y="576.425">D&#233;termination de la d&#233;cision finale</text><text fill="#000000" font-family="sans-serif" font-size="12" lengthAdjust="spacing" textLength="229" x="21" y="592.7691">(Admis, Admis avec corrections, Ajourn&#233;)</text><rect fill="#F2F4F7" height="46.3441" rx="2.5" ry="2.5" style="stroke:#003366;stroke-width:1.0;" width="131" x="70" y="631.2851"/><text fill="#000000" font-family="sans-serif" font-size="12" lengthAdjust="spacing" textLength="101" x="85" y="659.1132">Statut -&gt; EVALUEE</text><rect fill="#F2F4F7" height="46.3441" rx="2.5" ry="2.5" style="stroke:#003366;stroke-width:1.0;" width="216" x="27.5" y="755.1454"/><text fill="#000000" font-family="sans-serif" font-size="12" lengthAdjust="spacing" textLength="186" x="42.5" y="782.9735">G&#233;n&#233;ration du Proc&#232;s-Verbal (PV)</text><rect fill="#F2F4F7" height="46.3441" rx="2.5" ry="2.5" style="stroke:#003366;stroke-width:1.0;" width="196" x="37.5" y="821.4895"/><text fill="#000000" font-family="sans-serif" font-size="12" lengthAdjust="spacing" textLength="166" x="52.5" y="849.3176">Cl&#244;ture officielle de la session</text><rect fill="#F2F4F7" height="46.3441" rx="2.5" ry="2.5" style="stroke:#003366;stroke-width:1.0;" width="140" x="65.5" y="887.8336"/><text fill="#000000" font-family="sans-serif" font-size="12" lengthAdjust="spacing" textLength="110" x="80.5" y="915.6617">Statut -&gt; CLOTUREE</text><polygon fill="#003366" points="78,697.6292,193,697.6292,205,710.8013,193,723.9733,78,723.9733,66,710.8013,78,697.6292" style="stroke:#003366;stroke-width:1.0;"/><text fill="#003366" font-family="sans-serif" font-size="12" lengthAdjust="spacing" textLength="19" x="144.5" y="741.8014">Oui</text><text fill="#FFFFFF" font-family="sans-serif" font-size="12" lengthAdjust="spacing" textLength="105" x="83" y="715.4573">Session termin&#233;e ?</text><polygon fill="#003366" points="135.5,954.1777,147.5,966.1777,135.5,978.1777,123.5,966.1777,135.5,954.1777" style="stroke:#003366;stroke-width:1.0;"/><ellipse cx="135.5" cy="1009.1777" fill="none" rx="11" ry="11" style="stroke:#003366;stroke-width:1.0;"/><ellipse cx="135.5" cy="1009.1777" fill="#003366" rx="6" ry="6" style="stroke:#003366;stroke-width:1.0;"/><line style="stroke:#003366;stroke-width:1.0;" x1="135.5" x2="135.5" y1="25" y2="45"/><polygon fill="#003366" points="131.5,35,135.5,45,139.5,35,135.5,39" style="stroke:#003366;stroke-width:1.0;"/><line style="stroke:#003366;stroke-width:1.0;" x1="135.5" x2="135.5" y1="91.3441" y2="111.3441"/><polygon fill="#003366" points="131.5,101.3441,135.5,111.3441,139.5,101.3441,135.5,105.3441" style="stroke:#003366;stroke-width:1.0;"/><line style="stroke:#003366;stroke-width:1.0;" x1="135.5" x2="135.5" y1="268.0323" y2="303.0323"/><polygon fill="#003366" points="131.5,293.0323,135.5,303.0323,139.5,293.0323,135.5,297.0323" style="stroke:#003366;stroke-width:1.0;"/><line style="stroke:#003366;stroke-width:1.0;" x1="135.5" x2="135.5" y1="201.6882" y2="221.6882"/><polygon fill="#003366" points="131.5,211.6882,135.5,221.6882,139.5,211.6882,135.5,215.6882" style="stroke:#003366;stroke-width:1.0;"/><line style="stroke:#003366;stroke-width:1.0;" x1="228" x2="362.5" y1="382.7366" y2="382.7366"/><line style="stroke:#003366;stroke-width:1.0;" x1="362.5" x2="362.5" y1="309.8765" y2="382.7366"/><polygon fill="#003366" points="358.5,319.8765,362.5,309.8765,366.5,319.8765,362.5,315.8765" style="stroke:#003366;stroke-width:1.0;"/><line style="stroke:#003366;stroke-width:1.0;" x1="362.5" x2="362.5" y1="189.6882" y2="263.5323"/><line style="stroke:#003366;stroke-width:1.0;" x1="362.5" x2="147.5" y1="189.6882" y2="189.6882"/><polygon fill="#003366" points="157.5,185.6882,147.5,189.6882,157.5,193.6882,153.5,189.6882" style="stroke:#003366;stroke-width:1.0;"/><line style="stroke:#003366;stroke-width:1.0;" x1="135.5" x2="135.5" y1="349.3765" y2="369.5645"/><polygon fill="#003366" points="131.5,359.5645,135.5,369.5645,139.5,359.5645,135.5,363.5645" style="stroke:#003366;stroke-width:1.0;"/><line style="stroke:#003366;stroke-width:1.0;" x1="135.5" x2="135.5" y1="157.6882" y2="177.6882"/><polygon fill="#003366" points="131.5,167.6882,135.5,177.6882,139.5,167.6882,135.5,171.6882" style="stroke:#003366;stroke-width:1.0;"/><line style="stroke:#003366;stroke-width:1.0;" x1="135.5" x2="135.5" y1="395.9087" y2="415.9087"/><polygon fill="#003366" points="131.5,405.9087,135.5,415.9087,139.5,405.9087,135.5,409.9087" style="stroke:#003366;stroke-width:1.0;"/><line style="stroke:#003366;stroke-width:1.0;" x1="135.5" x2="135.5" y1="462.2528" y2="482.2528"/><polygon fill="#003366" points="131.5,472.2528,135.5,482.2528,139.5,472.2528,135.5,476.2528" style="stroke:#003366;stroke-width:1.0;"/><line style="stroke:#003366;stroke-width:1.0;" x1="135.5" x2="135.5" y1="528.5969" y2="548.5969"/><polygon fill="#003366" points="131.5,538.5969,135.5,548.5969,139.5,538.5969,135.5,542.5969" style="stroke:#003366;stroke-width:1.0;"/><line style="stroke:#003366;stroke-width:1.0;" x1="135.5" x2="135.5" y1="611.2851" y2="631.2851"/><polygon fill="#003366" points="131.5,621.2851,135.5,631.2851,139.5,621.2851,135.5,625.2851" style="stroke:#003366;stroke-width:1.0;"/><line style="stroke:#003366;stroke-width:1.0;" x1="135.5" x2="135.5" y1="801.4895" y2="821.4895"/><polygon fill="#003366" points="131.5,811.4895,135.5,821.4895,139.5,811.4895,135.5,815.4895" style="stroke:#003366;stroke-width:1.0;"/><line style="stroke:#003366;stroke-width:1.0;" x1="135.5" x2="135.5" y1="867.8336" y2="887.8336"/><polygon fill="#003366" points="131.5,877.8336,135.5,887.8336,139.5,877.8336,135.5,881.8336" style="stroke:#003366;stroke-width:1.0;"/><line style="stroke:#003366;stroke-width:1.0;" x1="135.5" x2="135.5" y1="723.9733" y2="755.1454"/><polygon fill="#003366" points="131.5,745.1454,135.5,755.1454,139.5,745.1454,135.5,749.1454" style="stroke:#003366;stroke-width:1.0;"/><line style="stroke:#003366;stroke-width:1.0;" x1="205" x2="253.5" y1="710.8013" y2="710.8013"/><polygon fill="#003366" points="249.5,839.0755,253.5,849.0755,257.5,839.0755,253.5,843.0755" style="stroke:#003366;stroke-width:1.0;"/><line style="stroke:#003366;stroke-width:1.0;" x1="253.5" x2="253.5" y1="710.8013" y2="966.1777"/><line style="stroke:#003366;stroke-width:1.0;" x1="253.5" x2="147.5" y1="966.1777" y2="966.1777"/><polygon fill="#003366" points="157.5,962.1777,147.5,966.1777,157.5,970.1777,153.5,966.1777" style="stroke:#003366;stroke-width:1.0;"/><line style="stroke:#003366;stroke-width:1.0;" x1="135.5" x2="135.5" y1="934.1777" y2="954.1777"/><polygon fill="#003366" points="131.5,944.1777,135.5,954.1777,139.5,944.1777,135.5,948.1777" style="stroke:#003366;stroke-width:1.0;"/><line style="stroke:#003366;stroke-width:1.0;" x1="135.5" x2="135.5" y1="677.6292" y2="697.6292"/><polygon fill="#003366" points="131.5,687.6292,135.5,697.6292,139.5,687.6292,135.5,691.6292" style="stroke:#003366;stroke-width:1.0;"/><line style="stroke:#003366;stroke-width:1.0;" x1="135.5" x2="135.5" y1="978.1777" y2="998.1777"/><polygon fill="#003366" points="131.5,988.1777,135.5,998.1777,139.5,988.1777,135.5,992.1777" style="stroke:#003366;stroke-width:1.0;"/><!--SRC=[LLBDJkCm4BxxAOOJYGHxt4CYWL2tuW8KjRGd93Hr9el1iRipTX5ljBtl6-J5c2GLrPuYptpw_YPdwPKwWbrBq7Biu8Snaf2JgNxrXmwPyJT1G-0H9EP40OEbsbIhX2adkBo2-SFBRB5UhcfZc7Q4oG1KzzHjcGIQ36-PFq7GYHEXaC3hECH4KW_0rR0O50JYLeZtc5mC0fI0IVN_v06uHVl-WTnKzx5nhRCZ2CH1w0-MHDbPJKtoyF7gF45nP4x4dLEOPeoP8SKiS5s24oWUOYYDgJReNJCn3a7F-yCUVHu76dI6tcOFc5FiTAP-ZdLqyPD2KA7bxS-o7lkQj4vK28twKnlwRdNXwJaKDqtdv0B63-2UBDZ8J7RChVCtjQb-bVA_bZStT-lvN8UkrMoQUI0zXTD8Uia0nIAxKelLQc_xWwxuQ2V38qVR_vNB3V4MFHIFcxAUa3FV_qkP2MAhvJho_llcaz0HTx8pkriyhPU37mfwaU6dYRil]--></g></svg>