<?xml version="1.0" encoding="us-ascii" standalone="no"?><svg xmlns="http://www.w3.org/2000/svg" xmlns:xlink="http://www.w3.org/1999/xlink" contentStyleType="text/css" height="97px" preserveAspectRatio="none" style="width:618px;height:97px;background:#FFFFFF;" version="1.1" viewBox="0 0 618 97" width="618px" zoomAndPan="magnify"><defs/><g><!--entity front--><g id="elem_front"><polygon fill="#F2F4F7" points="21,21,31,11,167,11,167,70.9641,157,80.9641,21,80.9641,21,21" style="stroke:#003366;stroke-width:1.0;"/><line style="stroke:#003366;stroke-width:1.0;" x1="157" x2="167" y1="21" y2="11"/><line style="stroke:#003366;stroke-width:1.0;" x1="21" x2="157" y1="21" y2="21"/><line style="stroke:#003366;stroke-width:1.0;" x1="157" x2="157" y1="21" y2="80.9641"/><text fill="#000000" font-family="sans-serif" font-size="12" lengthAdjust="spacing" textLength="95" x="41" y="48.8281">Couche Frontend</text><text fill="#000000" font-family="sans-serif" font-size="10" lengthAdjust="spacing" textLength="96" x="41" y="63.0341">Interface utilisateur</text></g><!--entity back--><g id="elem_back"><polygon fill="#F2F4F7" points="227,21,237,11,370,11,370,70.9641,360,80.9641,227,80.9641,227,21" style="stroke:#003366;stroke-width:1.0;"/><line style="stroke:#003366;stroke-width:1.0;" x1="360" x2="370" y1="21" y2="11"/><line style="stroke:#003366;stroke-width:1.0;" x1="227" x2="360" y1="21" y2="21"/><line style="stroke:#003366;stroke-width:1.0;" x1="360" x2="360" y1="21" y2="80.9641"/><text fill="#000000" font-family="sans-serif" font-size="12" lengthAdjust="spacing" textLength="93" x="247" y="48.8281">Couche Backend</text><text fill="#000000" font-family="sans-serif" font-size="10" lengthAdjust="spacing" textLength="73" x="247" y="63.0341">Logique m&#233;tier</text></g><!--entity db--><g id="elem_db"><path d="M430,21.5 C430,11.5 515.5,11.5 515.5,11.5 C515.5,11.5 601,11.5 601,21.5 L601,70.4641 C601,80.4641 515.5,80.4641 515.5,80.4641 C515.5,80.4641 430,80.4641 430,70.4641 L430,21.5 " fill="#F2F4F7" style="stroke:#003366;stroke-width:1.0;"/><path d="M430,21.5 C430,31.5 515.5,31.5 515.5,31.5 C515.5,31.5 601,31.5 601,21.5 " fill="none" style="stroke:#003366;stroke-width:1.0;"/><text fill="#000000" font-family="sans-serif" font-size="12" lengthAdjust="spacing" textLength="141" x="445" y="53.3281">Couche Base de donn&#233;es</text><text fill="#000000" font-family="sans-serif" font-size="10" lengthAdjust="spacing" textLength="56" x="445" y="67.5341">Persistance</text></g><!--link front to back--><g id="link_front_back"><path d="M173.25,46 C192.67,46 201.65,46 220.98,46 " fill="none" id="front-back" style="stroke:#003366;stroke-width:1.0;"/><polygon fill="#003366" points="167.25,46,176.25,50,172.25,46,176.25,42,167.25,46" style="stroke:#003366;stroke-width:1.0;"/><polygon fill="#003366" points="226.98,46,217.98,42,221.98,46,217.98,50,226.98,46" style="stroke:#003366;stroke-width:1.0;"/></g><!--link back to db--><g id="link_back_db"><path d="M376.2,46 C395.29,46 404.14,46 423.91,46 " fill="none" id="back-db" style="stroke:#003366;stroke-width:1.0;"/><polygon fill="#003366" points="370.2,46,379.2,50,375.2,46,379.2,42,370.2,46" style="stroke:#003366;stroke-width:1.0;"/><polygon fill="#003366" points="429.91,46,420.91,42,424.91,46,420.91,50,429.91,46" style="stroke:#003366;stroke-width:1.0;"/></g><!--SRC=[LSux3i8m303GFQSmtSjdHLK7a92G63W0IpvkQq4TI9o56_KSlHWfNTh5ad_FtaY7FSAxGMY2xs6hNjW8Y8T0RIVWAA0LygmKUuTGd7so7S8bU1Paz-0gqXUFXtrzpONGQ8kGX5uKjM0ArMvgrmNeE1rWMJCdRPzhvUPR-YI4VXo4SBLlyh1oMhJHSKda99FECuy3neLrnn0fYcQBIySPfVw_G5MMzSnEOKwT-G40]--></g></svg>