<?xml version="1.0" encoding="us-ascii" standalone="no"?><svg xmlns="http://www.w3.org/2000/svg" xmlns:xlink="http://www.w3.org/1999/xlink" contentStyleType="text/css" height="1799px" preserveAspectRatio="none" style="width:1237px;height:1799px;background:#FFFFFF;" version="1.1" viewBox="0 0 1237 1799" width="1237px" zoomAndPan="magnify"><defs/><g><!--class RoleEnum--><g id="elem_RoleEnum"><rect codeLine="5" fill="#F2F4F7" height="157.7206" id="RoleEnum" rx="2.5" ry="2.5" style="stroke:#003366;stroke-width:1.0;" width="126" x="279" y="77.5"/><ellipse cx="306.5" cy="95.6721" fill="#EB937F" rx="10" ry="10" style="stroke:#003366;stroke-width:1.0;"/><path d="M308.9375,100.1721 L303.4844,100.1721 L303.4844,91.4221 L308.9375,91.4221 L308.9375,92.9533 L305.2188,92.9533 L305.2188,94.8283 L308.5781,94.8283 L308.5781,96.3596 L305.2188,96.3596 L305.2188,98.6408 L308.9375,98.6408 L308.9375,100.1721 Z " fill="#000000"/><text fill="#000000" font-family="sans-serif" font-size="12" lengthAdjust="spacing" textLength="56" x="327.5" y="100.3281">RoleEnum</text><line style="stroke:#003366;stroke-width:1.0;" x1="280" x2="404" y1="113.8441" y2="113.8441"/><text fill="#000000" font-family="sans-serif" font-size="12" lengthAdjust="spacing" textLength="104" x="290" y="135.6722">ADMINISTRATEUR</text><text fill="#000000" font-family="sans-serif" font-size="12" lengthAdjust="spacing" textLength="93" x="290" y="162.0163">COORDINATEUR</text><text fill="#000000" font-family="sans-serif" font-size="12" lengthAdjust="spacing" textLength="76" x="290" y="188.3604">ENSEIGNANT</text><text fill="#000000" font-family="sans-serif" font-size="12" lengthAdjust="spacing" textLength="60" x="290" y="214.7045">ETUDIANT</text><line style="stroke:#003366;stroke-width:1.0;" x1="280" x2="404" y1="227.2206" y2="227.2206"/></g><!--class JuryRole--><g id="elem_JuryRole"><rect codeLine="12" fill="#F2F4F7" height="157.7206" id="JuryRole" rx="2.5" ry="2.5" style="stroke:#003366;stroke-width:1.0;" width="106" x="440" y="77.5"/><ellipse cx="463.45" cy="95.6721" fill="#EB937F" rx="10" ry="10" style="stroke:#003366;stroke-width:1.0;"/><path d="M465.8875,100.1721 L460.4344,100.1721 L460.4344,91.4221 L465.8875,91.4221 L465.8875,92.9533 L462.1688,92.9533 L462.1688,94.8283 L465.5281,94.8283 L465.5281,96.3596 L462.1688,96.3596 L462.1688,98.6408 L465.8875,98.6408 L465.8875,100.1721 Z " fill="#000000"/><text fill="#000000" font-family="sans-serif" font-size="12" lengthAdjust="spacing" textLength="45" x="483.55" y="100.3281">JuryRole</text><line style="stroke:#003366;stroke-width:1.0;" x1="441" x2="545" y1="113.8441" y2="113.8441"/><text fill="#000000" font-family="sans-serif" font-size="12" lengthAdjust="spacing" textLength="64" x="451" y="135.6722">PRESIDENT</text><text fill="#000000" font-family="sans-serif" font-size="12" lengthAdjust="spacing" textLength="75" x="451" y="162.0163">RAPPORTEUR</text><text fill="#000000" font-family="sans-serif" font-size="12" lengthAdjust="spacing" textLength="84" x="451" y="188.3604">EXAMINATEUR</text><text fill="#000000" font-family="sans-serif" font-size="12" lengthAdjust="spacing" textLength="72" x="451" y="214.7045">ENCADRANT</text><line style="stroke:#003366;stroke-width:1.0;" x1="441" x2="545" y1="227.2206" y2="227.2206"/></g><!--class SoutenanceStatus--><g id="elem_SoutenanceStatus"><rect codeLine="19" fill="#F2F4F7" height="289.4411" id="SoutenanceStatus" rx="2.5" ry="2.5" style="stroke:#003366;stroke-width:1.0;" width="141" x="581.5" y="12"/><ellipse cx="595.5" cy="30.1721" fill="#EB937F" rx="10" ry="10" style="stroke:#003366;stroke-width:1.0;"/><path d="M597.9375,34.6721 L592.4844,34.6721 L592.4844,25.9221 L597.9375,25.9221 L597.9375,27.4533 L594.2188,27.4533 L594.2188,29.3283 L597.5781,29.3283 L597.5781,30.8596 L594.2188,30.8596 L594.2188,33.1408 L597.9375,33.1408 L597.9375,34.6721 Z " fill="#000000"/><text fill="#000000" font-family="sans-serif" font-size="12" lengthAdjust="spacing" textLength="101" x="613.5" y="34.8281">SoutenanceStatus</text><line style="stroke:#003366;stroke-width:1.0;" x1="582.5" x2="721.5" y1="48.3441" y2="48.3441"/><text fill="#000000" font-family="sans-serif" font-size="12" lengthAdjust="spacing" textLength="36" x="592.5" y="70.1722">CREEE</text><text fill="#000000" font-family="sans-serif" font-size="12" lengthAdjust="spacing" textLength="58" x="592.5" y="96.5163">PLANIFIEE</text><text fill="#000000" font-family="sans-serif" font-size="12" lengthAdjust="spacing" textLength="80" x="592.5" y="122.8604">JURY_AFFECTE</text><text fill="#000000" font-family="sans-serif" font-size="12" lengthAdjust="spacing" textLength="74" x="592.5" y="149.2045">CONVOQUEE</text><text fill="#000000" font-family="sans-serif" font-size="12" lengthAdjust="spacing" textLength="61" x="592.5" y="175.5487">EN_COURS</text><text fill="#000000" font-family="sans-serif" font-size="12" lengthAdjust="spacing" textLength="59" x="592.5" y="201.8928">TERMINEE</text><text fill="#000000" font-family="sans-serif" font-size="12" lengthAdjust="spacing" textLength="51" x="592.5" y="228.2369">EVALUEE</text><text fill="#000000" font-family="sans-serif" font-size="12" lengthAdjust="spacing" textLength="60" x="592.5" y="254.581">CLOTUREE</text><text fill="#000000" font-family="sans-serif" font-size="12" lengthAdjust="spacing" textLength="55" x="592.5" y="280.9251">ANNULEE</text><line style="stroke:#003366;stroke-width:1.0;" x1="582.5" x2="721.5" y1="293.4411" y2="293.4411"/></g><!--class SessionStatus--><g id="elem_SessionStatus"><rect codeLine="31" fill="#F2F4F7" height="131.3765" id="SessionStatus" rx="2.5" ry="2.5" style="stroke:#003366;stroke-width:1.0;" width="118" x="758" y="91"/><ellipse cx="772" cy="109.1721" fill="#EB937F" rx="10" ry="10" style="stroke:#003366;stroke-width:1.0;"/><path d="M774.4375,113.6721 L768.9844,113.6721 L768.9844,104.9221 L774.4375,104.9221 L774.4375,106.4533 L770.7188,106.4533 L770.7188,108.3283 L774.0781,108.3283 L774.0781,109.8596 L770.7188,109.8596 L770.7188,112.1408 L774.4375,112.1408 L774.4375,113.6721 Z " fill="#000000"/><text fill="#000000" font-family="sans-serif" font-size="12" lengthAdjust="spacing" textLength="78" x="790" y="113.8281">SessionStatus</text><line style="stroke:#003366;stroke-width:1.0;" x1="759" x2="875" y1="127.3441" y2="127.3441"/><text fill="#000000" font-family="sans-serif" font-size="12" lengthAdjust="spacing" textLength="53" x="769" y="149.1722">OUVERTE</text><text fill="#000000" font-family="sans-serif" font-size="12" lengthAdjust="spacing" textLength="76" x="769" y="175.5163">VERROUILLEE</text><text fill="#000000" font-family="sans-serif" font-size="12" lengthAdjust="spacing" textLength="60" x="769" y="201.8604">CLOTUREE</text><line style="stroke:#003366;stroke-width:1.0;" x1="759" x2="875" y1="214.3765" y2="214.3765"/></g><!--class DecisionEnum--><g id="elem_DecisionEnum"><rect codeLine="37" fill="#F2F4F7" height="131.3765" id="DecisionEnum" rx="2.5" ry="2.5" style="stroke:#003366;stroke-width:1.0;" width="183" x="911.5" y="91"/><ellipse cx="954" cy="109.1721" fill="#EB937F" rx="10" ry="10" style="stroke:#003366;stroke-width:1.0;"/><path d="M956.4375,113.6721 L950.9844,113.6721 L950.9844,104.9221 L956.4375,104.9221 L956.4375,106.4533 L952.7188,106.4533 L952.7188,108.3283 L956.0781,108.3283 L956.0781,109.8596 L952.7188,109.8596 L952.7188,112.1408 L956.4375,112.1408 L956.4375,113.6721 Z " fill="#000000"/><text fill="#000000" font-family="sans-serif" font-size="12" lengthAdjust="spacing" textLength="80" x="978" y="113.8281">DecisionEnum</text><line style="stroke:#003366;stroke-width:1.0;" x1="912.5" x2="1093.5" y1="127.3441" y2="127.3441"/><text fill="#000000" font-family="sans-serif" font-size="12" lengthAdjust="spacing" textLength="39" x="922.5" y="149.1722">ADMIS</text><text fill="#000000" font-family="sans-serif" font-size="12" lengthAdjust="spacing" textLength="161" x="922.5" y="175.5163">ADMIS_AVEC_CORRECTIONS</text><text fill="#000000" font-family="sans-serif" font-size="12" lengthAdjust="spacing" textLength="52" x="922.5" y="201.8604">AJOURNE</text><line style="stroke:#003366;stroke-width:1.0;" x1="912.5" x2="1093.5" y1="214.3765" y2="214.3765"/></g><!--class ProjetType--><g id="elem_ProjetType"><rect codeLine="43" fill="#F2F4F7" height="131.3765" id="ProjetType" rx="2.5" ry="2.5" style="stroke:#003366;stroke-width:1.0;" width="100" x="1130" y="91"/><ellipse cx="1144" cy="109.1721" fill="#EB937F" rx="10" ry="10" style="stroke:#003366;stroke-width:1.0;"/><path d="M1146.4375,113.6721 L1140.9844,113.6721 L1140.9844,104.9221 L1146.4375,104.9221 L1146.4375,106.4533 L1142.7188,106.4533 L1142.7188,108.3283 L1146.0781,108.3283 L1146.0781,109.8596 L1142.7188,109.8596 L1142.7188,112.1408 L1146.4375,112.1408 L1146.4375,113.6721 Z " fill="#000000"/><text fill="#000000" font-family="sans-serif" font-size="12" lengthAdjust="spacing" textLength="60" x="1162" y="113.8281">ProjetType</text><line style="stroke:#003366;stroke-width:1.0;" x1="1131" x2="1229" y1="127.3441" y2="127.3441"/><text fill="#000000" font-family="sans-serif" font-size="12" lengthAdjust="spacing" textLength="20" x="1141" y="149.1722">PFE</text><text fill="#000000" font-family="sans-serif" font-size="12" lengthAdjust="spacing" textLength="56" x="1141" y="175.5163">MEMOIRE</text><text fill="#000000" font-family="sans-serif" font-size="12" lengthAdjust="spacing" textLength="38" x="1141" y="201.8604">STAGE</text><line style="stroke:#003366;stroke-width:1.0;" x1="1131" x2="1229" y1="214.3765" y2="214.3765"/></g><!--class Utilisateur--><g id="elem_Utilisateur"><rect codeLine="51" fill="#F2F4F7" height="315.7853" id="Utilisateur" rx="2.5" ry="2.5" style="stroke:#003366;stroke-width:1.0;" width="199" x="242.5" y="362"/><ellipse cx="305.5" cy="380.1721" fill="#A9DCDF" rx="10" ry="10" style="stroke:#003366;stroke-width:1.0;"/><path d="M305.1094,377.2502 L304.2969,380.8283 L305.9375,380.8283 L305.1094,377.2502 Z M304.0625,375.6721 L306.1719,375.6721 L308.5313,384.4221 L306.7969,384.4221 L306.2656,382.2658 L303.9531,382.2658 L303.4219,384.4221 L301.6875,384.4221 L304.0625,375.6721 Z " fill="#000000"/><text fill="#000000" font-family="sans-serif" font-size="12" font-style="italic" lengthAdjust="spacing" textLength="55" x="329.5" y="384.8281">Utilisateur</text><line style="stroke:#003366;stroke-width:1.0;" x1="243.5" x2="440.5" y1="398.3441" y2="398.3441"/><text fill="#000000" font-family="sans-serif" font-size="12" lengthAdjust="spacing" textLength="34" x="253.5" y="420.1722">+int id</text><text fill="#000000" font-family="sans-serif" font-size="12" lengthAdjust="spacing" textLength="67" x="253.5" y="446.5163">+string nom</text><text fill="#000000" font-family="sans-serif" font-size="12" lengthAdjust="spacing" textLength="86" x="253.5" y="472.8604">+string prenom</text><text fill="#000000" font-family="sans-serif" font-size="12" lengthAdjust="spacing" textLength="73" x="253.5" y="499.2045">+string email</text><text fill="#000000" font-family="sans-serif" font-size="12" lengthAdjust="spacing" textLength="96" x="253.5" y="525.5487">+string password</text><text fill="#000000" font-family="sans-serif" font-size="12" lengthAdjust="spacing" textLength="88" x="253.5" y="551.8928">+RoleEnum role</text><text fill="#000000" font-family="sans-serif" font-size="12" lengthAdjust="spacing" textLength="79" x="253.5" y="578.2369">+boolean actif</text><line style="stroke:#003366;stroke-width:1.0;" x1="243.5" x2="440.5" y1="590.7529" y2="590.7529"/><text fill="#000000" font-family="sans-serif" font-size="12" lengthAdjust="spacing" textLength="177" x="253.5" y="612.581">+seConnecter(email, password)</text><text fill="#000000" font-family="sans-serif" font-size="12" lengthAdjust="spacing" textLength="100" x="253.5" y="638.9251">+seDeconnecter()</text><text fill="#000000" font-family="sans-serif" font-size="12" lengthAdjust="spacing" textLength="91" x="253.5" y="665.2692">+modifierProfil()</text></g><!--class Administrateur--><g id="elem_Administrateur"><rect codeLine="64" fill="#F2F4F7" height="131.3765" id="Administrateur" rx="2.5" ry="2.5" style="stroke:#003366;stroke-width:1.0;" width="128" x="12" y="765.5"/><ellipse cx="27.8" cy="783.6721" fill="#ADD1B2" rx="10" ry="10" style="stroke:#003366;stroke-width:1.0;"/><path d="M29.6281,787.9221 Q29.2219,788.1252 28.7688,788.2346 Q28.3156,788.3439 27.8313,788.3439 Q26.05,788.3439 25.1125,787.1877 Q24.1906,786.0158 24.1906,783.8127 Q24.1906,781.5939 25.1125,780.4377 Q26.05,779.2658 27.8313,779.2658 Q28.3156,779.2658 28.7688,779.3752 Q29.2375,779.4689 29.6281,779.6877 L29.6281,781.6096 Q29.1906,781.2033 28.7688,781.0158 Q28.3469,780.8127 27.9094,780.8127 Q26.9563,780.8127 26.4719,781.5783 Q25.9875,782.3283 25.9875,783.8127 Q25.9875,785.2814 26.4719,786.0314 Q26.9563,786.7814 27.9094,786.7814 Q28.3469,786.7814 28.7688,786.5939 Q29.1906,786.4064 29.6281,786.0002 L29.6281,787.9221 Z " fill="#000000"/><text fill="#000000" font-family="sans-serif" font-size="12" lengthAdjust="spacing" textLength="84" x="46.2" y="788.3281">Administrateur</text><line style="stroke:#003366;stroke-width:1.0;" x1="13" x2="139" y1="801.8441" y2="801.8441"/><line style="stroke:#003366;stroke-width:1.0;" x1="13" x2="139" y1="809.8441" y2="809.8441"/><text fill="#000000" font-family="sans-serif" font-size="12" lengthAdjust="spacing" textLength="96" x="23" y="831.6722">+gererComptes()</text><text fill="#000000" font-family="sans-serif" font-size="12" lengthAdjust="spacing" textLength="106" x="23" y="858.0163">+configurerSalles()</text><text fill="#000000" font-family="sans-serif" font-size="12" lengthAdjust="spacing" textLength="100" x="23" y="884.3604">+definirPeriodes()</text></g><!--class Coordinateur--><g id="elem_Coordinateur"><rect codeLine="70" fill="#F2F4F7" height="131.3765" id="Coordinateur" rx="2.5" ry="2.5" style="stroke:#003366;stroke-width:1.0;" width="146" x="175" y="765.5"/><ellipse cx="203.4" cy="783.6721" fill="#ADD1B2" rx="10" ry="10" style="stroke:#003366;stroke-width:1.0;"/><path d="M205.2281,787.9221 Q204.8219,788.1252 204.3688,788.2346 Q203.9156,788.3439 203.4313,788.3439 Q201.65,788.3439 200.7125,787.1877 Q199.7906,786.0158 199.7906,783.8127 Q199.7906,781.5939 200.7125,780.4377 Q201.65,779.2658 203.4313,779.2658 Q203.9156,779.2658 204.3688,779.3752 Q204.8375,779.4689 205.2281,779.6877 L205.2281,781.6096 Q204.7906,781.2033 204.3688,781.0158 Q203.9469,780.8127 203.5094,780.8127 Q202.5563,780.8127 202.0719,781.5783 Q201.5875,782.3283 201.5875,783.8127 Q201.5875,785.2814 202.0719,786.0314 Q202.5563,786.7814 203.5094,786.7814 Q203.9469,786.7814 204.3688,786.5939 Q204.7906,786.4064 205.2281,786.0002 L205.2281,787.9221 Z " fill="#000000"/><text fill="#000000" font-family="sans-serif" font-size="12" lengthAdjust="spacing" textLength="74" x="224.6" y="788.3281">Coordinateur</text><line style="stroke:#003366;stroke-width:1.0;" x1="176" x2="320" y1="801.8441" y2="801.8441"/><line style="stroke:#003366;stroke-width:1.0;" x1="176" x2="320" y1="809.8441" y2="809.8441"/><text fill="#000000" font-family="sans-serif" font-size="12" lengthAdjust="spacing" textLength="88" x="186" y="831.6722">+creerSession()</text><text fill="#000000" font-family="sans-serif" font-size="12" lengthAdjust="spacing" textLength="101" x="186" y="858.0163">+validerPlanning()</text><text fill="#000000" font-family="sans-serif" font-size="12" lengthAdjust="spacing" textLength="124" x="186" y="884.3604">+genererDocuments()</text></g><!--class Enseignant--><g id="elem_Enseignant"><rect codeLine="76" fill="#F2F4F7" height="184.0647" id="Enseignant" rx="2.5" ry="2.5" style="stroke:#003366;stroke-width:1.0;" width="164" x="356" y="739"/><ellipse cx="398" cy="757.1721" fill="#ADD1B2" rx="10" ry="10" style="stroke:#003366;stroke-width:1.0;"/><path d="M399.8281,761.4221 Q399.4219,761.6252 398.9688,761.7346 Q398.5156,761.8439 398.0313,761.8439 Q396.25,761.8439 395.3125,760.6877 Q394.3906,759.5158 394.3906,757.3127 Q394.3906,755.0939 395.3125,753.9377 Q396.25,752.7658 398.0313,752.7658 Q398.5156,752.7658 398.9688,752.8752 Q399.4375,752.9689 399.8281,753.1877 L399.8281,755.1096 Q399.3906,754.7033 398.9688,754.5158 Q398.5469,754.3127 398.1094,754.3127 Q397.1563,754.3127 396.6719,755.0783 Q396.1875,755.8283 396.1875,757.3127 Q396.1875,758.7814 396.6719,759.5314 Q397.1563,760.2814 398.1094,760.2814 Q398.5469,760.2814 398.9688,760.0939 Q399.3906,759.9064 399.8281,759.5002 L399.8281,761.4221 Z " fill="#000000"/><text fill="#000000" font-family="sans-serif" font-size="12" lengthAdjust="spacing" textLength="62" x="422" y="761.8281">Enseignant</text><line style="stroke:#003366;stroke-width:1.0;" x1="357" x2="519" y1="775.3441" y2="775.3441"/><text fill="#000000" font-family="sans-serif" font-size="12" lengthAdjust="spacing" textLength="75" x="367" y="797.1722">+string grade</text><text fill="#000000" font-family="sans-serif" font-size="12" lengthAdjust="spacing" textLength="95" x="367" y="823.5163">+string specialite</text><text fill="#000000" font-family="sans-serif" font-size="12" lengthAdjust="spacing" textLength="115" x="367" y="849.8604">+string departement</text><line style="stroke:#003366;stroke-width:1.0;" x1="357" x2="519" y1="862.3765" y2="862.3765"/><text fill="#000000" font-family="sans-serif" font-size="12" lengthAdjust="spacing" textLength="142" x="367" y="884.2045">+consulterConvocations()</text><text fill="#000000" font-family="sans-serif" font-size="12" lengthAdjust="spacing" textLength="108" x="367" y="910.5487">+getDisponibilites()</text></g><!--class Etudiant--><g id="elem_Etudiant"><rect codeLine="84" fill="#F2F4F7" height="131.3765" id="Etudiant" rx="2.5" ry="2.5" style="stroke:#003366;stroke-width:1.0;" width="101" x="555.5" y="765.5"/><ellipse cx="576.25" cy="783.6721" fill="#ADD1B2" rx="10" ry="10" style="stroke:#003366;stroke-width:1.0;"/><path d="M578.0781,787.9221 Q577.6719,788.1252 577.2188,788.2346 Q576.7656,788.3439 576.2813,788.3439 Q574.5,788.3439 573.5625,787.1877 Q572.6406,786.0158 572.6406,783.8127 Q572.6406,781.5939 573.5625,780.4377 Q574.5,779.2658 576.2813,779.2658 Q576.7656,779.2658 577.2188,779.3752 Q577.6875,779.4689 578.0781,779.6877 L578.0781,781.6096 Q577.6406,781.2033 577.2188,781.0158 Q576.7969,780.8127 576.3594,780.8127 Q575.4063,780.8127 574.9219,781.5783 Q574.4375,782.3283 574.4375,783.8127 Q574.4375,785.2814 574.9219,786.0314 Q575.4063,786.7814 576.3594,786.7814 Q576.7969,786.7814 577.2188,786.5939 Q577.6406,786.4064 578.0781,786.0002 L578.0781,787.9221 Z " fill="#000000"/><text fill="#000000" font-family="sans-serif" font-size="12" lengthAdjust="spacing" textLength="46" x="595.75" y="788.3281">Etudiant</text><line style="stroke:#003366;stroke-width:1.0;" x1="556.5" x2="655.5" y1="801.8441" y2="801.8441"/><text fill="#000000" font-family="sans-serif" font-size="12" lengthAdjust="spacing" textLength="62" x="566.5" y="823.6722">+string cne</text><text fill="#000000" font-family="sans-serif" font-size="12" lengthAdjust="spacing" textLength="74" x="566.5" y="850.0163">+string filiere</text><text fill="#000000" font-family="sans-serif" font-size="12" lengthAdjust="spacing" textLength="79" x="566.5" y="876.3604">+string niveau</text><line style="stroke:#003366;stroke-width:1.0;" x1="556.5" x2="655.5" y1="888.8765" y2="888.8765"/></g><!--class MembreJury--><g id="elem_MembreJury"><rect codeLine="90" fill="#F2F4F7" height="105.0323" id="MembreJury" rx="2.5" ry="2.5" style="stroke:#003366;stroke-width:1.0;" width="120" x="353" y="1647.5"/><ellipse cx="371.95" cy="1665.6721" fill="#ADD1B2" rx="10" ry="10" style="stroke:#003366;stroke-width:1.0;"/><path d="M373.7781,1669.9221 Q373.3719,1670.1252 372.9188,1670.2346 Q372.4656,1670.3439 371.9813,1670.3439 Q370.2,1670.3439 369.2625,1669.1877 Q368.3406,1668.0158 368.3406,1665.8127 Q368.3406,1663.5939 369.2625,1662.4377 Q370.2,1661.2658 371.9813,1661.2658 Q372.4656,1661.2658 372.9188,1661.3752 Q373.3875,1661.4689 373.7781,1661.6877 L373.7781,1663.6096 Q373.3406,1663.2033 372.9188,1663.0158 Q372.4969,1662.8127 372.0594,1662.8127 Q371.1063,1662.8127 370.6219,1663.5783 Q370.1375,1664.3283 370.1375,1665.8127 Q370.1375,1667.2814 370.6219,1668.0314 Q371.1063,1668.7814 372.0594,1668.7814 Q372.4969,1668.7814 372.9188,1668.5939 Q373.3406,1668.4064 373.7781,1668.0002 L373.7781,1669.9221 Z " fill="#000000"/><text fill="#000000" font-family="sans-serif" font-size="12" lengthAdjust="spacing" textLength="69" x="391.05" y="1670.3281">MembreJury</text><line style="stroke:#003366;stroke-width:1.0;" x1="354" x2="472" y1="1683.8441" y2="1683.8441"/><text fill="#000000" font-family="sans-serif" font-size="12" lengthAdjust="spacing" textLength="98" x="364" y="1705.6722">+JuryRole roleJury</text><text fill="#000000" font-family="sans-serif" font-size="12" lengthAdjust="spacing" textLength="98" x="364" y="1732.0163">+boolean present</text><line style="stroke:#003366;stroke-width:1.0;" x1="354" x2="472" y1="1744.5323" y2="1744.5323"/></g><!--class Projet--><g id="elem_Projet"><rect codeLine="95" fill="#F2F4F7" height="184.0647" id="Projet" rx="2.5" ry="2.5" style="stroke:#003366;stroke-width:1.0;" width="126" x="543" y="1011"/><ellipse cx="580.85" cy="1029.1721" fill="#ADD1B2" rx="10" ry="10" style="stroke:#003366;stroke-width:1.0;"/><path d="M582.6781,1033.4221 Q582.2719,1033.6252 581.8188,1033.7346 Q581.3656,1033.8439 580.8813,1033.8439 Q579.1,1033.8439 578.1625,1032.6877 Q577.2406,1031.5158 577.2406,1029.3127 Q577.2406,1027.0939 578.1625,1025.9377 Q579.1,1024.7658 580.8813,1024.7658 Q581.3656,1024.7658 581.8188,1024.8752 Q582.2875,1024.9689 582.6781,1025.1877 L582.6781,1027.1096 Q582.2406,1026.7033 581.8188,1026.5158 Q581.3969,1026.3127 580.9594,1026.3127 Q580.0063,1026.3127 579.5219,1027.0783 Q579.0375,1027.8283 579.0375,1029.3127 Q579.0375,1030.7814 579.5219,1031.5314 Q580.0063,1032.2814 580.9594,1032.2814 Q581.3969,1032.2814 581.8188,1032.0939 Q582.2406,1031.9064 582.6781,1031.5002 L582.6781,1033.4221 Z " fill="#000000"/><text fill="#000000" font-family="sans-serif" font-size="12" lengthAdjust="spacing" textLength="33" x="604.15" y="1033.8281">Projet</text><line style="stroke:#003366;stroke-width:1.0;" x1="544" x2="668" y1="1047.3441" y2="1047.3441"/><text fill="#000000" font-family="sans-serif" font-size="12" lengthAdjust="spacing" textLength="34" x="554" y="1069.1722">+int id</text><text fill="#000000" font-family="sans-serif" font-size="12" lengthAdjust="spacing" textLength="65" x="554" y="1095.5163">+string titre</text><text fill="#000000" font-family="sans-serif" font-size="12" lengthAdjust="spacing" textLength="104" x="554" y="1121.8604">+string description</text><text fill="#000000" font-family="sans-serif" font-size="12" lengthAdjust="spacing" textLength="94" x="554" y="1148.2045">+ProjetType type</text><text fill="#000000" font-family="sans-serif" font-size="12" lengthAdjust="spacing" textLength="74" x="554" y="1174.5487">+string statut</text><line style="stroke:#003366;stroke-width:1.0;" x1="544" x2="668" y1="1187.0647" y2="1187.0647"/></g><!--class Soutenance--><g id="elem_Soutenance"><rect codeLine="103" fill="#F2F4F7" height="236.7529" id="Soutenance" rx="2.5" ry="2.5" style="stroke:#003366;stroke-width:1.0;" width="165" x="630.5" y="1283"/><ellipse cx="671.05" cy="1301.1721" fill="#ADD1B2" rx="10" ry="10" style="stroke:#003366;stroke-width:1.0;"/><path d="M672.8781,1305.4221 Q672.4719,1305.6252 672.0188,1305.7346 Q671.5656,1305.8439 671.0813,1305.8439 Q669.3,1305.8439 668.3625,1304.6877 Q667.4406,1303.5158 667.4406,1301.3127 Q667.4406,1299.0939 668.3625,1297.9377 Q669.3,1296.7658 671.0813,1296.7658 Q671.5656,1296.7658 672.0188,1296.8752 Q672.4875,1296.9689 672.8781,1297.1877 L672.8781,1299.1096 Q672.4406,1298.7033 672.0188,1298.5158 Q671.5969,1298.3127 671.1594,1298.3127 Q670.2063,1298.3127 669.7219,1299.0783 Q669.2375,1299.8283 669.2375,1301.3127 Q669.2375,1302.7814 669.7219,1303.5314 Q670.2063,1304.2814 671.1594,1304.2814 Q671.5969,1304.2814 672.0188,1304.0939 Q672.4406,1303.9064 672.8781,1303.5002 L672.8781,1305.4221 Z " fill="#000000"/><text fill="#000000" font-family="sans-serif" font-size="12" lengthAdjust="spacing" textLength="66" x="694.95" y="1305.8281">Soutenance</text><line style="stroke:#003366;stroke-width:1.0;" x1="631.5" x2="794.5" y1="1319.3441" y2="1319.3441"/><text fill="#000000" font-family="sans-serif" font-size="12" lengthAdjust="spacing" textLength="34" x="641.5" y="1341.1722">+int id</text><text fill="#000000" font-family="sans-serif" font-size="12" lengthAdjust="spacing" textLength="107" x="641.5" y="1367.5163">+date datePassage</text><text fill="#000000" font-family="sans-serif" font-size="12" lengthAdjust="spacing" textLength="102" x="641.5" y="1393.8604">+time heureDebut</text><text fill="#000000" font-family="sans-serif" font-size="12" lengthAdjust="spacing" textLength="102" x="641.5" y="1420.2045">+int dureeMinutes</text><text fill="#000000" font-family="sans-serif" font-size="12" lengthAdjust="spacing" textLength="143" x="641.5" y="1446.5487">+SoutenanceStatus statut</text><line style="stroke:#003366;stroke-width:1.0;" x1="631.5" x2="794.5" y1="1459.0647" y2="1459.0647"/><text fill="#000000" font-family="sans-serif" font-size="12" lengthAdjust="spacing" textLength="61" x="641.5" y="1480.8928">+planifier()</text><text fill="#000000" font-family="sans-serif" font-size="12" lengthAdjust="spacing" textLength="58" x="641.5" y="1507.2369">+annuler()</text></g><!--class Salle--><g id="elem_Salle"><rect codeLine="113" fill="#F2F4F7" height="210.4088" id="Salle" rx="2.5" ry="2.5" style="stroke:#003366;stroke-width:1.0;" width="146" x="931" y="1296.5"/><ellipse cx="981.5" cy="1314.6721" fill="#ADD1B2" rx="10" ry="10" style="stroke:#003366;stroke-width:1.0;"/><path d="M983.3281,1318.9221 Q982.9219,1319.1252 982.4688,1319.2346 Q982.0156,1319.3439 981.5313,1319.3439 Q979.75,1319.3439 978.8125,1318.1877 Q977.8906,1317.0158 977.8906,1314.8127 Q977.8906,1312.5939 978.8125,1311.4377 Q979.75,1310.2658 981.5313,1310.2658 Q982.0156,1310.2658 982.4688,1310.3752 Q982.9375,1310.4689 983.3281,1310.6877 L983.3281,1312.6096 Q982.8906,1312.2033 982.4688,1312.0158 Q982.0469,1311.8127 981.6094,1311.8127 Q980.6563,1311.8127 980.1719,1312.5783 Q979.6875,1313.3283 979.6875,1314.8127 Q979.6875,1316.2814 980.1719,1317.0314 Q980.6563,1317.7814 981.6094,1317.7814 Q982.0469,1317.7814 982.4688,1317.5939 Q982.8906,1317.4064 983.3281,1317.0002 L983.3281,1318.9221 Z " fill="#000000"/><text fill="#000000" font-family="sans-serif" font-size="12" lengthAdjust="spacing" textLength="27" x="1005.5" y="1319.3281">Salle</text><line style="stroke:#003366;stroke-width:1.0;" x1="932" x2="1076" y1="1332.8441" y2="1332.8441"/><text fill="#000000" font-family="sans-serif" font-size="12" lengthAdjust="spacing" textLength="34" x="942" y="1354.6722">+int id</text><text fill="#000000" font-family="sans-serif" font-size="12" lengthAdjust="spacing" textLength="67" x="942" y="1381.0163">+string nom</text><text fill="#000000" font-family="sans-serif" font-size="12" lengthAdjust="spacing" textLength="92" x="942" y="1407.3604">+string batiment</text><text fill="#000000" font-family="sans-serif" font-size="12" lengthAdjust="spacing" textLength="71" x="942" y="1433.7045">+int capacite</text><text fill="#000000" font-family="sans-serif" font-size="12" lengthAdjust="spacing" textLength="112" x="942" y="1460.0487">+boolean disponible</text><line style="stroke:#003366;stroke-width:1.0;" x1="932" x2="1076" y1="1472.5647" y2="1472.5647"/><text fill="#000000" font-family="sans-serif" font-size="12" lengthAdjust="spacing" textLength="124" x="942" y="1494.3928">+verifierDisponibilite()</text></g><!--class Evaluation--><g id="elem_Evaluation"><rect codeLine="122" fill="#F2F4F7" height="184.0647" id="Evaluation" rx="2.5" ry="2.5" style="stroke:#003366;stroke-width:1.0;" width="158" x="576" y="1608"/><ellipse cx="617" cy="1626.1721" fill="#ADD1B2" rx="10" ry="10" style="stroke:#003366;stroke-width:1.0;"/><path d="M618.8281,1630.4221 Q618.4219,1630.6252 617.9688,1630.7346 Q617.5156,1630.8439 617.0313,1630.8439 Q615.25,1630.8439 614.3125,1629.6877 Q613.3906,1628.5158 613.3906,1626.3127 Q613.3906,1624.0939 614.3125,1622.9377 Q615.25,1621.7658 617.0313,1621.7658 Q617.5156,1621.7658 617.9688,1621.8752 Q618.4375,1621.9689 618.8281,1622.1877 L618.8281,1624.1096 Q618.3906,1623.7033 617.9688,1623.5158 Q617.5469,1623.3127 617.1094,1623.3127 Q616.1563,1623.3127 615.6719,1624.0783 Q615.1875,1624.8283 615.1875,1626.3127 Q615.1875,1627.7814 615.6719,1628.5314 Q616.1563,1629.2814 617.1094,1629.2814 Q617.5469,1629.2814 617.9688,1629.0939 Q618.3906,1628.9064 618.8281,1628.5002 L618.8281,1630.4221 Z " fill="#000000"/><text fill="#000000" font-family="sans-serif" font-size="12" lengthAdjust="spacing" textLength="58" x="641" y="1630.8281">Evaluation</text><line style="stroke:#003366;stroke-width:1.0;" x1="577" x2="733" y1="1644.3441" y2="1644.3441"/><text fill="#000000" font-family="sans-serif" font-size="12" lengthAdjust="spacing" textLength="34" x="587" y="1666.1722">+int id</text><text fill="#000000" font-family="sans-serif" font-size="12" lengthAdjust="spacing" textLength="60" x="587" y="1692.5163">+float note</text><text fill="#000000" font-family="sans-serif" font-size="12" lengthAdjust="spacing" textLength="114" x="587" y="1718.8604">+string observations</text><text fill="#000000" font-family="sans-serif" font-size="12" lengthAdjust="spacing" textLength="136" x="587" y="1745.2045">+DecisionEnum decision</text><text fill="#000000" font-family="sans-serif" font-size="12" lengthAdjust="spacing" textLength="95" x="587" y="1771.5487">+boolean validee</text><line style="stroke:#003366;stroke-width:1.0;" x1="577" x2="733" y1="1784.0647" y2="1784.0647"/></g><!--class SessionGlobale--><g id="elem_SessionGlobale"><rect codeLine="130" fill="#F2F4F7" height="184.0647" id="SessionGlobale" rx="2.5" ry="2.5" style="stroke:#003366;stroke-width:1.0;" width="142" x="397" y="1309.5"/><ellipse cx="418.2" cy="1327.6721" fill="#ADD1B2" rx="10" ry="10" style="stroke:#003366;stroke-width:1.0;"/><path d="M420.0281,1331.9221 Q419.6219,1332.1252 419.1688,1332.2346 Q418.7156,1332.3439 418.2313,1332.3439 Q416.45,1332.3439 415.5125,1331.1877 Q414.5906,1330.0158 414.5906,1327.8127 Q414.5906,1325.5939 415.5125,1324.4377 Q416.45,1323.2658 418.2313,1323.2658 Q418.7156,1323.2658 419.1688,1323.3752 Q419.6375,1323.4689 420.0281,1323.6877 L420.0281,1325.6096 Q419.5906,1325.2033 419.1688,1325.0158 Q418.7469,1324.8127 418.3094,1324.8127 Q417.3563,1324.8127 416.8719,1325.5783 Q416.3875,1326.3283 416.3875,1327.8127 Q416.3875,1329.2814 416.8719,1330.0314 Q417.3563,1330.7814 418.3094,1330.7814 Q418.7469,1330.7814 419.1688,1330.5939 Q419.5906,1330.4064 420.0281,1330.0002 L420.0281,1331.9221 Z " fill="#000000"/><text fill="#000000" font-family="sans-serif" font-size="12" lengthAdjust="spacing" textLength="86" x="437.8" y="1332.3281">SessionGlobale</text><line style="stroke:#003366;stroke-width:1.0;" x1="398" x2="538" y1="1345.8441" y2="1345.8441"/><text fill="#000000" font-family="sans-serif" font-size="12" lengthAdjust="spacing" textLength="34" x="408" y="1367.6722">+int id</text><text fill="#000000" font-family="sans-serif" font-size="12" lengthAdjust="spacing" textLength="75" x="408" y="1394.0163">+string libelle</text><text fill="#000000" font-family="sans-serif" font-size="12" lengthAdjust="spacing" textLength="94" x="408" y="1420.3604">+date dateDebut</text><text fill="#000000" font-family="sans-serif" font-size="12" lengthAdjust="spacing" textLength="76" x="408" y="1446.7045">+date dateFin</text><text fill="#000000" font-family="sans-serif" font-size="12" lengthAdjust="spacing" textLength="120" x="408" y="1473.0487">+SessionStatus statut</text><line style="stroke:#003366;stroke-width:1.0;" x1="398" x2="538" y1="1485.5647" y2="1485.5647"/></g><!--class Convocation--><g id="elem_Convocation"><rect codeLine="138" fill="#F2F4F7" height="157.7206" id="Convocation" rx="2.5" ry="2.5" style="stroke:#003366;stroke-width:1.0;" width="124" x="769" y="1621"/><ellipse cx="789.75" cy="1639.1721" fill="#ADD1B2" rx="10" ry="10" style="stroke:#003366;stroke-width:1.0;"/><path d="M791.5781,1643.4221 Q791.1719,1643.6252 790.7188,1643.7346 Q790.2656,1643.8439 789.7813,1643.8439 Q788,1643.8439 787.0625,1642.6877 Q786.1406,1641.5158 786.1406,1639.3127 Q786.1406,1637.0939 787.0625,1635.9377 Q788,1634.7658 789.7813,1634.7658 Q790.2656,1634.7658 790.7188,1634.8752 Q791.1875,1634.9689 791.5781,1635.1877 L791.5781,1637.1096 Q791.1406,1636.7033 790.7188,1636.5158 Q790.2969,1636.3127 789.8594,1636.3127 Q788.9063,1636.3127 788.4219,1637.0783 Q787.9375,1637.8283 787.9375,1639.3127 Q787.9375,1640.7814 788.4219,1641.5314 Q788.9063,1642.2814 789.8594,1642.2814 Q790.2969,1642.2814 790.7188,1642.0939 Q791.1406,1641.9064 791.5781,1641.5002 L791.5781,1643.4221 Z " fill="#000000"/><text fill="#000000" font-family="sans-serif" font-size="12" lengthAdjust="spacing" textLength="69" x="809.25" y="1643.8281">Convocation</text><line style="stroke:#003366;stroke-width:1.0;" x1="770" x2="892" y1="1657.3441" y2="1657.3441"/><text fill="#000000" font-family="sans-serif" font-size="12" lengthAdjust="spacing" textLength="34" x="780" y="1679.1722">+int id</text><text fill="#000000" font-family="sans-serif" font-size="12" lengthAdjust="spacing" textLength="66" x="780" y="1705.5163">+string type</text><text fill="#000000" font-family="sans-serif" font-size="12" lengthAdjust="spacing" textLength="102" x="780" y="1731.8604">+boolean envoyee</text><line style="stroke:#003366;stroke-width:1.0;" x1="770" x2="892" y1="1744.3765" y2="1744.3765"/><text fill="#000000" font-family="sans-serif" font-size="12" lengthAdjust="spacing" textLength="60" x="780" y="1766.2045">+generer()</text></g><!--reverse link Utilisateur to Administrateur--><g id="link_Utilisateur_Administrateur"><path codeLine="148" d="M230.4479,650.5827 C193.0079,694.0827 163.56,728.29 131.55,765.47 " fill="none" id="Utilisateur-backto-Administrateur" style="stroke:#003366;stroke-width:1.0;"/><polygon fill="none" points="242.19,636.94,225.9003,646.6686,234.9954,654.4967,242.19,636.94" style="stroke:#003366;stroke-width:1.0;"/></g><!--reverse link Utilisateur to Coordinateur--><g id="link_Utilisateur_Coordinateur"><path codeLine="149" d="M288.9353,695.442 C279.5553,726.302 275.44,739.79 267.64,765.44 " fill="none" id="Utilisateur-backto-Coordinateur" style="stroke:#003366;stroke-width:1.0;"/><polygon fill="none" points="294.17,678.22,283.1946,693.6971,294.676,697.1869,294.17,678.22" style="stroke:#003366;stroke-width:1.0;"/></g><!--reverse link Utilisateur to Enseignant--><g id="link_Utilisateur_Enseignant"><path codeLine="150" d="M396.1825,695.4089 C402.6225,716.1289 403.7,719.6 409.63,738.7 " fill="none" id="Utilisateur-backto-Enseignant" style="stroke:#003366;stroke-width:1.0;"/><polygon fill="none" points="390.84,678.22,390.4529,697.1897,401.9121,693.6281,390.84,678.22" style="stroke:#003366;stroke-width:1.0;"/></g><!--reverse link Utilisateur to Etudiant--><g id="link_Utilisateur_Etudiant"><path codeLine="151" d="M453.7516,641.322 C485.2416,676.152 507.66,702.01 538,739 C544.88,747.39 551.94,756.37 558.79,765.31 " fill="none" id="Utilisateur-backto-Etudiant" style="stroke:#003366;stroke-width:1.0;"/><polygon fill="none" points="441.68,627.97,449.301,645.3459,458.2023,637.2981,441.68,627.97" style="stroke:#003366;stroke-width:1.0;"/></g><!--reverse link Enseignant to MembreJury--><g id="link_Enseignant_MembreJury"><path codeLine="152" d="M416.5652,940.7288 C392.5752,1072.4688 358.88,1306.2 379,1520 C383.08,1563.3 392.58,1611.73 400.51,1647.28 " fill="none" id="Enseignant-backto-MembreJury" style="stroke:#003366;stroke-width:1.0;"/><polygon fill="none" points="419.79,923.02,410.6623,939.6538,422.4681,941.8037,419.79,923.02" style="stroke:#003366;stroke-width:1.0;"/></g><!--link Etudiant to Projet--><g id="link_Etudiant_Projet"><path codeLine="155" d="M606,896.67 C606,930.84 606,973.34 606,1010.8 " fill="none" id="Etudiant-Projet" style="stroke:#003366;stroke-width:1.0;"/><text fill="#003366" font-family="sans-serif" font-size="12" lengthAdjust="spacing" textLength="47" x="612" y="971.8281">poss&#232;de</text><text fill="#003366" font-family="sans-serif" font-size="12" lengthAdjust="spacing" textLength="20" x="579.4531" y="922.6093">1..*</text><text fill="#003366" font-family="sans-serif" font-size="12" lengthAdjust="spacing" textLength="7" x="593.3492" y="994.5844">1</text></g><!--link Enseignant to Projet--><g id="link_Enseignant_Projet"><path codeLine="156" d="M494.64,923.03 C512.27,951.36 531.69,982.58 549.32,1010.9 " fill="none" id="Enseignant-Projet" style="stroke:#003366;stroke-width:1.0;"/><text fill="#003366" font-family="sans-serif" font-size="12" lengthAdjust="spacing" textLength="46" x="533" y="971.8281">encadre</text><text fill="#003366" font-family="sans-serif" font-size="12" lengthAdjust="spacing" textLength="20" x="472.8281" y="948.9101">1..*</text><text fill="#003366" font-family="sans-serif" font-size="12" lengthAdjust="spacing" textLength="7" x="532.126" y="994.3641">*</text></g><!--link Projet to Soutenance--><g id="link_Projet_Soutenance"><path codeLine="157" d="M638.98,1195.38 C648.95,1223.03 660.06,1253.79 670.56,1282.9 " fill="none" id="Projet-Soutenance" style="stroke:#003366;stroke-width:1.0;"/><text fill="#003366" font-family="sans-serif" font-size="12" lengthAdjust="spacing" textLength="72" x="665" y="1243.8281">fait l'objet de</text><text fill="#003366" font-family="sans-serif" font-size="12" lengthAdjust="spacing" textLength="7" x="628.7778" y="1220.9572">1</text><text fill="#003366" font-family="sans-serif" font-size="12" lengthAdjust="spacing" textLength="7" x="655.2967" y="1266.3164">1</text></g><!--reverse link SessionGlobale to Soutenance--><g id="link_SessionGlobale_Soutenance"><path codeLine="158" d="M551.19,1401.5 C579.73,1401.5 600.81,1401.5 630.39,1401.5 " fill="none" id="SessionGlobale-backto-Soutenance" style="stroke:#003366;stroke-width:1.0;"/><polygon fill="#003366" points="539.19,1401.5,545.19,1405.5,551.19,1401.5,545.19,1397.5,539.19,1401.5" style="stroke:#003366;stroke-width:1.0;"/><text fill="#003366" font-family="sans-serif" font-size="12" lengthAdjust="spacing" textLength="45" x="562.25" y="1389.3281">contient</text><text fill="#003366" font-family="sans-serif" font-size="12" lengthAdjust="spacing" textLength="7" x="552.0345" y="1392.0622">1</text><text fill="#003366" font-family="sans-serif" font-size="12" lengthAdjust="spacing" textLength="7" x="610.5602" y="1392.2363">*</text></g><!--link SessionGlobale to Soutenance--><!--link Soutenance to Salle--><g id="link_Soutenance_Salle"><path codeLine="159" d="M795.61,1401.5 C838.12,1401.5 889.5,1401.5 930.61,1401.5 " fill="none" id="Soutenance-Salle" style="stroke:#003366;stroke-width:1.0;"/><text fill="#003366" font-family="sans-serif" font-size="12" lengthAdjust="spacing" textLength="89" x="818.75" y="1389.3281">se d&#233;roule dans</text><text fill="#003366" font-family="sans-serif" font-size="12" lengthAdjust="spacing" textLength="7" x="808.4398" y="1392.2363">*</text><text fill="#003366" font-family="sans-serif" font-size="12" lengthAdjust="spacing" textLength="7" x="911.0608" y="1392.1267">1</text></g><!--link Soutenance to Salle--><!--link Soutenance to MembreJury--><g id="link_Soutenance_MembreJury"><path codeLine="160" d="M630.23,1484.3 C577.51,1536.41 510.81,1602.33 465.32,1647.29 " fill="none" id="Soutenance-MembreJury" style="stroke:#003366;stroke-width:1.0;"/><text fill="#003366" font-family="sans-serif" font-size="12" lengthAdjust="spacing" textLength="75" x="569" y="1568.8281">compos&#233;e de</text><text fill="#003366" font-family="sans-serif" font-size="12" lengthAdjust="spacing" textLength="7" x="610.3865" y="1482.1519">1</text><text fill="#003366" font-family="sans-serif" font-size="12" lengthAdjust="spacing" textLength="20" x="444.8684" y="1631.1287">3..*</text></g><!--link Soutenance to Evaluation--><g id="link_Soutenance_Evaluation"><path codeLine="161" d="M689.99,1520.11 C684.3,1549.21 678.29,1579.96 672.88,1607.61 " fill="none" id="Soutenance-Evaluation" style="stroke:#003366;stroke-width:1.0;"/><text fill="#003366" font-family="sans-serif" font-size="12" lengthAdjust="spacing" textLength="47" x="690" y="1568.8281">poss&#232;de</text><text fill="#003366" font-family="sans-serif" font-size="12" lengthAdjust="spacing" textLength="7" x="676.1683" y="1545.5639">1</text><text fill="#003366" font-family="sans-serif" font-size="12" lengthAdjust="spacing" textLength="7" x="661.5982" y="1591.3799">1</text></g><!--link Soutenance to Evaluation--><!--link Soutenance to Convocation--><g id="link_Soutenance_Convocation"><path codeLine="162" d="M759.81,1520.11 C773.25,1553.9 787.59,1589.91 799.84,1620.7 " fill="none" id="Soutenance-Convocation" style="stroke:#003366;stroke-width:1.0;"/><text fill="#003366" font-family="sans-serif" font-size="12" lengthAdjust="spacing" textLength="40" x="788" y="1568.8281">g&#233;n&#232;re</text><text fill="#003366" font-family="sans-serif" font-size="12" lengthAdjust="spacing" textLength="7" x="750.0248" y="1545.5639">1</text><text fill="#003366" font-family="sans-serif" font-size="12" lengthAdjust="spacing" textLength="20" x="770.8731" y="1604.6229">1..*</text></g><!--link RoleEnum to JuryRole--><!--link JuryRole to SoutenanceStatus--><!--link SoutenanceStatus to SessionStatus--><!--link SessionStatus to DecisionEnum--><!--link DecisionEnum to ProjetType--><!--link RoleEnum to Utilisateur--><!--link Administrateur to Coordinateur--><!--link Coordinateur to Enseignant--><!--link Enseignant to Etudiant--><!--link Evaluation to Convocation--><!--SRC=[bLR1RkCs4BthAzHSqgPrWAAte1T1bhCARDcLxM0NHH7GqjXX8P42INaHjFs0_idcE_nZ7KeKHKdk5it18OV3nvdXcqTzerwX1BywWdyKlFJlFU_Mdyrc_kLlLfUNTq4KvKnga-S1cloK5n3fmH-UZt_1V1KdyNQN1hjedpQcSBrEvt7I6w9a6yMFIP3iskbkFu_rv2y3-LIBDmrh83Tfj8tdaV5EWyrcdMeilztzCLWDmSDWdhfmMruhO8Hbi5L4rTB0XcaKHUq1oo295x6PFUtJJo_1OX65kyZ4dpolVzcRvIXv2TVxTDjCTb6AXtShpy6oymgNwzq-DPCWIVPB7Dk0G4giuY2QzVuvIis1E4hN-tYv78Dr07F8g4OOrNtRZrw2voZ4GDCKquZNYLbwmiYJ7cSZ-E-WTc-LBVMYFN4LhTPnsewtk-2nsT8I8Io8b60OG0vI2P8fFzDMVwzeGILHK0i3-BrFcV9fRYReJTd9PxmS6Ye14nkKX1OZDppaCnSTcgMUm86n7JYE2VCnA7hiTaF86ODCWVYsGVt18drdNR2crgcpbZodHme2wtIa1Pgn2cscGLvIHdNoWsHF8424lAmKI8k2k4Twgd5bIuh2MSZXY21Y0uBolB5R_91ZS9GDqJC1YD6InuASIK5p3B4WZ66DhFq4J0SpvrbT0bC3z8X9e2Ti2MMnJOLFWkGmDCaAsOQ7g94zXue81HgyJrJMXT8LO6UUjLBX1AJcL5QSqGFLQCE8L9tJA_5aR7GgtWDUoCZ8w1b8tQEje3m8q39YyQocQAxeoOWlo42fCx4ORMzybSQAAZ4fYim4hNJcPi7fCOK_ezfg2N0ExQNg-i4v4gBvsQ0tENLeYg9clo9LaCM7MZaxSxJ1YZA4bSOyaKCJHBjQ8OyQpjjxGrxLHJFlmzGy_dyTVY0wIER6bf6AP3sjkfl83KbiIv-nFtH40_OCo8CzK3TiknxJiU14OKXZ1lE3175kQMfM1igQcyaemBRZm2b7svAF1J-G_wXBGGzGsCpiTRhNPeqBsfqyV336f76wxUjqxUdNfGAuymrWA1bjQLkrJw5mN_nR_mD-0r2bgUUA_Sz_ekzG4wVhhgPDLtjDkh9crC5pXAjPw1jTnnP8oL6gslkqYdBpu_tztGt6ZwERhgqV_8fBUVc2OkTWEgvtZYkmZEJOwSQWOGoQqwyF_f5GvHUt_A2T47X42-r_Pw07-r0s5TMjuLXl-eZRPdl09yhFiVWScn7fWHcwxYQadvhu7VdJw2McUdc79gJf5lpdz8zJbsk-3RpBjmV_T7bdbozO7SEO9Nd3ZVu7P61B6ljAptvzfNaEx3T1JwzgPYNPizeyzXXBbJVHhiaEjrEyOT-CVTrUzmQDF_RiDToxaaxEFxEP- -tZZRuEnd23HXYyz6DFfoaScawyklOOK-xVw-dUxiHB4-wgGvjfJnVFOSuqISiIxny0]--></g></svg>