<?xml version="1.0" encoding="us-ascii" standalone="no"?><svg xmlns="http://www.w3.org/2000/svg" xmlns:xlink="http://www.w3.org/1999/xlink" contentStyleType="text/css" height="1167px" preserveAspectRatio="none" style="width:1575px;height:1167px;background:#FFFFFF;" version="1.1" viewBox="0 0 1575 1167" width="1575px" zoomAndPan="magnify"><defs/><g><!--cluster Frontend--><g id="cluster_Frontend"><rect fill="none" height="250" rx="2.5" ry="2.5" style="stroke:#003366;stroke-width:1.0;" width="651" x="12" y="12"/><text fill="#000000" font-family="sans-serif" font-size="12" font-weight="bold" lengthAdjust="spacing" textLength="146" x="264.5" y="31.8281">Couche Frontend (React)</text></g><!--cluster Backend--><g id="cluster_Backend"><rect fill="none" height="617" rx="2.5" ry="2.5" style="stroke:#003366;stroke-width:1.0;" width="688" x="99" y="406"/><text fill="#000000" font-family="sans-serif" font-size="12" font-weight="bold" lengthAdjust="spacing" textLength="215" x="335.5" y="425.8281">Couche Backend (Spring Boot / Java)</text></g><!--cluster Services--><g id="cluster_Services"><rect fill="none" height="429" rx="2.5" ry="2.5" style="stroke:#003366;stroke-width:1.0;" width="624" x="131" y="562"/><text fill="#000000" font-family="sans-serif" font-size="12" font-weight="bold" lengthAdjust="spacing" textLength="91" x="397.5" y="581.8281">Services M&#233;tier</text></g><!--cluster DB--><g id="cluster_DB"><path d="M819,736 C819,726 1188.5,726 1188.5,726 C1188.5,726 1558,726 1558,736 L1558,1140 C1558,1150 1188.5,1150 1188.5,1150 C1188.5,1150 819,1150 819,1140 L819,736 " fill="#F2F4F7" style="stroke:#003366;stroke-width:1.0;"/><path d="M819,736 C819,746 1188.5,746 1188.5,746 C1188.5,746 1558,746 1558,736 " fill="none" style="stroke:#003366;stroke-width:1.0;"/><text fill="#000000" font-family="sans-serif" font-size="12" font-weight="bold" lengthAdjust="spacing" textLength="153" x="1112" y="765.8281">Base de donn&#233;es (MySQL)</text></g><!--entity F1--><g id="elem_F1"><rect fill="#F2F4F7" height="56.3441" rx="2.5" ry="2.5" style="stroke:#003366;stroke-width:1.0;" width="161" x="36.5" y="65"/><rect fill="#F2F4F7" height="10" style="stroke:#003366;stroke-width:1.0;" width="15" x="177.5" y="70"/><rect fill="#F2F4F7" height="2" style="stroke:#003366;stroke-width:1.0;" width="4" x="175.5" y="72"/><rect fill="#F2F4F7" height="2" style="stroke:#003366;stroke-width:1.0;" width="4" x="175.5" y="76"/><text fill="#000000" font-family="sans-serif" font-size="12" lengthAdjust="spacing" textLength="111" x="56.5" y="102.8281">Module Auth / Login</text></g><!--entity F2--><g id="elem_F2"><rect fill="#F2F4F7" height="56.3441" rx="2.5" ry="2.5" style="stroke:#003366;stroke-width:1.0;" width="141" x="232.5" y="65"/><rect fill="#F2F4F7" height="10" style="stroke:#003366;stroke-width:1.0;" width="15" x="353.5" y="70"/><rect fill="#F2F4F7" height="2" style="stroke:#003366;stroke-width:1.0;" width="4" x="351.5" y="72"/><rect fill="#F2F4F7" height="2" style="stroke:#003366;stroke-width:1.0;" width="4" x="351.5" y="76"/><text fill="#000000" font-family="sans-serif" font-size="12" lengthAdjust="spacing" textLength="91" x="252.5" y="102.8281">Tableau de bord</text></g><!--entity F3--><g id="elem_F3"><rect fill="#F2F4F7" height="56.3441" rx="2.5" ry="2.5" style="stroke:#003366;stroke-width:1.0;" width="202" x="409" y="65"/><rect fill="#F2F4F7" height="10" style="stroke:#003366;stroke-width:1.0;" width="15" x="591" y="70"/><rect fill="#F2F4F7" height="2" style="stroke:#003366;stroke-width:1.0;" width="4" x="589" y="72"/><rect fill="#F2F4F7" height="2" style="stroke:#003366;stroke-width:1.0;" width="4" x="589" y="76"/><text fill="#000000" font-family="sans-serif" font-size="12" lengthAdjust="spacing" textLength="152" x="429" y="102.8281">Gestion &#201;tudiants &amp; Projets</text></g><!--entity F4--><g id="elem_F4"><rect fill="#F2F4F7" height="56.3441" rx="2.5" ry="2.5" style="stroke:#003366;stroke-width:1.0;" width="160" x="36" y="182"/><rect fill="#F2F4F7" height="10" style="stroke:#003366;stroke-width:1.0;" width="15" x="176" y="187"/><rect fill="#F2F4F7" height="2" style="stroke:#003366;stroke-width:1.0;" width="4" x="174" y="189"/><rect fill="#F2F4F7" height="2" style="stroke:#003366;stroke-width:1.0;" width="4" x="174" y="193"/><text fill="#000000" font-family="sans-serif" font-size="12" lengthAdjust="spacing" textLength="110" x="56" y="219.8281">Planification &amp; Jurys</text></g><!--entity F5--><g id="elem_F5"><rect fill="#F2F4F7" height="56.3441" rx="2.5" ry="2.5" style="stroke:#003366;stroke-width:1.0;" width="153" x="231.5" y="182"/><rect fill="#F2F4F7" height="10" style="stroke:#003366;stroke-width:1.0;" width="15" x="364.5" y="187"/><rect fill="#F2F4F7" height="2" style="stroke:#003366;stroke-width:1.0;" width="4" x="362.5" y="189"/><rect fill="#F2F4F7" height="2" style="stroke:#003366;stroke-width:1.0;" width="4" x="362.5" y="193"/><text fill="#000000" font-family="sans-serif" font-size="12" lengthAdjust="spacing" textLength="103" x="251.5" y="219.8281">Module &#201;valuation</text></g><!--entity F6--><g id="elem_F6"><rect fill="#F2F4F7" height="56.3441" rx="2.5" ry="2.5" style="stroke:#003366;stroke-width:1.0;" width="211" x="419.5" y="182"/><rect fill="#F2F4F7" height="10" style="stroke:#003366;stroke-width:1.0;" width="15" x="610.5" y="187"/><rect fill="#F2F4F7" height="2" style="stroke:#003366;stroke-width:1.0;" width="4" x="608.5" y="189"/><rect fill="#F2F4F7" height="2" style="stroke:#003366;stroke-width:1.0;" width="4" x="608.5" y="193"/><text fill="#000000" font-family="sans-serif" font-size="12" lengthAdjust="spacing" textLength="161" x="439.5" y="219.8281">Module Documents / Exports</text></g><!--entity B1--><g id="elem_B1"><rect fill="#F2F4F7" height="56.3441" rx="2.5" ry="2.5" style="stroke:#003366;stroke-width:1.0;" width="173" x="597.5" y="451"/><rect fill="#F2F4F7" height="10" style="stroke:#003366;stroke-width:1.0;" width="15" x="750.5" y="456"/><rect fill="#F2F4F7" height="2" style="stroke:#003366;stroke-width:1.0;" width="4" x="748.5" y="458"/><rect fill="#F2F4F7" height="2" style="stroke:#003366;stroke-width:1.0;" width="4" x="748.5" y="462"/><text fill="#000000" font-family="sans-serif" font-size="12" lengthAdjust="spacing" textLength="123" x="617.5" y="488.8281">API REST (Controllers)</text></g><!--entity S1--><g id="elem_S1"><rect fill="#F2F4F7" height="56.3441" rx="2.5" ry="2.5" style="stroke:#003366;stroke-width:1.0;" width="139" x="166.5" y="615"/><rect fill="#F2F4F7" height="10" style="stroke:#003366;stroke-width:1.0;" width="15" x="285.5" y="620"/><rect fill="#F2F4F7" height="2" style="stroke:#003366;stroke-width:1.0;" width="4" x="283.5" y="622"/><rect fill="#F2F4F7" height="2" style="stroke:#003366;stroke-width:1.0;" width="4" x="283.5" y="626"/><text fill="#000000" font-family="sans-serif" font-size="12" lengthAdjust="spacing" textLength="89" x="186.5" y="652.8281">Security Service</text></g><!--entity S2--><g id="elem_S2"><rect fill="#F2F4F7" height="56.3441" rx="2.5" ry="2.5" style="stroke:#003366;stroke-width:1.0;" width="142" x="341" y="615"/><rect fill="#F2F4F7" height="10" style="stroke:#003366;stroke-width:1.0;" width="15" x="463" y="620"/><rect fill="#F2F4F7" height="2" style="stroke:#003366;stroke-width:1.0;" width="4" x="461" y="622"/><rect fill="#F2F4F7" height="2" style="stroke:#003366;stroke-width:1.0;" width="4" x="461" y="626"/><text fill="#000000" font-family="sans-serif" font-size="12" lengthAdjust="spacing" textLength="92" x="361" y="652.8281">Planning Service</text></g><!--entity S3--><g id="elem_S3"><rect fill="#F2F4F7" height="56.3441" rx="2.5" ry="2.5" style="stroke:#003366;stroke-width:1.0;" width="193" x="518.5" y="615"/><rect fill="#F2F4F7" height="10" style="stroke:#003366;stroke-width:1.0;" width="15" x="691.5" y="620"/><rect fill="#F2F4F7" height="2" style="stroke:#003366;stroke-width:1.0;" width="4" x="689.5" y="622"/><rect fill="#F2F4F7" height="2" style="stroke:#003366;stroke-width:1.0;" width="4" x="689.5" y="626"/><text fill="#000000" font-family="sans-serif" font-size="12" lengthAdjust="spacing" textLength="143" x="538.5" y="652.8281">Conflict Detection Service</text></g><!--entity S4--><g id="elem_S4"><rect fill="#F2F4F7" height="56.3441" rx="2.5" ry="2.5" style="stroke:#003366;stroke-width:1.0;" width="193" x="155.5" y="794"/><rect fill="#F2F4F7" height="10" style="stroke:#003366;stroke-width:1.0;" width="15" x="328.5" y="799"/><rect fill="#F2F4F7" height="2" style="stroke:#003366;stroke-width:1.0;" width="4" x="326.5" y="801"/><rect fill="#F2F4F7" height="2" style="stroke:#003366;stroke-width:1.0;" width="4" x="326.5" y="805"/><text fill="#000000" font-family="sans-serif" font-size="12" lengthAdjust="spacing" textLength="143" x="175.5" y="831.8281">Jury Management Service</text></g><!--entity S5--><g id="elem_S5"><rect fill="#F2F4F7" height="56.3441" rx="2.5" ry="2.5" style="stroke:#003366;stroke-width:1.0;" width="152" x="384" y="794"/><rect fill="#F2F4F7" height="10" style="stroke:#003366;stroke-width:1.0;" width="15" x="516" y="799"/><rect fill="#F2F4F7" height="2" style="stroke:#003366;stroke-width:1.0;" width="4" x="514" y="801"/><rect fill="#F2F4F7" height="2" style="stroke:#003366;stroke-width:1.0;" width="4" x="514" y="805"/><text fill="#000000" font-family="sans-serif" font-size="12" lengthAdjust="spacing" textLength="102" x="404" y="831.8281">Evaluation Service</text></g><!--entity S6--><g id="elem_S6"><rect fill="#F2F4F7" height="56.3441" rx="2.5" ry="2.5" style="stroke:#003366;stroke-width:1.0;" width="152" x="571" y="794"/><rect fill="#F2F4F7" height="10" style="stroke:#003366;stroke-width:1.0;" width="15" x="703" y="799"/><rect fill="#F2F4F7" height="2" style="stroke:#003366;stroke-width:1.0;" width="4" x="701" y="801"/><rect fill="#F2F4F7" height="2" style="stroke:#003366;stroke-width:1.0;" width="4" x="701" y="805"/><text fill="#000000" font-family="sans-serif" font-size="12" lengthAdjust="spacing" textLength="102" x="591" y="831.8281">Document Service</text></g><!--entity S7--><g id="elem_S7"><rect fill="#F2F4F7" height="56.3441" rx="2.5" ry="2.5" style="stroke:#003366;stroke-width:1.0;" width="158" x="173" y="911"/><rect fill="#F2F4F7" height="10" style="stroke:#003366;stroke-width:1.0;" width="15" x="311" y="916"/><rect fill="#F2F4F7" height="2" style="stroke:#003366;stroke-width:1.0;" width="4" x="309" y="918"/><rect fill="#F2F4F7" height="2" style="stroke:#003366;stroke-width:1.0;" width="4" x="309" y="922"/><text fill="#000000" font-family="sans-serif" font-size="12" lengthAdjust="spacing" textLength="108" x="193" y="948.8281">Notification Service</text></g><!--entity T1--><g id="elem_T1"><rect fill="#F2F4F7" height="56.3441" rx="2.5" ry="2.5" style="stroke:#003366;stroke-width:1.0;" width="146" x="862" y="794"/><rect fill="#F2F4F7" height="10" style="stroke:#003366;stroke-width:1.0;" width="15" x="988" y="799"/><rect fill="#F2F4F7" height="2" style="stroke:#003366;stroke-width:1.0;" width="4" x="986" y="801"/><rect fill="#F2F4F7" height="2" style="stroke:#003366;stroke-width:1.0;" width="4" x="986" y="805"/><text fill="#000000" font-family="sans-serif" font-size="12" lengthAdjust="spacing" textLength="96" x="882" y="831.8281">Table utilisateurs</text></g><!--entity T2--><g id="elem_T2"><rect fill="#F2F4F7" height="56.3441" rx="2.5" ry="2.5" style="stroke:#003366;stroke-width:1.0;" width="136" x="1043" y="794"/><rect fill="#F2F4F7" height="10" style="stroke:#003366;stroke-width:1.0;" width="15" x="1159" y="799"/><rect fill="#F2F4F7" height="2" style="stroke:#003366;stroke-width:1.0;" width="4" x="1157" y="801"/><rect fill="#F2F4F7" height="2" style="stroke:#003366;stroke-width:1.0;" width="4" x="1157" y="805"/><text fill="#000000" font-family="sans-serif" font-size="12" lengthAdjust="spacing" textLength="86" x="1063" y="831.8281">Table &#233;tudiants</text></g><!--entity T3--><g id="elem_T3"><rect fill="#F2F4F7" height="56.3441" rx="2.5" ry="2.5" style="stroke:#003366;stroke-width:1.0;" width="152" x="1214" y="794"/><rect fill="#F2F4F7" height="10" style="stroke:#003366;stroke-width:1.0;" width="15" x="1346" y="799"/><rect fill="#F2F4F7" height="2" style="stroke:#003366;stroke-width:1.0;" width="4" x="1344" y="801"/><rect fill="#F2F4F7" height="2" style="stroke:#003366;stroke-width:1.0;" width="4" x="1344" y="805"/><text fill="#000000" font-family="sans-serif" font-size="12" lengthAdjust="spacing" textLength="102" x="1234" y="831.8281">Table enseignants</text></g><!--entity T4--><g id="elem_T4"><rect fill="#F2F4F7" height="56.3441" rx="2.5" ry="2.5" style="stroke:#003366;stroke-width:1.0;" width="123" x="1401.5" y="794"/><rect fill="#F2F4F7" height="10" style="stroke:#003366;stroke-width:1.0;" width="15" x="1504.5" y="799"/><rect fill="#F2F4F7" height="2" style="stroke:#003366;stroke-width:1.0;" width="4" x="1502.5" y="801"/><rect fill="#F2F4F7" height="2" style="stroke:#003366;stroke-width:1.0;" width="4" x="1502.5" y="805"/><text fill="#000000" font-family="sans-serif" font-size="12" lengthAdjust="spacing" textLength="73" x="1421.5" y="831.8281">Table projets</text></g><!--entity T5--><g id="elem_T5"><rect fill="#F2F4F7" height="56.3441" rx="2.5" ry="2.5" style="stroke:#003366;stroke-width:1.0;" width="116" x="851" y="911"/><rect fill="#F2F4F7" height="10" style="stroke:#003366;stroke-width:1.0;" width="15" x="947" y="916"/><rect fill="#F2F4F7" height="2" style="stroke:#003366;stroke-width:1.0;" width="4" x="945" y="918"/><rect fill="#F2F4F7" height="2" style="stroke:#003366;stroke-width:1.0;" width="4" x="945" y="922"/><text fill="#000000" font-family="sans-serif" font-size="12" lengthAdjust="spacing" textLength="66" x="871" y="948.8281">Table salles</text></g><!--entity T6--><g id="elem_T6"><rect fill="#F2F4F7" height="56.3441" rx="2.5" ry="2.5" style="stroke:#003366;stroke-width:1.0;" width="155" x="1002.5" y="911"/><rect fill="#F2F4F7" height="10" style="stroke:#003366;stroke-width:1.0;" width="15" x="1137.5" y="916"/><rect fill="#F2F4F7" height="2" style="stroke:#003366;stroke-width:1.0;" width="4" x="1135.5" y="918"/><rect fill="#F2F4F7" height="2" style="stroke:#003366;stroke-width:1.0;" width="4" x="1135.5" y="922"/><text fill="#000000" font-family="sans-serif" font-size="12" lengthAdjust="spacing" textLength="105" x="1022.5" y="948.8281">Table soutenances</text></g><!--entity T7--><g id="elem_T7"><rect fill="#F2F4F7" height="56.3441" rx="2.5" ry="2.5" style="stroke:#003366;stroke-width:1.0;" width="148" x="1193" y="911"/><rect fill="#F2F4F7" height="10" style="stroke:#003366;stroke-width:1.0;" width="15" x="1321" y="916"/><rect fill="#F2F4F7" height="2" style="stroke:#003366;stroke-width:1.0;" width="4" x="1319" y="918"/><rect fill="#F2F4F7" height="2" style="stroke:#003366;stroke-width:1.0;" width="4" x="1319" y="922"/><text fill="#000000" font-family="sans-serif" font-size="12" lengthAdjust="spacing" textLength="98" x="1213" y="948.8281">Table &#233;valuations</text></g><!--entity T8--><g id="elem_T8"><rect fill="#F2F4F7" height="56.3441" rx="2.5" ry="2.5" style="stroke:#003366;stroke-width:1.0;" width="157" x="1376.5" y="911"/><rect fill="#F2F4F7" height="10" style="stroke:#003366;stroke-width:1.0;" width="15" x="1513.5" y="916"/><rect fill="#F2F4F7" height="2" style="stroke:#003366;stroke-width:1.0;" width="4" x="1511.5" y="918"/><rect fill="#F2F4F7" height="2" style="stroke:#003366;stroke-width:1.0;" width="4" x="1511.5" y="922"/><text fill="#000000" font-family="sans-serif" font-size="12" lengthAdjust="spacing" textLength="107" x="1396.5" y="948.8281">Table convocations</text></g><!--entity T9--><g id="elem_T9"><rect fill="#F2F4F7" height="56.3441" rx="2.5" ry="2.5" style="stroke:#003366;stroke-width:1.0;" width="167" x="850.5" y="1070"/><rect fill="#F2F4F7" height="10" style="stroke:#003366;stroke-width:1.0;" width="15" x="997.5" y="1075"/><rect fill="#F2F4F7" height="2" style="stroke:#003366;stroke-width:1.0;" width="4" x="995.5" y="1077"/><rect fill="#F2F4F7" height="2" style="stroke:#003366;stroke-width:1.0;" width="4" x="995.5" y="1081"/><text fill="#000000" font-family="sans-serif" font-size="12" lengthAdjust="spacing" textLength="117" x="870.5" y="1107.8281">Table indisponibilit&#233;s</text></g><!--entity T10--><g id="elem_T10"><rect fill="#F2F4F7" height="56.3441" rx="2.5" ry="2.5" style="stroke:#003366;stroke-width:1.0;" width="152" x="1053" y="1070"/><rect fill="#F2F4F7" height="10" style="stroke:#003366;stroke-width:1.0;" width="15" x="1185" y="1075"/><rect fill="#F2F4F7" height="2" style="stroke:#003366;stroke-width:1.0;" width="4" x="1183" y="1077"/><rect fill="#F2F4F7" height="2" style="stroke:#003366;stroke-width:1.0;" width="4" x="1183" y="1081"/><text fill="#000000" font-family="sans-serif" font-size="12" lengthAdjust="spacing" textLength="102" x="1073" y="1107.8281">Table notifications</text></g><!--entity T11--><g id="elem_T11"><rect fill="#F2F4F7" height="56.3441" rx="2.5" ry="2.5" style="stroke:#003366;stroke-width:1.0;" width="155" x="1240.5" y="1070"/><rect fill="#F2F4F7" height="10" style="stroke:#003366;stroke-width:1.0;" width="15" x="1375.5" y="1075"/><rect fill="#F2F4F7" height="2" style="stroke:#003366;stroke-width:1.0;" width="4" x="1373.5" y="1077"/><rect fill="#F2F4F7" height="2" style="stroke:#003366;stroke-width:1.0;" width="4" x="1373.5" y="1081"/><text fill="#000000" font-family="sans-serif" font-size="12" lengthAdjust="spacing" textLength="105" x="1260.5" y="1107.8281">Table reset_tokens</text></g><!--link Frontend to B1--><g id="link_Frontend_B1"><path d="M663.0934,201.1466 C663.136,201.7111 663.1787,202.2769 663.2215,202.8439 C663.3072,203.9779 663.3931,205.1167 663.4795,206.2601 C663.6521,208.5468 663.8262,210.8519 664.0015,213.1737 C664.7027,222.4608 665.4241,232.0148 666.1575,241.7288 C672.025,319.44 678.665,407.385 681.94,450.79 " fill="none" id="Frontend-B1" style="stroke:#003366;stroke-width:1.0;"/><text fill="#003366" font-family="sans-serif" font-size="12" lengthAdjust="spacing" textLength="62" x="686" y="311.8281">HTTP/REST</text><path d="M681.5396,351.5409 A10,10 0 0 0 667.4376 352.6055" fill="none" style="stroke:#003366;stroke-width:1.5;"/><ellipse cx="675.0209" cy="359.1242" fill="#FFFFFF" rx="6" ry="6" style="stroke:#003366;stroke-width:1.5;"/></g><!--link B1 to Services--><g id="link_B1_Services"><path d="M713.21,507.31 C723.13,518.32 733.17,531.78 739,546 C740.9663,550.7975 742.5736,555.8408 743.8801,561 C743.9618,561.3224 742.6127,555.8181 742.692,556.1415 " fill="none" id="B1-to-Services" style="stroke:#003366;stroke-width:1.0;"/><polygon fill="#003366" points="744.1216,561.9687,745.862,552.2748,742.9302,557.1127,738.0924,554.1809,744.1216,561.9687" style="stroke:#003366;stroke-width:1.0;"/></g><!--link Services to DB--><g id="link_Services_DB"><path d="M755.115,661.9527 C756.6496,665.3481 758.3619,669.1364 760.2163,673.2392 C767.6338,689.6503 777.325,711.0919 787.015,732.5313 C796.705,753.9706 806.3938,775.4078 813.8063,791.8102 C815.6594,795.9107 814.8995,794.229 816.4325,797.6216 " fill="none" id="Services-to-DB" style="stroke:#003366;stroke-width:1.0;"/><polygon fill="#003366" points="818.9033,803.0892,818.8423,793.2406,816.8443,798.5328,811.5521,796.5349,818.9033,803.0892" style="stroke:#003366;stroke-width:1.0;"/></g><!--SRC=[TPJRRjf048Rl_HHJBY9wuH2EINjHAGHwY495O-wggbhM0snhTgqzeA0g3v17uJbuiUvwRMCJnnUMlF_tc_4_CxpJ6zmYf2k4bHHRk0o2bD2_P8tGkXE6RX0-Iy4ryXZQZqYeVjy2eaw7_mAm5nNRL73a6bep4Pi4uTRe3NJWGQmPzuxkERaWomI9WHXXAMJigTuvzGMLPeB3yKMRc16k5Lp0N8e_g9MtzCyjyuHmjcAKPCOBk3TodxE3Dyezlkn8OZA31uTlW1D1pHPT5HsOFgL25bMCWkVNsOtjSnPTb4h6rp0MGblZFTaHdsC1l8hnTluD7gVH0jftDcafaWIboZq-oVAt8fGxHb71x7ZG36K6bOV-pMTlZv0QoVI-mBobsuIwCBchlORscb1RwIfXLCC4DT8i_9gftsHopO4PuVPJNAvrnw39CIrRLOU7JN3HhpewQaA_2tsQcXf-dU7FhiCnqMH9b8rzxEvsTcF1-V5WasxFzj6F1z-ZoJWF_cSsvM0qIvWY6erKlnomw5PbsxXykBtOguh85R8rFwdzgfhwLV3AeAeeOeSc5uOrGHYxkuJJGXtLQodppUNhgam5tmbQbM-gCkCnKpPHjhGVh8-7dFbGPNWbw2ADgoeWKQ7-hOLTZKBlkl3BVvqmR5-5eTq4-0XV5ujvnwrAO1_3y5Cv-a6v0-vqCWx-0m00]--></g></svg>