<?xml version="1.0" encoding="us-ascii" standalone="no"?><svg xmlns="http://www.w3.org/2000/svg" xmlns:xlink="http://www.w3.org/1999/xlink" contentStyleType="text/css" height="1416px" preserveAspectRatio="none" style="width:1511px;height:1416px;background:#FFFFFF;" version="1.1" viewBox="0 0 1511 1416" width="1511px" zoomAndPan="magnify"><defs/><g><!--class user--><g id="elem_user"><rect codeLine="6" fill="#F2F4F7" height="236.7529" id="user" rx="2.5" ry="2.5" style="stroke:#003366;stroke-width:1.0;" width="139" x="917.5" y="12"/><ellipse cx="948.15" cy="30.1721" fill="#C2CCD7" rx="10" ry="10" style="stroke:#003366;stroke-width:1.0;"/><path d="M948.6344,34.9221 L946.9,34.9221 L946.9,27.6877 L944.6813,27.6877 L944.6813,26.1721 L950.8531,26.1721 L950.8531,27.6877 L948.6344,27.6877 L948.6344,34.9221 Z " fill="#000000"/><text fill="#000000" font-family="sans-serif" font-size="12" lengthAdjust="spacing" textLength="62" x="969.85" y="34.8281">utilisateurs</text><line style="stroke:#003366;stroke-width:1.0;" x1="918.5" x2="1055.5" y1="48.3441" y2="48.3441"/><text fill="#000000" font-family="sans-serif" font-size="12" lengthAdjust="spacing" textLength="71" x="928.5" y="70.1722">*id : INT (PK)</text><line style="stroke:#003366;stroke-width:1.0;" x1="918.5" x2="1055.5" y1="82.6882" y2="82.6882"/><text fill="#000000" font-family="sans-serif" font-size="12" lengthAdjust="spacing" textLength="88" x="928.5" y="104.5163">nom : VARCHAR</text><text fill="#000000" font-family="sans-serif" font-size="12" lengthAdjust="spacing" textLength="107" x="928.5" y="130.8604">prenom : VARCHAR</text><text fill="#000000" font-family="sans-serif" font-size="12" lengthAdjust="spacing" textLength="114" x="928.5" y="157.2045">email : VARCHAR (U)</text><text fill="#000000" font-family="sans-serif" font-size="12" lengthAdjust="spacing" textLength="117" x="928.5" y="183.5487">password : VARCHAR</text><text fill="#000000" font-family="sans-serif" font-size="12" lengthAdjust="spacing" textLength="67" x="928.5" y="209.8928">role : ENUM</text><text fill="#000000" font-family="sans-serif" font-size="12" lengthAdjust="spacing" textLength="89" x="928.5" y="236.2369">actif : BOOLEAN</text></g><!--class student--><g id="elem_student"><rect codeLine="17" fill="#F2F4F7" height="184.0647" id="student" rx="2.5" ry="2.5" style="stroke:#003366;stroke-width:1.0;" width="137" x="38.5" y="889.5"/><ellipse cx="72.75" cy="907.6721" fill="#C2CCD7" rx="10" ry="10" style="stroke:#003366;stroke-width:1.0;"/><path d="M73.2344,912.4221 L71.5,912.4221 L71.5,905.1877 L69.2813,905.1877 L69.2813,903.6721 L75.4531,903.6721 L75.4531,905.1877 L73.2344,905.1877 L73.2344,912.4221 Z " fill="#000000"/><text fill="#000000" font-family="sans-serif" font-size="12" lengthAdjust="spacing" textLength="52" x="95.25" y="912.3281">etudiants</text><line style="stroke:#003366;stroke-width:1.0;" x1="39.5" x2="174.5" y1="925.8441" y2="925.8441"/><text fill="#000000" font-family="sans-serif" font-size="12" lengthAdjust="spacing" textLength="115" x="49.5" y="947.6722">*cne : VARCHAR (PK)</text><line style="stroke:#003366;stroke-width:1.0;" x1="39.5" x2="174.5" y1="960.1882" y2="960.1882"/><text fill="#000000" font-family="sans-serif" font-size="12" lengthAdjust="spacing" textLength="95" x="49.5" y="982.0163">filiere : VARCHAR</text><text fill="#000000" font-family="sans-serif" font-size="12" lengthAdjust="spacing" textLength="100" x="49.5" y="1008.3604">niveau : VARCHAR</text><text fill="#000000" font-family="sans-serif" font-size="12" lengthAdjust="spacing" textLength="93" x="49.5" y="1034.7045">user_id : INT (FK)</text><text fill="#000000" font-family="sans-serif" font-size="12" lengthAdjust="spacing" textLength="101" x="49.5" y="1061.0487">projet_id : INT (FK)</text></g><!--class prof--><g id="elem_prof"><rect codeLine="26" fill="#F2F4F7" height="157.7206" id="prof" rx="2.5" ry="2.5" style="stroke:#003366;stroke-width:1.0;" width="138" x="589" y="322"/><ellipse cx="616.5" cy="340.1721" fill="#C2CCD7" rx="10" ry="10" style="stroke:#003366;stroke-width:1.0;"/><path d="M616.9844,344.9221 L615.25,344.9221 L615.25,337.6877 L613.0313,337.6877 L613.0313,336.1721 L619.2031,336.1721 L619.2031,337.6877 L616.9844,337.6877 L616.9844,344.9221 Z " fill="#000000"/><text fill="#000000" font-family="sans-serif" font-size="12" lengthAdjust="spacing" textLength="68" x="637.5" y="344.8281">enseignants</text><line style="stroke:#003366;stroke-width:1.0;" x1="590" x2="726" y1="358.3441" y2="358.3441"/><text fill="#000000" font-family="sans-serif" font-size="12" lengthAdjust="spacing" textLength="71" x="600" y="380.1722">*id : INT (PK)</text><line style="stroke:#003366;stroke-width:1.0;" x1="590" x2="726" y1="392.6882" y2="392.6882"/><text fill="#000000" font-family="sans-serif" font-size="12" lengthAdjust="spacing" textLength="96" x="600" y="414.5163">grade : VARCHAR</text><text fill="#000000" font-family="sans-serif" font-size="12" lengthAdjust="spacing" textLength="116" x="600" y="440.8604">specialite : VARCHAR</text><text fill="#000000" font-family="sans-serif" font-size="12" lengthAdjust="spacing" textLength="93" x="600" y="467.2045">user_id : INT (FK)</text></g><!--class admin--><g id="elem_admin"><rect codeLine="34" fill="#F2F4F7" height="105.0323" id="admin" rx="2.5" ry="2.5" style="stroke:#003366;stroke-width:1.0;" width="129" x="1040.5" y="348.5"/><ellipse cx="1054.5" cy="366.6721" fill="#C2CCD7" rx="10" ry="10" style="stroke:#003366;stroke-width:1.0;"/><path d="M1054.9844,371.4221 L1053.25,371.4221 L1053.25,364.1877 L1051.0313,364.1877 L1051.0313,362.6721 L1057.2031,362.6721 L1057.2031,364.1877 L1054.9844,364.1877 L1054.9844,371.4221 Z " fill="#000000"/><text fill="#000000" font-family="sans-serif" font-size="12" lengthAdjust="spacing" textLength="89" x="1072.5" y="371.3281">administrateurs</text><line style="stroke:#003366;stroke-width:1.0;" x1="1041.5" x2="1168.5" y1="384.8441" y2="384.8441"/><text fill="#000000" font-family="sans-serif" font-size="12" lengthAdjust="spacing" textLength="71" x="1051.5" y="406.6722">*id : INT (PK)</text><line style="stroke:#003366;stroke-width:1.0;" x1="1041.5" x2="1168.5" y1="419.1882" y2="419.1882"/><text fill="#000000" font-family="sans-serif" font-size="12" lengthAdjust="spacing" textLength="93" x="1051.5" y="441.0163">user_id : INT (FK)</text></g><!--class coord--><g id="elem_coord"><rect codeLine="40" fill="#F2F4F7" height="105.0323" id="coord" rx="2.5" ry="2.5" style="stroke:#003366;stroke-width:1.0;" width="118" x="1205" y="348.5"/><ellipse cx="1219" cy="366.6721" fill="#C2CCD7" rx="10" ry="10" style="stroke:#003366;stroke-width:1.0;"/><path d="M1219.4844,371.4221 L1217.75,371.4221 L1217.75,364.1877 L1215.5313,364.1877 L1215.5313,362.6721 L1221.7031,362.6721 L1221.7031,364.1877 L1219.4844,364.1877 L1219.4844,371.4221 Z " fill="#000000"/><text fill="#000000" font-family="sans-serif" font-size="12" lengthAdjust="spacing" textLength="78" x="1237" y="371.3281">coordinateurs</text><line style="stroke:#003366;stroke-width:1.0;" x1="1206" x2="1322" y1="384.8441" y2="384.8441"/><text fill="#000000" font-family="sans-serif" font-size="12" lengthAdjust="spacing" textLength="71" x="1216" y="406.6722">*id : INT (PK)</text><line style="stroke:#003366;stroke-width:1.0;" x1="1206" x2="1322" y1="419.1882" y2="419.1882"/><text fill="#000000" font-family="sans-serif" font-size="12" lengthAdjust="spacing" textLength="93" x="1216" y="441.0163">user_id : INT (FK)</text></g><!--class session--><g id="elem_session"><rect codeLine="46" fill="#F2F4F7" height="184.0647" id="session" rx="2.5" ry="2.5" style="stroke:#003366;stroke-width:1.0;" width="140" x="465" y="579.5"/><ellipse cx="479" cy="597.6721" fill="#C2CCD7" rx="10" ry="10" style="stroke:#003366;stroke-width:1.0;"/><path d="M479.4844,602.4221 L477.75,602.4221 L477.75,595.1877 L475.5313,595.1877 L475.5313,593.6721 L481.7031,593.6721 L481.7031,595.1877 L479.4844,595.1877 L479.4844,602.4221 Z " fill="#000000"/><text fill="#000000" font-family="sans-serif" font-size="12" lengthAdjust="spacing" textLength="100" x="497" y="602.3281">sessions_globales</text><line style="stroke:#003366;stroke-width:1.0;" x1="466" x2="604" y1="615.8441" y2="615.8441"/><text fill="#000000" font-family="sans-serif" font-size="12" lengthAdjust="spacing" textLength="71" x="476" y="637.6722">*id : INT (PK)</text><line style="stroke:#003366;stroke-width:1.0;" x1="466" x2="604" y1="650.1882" y2="650.1882"/><text fill="#000000" font-family="sans-serif" font-size="12" lengthAdjust="spacing" textLength="96" x="476" y="672.0163">libelle : VARCHAR</text><text fill="#000000" font-family="sans-serif" font-size="12" lengthAdjust="spacing" textLength="102" x="476" y="698.3604">date_debut : DATE</text><text fill="#000000" font-family="sans-serif" font-size="12" lengthAdjust="spacing" textLength="84" x="476" y="724.7045">date_fin : DATE</text><text fill="#000000" font-family="sans-serif" font-size="12" lengthAdjust="spacing" textLength="77" x="476" y="751.0487">statut : ENUM</text></g><!--class project--><g id="elem_project"><rect codeLine="55" fill="#F2F4F7" height="184.0647" id="project" rx="2.5" ry="2.5" style="stroke:#003366;stroke-width:1.0;" width="147" x="282.5" y="579.5"/><ellipse cx="327.5" cy="597.6721" fill="#C2CCD7" rx="10" ry="10" style="stroke:#003366;stroke-width:1.0;"/><path d="M327.9844,602.4221 L326.25,602.4221 L326.25,595.1877 L324.0313,595.1877 L324.0313,593.6721 L330.2031,593.6721 L330.2031,595.1877 L327.9844,595.1877 L327.9844,602.4221 Z " fill="#000000"/><text fill="#000000" font-family="sans-serif" font-size="12" lengthAdjust="spacing" textLength="39" x="351.5" y="602.3281">projets</text><line style="stroke:#003366;stroke-width:1.0;" x1="283.5" x2="428.5" y1="615.8441" y2="615.8441"/><text fill="#000000" font-family="sans-serif" font-size="12" lengthAdjust="spacing" textLength="71" x="293.5" y="637.6722">*id : INT (PK)</text><line style="stroke:#003366;stroke-width:1.0;" x1="283.5" x2="428.5" y1="650.1882" y2="650.1882"/><text fill="#000000" font-family="sans-serif" font-size="12" lengthAdjust="spacing" textLength="86" x="293.5" y="672.0163">titre : VARCHAR</text><text fill="#000000" font-family="sans-serif" font-size="12" lengthAdjust="spacing" textLength="99" x="293.5" y="698.3604">description : TEXT</text><text fill="#000000" font-family="sans-serif" font-size="12" lengthAdjust="spacing" textLength="69" x="293.5" y="724.7045">type : ENUM</text><text fill="#000000" font-family="sans-serif" font-size="12" lengthAdjust="spacing" textLength="125" x="293.5" y="751.0487">encadrant_id : INT (FK)</text></g><!--class room--><g id="elem_room"><rect codeLine="64" fill="#F2F4F7" height="157.7206" id="room" rx="2.5" ry="2.5" style="stroke:#003366;stroke-width:1.0;" width="135" x="229.5" y="1212.5"/><ellipse cx="272" cy="1230.6721" fill="#C2CCD7" rx="10" ry="10" style="stroke:#003366;stroke-width:1.0;"/><path d="M272.4844,1235.4221 L270.75,1235.4221 L270.75,1228.1877 L268.5313,1228.1877 L268.5313,1226.6721 L274.7031,1226.6721 L274.7031,1228.1877 L272.4844,1228.1877 L272.4844,1235.4221 Z " fill="#000000"/><text fill="#000000" font-family="sans-serif" font-size="12" lengthAdjust="spacing" textLength="32" x="296" y="1235.3281">salles</text><line style="stroke:#003366;stroke-width:1.0;" x1="230.5" x2="363.5" y1="1248.8441" y2="1248.8441"/><text fill="#000000" font-family="sans-serif" font-size="12" lengthAdjust="spacing" textLength="71" x="240.5" y="1270.6722">*id : INT (PK)</text><line style="stroke:#003366;stroke-width:1.0;" x1="230.5" x2="363.5" y1="1283.1882" y2="1283.1882"/><text fill="#000000" font-family="sans-serif" font-size="12" lengthAdjust="spacing" textLength="88" x="240.5" y="1305.0163">nom : VARCHAR</text><text fill="#000000" font-family="sans-serif" font-size="12" lengthAdjust="spacing" textLength="113" x="240.5" y="1331.3604">batiment : VARCHAR</text><text fill="#000000" font-family="sans-serif" font-size="12" lengthAdjust="spacing" textLength="76" x="240.5" y="1357.7045">capacite : INT</text></g><!--class soutenance--><g id="elem_soutenance"><rect codeLine="72" fill="#F2F4F7" height="263.097" id="soutenance" rx="2.5" ry="2.5" style="stroke:#003366;stroke-width:1.0;" width="139" x="427.5" y="850"/><ellipse cx="454.1" cy="868.1721" fill="#C2CCD7" rx="10" ry="10" style="stroke:#003366;stroke-width:1.0;"/><path d="M454.5844,872.9221 L452.85,872.9221 L452.85,865.6877 L450.6313,865.6877 L450.6313,864.1721 L456.8031,864.1721 L456.8031,865.6877 L454.5844,865.6877 L454.5844,872.9221 Z " fill="#000000"/><text fill="#000000" font-family="sans-serif" font-size="12" lengthAdjust="spacing" textLength="71" x="474.9" y="872.8281">soutenances</text><line style="stroke:#003366;stroke-width:1.0;" x1="428.5" x2="565.5" y1="886.3441" y2="886.3441"/><text fill="#000000" font-family="sans-serif" font-size="12" lengthAdjust="spacing" textLength="71" x="438.5" y="908.1722">*id : INT (PK)</text><line style="stroke:#003366;stroke-width:1.0;" x1="428.5" x2="565.5" y1="920.6882" y2="920.6882"/><text fill="#000000" font-family="sans-serif" font-size="12" lengthAdjust="spacing" textLength="117" x="438.5" y="942.5163">date_passage : DATE</text><text fill="#000000" font-family="sans-serif" font-size="12" lengthAdjust="spacing" textLength="108" x="438.5" y="968.8604">heure_debut : TIME</text><text fill="#000000" font-family="sans-serif" font-size="12" lengthAdjust="spacing" textLength="62" x="438.5" y="995.2045">duree : INT</text><text fill="#000000" font-family="sans-serif" font-size="12" lengthAdjust="spacing" textLength="77" x="438.5" y="1021.5487">statut : ENUM</text><text fill="#000000" font-family="sans-serif" font-size="12" lengthAdjust="spacing" textLength="94" x="438.5" y="1047.8928">salle_id : INT (FK)</text><text fill="#000000" font-family="sans-serif" font-size="12" lengthAdjust="spacing" textLength="101" x="438.5" y="1074.2369">projet_id : INT (FK)</text><text fill="#000000" font-family="sans-serif" font-size="12" lengthAdjust="spacing" textLength="110" x="438.5" y="1100.581">session_id : INT (FK)</text></g><!--class jury--><g id="elem_jury"><rect codeLine="84" fill="#F2F4F7" height="157.7206" id="jury" rx="2.5" ry="2.5" style="stroke:#003366;stroke-width:1.0;" width="182" x="12" y="1212.5"/><ellipse cx="54" cy="1230.6721" fill="#C2CCD7" rx="10" ry="10" style="stroke:#003366;stroke-width:1.0;"/><path d="M54.4844,1235.4221 L52.75,1235.4221 L52.75,1228.1877 L50.5313,1228.1877 L50.5313,1226.6721 L56.7031,1226.6721 L56.7031,1228.1877 L54.4844,1228.1877 L54.4844,1235.4221 Z " fill="#000000"/><text fill="#000000" font-family="sans-serif" font-size="12" lengthAdjust="spacing" textLength="80" x="78" y="1235.3281">membres_jury</text><line style="stroke:#003366;stroke-width:1.0;" x1="13" x2="193" y1="1248.8441" y2="1248.8441"/><text fill="#000000" font-family="sans-serif" font-size="12" lengthAdjust="spacing" textLength="160" x="23" y="1270.6722">*soutenance_id : INT (PK, FK)</text><text fill="#000000" font-family="sans-serif" font-size="12" lengthAdjust="spacing" textLength="157" x="23" y="1297.0163">*enseignant_id : INT (PK, FK)</text><line style="stroke:#003366;stroke-width:1.0;" x1="13" x2="193" y1="1309.5323" y2="1309.5323"/><text fill="#000000" font-family="sans-serif" font-size="12" lengthAdjust="spacing" textLength="93" x="23" y="1331.3604">role_jury : ENUM</text><text fill="#000000" font-family="sans-serif" font-size="12" lengthAdjust="spacing" textLength="108" x="23" y="1357.7045">present : BOOLEAN</text></g><!--class eval--><g id="elem_eval"><rect codeLine="92" fill="#F2F4F7" height="210.4088" id="eval" rx="2.5" ry="2.5" style="stroke:#003366;stroke-width:1.0;" width="155" x="607.5" y="1186.5"/><ellipse cx="644.45" cy="1204.6721" fill="#C2CCD7" rx="10" ry="10" style="stroke:#003366;stroke-width:1.0;"/><path d="M644.9344,1209.4221 L643.2,1209.4221 L643.2,1202.1877 L640.9813,1202.1877 L640.9813,1200.6721 L647.1531,1200.6721 L647.1531,1202.1877 L644.9344,1202.1877 L644.9344,1209.4221 Z " fill="#000000"/><text fill="#000000" font-family="sans-serif" font-size="12" lengthAdjust="spacing" textLength="64" x="667.55" y="1209.3281">evaluations</text><line style="stroke:#003366;stroke-width:1.0;" x1="608.5" x2="761.5" y1="1222.8441" y2="1222.8441"/><text fill="#000000" font-family="sans-serif" font-size="12" lengthAdjust="spacing" textLength="71" x="618.5" y="1244.6722">*id : INT (PK)</text><line style="stroke:#003366;stroke-width:1.0;" x1="608.5" x2="761.5" y1="1257.1882" y2="1257.1882"/><text fill="#000000" font-family="sans-serif" font-size="12" lengthAdjust="spacing" textLength="70" x="618.5" y="1279.0163">note : FLOAT</text><text fill="#000000" font-family="sans-serif" font-size="12" lengthAdjust="spacing" textLength="109" x="618.5" y="1305.3604">observations : TEXT</text><text fill="#000000" font-family="sans-serif" font-size="12" lengthAdjust="spacing" textLength="105" x="618.5" y="1331.7045">validee : BOOLEAN</text><text fill="#000000" font-family="sans-serif" font-size="12" lengthAdjust="spacing" textLength="133" x="618.5" y="1358.0487">soutenance_id : INT (FK)</text><text fill="#000000" font-family="sans-serif" font-size="12" lengthAdjust="spacing" textLength="130" x="618.5" y="1384.3928">enseignant_id : INT (FK)</text></g><!--class result--><g id="elem_result"><rect codeLine="102" fill="#F2F4F7" height="210.4088" id="result" rx="2.5" ry="2.5" style="stroke:#003366;stroke-width:1.0;" width="173" x="399.5" y="1186.5"/><ellipse cx="419.8" cy="1204.6721" fill="#C2CCD7" rx="10" ry="10" style="stroke:#003366;stroke-width:1.0;"/><path d="M420.2844,1209.4221 L418.55,1209.4221 L418.55,1202.1877 L416.3313,1202.1877 L416.3313,1200.6721 L422.5031,1200.6721 L422.5031,1202.1877 L420.2844,1202.1877 L420.2844,1209.4221 Z " fill="#000000"/><text fill="#000000" font-family="sans-serif" font-size="12" lengthAdjust="spacing" textLength="119" x="439.2" y="1209.3281">resultats_soutenance</text><line style="stroke:#003366;stroke-width:1.0;" x1="400.5" x2="571.5" y1="1222.8441" y2="1222.8441"/><text fill="#000000" font-family="sans-serif" font-size="12" lengthAdjust="spacing" textLength="71" x="410.5" y="1244.6722">*id : INT (PK)</text><line style="stroke:#003366;stroke-width:1.0;" x1="400.5" x2="571.5" y1="1257.1882" y2="1257.1882"/><text fill="#000000" font-family="sans-serif" font-size="12" lengthAdjust="spacing" textLength="133" x="410.5" y="1279.0163">moyenne_finale : FLOAT</text><text fill="#000000" font-family="sans-serif" font-size="12" lengthAdjust="spacing" textLength="91" x="410.5" y="1305.3604">decision : ENUM</text><text fill="#000000" font-family="sans-serif" font-size="12" lengthAdjust="spacing" textLength="151" x="410.5" y="1331.7045">observations_finales : TEXT</text><text fill="#000000" font-family="sans-serif" font-size="12" lengthAdjust="spacing" textLength="105" x="410.5" y="1358.0487">validee : BOOLEAN</text><text fill="#000000" font-family="sans-serif" font-size="12" lengthAdjust="spacing" textLength="133" x="410.5" y="1384.3928">soutenance_id : INT (FK)</text></g><!--class convocation--><g id="elem_convocation"><rect codeLine="112" fill="#F2F4F7" height="236.7529" id="convocation" rx="2.5" ry="2.5" style="stroke:#003366;stroke-width:1.0;" width="182" x="798" y="1173"/><ellipse cx="843.5" cy="1191.1721" fill="#C2CCD7" rx="10" ry="10" style="stroke:#003366;stroke-width:1.0;"/><path d="M843.9844,1195.9221 L842.25,1195.9221 L842.25,1188.6877 L840.0313,1188.6877 L840.0313,1187.1721 L846.2031,1187.1721 L846.2031,1188.6877 L843.9844,1188.6877 L843.9844,1195.9221 Z " fill="#000000"/><text fill="#000000" font-family="sans-serif" font-size="12" lengthAdjust="spacing" textLength="73" x="867.5" y="1195.8281">convocations</text><line style="stroke:#003366;stroke-width:1.0;" x1="799" x2="979" y1="1209.3441" y2="1209.3441"/><text fill="#000000" font-family="sans-serif" font-size="12" lengthAdjust="spacing" textLength="71" x="809" y="1231.1722">*id : INT (PK)</text><line style="stroke:#003366;stroke-width:1.0;" x1="799" x2="979" y1="1243.6882" y2="1243.6882"/><text fill="#000000" font-family="sans-serif" font-size="12" lengthAdjust="spacing" textLength="69" x="809" y="1265.5163">type : ENUM</text><text fill="#000000" font-family="sans-serif" font-size="12" lengthAdjust="spacing" textLength="144" x="809" y="1291.8604">chemin_fichier : VARCHAR</text><text fill="#000000" font-family="sans-serif" font-size="12" lengthAdjust="spacing" textLength="112" x="809" y="1318.2045">envoyee : BOOLEAN</text><text fill="#000000" font-family="sans-serif" font-size="12" lengthAdjust="spacing" textLength="160" x="809" y="1344.5487">date_generation : DATETIME</text><text fill="#000000" font-family="sans-serif" font-size="12" lengthAdjust="spacing" textLength="133" x="809" y="1370.8928">soutenance_id : INT (FK)</text><text fill="#000000" font-family="sans-serif" font-size="12" lengthAdjust="spacing" textLength="124" x="809" y="1397.2369">utilisateur_id : INT (FK)</text></g><!--class unavailability--><g id="elem_unavailability"><rect codeLine="123" fill="#F2F4F7" height="236.7529" id="unavailability" rx="2.5" ry="2.5" style="stroke:#003366;stroke-width:1.0;" width="152" x="711" y="553"/><ellipse cx="738.05" cy="571.1721" fill="#C2CCD7" rx="10" ry="10" style="stroke:#003366;stroke-width:1.0;"/><path d="M738.5344,575.9221 L736.8,575.9221 L736.8,568.6877 L734.5813,568.6877 L734.5813,567.1721 L740.7531,567.1721 L740.7531,568.6877 L738.5344,568.6877 L738.5344,575.9221 Z " fill="#000000"/><text fill="#000000" font-family="sans-serif" font-size="12" lengthAdjust="spacing" textLength="83" x="758.95" y="575.8281">indisponibilites</text><line style="stroke:#003366;stroke-width:1.0;" x1="712" x2="862" y1="589.3441" y2="589.3441"/><text fill="#000000" font-family="sans-serif" font-size="12" lengthAdjust="spacing" textLength="71" x="722" y="611.1722">*id : INT (PK)</text><line style="stroke:#003366;stroke-width:1.0;" x1="712" x2="862" y1="623.6882" y2="623.6882"/><text fill="#000000" font-family="sans-serif" font-size="12" lengthAdjust="spacing" textLength="102" x="722" y="645.5163">date_debut : DATE</text><text fill="#000000" font-family="sans-serif" font-size="12" lengthAdjust="spacing" textLength="84" x="722" y="671.8604">date_fin : DATE</text><text fill="#000000" font-family="sans-serif" font-size="12" lengthAdjust="spacing" textLength="108" x="722" y="698.2045">heure_debut : TIME</text><text fill="#000000" font-family="sans-serif" font-size="12" lengthAdjust="spacing" textLength="90" x="722" y="724.5487">heure_fin : TIME</text><text fill="#000000" font-family="sans-serif" font-size="12" lengthAdjust="spacing" textLength="92" x="722" y="750.8928">motif : VARCHAR</text><text fill="#000000" font-family="sans-serif" font-size="12" lengthAdjust="spacing" textLength="130" x="722" y="777.2369">enseignant_id : INT (FK)</text></g><!--class notification--><g id="elem_notification"><rect codeLine="134" fill="#F2F4F7" height="236.7529" id="notification" rx="2.5" ry="2.5" style="stroke:#003366;stroke-width:1.0;" width="155" x="1015.5" y="1173"/><ellipse cx="1050.65" cy="1191.1721" fill="#C2CCD7" rx="10" ry="10" style="stroke:#003366;stroke-width:1.0;"/><path d="M1051.1344,1195.9221 L1049.4,1195.9221 L1049.4,1188.6877 L1047.1813,1188.6877 L1047.1813,1187.1721 L1053.3531,1187.1721 L1053.3531,1188.6877 L1051.1344,1188.6877 L1051.1344,1195.9221 Z " fill="#000000"/><text fill="#000000" font-family="sans-serif" font-size="12" lengthAdjust="spacing" textLength="68" x="1073.35" y="1195.8281">notifications</text><line style="stroke:#003366;stroke-width:1.0;" x1="1016.5" x2="1169.5" y1="1209.3441" y2="1209.3441"/><text fill="#000000" font-family="sans-serif" font-size="12" lengthAdjust="spacing" textLength="71" x="1026.5" y="1231.1722">*id : INT (PK)</text><line style="stroke:#003366;stroke-width:1.0;" x1="1016.5" x2="1169.5" y1="1243.6882" y2="1243.6882"/><text fill="#000000" font-family="sans-serif" font-size="12" lengthAdjust="spacing" textLength="90" x="1026.5" y="1265.5163">sujet : VARCHAR</text><text fill="#000000" font-family="sans-serif" font-size="12" lengthAdjust="spacing" textLength="82" x="1026.5" y="1291.8604">contenu : TEXT</text><text fill="#000000" font-family="sans-serif" font-size="12" lengthAdjust="spacing" textLength="77" x="1026.5" y="1318.2045">statut : ENUM</text><text fill="#000000" font-family="sans-serif" font-size="12" lengthAdjust="spacing" textLength="129" x="1026.5" y="1344.5487">date_envoi : DATETIME</text><text fill="#000000" font-family="sans-serif" font-size="12" lengthAdjust="spacing" textLength="124" x="1026.5" y="1370.8928">utilisateur_id : INT (FK)</text><text fill="#000000" font-family="sans-serif" font-size="12" lengthAdjust="spacing" textLength="133" x="1026.5" y="1397.2369">soutenance_id : INT (FK)</text></g><!--class token--><g id="elem_token"><rect codeLine="145" fill="#F2F4F7" height="184.0647" id="token" rx="2.5" ry="2.5" style="stroke:#003366;stroke-width:1.0;" width="146" x="1358" y="309"/><ellipse cx="1387.75" cy="327.1721" fill="#C2CCD7" rx="10" ry="10" style="stroke:#003366;stroke-width:1.0;"/><path d="M1388.2344,331.9221 L1386.5,331.9221 L1386.5,324.6877 L1384.2813,324.6877 L1384.2813,323.1721 L1390.4531,323.1721 L1390.4531,324.6877 L1388.2344,324.6877 L1388.2344,331.9221 Z " fill="#000000"/><text fill="#000000" font-family="sans-serif" font-size="12" lengthAdjust="spacing" textLength="71" x="1409.25" y="331.8281">reset_tokens</text><line style="stroke:#003366;stroke-width:1.0;" x1="1359" x2="1503" y1="345.3441" y2="345.3441"/><text fill="#000000" font-family="sans-serif" font-size="12" lengthAdjust="spacing" textLength="71" x="1369" y="367.1722">*id : INT (PK)</text><line style="stroke:#003366;stroke-width:1.0;" x1="1359" x2="1503" y1="379.6882" y2="379.6882"/><text fill="#000000" font-family="sans-serif" font-size="12" lengthAdjust="spacing" textLength="114" x="1369" y="401.5163">token : VARCHAR (U)</text><text fill="#000000" font-family="sans-serif" font-size="12" lengthAdjust="spacing" textLength="119" x="1369" y="427.8604">expire_le : DATETIME</text><text fill="#000000" font-family="sans-serif" font-size="12" lengthAdjust="spacing" textLength="98" x="1369" y="454.2045">utilise : BOOLEAN</text><text fill="#000000" font-family="sans-serif" font-size="12" lengthAdjust="spacing" textLength="124" x="1369" y="480.5487">utilisateur_id : INT (FK)</text></g><!--link user to student--><g id="link_user_student"><path codeLine="154" d="M909.21,131 C701.07,131 107,131 107,131 C107,131 107,654.09 107,874.27 " fill="none" id="user-student" style="stroke:#003366;stroke-width:1.0;"/><line style="stroke:#003366;stroke-width:1.0;" x1="913.21" x2="913.21" y1="127" y2="135"/><line style="stroke:#003366;stroke-width:1.0;" x1="910.21" x2="910.21" y1="127" y2="135"/><line style="stroke:#003366;stroke-width:1.0;" x1="909.21" x2="917.21" y1="131" y2="131"/><line style="stroke:#003366;stroke-width:1.0;" x1="107" x2="107" y1="878.27" y2="889.27"/><ellipse cx="107" cy="878.27" fill="none" rx="4" ry="4" style="stroke:#003366;stroke-width:1.0;"/><line style="stroke:#003366;stroke-width:1.0;" x1="111" x2="103" y1="885.27" y2="885.27"/></g><!--link user to prof--><g id="link_user_prof"><path codeLine="155" d="M938.33,257.15 C938.33,302.71 938.33,336 938.33,336 C938.33,336 825.31,336 742.3,336 " fill="none" id="user-prof" style="stroke:#003366;stroke-width:1.0;"/><line style="stroke:#003366;stroke-width:1.0;" x1="934.33" x2="942.33" y1="253.15" y2="253.15"/><line style="stroke:#003366;stroke-width:1.0;" x1="934.33" x2="942.33" y1="256.15" y2="256.15"/><line style="stroke:#003366;stroke-width:1.0;" x1="938.33" x2="938.33" y1="257.15" y2="249.15"/><line style="stroke:#003366;stroke-width:1.0;" x1="738.3" x2="727.3" y1="336" y2="336"/><ellipse cx="738.3" cy="336" fill="none" rx="4" ry="4" style="stroke:#003366;stroke-width:1.0;"/><line style="stroke:#003366;stroke-width:1.0;" x1="731.3" x2="731.3" y1="340" y2="332"/></g><!--link user to admin--><g id="link_user_admin"><path codeLine="156" d="M1045.83,257.15 C1045.83,291.78 1045.83,304.89 1045.83,333.21 " fill="none" id="user-admin" style="stroke:#003366;stroke-width:1.0;"/><line style="stroke:#003366;stroke-width:1.0;" x1="1041.83" x2="1049.83" y1="253.15" y2="253.15"/><line style="stroke:#003366;stroke-width:1.0;" x1="1041.83" x2="1049.83" y1="256.15" y2="256.15"/><line style="stroke:#003366;stroke-width:1.0;" x1="1045.83" x2="1045.83" y1="257.15" y2="249.15"/><line style="stroke:#003366;stroke-width:1.0;" x1="1045.83" x2="1045.83" y1="337.21" y2="348.21"/><ellipse cx="1045.83" cy="337.21" fill="none" rx="4" ry="4" style="stroke:#003366;stroke-width:1.0;"/><line style="stroke:#003366;stroke-width:1.0;" x1="1049.83" x2="1041.83" y1="344.21" y2="344.21"/></g><!--link user to coord--><g id="link_user_coord"><path codeLine="157" d="M1064.54,131 C1146.59,131 1264,131 1264,131 C1264,131 1264,254.73 1264,333.3 " fill="none" id="user-coord" style="stroke:#003366;stroke-width:1.0;"/><line style="stroke:#003366;stroke-width:1.0;" x1="1060.54" x2="1060.54" y1="135" y2="127"/><line style="stroke:#003366;stroke-width:1.0;" x1="1063.54" x2="1063.54" y1="135" y2="127"/><line style="stroke:#003366;stroke-width:1.0;" x1="1064.54" x2="1056.54" y1="131" y2="131"/><line style="stroke:#003366;stroke-width:1.0;" x1="1264" x2="1264" y1="337.3" y2="348.3"/><ellipse cx="1264" cy="337.3" fill="none" rx="4" ry="4" style="stroke:#003366;stroke-width:1.0;"/><line style="stroke:#003366;stroke-width:1.0;" x1="1268" x2="1260" y1="344.3" y2="344.3"/></g><!--link prof to project--><g id="link_prof_project"><path codeLine="159" d="M580.72,428 C491.55,428 356,428 356,428 C356,428 356,492.49 356,561.44 " fill="none" id="prof-project" style="stroke:#003366;stroke-width:1.0;"/><line style="stroke:#003366;stroke-width:1.0;" x1="584.72" x2="584.72" y1="424" y2="432"/><line style="stroke:#003366;stroke-width:1.0;" x1="581.72" x2="581.72" y1="424" y2="432"/><line style="stroke:#003366;stroke-width:1.0;" x1="580.72" x2="588.72" y1="428" y2="428"/><line style="stroke:#003366;stroke-width:1.0;" x1="356" x2="362" y1="571.44" y2="579.44"/><line style="stroke:#003366;stroke-width:1.0;" x1="356" x2="350" y1="571.44" y2="579.44"/><line style="stroke:#003366;stroke-width:1.0;" x1="356" x2="356" y1="571.44" y2="579.44"/><ellipse cx="356" cy="565.44" fill="none" rx="4" ry="4" style="stroke:#003366;stroke-width:1.0;"/></g><!--link project to student--><g id="link_project_student"><path codeLine="160" d="M309.83,771.82 C309.83,863.35 309.83,982 309.83,982 C309.83,982 252.51,982 193.67,982 " fill="none" id="project-student" style="stroke:#003366;stroke-width:1.0;"/><line style="stroke:#003366;stroke-width:1.0;" x1="305.83" x2="313.83" y1="767.82" y2="767.82"/><line style="stroke:#003366;stroke-width:1.0;" x1="305.83" x2="313.83" y1="770.82" y2="770.82"/><line style="stroke:#003366;stroke-width:1.0;" x1="309.83" x2="309.83" y1="771.82" y2="763.82"/><line style="stroke:#003366;stroke-width:1.0;" x1="183.67" x2="175.67" y1="982" y2="988"/><line style="stroke:#003366;stroke-width:1.0;" x1="183.67" x2="175.67" y1="982" y2="976"/><line style="stroke:#003366;stroke-width:1.0;" x1="183.67" x2="175.67" y1="982" y2="982"/><ellipse cx="189.67" cy="982" fill="none" rx="4" ry="4" style="stroke:#003366;stroke-width:1.0;"/></g><!--link project to soutenance--><g id="link_project_soutenance"><path codeLine="161" d="M413.5,771.78 C413.5,823.61 413.5,870 413.5,870 C413.5,870 411.05,870 419.29,870 " fill="none" id="project-soutenance" style="stroke:#003366;stroke-width:1.0;"/><line style="stroke:#003366;stroke-width:1.0;" x1="409.5" x2="417.5" y1="767.78" y2="767.78"/><line style="stroke:#003366;stroke-width:1.0;" x1="409.5" x2="417.5" y1="770.78" y2="770.78"/><line style="stroke:#003366;stroke-width:1.0;" x1="413.5" x2="413.5" y1="771.78" y2="763.78"/><line style="stroke:#003366;stroke-width:1.0;" x1="423.29" x2="423.29" y1="866" y2="874"/><line style="stroke:#003366;stroke-width:1.0;" x1="420.29" x2="420.29" y1="866" y2="874"/><line style="stroke:#003366;stroke-width:1.0;" x1="419.29" x2="427.29" y1="870" y2="870"/></g><!--link session to soutenance--><g id="link_session_soutenance"><path codeLine="162" d="M515.75,771.67 C515.75,798.71 515.75,812.82 515.75,841.82 " fill="none" id="session-soutenance" style="stroke:#003366;stroke-width:1.0;"/><line style="stroke:#003366;stroke-width:1.0;" x1="511.75" x2="519.75" y1="767.67" y2="767.67"/><line style="stroke:#003366;stroke-width:1.0;" x1="511.75" x2="519.75" y1="770.67" y2="770.67"/><line style="stroke:#003366;stroke-width:1.0;" x1="515.75" x2="515.75" y1="771.67" y2="763.67"/><line style="stroke:#003366;stroke-width:1.0;" x1="515.75" x2="521.75" y1="841.82" y2="849.82"/><line style="stroke:#003366;stroke-width:1.0;" x1="515.75" x2="509.75" y1="841.82" y2="849.82"/><line style="stroke:#003366;stroke-width:1.0;" x1="515.75" x2="515.75" y1="841.82" y2="849.82"/><line style="stroke:#003366;stroke-width:1.0;" x1="519.75" x2="511.75" y1="839.82" y2="839.82"/></g><!--link soutenance to room--><g id="link_soutenance_room"><path codeLine="163" d="M409.36,1100 C366.29,1100 337.17,1100 337.17,1100 C337.17,1100 337.17,1151.54 337.17,1204.23 " fill="none" id="soutenance-room" style="stroke:#003366;stroke-width:1.0;"/><line style="stroke:#003366;stroke-width:1.0;" x1="419.36" x2="427.36" y1="1100" y2="1094"/><line style="stroke:#003366;stroke-width:1.0;" x1="419.36" x2="427.36" y1="1100" y2="1106"/><line style="stroke:#003366;stroke-width:1.0;" x1="419.36" x2="427.36" y1="1100" y2="1100"/><ellipse cx="413.36" cy="1100" fill="none" rx="4" ry="4" style="stroke:#003366;stroke-width:1.0;"/><line style="stroke:#003366;stroke-width:1.0;" x1="341.17" x2="333.17" y1="1208.23" y2="1208.23"/><line style="stroke:#003366;stroke-width:1.0;" x1="341.17" x2="333.17" y1="1205.23" y2="1205.23"/><line style="stroke:#003366;stroke-width:1.0;" x1="337.17" x2="337.17" y1="1204.23" y2="1212.23"/></g><!--link soutenance to eval--><g id="link_soutenance_eval"><path codeLine="164" d="M574.53,1026 C611.74,1026 642,1026 642,1026 C642,1026 642,1094.06 642,1168.19 " fill="none" id="soutenance-eval" style="stroke:#003366;stroke-width:1.0;"/><line style="stroke:#003366;stroke-width:1.0;" x1="570.53" x2="570.53" y1="1030" y2="1022"/><line style="stroke:#003366;stroke-width:1.0;" x1="573.53" x2="573.53" y1="1030" y2="1022"/><line style="stroke:#003366;stroke-width:1.0;" x1="574.53" x2="566.53" y1="1026" y2="1026"/><line style="stroke:#003366;stroke-width:1.0;" x1="642" x2="648" y1="1178.19" y2="1186.19"/><line style="stroke:#003366;stroke-width:1.0;" x1="642" x2="636" y1="1178.19" y2="1186.19"/><line style="stroke:#003366;stroke-width:1.0;" x1="642" x2="642" y1="1178.19" y2="1186.19"/><ellipse cx="642" cy="1172.19" fill="none" rx="4" ry="4" style="stroke:#003366;stroke-width:1.0;"/></g><!--link soutenance to result--><g id="link_soutenance_result"><path codeLine="165" d="M473.83,1121.42 C473.83,1145.81 473.83,1147.98 473.83,1171.44 " fill="none" id="soutenance-result" style="stroke:#003366;stroke-width:1.0;"/><line style="stroke:#003366;stroke-width:1.0;" x1="469.83" x2="477.83" y1="1117.42" y2="1117.42"/><line style="stroke:#003366;stroke-width:1.0;" x1="469.83" x2="477.83" y1="1120.42" y2="1120.42"/><line style="stroke:#003366;stroke-width:1.0;" x1="473.83" x2="473.83" y1="1121.42" y2="1113.42"/><line style="stroke:#003366;stroke-width:1.0;" x1="473.83" x2="473.83" y1="1175.44" y2="1186.44"/><ellipse cx="473.83" cy="1175.44" fill="none" rx="4" ry="4" style="stroke:#003366;stroke-width:1.0;"/><line style="stroke:#003366;stroke-width:1.0;" x1="477.83" x2="469.83" y1="1182.44" y2="1182.44"/></g><!--link soutenance to jury--><g id="link_soutenance_jury"><path codeLine="166" d="M419.23,1087 C328.05,1087 187.83,1087 187.83,1087 C187.83,1087 187.83,1146.89 187.83,1204.43 " fill="none" id="soutenance-jury" style="stroke:#003366;stroke-width:1.0;"/><line style="stroke:#003366;stroke-width:1.0;" x1="423.23" x2="423.23" y1="1083" y2="1091"/><line style="stroke:#003366;stroke-width:1.0;" x1="420.23" x2="420.23" y1="1083" y2="1091"/><line style="stroke:#003366;stroke-width:1.0;" x1="419.23" x2="427.23" y1="1087" y2="1087"/><line style="stroke:#003366;stroke-width:1.0;" x1="187.83" x2="193.83" y1="1204.43" y2="1212.43"/><line style="stroke:#003366;stroke-width:1.0;" x1="187.83" x2="181.83" y1="1204.43" y2="1212.43"/><line style="stroke:#003366;stroke-width:1.0;" x1="187.83" x2="187.83" y1="1204.43" y2="1212.43"/><line style="stroke:#003366;stroke-width:1.0;" x1="191.83" x2="183.83" y1="1202.43" y2="1202.43"/></g><!--link prof to jury--><g id="link_prof_jury"><path codeLine="167" d="M580.99,375 C448.98,375 181.67,375 181.67,375 C181.67,375 181.67,981.52 181.67,1204.17 " fill="none" id="prof-jury" style="stroke:#003366;stroke-width:1.0;"/><line style="stroke:#003366;stroke-width:1.0;" x1="584.99" x2="584.99" y1="371" y2="379"/><line style="stroke:#003366;stroke-width:1.0;" x1="581.99" x2="581.99" y1="371" y2="379"/><line style="stroke:#003366;stroke-width:1.0;" x1="580.99" x2="588.99" y1="375" y2="375"/><line style="stroke:#003366;stroke-width:1.0;" x1="181.67" x2="187.67" y1="1204.17" y2="1212.17"/><line style="stroke:#003366;stroke-width:1.0;" x1="181.67" x2="175.67" y1="1204.17" y2="1212.17"/><line style="stroke:#003366;stroke-width:1.0;" x1="181.67" x2="181.67" y1="1204.17" y2="1212.17"/><line style="stroke:#003366;stroke-width:1.0;" x1="185.67" x2="177.67" y1="1202.17" y2="1202.17"/></g><!--link prof to eval--><g id="link_prof_eval"><path codeLine="168" d="M676.5,488.03 C676.5,648.71 676.5,987.58 676.5,1168.19 " fill="none" id="prof-eval" style="stroke:#003366;stroke-width:1.0;"/><line style="stroke:#003366;stroke-width:1.0;" x1="672.5" x2="680.5" y1="484.03" y2="484.03"/><line style="stroke:#003366;stroke-width:1.0;" x1="672.5" x2="680.5" y1="487.03" y2="487.03"/><line style="stroke:#003366;stroke-width:1.0;" x1="676.5" x2="676.5" y1="488.03" y2="480.03"/><line style="stroke:#003366;stroke-width:1.0;" x1="676.5" x2="682.5" y1="1178.19" y2="1186.19"/><line style="stroke:#003366;stroke-width:1.0;" x1="676.5" x2="670.5" y1="1178.19" y2="1186.19"/><line style="stroke:#003366;stroke-width:1.0;" x1="676.5" x2="676.5" y1="1178.19" y2="1186.19"/><ellipse cx="676.5" cy="1172.19" fill="none" rx="4" ry="4" style="stroke:#003366;stroke-width:1.0;"/></g><!--link prof to unavailability--><g id="link_prof_unavailability"><path codeLine="169" d="M719,488.33 C719,511.09 719,510.42 719,534.99 " fill="none" id="prof-unavailability" style="stroke:#003366;stroke-width:1.0;"/><line style="stroke:#003366;stroke-width:1.0;" x1="715" x2="723" y1="484.33" y2="484.33"/><line style="stroke:#003366;stroke-width:1.0;" x1="715" x2="723" y1="487.33" y2="487.33"/><line style="stroke:#003366;stroke-width:1.0;" x1="719" x2="719" y1="488.33" y2="480.33"/><line style="stroke:#003366;stroke-width:1.0;" x1="719" x2="725" y1="544.99" y2="552.99"/><line style="stroke:#003366;stroke-width:1.0;" x1="719" x2="713" y1="544.99" y2="552.99"/><line style="stroke:#003366;stroke-width:1.0;" x1="719" x2="719" y1="544.99" y2="552.99"/><ellipse cx="719" cy="538.99" fill="none" rx="4" ry="4" style="stroke:#003366;stroke-width:1.0;"/></g><!--link soutenance to convocation--><g id="link_soutenance_convocation"><path codeLine="170" d="M520.17,1121.07 C520.17,1157.86 520.17,1180 520.17,1180 C520.17,1180 670.61,1180 779.83,1180 " fill="none" id="soutenance-convocation" style="stroke:#003366;stroke-width:1.0;"/><line style="stroke:#003366;stroke-width:1.0;" x1="516.17" x2="524.17" y1="1117.07" y2="1117.07"/><line style="stroke:#003366;stroke-width:1.0;" x1="516.17" x2="524.17" y1="1120.07" y2="1120.07"/><line style="stroke:#003366;stroke-width:1.0;" x1="520.17" x2="520.17" y1="1121.07" y2="1113.07"/><line style="stroke:#003366;stroke-width:1.0;" x1="789.83" x2="797.83" y1="1180" y2="1174"/><line style="stroke:#003366;stroke-width:1.0;" x1="789.83" x2="797.83" y1="1180" y2="1186"/><line style="stroke:#003366;stroke-width:1.0;" x1="789.83" x2="797.83" y1="1180" y2="1180"/><ellipse cx="783.83" cy="1180" fill="none" rx="4" ry="4" style="stroke:#003366;stroke-width:1.0;"/></g><!--link user to convocation--><g id="link_user_convocation"><path codeLine="171" d="M959.17,257.02 C959.17,479.67 959.17,932.03 959.17,1154.81 " fill="none" id="user-convocation" style="stroke:#003366;stroke-width:1.0;"/><line style="stroke:#003366;stroke-width:1.0;" x1="955.17" x2="963.17" y1="253.02" y2="253.02"/><line style="stroke:#003366;stroke-width:1.0;" x1="955.17" x2="963.17" y1="256.02" y2="256.02"/><line style="stroke:#003366;stroke-width:1.0;" x1="959.17" x2="959.17" y1="257.02" y2="249.02"/><line style="stroke:#003366;stroke-width:1.0;" x1="959.17" x2="965.17" y1="1164.81" y2="1172.81"/><line style="stroke:#003366;stroke-width:1.0;" x1="959.17" x2="953.17" y1="1164.81" y2="1172.81"/><line style="stroke:#003366;stroke-width:1.0;" x1="959.17" x2="959.17" y1="1164.81" y2="1172.81"/><ellipse cx="959.17" cy="1158.81" fill="none" rx="4" ry="4" style="stroke:#003366;stroke-width:1.0;"/></g><!--link user to notification--><g id="link_user_notification"><path codeLine="172" d="M1032.17,257.02 C1032.17,479.67 1032.17,932.03 1032.17,1154.81 " fill="none" id="user-notification" style="stroke:#003366;stroke-width:1.0;"/><line style="stroke:#003366;stroke-width:1.0;" x1="1028.17" x2="1036.17" y1="253.02" y2="253.02"/><line style="stroke:#003366;stroke-width:1.0;" x1="1028.17" x2="1036.17" y1="256.02" y2="256.02"/><line style="stroke:#003366;stroke-width:1.0;" x1="1032.17" x2="1032.17" y1="257.02" y2="249.02"/><line style="stroke:#003366;stroke-width:1.0;" x1="1032.17" x2="1038.17" y1="1164.81" y2="1172.81"/><line style="stroke:#003366;stroke-width:1.0;" x1="1032.17" x2="1026.17" y1="1164.81" y2="1172.81"/><line style="stroke:#003366;stroke-width:1.0;" x1="1032.17" x2="1032.17" y1="1164.81" y2="1172.81"/><ellipse cx="1032.17" cy="1158.81" fill="none" rx="4" ry="4" style="stroke:#003366;stroke-width:1.0;"/></g><!--link soutenance to notification--><g id="link_soutenance_notification"><path codeLine="173" d="M574.69,938 C717.87,938 1023.83,938 1023.83,938 C1023.83,938 1023.83,1052.11 1023.83,1154.81 " fill="none" id="soutenance-notification" style="stroke:#003366;stroke-width:1.0;"/><line style="stroke:#003366;stroke-width:1.0;" x1="570.69" x2="570.69" y1="942" y2="934"/><line style="stroke:#003366;stroke-width:1.0;" x1="573.69" x2="573.69" y1="942" y2="934"/><line style="stroke:#003366;stroke-width:1.0;" x1="574.69" x2="566.69" y1="938" y2="938"/><line style="stroke:#003366;stroke-width:1.0;" x1="1023.83" x2="1029.83" y1="1164.81" y2="1172.81"/><line style="stroke:#003366;stroke-width:1.0;" x1="1023.83" x2="1017.83" y1="1164.81" y2="1172.81"/><line style="stroke:#003366;stroke-width:1.0;" x1="1023.83" x2="1023.83" y1="1164.81" y2="1172.81"/><ellipse cx="1023.83" cy="1158.81" fill="none" rx="4" ry="4" style="stroke:#003366;stroke-width:1.0;"/></g><!--link user to token--><g id="link_user_token"><path codeLine="174" d="M1051.17,257.03 C1051.17,293.39 1051.17,316 1051.17,316 C1051.17,316 1229.39,316 1339.76,316 " fill="none" id="user-token" style="stroke:#003366;stroke-width:1.0;"/><line style="stroke:#003366;stroke-width:1.0;" x1="1047.17" x2="1055.17" y1="253.03" y2="253.03"/><line style="stroke:#003366;stroke-width:1.0;" x1="1047.17" x2="1055.17" y1="256.03" y2="256.03"/><line style="stroke:#003366;stroke-width:1.0;" x1="1051.17" x2="1051.17" y1="257.03" y2="249.03"/><line style="stroke:#003366;stroke-width:1.0;" x1="1349.76" x2="1357.76" y1="316" y2="310"/><line style="stroke:#003366;stroke-width:1.0;" x1="1349.76" x2="1357.76" y1="316" y2="322"/><line style="stroke:#003366;stroke-width:1.0;" x1="1349.76" x2="1357.76" y1="316" y2="316"/><ellipse cx="1343.76" cy="316" fill="none" rx="4" ry="4" style="stroke:#003366;stroke-width:1.0;"/></g><!--SRC=[hLPHJzim47xFh_3Omm3HFUnb4a987HGDZS64ohItodMkhI6n8zlfLb7- -yvsqjWXBOJjfQe_ExxlxhuxtpkpW1n8CGCoKp8d7vFa0pcJOiRdfQA6Iq4AMIgI0T5cXR-Zs_D4Ft1HK4LpSiK5c5K1H2gpa4a2md2p8dkbuHdNr42fz1wXcfGQ53av8VlZ8_AUVM8i_Nn0Ja_9OqB88U4fEIQNrsEo_-FR0IA30Vu8f7DCVWvlpxuERt5TA6X3a5EUDGZPlxDV5rJhtrAbqL4baVmn6LtVVSSLPORFSFdbvkPgDBnEdXhgOCgKKs4yRuqhtDbEdGa82GJyPnW2K12n47m9j8mW6vb94u0BTq6Xv3sO5XoI51huN6neulbPp_3E5KrZShe0ncd63Rn4C612qvmBheqAaksmddHsMs4Iyyb5OCCX_zM61grHxteop-IKPb09mACzBMLy2baMnp55zfCKfgL1-7mu7jNO38ErGRIXnfrmIWteUKbiqdqFpFGaXVUqv9Y2PeeNhioFoNZqQsoFsNhUL0e8HbE5GjiHE9hLqL8IA_JVodoANIUt9HU2Z1QKUM7Yzv5nMHh0Gc1rlZRhdZnSAcphe7Deqh50mJLP6rz-Trb3hARIpXYkRJXULz6abjVsuEQGJnNeoNsfLiv1-sUxQutxaz3B8-BD7PAcStGUSA6mlT8PR9p2vgjzKhfQvf9cfNiiV0xikhSAN78lhcw6DgPoYgMwz5SsoiHhUUeYNvCWtGvxNpfTROKNtIepJA2UD1Tv9RkDdbxaSWL2k8gcMUXFYfrL-ogh0XfwM9r_gwTHdnHBoO9K143VRX6r0OPZ0XT8b2tmKOiVORImQd5rnJG70TKCuUkfAfyTAGlcXkrESf5oNKZ1fzm-LjM08UWIXm7giDLRQl_5rjpP2ppeprLGBlrm4ORePIKA-nKFSnSYFHtI9JQRk8DAWK4l6ucrsvRpr-QInzdQdfBNIT8s3ZCnyW4gjzpVlc9qtxG7FVXJS0n-1bsCOq7k59ORJjVhmK2kwu4lmknq5G5km8aGDuuaYPl37FHOFz99_LXNS6qWXDVh89H9FNAudSTeftdSdgJxp3wu8LmPiHtu6Rokcbfx0stOPj-GVmRKDuP0N70T78BM4uHgEnxAlUEwQ3lypcaZ-Gi0]--></g></svg>