<?xml version="1.0" encoding="us-ascii" standalone="no"?><svg xmlns="http://www.w3.org/2000/svg" xmlns:xlink="http://www.w3.org/1999/xlink" contentStyleType="text/css" height="462px" preserveAspectRatio="none" style="width:1004px;height:462px;background:#FFFFFF;" version="1.1" viewBox="0 0 1004 462" width="1004px" zoomAndPan="magnify"><defs/><g><!--cluster Espace Public--><g id="cluster_Espace Public"><rect fill="none" height="117" rx="2.5" ry="2.5" style="stroke:#003366;stroke-width:1.0;" width="190" x="435" y="12"/><text fill="#000000" font-family="sans-serif" font-size="12" font-weight="bold" lengthAdjust="spacing" textLength="82" x="489" y="31.8281">Espace Public</text></g><!--cluster Tableaux de bord--><g id="cluster_Tableaux de bord"><rect fill="none" height="117" rx="2.5" ry="2.5" style="stroke:#003366;stroke-width:1.0;" width="979" x="19" y="189"/><text fill="#000000" font-family="sans-serif" font-size="12" font-weight="bold" lengthAdjust="spacing" textLength="104" x="456.5" y="208.8281">Tableaux de bord</text></g><!--cluster Services--><g id="cluster_Services"><rect fill="none" height="117" rx="2.5" ry="2.5" style="stroke:#003366;stroke-width:1.0;" width="961" x="12" y="339"/><text fill="#000000" font-family="sans-serif" font-size="12" font-weight="bold" lengthAdjust="spacing" textLength="49" x="468" y="358.8281">Services</text></g><!--entity Login--><g id="elem_Login"><rect fill="#F2F4F7" height="56.3441" rx="2.5" ry="2.5" style="stroke:#003366;stroke-width:1.0;" width="157" x="451.5" y="57"/><rect fill="#F2F4F7" height="10" style="stroke:#003366;stroke-width:1.0;" width="15" x="588.5" y="62"/><rect fill="#F2F4F7" height="2" style="stroke:#003366;stroke-width:1.0;" width="4" x="586.5" y="64"/><rect fill="#F2F4F7" height="2" style="stroke:#003366;stroke-width:1.0;" width="4" x="586.5" y="68"/><text fill="#000000" font-family="sans-serif" font-size="12" lengthAdjust="spacing" textLength="107" x="471.5" y="94.8281">Page de Connexion</text></g><!--entity AdminDB--><g id="elem_AdminDB"><rect fill="#F2F4F7" height="56.3441" rx="2.5" ry="2.5" style="stroke:#003366;stroke-width:1.0;" width="228" x="35" y="234"/><rect fill="#F2F4F7" height="10" style="stroke:#003366;stroke-width:1.0;" width="15" x="243" y="239"/><rect fill="#F2F4F7" height="2" style="stroke:#003366;stroke-width:1.0;" width="4" x="241" y="241"/><rect fill="#F2F4F7" height="2" style="stroke:#003366;stroke-width:1.0;" width="4" x="241" y="245"/><text fill="#000000" font-family="sans-serif" font-size="12" lengthAdjust="spacing" textLength="178" x="55" y="271.8281">Tableau de bord Administrateur</text></g><!--entity CoordDB--><g id="elem_CoordDB"><rect fill="#F2F4F7" height="56.3441" rx="2.5" ry="2.5" style="stroke:#003366;stroke-width:1.0;" width="218" x="298" y="234"/><rect fill="#F2F4F7" height="10" style="stroke:#003366;stroke-width:1.0;" width="15" x="496" y="239"/><rect fill="#F2F4F7" height="2" style="stroke:#003366;stroke-width:1.0;" width="4" x="494" y="241"/><rect fill="#F2F4F7" height="2" style="stroke:#003366;stroke-width:1.0;" width="4" x="494" y="245"/><text fill="#000000" font-family="sans-serif" font-size="12" lengthAdjust="spacing" textLength="168" x="318" y="271.8281">Tableau de bord Coordinateur</text></g><!--entity ProfDB--><g id="elem_ProfDB"><rect fill="#F2F4F7" height="56.3441" rx="2.5" ry="2.5" style="stroke:#003366;stroke-width:1.0;" width="206" x="551" y="234"/><rect fill="#F2F4F7" height="10" style="stroke:#003366;stroke-width:1.0;" width="15" x="737" y="239"/><rect fill="#F2F4F7" height="2" style="stroke:#003366;stroke-width:1.0;" width="4" x="735" y="241"/><rect fill="#F2F4F7" height="2" style="stroke:#003366;stroke-width:1.0;" width="4" x="735" y="245"/><text fill="#000000" font-family="sans-serif" font-size="12" lengthAdjust="spacing" textLength="156" x="571" y="271.8281">Tableau de bord Enseignant</text></g><!--entity StudentDB--><g id="elem_StudentDB"><rect fill="#F2F4F7" height="56.3441" rx="2.5" ry="2.5" style="stroke:#003366;stroke-width:1.0;" width="190" x="792" y="234"/><rect fill="#F2F4F7" height="10" style="stroke:#003366;stroke-width:1.0;" width="15" x="962" y="239"/><rect fill="#F2F4F7" height="2" style="stroke:#003366;stroke-width:1.0;" width="4" x="960" y="241"/><rect fill="#F2F4F7" height="2" style="stroke:#003366;stroke-width:1.0;" width="4" x="960" y="245"/><text fill="#000000" font-family="sans-serif" font-size="12" lengthAdjust="spacing" textLength="140" x="812" y="271.8281">Tableau de bord &#201;tudiant</text></g><!--entity S1--><g id="elem_S1"><rect fill="#F2F4F7" height="56.3441" rx="2.5" ry="2.5" style="stroke:#003366;stroke-width:1.0;" width="252" x="28" y="384"/><rect fill="#F2F4F7" height="10" style="stroke:#003366;stroke-width:1.0;" width="15" x="260" y="389"/><rect fill="#F2F4F7" height="2" style="stroke:#003366;stroke-width:1.0;" width="4" x="258" y="391"/><rect fill="#F2F4F7" height="2" style="stroke:#003366;stroke-width:1.0;" width="4" x="258" y="395"/><text fill="#000000" font-family="sans-serif" font-size="12" lengthAdjust="spacing" textLength="202" x="48" y="421.8281">Service de Gestion (Comptes/Salles)</text></g><!--entity S2--><g id="elem_S2"><rect fill="#F2F4F7" height="56.3441" rx="2.5" ry="2.5" style="stroke:#003366;stroke-width:1.0;" width="179" x="315.5" y="384"/><rect fill="#F2F4F7" height="10" style="stroke:#003366;stroke-width:1.0;" width="15" x="474.5" y="389"/><rect fill="#F2F4F7" height="2" style="stroke:#003366;stroke-width:1.0;" width="4" x="472.5" y="391"/><rect fill="#F2F4F7" height="2" style="stroke:#003366;stroke-width:1.0;" width="4" x="472.5" y="395"/><text fill="#000000" font-family="sans-serif" font-size="12" lengthAdjust="spacing" textLength="129" x="335.5" y="421.8281">Service de Planification</text></g><!--entity S3--><g id="elem_S3"><rect fill="#F2F4F7" height="56.3441" rx="2.5" ry="2.5" style="stroke:#003366;stroke-width:1.0;" width="162" x="530" y="384"/><rect fill="#F2F4F7" height="10" style="stroke:#003366;stroke-width:1.0;" width="15" x="672" y="389"/><rect fill="#F2F4F7" height="2" style="stroke:#003366;stroke-width:1.0;" width="4" x="670" y="391"/><rect fill="#F2F4F7" height="2" style="stroke:#003366;stroke-width:1.0;" width="4" x="670" y="395"/><text fill="#000000" font-family="sans-serif" font-size="12" lengthAdjust="spacing" textLength="112" x="550" y="421.8281">Service d'&#201;valuation</text></g><!--entity S4--><g id="elem_S4"><rect fill="#F2F4F7" height="56.3441" rx="2.5" ry="2.5" style="stroke:#003366;stroke-width:1.0;" width="230" x="727" y="384"/><rect fill="#F2F4F7" height="10" style="stroke:#003366;stroke-width:1.0;" width="15" x="937" y="389"/><rect fill="#F2F4F7" height="2" style="stroke:#003366;stroke-width:1.0;" width="4" x="935" y="391"/><rect fill="#F2F4F7" height="2" style="stroke:#003366;stroke-width:1.0;" width="4" x="935" y="395"/><text fill="#000000" font-family="sans-serif" font-size="12" lengthAdjust="spacing" textLength="180" x="747" y="421.8281">Service de Documentation (PDF)</text></g><!--link Login to AdminDB--><g id="link_Login_AdminDB"><path d="M451.37,111.2 C401.22,128.4 335.47,153.08 280,181 C248.7,196.75 220.0309,214.1759 194.6409,230.5659 " fill="none" id="Login-to-AdminDB" style="stroke:#003366;stroke-width:1.0;"/><polygon fill="#003366" points="189.6,233.82,199.3308,232.2995,193.8008,231.1083,194.992,225.5783,189.6,233.82" style="stroke:#003366;stroke-width:1.0;"/><text fill="#003366" font-family="sans-serif" font-size="12" lengthAdjust="spacing" textLength="84" x="360" y="163.8281">Administrateur</text></g><!--link Login to CoordDB--><g id="link_Login_CoordDB"><path d="M510.78,113.34 C487.67,146.22 452.5805,196.1514 429.5305,228.9414 " fill="none" id="Login-to-CoordDB" style="stroke:#003366;stroke-width:1.0;"/><polygon fill="#003366" points="426.08,233.85,434.5281,228.7875,428.9554,229.7595,427.9834,224.1868,426.08,233.85" style="stroke:#003366;stroke-width:1.0;"/><text fill="#003366" font-family="sans-serif" font-size="12" lengthAdjust="spacing" textLength="74" x="493" y="163.8281">Coordinateur</text></g><!--link Login to ProfDB--><g id="link_Login_ProfDB"><path d="M555.02,113.2 C563.59,122.96 573.02,134.23 581,145 C602.66,174.26 621.4765,204.8034 635.5465,228.8134 " fill="none" id="Login-to-ProfDB" style="stroke:#003366;stroke-width:1.0;"/><polygon fill="#003366" points="638.58,233.99,637.4808,224.2027,636.052,229.6761,630.5786,228.2474,638.58,233.99" style="stroke:#003366;stroke-width:1.0;"/><text fill="#003366" font-family="sans-serif" font-size="12" lengthAdjust="spacing" textLength="62" x="606" y="163.8281">Enseignant</text></g><!--link Login to StudentDB--><g id="link_Login_StudentDB"><path d="M608.63,110.85 C657.81,127.75 721.71,152.23 775,181 C802.96,196.1 827.3574,213.4247 848.9074,230.1247 " fill="none" id="Login-to-StudentDB" style="stroke:#003366;stroke-width:1.0;"/><polygon fill="#003366" points="853.65,233.8,848.9862,225.1254,849.6978,230.7373,844.0859,231.4489,853.65,233.8" style="stroke:#003366;stroke-width:1.0;"/><text fill="#003366" font-family="sans-serif" font-size="12" lengthAdjust="spacing" textLength="46" x="762" y="163.8281">&#201;tudiant</text></g><!--link AdminDB to S1--><g id="link_AdminDB_S1"><path d="M149.92,290.15 C150.82,316.77 151.9775,351.1334 152.8775,377.7834 " fill="none" id="AdminDB-to-S1" style="stroke:#003366;stroke-width:1.0;"/><polygon fill="#003366" points="153.08,383.78,156.774,374.6501,152.9112,378.7828,148.7785,374.9201,153.08,383.78" style="stroke:#003366;stroke-width:1.0;"/></g><!--link CoordDB to S2--><g id="link_CoordDB_S2"><path d="M406.63,290.15 C406.27,316.77 405.811,351.1305 405.451,377.7805 " fill="none" id="CoordDB-to-S2" style="stroke:#003366;stroke-width:1.0;"/><polygon fill="#003366" points="405.37,383.78,409.4912,374.8348,405.4375,378.7805,401.4919,374.7268,405.37,383.78" style="stroke:#003366;stroke-width:1.0;"/></g><!--link CoordDB to S4--><g id="link_CoordDB_S4"><path d="M464.34,290.07 C485.75,299.09 510.57,308.29 534,314 C610.35,332.61 635.42,306.24 710,331 C745.6,342.82 776.8641,362.1435 802.3141,380.3935 " fill="none" id="CoordDB-to-S4" style="stroke:#003366;stroke-width:1.0;"/><polygon fill="#003366" points="807.19,383.89,802.2071,375.3947,803.1267,380.9763,797.5451,381.8959,807.19,383.89" style="stroke:#003366;stroke-width:1.0;"/></g><!--link ProfDB to S3--><g id="link_ProfDB_S3"><path d="M646.11,290.15 C638.38,316.77 628.3234,351.3681 620.5834,378.0181 " fill="none" id="ProfDB-to-S3" style="stroke:#003366;stroke-width:1.0;"/><polygon fill="#003366" points="618.91,383.78,625.2614,376.2528,620.3045,378.9784,617.5789,374.0215,618.91,383.78" style="stroke:#003366;stroke-width:1.0;"/></g><!--link ProfDB to S4--><g id="link_ProfDB_S4"><path d="M688.48,290.15 C722.3,316.77 768.8557,353.4185 802.7057,380.0685 " fill="none" id="ProfDB-to-S4" style="stroke:#003366;stroke-width:1.0;"/><polygon fill="#003366" points="807.42,383.78,802.8229,375.0698,803.4914,380.687,797.8742,381.3555,807.42,383.78" style="stroke:#003366;stroke-width:1.0;"/></g><!--link StudentDB to S4--><g id="link_StudentDB_S4"><path d="M878.75,290.15 C870.65,316.77 860.1248,351.3893 852.0248,378.0393 " fill="none" id="StudentDB-to-S4" style="stroke:#003366;stroke-width:1.0;"/><polygon fill="#003366" points="850.28,383.78,856.7244,376.3322,851.734,378.9961,849.0701,374.0057,850.28,383.78" style="stroke:#003366;stroke-width:1.0;"/></g><!--SRC=[TP6zJiCm58LtFyMb2p0Kr9-90GcImi8GAMo8uJQv2POSExATgXBY0VfSVJ4SDqwJ_cI8TCxzSgvzScD_g2Ae2u92gmeU6DEKMPIb89YiJ8qPGTAi1SycyCl0FLy9bWGvGQIaf2rNyXlGm8SgkMH_e-y_SIq8csrBhvNE-uXk47nuoIikkR4QBJNQvtahVhtCHygzkJpIthX6hwGXNagKrhE9LiKrTB-pJSu3cJf1qZfuVA-Kz8PdPFhxT4ORyqx6kaxWBb9LRSayfYW4cVj3uEoCJmHANl0CRMWodPz0j_lT1aKp81PdCR7AcigT5G_Ba_YjsxXip-v_3aodpw5MU3hfV81qNJfaMFC0E1JeviTY1zE-D0VqTJ8M5djani8IB-TZkMJT1gyM8xLan_pE-0S0]--></g></svg>