<?xml version="1.0" encoding="us-ascii" standalone="no"?><svg xmlns="http://www.w3.org/2000/svg" xmlns:xlink="http://www.w3.org/1999/xlink" contentStyleType="text/css" height="889px" preserveAspectRatio="none" style="width:995px;height:889px;background:#FFFFFF;" version="1.1" viewBox="0 0 995 889" width="995px" zoomAndPan="magnify"><defs/><g><rect fill="#F2F4F7" height="557.8176" style="stroke:#003366;stroke-width:1.0;" width="10" x="488" y="175.0323"/><rect fill="#F2F4F7" height="477.1294" style="stroke:#003366;stroke-width:1.0;" width="10" x="691" y="215.3765"/><rect fill="#F2F4F7" height="40.3441" style="stroke:#003366;stroke-width:1.0;" width="10" x="938" y="255.7206"/><rect fill="none" height="416.7853" rx="2.5" ry="2.5" style="stroke:#003366;stroke-width:1.0;" width="823" x="15" y="364.4088"/><line style="stroke:#003366;stroke-width:1.0;stroke-dasharray:5.0,5.0;" x1="62" x2="62" y1="92.3441" y2="798.1941"/><line style="stroke:#003366;stroke-width:1.0;stroke-dasharray:5.0,5.0;" x1="242.5" x2="242.5" y1="92.3441" y2="798.1941"/><line style="stroke:#003366;stroke-width:1.0;stroke-dasharray:5.0,5.0;" x1="493" x2="493" y1="92.3441" y2="798.1941"/><line style="stroke:#003366;stroke-width:1.0;stroke-dasharray:5.0,5.0;" x1="695.5" x2="695.5" y1="92.3441" y2="798.1941"/><line style="stroke:#003366;stroke-width:1.0;stroke-dasharray:5.0,5.0;" x1="943" x2="943" y1="92.3441" y2="798.1941"/><text fill="#000000" font-family="sans-serif" font-size="12" lengthAdjust="spacing" textLength="58" x="30" y="83.8281">Utilisateur</text><ellipse cx="62" cy="14" fill="#F2F4F7" rx="8" ry="8" style="stroke:#003366;stroke-width:1.0;"/><path d="M62,22 L62,49 M49,30 L75,30 M62,49 L49,64 M62,49 L75,64 " fill="none" style="stroke:#003366;stroke-width:1.0;"/><text fill="#000000" font-family="sans-serif" font-size="12" lengthAdjust="spacing" textLength="58" x="30" y="815.0221">Utilisateur</text><ellipse cx="62" cy="832.5382" fill="#F2F4F7" rx="8" ry="8" style="stroke:#003366;stroke-width:1.0;"/><path d="M62,840.5382 L62,867.5382 M49,848.5382 L75,848.5382 M62,867.5382 L49,882.5382 M62,867.5382 L75,882.5382 " fill="none" style="stroke:#003366;stroke-width:1.0;"/><text fill="#000000" font-family="sans-serif" font-size="12" lengthAdjust="spacing" textLength="51" x="214.5" y="83.8281">Interface</text><path d="M222.5,38 L222.5,62 M222.5,50 L239.5,50 " fill="none" style="stroke:#003366;stroke-width:1.0;"/><ellipse cx="251.5" cy="50" fill="#F2F4F7" rx="12" ry="12" style="stroke:#003366;stroke-width:1.0;"/><text fill="#000000" font-family="sans-serif" font-size="12" lengthAdjust="spacing" textLength="51" x="214.5" y="815.0221">Interface</text><path d="M222.5,827.5382 L222.5,851.5382 M222.5,839.5382 L239.5,839.5382 " fill="none" style="stroke:#003366;stroke-width:1.0;"/><ellipse cx="251.5" cy="839.5382" fill="#F2F4F7" rx="12" ry="12" style="stroke:#003366;stroke-width:1.0;"/><text fill="#000000" font-family="sans-serif" font-size="12" lengthAdjust="spacing" textLength="56" x="462" y="83.8281">Controller</text><ellipse cx="493" cy="50" fill="#F2F4F7" rx="12" ry="12" style="stroke:#003366;stroke-width:1.0;"/><polygon fill="#003366" points="489,38,495,33,493,38,495,43,489,38" style="stroke:#003366;stroke-width:1.0;"/><text fill="#000000" font-family="sans-serif" font-size="12" lengthAdjust="spacing" textLength="56" x="462" y="815.0221">Controller</text><ellipse cx="493" cy="839.5382" fill="#F2F4F7" rx="12" ry="12" style="stroke:#003366;stroke-width:1.0;"/><polygon fill="#003366" points="489,827.5382,495,822.5382,493,827.5382,495,832.5382,489,827.5382" style="stroke:#003366;stroke-width:1.0;"/><text fill="#000000" font-family="sans-serif" font-size="12" lengthAdjust="spacing" textLength="89" x="648.5" y="83.8281">Security Service</text><ellipse cx="696" cy="50" fill="#F2F4F7" rx="12" ry="12" style="stroke:#003366;stroke-width:1.0;"/><line style="stroke:#003366;stroke-width:1.0;" x1="684" x2="708" y1="64" y2="64"/><text fill="#000000" font-family="sans-serif" font-size="12" lengthAdjust="spacing" textLength="89" x="648.5" y="815.0221">Security Service</text><ellipse cx="696" cy="839.5382" fill="#F2F4F7" rx="12" ry="12" style="stroke:#003366;stroke-width:1.0;"/><line style="stroke:#003366;stroke-width:1.0;" x1="684" x2="708" y1="853.5382" y2="853.5382"/><text fill="#000000" font-family="sans-serif" font-size="12" lengthAdjust="spacing" textLength="96" x="892" y="83.8281">Base de donn&#233;es</text><path d="M925,30 C925,20 943,20 943,20 C943,20 961,20 961,30 L961,56 C961,66 943,66 943,66 C943,66 925,66 925,56 L925,30 " fill="#F2F4F7" style="stroke:#003366;stroke-width:1.5;"/><path d="M925,30 C925,40 943,40 943,40 C943,40 961,40 961,30 " fill="none" style="stroke:#003366;stroke-width:1.5;"/><text fill="#000000" font-family="sans-serif" font-size="12" lengthAdjust="spacing" textLength="96" x="892" y="815.0221">Base de donn&#233;es</text><path d="M925,833.5382 C925,823.5382 943,823.5382 943,823.5382 C943,823.5382 961,823.5382 961,833.5382 L961,859.5382 C961,869.5382 943,869.5382 943,869.5382 C943,869.5382 925,869.5382 925,859.5382 L925,833.5382 " fill="#F2F4F7" style="stroke:#003366;stroke-width:1.5;"/><path d="M925,833.5382 C925,843.5382 943,843.5382 943,843.5382 C943,843.5382 961,843.5382 961,833.5382 " fill="none" style="stroke:#003366;stroke-width:1.5;"/><rect fill="#F2F4F7" height="557.8176" style="stroke:#003366;stroke-width:1.0;" width="10" x="488" y="175.0323"/><rect fill="#F2F4F7" height="477.1294" style="stroke:#003366;stroke-width:1.0;" width="10" x="691" y="215.3765"/><rect fill="#F2F4F7" height="40.3441" style="stroke:#003366;stroke-width:1.0;" width="10" x="938" y="255.7206"/><polygon fill="#003366" points="231,130.6882,241,134.6882,231,138.6882,235,134.6882" style="stroke:#003366;stroke-width:1.0;"/><line style="stroke:#003366;stroke-width:1.0;" x1="62" x2="237" y1="134.6882" y2="134.6882"/><text fill="#003366" font-family="sans-serif" font-size="12" lengthAdjust="spacing" textLength="95" x="74" y="124.1722">Saisit identifiants</text><polygon fill="#003366" points="476,171.0323,486,175.0323,476,179.0323,480,175.0323" style="stroke:#003366;stroke-width:1.0;"/><line style="stroke:#003366;stroke-width:1.0;" x1="243" x2="482" y1="175.0323" y2="175.0323"/><text fill="#003366" font-family="sans-serif" font-size="12" lengthAdjust="spacing" textLength="216" x="255" y="164.5163">POST /api/auth/login (email, password)</text><polygon fill="#003366" points="679,211.3765,689,215.3765,679,219.3765,683,215.3765" style="stroke:#003366;stroke-width:1.0;"/><line style="stroke:#003366;stroke-width:1.0;" x1="498" x2="685" y1="215.3765" y2="215.3765"/><text fill="#003366" font-family="sans-serif" font-size="12" lengthAdjust="spacing" textLength="164" x="510" y="204.8604">authentifier(email, password)</text><polygon fill="#003366" points="926,251.7206,936,255.7206,926,259.7206,930,255.7206" style="stroke:#003366;stroke-width:1.0;"/><line style="stroke:#003366;stroke-width:1.0;" x1="701" x2="932" y1="255.7206" y2="255.7206"/><text fill="#003366" font-family="sans-serif" font-size="12" lengthAdjust="spacing" textLength="179" x="713" y="245.2045">Rechercher utilisateur par email</text><polygon fill="#003366" points="712,292.0647,702,296.0647,712,300.0647,708,296.0647" style="stroke:#003366;stroke-width:1.0;"/><line style="stroke:#003366;stroke-width:1.0;stroke-dasharray:2.0,2.0;" x1="706" x2="942" y1="296.0647" y2="296.0647"/><text fill="#003366" font-family="sans-serif" font-size="12" lengthAdjust="spacing" textLength="203" x="723" y="285.5487">Informations utilisateur + Hash MDP</text><line style="stroke:#003366;stroke-width:1.0;" x1="701" x2="743" y1="336.4088" y2="336.4088"/><line style="stroke:#003366;stroke-width:1.0;" x1="743" x2="743" y1="336.4088" y2="349.4088"/><line style="stroke:#003366;stroke-width:1.0;" x1="702" x2="743" y1="349.4088" y2="349.4088"/><polygon fill="#003366" points="712,345.4088,702,349.4088,712,353.4088,708,349.4088" style="stroke:#003366;stroke-width:1.0;"/><text fill="#003366" font-family="sans-serif" font-size="12" lengthAdjust="spacing" textLength="178" x="713" y="325.8928">V&#233;rifier mot de passe (hachage)</text><path d="M17.5,364.4088 L86,364.4088 L86,382.7529 L76,392.7529 L15,392.7529 L15,366.9088 A2.5,2.5 0 0 1 17.5,364.4088 " fill="#F2F4F7" style="stroke:#003366;stroke-width:1.0;"/><rect fill="none" height="416.7853" rx="2.5" ry="2.5" style="stroke:#003366;stroke-width:1.0;" width="823" x="15" y="364.4088"/><text fill="#000000" font-family="sans-serif" font-size="12" font-weight="bold" lengthAdjust="spacing" textLength="16" x="35" y="383.2369">alt</text><text fill="#003366" font-family="sans-serif" font-size="12" font-weight="bold" lengthAdjust="spacing" textLength="48" x="106" y="384.2369">[Succ&#232;s]</text><line style="stroke:#003366;stroke-width:1.0;" x1="701" x2="743" y1="436.4411" y2="436.4411"/><line style="stroke:#003366;stroke-width:1.0;" x1="743" x2="743" y1="436.4411" y2="449.4411"/><line style="stroke:#003366;stroke-width:1.0;" x1="702" x2="743" y1="449.4411" y2="449.4411"/><polygon fill="#003366" points="712,445.4411,702,449.4411,712,453.4411,708,449.4411" style="stroke:#003366;stroke-width:1.0;"/><text fill="#003366" font-family="sans-serif" font-size="12" lengthAdjust="spacing" textLength="108" x="713" y="425.9251">G&#233;n&#233;rer Token JWT</text><polygon fill="#003366" points="509,485.7853,499,489.7853,509,493.7853,505,489.7853" style="stroke:#003366;stroke-width:1.0;"/><line style="stroke:#003366;stroke-width:1.0;stroke-dasharray:2.0,2.0;" x1="503" x2="690" y1="489.7853" y2="489.7853"/><text fill="#003366" font-family="sans-serif" font-size="12" lengthAdjust="spacing" textLength="99" x="520" y="479.2692">Token JWT + Infos</text><polygon fill="#003366" points="254,526.1294,244,530.1294,254,534.1294,250,530.1294" style="stroke:#003366;stroke-width:1.0;"/><line style="stroke:#003366;stroke-width:1.0;stroke-dasharray:2.0,2.0;" x1="248" x2="487" y1="530.1294" y2="530.1294"/><text fill="#003366" font-family="sans-serif" font-size="12" lengthAdjust="spacing" textLength="136" x="265" y="519.6133">200 OK (JWT, R&#244;le, Infos)</text><line style="stroke:#003366;stroke-width:1.0;" x1="243" x2="285" y1="570.4735" y2="570.4735"/><line style="stroke:#003366;stroke-width:1.0;" x1="285" x2="285" y1="570.4735" y2="583.4735"/><line style="stroke:#003366;stroke-width:1.0;" x1="244" x2="285" y1="583.4735" y2="583.4735"/><polygon fill="#003366" points="254,579.4735,244,583.4735,254,587.4735,250,583.4735" style="stroke:#003366;stroke-width:1.0;"/><text fill="#003366" font-family="sans-serif" font-size="12" lengthAdjust="spacing" textLength="79" x="255" y="559.9575">Stocker Token</text><polygon fill="#003366" points="73,619.8176,63,623.8176,73,627.8176,69,623.8176" style="stroke:#003366;stroke-width:1.0;"/><line style="stroke:#003366;stroke-width:1.0;stroke-dasharray:2.0,2.0;" x1="67" x2="242" y1="623.8176" y2="623.8176"/><text fill="#003366" font-family="sans-serif" font-size="12" lengthAdjust="spacing" textLength="138" x="84" y="613.3016">Afficher Tableau de bord</text><line style="stroke:#003366;stroke-width:1.0;stroke-dasharray:2.0,2.0;" x1="15" x2="838" y1="632.8176" y2="632.8176"/><text fill="#003366" font-family="sans-serif" font-size="12" font-weight="bold" lengthAdjust="spacing" textLength="42" x="25" y="650.6457">[&#201;chec]</text><polygon fill="#003366" points="509,688.5058,499,692.5058,509,696.5058,505,692.5058" style="stroke:#003366;stroke-width:1.0;"/><line style="stroke:#003366;stroke-width:1.0;stroke-dasharray:2.0,2.0;" x1="503" x2="695" y1="692.5058" y2="692.5058"/><text fill="#003366" font-family="sans-serif" font-size="12" lengthAdjust="spacing" textLength="29" x="520" y="681.9898">Error</text><polygon fill="#003366" points="254,728.8499,244,732.8499,254,736.8499,250,732.8499" style="stroke:#003366;stroke-width:1.0;"/><line style="stroke:#003366;stroke-width:1.0;stroke-dasharray:2.0,2.0;" x1="248" x2="492" y1="732.8499" y2="732.8499"/><text fill="#003366" font-family="sans-serif" font-size="12" lengthAdjust="spacing" textLength="100" x="265" y="722.3339">401 Unauthorized</text><polygon fill="#003366" points="73,769.1941,63,773.1941,73,777.1941,69,773.1941" style="stroke:#003366;stroke-width:1.0;"/><line style="stroke:#003366;stroke-width:1.0;stroke-dasharray:2.0,2.0;" x1="67" x2="242" y1="773.1941" y2="773.1941"/><text fill="#003366" font-family="sans-serif" font-size="12" lengthAdjust="spacing" textLength="147" x="84" y="762.678">Afficher message d'erreur</text><!--SRC=[VLF1SjCm4BthAnPVI8UK18PJ3yoGfa1Xc7RgX9utyhhMn9OoAxaC_05_Gkxz0_yOAxaaRih4Osjaxzkdz_Ja5w6YXc1J4fJi6dYj5EhW6B9bCBNn6AZb3D33qXEhbMjjWVmJiaiRY4lKb8eVsTcWj0piQiZE-qbDVUiCzLgH3IP8OqwwvJZBYU_DOxzyV7nL1GPSeIV8Pd4iv7RMTblo2JcVAHMbmEdxVbKuWnoDDm5C4TSe3ThWLLyJK5nSCDTN-G8ck34JR4CrgTsTiJ2Y1aqzXWrw_yDnSHBDctintMjMgLb8zlg4AXBqAn4VOHXuKeD-OPlFXEM6T4KS7sZtMor438bpJoIMfUFqKCQbBHqt68op_Wd5A_YCle9lysjLq93bGCOJjk_TbfCZQ5o8knuT4Omgr1NUaVYg0-IjrjqVhq2k8roVkgq4niArS6koyELsyQnbdymE8yAZfvw-t_b1o6-dKxZw2YC1Zk6cUwXftCDF4dwNz-vG1AVN_oGC8O991-WCFfIbIG4iS5KJjj7sIa9KL8lrxhVKz17X5yoEKtsmpOFK_slZtVGDB6qyGexDBoeE-zEvEwws8Uyb4YXU4hC4BhzMeVu2]--></g></svg>