<?xml version="1.0" encoding="us-ascii" standalone="no"?><svg xmlns="http://www.w3.org/2000/svg" xmlns:xlink="http://www.w3.org/1999/xlink" contentStyleType="text/css" height="902px" preserveAspectRatio="none" style="width:997px;height:902px;background:#FFFFFF;" version="1.1" viewBox="0 0 997 902" width="997px" zoomAndPan="magnify"><defs/><g><rect fill="#F2F4F7" height="578.1617" style="stroke:#003366;stroke-width:1.0;" width="10" x="462" y="175.0323"/><rect fill="#F2F4F7" height="497.4735" style="stroke:#003366;stroke-width:1.0;" width="10" x="693" y="215.3765"/><rect fill="#F2F4F7" height="40.3441" style="stroke:#003366;stroke-width:1.0;" width="10" x="910" y="409.097"/><rect fill="#F2F4F7" height="40.3441" style="stroke:#003366;stroke-width:1.0;" width="10" x="910" y="536.4735"/><rect fill="none" height="336.4411" rx="2.5" ry="2.5" style="stroke:#003366;stroke-width:1.0;" width="362" x="629" y="337.0647"/><rect fill="none" height="202.0647" rx="2.5" ry="2.5" style="stroke:#003366;stroke-width:1.0;" width="342" x="639" y="464.4411"/><line style="stroke:#003366;stroke-width:1.0;stroke-dasharray:5.0,5.0;" x1="55" x2="55" y1="92.3441" y2="811.5382"/><line style="stroke:#003366;stroke-width:1.0;stroke-dasharray:5.0,5.0;" x1="258" x2="258" y1="92.3441" y2="811.5382"/><line style="stroke:#003366;stroke-width:1.0;stroke-dasharray:5.0,5.0;" x1="467" x2="467" y1="92.3441" y2="811.5382"/><line style="stroke:#003366;stroke-width:1.0;stroke-dasharray:5.0,5.0;" x1="698" x2="698" y1="92.3441" y2="811.5382"/><line style="stroke:#003366;stroke-width:1.0;stroke-dasharray:5.0,5.0;" x1="915" x2="915" y1="92.3441" y2="811.5382"/><text fill="#000000" font-family="sans-serif" font-size="12" lengthAdjust="spacing" textLength="74" x="15" y="83.8281">Coordinateur</text><ellipse cx="55" cy="14" fill="#F2F4F7" rx="8" ry="8" style="stroke:#003366;stroke-width:1.0;"/><path d="M55,22 L55,49 M42,30 L68,30 M55,49 L42,64 M55,49 L68,64 " fill="none" style="stroke:#003366;stroke-width:1.0;"/><text fill="#000000" font-family="sans-serif" font-size="12" lengthAdjust="spacing" textLength="74" x="15" y="828.3663">Coordinateur</text><ellipse cx="55" cy="845.8823" fill="#F2F4F7" rx="8" ry="8" style="stroke:#003366;stroke-width:1.0;"/><path d="M55,853.8823 L55,880.8823 M42,861.8823 L68,861.8823 M55,880.8823 L42,895.8823 M55,880.8823 L68,895.8823 " fill="none" style="stroke:#003366;stroke-width:1.0;"/><text fill="#000000" font-family="sans-serif" font-size="12" lengthAdjust="spacing" textLength="92" x="209" y="83.8281">Interface Import</text><path d="M237.5,38 L237.5,62 M237.5,50 L254.5,50 " fill="none" style="stroke:#003366;stroke-width:1.0;"/><ellipse cx="266.5" cy="50" fill="#F2F4F7" rx="12" ry="12" style="stroke:#003366;stroke-width:1.0;"/><text fill="#000000" font-family="sans-serif" font-size="12" lengthAdjust="spacing" textLength="92" x="209" y="828.3663">Interface Import</text><path d="M237.5,840.8823 L237.5,864.8823 M237.5,852.8823 L254.5,852.8823 " fill="none" style="stroke:#003366;stroke-width:1.0;"/><ellipse cx="266.5" cy="852.8823" fill="#F2F4F7" rx="12" ry="12" style="stroke:#003366;stroke-width:1.0;"/><text fill="#000000" font-family="sans-serif" font-size="12" lengthAdjust="spacing" textLength="56" x="436" y="83.8281">Controller</text><ellipse cx="467" cy="50" fill="#F2F4F7" rx="12" ry="12" style="stroke:#003366;stroke-width:1.0;"/><polygon fill="#003366" points="463,38,469,33,467,38,469,43,463,38" style="stroke:#003366;stroke-width:1.0;"/><text fill="#000000" font-family="sans-serif" font-size="12" lengthAdjust="spacing" textLength="56" x="436" y="828.3663">Controller</text><ellipse cx="467" cy="852.8823" fill="#F2F4F7" rx="12" ry="12" style="stroke:#003366;stroke-width:1.0;"/><polygon fill="#003366" points="463,840.8823,469,835.8823,467,840.8823,469,845.8823,463,840.8823" style="stroke:#003366;stroke-width:1.0;"/><text fill="#000000" font-family="sans-serif" font-size="12" lengthAdjust="spacing" textLength="82" x="654" y="83.8281">Import Service</text><ellipse cx="698" cy="50" fill="#F2F4F7" rx="12" ry="12" style="stroke:#003366;stroke-width:1.0;"/><line style="stroke:#003366;stroke-width:1.0;" x1="686" x2="710" y1="64" y2="64"/><text fill="#000000" font-family="sans-serif" font-size="12" lengthAdjust="spacing" textLength="82" x="654" y="828.3663">Import Service</text><ellipse cx="698" cy="852.8823" fill="#F2F4F7" rx="12" ry="12" style="stroke:#003366;stroke-width:1.0;"/><line style="stroke:#003366;stroke-width:1.0;" x1="686" x2="710" y1="866.8823" y2="866.8823"/><text fill="#000000" font-family="sans-serif" font-size="12" lengthAdjust="spacing" textLength="96" x="864" y="83.8281">Base de donn&#233;es</text><path d="M897,30 C897,20 915,20 915,20 C915,20 933,20 933,30 L933,56 C933,66 915,66 915,66 C915,66 897,66 897,56 L897,30 " fill="#F2F4F7" style="stroke:#003366;stroke-width:1.5;"/><path d="M897,30 C897,40 915,40 915,40 C915,40 933,40 933,30 " fill="none" style="stroke:#003366;stroke-width:1.5;"/><text fill="#000000" font-family="sans-serif" font-size="12" lengthAdjust="spacing" textLength="96" x="864" y="828.3663">Base de donn&#233;es</text><path d="M897,846.8823 C897,836.8823 915,836.8823 915,836.8823 C915,836.8823 933,836.8823 933,846.8823 L933,872.8823 C933,882.8823 915,882.8823 915,882.8823 C915,882.8823 897,882.8823 897,872.8823 L897,846.8823 " fill="#F2F4F7" style="stroke:#003366;stroke-width:1.5;"/><path d="M897,846.8823 C897,856.8823 915,856.8823 915,856.8823 C915,856.8823 933,856.8823 933,846.8823 " fill="none" style="stroke:#003366;stroke-width:1.5;"/><rect fill="#F2F4F7" height="578.1617" style="stroke:#003366;stroke-width:1.0;" width="10" x="462" y="175.0323"/><rect fill="#F2F4F7" height="497.4735" style="stroke:#003366;stroke-width:1.0;" width="10" x="693" y="215.3765"/><rect fill="#F2F4F7" height="40.3441" style="stroke:#003366;stroke-width:1.0;" width="10" x="910" y="409.097"/><rect fill="#F2F4F7" height="40.3441" style="stroke:#003366;stroke-width:1.0;" width="10" x="910" y="536.4735"/><polygon fill="#003366" points="246,130.6882,256,134.6882,246,138.6882,250,134.6882" style="stroke:#003366;stroke-width:1.0;"/><line style="stroke:#003366;stroke-width:1.0;" x1="55" x2="252" y1="134.6882" y2="134.6882"/><text fill="#003366" font-family="sans-serif" font-size="12" lengthAdjust="spacing" textLength="169" x="67" y="124.1722">S&#233;lectionne fichier (CSV/Excel)</text><polygon fill="#003366" points="450,171.0323,460,175.0323,450,179.0323,454,175.0323" style="stroke:#003366;stroke-width:1.0;"/><line style="stroke:#003366;stroke-width:1.0;" x1="258" x2="456" y1="175.0323" y2="175.0323"/><text fill="#003366" font-family="sans-serif" font-size="12" lengthAdjust="spacing" textLength="175" x="270" y="164.5163">POST /api/import/students (file)</text><polygon fill="#003366" points="681,211.3765,691,215.3765,681,219.3765,685,215.3765" style="stroke:#003366;stroke-width:1.0;"/><line style="stroke:#003366;stroke-width:1.0;" x1="472" x2="687" y1="215.3765" y2="215.3765"/><text fill="#003366" font-family="sans-serif" font-size="12" lengthAdjust="spacing" textLength="126" x="484" y="204.8604">importerEtudiants(file)</text><line style="stroke:#003366;stroke-width:1.0;" x1="703" x2="745" y1="255.7206" y2="255.7206"/><line style="stroke:#003366;stroke-width:1.0;" x1="745" x2="745" y1="255.7206" y2="268.7206"/><line style="stroke:#003366;stroke-width:1.0;" x1="704" x2="745" y1="268.7206" y2="268.7206"/><polygon fill="#003366" points="714,264.7206,704,268.7206,714,272.7206,710,268.7206" style="stroke:#003366;stroke-width:1.0;"/><text fill="#003366" font-family="sans-serif" font-size="12" lengthAdjust="spacing" textLength="88" x="715" y="245.2045">Parser le fichier</text><line style="stroke:#003366;stroke-width:1.0;" x1="703" x2="745" y1="309.0647" y2="309.0647"/><line style="stroke:#003366;stroke-width:1.0;" x1="745" x2="745" y1="309.0647" y2="322.0647"/><line style="stroke:#003366;stroke-width:1.0;" x1="704" x2="745" y1="322.0647" y2="322.0647"/><polygon fill="#003366" points="714,318.0647,704,322.0647,714,326.0647,710,322.0647" style="stroke:#003366;stroke-width:1.0;"/><text fill="#003366" font-family="sans-serif" font-size="12" lengthAdjust="spacing" textLength="183" x="715" y="298.5487">Valider format et donn&#233;es requis</text><path d="M631.5,337.0647 L710,337.0647 L710,355.4088 L700,365.4088 L629,365.4088 L629,339.5647 A2.5,2.5 0 0 1 631.5,337.0647 " fill="#F2F4F7" style="stroke:#003366;stroke-width:1.0;"/><rect fill="none" height="336.4411" rx="2.5" ry="2.5" style="stroke:#003366;stroke-width:1.0;" width="362" x="629" y="337.0647"/><text fill="#000000" font-family="sans-serif" font-size="12" font-weight="bold" lengthAdjust="spacing" textLength="26" x="649" y="355.8928">loop</text><text fill="#003366" font-family="sans-serif" font-size="12" font-weight="bold" lengthAdjust="spacing" textLength="117" x="730" y="356.8928">[pour chaque ligne]</text><polygon fill="#003366" points="898,405.097,908,409.097,898,413.097,902,409.097" style="stroke:#003366;stroke-width:1.0;"/><line style="stroke:#003366;stroke-width:1.0;" x1="703" x2="904" y1="409.097" y2="409.097"/><text fill="#003366" font-family="sans-serif" font-size="12" lengthAdjust="spacing" textLength="178" x="715" y="398.581">V&#233;rifier si CNE/Email existe d&#233;j&#224;</text><polygon fill="#003366" points="714,445.4411,704,449.4411,714,453.4411,710,449.4411" style="stroke:#003366;stroke-width:1.0;"/><line style="stroke:#003366;stroke-width:1.0;stroke-dasharray:2.0,2.0;" x1="708" x2="914" y1="449.4411" y2="449.4411"/><text fill="#003366" font-family="sans-serif" font-size="12" lengthAdjust="spacing" textLength="45" x="725" y="438.9251">R&#233;sultat</text><path d="M641.5,464.4411 L710,464.4411 L710,482.7853 L700,492.7853 L639,492.7853 L639,466.9411 A2.5,2.5 0 0 1 641.5,464.4411 " fill="#F2F4F7" style="stroke:#003366;stroke-width:1.0;"/><rect fill="none" height="202.0647" rx="2.5" ry="2.5" style="stroke:#003366;stroke-width:1.0;" width="342" x="639" y="464.4411"/><text fill="#000000" font-family="sans-serif" font-size="12" font-weight="bold" lengthAdjust="spacing" textLength="16" x="659" y="483.2692">alt</text><text fill="#003366" font-family="sans-serif" font-size="12" font-weight="bold" lengthAdjust="spacing" textLength="94" x="730" y="484.2692">[Donn&#233;e valide]</text><polygon fill="#003366" points="898,532.4735,908,536.4735,898,540.4735,902,536.4735" style="stroke:#003366;stroke-width:1.0;"/><line style="stroke:#003366;stroke-width:1.0;" x1="703" x2="904" y1="536.4735" y2="536.4735"/><text fill="#003366" font-family="sans-serif" font-size="12" lengthAdjust="spacing" textLength="161" x="715" y="525.9575">Sauvegarder nouvel &#201;tudiant</text><polygon fill="#003366" points="714,572.8176,704,576.8176,714,580.8176,710,576.8176" style="stroke:#003366;stroke-width:1.0;"/><line style="stroke:#003366;stroke-width:1.0;stroke-dasharray:2.0,2.0;" x1="708" x2="914" y1="576.8176" y2="576.8176"/><text fill="#003366" font-family="sans-serif" font-size="12" lengthAdjust="spacing" textLength="16" x="725" y="566.3016">OK</text><line style="stroke:#003366;stroke-width:1.0;stroke-dasharray:2.0,2.0;" x1="639" x2="981" y1="585.8176" y2="585.8176"/><text fill="#003366" font-family="sans-serif" font-size="12" font-weight="bold" lengthAdjust="spacing" textLength="45" x="649" y="603.6457">[Erreur]</text><line style="stroke:#003366;stroke-width:1.0;" x1="703" x2="745" y1="645.5058" y2="645.5058"/><line style="stroke:#003366;stroke-width:1.0;" x1="745" x2="745" y1="645.5058" y2="658.5058"/><line style="stroke:#003366;stroke-width:1.0;" x1="704" x2="745" y1="658.5058" y2="658.5058"/><polygon fill="#003366" points="714,654.5058,704,658.5058,714,662.5058,710,658.5058" style="stroke:#003366;stroke-width:1.0;"/><text fill="#003366" font-family="sans-serif" font-size="12" lengthAdjust="spacing" textLength="125" x="715" y="634.9898">Logger erreur de ligne</text><polygon fill="#003366" points="483,708.8499,473,712.8499,483,716.8499,479,712.8499" style="stroke:#003366;stroke-width:1.0;"/><line style="stroke:#003366;stroke-width:1.0;stroke-dasharray:2.0,2.0;" x1="477" x2="697" y1="712.8499" y2="712.8499"/><text fill="#003366" font-family="sans-serif" font-size="12" lengthAdjust="spacing" textLength="187" x="494" y="702.3339">Rapport d'import (Succ&#232;s/&#201;checs)</text><polygon fill="#003366" points="269,749.1941,259,753.1941,269,757.1941,265,753.1941" style="stroke:#003366;stroke-width:1.0;"/><line style="stroke:#003366;stroke-width:1.0;stroke-dasharray:2.0,2.0;" x1="263" x2="466" y1="753.1941" y2="753.1941"/><text fill="#003366" font-family="sans-serif" font-size="12" lengthAdjust="spacing" textLength="136" x="280" y="742.678">200 OK (Summary JSON)</text><polygon fill="#003366" points="66,789.5382,56,793.5382,66,797.5382,62,793.5382" style="stroke:#003366;stroke-width:1.0;"/><line style="stroke:#003366;stroke-width:1.0;stroke-dasharray:2.0,2.0;" x1="60" x2="257" y1="793.5382" y2="793.5382"/><text fill="#003366" font-family="sans-serif" font-size="12" lengthAdjust="spacing" textLength="137" x="77" y="783.0221">Afficher bilan de l'import</text><!--SRC=[RPF1Sfim48RlUegjBxKFAPaUS-XCRTEPj9qu4pgvoz9YgoCa8WbF-WXvYnxBS_1YNGcCiMC6606x7_-__7m8UwmGwXAXTBQ2Junn4Qo3sSfQ9vNX0Hit0-uXtM1RsnZ9tH-OtPk0hkG2uRwghGkfw9kp9Z119sTrXAI5nYFYUCdG11KY9VL2WUwW1AQgOSqa3tpBFS9i6S-ITcjCrw9FPUibOqaJt7pftmjtK7IjHX4K5P8Z9VOA7SnNnNEMlmhK2zONKiT92xKzRefVaF5QPIhfoNne94dqC2-LnaKSYZhGBAOMs0H1m44sqNe6kfmWYXFb4d9qo8uzP-sFt7b2wj70zR9dhfMakjAwYWV0C8u77BuqoZEchQsXjeq3iUSl3O9MEuCCQ9iWryj8wrgdoZWjhs3ra6TvnPK6V5MU1Ckk_TtzJOsZ2Pf_lARkcpDTJrth6nruI8ybNZRq51rWtSk5GpAIRbzJLl3cW3lkebTZQQsXUnicEpPTlkIgiisFyTbxMQWfOxbp5FThKawKdtQt8ocOIcCgJqD58rayJX_iCcXFl4vvbn_xaC2yQ8Je_lciUnDx57x19jB6d4oJDadxvzjRCXKPLHN_oU_5vk4CC4thaFoaAFurT_2rZ04ZvbPfRfALGHRx3m00]--></g></svg>