<?xml version="1.0" encoding="us-ascii" standalone="no"?><svg xmlns="http://www.w3.org/2000/svg" xmlns:xlink="http://www.w3.org/1999/xlink" contentStyleType="text/css" height="660px" preserveAspectRatio="none" style="width:1218px;height:660px;background:#FFFFFF;" version="1.1" viewBox="0 0 1218 660" width="1218px" zoomAndPan="magnify"><defs/><g><rect fill="#F2F4F7" height="335.7529" style="stroke:#003366;stroke-width:1.0;" width="10" x="604" y="175.0323"/><rect fill="#F2F4F7" height="255.0647" style="stroke:#003366;stroke-width:1.0;" width="10" x="797" y="215.3765"/><rect fill="#F2F4F7" height="40.3441" style="stroke:#003366;stroke-width:1.0;" width="10" x="1161" y="255.7206"/><rect fill="#F2F4F7" height="40.3441" style="stroke:#003366;stroke-width:1.0;" width="10" x="1161" y="389.7529"/><line style="stroke:#003366;stroke-width:1.0;stroke-dasharray:5.0,5.0;" x1="54" x2="54" y1="92.3441" y2="569.1294"/><line style="stroke:#003366;stroke-width:1.0;stroke-dasharray:5.0,5.0;" x1="257" x2="257" y1="92.3441" y2="569.1294"/><line style="stroke:#003366;stroke-width:1.0;stroke-dasharray:5.0,5.0;" x1="609" x2="609" y1="92.3441" y2="569.1294"/><line style="stroke:#003366;stroke-width:1.0;stroke-dasharray:5.0,5.0;" x1="802" x2="802" y1="92.3441" y2="569.1294"/><line style="stroke:#003366;stroke-width:1.0;stroke-dasharray:5.0,5.0;" x1="1166" x2="1166" y1="92.3441" y2="569.1294"/><text fill="#000000" font-family="sans-serif" font-size="12" lengthAdjust="spacing" textLength="72" x="15" y="83.8281">Membre Jury</text><ellipse cx="54" cy="14" fill="#F2F4F7" rx="8" ry="8" style="stroke:#003366;stroke-width:1.0;"/><path d="M54,22 L54,49 M41,30 L67,30 M54,49 L41,64 M54,49 L67,64 " fill="none" style="stroke:#003366;stroke-width:1.0;"/><text fill="#000000" font-family="sans-serif" font-size="12" lengthAdjust="spacing" textLength="72" x="15" y="585.9575">Membre Jury</text><ellipse cx="54" cy="603.4735" fill="#F2F4F7" rx="8" ry="8" style="stroke:#003366;stroke-width:1.0;"/><path d="M54,611.4735 L54,638.4735 M41,619.4735 L67,619.4735 M54,638.4735 L41,653.4735 M54,638.4735 L67,653.4735 " fill="none" style="stroke:#003366;stroke-width:1.0;"/><text fill="#000000" font-family="sans-serif" font-size="12" lengthAdjust="spacing" textLength="112" x="198" y="83.8281">Interface &#201;valuation</text><path d="M236.5,38 L236.5,62 M236.5,50 L253.5,50 " fill="none" style="stroke:#003366;stroke-width:1.0;"/><ellipse cx="265.5" cy="50" fill="#F2F4F7" rx="12" ry="12" style="stroke:#003366;stroke-width:1.0;"/><text fill="#000000" font-family="sans-serif" font-size="12" lengthAdjust="spacing" textLength="112" x="198" y="585.9575">Interface &#201;valuation</text><path d="M236.5,598.4735 L236.5,622.4735 M236.5,610.4735 L253.5,610.4735 " fill="none" style="stroke:#003366;stroke-width:1.0;"/><ellipse cx="265.5" cy="610.4735" fill="#F2F4F7" rx="12" ry="12" style="stroke:#003366;stroke-width:1.0;"/><text fill="#000000" font-family="sans-serif" font-size="12" lengthAdjust="spacing" textLength="56" x="578" y="83.8281">Controller</text><ellipse cx="609" cy="50" fill="#F2F4F7" rx="12" ry="12" style="stroke:#003366;stroke-width:1.0;"/><polygon fill="#003366" points="605,38,611,33,609,38,611,43,605,38" style="stroke:#003366;stroke-width:1.0;"/><text fill="#000000" font-family="sans-serif" font-size="12" lengthAdjust="spacing" textLength="56" x="578" y="585.9575">Controller</text><ellipse cx="609" cy="610.4735" fill="#F2F4F7" rx="12" ry="12" style="stroke:#003366;stroke-width:1.0;"/><polygon fill="#003366" points="605,598.4735,611,593.4735,609,598.4735,611,603.4735,605,598.4735" style="stroke:#003366;stroke-width:1.0;"/><text fill="#000000" font-family="sans-serif" font-size="12" lengthAdjust="spacing" textLength="102" x="748" y="83.8281">Evaluation Service</text><ellipse cx="802" cy="50" fill="#F2F4F7" rx="12" ry="12" style="stroke:#003366;stroke-width:1.0;"/><line style="stroke:#003366;stroke-width:1.0;" x1="790" x2="814" y1="64" y2="64"/><text fill="#000000" font-family="sans-serif" font-size="12" lengthAdjust="spacing" textLength="102" x="748" y="585.9575">Evaluation Service</text><ellipse cx="802" cy="610.4735" fill="#F2F4F7" rx="12" ry="12" style="stroke:#003366;stroke-width:1.0;"/><line style="stroke:#003366;stroke-width:1.0;" x1="790" x2="814" y1="624.4735" y2="624.4735"/><text fill="#000000" font-family="sans-serif" font-size="12" lengthAdjust="spacing" textLength="96" x="1115" y="83.8281">Base de donn&#233;es</text><path d="M1148,30 C1148,20 1166,20 1166,20 C1166,20 1184,20 1184,30 L1184,56 C1184,66 1166,66 1166,66 C1166,66 1148,66 1148,56 L1148,30 " fill="#F2F4F7" style="stroke:#003366;stroke-width:1.5;"/><path d="M1148,30 C1148,40 1166,40 1166,40 C1166,40 1184,40 1184,30 " fill="none" style="stroke:#003366;stroke-width:1.5;"/><text fill="#000000" font-family="sans-serif" font-size="12" lengthAdjust="spacing" textLength="96" x="1115" y="585.9575">Base de donn&#233;es</text><path d="M1148,604.4735 C1148,594.4735 1166,594.4735 1166,594.4735 C1166,594.4735 1184,594.4735 1184,604.4735 L1184,630.4735 C1184,640.4735 1166,640.4735 1166,640.4735 C1166,640.4735 1148,640.4735 1148,630.4735 L1148,604.4735 " fill="#F2F4F7" style="stroke:#003366;stroke-width:1.5;"/><path d="M1148,604.4735 C1148,614.4735 1166,614.4735 1166,614.4735 C1166,614.4735 1184,614.4735 1184,604.4735 " fill="none" style="stroke:#003366;stroke-width:1.5;"/><rect fill="#F2F4F7" height="335.7529" style="stroke:#003366;stroke-width:1.0;" width="10" x="604" y="175.0323"/><rect fill="#F2F4F7" height="255.0647" style="stroke:#003366;stroke-width:1.0;" width="10" x="797" y="215.3765"/><rect fill="#F2F4F7" height="40.3441" style="stroke:#003366;stroke-width:1.0;" width="10" x="1161" y="255.7206"/><rect fill="#F2F4F7" height="40.3441" style="stroke:#003366;stroke-width:1.0;" width="10" x="1161" y="389.7529"/><polygon fill="#003366" points="245,130.6882,255,134.6882,245,138.6882,249,134.6882" style="stroke:#003366;stroke-width:1.0;"/><line style="stroke:#003366;stroke-width:1.0;" x1="54" x2="251" y1="134.6882" y2="134.6882"/><text fill="#003366" font-family="sans-serif" font-size="12" lengthAdjust="spacing" textLength="147" x="66" y="124.1722">Saisit note et observations</text><polygon fill="#003366" points="592,171.0323,602,175.0323,592,179.0323,596,175.0323" style="stroke:#003366;stroke-width:1.0;"/><line style="stroke:#003366;stroke-width:1.0;" x1="257" x2="598" y1="175.0323" y2="175.0323"/><text fill="#003366" font-family="sans-serif" font-size="12" lengthAdjust="spacing" textLength="318" x="269" y="164.5163">POST /api/evaluations (note, observations, idSoutenance)</text><polygon fill="#003366" points="785,211.3765,795,215.3765,785,219.3765,789,215.3765" style="stroke:#003366;stroke-width:1.0;"/><line style="stroke:#003366;stroke-width:1.0;" x1="614" x2="791" y1="215.3765" y2="215.3765"/><text fill="#003366" font-family="sans-serif" font-size="12" lengthAdjust="spacing" textLength="154" x="626" y="204.8604">enregistrerEvaluation(data)</text><polygon fill="#003366" points="1149,251.7206,1159,255.7206,1149,259.7206,1153,255.7206" style="stroke:#003366;stroke-width:1.0;"/><line style="stroke:#003366;stroke-width:1.0;" x1="807" x2="1155" y1="255.7206" y2="255.7206"/><text fill="#003366" font-family="sans-serif" font-size="12" lengthAdjust="spacing" textLength="234" x="819" y="245.2045">Sauvegarder note individuelle du membre</text><polygon fill="#003366" points="818,292.0647,808,296.0647,818,300.0647,814,296.0647" style="stroke:#003366;stroke-width:1.0;"/><line style="stroke:#003366;stroke-width:1.0;stroke-dasharray:2.0,2.0;" x1="812" x2="1165" y1="296.0647" y2="296.0647"/><text fill="#003366" font-family="sans-serif" font-size="12" lengthAdjust="spacing" textLength="16" x="829" y="285.5487">OK</text><line style="stroke:#003366;stroke-width:1.0;" x1="807" x2="849" y1="336.4088" y2="336.4088"/><line style="stroke:#003366;stroke-width:1.0;" x1="849" x2="849" y1="336.4088" y2="349.4088"/><line style="stroke:#003366;stroke-width:1.0;" x1="808" x2="849" y1="349.4088" y2="349.4088"/><polygon fill="#003366" points="818,345.4088,808,349.4088,818,353.4088,814,349.4088" style="stroke:#003366;stroke-width:1.0;"/><text fill="#003366" font-family="sans-serif" font-size="12" lengthAdjust="spacing" textLength="206" x="819" y="325.8928">Recalculer moyenne provisoire (RG6)</text><polygon fill="#003366" points="1149,385.7529,1159,389.7529,1149,393.7529,1153,389.7529" style="stroke:#003366;stroke-width:1.0;"/><line style="stroke:#003366;stroke-width:1.0;" x1="807" x2="1155" y1="389.7529" y2="389.7529"/><text fill="#003366" font-family="sans-serif" font-size="12" lengthAdjust="spacing" textLength="325" x="819" y="379.2369">Mettre &#224; jour r&#233;sultat final si toutes les notes sont valid&#233;es</text><polygon fill="#003366" points="818,426.097,808,430.097,818,434.097,814,430.097" style="stroke:#003366;stroke-width:1.0;"/><line style="stroke:#003366;stroke-width:1.0;stroke-dasharray:2.0,2.0;" x1="812" x2="1165" y1="430.097" y2="430.097"/><text fill="#003366" font-family="sans-serif" font-size="12" lengthAdjust="spacing" textLength="16" x="829" y="419.581">OK</text><polygon fill="#003366" points="625,466.4411,615,470.4411,625,474.4411,621,470.4411" style="stroke:#003366;stroke-width:1.0;"/><line style="stroke:#003366;stroke-width:1.0;stroke-dasharray:2.0,2.0;" x1="619" x2="801" y1="470.4411" y2="470.4411"/><text fill="#003366" font-family="sans-serif" font-size="12" lengthAdjust="spacing" textLength="126" x="636" y="459.9251">&#201;valuation enregistr&#233;e</text><polygon fill="#003366" points="268,506.7853,258,510.7853,268,514.7853,264,510.7853" style="stroke:#003366;stroke-width:1.0;"/><line style="stroke:#003366;stroke-width:1.0;stroke-dasharray:2.0,2.0;" x1="262" x2="608" y1="510.7853" y2="510.7853"/><text fill="#003366" font-family="sans-serif" font-size="12" lengthAdjust="spacing" textLength="69" x="279" y="500.2692">201 Created</text><polygon fill="#003366" points="65,547.1294,55,551.1294,65,555.1294,61,551.1294" style="stroke:#003366;stroke-width:1.0;"/><line style="stroke:#003366;stroke-width:1.0;stroke-dasharray:2.0,2.0;" x1="59" x2="256" y1="551.1294" y2="551.1294"/><text fill="#003366" font-family="sans-serif" font-size="12" lengthAdjust="spacing" textLength="169" x="76" y="540.6133">Afficher r&#233;capitulatif et succ&#232;s</text><!--SRC=[dL91RXGn4Bpx5SsSDb92W0E7793O112WA2ZB1xnsJz9enexQxP7s2Vo28td7V8osTxFZm0rfPkIHgwgxkkk5tEE8yD0Zz1n7U6cCTH8PkciSjupm9VEk0vlgmMnZ3jxo3hhFGP1xwn3cdvCTiXMAeG8_SWnYd7uu3j1TxWy3ShrTVWq68L6f3qS-R90dSbYHXxFnLkpM9eHkNRvUdnZ2_8YfmgxMnfJUuEpTlZHSmCPI8e4G1G45uZQfLgsGp1wZuAKJPNoxsNo7S_j0vtZi9i6gA9m-uvy2-KtCWi46XoTbMgHNs1epZRGMEXZHAXWOxoW98o-cLyLW8_JasppnLE9gNLtb2UyiUvMjrYXuciXdr4hWCunrPOkIZaQ9PyzQkFbgFBQ8jim2kqLd1vUBWp7kC0JD2CU9KYGDnUhsqzkJV_gxHb5dCF-27p4pyFoOyY1MeATW1qW4KWQNOD2t64YGoYvq4kJBFl-xyx-tsKHocRbMQ0MEOswNrMJepQlNSCceKD_IsZKVegIa6i0BUD_tvEwnUdSQ9ic3Dj6N3ARitFmxcJy0]--></g></svg>