<?xml version="1.0" encoding="us-ascii" standalone="no"?><svg xmlns="http://www.w3.org/2000/svg" xmlns:xlink="http://www.w3.org/1999/xlink" contentStyleType="text/css" height="902px" preserveAspectRatio="none" style="width:1598px;height:902px;background:#FFFFFF;" version="1.1" viewBox="0 0 1598 902" width="1598px" zoomAndPan="magnify"><defs/><g><rect fill="#F2F4F7" height="577.8176" style="stroke:#003366;stroke-width:1.0;" width="10" x="751" y="175.0323"/><rect fill="#F2F4F7" height="497.1294" style="stroke:#003366;stroke-width:1.0;" width="10" x="998" y="215.3765"/><rect fill="#F2F4F7" height="174.3765" style="stroke:#003366;stroke-width:1.0;" width="10" x="1308" y="497.7853"/><rect fill="#F2F4F7" height="40.3441" style="stroke:#003366;stroke-width:1.0;" width="10" x="1541" y="255.7206"/><rect fill="#F2F4F7" height="40.3441" style="stroke:#003366;stroke-width:1.0;" width="10" x="1541" y="336.4088"/><rect fill="#F2F4F7" height="40.3441" style="stroke:#003366;stroke-width:1.0;" width="10" x="1541" y="417.097"/><rect fill="#F2F4F7" height="40.3441" style="stroke:#003366;stroke-width:1.0;" width="10" x="1541" y="538.1294"/><line style="stroke:#003366;stroke-width:1.0;stroke-dasharray:5.0,5.0;" x1="55" x2="55" y1="92.3441" y2="811.1941"/><line style="stroke:#003366;stroke-width:1.0;stroke-dasharray:5.0,5.0;" x1="376.5" x2="376.5" y1="92.3441" y2="811.1941"/><line style="stroke:#003366;stroke-width:1.0;stroke-dasharray:5.0,5.0;" x1="756" x2="756" y1="92.3441" y2="811.1941"/><line style="stroke:#003366;stroke-width:1.0;stroke-dasharray:5.0,5.0;" x1="1003" x2="1003" y1="92.3441" y2="811.1941"/><line style="stroke:#003366;stroke-width:1.0;stroke-dasharray:5.0,5.0;" x1="1313" x2="1313" y1="92.3441" y2="811.1941"/><line style="stroke:#003366;stroke-width:1.0;stroke-dasharray:5.0,5.0;" x1="1546" x2="1546" y1="92.3441" y2="811.1941"/><text fill="#000000" font-family="sans-serif" font-size="12" lengthAdjust="spacing" textLength="74" x="15" y="83.8281">Coordinateur</text><ellipse cx="55" cy="14" fill="#F2F4F7" rx="8" ry="8" style="stroke:#003366;stroke-width:1.0;"/><path d="M55,22 L55,49 M42,30 L68,30 M55,49 L42,64 M55,49 L68,64 " fill="none" style="stroke:#003366;stroke-width:1.0;"/><text fill="#000000" font-family="sans-serif" font-size="12" lengthAdjust="spacing" textLength="74" x="15" y="828.0221">Coordinateur</text><ellipse cx="55" cy="845.5382" fill="#F2F4F7" rx="8" ry="8" style="stroke:#003366;stroke-width:1.0;"/><path d="M55,853.5382 L55,880.5382 M42,861.5382 L68,861.5382 M55,880.5382 L42,895.5382 M55,880.5382 L68,895.5382 " fill="none" style="stroke:#003366;stroke-width:1.0;"/><text fill="#000000" font-family="sans-serif" font-size="12" lengthAdjust="spacing" textLength="91" x="328.5" y="83.8281">Tableau de bord</text><path d="M356.5,38 L356.5,62 M356.5,50 L373.5,50 " fill="none" style="stroke:#003366;stroke-width:1.0;"/><ellipse cx="385.5" cy="50" fill="#F2F4F7" rx="12" ry="12" style="stroke:#003366;stroke-width:1.0;"/><text fill="#000000" font-family="sans-serif" font-size="12" lengthAdjust="spacing" textLength="91" x="328.5" y="828.0221">Tableau de bord</text><path d="M356.5,840.5382 L356.5,864.5382 M356.5,852.5382 L373.5,852.5382 " fill="none" style="stroke:#003366;stroke-width:1.0;"/><ellipse cx="385.5" cy="852.5382" fill="#F2F4F7" rx="12" ry="12" style="stroke:#003366;stroke-width:1.0;"/><text fill="#000000" font-family="sans-serif" font-size="12" lengthAdjust="spacing" textLength="56" x="725" y="83.8281">Controller</text><ellipse cx="756" cy="50" fill="#F2F4F7" rx="12" ry="12" style="stroke:#003366;stroke-width:1.0;"/><polygon fill="#003366" points="752,38,758,33,756,38,758,43,752,38" style="stroke:#003366;stroke-width:1.0;"/><text fill="#000000" font-family="sans-serif" font-size="12" lengthAdjust="spacing" textLength="56" x="725" y="828.0221">Controller</text><ellipse cx="756" cy="852.5382" fill="#F2F4F7" rx="12" ry="12" style="stroke:#003366;stroke-width:1.0;"/><polygon fill="#003366" points="752,840.5382,758,835.5382,756,840.5382,758,845.5382,752,840.5382" style="stroke:#003366;stroke-width:1.0;"/><text fill="#000000" font-family="sans-serif" font-size="12" lengthAdjust="spacing" textLength="92" x="954" y="83.8281">Planning Service</text><ellipse cx="1003" cy="50" fill="#F2F4F7" rx="12" ry="12" style="stroke:#003366;stroke-width:1.0;"/><line style="stroke:#003366;stroke-width:1.0;" x1="991" x2="1015" y1="64" y2="64"/><text fill="#000000" font-family="sans-serif" font-size="12" lengthAdjust="spacing" textLength="92" x="954" y="828.0221">Planning Service</text><ellipse cx="1003" cy="852.5382" fill="#F2F4F7" rx="12" ry="12" style="stroke:#003366;stroke-width:1.0;"/><line style="stroke:#003366;stroke-width:1.0;" x1="991" x2="1015" y1="866.5382" y2="866.5382"/><text fill="#000000" font-family="sans-serif" font-size="12" lengthAdjust="spacing" textLength="108" x="1256" y="83.8281">Notification Service</text><ellipse cx="1313" cy="50" fill="#F2F4F7" rx="12" ry="12" style="stroke:#003366;stroke-width:1.0;"/><line style="stroke:#003366;stroke-width:1.0;" x1="1301" x2="1325" y1="64" y2="64"/><text fill="#000000" font-family="sans-serif" font-size="12" lengthAdjust="spacing" textLength="108" x="1256" y="828.0221">Notification Service</text><ellipse cx="1313" cy="852.5382" fill="#F2F4F7" rx="12" ry="12" style="stroke:#003366;stroke-width:1.0;"/><line style="stroke:#003366;stroke-width:1.0;" x1="1301" x2="1325" y1="866.5382" y2="866.5382"/><text fill="#000000" font-family="sans-serif" font-size="12" lengthAdjust="spacing" textLength="96" x="1495" y="83.8281">Base de donn&#233;es</text><path d="M1528,30 C1528,20 1546,20 1546,20 C1546,20 1564,20 1564,30 L1564,56 C1564,66 1546,66 1546,66 C1546,66 1528,66 1528,56 L1528,30 " fill="#F2F4F7" style="stroke:#003366;stroke-width:1.5;"/><path d="M1528,30 C1528,40 1546,40 1546,40 C1546,40 1564,40 1564,30 " fill="none" style="stroke:#003366;stroke-width:1.5;"/><text fill="#000000" font-family="sans-serif" font-size="12" lengthAdjust="spacing" textLength="96" x="1495" y="828.0221">Base de donn&#233;es</text><path d="M1528,846.5382 C1528,836.5382 1546,836.5382 1546,836.5382 C1546,836.5382 1564,836.5382 1564,846.5382 L1564,872.5382 C1564,882.5382 1546,882.5382 1546,882.5382 C1546,882.5382 1528,882.5382 1528,872.5382 L1528,846.5382 " fill="#F2F4F7" style="stroke:#003366;stroke-width:1.5;"/><path d="M1528,846.5382 C1528,856.5382 1546,856.5382 1546,856.5382 C1546,856.5382 1564,856.5382 1564,846.5382 " fill="none" style="stroke:#003366;stroke-width:1.5;"/><rect fill="#F2F4F7" height="577.8176" style="stroke:#003366;stroke-width:1.0;" width="10" x="751" y="175.0323"/><rect fill="#F2F4F7" height="497.1294" style="stroke:#003366;stroke-width:1.0;" width="10" x="998" y="215.3765"/><rect fill="#F2F4F7" height="174.3765" style="stroke:#003366;stroke-width:1.0;" width="10" x="1308" y="497.7853"/><rect fill="#F2F4F7" height="40.3441" style="stroke:#003366;stroke-width:1.0;" width="10" x="1541" y="255.7206"/><rect fill="#F2F4F7" height="40.3441" style="stroke:#003366;stroke-width:1.0;" width="10" x="1541" y="336.4088"/><rect fill="#F2F4F7" height="40.3441" style="stroke:#003366;stroke-width:1.0;" width="10" x="1541" y="417.097"/><rect fill="#F2F4F7" height="40.3441" style="stroke:#003366;stroke-width:1.0;" width="10" x="1541" y="538.1294"/><polygon fill="#003366" points="365,130.6882,375,134.6882,365,138.6882,369,134.6882" style="stroke:#003366;stroke-width:1.0;"/><line style="stroke:#003366;stroke-width:1.0;" x1="55" x2="371" y1="134.6882" y2="134.6882"/><text fill="#003366" font-family="sans-serif" font-size="12" lengthAdjust="spacing" textLength="159" x="67" y="124.1722">Clique sur "Valider planning"</text><polygon fill="#003366" points="739,171.0323,749,175.0323,739,179.0323,743,175.0323" style="stroke:#003366;stroke-width:1.0;"/><line style="stroke:#003366;stroke-width:1.0;" x1="377" x2="745" y1="175.0323" y2="175.0323"/><text fill="#003366" font-family="sans-serif" font-size="12" lengthAdjust="spacing" textLength="345" x="389" y="164.5163">POST /api/planning/validate-global-session (sessionGlobaleId)</text><polygon fill="#003366" points="986,211.3765,996,215.3765,986,219.3765,990,215.3765" style="stroke:#003366;stroke-width:1.0;"/><line style="stroke:#003366;stroke-width:1.0;" x1="761" x2="992" y1="215.3765" y2="215.3765"/><text fill="#003366" font-family="sans-serif" font-size="12" lengthAdjust="spacing" textLength="142" x="773" y="204.8604">validerSessionGlobale(id)</text><polygon fill="#003366" points="1529,251.7206,1539,255.7206,1529,259.7206,1533,255.7206" style="stroke:#003366;stroke-width:1.0;"/><line style="stroke:#003366;stroke-width:1.0;" x1="1008" x2="1535" y1="255.7206" y2="255.7206"/><text fill="#003366" font-family="sans-serif" font-size="12" lengthAdjust="spacing" textLength="224" x="1020" y="245.2045">V&#233;rifier conformit&#233; de la session globale</text><polygon fill="#003366" points="1019,292.0647,1009,296.0647,1019,300.0647,1015,296.0647" style="stroke:#003366;stroke-width:1.0;"/><line style="stroke:#003366;stroke-width:1.0;stroke-dasharray:2.0,2.0;" x1="1013" x2="1545" y1="296.0647" y2="296.0647"/><text fill="#003366" font-family="sans-serif" font-size="12" lengthAdjust="spacing" textLength="16" x="1030" y="285.5487">OK</text><polygon fill="#003366" points="1529,332.4088,1539,336.4088,1529,340.4088,1533,336.4088" style="stroke:#003366;stroke-width:1.0;"/><line style="stroke:#003366;stroke-width:1.0;" x1="1008" x2="1535" y1="336.4088" y2="336.4088"/><text fill="#003366" font-family="sans-serif" font-size="12" lengthAdjust="spacing" textLength="263" x="1020" y="325.8928">Mise &#224; jour statuts (PLANIFIEE -&gt; CONVOQUEE)</text><polygon fill="#003366" points="1019,372.7529,1009,376.7529,1019,380.7529,1015,376.7529" style="stroke:#003366;stroke-width:1.0;"/><line style="stroke:#003366;stroke-width:1.0;stroke-dasharray:2.0,2.0;" x1="1013" x2="1545" y1="376.7529" y2="376.7529"/><text fill="#003366" font-family="sans-serif" font-size="12" lengthAdjust="spacing" textLength="16" x="1030" y="366.2369">OK</text><polygon fill="#003366" points="1529,413.097,1539,417.097,1529,421.097,1533,417.097" style="stroke:#003366;stroke-width:1.0;"/><line style="stroke:#003366;stroke-width:1.0;" x1="1008" x2="1535" y1="417.097" y2="417.097"/><text fill="#003366" font-family="sans-serif" font-size="12" lengthAdjust="spacing" textLength="124" x="1020" y="406.581">Cl&#244;turer modifications</text><polygon fill="#003366" points="1019,453.4411,1009,457.4411,1019,461.4411,1015,457.4411" style="stroke:#003366;stroke-width:1.0;"/><line style="stroke:#003366;stroke-width:1.0;stroke-dasharray:2.0,2.0;" x1="1013" x2="1545" y1="457.4411" y2="457.4411"/><text fill="#003366" font-family="sans-serif" font-size="12" lengthAdjust="spacing" textLength="16" x="1030" y="446.9251">OK</text><polygon fill="#003366" points="1296,493.7853,1306,497.7853,1296,501.7853,1300,497.7853" style="stroke:#003366;stroke-width:1.0;"/><line style="stroke:#003366;stroke-width:1.0;" x1="1008" x2="1302" y1="497.7853" y2="497.7853"/><text fill="#003366" font-family="sans-serif" font-size="12" lengthAdjust="spacing" textLength="271" x="1020" y="487.2692">envoyerNotificationsMassives(sessionGlobaleId)</text><polygon fill="#003366" points="1529,534.1294,1539,538.1294,1529,542.1294,1533,538.1294" style="stroke:#003366;stroke-width:1.0;"/><line style="stroke:#003366;stroke-width:1.0;" x1="1318" x2="1535" y1="538.1294" y2="538.1294"/><text fill="#003366" font-family="sans-serif" font-size="12" lengthAdjust="spacing" textLength="194" x="1330" y="527.6133">R&#233;cup&#233;rer emails (&#201;tudiants, Jurys)</text><polygon fill="#003366" points="1329,574.4735,1319,578.4735,1329,582.4735,1325,578.4735" style="stroke:#003366;stroke-width:1.0;"/><line style="stroke:#003366;stroke-width:1.0;stroke-dasharray:2.0,2.0;" x1="1323" x2="1545" y1="578.4735" y2="578.4735"/><text fill="#003366" font-family="sans-serif" font-size="12" lengthAdjust="spacing" textLength="66" x="1340" y="567.9575">Liste emails</text><line style="stroke:#003366;stroke-width:1.0;" x1="1318" x2="1360" y1="618.8176" y2="618.8176"/><line style="stroke:#003366;stroke-width:1.0;" x1="1360" x2="1360" y1="618.8176" y2="631.8176"/><line style="stroke:#003366;stroke-width:1.0;" x1="1319" x2="1360" y1="631.8176" y2="631.8176"/><polygon fill="#003366" points="1329,627.8176,1319,631.8176,1329,635.8176,1325,631.8176" style="stroke:#003366;stroke-width:1.0;"/><text fill="#003366" font-family="sans-serif" font-size="12" lengthAdjust="spacing" textLength="74" x="1330" y="608.3016">Envoi e-mails</text><polygon fill="#003366" points="1019,668.1617,1009,672.1617,1019,676.1617,1015,672.1617" style="stroke:#003366;stroke-width:1.0;"/><line style="stroke:#003366;stroke-width:1.0;stroke-dasharray:2.0,2.0;" x1="1013" x2="1312" y1="672.1617" y2="672.1617"/><text fill="#003366" font-family="sans-serif" font-size="12" lengthAdjust="spacing" textLength="126" x="1030" y="661.6457">Notifications envoy&#233;es</text><polygon fill="#003366" points="772,708.5058,762,712.5058,772,716.5058,768,712.5058" style="stroke:#003366;stroke-width:1.0;"/><line style="stroke:#003366;stroke-width:1.0;stroke-dasharray:2.0,2.0;" x1="766" x2="1002" y1="712.5058" y2="712.5058"/><text fill="#003366" font-family="sans-serif" font-size="12" lengthAdjust="spacing" textLength="203" x="783" y="701.9898">Planning de la session globale valid&#233;</text><polygon fill="#003366" points="388,748.8499,378,752.8499,388,756.8499,384,752.8499" style="stroke:#003366;stroke-width:1.0;"/><line style="stroke:#003366;stroke-width:1.0;stroke-dasharray:2.0,2.0;" x1="382" x2="755" y1="752.8499" y2="752.8499"/><text fill="#003366" font-family="sans-serif" font-size="12" lengthAdjust="spacing" textLength="40" x="399" y="742.3339">200 OK</text><polygon fill="#003366" points="66,789.1941,56,793.1941,66,797.1941,62,793.1941" style="stroke:#003366;stroke-width:1.0;"/><line style="stroke:#003366;stroke-width:1.0;stroke-dasharray:2.0,2.0;" x1="60" x2="376" y1="793.1941" y2="793.1941"/><text fill="#003366" font-family="sans-serif" font-size="12" lengthAdjust="spacing" textLength="288" x="77" y="782.678">Afficher succ&#232;s et verrouillage de la session globale</text><!--SRC=[fLDBRjim4Dtp55Ej7A2gWowpA10xIk4siTqwzPwIHWuBYdJv4U0Zz1PTLllUG1Vhw6ifIRl9Hg38Ds_Ul9bvununHpXc29dHERnZZ2TE6mYMMfjKAExGcm2uXUQ2nTghb9iJ10yybiWzf0WnlJIOMwELOmbzZ9OrHtEGs3FqlmoL4uv8jf8h9TG1TcWAaM23wyu3QAsTo4J2dT1g0cmUJYpbZiVS8WIB-ak2KgrKLQ9jK3SBnXhn47ve5S8LBANuuH6ifrBtN8eK3HmxCG5hKGG_IwQOxMRt07D-5FCUEI_gKF8eF4WTSnbQjBPMEUiE7vjhNAKNjQ-Y8EZO1ZRYfsnTRPIgQ2Nj9YmpCQRfNM9z517SB2XsNvM6_29AQaIcJIvSLTQkI0wzlbOkdjd890eE9o8sdrcAOyIpLFU2_Av-mNTDFbh7dNSMPjkxw_NgTXL5ZOERzNxpvLiKNRmssL9MVvmtL5Ukqs4Wx2jes_aX5Af2dz2C1ytUSxAgGFk_LdO3sF7qGhzMPUAFr0MIYZaNaZofVZgV2gwSVGkVl3dP5-qO1Dq9Imzjy9C2pia6T4Jo1M3OvXeG4oCcjRK5rnio9k-gEJlqR07wRNrncDgXhSenvJ2auq4VhU7xoyidBHflHxU6ZOnwVw_WEgCQ7ed4-YIfVbCX3WeqHdiX9J_WFyRyBm00]--></g></svg>