<?xml version="1.0" encoding="us-ascii" standalone="no"?><svg xmlns="http://www.w3.org/2000/svg" xmlns:xlink="http://www.w3.org/1999/xlink" contentStyleType="text/css" height="1199px" preserveAspectRatio="none" style="width:1312px;height:1199px;background:#FFFFFF;" version="1.1" viewBox="0 0 1312 1199" width="1312px" zoomAndPan="magnify"><defs/><g><rect fill="#F2F4F7" height="867.9146" style="stroke:#003366;stroke-width:1.0;" width="10" x="547" y="175.0323"/><rect fill="#F2F4F7" height="787.2264" style="stroke:#003366;stroke-width:1.0;" width="10" x="714" y="215.3765"/><rect fill="#F2F4F7" height="121.0323" style="stroke:#003366;stroke-width:1.0;" width="10" x="719" y="732.1941"/><rect fill="#F2F4F7" height="121.0323" style="stroke:#003366;stroke-width:1.0;" width="10" x="1025" y="355.7529"/><rect fill="#F2F4F7" height="40.3441" style="stroke:#003366;stroke-width:1.0;" width="10" x="1234" y="396.097"/><rect fill="#F2F4F7" height="40.3441" style="stroke:#003366;stroke-width:1.0;" width="10" x="1234" y="772.5382"/><rect fill="none" height="201.0647" rx="2.5" ry="2.5" style="stroke:#003366;stroke-width:1.0;" width="636.5" x="668.5" y="283.7206"/><rect fill="none" height="592.5058" rx="2.5" ry="2.5" style="stroke:#003366;stroke-width:1.0;" width="1290" x="15" y="498.7853"/><line style="stroke:#003366;stroke-width:1.0;stroke-dasharray:5.0,5.0;" x1="70" x2="70" y1="92.3441" y2="1108.2911"/><line style="stroke:#003366;stroke-width:1.0;stroke-dasharray:5.0,5.0;" x1="321.5" x2="321.5" y1="92.3441" y2="1108.2911"/><line style="stroke:#003366;stroke-width:1.0;stroke-dasharray:5.0,5.0;" x1="552" x2="552" y1="92.3441" y2="1108.2911"/><line style="stroke:#003366;stroke-width:1.0;stroke-dasharray:5.0,5.0;" x1="718.5" x2="718.5" y1="92.3441" y2="1108.2911"/><line style="stroke:#003366;stroke-width:1.0;stroke-dasharray:5.0,5.0;" x1="1030" x2="1030" y1="92.3441" y2="1108.2911"/><line style="stroke:#003366;stroke-width:1.0;stroke-dasharray:5.0,5.0;" x1="1239" x2="1239" y1="92.3441" y2="1108.2911"/><text fill="#000000" font-family="sans-serif" font-size="12" lengthAdjust="spacing" textLength="74" x="30" y="83.8281">Coordinateur</text><ellipse cx="70" cy="14" fill="#F2F4F7" rx="8" ry="8" style="stroke:#003366;stroke-width:1.0;"/><path d="M70,22 L70,49 M57,30 L83,30 M70,49 L57,64 M70,49 L83,64 " fill="none" style="stroke:#003366;stroke-width:1.0;"/><text fill="#000000" font-family="sans-serif" font-size="12" lengthAdjust="spacing" textLength="74" x="30" y="1125.1192">Coordinateur</text><ellipse cx="70" cy="1142.6352" fill="#F2F4F7" rx="8" ry="8" style="stroke:#003366;stroke-width:1.0;"/><path d="M70,1150.6352 L70,1177.6352 M57,1158.6352 L83,1158.6352 M70,1177.6352 L57,1192.6352 M70,1177.6352 L83,1192.6352 " fill="none" style="stroke:#003366;stroke-width:1.0;"/><text fill="#000000" font-family="sans-serif" font-size="12" lengthAdjust="spacing" textLength="75" x="281.5" y="83.8281">Interface Jury</text><path d="M301.5,38 L301.5,62 M301.5,50 L318.5,50 " fill="none" style="stroke:#003366;stroke-width:1.0;"/><ellipse cx="330.5" cy="50" fill="#F2F4F7" rx="12" ry="12" style="stroke:#003366;stroke-width:1.0;"/><text fill="#000000" font-family="sans-serif" font-size="12" lengthAdjust="spacing" textLength="75" x="281.5" y="1125.1192">Interface Jury</text><path d="M301.5,1137.6352 L301.5,1161.6352 M301.5,1149.6352 L318.5,1149.6352 " fill="none" style="stroke:#003366;stroke-width:1.0;"/><ellipse cx="330.5" cy="1149.6352" fill="#F2F4F7" rx="12" ry="12" style="stroke:#003366;stroke-width:1.0;"/><text fill="#000000" font-family="sans-serif" font-size="12" lengthAdjust="spacing" textLength="56" x="521" y="83.8281">Controller</text><ellipse cx="552" cy="50" fill="#F2F4F7" rx="12" ry="12" style="stroke:#003366;stroke-width:1.0;"/><polygon fill="#003366" points="548,38,554,33,552,38,554,43,548,38" style="stroke:#003366;stroke-width:1.0;"/><text fill="#000000" font-family="sans-serif" font-size="12" lengthAdjust="spacing" textLength="56" x="521" y="1125.1192">Controller</text><ellipse cx="552" cy="1149.6352" fill="#F2F4F7" rx="12" ry="12" style="stroke:#003366;stroke-width:1.0;"/><polygon fill="#003366" points="548,1137.6352,554,1132.6352,552,1137.6352,554,1142.6352,548,1137.6352" style="stroke:#003366;stroke-width:1.0;"/><text fill="#000000" font-family="sans-serif" font-size="12" lengthAdjust="spacing" textLength="65" x="683.5" y="83.8281">Jury Service</text><ellipse cx="719" cy="50" fill="#F2F4F7" rx="12" ry="12" style="stroke:#003366;stroke-width:1.0;"/><line style="stroke:#003366;stroke-width:1.0;" x1="707" x2="731" y1="64" y2="64"/><text fill="#000000" font-family="sans-serif" font-size="12" lengthAdjust="spacing" textLength="65" x="683.5" y="1125.1192">Jury Service</text><ellipse cx="719" cy="1149.6352" fill="#F2F4F7" rx="12" ry="12" style="stroke:#003366;stroke-width:1.0;"/><line style="stroke:#003366;stroke-width:1.0;" x1="707" x2="731" y1="1163.6352" y2="1163.6352"/><text fill="#000000" font-family="sans-serif" font-size="12" lengthAdjust="spacing" textLength="86" x="984" y="83.8281">Conflict Service</text><ellipse cx="1030" cy="50" fill="#F2F4F7" rx="12" ry="12" style="stroke:#003366;stroke-width:1.0;"/><line style="stroke:#003366;stroke-width:1.0;" x1="1018" x2="1042" y1="64" y2="64"/><text fill="#000000" font-family="sans-serif" font-size="12" lengthAdjust="spacing" textLength="86" x="984" y="1125.1192">Conflict Service</text><ellipse cx="1030" cy="1149.6352" fill="#F2F4F7" rx="12" ry="12" style="stroke:#003366;stroke-width:1.0;"/><line style="stroke:#003366;stroke-width:1.0;" x1="1018" x2="1042" y1="1163.6352" y2="1163.6352"/><text fill="#000000" font-family="sans-serif" font-size="12" lengthAdjust="spacing" textLength="96" x="1188" y="83.8281">Base de donn&#233;es</text><path d="M1221,30 C1221,20 1239,20 1239,20 C1239,20 1257,20 1257,30 L1257,56 C1257,66 1239,66 1239,66 C1239,66 1221,66 1221,56 L1221,30 " fill="#F2F4F7" style="stroke:#003366;stroke-width:1.5;"/><path d="M1221,30 C1221,40 1239,40 1239,40 C1239,40 1257,40 1257,30 " fill="none" style="stroke:#003366;stroke-width:1.5;"/><text fill="#000000" font-family="sans-serif" font-size="12" lengthAdjust="spacing" textLength="96" x="1188" y="1125.1192">Base de donn&#233;es</text><path d="M1221,1143.6352 C1221,1133.6352 1239,1133.6352 1239,1133.6352 C1239,1133.6352 1257,1133.6352 1257,1143.6352 L1257,1169.6352 C1257,1179.6352 1239,1179.6352 1239,1179.6352 C1239,1179.6352 1221,1179.6352 1221,1169.6352 L1221,1143.6352 " fill="#F2F4F7" style="stroke:#003366;stroke-width:1.5;"/><path d="M1221,1143.6352 C1221,1153.6352 1239,1153.6352 1239,1153.6352 C1239,1153.6352 1257,1153.6352 1257,1143.6352 " fill="none" style="stroke:#003366;stroke-width:1.5;"/><rect fill="#F2F4F7" height="867.9146" style="stroke:#003366;stroke-width:1.0;" width="10" x="547" y="175.0323"/><rect fill="#F2F4F7" height="787.2264" style="stroke:#003366;stroke-width:1.0;" width="10" x="714" y="215.3765"/><rect fill="#F2F4F7" height="121.0323" style="stroke:#003366;stroke-width:1.0;" width="10" x="719" y="732.1941"/><rect fill="#F2F4F7" height="121.0323" style="stroke:#003366;stroke-width:1.0;" width="10" x="1025" y="355.7529"/><rect fill="#F2F4F7" height="40.3441" style="stroke:#003366;stroke-width:1.0;" width="10" x="1234" y="396.097"/><rect fill="#F2F4F7" height="40.3441" style="stroke:#003366;stroke-width:1.0;" width="10" x="1234" y="772.5382"/><polygon fill="#003366" points="310,130.6882,320,134.6882,310,138.6882,314,134.6882" style="stroke:#003366;stroke-width:1.0;"/><line style="stroke:#003366;stroke-width:1.0;" x1="70" x2="316" y1="134.6882" y2="134.6882"/><text fill="#003366" font-family="sans-serif" font-size="12" lengthAdjust="spacing" textLength="218" x="82" y="124.1722">S&#233;lectionne soutenance et enseignants</text><polygon fill="#003366" points="535,171.0323,545,175.0323,535,179.0323,539,175.0323" style="stroke:#003366;stroke-width:1.0;"/><line style="stroke:#003366;stroke-width:1.0;" x1="322" x2="541" y1="175.0323" y2="175.0323"/><text fill="#003366" font-family="sans-serif" font-size="12" lengthAdjust="spacing" textLength="196" x="334" y="164.5163">POST /api/jury/validate-assignment</text><polygon fill="#003366" points="702,211.3765,712,215.3765,702,219.3765,706,215.3765" style="stroke:#003366;stroke-width:1.0;"/><line style="stroke:#003366;stroke-width:1.0;" x1="557" x2="708" y1="215.3765" y2="215.3765"/><text fill="#003366" font-family="sans-serif" font-size="12" lengthAdjust="spacing" textLength="128" x="569" y="204.8604">validerAffectation(jury)</text><line style="stroke:#003366;stroke-width:1.0;" x1="724" x2="766" y1="255.7206" y2="255.7206"/><line style="stroke:#003366;stroke-width:1.0;" x1="766" x2="766" y1="255.7206" y2="268.7206"/><line style="stroke:#003366;stroke-width:1.0;" x1="725" x2="766" y1="268.7206" y2="268.7206"/><polygon fill="#003366" points="735,264.7206,725,268.7206,735,272.7206,731,268.7206" style="stroke:#003366;stroke-width:1.0;"/><text fill="#003366" font-family="sans-serif" font-size="12" lengthAdjust="spacing" textLength="204" x="736" y="245.2045">V&#233;rifier RG5 (Encadrant != Pr&#233;sident)</text><path d="M671,283.7206 L749.5,283.7206 L749.5,302.0647 L739.5,312.0647 L668.5,312.0647 L668.5,286.2206 A2.5,2.5 0 0 1 671,283.7206 " fill="#F2F4F7" style="stroke:#003366;stroke-width:1.0;"/><rect fill="none" height="201.0647" rx="2.5" ry="2.5" style="stroke:#003366;stroke-width:1.0;" width="636.5" x="668.5" y="283.7206"/><text fill="#000000" font-family="sans-serif" font-size="12" font-weight="bold" lengthAdjust="spacing" textLength="26" x="688.5" y="302.5487">loop</text><text fill="#003366" font-family="sans-serif" font-size="12" font-weight="bold" lengthAdjust="spacing" textLength="226" x="769.5" y="303.5487">[pour chaque enseignant s&#233;lectionn&#233;]</text><polygon fill="#003366" points="1013,351.7529,1023,355.7529,1013,359.7529,1017,355.7529" style="stroke:#003366;stroke-width:1.0;"/><line style="stroke:#003366;stroke-width:1.0;" x1="724" x2="1019" y1="355.7529" y2="355.7529"/><text fill="#003366" font-family="sans-serif" font-size="12" lengthAdjust="spacing" textLength="272" x="736" y="345.2369">v&#233;rifierDisponibilit&#233;Enseignant(prof, date, heure)</text><polygon fill="#003366" points="1222,392.097,1232,396.097,1222,400.097,1226,396.097" style="stroke:#003366;stroke-width:1.0;"/><line style="stroke:#003366;stroke-width:1.0;" x1="1035" x2="1228" y1="396.097" y2="396.097"/><text fill="#003366" font-family="sans-serif" font-size="12" lengthAdjust="spacing" textLength="170" x="1047" y="385.581">Consulter planning enseignant</text><polygon fill="#003366" points="1046,432.4411,1036,436.4411,1046,440.4411,1042,436.4411" style="stroke:#003366;stroke-width:1.0;"/><line style="stroke:#003366;stroke-width:1.0;stroke-dasharray:2.0,2.0;" x1="1040" x2="1238" y1="436.4411" y2="436.4411"/><text fill="#003366" font-family="sans-serif" font-size="12" lengthAdjust="spacing" textLength="51" x="1057" y="425.9251">R&#233;sultats</text><polygon fill="#003366" points="735,472.7853,725,476.7853,735,480.7853,731,476.7853" style="stroke:#003366;stroke-width:1.0;"/><line style="stroke:#003366;stroke-width:1.0;stroke-dasharray:2.0,2.0;" x1="729" x2="1029" y1="476.7853" y2="476.7853"/><text fill="#003366" font-family="sans-serif" font-size="12" lengthAdjust="spacing" textLength="120" x="746" y="466.2692">Status (Libre/Occup&#233;)</text><path d="M17.5,498.7853 L86,498.7853 L86,517.1294 L76,527.1294 L15,527.1294 L15,501.2853 A2.5,2.5 0 0 1 17.5,498.7853 " fill="#F2F4F7" style="stroke:#003366;stroke-width:1.0;"/><rect fill="none" height="592.5058" rx="2.5" ry="2.5" style="stroke:#003366;stroke-width:1.0;" width="1290" x="15" y="498.7853"/><text fill="#000000" font-family="sans-serif" font-size="12" font-weight="bold" lengthAdjust="spacing" textLength="16" x="35" y="517.6133">alt</text><text fill="#003366" font-family="sans-serif" font-size="12" font-weight="bold" lengthAdjust="spacing" textLength="209" x="106" y="518.6133">[Non conflicts et r&#232;gles respect&#233;es]</text><polygon fill="#003366" points="568,566.8176,558,570.8176,568,574.8176,564,570.8176" style="stroke:#003366;stroke-width:1.0;"/><line style="stroke:#003366;stroke-width:1.0;stroke-dasharray:2.0,2.0;" x1="562" x2="713" y1="570.8176" y2="570.8176"/><text fill="#003366" font-family="sans-serif" font-size="12" lengthAdjust="spacing" textLength="34" x="579" y="560.3016">Valid&#233;</text><polygon fill="#003366" points="333,607.1617,323,611.1617,333,615.1617,329,611.1617" style="stroke:#003366;stroke-width:1.0;"/><line style="stroke:#003366;stroke-width:1.0;stroke-dasharray:2.0,2.0;" x1="327" x2="546" y1="611.1617" y2="611.1617"/><text fill="#003366" font-family="sans-serif" font-size="12" lengthAdjust="spacing" textLength="74" x="344" y="600.6457">200 OK (Pr&#234;t)</text><polygon fill="#003366" points="310,647.5058,320,651.5058,310,655.5058,314,651.5058" style="stroke:#003366;stroke-width:1.0;"/><line style="stroke:#003366;stroke-width:1.0;" x1="70" x2="316" y1="651.5058" y2="651.5058"/><text fill="#003366" font-family="sans-serif" font-size="12" lengthAdjust="spacing" textLength="108" x="82" y="640.9898">Valider l'affectation</text><polygon fill="#003366" points="535,687.8499,545,691.8499,535,695.8499,539,691.8499" style="stroke:#003366;stroke-width:1.0;"/><line style="stroke:#003366;stroke-width:1.0;" x1="322" x2="541" y1="691.8499" y2="691.8499"/><text fill="#003366" font-family="sans-serif" font-size="12" lengthAdjust="spacing" textLength="119" x="334" y="681.3339">POST /api/jury/assign</text><polygon fill="#003366" points="707,728.1941,717,732.1941,707,736.1941,711,732.1941" style="stroke:#003366;stroke-width:1.0;"/><line style="stroke:#003366;stroke-width:1.0;" x1="557" x2="713" y1="732.1941" y2="732.1941"/><text fill="#003366" font-family="sans-serif" font-size="12" lengthAdjust="spacing" textLength="73" x="569" y="721.678">affecter(jury)</text><polygon fill="#003366" points="1222,768.5382,1232,772.5382,1222,776.5382,1226,772.5382" style="stroke:#003366;stroke-width:1.0;"/><line style="stroke:#003366;stroke-width:1.0;" x1="729" x2="1228" y1="772.5382" y2="772.5382"/><text fill="#003366" font-family="sans-serif" font-size="12" lengthAdjust="spacing" textLength="184" x="741" y="762.0221">Sauvegarder composition du jury</text><polygon fill="#003366" points="740,808.8823,730,812.8823,740,816.8823,736,812.8823" style="stroke:#003366;stroke-width:1.0;"/><line style="stroke:#003366;stroke-width:1.0;stroke-dasharray:2.0,2.0;" x1="734" x2="1238" y1="812.8823" y2="812.8823"/><text fill="#003366" font-family="sans-serif" font-size="12" lengthAdjust="spacing" textLength="16" x="751" y="802.3663">OK</text><polygon fill="#003366" points="568,849.2264,558,853.2264,568,857.2264,564,853.2264" style="stroke:#003366;stroke-width:1.0;"/><line style="stroke:#003366;stroke-width:1.0;stroke-dasharray:2.0,2.0;" x1="562" x2="713" y1="853.2264" y2="853.2264"/><text fill="#003366" font-family="sans-serif" font-size="12" lengthAdjust="spacing" textLength="40" x="579" y="842.7104">200 OK</text><polygon fill="#003366" points="333,889.5705,323,893.5705,333,897.5705,329,893.5705" style="stroke:#003366;stroke-width:1.0;"/><line style="stroke:#003366;stroke-width:1.0;stroke-dasharray:2.0,2.0;" x1="327" x2="546" y1="893.5705" y2="893.5705"/><text fill="#003366" font-family="sans-serif" font-size="12" lengthAdjust="spacing" textLength="40" x="344" y="883.0545">200 OK</text><polygon fill="#003366" points="81,929.9146,71,933.9146,81,937.9146,77,933.9146" style="stroke:#003366;stroke-width:1.0;"/><line style="stroke:#003366;stroke-width:1.0;stroke-dasharray:2.0,2.0;" x1="75" x2="321" y1="933.9146" y2="933.9146"/><text fill="#003366" font-family="sans-serif" font-size="12" lengthAdjust="spacing" textLength="118" x="92" y="923.3986">Afficher confirmation</text><line style="stroke:#003366;stroke-width:1.0;stroke-dasharray:2.0,2.0;" x1="15" x2="1305" y1="942.9146" y2="942.9146"/><text fill="#003366" font-family="sans-serif" font-size="12" font-weight="bold" lengthAdjust="spacing" textLength="206" x="25" y="960.7427">[Conflits ou r&#232;gles non respect&#233;es]</text><polygon fill="#003366" points="568,998.6029,558,1002.6029,568,1006.6029,564,1002.6029" style="stroke:#003366;stroke-width:1.0;"/><line style="stroke:#003366;stroke-width:1.0;stroke-dasharray:2.0,2.0;" x1="562" x2="718" y1="1002.6029" y2="1002.6029"/><text fill="#003366" font-family="sans-serif" font-size="12" lengthAdjust="spacing" textLength="36" x="579" y="992.0868">Erreur</text><polygon fill="#003366" points="333,1038.947,323,1042.947,333,1046.947,329,1042.947" style="stroke:#003366;stroke-width:1.0;"/><line style="stroke:#003366;stroke-width:1.0;stroke-dasharray:2.0,2.0;" x1="327" x2="551" y1="1042.947" y2="1042.947"/><text fill="#003366" font-family="sans-serif" font-size="12" lengthAdjust="spacing" textLength="170" x="344" y="1032.4309">400 Bad Request / 409 Conflict</text><polygon fill="#003366" points="81,1079.2911,71,1083.2911,81,1087.2911,77,1083.2911" style="stroke:#003366;stroke-width:1.0;"/><line style="stroke:#003366;stroke-width:1.0;stroke-dasharray:2.0,2.0;" x1="75" x2="321" y1="1083.2911" y2="1083.2911"/><text fill="#003366" font-family="sans-serif" font-size="12" lengthAdjust="spacing" textLength="89" x="92" y="1072.7751">Afficher erreurs</text><!--SRC=[dLJRRXCn47ttLqppGYArf4BmG2MG20a8YaYLeBmxtjd4oB4NsnkfVyJo6_jZ7NllYregecYr7iqSdpbpPY_y4Ky8MOgGMdE2bunnuOs5oKTZR28rzvZR2N07CS3s9jS9j_Sm-Q8zsfGBXA-vlOyfdwpHdWbwMAC2H7nHs00qHuRQIqyOeHAsQCzIOCoftzi4gacL57wGr0HPmZtVSuSmMOHdGd-ZTLcWYtdB1MEHDLozhxZ13MpBGg7maX8HdCazQgwf2VI0sg4yqD4xLgLJNSUQYk_MsnymvvcS_oJcypDNaZZW5NUE2a_4EiWdpnJhjyjw80HPzq9u4G3jXpGbIZoGcWRWMOVI2CAQea7zhYoiJ2N1RZw_WUbA2vvOuWyNx-3EbeKZTErdZ2bZCiXCRa4S-QySUxs2wnGf2mRqwztL3e38DfSjfSkCbdkff2-BLOiqpQn9Bo4eSWb7yWtE8bnVacfm8TeYqotB1U5JmEMAJ0MPubfBVUYn70BHPCEPogw673VKCs5mcc18I71Sqjqw479B9Rc3wJUvjpXV2v5dPJ4ROxJyKIUqACh3TwD1r54NF6JBtmU53YowZ4GDNXnAEhRKBbYWrhrlavvbNrrVm_eMfZJHFtvMPuvilQkS1Ee5xymKKv_bvCh0Vv7eIrJXegqTEfX7uzAHUU9Ojpm_uu7Rm4wOKsQS3DmWoI4WFJNOxlBrxIFpV5JNIhHnLP_eashtfOlGGUyRe4sLuXWxqQcqfqfcLAun1xd0vAqBDFNvR2UihAMT-G_6hudnWYUmGTfivs5EaRV3PHkQkFak_QD7Z8HSTFi3]--></g></svg>