<?xml version="1.0" encoding="us-ascii" standalone="no"?><svg xmlns="http://www.w3.org/2000/svg" xmlns:xlink="http://www.w3.org/1999/xlink" contentStyleType="text/css" height="1128px" preserveAspectRatio="none" style="width:550px;height:1128px;background:#FFFFFF;" version="1.1" viewBox="0 0 550 1128" width="550px" zoomAndPan="magnify"><defs/><g><ellipse cx="412.91" cy="21" fill="#003366" rx="10" ry="10" style="stroke:#003366;stroke-width:1.0;"/><g id="CREEE"><rect fill="#F2F4F7" height="56.3441" rx="2.5" ry="2.5" style="stroke:#003366;stroke-width:1.0;" width="66" x="379.91" y="119"/><line style="stroke:#003366;stroke-width:1.0;" x1="379.91" x2="445.91" y1="155.3441" y2="155.3441"/><text fill="#000000" font-family="sans-serif" font-size="12" lengthAdjust="spacing" textLength="36" x="394.91" y="141.8281">CREEE</text></g><g id="PLANIFIEE"><rect fill="#F2F4F7" height="56.3441" rx="2.5" ry="2.5" style="stroke:#003366;stroke-width:1.0;" width="88" x="368.91" y="263"/><line style="stroke:#003366;stroke-width:1.0;" x1="368.91" x2="456.91" y1="299.3441" y2="299.3441"/><text fill="#000000" font-family="sans-serif" font-size="12" lengthAdjust="spacing" textLength="58" x="383.91" y="285.8281">PLANIFIEE</text></g><g id="JURY_AFFECTE"><rect fill="#F2F4F7" height="56.3441" rx="2.5" ry="2.5" style="stroke:#003366;stroke-width:1.0;" width="110" x="254.91" y="407"/><line style="stroke:#003366;stroke-width:1.0;" x1="254.91" x2="364.91" y1="443.3441" y2="443.3441"/><text fill="#000000" font-family="sans-serif" font-size="12" lengthAdjust="spacing" textLength="80" x="269.91" y="429.8281">JURY_AFFECTE</text></g><g id="CONVOQUEE"><rect fill="#F2F4F7" height="56.3441" rx="2.5" ry="2.5" style="stroke:#003366;stroke-width:1.0;" width="104" x="251.91" y="551"/><line style="stroke:#003366;stroke-width:1.0;" x1="251.91" x2="355.91" y1="587.3441" y2="587.3441"/><text fill="#000000" font-family="sans-serif" font-size="12" lengthAdjust="spacing" textLength="74" x="266.91" y="573.8281">CONVOQUEE</text></g><g id="EN_COURS"><rect fill="#F2F4F7" height="56.3441" rx="2.5" ry="2.5" style="stroke:#003366;stroke-width:1.0;" width="91" x="110.41" y="695"/><line style="stroke:#003366;stroke-width:1.0;" x1="110.41" x2="201.41" y1="731.3441" y2="731.3441"/><text fill="#000000" font-family="sans-serif" font-size="12" lengthAdjust="spacing" textLength="61" x="125.41" y="717.8281">EN_COURS</text></g><g id="EVALUEE"><rect fill="#F2F4F7" height="56.3441" rx="2.5" ry="2.5" style="stroke:#003366;stroke-width:1.0;" width="81" x="97.41" y="839"/><line style="stroke:#003366;stroke-width:1.0;" x1="97.41" x2="178.41" y1="875.3441" y2="875.3441"/><text fill="#000000" font-family="sans-serif" font-size="12" lengthAdjust="spacing" textLength="51" x="112.41" y="861.8281">EVALUEE</text></g><g id="CLOTUREE"><rect fill="#F2F4F7" height="56.3441" rx="2.5" ry="2.5" style="stroke:#003366;stroke-width:1.0;" width="90" x="76.91" y="983"/><line style="stroke:#003366;stroke-width:1.0;" x1="76.91" x2="166.91" y1="1019.3441" y2="1019.3441"/><text fill="#000000" font-family="sans-serif" font-size="12" lengthAdjust="spacing" textLength="60" x="91.91" y="1005.8281">CLOTUREE</text></g><g id="ANNULEE"><rect fill="#F2F4F7" height="56.3441" rx="2.5" ry="2.5" style="stroke:#003366;stroke-width:1.0;" width="85" x="224.41" y="983"/><line style="stroke:#003366;stroke-width:1.0;" x1="224.41" x2="309.41" y1="1019.3441" y2="1019.3441"/><text fill="#000000" font-family="sans-serif" font-size="12" lengthAdjust="spacing" textLength="55" x="239.41" y="1005.8281">ANNULEE</text></g><ellipse cx="182.91" cy="1111" fill="none" rx="11" ry="11" style="stroke:#003366;stroke-width:1.0;"/><ellipse cx="182.91" cy="1111" fill="#003366" rx="6" ry="6" style="stroke:#003366;stroke-width:1.0;"/><!--link *start* to CREEE--><g id="link_*start*_CREEE"><path d="M412.91,31.32 C412.91,49.68 412.91,85.15 412.91,112.86 " fill="none" id="*start*-to-CREEE" style="stroke:#003366;stroke-width:1.0;"/><polygon fill="#003366" points="412.91,118.86,416.91,109.86,412.91,113.86,408.91,109.86,412.91,118.86" style="stroke:#003366;stroke-width:1.0;"/><text fill="#003366" font-family="sans-serif" font-size="12" lengthAdjust="spacing" textLength="101" x="418.91" y="79.8281">Cr&#233;ation du projet</text></g><!--link CREEE to PLANIFIEE--><g id="link_CREEE_PLANIFIEE"><path d="M412.91,175.04 C412.91,200.15 412.91,231.35 412.91,256.57 " fill="none" id="CREEE-to-PLANIFIEE" style="stroke:#003366;stroke-width:1.0;"/><polygon fill="#003366" points="412.91,262.57,416.91,253.57,412.91,257.57,408.91,253.57,412.91,262.57" style="stroke:#003366;stroke-width:1.0;"/><text fill="#003366" font-family="sans-serif" font-size="12" lengthAdjust="spacing" textLength="119" x="418.91" y="223.8281">Affectation date/salle</text></g><!--link PLANIFIEE to JURY_AFFECTE--><g id="link_PLANIFIEE_JURY_AFFECTE"><path d="M368.88,310.11 C351.9,319.29 333.95,332.13 322.91,349 C311.81,365.99 308.9482,382.9212 308.5982,400.6812 " fill="none" id="PLANIFIEE-to-JURY_AFFECTE" style="stroke:#003366;stroke-width:1.0;"/><polygon fill="#003366" points="308.48,406.68,312.6566,397.7606,308.5785,401.681,304.6581,397.6029,308.48,406.68" style="stroke:#003366;stroke-width:1.0;"/><text fill="#003366" font-family="sans-serif" font-size="12" lengthAdjust="spacing" textLength="149" x="328.91" y="367.8281">Composition jury compl&#232;te</text></g><!--link JURY_AFFECTE to CONVOQUEE--><g id="link_JURY_AFFECTE_CONVOQUEE"><path d="M304.74,463.15 C303.18,472.56 301.68,483.21 300.91,493 C299.4,512.28 299.8007,528.1047 300.9707,544.8047 " fill="none" id="JURY_AFFECTE-to-CONVOQUEE" style="stroke:#003366;stroke-width:1.0;"/><polygon fill="#003366" points="301.39,550.79,304.7512,541.5325,301.0406,545.8022,296.7708,542.0916,301.39,550.79" style="stroke:#003366;stroke-width:1.0;"/><text fill="#003366" font-family="sans-serif" font-size="12" lengthAdjust="spacing" textLength="171" x="306.91" y="511.8281">Validation &amp; Envoi notifications</text></g><!--link CONVOQUEE to EN_COURS--><g id="link_CONVOQUEE_EN_COURS"><path d="M251.68,602.9 C235.08,611.88 217.52,623.34 203.91,637 C187.53,653.45 177.4198,671.1765 169.2498,689.1765 " fill="none" id="CONVOQUEE-to-EN_COURS" style="stroke:#003366;stroke-width:1.0;"/><polygon fill="#003366" points="166.77,694.64,174.1321,688.0979,168.8365,690.087,166.8474,684.7914,166.77,694.64" style="stroke:#003366;stroke-width:1.0;"/><text fill="#003366" font-family="sans-serif" font-size="12" lengthAdjust="spacing" textLength="94" x="209.91" y="655.8281">D&#233;but de s&#233;ance</text></g><!--link EN_COURS to EVALUEE--><g id="link_EN_COURS_EVALUEE"><path d="M143.64,751.28 C140.09,760.53 136.69,771.03 134.91,781 C131.49,800.19 131.8033,816.2197 133.4833,833.0297 " fill="none" id="EN_COURS-to-EVALUEE" style="stroke:#003366;stroke-width:1.0;"/><polygon fill="#003366" points="134.08,839,137.1652,829.6468,133.5828,834.0248,129.2048,830.4424,134.08,839" style="stroke:#003366;stroke-width:1.0;"/><text fill="#003366" font-family="sans-serif" font-size="12" lengthAdjust="spacing" textLength="146" x="140.91" y="799.8281">Validation des notes (RG6)</text></g><!--link EVALUEE to CLOTUREE--><g id="link_EVALUEE_CLOTUREE"><path d="M97.26,877.63 C72.55,885.8 42.95,900.28 27.91,925 C11,952.82 39.6589,974.267 71.4089,989.627 " fill="none" id="EVALUEE-to-CLOTUREE" style="stroke:#003366;stroke-width:1.0;"/><polygon fill="#003366" points="76.81,992.24,70.4503,984.7198,72.309,990.0625,66.9663,991.9213,76.81,992.24" style="stroke:#003366;stroke-width:1.0;"/><text fill="#003366" font-family="sans-serif" font-size="12" lengthAdjust="spacing" textLength="115" x="33.91" y="943.8281">Soutenance cl&#244;tur&#233;e</text></g><!--link EVALUEE to ANNULEE--><g id="link_EVALUEE_ANNULEE"><path d="M153.17,895.21 C163.68,912.71 178.64,935.38 194.91,953 C204.76,963.66 211.9706,970.2477 223.2806,979.0777 " fill="none" id="EVALUEE-to-ANNULEE" style="stroke:#003366;stroke-width:1.0;"/><polygon fill="#003366" points="228.01,982.77,223.3775,974.0786,224.0689,979.6931,218.4544,980.3844,228.01,982.77" style="stroke:#003366;stroke-width:1.0;"/><text fill="#003366" font-family="sans-serif" font-size="12" lengthAdjust="spacing" textLength="103" x="200.91" y="943.8281">Motif exceptionnel</text></g><!--link CONVOQUEE to ANNULEE--><g id="link_CONVOQUEE_ANNULEE"><path d="M309.66,607.13 C311.4,616.54 313.06,627.19 313.91,637 C320,706.96 337.65,886.91 313.91,953 C310.01,963.86 306.9219,969.5465 299.5219,978.3065 " fill="none" id="CONVOQUEE-to-ANNULEE" style="stroke:#003366;stroke-width:1.0;"/><polygon fill="#003366" points="295.65,982.89,304.5135,978.596,298.8766,979.0704,298.4022,973.4335,295.65,982.89" style="stroke:#003366;stroke-width:1.0;"/><text fill="#003366" font-family="sans-serif" font-size="12" lengthAdjust="spacing" textLength="139" x="330.91" y="799.8281">Absence / Force majeure</text></g><!--link PLANIFIEE to ANNULEE--><g id="link_PLANIFIEE_ANNULEE"><path d="M457.12,317.94 C468.59,326.54 479.94,337.02 487.91,349 C509.53,381.49 509.91,394.98 509.91,434 C509.91,434 509.91,434 509.91,868 C509.91,959.74 385.1317,992.3239 315.4417,1003.6939 " fill="none" id="PLANIFIEE-to-ANNULEE" style="stroke:#003366;stroke-width:1.0;"/><polygon fill="#003366" points="309.52,1004.66,319.0466,1007.1586,314.4548,1003.8549,317.7585,999.263,309.52,1004.66" style="stroke:#003366;stroke-width:1.0;"/></g><!--link ANNULEE to *end*--><g id="link_ANNULEE_*end*"><path d="M243.74,1039.04 C225.48,1060.34 205.147,1084.0764 193.547,1097.5964 " fill="none" id="ANNULEE-to-*end*" style="stroke:#003366;stroke-width:1.0;"/><polygon fill="#003366" points="189.64,1102.15,198.5362,1097.9242,192.8958,1098.3553,192.4647,1092.7149,189.64,1102.15" style="stroke:#003366;stroke-width:1.0;"/></g><!--link CLOTUREE to *end*--><g id="link_CLOTUREE_*end*"><path d="M138.74,1039.04 C151.72,1059.89 165.6896,1082.326 174.3096,1096.176 " fill="none" id="CLOTUREE-to-*end*" style="stroke:#003366;stroke-width:1.0;"/><polygon fill="#003366" points="177.48,1101.27,176.1204,1091.5154,174.838,1097.025,169.3284,1095.7426,177.48,1101.27" style="stroke:#003366;stroke-width:1.0;"/></g><!--SRC=[PP51JiCm44NtFiMmGO1KkcF10iaA3YeA2QHD98HGbJeJaIY98zj1S2EwvmQv6BRRf6hPsDBC-_E_nsVw0nk4ha0ef6ZWcf2tgtUOpUx0YnbZS0kU7BQPBaKBUG-T51LgGdPDYpq7D5pu2uVIea2kzt2cSQwokaPoGApWCObVrzJtcRTouqNJ2LKwJTNBR-2cK0y_6iaHwI95OHgz9CuhpUeotrcT0si_HGcjq6LHSbTK9kD4MoqBrrwKn4iZlH-scrv3Zg3CqrgEP6ewCgN1FuySbPrlpeluuUQIa95okO9ebSHEiXIznjOE1LuFlxetsyCZc8PX4ZZsoUO5_EBOMOyMwzFG1vPk5DgXS_25D7UJLTZBqztkUK96eIsQ3oLJmh7m1m00]--></g></svg>