<?xml version="1.0" encoding="us-ascii" standalone="no"?><svg xmlns="http://www.w3.org/2000/svg" xmlns:xlink="http://www.w3.org/1999/xlink" contentStyleType="text/css" height="383px" preserveAspectRatio="none" style="width:438px;height:383px;background:#FFFFFF;" version="1.1" viewBox="0 0 438 383" width="438px" zoomAndPan="magnify"><defs/><g><!--cluster Module Administration--><g id="cluster_Module Administration"><rect fill="none" height="365" rx="2.5" ry="2.5" style="stroke:#003366;stroke-width:1.0;" width="288" x="144" y="12"/><text fill="#000000" font-family="sans-serif" font-size="12" font-weight="bold" lengthAdjust="spacing" textLength="139" x="218.5" y="31.8281">Module Administration</text></g><g id="elem_UC1"><ellipse cx="287.9251" cy="82.085" fill="#F2F4F7" rx="110.9251" ry="24.585" style="stroke:#003366;stroke-width:1.0;"/><text fill="#000000" font-family="sans-serif" font-size="12" lengthAdjust="spacing" textLength="149" x="213.4251" y="84.7411">G&#233;rer comptes utilisateurs</text></g><g id="elem_UC2"><ellipse cx="288.1396" cy="163.1281" fill="#F2F4F7" rx="66.6396" ry="21.6281" style="stroke:#003366;stroke-width:1.0;"/><text fill="#000000" font-family="sans-serif" font-size="12" lengthAdjust="spacing" textLength="68" x="254.1396" y="165.7841">G&#233;rer salles</text></g><g id="elem_UC3"><ellipse cx="288.0163" cy="244.9033" fill="#F2F4F7" rx="112.5163" ry="24.9033" style="stroke:#003366;stroke-width:1.0;"/><text fill="#000000" font-family="sans-serif" font-size="12" lengthAdjust="spacing" textLength="153" x="211.5163" y="247.5593">G&#233;rer les sessions globales</text></g><g id="elem_UC4"><ellipse cx="288.2191" cy="333.0438" fill="#F2F4F7" rx="128.2191" ry="28.0438" style="stroke:#003366;stroke-width:1.0;"/><text fill="#000000" font-family="sans-serif" font-size="12" lengthAdjust="spacing" textLength="191" x="192.7191" y="335.6999">G&#233;rer les  param&#232;tres du syst&#232;me</text></g><!--entity Admin--><g id="elem_Admin"><ellipse cx="53" cy="169.5" fill="#F2F4F7" rx="8" ry="8" style="stroke:#003366;stroke-width:1.0;"/><path d="M53,177.5 L53,204.5 M40,185.5 L66,185.5 M53,204.5 L40,219.5 M53,204.5 L66,219.5 " fill="none" style="stroke:#003366;stroke-width:1.0;"/><text fill="#000000" font-family="sans-serif" font-size="12" lengthAdjust="spacing" textLength="84" x="11" y="239.3281">Administrateur</text></g><!--link Admin to UC1--><g id="link_Admin_UC1"><path d="M90.66,160.47 C103.78,147.15 119.45,133.52 136,124 C156.16,112.4 173.9192,105.4671 196.3292,99.2371 " fill="none" id="Admin-to-UC1" style="stroke:#003366;stroke-width:1.0;"/><polygon fill="#003366" points="202.11,97.63,192.3675,96.1867,197.2927,98.9692,194.5102,103.8944,202.11,97.63" style="stroke:#003366;stroke-width:1.0;"/></g><!--link Admin to UC2--><g id="link_Admin_UC2"><path d="M100.03,195.9 C137.04,189.39 183.3208,181.2398 223.1608,174.2298 " fill="none" id="Admin-to-UC2" style="stroke:#003366;stroke-width:1.0;"/><polygon fill="#003366" points="229.07,173.19,219.513,170.8101,224.1456,174.0565,220.8993,178.6891,229.07,173.19" style="stroke:#003366;stroke-width:1.0;"/></g><!--link Admin to UC3--><g id="link_Admin_UC3"><path d="M100.03,212.1 C128.28,217.07 159.4808,222.5602 193.1808,228.4902 " fill="none" id="Admin-to-UC3" style="stroke:#003366;stroke-width:1.0;"/><polygon fill="#003366" points="199.09,229.53,190.9194,224.0308,194.1657,228.6635,189.533,231.9098,199.09,229.53" style="stroke:#003366;stroke-width:1.0;"/></g><!--link Admin to UC4--><g id="link_Admin_UC4"><path d="M89.33,247.66 C102.69,261.87 118.84,276.63 136,287 C154.41,298.13 170.0149,304.9231 190.7249,311.5431 " fill="none" id="Admin-to-UC4" style="stroke:#003366;stroke-width:1.0;"/><polygon fill="#003366" points="196.44,313.37,189.0852,306.8196,191.6774,311.8476,186.6494,314.4398,196.44,313.37" style="stroke:#003366;stroke-width:1.0;"/></g><!--SRC=[TOz1JWCn34NtFiLdzaMYxHe9iM35aWEuCvvff6Goifq5GjodFSTSZ121QANYZVNZzx_ZEpzA4YoZODISS4zHHeTdQ9YEZY6ez1xoJCIzPqNtDAGm1tDbbw8TsD2UYBv9dgSew5xpK6g_O6j4Xmz2hMBIirNgPJshAFgS5XT3yH23jLXhkM_F3pSDnZ7ABxAzYTGvJCpgMiCKyu7_7Bj_7LXOEQqdrog60ditNqz9Venx-YHgDs6pUMpVkrJRAxMxKlil]--></g></svg>