<?xml version="1.0" encoding="us-ascii" standalone="no"?><svg xmlns="http://www.w3.org/2000/svg" xmlns:xlink="http://www.w3.org/1999/xlink" contentStyleType="text/css" height="297px" preserveAspectRatio="none" style="width:434px;height:297px;background:#FFFFFF;" version="1.1" viewBox="0 0 434 297" width="434px" zoomAndPan="magnify"><defs/><g><!--cluster Module Administration--><g id="cluster_Module Administration"><rect fill="none" height="279" rx="2.5" ry="2.5" style="stroke:#003366;stroke-width:1.0;" width="284" x="144" y="12"/><text fill="#000000" font-family="sans-serif" font-size="12" font-weight="bold" lengthAdjust="spacing" textLength="139" x="216.5" y="31.8281">Module Administration</text></g><g id="elem_UC1"><ellipse cx="285.9251" cy="82.085" fill="#F2F4F7" rx="110.9251" ry="24.585" style="stroke:#003366;stroke-width:1.0;"/><text fill="#000000" font-family="sans-serif" font-size="12" lengthAdjust="spacing" textLength="149" x="211.4251" y="84.7411">G&#233;rer comptes utilisateurs</text></g><g id="elem_UC2"><ellipse cx="286.1396" cy="163.1281" fill="#F2F4F7" rx="66.6396" ry="21.6281" style="stroke:#003366;stroke-width:1.0;"/><text fill="#000000" font-family="sans-serif" font-size="12" lengthAdjust="spacing" textLength="68" x="252.1396" y="165.7841">G&#233;rer salles</text></g><g id="elem_UC4"><ellipse cx="286.0999" cy="247.12" fill="#F2F4F7" rx="126.0999" ry="27.62" style="stroke:#003366;stroke-width:1.0;"/><text fill="#000000" font-family="sans-serif" font-size="12" lengthAdjust="spacing" textLength="186" x="193.0999" y="249.776">G&#233;rer les sessions et param&#232;tres</text></g><!--entity Admin--><g id="elem_Admin"><ellipse cx="53" cy="128.5" fill="#F2F4F7" rx="8" ry="8" style="stroke:#003366;stroke-width:1.0;"/><path d="M53,136.5 L53,163.5 M40,144.5 L66,144.5 M53,163.5 L40,178.5 M53,163.5 L66,178.5 " fill="none" style="stroke:#003366;stroke-width:1.0;"/><text fill="#000000" font-family="sans-serif" font-size="12" lengthAdjust="spacing" textLength="84" x="11" y="198.3281">Administrateur</text></g><!--link Admin to UC1--><g id="link_Admin_UC1"><path d="M100.24,139.33 C111.76,133.91 124.19,128.43 136,124 C160.03,114.97 181.0749,108.4314 205.2849,101.7714 " fill="none" id="Admin-to-UC1" style="stroke:#003366;stroke-width:1.0;"/><polygon fill="#003366" points="211.07,100.18,201.3314,98.7104,206.2491,101.5062,203.4533,106.4239,211.07,100.18" style="stroke:#003366;stroke-width:1.0;"/></g><!--link Admin to UC2--><g id="link_Admin_UC2"><path d="M100.19,163 C134.29,163 175.18,163 213.2,163 " fill="none" id="Admin-to-UC2" style="stroke:#003366;stroke-width:1.0;"/><polygon fill="#003366" points="219.2,163,210.2,159,214.2,163,210.2,167,219.2,163" style="stroke:#003366;stroke-width:1.0;"/></g><!--link Admin to UC4--><g id="link_Admin_UC4"><path d="M100.3,186.51 C111.82,191.94 124.24,197.46 136,202 C158.43,210.67 177.5323,217.0284 200.4023,223.8784 " fill="none" id="Admin-to-UC4" style="stroke:#003366;stroke-width:1.0;"/><polygon fill="#003366" points="206.15,225.6,198.6761,219.1859,201.3602,224.1654,196.3807,226.8495,206.15,225.6" style="stroke:#003366;stroke-width:1.0;"/></g><!--SRC=[ROv12i9034NtESMtUmMBQq5Sk7Bf0OOsjGCpdPAaA_4-UevUp750gM0s8Sdx_sTbFKV6s34wIH4R2jmPB47yjJUqNhWndmOYrrWIL8Ss-i6hYJEUf89Jb1NHctJ3DJ2gSsgdt1TijgXm8-IQb1kdcJhDJs51a-9eh9ZC1w_5LellvRZzAr0N0d-G-Y-Ixr1MpR4ADenEN9mV9b_TZkv4vK6ir_kIjPpgdsdt0W00]--></g></svg>