<?xml version="1.0" encoding="us-ascii" standalone="no"?><svg xmlns="http://www.w3.org/2000/svg" xmlns:xlink="http://www.w3.org/1999/xlink" contentStyleType="text/css" height="679px" preserveAspectRatio="none" style="width:703px;height:679px;background:#FFFFFF;" version="1.1" viewBox="0 0 703 679" width="703px" zoomAndPan="magnify"><defs/><g><!--cluster Module Coordination--><g id="cluster_Module Coordination"><rect fill="none" height="661" rx="2.5" ry="2.5" style="stroke:#003366;stroke-width:1.0;" width="560" x="137" y="12"/><text fill="#000000" font-family="sans-serif" font-size="12" font-weight="bold" lengthAdjust="spacing" textLength="126" x="354" y="31.8281">Module Coordination</text></g><g id="elem_UC11"><ellipse cx="262.0244" cy="79.1281" fill="#F2F4F7" rx="85.0244" ry="21.6281" style="stroke:#003366;stroke-width:1.0;"/><text fill="#000000" font-family="sans-serif" font-size="12" lengthAdjust="spacing" textLength="94" x="215.0244" y="81.7841">G&#233;rer les projets</text></g><g id="elem_UC4"><ellipse cx="261.8431" cy="157.8686" fill="#F2F4F7" rx="99.8431" ry="22.3686" style="stroke:#003366;stroke-width:1.0;"/><text fill="#000000" font-family="sans-serif" font-size="12" lengthAdjust="spacing" textLength="120" x="201.8431" y="160.5246">Planifier soutenances</text></g><g id="elem_UC1"><ellipse cx="261.9178" cy="237.1281" fill="#F2F4F7" rx="74.4178" ry="21.6281" style="stroke:#003366;stroke-width:1.0;"/><text fill="#000000" font-family="sans-serif" font-size="12" lengthAdjust="spacing" textLength="79" x="222.4178" y="239.7841">Assigner jurys</text></g><g id="elem_UC3"><ellipse cx="262.196" cy="315.1281" fill="#F2F4F7" rx="82.196" ry="21.6281" style="stroke:#003366;stroke-width:1.0;"/><text fill="#000000" font-family="sans-serif" font-size="12" lengthAdjust="spacing" textLength="90" x="217.196" y="317.7841">Valider planning</text></g><g id="elem_UC5"><ellipse cx="261.9481" cy="394.0896" fill="#F2F4F7" rx="100.9481" ry="22.5896" style="stroke:#003366;stroke-width:1.0;"/><text fill="#000000" font-family="sans-serif" font-size="12" lengthAdjust="spacing" textLength="123" x="200.4481" y="396.7456">G&#233;n&#233;rer convocations</text></g><g id="elem_UC6"><ellipse cx="261.9555" cy="476.1911" fill="#F2F4F7" rx="108.9555" ry="24.1911" style="stroke:#003366;stroke-width:1.0;"/><text fill="#000000" font-family="sans-serif" font-size="12" lengthAdjust="spacing" textLength="144" x="189.9555" y="478.8471">G&#233;n&#233;rer planning g&#233;n&#233;ral</text></g><g id="elem_UC2"><ellipse cx="261.8026" cy="557.1281" fill="#F2F4F7" rx="92.8026" ry="21.6281" style="stroke:#003366;stroke-width:1.0;"/><text fill="#000000" font-family="sans-serif" font-size="12" lengthAdjust="spacing" textLength="105" x="209.3026" y="559.7841">Consulter rapports</text></g><g id="elem_UC9"><ellipse cx="587.8026" cy="559.1281" fill="#F2F4F7" rx="92.8026" ry="21.6281" style="stroke:#003366;stroke-width:1.0;"/><text fill="#000000" font-family="sans-serif" font-size="12" lengthAdjust="spacing" textLength="105" x="535.3026" y="561.7841">Consulter planning</text></g><g id="elem_Check"><ellipse cx="587.9533" cy="277.1281" fill="#F2F4F7" rx="77.9533" ry="21.6281" style="stroke:#003366;stroke-width:1.0;"/><text fill="#000000" font-family="sans-serif" font-size="12" lengthAdjust="spacing" textLength="84" x="545.9533" y="279.7841">V&#233;rifier conflits</text></g><g id="elem_UC10"><ellipse cx="262.2168" cy="635.1281" fill="#F2F4F7" rx="94.2168" ry="21.6281" style="stroke:#003366;stroke-width:1.0;"/><text fill="#000000" font-family="sans-serif" font-size="12" lengthAdjust="spacing" textLength="107" x="208.7168" y="637.7841">Rechercher / Filtrer</text></g><!--entity Coord--><g id="elem_Coord"><ellipse cx="48" cy="280.5" fill="#F2F4F7" rx="8" ry="8" style="stroke:#003366;stroke-width:1.0;"/><path d="M48,288.5 L48,315.5 M35,296.5 L61,296.5 M48,315.5 L35,330.5 M48,315.5 L61,330.5 " fill="none" style="stroke:#003366;stroke-width:1.0;"/><text fill="#000000" font-family="sans-serif" font-size="12" lengthAdjust="spacing" textLength="74" x="11" y="350.3281">Coordinateur</text></g><!--link UC1 to Check--><g id="link_UC1_Check"><path d="M330.92,245.39 C385.29,252.1 455.3452,260.7447 510.4152,267.5447 " fill="none" id="UC1-to-Check" style="stroke:#003366;stroke-width:1.0;stroke-dasharray:7.0,7.0;"/><polygon fill="#003366" points="516.37,268.28,507.928,263.2072,511.4077,267.6673,506.9476,271.1469,516.37,268.28" style="stroke:#003366;stroke-width:1.0;"/><text fill="#003366" font-family="sans-serif" font-size="12" lengthAdjust="spacing" textLength="52" x="407" y="245.8281">&#171;include&#187;</text></g><!--link UC3 to Check--><g id="link_UC3_Check"><path d="M343.5,318.03 C380.66,318.25 425.26,316.83 465,311 C489.58,307.39 510.4907,302.0896 532.6007,295.3496 " fill="none" id="UC3-to-Check" style="stroke:#003366;stroke-width:1.0;stroke-dasharray:7.0,7.0;"/><polygon fill="#003366" points="538.34,293.6,528.5647,292.3982,533.5573,295.058,530.8975,300.0505,538.34,293.6" style="stroke:#003366;stroke-width:1.0;"/><text fill="#003366" font-family="sans-serif" font-size="12" lengthAdjust="spacing" textLength="52" x="407" y="301.8281">&#171;include&#187;</text></g><!--link UC6 to UC9--><g id="link_UC6_UC9"><path d="M333.7,494.11 C390.77,508.73 464.4778,527.6105 519.1078,541.6105 " fill="none" id="UC6-to-UC9" style="stroke:#003366;stroke-width:1.0;stroke-dasharray:7.0,7.0;"/><polygon fill="#003366" points="524.92,543.1,517.1947,536.991,520.0765,541.8588,515.2087,544.7406,524.92,543.1" style="stroke:#003366;stroke-width:1.0;"/><text fill="#003366" font-family="sans-serif" font-size="12" lengthAdjust="spacing" textLength="52" x="407" y="503.8281">&#171;include&#187;</text></g><!--link UC10 to UC9--><g id="link_UC10_UC9"><path d="M328.18,619.71 C384.63,606.47 460.0184,588.7797 516.3584,575.5697 " fill="none" id="UC10-to-UC9" style="stroke:#003366;stroke-width:1.0;stroke-dasharray:7.0,7.0;"/><polygon fill="#003366" points="522.2,574.2,512.5245,572.3601,517.332,575.3414,514.3508,580.1489,522.2,574.2" style="stroke:#003366;stroke-width:1.0;"/><text fill="#003366" font-family="sans-serif" font-size="12" lengthAdjust="spacing" textLength="50" x="408" y="577.8281">&#171;extend&#187;</text></g><!--link Coord to UC11--><g id="link_Coord_UC11"><path d="M55.43,271.48 C64.3,226.8 84.55,158.28 129,118 C144.85,103.64 159.9726,96.1692 180.4526,90.4292 " fill="none" id="Coord-to-UC11" style="stroke:#003366;stroke-width:1.0;"/><polygon fill="#003366" points="186.23,88.81,176.4844,87.3873,181.4155,90.1594,178.6434,95.0904,186.23,88.81" style="stroke:#003366;stroke-width:1.0;"/></g><!--link Coord to UC4--><g id="link_Coord_UC4"><path d="M69.47,271.33 C83.13,246.56 103.3,216.84 129,198 C145.03,186.25 158.8086,179.6851 177.8586,173.7851 " fill="none" id="Coord-to-UC4" style="stroke:#003366;stroke-width:1.0;"/><polygon fill="#003366" points="183.59,172.01,173.8095,170.8517,178.8138,173.4892,176.1763,178.4936,183.59,172.01" style="stroke:#003366;stroke-width:1.0;"/></g><!--link Coord to UC1--><g id="link_Coord_UC1"><path d="M90.35,293.22 C102.61,287.21 116.18,280.98 129,276 C153.73,266.4 176.0508,259.4028 199.9508,252.7328 " fill="none" id="Coord-to-UC1" style="stroke:#003366;stroke-width:1.0;"/><polygon fill="#003366" points="205.73,251.12,195.986,249.6865,200.914,252.464,198.1365,257.392,205.73,251.12" style="stroke:#003366;stroke-width:1.0;"/></g><!--link Coord to UC3--><g id="link_Coord_UC3"><path d="M90.13,315 C115.53,315 143.02,315 173.61,315 " fill="none" id="Coord-to-UC3" style="stroke:#003366;stroke-width:1.0;"/><polygon fill="#003366" points="179.61,315,170.61,311,174.61,315,170.61,319,179.61,315" style="stroke:#003366;stroke-width:1.0;"/></g><!--link Coord to UC5--><g id="link_Coord_UC5"><path d="M90.37,336.72 C102.63,342.73 116.2,348.98 129,354 C150.73,362.53 169.3053,368.6619 191.0953,375.0919 " fill="none" id="Coord-to-UC5" style="stroke:#003366;stroke-width:1.0;"/><polygon fill="#003366" points="196.85,376.79,189.3501,370.4063,192.0544,375.3749,187.0859,378.0792,196.85,376.79" style="stroke:#003366;stroke-width:1.0;"/></g><!--link Coord to UC6--><g id="link_Coord_UC6"><path d="M69.09,358.7 C82.73,383.97 103.01,414.51 129,434 C144.2,445.4 156.9042,451.8439 175.0642,457.9639 " fill="none" id="Coord-to-UC6" style="stroke:#003366;stroke-width:1.0;"/><polygon fill="#003366" points="180.75,459.88,173.4987,453.2152,176.0118,458.2832,170.9439,460.7963,180.75,459.88" style="stroke:#003366;stroke-width:1.0;"/></g><!--link Coord to UC2--><g id="link_Coord_UC2"><path d="M55.01,358.7 C63.58,404.42 83.62,475.24 129,517 C143.89,530.7 157.5928,537.9636 176.9628,543.8936 " fill="none" id="Coord-to-UC2" style="stroke:#003366;stroke-width:1.0;"/><polygon fill="#003366" points="182.7,545.65,175.2652,539.1906,177.919,544.1863,172.9233,546.8402,182.7,545.65" style="stroke:#003366;stroke-width:1.0;"/></g><!--SRC=[XPBTIiGm48NlynHZxtVTVr2MWXJqIX11xqCwRRDcap99H14VoEVmnHpxivZLnK9f9kURavCqPw71FK9R8LJazZ0L1gi0mG7fkWbGQa8LjBD2I1KSGLOuHwMsCc2a3AI7RaA8RqxQsY1ajwwC_3sGt9x1cm1-eaSbFJCtdn-410OzjEHs67ndzb3CvobuPwJLbMRMknZGIgjmP5SfUkMzhYsJkqYl1x-KUPH6buoqR6krhGTg-IkTxGCgPv-TwlOmEgvFiQCdrFsKD4F79kqes2kQm1qaszRHOUyBSGeyYdjnj2bUh3yZZbiPFHWM3QgdbBn7rI1zlt0Erze4pZqUr4pqo_CGfjEyRuTBs6wrLIQMcEU3lln7ttGwn_nJdSyI6L_uhvQilWlHNHcOJFB-8lmiLwcOLCkaMYVL9gaMuWi0]--></g></svg>